<svg xmlns="http://www.w3.org/2000/svg" width="145" height="145" viewBox="0 0 145 145">
  <g id="img10" transform="translate(-1148 -5481.463)">
    <g id="Grupo_1074459" data-name="Grupo 1074459" transform="translate(968 -3468.537)">
      <rect id="Rectángulo_378651" data-name="Rectángulo 378651" width="145" height="31" rx="15.5" transform="translate(180 9064)" fill="#315884"/>
      <g id="Grupo_1074381" data-name="Grupo 1074381" transform="translate(183.625 8950)">
        <g id="Grupo_1073526" data-name="Grupo 1073526" transform="translate(0 0)">
          <g id="Grupo_1072785" data-name="Grupo 1072785" transform="translate(0 0)">
            <path id="Trazado_608385" data-name="Trazado 608385" d="M68.288,0A68.288,68.288,0,1,1,0,68.288,68.288,68.288,0,0,1,68.288,0Z" transform="translate(0 0)" fill="none"/>
          </g>
          <g id="Grupo_1073383" data-name="Grupo 1073383" transform="translate(0 0)">
            <g id="Trazado_608385-2" data-name="Trazado 608385" transform="translate(0 0)" fill="#fff">
              <path d="M 68.28794097900391 135.5758819580078 C 59.20368576049805 135.5758819580078 50.39170455932617 133.7969360351562 42.09674072265625 130.2884826660156 C 38.10986709594727 128.6021728515625 34.26445007324219 126.5149383544922 30.66730499267578 124.0847625732422 C 27.10408592224121 121.677490234375 23.75334167480469 118.9128646850586 20.70817756652832 115.8677062988281 C 17.66301345825195 112.8225402832031 14.89839553833008 109.4718170166016 12.49112319946289 105.908576965332 C 10.06094074249268 102.3114318847656 7.973704814910889 98.46601104736328 6.287413597106934 94.47914123535156 C 2.778940916061401 86.18419647216797 0.9999955296516418 77.3721923828125 0.9999955296516418 68.28794097900391 C 0.9999955296516418 59.20368576049805 2.778940916061401 50.39170455932617 6.287413597106934 42.09674072265625 C 7.973704814910889 38.10986709594727 10.06094074249268 34.26445007324219 12.49112319946289 30.66730499267578 C 14.89839553833008 27.10408592224121 17.66301345825195 23.75334167480469 20.70817756652832 20.70817756652832 C 23.75334167480469 17.66301345825195 27.10408592224121 14.89839553833008 30.66730499267578 12.49112319946289 C 34.26445007324219 10.06094074249268 38.10986709594727 7.973704814910889 42.09674072265625 6.287413597106934 C 50.39170455932617 2.778940916061401 59.20368576049805 0.9999955296516418 68.28794097900391 0.9999955296516418 C 77.3721923828125 0.9999955296516418 86.18419647216797 2.778940916061401 94.47914123535156 6.287413597106934 C 98.46601104736328 7.973704814910889 102.3114318847656 10.06094074249268 105.908576965332 12.49112319946289 C 109.4718170166016 14.89839553833008 112.8225402832031 17.66301345825195 115.8677062988281 20.70817756652832 C 118.9128646850586 23.75334167480469 121.677490234375 27.10408592224121 124.0847625732422 30.66730499267578 C 126.5149383544922 34.26445007324219 128.6021728515625 38.10986709594727 130.2884826660156 42.09674072265625 C 133.7969360351562 50.39170455932617 135.5758819580078 59.20368576049805 135.5758819580078 68.28794097900391 C 135.5758819580078 77.3721923828125 133.7969360351562 86.18419647216797 130.2884826660156 94.47914123535156 C 128.6021728515625 98.46601104736328 126.5149383544922 102.3114318847656 124.0847625732422 105.908576965332 C 121.677490234375 109.4718170166016 118.9128646850586 112.8225402832031 115.8677062988281 115.8677062988281 C 112.8225402832031 118.9128646850586 109.4718170166016 121.677490234375 105.908576965332 124.0847625732422 C 102.3114318847656 126.5149383544922 98.46601104736328 128.6021728515625 94.47914123535156 130.2884826660156 C 86.18419647216797 133.7969360351562 77.3721923828125 135.5758819580078 68.28794097900391 135.5758819580078 Z" stroke="none"/>
              <path d="M 68.28794097900391 2 C 59.33824157714844 2 50.65731811523438 3.752365112304688 42.48629760742188 7.208419799804688 C 38.55889892578125 8.869560241699219 34.77075958251953 10.92572021484375 31.22711944580078 13.31976318359375 C 27.71662139892578 15.69139862060547 24.41545867919922 18.41512298583984 21.41529846191406 21.41529846191406 C 18.41512298583984 24.41545867919922 15.69139862060547 27.71662139892578 13.31976318359375 31.22711944580078 C 10.92572021484375 34.77075958251953 8.869560241699219 38.55889892578125 7.208419799804688 42.48629760742188 C 3.752365112304688 50.65731811523438 2 59.33824157714844 2 68.28794097900391 C 2 77.23764038085938 3.752365112304688 85.91856384277344 7.208419799804688 94.08958435058594 C 8.869560241699219 98.01699829101562 10.92572021484375 101.8051223754883 13.31976318359375 105.348762512207 C 15.69139862060547 108.859260559082 18.41512298583984 112.1604385375977 21.41529846191406 115.1605987548828 C 24.41545867919922 118.160758972168 27.71662139892578 120.8844833374023 31.22711944580078 123.2561187744141 C 34.77075958251953 125.6501617431641 38.55889892578125 127.7063217163086 42.48629760742188 129.3674621582031 C 50.65731811523438 132.8235168457031 59.33824157714844 134.5758819580078 68.28794097900391 134.5758819580078 C 77.23764038085938 134.5758819580078 85.91856384277344 132.8235168457031 94.08958435058594 129.3674621582031 C 98.01699829101562 127.7063217163086 101.8051223754883 125.6501617431641 105.348762512207 123.2561187744141 C 108.859260559082 120.8844833374023 112.1604385375977 118.160758972168 115.1605987548828 115.1605987548828 C 118.160758972168 112.1604385375977 120.8844833374023 108.859260559082 123.2561187744141 105.348762512207 C 125.6501617431641 101.8051223754883 127.7063217163086 98.01699829101562 129.3674621582031 94.08958435058594 C 132.8235168457031 85.91856384277344 134.5758819580078 77.23764038085938 134.5758819580078 68.28794097900391 C 134.5758819580078 59.33824157714844 132.8235168457031 50.65731811523438 129.3674621582031 42.48629760742188 C 127.7063217163086 38.55889892578125 125.6501617431641 34.77075958251953 123.2561187744141 31.22711944580078 C 120.8844833374023 27.71662139892578 118.160758972168 24.41545867919922 115.1605987548828 21.41529846191406 C 112.1604385375977 18.41512298583984 108.859260559082 15.69139862060547 105.348762512207 13.31976318359375 C 101.8051223754883 10.92572021484375 98.01699829101562 8.869560241699219 94.08958435058594 7.208419799804688 C 85.91856384277344 3.752365112304688 77.23764038085938 2 68.28794097900391 2 M 68.28794097900391 0 C 106.0023422241211 0 136.5758819580078 30.57356262207031 136.5758819580078 68.28794097900391 C 136.5758819580078 106.0023422241211 106.0023422241211 136.5758819580078 68.28794097900391 136.5758819580078 C 30.57356262207031 136.5758819580078 0 106.0023422241211 0 68.28794097900391 C 0 30.57356262207031 30.57356262207031 0 68.28794097900391 0 Z" stroke="none" fill="#85b6ec"/>
            </g>
          </g>
        </g>
      </g>
      <path id="Trazado_615556" data-name="Trazado 615556" d="M753.15,143.341l5.254-5.253a1.485,1.485,0,0,0-2.1-2.1l-5.254,5.254-5.254-5.254a1.485,1.485,0,0,0-2.1,2.1l5.254,5.253-5.254,5.254a1.485,1.485,0,1,0,2.1,2.1l5.254-5.254,5.254,5.254a1.485,1.485,0,0,0,2.1-2.1Z" transform="translate(-444.163 8826.323)" fill="#ff7c48"/>
      <path id="Trazado_615557" data-name="Trazado 615557" d="M0,16.546,10.536,0,21.071,16.546Z" transform="translate(198.676 9040.785) rotate(90)" fill="#ffb850"/>
      <path id="Trazado_615559" data-name="Trazado 615559" d="M159.635,312.344a4.329,4.329,0,1,1-4.329-4.33,4.329,4.329,0,0,1,4.329,4.33" transform="translate(134.153 8763.889)" fill="#ffb850"/>
      <path id="Trazado_615560" data-name="Trazado 615560" d="M77.381,312.344a4.329,4.329,0,1,1-4.329-4.33,4.329,4.329,0,0,1,4.329,4.33" transform="translate(198.386 8763.889)" fill="#3656b3"/>
      <path id="Trazado_615561" data-name="Trazado 615561" d="M241.889,312.344a4.329,4.329,0,1,1-4.329-4.33,4.329,4.329,0,0,1,4.329,4.33" transform="translate(69.923 8763.889)" fill="#29c7cc"/>
    </g>
    <g id="Grupo_1075010" data-name="Grupo 1075010" transform="translate(1180 5507.3)">
      <path id="Trazado_615813" data-name="Trazado 615813" d="M40.5,4.423,3,31.665,17.328,75.743H63.672L78,31.665Z" transform="translate(0 0)" fill="#65d2e6"/>
      <path id="Trazado_615814" data-name="Trazado 615814" d="M24.283,32.4,3,25.49,17.328,69.568l13.151-18.1Z" transform="translate(0 6.175)" fill="#f0788c"/>
      <path id="Trazado_615815" data-name="Trazado 615815" d="M60.425,63.68l-13.151-18.1H27.231L14.08,63.68Z" transform="translate(3.248 12.062)" fill="#73d282"/>
      <path id="Trazado_615816" data-name="Trazado 615816" d="M67.228,25.49,45.945,32.4l-6.2,19.06L52.9,69.568Z" transform="translate(10.772 6.175)" fill="#ffe66e"/>
      <path id="Trazado_615817" data-name="Trazado 615817" d="M48.217,38.579,69.5,31.665,32,4.423V26.8Z" transform="translate(8.5)" fill="#aee164"/>
      <path id="Trazado_615818" data-name="Trazado 615818" d="M25.654,52.567l-6.2-19.06L35.676,21.728,51.893,33.507l-6.2,19.06Z" transform="translate(4.824 5.072)" fill="#e0f7ff"/>
    </g>
  </g>
</svg>
