<svg xmlns="http://www.w3.org/2000/svg" xmlns:xlink="http://www.w3.org/1999/xlink" width="1030" height="337" viewBox="0 0 1030 337">
  <defs>
    <linearGradient id="linear-gradient" x1="0.5" x2="0.5" y2="1" gradientUnits="objectBoundingBox">
      <stop offset="0" stop-color="#cce4ff"/>
      <stop offset="1" stop-color="#d1f3f5"/>
    </linearGradient>
    <clipPath id="clip-path">
      <rect id="Rectángulo_378884" data-name="Rectángulo 378884" width="859.697" height="219.249" fill="none"/>
    </clipPath>
    <clipPath id="clip-path-2">
      <rect id="Rectángulo_400988" data-name="Rectángulo 400988" width="155.7" height="197.855" fill="none"/>
    </clipPath>
    <clipPath id="clip-path-3">
      <rect id="Rectángulo_400986" data-name="Rectángulo 400986" width="190" height="112.523" fill="none"/>
    </clipPath>
  </defs>
  <g id="img7" transform="translate(-285 -4389)">
    <rect id="Rectángulo_378885" data-name="Rectángulo 378885" width="1030" height="337" transform="translate(285 4389)" fill="url(#linear-gradient)"/>
    <g id="Grupo_1074946" data-name="Grupo 1074946" transform="translate(370 4427.375)">
      <line id="Línea_3195" data-name="Línea 3195" x2="817.344" transform="translate(21.176 198.072)" fill="none" stroke="#000" stroke-miterlimit="10" stroke-width="1.065"/>
      <g id="Grupo_1074947" data-name="Grupo 1074947">
        <g id="Grupo_1074946-2" data-name="Grupo 1074946" clip-path="url(#clip-path)">
          <path id="Trazado_615721" data-name="Trazado 615721" d="M21.176,214.749a16.676,16.676,0,1,1,16.676-16.676,16.676,16.676,0,0,1-16.676,16.676" fill="#e42e37"/>
          <path id="Trazado_615722" data-name="Trazado 615722" d="M21.176,214.749a16.676,16.676,0,1,1,16.676-16.676A16.676,16.676,0,0,1,21.176,214.749Z" fill="none" stroke="#fff" stroke-miterlimit="10" stroke-width="9"/>
          <path id="Trazado_615723" data-name="Trazado 615723" d="M221.762,214.749a16.676,16.676,0,1,1,16.676-16.676,16.676,16.676,0,0,1-16.676,16.676" fill="#f95428"/>
          <path id="Trazado_615724" data-name="Trazado 615724" d="M221.762,214.749a16.676,16.676,0,1,1,16.676-16.676A16.676,16.676,0,0,1,221.762,214.749Z" fill="none" stroke="#fff" stroke-miterlimit="10" stroke-width="9"/>
          <path id="Trazado_615725" data-name="Trazado 615725" d="M427.348,214.749a16.676,16.676,0,1,1,16.676-16.676,16.676,16.676,0,0,1-16.676,16.676" fill="#743a8c"/>
          <path id="Trazado_615726" data-name="Trazado 615726" d="M427.348,214.749a16.676,16.676,0,1,1,16.676-16.676A16.676,16.676,0,0,1,427.348,214.749Z" fill="none" stroke="#fff" stroke-miterlimit="10" stroke-width="9"/>
          <path id="Trazado_615727" data-name="Trazado 615727" d="M633.934,214.749a16.676,16.676,0,1,1,16.676-16.676,16.676,16.676,0,0,1-16.676,16.676" fill="#45aab1"/>
          <path id="Trazado_615728" data-name="Trazado 615728" d="M633.934,214.749a16.676,16.676,0,1,1,16.676-16.676A16.676,16.676,0,0,1,633.934,214.749Z" fill="none" stroke="#fff" stroke-miterlimit="10" stroke-width="9"/>
          <path id="Trazado_615729" data-name="Trazado 615729" d="M838.52,214.749A16.676,16.676,0,1,1,855.2,198.073a16.676,16.676,0,0,1-16.676,16.676" fill="#3e86a9"/>
          <path id="Trazado_615730" data-name="Trazado 615730" d="M838.52,214.749A16.676,16.676,0,1,1,855.2,198.073,16.676,16.676,0,0,1,838.52,214.749Z" fill="none" stroke="#fff" stroke-miterlimit="10" stroke-width="9"/>
          <path id="Trazado_615731" data-name="Trazado 615731" d="M15.729,198.072a5.448,5.448,0,1,1,5.448,5.447,5.448,5.448,0,0,1-5.448-5.447" fill="#fff"/>
          <path id="Trazado_615732" data-name="Trazado 615732" d="M216.316,198.072a5.447,5.447,0,1,1,5.447,5.447,5.447,5.447,0,0,1-5.447-5.447" fill="#fff"/>
          <path id="Trazado_615733" data-name="Trazado 615733" d="M421.9,198.072a5.447,5.447,0,1,1,5.447,5.447,5.447,5.447,0,0,1-5.447-5.447" fill="#fff"/>
          <path id="Trazado_615734" data-name="Trazado 615734" d="M628.19,198.072a5.447,5.447,0,1,1,5.447,5.447,5.447,5.447,0,0,1-5.447-5.447" fill="#fff"/>
          <path id="Trazado_615735" data-name="Trazado 615735" d="M833.074,198.072a5.447,5.447,0,1,1,5.447,5.447,5.447,5.447,0,0,1-5.447-5.447" fill="#fff"/>
          <path id="Trazado_615736" data-name="Trazado 615736" d="M534.529,53.106H325.167a26.553,26.553,0,0,1,0-53.106H534.529a26.553,26.553,0,0,1,0,53.106" fill="#315884"/>
          <path id="Trazado_615737" data-name="Trazado 615737" d="M501.966,155.038H357.731a26.553,26.553,0,1,1,0-53.106H501.966a26.553,26.553,0,0,1,0,53.106" fill="#3656b3"/>
        </g>
      </g>
    </g>
    <path id="Trazado_873499" data-name="Trazado 873499" d="M11.654-6.108a7.725,7.725,0,0,1-.668,3.313A5.03,5.03,0,0,1,9.075-.6,5.288,5.288,0,0,1,6.223.176,5.324,5.324,0,0,1,3.384-.589,5.08,5.08,0,0,1,1.45-2.773,7.5,7.5,0,0,1,.756-6.038v-.633A7.685,7.685,0,0,1,1.437-10,5.072,5.072,0,0,1,3.362-12.2a5.3,5.3,0,0,1,2.843-.769,5.3,5.3,0,0,1,2.843.769A5.072,5.072,0,0,1,10.973-10a7.663,7.663,0,0,1,.681,3.318Zm-2.672-.58a5.385,5.385,0,0,0-.721-3.059,2.349,2.349,0,0,0-2.057-1.046A2.349,2.349,0,0,0,4.157-9.76a5.324,5.324,0,0,0-.729,3.028v.624a5.453,5.453,0,0,0,.721,3.041A2.342,2.342,0,0,0,6.223-1.986,2.321,2.321,0,0,0,8.262-3.028a5.421,5.421,0,0,0,.721-3.037ZM21.964-4.667a5.7,5.7,0,0,1-1,3.52A3.2,3.2,0,0,1,18.272.176a2.963,2.963,0,0,1-2.329-1V3.656H13.4V-9.51h2.355l.088.932a2.985,2.985,0,0,1,2.408-1.107,3.22,3.22,0,0,1,2.733,1.3A5.858,5.858,0,0,1,21.964-4.8Zm-2.54-.185a3.743,3.743,0,0,0-.47-2.048,1.532,1.532,0,0,0-1.367-.721,1.663,1.663,0,0,0-1.644.914v3.894a1.692,1.692,0,0,0,1.661.94Q19.424-1.872,19.424-4.852Zm3.718.009a5.64,5.64,0,0,1,.545-2.522,3.989,3.989,0,0,1,1.569-1.714,4.577,4.577,0,0,1,2.377-.606,4.33,4.33,0,0,1,3.142,1.178,4.727,4.727,0,0,1,1.358,3.2l.018.65a4.97,4.97,0,0,1-1.222,3.511A4.247,4.247,0,0,1,27.65.176a4.268,4.268,0,0,1-3.283-1.318,5.058,5.058,0,0,1-1.226-3.586Zm2.54.18a3.555,3.555,0,0,0,.51,2.073,1.682,1.682,0,0,0,1.459.717,1.686,1.686,0,0,0,1.441-.709,3.89,3.89,0,0,0,.519-2.267,3.519,3.519,0,0,0-.519-2.06,1.686,1.686,0,0,0-1.459-.731,1.658,1.658,0,0,0-1.441.726A3.955,3.955,0,0,0,25.682-4.662ZM39.059-7.128a6.9,6.9,0,0,0-.914-.07,1.86,1.86,0,0,0-1.89.976V0h-2.54V-9.51h2.4l.07,1.134A2.354,2.354,0,0,1,38.3-9.686a2.662,2.662,0,0,1,.791.114Zm4.7-4.72V-9.51h1.626v1.863H43.761V-2.9a1.133,1.133,0,0,0,.2.756,1.015,1.015,0,0,0,.773.229,4.051,4.051,0,0,0,.747-.062V-.053a5.229,5.229,0,0,1-1.538.229,2.425,2.425,0,0,1-2.725-2.7V-7.646H39.832V-9.51h1.389v-2.338ZM52.5-.967A3.185,3.185,0,0,1,49.9.176,3,3,0,0,1,47.562-.7a3.752,3.752,0,0,1-.822-2.575V-9.51h2.54v6.151q0,1.487,1.354,1.487a1.834,1.834,0,0,0,1.775-.9V-9.51h2.549V0H52.567ZM59.212-9.51l.079,1.1a3.32,3.32,0,0,1,2.733-1.274,2.759,2.759,0,0,1,2.25.888,4.142,4.142,0,0,1,.756,2.654V0H62.49V-6.082a1.648,1.648,0,0,0-.352-1.173A1.574,1.574,0,0,0,60.97-7.62a1.747,1.747,0,0,0-1.608.914V0h-2.54V-9.51ZM69.636,0H67.087V-9.51h2.549Zm-2.7-11.971a1.251,1.251,0,0,1,.382-.94,1.436,1.436,0,0,1,1.042-.369,1.44,1.44,0,0,1,1.037.369,1.244,1.244,0,0,1,.387.94,1.247,1.247,0,0,1-.391.949,1.443,1.443,0,0,1-1.033.369,1.443,1.443,0,0,1-1.033-.369A1.247,1.247,0,0,1,66.938-11.971Zm4.395,7.146a5.731,5.731,0,0,1,1-3.542,3.237,3.237,0,0,1,2.729-1.318,2.913,2.913,0,0,1,2.294,1.037V-13.5H79.9V0H77.607l-.123-1.011A2.989,2.989,0,0,1,75.041.176a3.228,3.228,0,0,1-2.694-1.323A5.916,5.916,0,0,1,71.332-4.825Zm2.54.189a3.754,3.754,0,0,0,.466,2.051,1.517,1.517,0,0,0,1.354.713,1.7,1.7,0,0,0,1.661-.995V-6.625a1.675,1.675,0,0,0-1.644-.995Q73.872-7.62,73.872-4.636ZM87.381,0a2.821,2.821,0,0,1-.255-.853,3.073,3.073,0,0,1-2.4,1.028,3.376,3.376,0,0,1-2.316-.809,2.6,2.6,0,0,1-.918-2.039,2.687,2.687,0,0,1,1.121-2.32,5.529,5.529,0,0,1,3.239-.817h1.169v-.545a1.567,1.567,0,0,0-.338-1.055,1.331,1.331,0,0,0-1.068-.4,1.513,1.513,0,0,0-1.006.308,1.045,1.045,0,0,0-.365.844H81.7a2.551,2.551,0,0,1,.51-1.529,3.37,3.37,0,0,1,1.441-1.1,5.253,5.253,0,0,1,2.092-.4,4.15,4.15,0,0,1,2.791.883,3.09,3.09,0,0,1,1.033,2.483V-2.2a4.546,4.546,0,0,0,.378,2.048V0Zm-2.1-1.767a2.188,2.188,0,0,0,1.037-.25,1.645,1.645,0,0,0,.7-.672V-4.324h-.949q-1.907,0-2.03,1.318l-.009.149a1.017,1.017,0,0,0,.334.782A1.3,1.3,0,0,0,85.28-1.767Zm5.845-3.059a5.731,5.731,0,0,1,1-3.542,3.237,3.237,0,0,1,2.729-1.318,2.913,2.913,0,0,1,2.294,1.037V-13.5h2.549V0H97.4l-.123-1.011A2.989,2.989,0,0,1,94.834.176,3.228,3.228,0,0,1,92.14-1.147,5.916,5.916,0,0,1,91.125-4.825Zm2.54.189a3.754,3.754,0,0,0,.466,2.051,1.517,1.517,0,0,0,1.354.713,1.7,1.7,0,0,0,1.661-.995V-6.625A1.675,1.675,0,0,0,95.5-7.62Q93.665-7.62,93.665-4.636ZM106.04.176a4.668,4.668,0,0,1-3.406-1.283,4.561,4.561,0,0,1-1.314-3.419v-.246a5.745,5.745,0,0,1,.554-2.562,4.064,4.064,0,0,1,1.569-1.74,4.4,4.4,0,0,1,2.316-.611,3.947,3.947,0,0,1,3.072,1.23,5,5,0,0,1,1.121,3.489v1.037H103.9a2.36,2.36,0,0,0,.743,1.494,2.245,2.245,0,0,0,1.569.563A2.742,2.742,0,0,0,108.5-2.936l1.248,1.4A3.813,3.813,0,0,1,108.2-.277,5.075,5.075,0,0,1,106.04.176Zm-.29-7.813a1.587,1.587,0,0,0-1.226.512,2.651,2.651,0,0,0-.6,1.466h3.533v-.2A1.891,1.891,0,0,0,107-7.174,1.638,1.638,0,0,0,105.75-7.638Zm10.793,5.01a.818.818,0,0,0-.461-.734,5.241,5.241,0,0,0-1.481-.479q-3.393-.712-3.393-2.883a2.613,2.613,0,0,1,1.05-2.114A4.237,4.237,0,0,1,115-9.686a4.56,4.56,0,0,1,2.9.853,2.687,2.687,0,0,1,1.085,2.215h-2.54a1.229,1.229,0,0,0-.352-.9,1.488,1.488,0,0,0-1.1-.356,1.52,1.52,0,0,0-.993.29.916.916,0,0,0-.352.738.783.783,0,0,0,.4.681,4.114,4.114,0,0,0,1.349.448,11.019,11.019,0,0,1,1.6.426,2.628,2.628,0,0,1,2.013,2.558,2.481,2.481,0,0,1-1.116,2.1,4.815,4.815,0,0,1-2.883.8,5.029,5.029,0,0,1-2.123-.426,3.561,3.561,0,0,1-1.455-1.169,2.716,2.716,0,0,1-.527-1.6h2.408a1.326,1.326,0,0,0,.5,1.037,1.987,1.987,0,0,0,1.248.36,1.839,1.839,0,0,0,1.1-.277A.861.861,0,0,0,116.543-2.628Z" transform="translate(740 4457)" fill="#fff"/>
    <path id="Trazado_873501" data-name="Trazado 873501" d="M11.188-4.263A4.528,4.528,0,0,1,9.664-1.011,5.355,5.355,0,0,1,6.038.176,4.816,4.816,0,0,1,2.167-1.481,6.793,6.793,0,0,1,.756-6.029v-.782a7.671,7.671,0,0,1,.65-3.252,4.874,4.874,0,0,1,1.859-2.158,5.207,5.207,0,0,1,2.808-.751,5.217,5.217,0,0,1,3.568,1.187,4.866,4.866,0,0,1,1.564,3.331H8.569a2.673,2.673,0,0,0-.69-1.8,2.555,2.555,0,0,0-1.806-.558A2.24,2.24,0,0,0,4.1-9.866a5.3,5.3,0,0,0-.672,2.931v.967a5.667,5.667,0,0,0,.628,3.032,2.2,2.2,0,0,0,1.982.958,2.6,2.6,0,0,0,1.824-.558,2.521,2.521,0,0,0,.69-1.727ZM18.264,0a2.821,2.821,0,0,1-.255-.853,3.073,3.073,0,0,1-2.4,1.028,3.376,3.376,0,0,1-2.316-.809,2.6,2.6,0,0,1-.918-2.039A2.687,2.687,0,0,1,13.5-4.992a5.529,5.529,0,0,1,3.239-.817H17.9v-.545a1.567,1.567,0,0,0-.338-1.055A1.331,1.331,0,0,0,16.5-7.8a1.513,1.513,0,0,0-1.006.308,1.045,1.045,0,0,0-.365.844h-2.54a2.551,2.551,0,0,1,.51-1.529,3.37,3.37,0,0,1,1.441-1.1,5.253,5.253,0,0,1,2.092-.4,4.15,4.15,0,0,1,2.791.883,3.09,3.09,0,0,1,1.033,2.483V-2.2A4.546,4.546,0,0,0,20.83-.149V0Zm-2.1-1.767a2.188,2.188,0,0,0,1.037-.25,1.645,1.645,0,0,0,.7-.672V-4.324h-.949q-1.907,0-2.03,1.318l-.009.149a1.017,1.017,0,0,0,.334.782A1.3,1.3,0,0,0,16.163-1.767Zm9.281-10.081V-9.51H27.07v1.863H25.444V-2.9a1.133,1.133,0,0,0,.2.756,1.015,1.015,0,0,0,.773.229,4.051,4.051,0,0,0,.747-.062V-.053a5.229,5.229,0,0,1-1.538.229,2.425,2.425,0,0,1-2.725-2.7V-7.646H21.516V-9.51H22.9v-2.338ZM32.862.176a4.668,4.668,0,0,1-3.406-1.283,4.561,4.561,0,0,1-1.314-3.419v-.246A5.745,5.745,0,0,1,28.7-7.334a4.064,4.064,0,0,1,1.569-1.74,4.4,4.4,0,0,1,2.316-.611,3.947,3.947,0,0,1,3.072,1.23,5,5,0,0,1,1.121,3.489v1.037H30.718a2.36,2.36,0,0,0,.743,1.494,2.245,2.245,0,0,0,1.569.563,2.742,2.742,0,0,0,2.294-1.063l1.248,1.4A3.813,3.813,0,0,1,35.024-.277,5.075,5.075,0,0,1,32.862.176Zm-.29-7.813a1.587,1.587,0,0,0-1.226.512,2.651,2.651,0,0,0-.6,1.466h3.533v-.2a1.891,1.891,0,0,0-.457-1.311A1.638,1.638,0,0,0,32.572-7.638Zm5.273,2.813A5.573,5.573,0,0,1,38.887-8.35,3.375,3.375,0,0,1,41.7-9.686,2.96,2.96,0,0,1,44.13-8.613l.105-.9h2.3V-.316a4.064,4.064,0,0,1-.567,2.171,3.641,3.641,0,0,1-1.6,1.406,5.608,5.608,0,0,1-2.408.483,5.215,5.215,0,0,1-2.039-.417,3.619,3.619,0,0,1-1.5-1.077L39.551.7a2.975,2.975,0,0,0,2.3,1.063,2.178,2.178,0,0,0,1.573-.541,2.027,2.027,0,0,0,.563-1.534v-.51a2.938,2.938,0,0,1-2.312.993A3.366,3.366,0,0,1,38.9-1.165,5.572,5.572,0,0,1,37.846-4.72Zm2.54.189A3.47,3.47,0,0,0,40.9-2.607a1.65,1.65,0,0,0,1.424.735,1.764,1.764,0,0,0,1.661-.871V-6.749a1.76,1.76,0,0,0-1.644-.871,1.66,1.66,0,0,0-1.437.748A3.911,3.911,0,0,0,40.386-4.636Zm7.708-.207a5.64,5.64,0,0,1,.545-2.522,3.989,3.989,0,0,1,1.569-1.714,4.577,4.577,0,0,1,2.377-.606,4.33,4.33,0,0,1,3.142,1.178,4.727,4.727,0,0,1,1.358,3.2l.018.65a4.97,4.97,0,0,1-1.222,3.511A4.247,4.247,0,0,1,52.6.176,4.268,4.268,0,0,1,49.32-1.143a5.058,5.058,0,0,1-1.226-3.586Zm2.54.18a3.555,3.555,0,0,0,.51,2.073,1.682,1.682,0,0,0,1.459.717,1.686,1.686,0,0,0,1.441-.709,3.89,3.89,0,0,0,.519-2.267,3.519,3.519,0,0,0-.519-2.06,1.686,1.686,0,0,0-1.459-.731,1.658,1.658,0,0,0-1.441.726A3.955,3.955,0,0,0,50.634-4.662ZM64.011-7.128A6.9,6.9,0,0,0,63.1-7.2a1.86,1.86,0,0,0-1.89.976V0h-2.54V-9.51h2.4l.07,1.134a2.354,2.354,0,0,1,2.118-1.31,2.662,2.662,0,0,1,.791.114ZM67.975,0h-2.54V-9.51h2.54Zm-.747-13.368H70l-2.435,2.725H65.5ZM75.674,0a2.821,2.821,0,0,1-.255-.853A3.073,3.073,0,0,1,73.02.176,3.376,3.376,0,0,1,70.7-.633a2.6,2.6,0,0,1-.918-2.039,2.687,2.687,0,0,1,1.121-2.32,5.529,5.529,0,0,1,3.239-.817h1.169v-.545a1.567,1.567,0,0,0-.338-1.055,1.331,1.331,0,0,0-1.068-.4A1.513,1.513,0,0,0,72.9-7.5a1.045,1.045,0,0,0-.365.844H70a2.551,2.551,0,0,1,.51-1.529,3.37,3.37,0,0,1,1.441-1.1,5.253,5.253,0,0,1,2.092-.4A4.15,4.15,0,0,1,76.83-8.8a3.09,3.09,0,0,1,1.033,2.483V-2.2A4.546,4.546,0,0,0,78.24-.149V0Zm-2.1-1.767a2.188,2.188,0,0,0,1.037-.25,1.645,1.645,0,0,0,.7-.672V-4.324h-.949q-1.907,0-2.03,1.318l-.009.149a1.017,1.017,0,0,0,.334.782A1.3,1.3,0,0,0,73.573-1.767Zm11.391-.861a.818.818,0,0,0-.461-.734,5.241,5.241,0,0,0-1.481-.479q-3.393-.712-3.393-2.883a2.613,2.613,0,0,1,1.05-2.114,4.237,4.237,0,0,1,2.747-.848,4.56,4.56,0,0,1,2.9.853,2.687,2.687,0,0,1,1.085,2.215h-2.54a1.229,1.229,0,0,0-.352-.9,1.488,1.488,0,0,0-1.1-.356,1.52,1.52,0,0,0-.993.29.916.916,0,0,0-.352.738.783.783,0,0,0,.4.681,4.114,4.114,0,0,0,1.349.448,11.019,11.019,0,0,1,1.6.426,2.628,2.628,0,0,1,2.013,2.558,2.481,2.481,0,0,1-1.116,2.1,4.815,4.815,0,0,1-2.883.8A5.029,5.029,0,0,1,81.312-.25a3.561,3.561,0,0,1-1.455-1.169,2.716,2.716,0,0,1-.527-1.6h2.408a1.326,1.326,0,0,0,.5,1.037,1.987,1.987,0,0,0,1.248.36,1.839,1.839,0,0,0,1.1-.277A.861.861,0,0,0,84.964-2.628Z" transform="translate(756 4562)" fill="#fff"/>
    <path id="Trazado_873500" data-name="Trazado 873500" d="M6.016-2.242a1.064,1.064,0,0,0-.441-.91,4.249,4.249,0,0,0-1.539-.559,7.277,7.277,0,0,1-1.742-.562,2.479,2.479,0,0,1-.953-.781,1.869,1.869,0,0,1-.309-1.078A2.193,2.193,0,0,1,1.91-7.891a3.432,3.432,0,0,1,2.246-.719,3.532,3.532,0,0,1,2.332.742,2.357,2.357,0,0,1,.895,1.9H5.93a1.3,1.3,0,0,0-.5-1.023,1.888,1.888,0,0,0-1.27-.43,1.976,1.976,0,0,0-1.234.344,1.082,1.082,0,0,0-.445.9.877.877,0,0,0,.414.789,5.1,5.1,0,0,0,1.5.508A7.8,7.8,0,0,1,6.141-4.3a2.558,2.558,0,0,1,1,.809,1.988,1.988,0,0,1,.324,1.152A2.163,2.163,0,0,1,6.555-.527,3.8,3.8,0,0,1,4.2.156,4.257,4.257,0,0,1,2.406-.2a2.922,2.922,0,0,1-1.223-1A2.42,2.42,0,0,1,.742-2.6H2.188A1.5,1.5,0,0,0,2.77-1.449,2.258,2.258,0,0,0,4.2-1.023,2.331,2.331,0,0,0,5.52-1.355,1.02,1.02,0,0,0,6.016-2.242Zm6.836,2.4a3.693,3.693,0,0,1-2.8-1.129,4.19,4.19,0,0,1-1.078-3.02v-.266A5.073,5.073,0,0,1,9.457-6.5,3.748,3.748,0,0,1,10.8-8.051a3.378,3.378,0,0,1,1.871-.559,3.166,3.166,0,0,1,2.563,1.086,4.7,4.7,0,0,1,.914,3.109v.6H10.422a3,3,0,0,0,.73,2.02,2.3,2.3,0,0,0,1.777.77,2.517,2.517,0,0,0,1.3-.312,3.259,3.259,0,0,0,.93-.828l.883.688A3.55,3.55,0,0,1,12.852.156Zm-.18-7.578a1.928,1.928,0,0,0-1.469.637A3.1,3.1,0,0,0,10.469-5H14.7v-.109a2.753,2.753,0,0,0-.594-1.707A1.815,1.815,0,0,0,12.672-7.422ZM27,0a3.036,3.036,0,0,1-.2-.891A3.225,3.225,0,0,1,24.391.156,2.984,2.984,0,0,1,22.34-.551a2.287,2.287,0,0,1-.8-1.793,2.39,2.39,0,0,1,1-2.051,4.733,4.733,0,0,1,2.824-.73h1.406v-.664A1.623,1.623,0,0,0,26.32-7a1.821,1.821,0,0,0-1.336-.449,2.108,2.108,0,0,0-1.3.391,1.151,1.151,0,0,0-.523.945H21.711a2,2,0,0,1,.449-1.223,3.066,3.066,0,0,1,1.219-.934,4.1,4.1,0,0,1,1.691-.344,3.342,3.342,0,0,1,2.289.73,2.635,2.635,0,0,1,.859,2.012v3.891a4.757,4.757,0,0,0,.3,1.852V0ZM24.6-1.1a2.54,2.54,0,0,0,1.289-.352,2.127,2.127,0,0,0,.883-.914V-4.1H25.641q-2.656,0-2.656,1.555a1.316,1.316,0,0,0,.453,1.063A1.742,1.742,0,0,0,24.6-1.1Zm5.539-3.2a4.968,4.968,0,0,1,.914-3.145,2.923,2.923,0,0,1,2.422-1.168,2.908,2.908,0,0,1,2.414,1.094l.07-.937h1.32V-.2a3.439,3.439,0,0,1-.973,2.586,3.589,3.589,0,0,1-2.613.945,4.348,4.348,0,0,1-1.789-.391,3.08,3.08,0,0,1-1.336-1.07L31.32,1a2.826,2.826,0,0,0,2.273,1.148,2.214,2.214,0,0,0,1.645-.594,2.269,2.269,0,0,0,.59-1.672V-.844a2.971,2.971,0,0,1-2.367,1,2.887,2.887,0,0,1-2.4-1.2A5.224,5.224,0,0,1,30.141-4.3Zm1.453.164a3.79,3.79,0,0,0,.586,2.246,1.9,1.9,0,0,0,1.641.816,2.117,2.117,0,0,0,2.008-1.242V-6.172a2.142,2.142,0,0,0-1.992-1.211,1.921,1.921,0,0,0-1.648.82A4.128,4.128,0,0,0,31.594-4.133ZM43.547-7.156a4.331,4.331,0,0,0-.711-.055A1.9,1.9,0,0,0,40.906-6V0H39.461V-8.453h1.406l.023.977a2.251,2.251,0,0,1,2.016-1.133,1.477,1.477,0,0,1,.641.109Zm6.547,6.32a3.07,3.07,0,0,1-2.477.992,2.628,2.628,0,0,1-2.059-.785,3.4,3.4,0,0,1-.715-2.324v-5.5h1.445v5.461q0,1.922,1.563,1.922a2.163,2.163,0,0,0,2.2-1.234V-8.453H51.5V0H50.125Zm10.742-3.3a5.062,5.062,0,0,1-.883,3.109A2.829,2.829,0,0,1,57.563.156,3.1,3.1,0,0,1,55.141-.82V3.25H53.7v-11.7h1.32l.07.938a2.977,2.977,0,0,1,2.453-1.094,2.882,2.882,0,0,1,2.41,1.148,5.117,5.117,0,0,1,.887,3.2ZM59.391-4.3a3.735,3.735,0,0,0-.609-2.258,1.963,1.963,0,0,0-1.672-.828,2.125,2.125,0,0,0-1.969,1.164V-2.18a2.129,2.129,0,0,0,1.984,1.156,1.954,1.954,0,0,0,1.652-.824A4.077,4.077,0,0,0,59.391-4.3Zm8.5,4.3a3.036,3.036,0,0,1-.2-.891A3.225,3.225,0,0,1,65.281.156,2.984,2.984,0,0,1,63.23-.551a2.287,2.287,0,0,1-.8-1.793,2.39,2.39,0,0,1,1-2.051,4.733,4.733,0,0,1,2.824-.73h1.406v-.664A1.623,1.623,0,0,0,67.211-7a1.821,1.821,0,0,0-1.336-.449,2.108,2.108,0,0,0-1.3.391,1.151,1.151,0,0,0-.523.945H62.6a2,2,0,0,1,.449-1.223,3.066,3.066,0,0,1,1.219-.934,4.1,4.1,0,0,1,1.691-.344,3.342,3.342,0,0,1,2.289.73,2.635,2.635,0,0,1,.859,2.012v3.891a4.757,4.757,0,0,0,.3,1.852V0Zm-2.4-1.1a2.54,2.54,0,0,0,1.289-.352,2.127,2.127,0,0,0,.883-.914V-4.1H66.531q-2.656,0-2.656,1.555a1.316,1.316,0,0,0,.453,1.063A1.742,1.742,0,0,0,65.492-1.1Zm7.25-7.352.047,1.063A3.08,3.08,0,0,1,75.32-8.609q2.68,0,2.7,3.023V0H76.578V-5.594a1.946,1.946,0,0,0-.418-1.352,1.675,1.675,0,0,0-1.277-.437,2.086,2.086,0,0,0-1.234.375,2.546,2.546,0,0,0-.828.984V0H71.375V-8.453ZM87.672.156a3.693,3.693,0,0,1-2.8-1.129A4.19,4.19,0,0,1,83.8-3.992v-.266a5.073,5.073,0,0,1,.48-2.246,3.748,3.748,0,0,1,1.344-1.547,3.378,3.378,0,0,1,1.871-.559,3.166,3.166,0,0,1,2.563,1.086,4.7,4.7,0,0,1,.914,3.109v.6H85.242a3,3,0,0,0,.73,2.02,2.3,2.3,0,0,0,1.777.77,2.517,2.517,0,0,0,1.3-.312,3.259,3.259,0,0,0,.93-.828l.883.688A3.55,3.55,0,0,1,87.672.156Zm-.18-7.578a1.928,1.928,0,0,0-1.469.637A3.1,3.1,0,0,0,85.289-5h4.234v-.109a2.753,2.753,0,0,0-.594-1.707A1.815,1.815,0,0,0,87.492-7.422Zm6.516-1.031.047,1.063a3.08,3.08,0,0,1,2.531-1.219q2.68,0,2.7,3.023V0H97.844V-5.594a1.946,1.946,0,0,0-.418-1.352,1.675,1.675,0,0,0-1.277-.437,2.086,2.086,0,0,0-1.234.375,2.546,2.546,0,0,0-.828.984V0H92.641V-8.453Z" transform="translate(750 4510)" fill="#12263f"/>
    <path id="Trazado_873502" data-name="Trazado 873502" d="M-69.1-5.023h-4.773V0h-1.5V-11.375h7.047v1.227h-5.547v3.9H-69.1ZM-61.8,0a3.036,3.036,0,0,1-.2-.891A3.225,3.225,0,0,1-64.414.156a2.984,2.984,0,0,1-2.051-.707,2.288,2.288,0,0,1-.8-1.793,2.39,2.39,0,0,1,1-2.051,4.733,4.733,0,0,1,2.824-.73h1.406v-.664A1.623,1.623,0,0,0-62.484-7a1.821,1.821,0,0,0-1.336-.449,2.108,2.108,0,0,0-1.3.391,1.151,1.151,0,0,0-.523.945h-1.453a2,2,0,0,1,.449-1.223,3.066,3.066,0,0,1,1.219-.934,4.1,4.1,0,0,1,1.691-.344,3.342,3.342,0,0,1,2.289.73,2.635,2.635,0,0,1,.859,2.012v3.891a4.757,4.757,0,0,0,.3,1.852V0Zm-2.4-1.1a2.54,2.54,0,0,0,1.289-.352,2.127,2.127,0,0,0,.883-.914V-4.1h-1.133q-2.656,0-2.656,1.555a1.316,1.316,0,0,0,.453,1.063A1.742,1.742,0,0,0-64.2-1.1Zm9.273.078a2.082,2.082,0,0,0,1.352-.469,1.649,1.649,0,0,0,.641-1.172h1.367a2.621,2.621,0,0,1-.5,1.383A3.293,3.293,0,0,1-53.3-.234,3.55,3.55,0,0,1-54.93.156,3.482,3.482,0,0,1-57.676-1,4.59,4.59,0,0,1-58.7-4.148v-.242a5.089,5.089,0,0,1,.453-2.2,3.451,3.451,0,0,1,1.3-1.492,3.7,3.7,0,0,1,2-.531,3.39,3.39,0,0,1,2.363.852,3.043,3.043,0,0,1,1,2.211h-1.367a1.992,1.992,0,0,0-.621-1.348,1.932,1.932,0,0,0-1.379-.527,2.023,2.023,0,0,0-1.707.793,3.724,3.724,0,0,0-.605,2.293v.273a3.65,3.65,0,0,0,.6,2.25A2.033,2.033,0,0,0-54.93-1.023Zm6.945-9.477v2.047h1.578v1.117h-1.578v5.249a1.173,1.173,0,0,0,.211.763.888.888,0,0,0,.719.254,3.5,3.5,0,0,0,.688-.094V0a4.215,4.215,0,0,1-1.109.155A1.8,1.8,0,0,1-48.937-.43a2.517,2.517,0,0,1-.492-1.664V-7.336h-1.539V-8.453h1.539V-10.5Zm2.727,6.2a4.993,4.993,0,0,1,.488-2.234A3.643,3.643,0,0,1-43.41-8.07a3.7,3.7,0,0,1,1.988-.539,3.565,3.565,0,0,1,2.793,1.2,4.6,4.6,0,0,1,1.066,3.18v.1a5.036,5.036,0,0,1-.473,2.215A3.589,3.589,0,0,1-39.387-.391a3.743,3.743,0,0,1-2.02.547,3.556,3.556,0,0,1-2.785-1.2A4.575,4.575,0,0,1-45.258-4.2Zm1.453.172a3.616,3.616,0,0,0,.652,2.258,2.088,2.088,0,0,0,1.746.852,2.075,2.075,0,0,0,1.75-.863A3.955,3.955,0,0,0-39.008-4.3a3.61,3.61,0,0,0-.66-2.254,2.1,2.1,0,0,0-1.754-.863,2.075,2.075,0,0,0-1.727.852A3.925,3.925,0,0,0-43.8-4.133Zm12.141-3.023a4.331,4.331,0,0,0-.711-.055A1.9,1.9,0,0,0-34.3-6V0H-35.75V-8.453h1.406l.023.977A2.251,2.251,0,0,1-32.3-8.609a1.477,1.477,0,0,1,.641.109ZM-26.977.156a3.693,3.693,0,0,1-2.8-1.129,4.19,4.19,0,0,1-1.078-3.02v-.266a5.073,5.073,0,0,1,.48-2.246,3.748,3.748,0,0,1,1.344-1.547,3.378,3.378,0,0,1,1.871-.559,3.166,3.166,0,0,1,2.563,1.086,4.7,4.7,0,0,1,.914,3.109v.6h-5.727a3,3,0,0,0,.73,2.02,2.3,2.3,0,0,0,1.777.77,2.517,2.517,0,0,0,1.3-.312,3.259,3.259,0,0,0,.93-.828l.883.688A3.55,3.55,0,0,1-26.977.156Zm-.18-7.578a1.928,1.928,0,0,0-1.469.637A3.1,3.1,0,0,0-29.359-5h4.234v-.109a2.753,2.753,0,0,0-.594-1.707A1.815,1.815,0,0,0-27.156-7.422Zm10.07,5.18a1.064,1.064,0,0,0-.441-.91,4.249,4.249,0,0,0-1.539-.559,7.277,7.277,0,0,1-1.742-.562,2.479,2.479,0,0,1-.953-.781,1.869,1.869,0,0,1-.309-1.078,2.193,2.193,0,0,1,.879-1.758,3.432,3.432,0,0,1,2.246-.719,3.532,3.532,0,0,1,2.332.742,2.357,2.357,0,0,1,.895,1.9h-1.453a1.3,1.3,0,0,0-.5-1.023,1.888,1.888,0,0,0-1.27-.43,1.976,1.976,0,0,0-1.234.344,1.082,1.082,0,0,0-.445.9.877.877,0,0,0,.414.789,5.1,5.1,0,0,0,1.5.508,7.8,7.8,0,0,1,1.754.578,2.558,2.558,0,0,1,1,.809,1.988,1.988,0,0,1,.324,1.152,2.163,2.163,0,0,1-.906,1.816A3.8,3.8,0,0,1-18.9.156,4.257,4.257,0,0,1-20.7-.2a2.922,2.922,0,0,1-1.223-1A2.42,2.42,0,0,1-22.359-2.6h1.445a1.5,1.5,0,0,0,.582,1.152,2.258,2.258,0,0,0,1.434.426,2.331,2.331,0,0,0,1.316-.332A1.02,1.02,0,0,0-17.086-2.242Zm10.8,2.4a3.693,3.693,0,0,1-2.8-1.129,4.19,4.19,0,0,1-1.078-3.02v-.266A5.073,5.073,0,0,1-9.684-6.5,3.748,3.748,0,0,1-8.34-8.051a3.378,3.378,0,0,1,1.871-.559A3.166,3.166,0,0,1-3.906-7.523a4.7,4.7,0,0,1,.914,3.109v.6H-8.719a3,3,0,0,0,.73,2.02,2.3,2.3,0,0,0,1.777.77,2.517,2.517,0,0,0,1.3-.312,3.259,3.259,0,0,0,.93-.828l.883.688A3.55,3.55,0,0,1-6.289.156Zm-.18-7.578a1.928,1.928,0,0,0-1.469.637A3.1,3.1,0,0,0-8.672-5h4.234v-.109a2.753,2.753,0,0,0-.594-1.707A1.815,1.815,0,0,0-6.469-7.422Zm8.539,6.4a2.082,2.082,0,0,0,1.352-.469,1.649,1.649,0,0,0,.641-1.172H5.43a2.621,2.621,0,0,1-.5,1.383A3.293,3.293,0,0,1,3.7-.234,3.55,3.55,0,0,1,2.07.156,3.482,3.482,0,0,1-.676-1,4.59,4.59,0,0,1-1.7-4.148v-.242a5.089,5.089,0,0,1,.453-2.2,3.451,3.451,0,0,1,1.3-1.492,3.7,3.7,0,0,1,2-.531,3.39,3.39,0,0,1,2.363.852,3.043,3.043,0,0,1,1,2.211H4.063a1.992,1.992,0,0,0-.621-1.348,1.932,1.932,0,0,0-1.379-.527,2.023,2.023,0,0,0-1.707.793A3.724,3.724,0,0,0-.25-4.336v.273a3.65,3.65,0,0,0,.6,2.25A2.033,2.033,0,0,0,2.07-1.023ZM6.672-4.3A4.993,4.993,0,0,1,7.16-6.539,3.643,3.643,0,0,1,8.52-8.07a3.7,3.7,0,0,1,1.988-.539,3.565,3.565,0,0,1,2.793,1.2,4.6,4.6,0,0,1,1.066,3.18v.1a5.036,5.036,0,0,1-.473,2.215A3.589,3.589,0,0,1,12.543-.391a3.743,3.743,0,0,1-2.02.547,3.556,3.556,0,0,1-2.785-1.2A4.575,4.575,0,0,1,6.672-4.2Zm1.453.172a3.616,3.616,0,0,0,.652,2.258,2.088,2.088,0,0,0,1.746.852,2.075,2.075,0,0,0,1.75-.863A3.955,3.955,0,0,0,12.922-4.3a3.61,3.61,0,0,0-.66-2.254,2.1,2.1,0,0,0-1.754-.863,2.075,2.075,0,0,0-1.727.852A3.925,3.925,0,0,0,8.125-4.133Zm9.422-4.32.047,1.063a3.08,3.08,0,0,1,2.531-1.219q2.68,0,2.7,3.023V0H21.383V-5.594a1.946,1.946,0,0,0-.418-1.352,1.675,1.675,0,0,0-1.277-.437,2.086,2.086,0,0,0-1.234.375,2.546,2.546,0,0,0-.828.984V0H16.18V-8.453ZM24.625-4.3a4.993,4.993,0,0,1,.488-2.234A3.643,3.643,0,0,1,26.473-8.07a3.7,3.7,0,0,1,1.988-.539,3.565,3.565,0,0,1,2.793,1.2,4.6,4.6,0,0,1,1.066,3.18v.1a5.036,5.036,0,0,1-.473,2.215A3.589,3.589,0,0,1,30.5-.391a3.743,3.743,0,0,1-2.02.547,3.556,3.556,0,0,1-2.785-1.2A4.575,4.575,0,0,1,24.625-4.2Zm1.453.172a3.616,3.616,0,0,0,.652,2.258,2.088,2.088,0,0,0,1.746.852,2.075,2.075,0,0,0,1.75-.863A3.955,3.955,0,0,0,30.875-4.3a3.61,3.61,0,0,0-.66-2.254,2.1,2.1,0,0,0-1.754-.863,2.075,2.075,0,0,0-1.727.852A3.925,3.925,0,0,0,26.078-4.133ZM29.117-12h1.75L28.773-9.7l-1.164,0Zm6.375,3.547.039.938a3.122,3.122,0,0,1,2.508-1.094A2.417,2.417,0,0,1,40.453-7.25a3.2,3.2,0,0,1,1.1-.984,3.242,3.242,0,0,1,1.6-.375q2.781,0,2.828,2.945V0H44.531V-5.578a1.941,1.941,0,0,0-.414-1.355,1.823,1.823,0,0,0-1.391-.449,1.917,1.917,0,0,0-1.336.48,1.949,1.949,0,0,0-.617,1.293V0H39.32V-5.539a1.613,1.613,0,0,0-1.8-1.844A1.934,1.934,0,0,0,35.57-6.172V0H34.125V-8.453ZM49.727,0H48.281V-8.453h1.445ZM48.164-10.7a.863.863,0,0,1,.215-.594.807.807,0,0,1,.637-.242.819.819,0,0,1,.641.242.854.854,0,0,1,.219.594.826.826,0,0,1-.219.586.834.834,0,0,1-.641.234.821.821,0,0,1-.637-.234A.834.834,0,0,1,48.164-10.7ZM55.43-1.023a2.082,2.082,0,0,0,1.352-.469,1.649,1.649,0,0,0,.641-1.172h1.367a2.621,2.621,0,0,1-.5,1.383,3.293,3.293,0,0,1-1.23,1.047A3.55,3.55,0,0,1,55.43.156,3.482,3.482,0,0,1,52.684-1a4.59,4.59,0,0,1-1.02-3.152v-.242a5.089,5.089,0,0,1,.453-2.2,3.451,3.451,0,0,1,1.3-1.492,3.7,3.7,0,0,1,2-.531,3.39,3.39,0,0,1,2.363.852,3.043,3.043,0,0,1,1,2.211H57.422A1.992,1.992,0,0,0,56.8-6.895a1.932,1.932,0,0,0-1.379-.527,2.023,2.023,0,0,0-1.707.793,3.724,3.724,0,0,0-.605,2.293v.273a3.65,3.65,0,0,0,.6,2.25A2.033,2.033,0,0,0,55.43-1.023Zm4.6-3.281a4.993,4.993,0,0,1,.488-2.234A3.643,3.643,0,0,1,61.879-8.07a3.7,3.7,0,0,1,1.988-.539,3.565,3.565,0,0,1,2.793,1.2,4.6,4.6,0,0,1,1.066,3.18v.1a5.036,5.036,0,0,1-.473,2.215A3.589,3.589,0,0,1,65.9-.391a3.743,3.743,0,0,1-2.02.547,3.556,3.556,0,0,1-2.785-1.2A4.575,4.575,0,0,1,60.031-4.2Zm1.453.172a3.616,3.616,0,0,0,.652,2.258,2.088,2.088,0,0,0,1.746.852,2.075,2.075,0,0,0,1.75-.863A3.955,3.955,0,0,0,66.281-4.3a3.61,3.61,0,0,0-.66-2.254,2.1,2.1,0,0,0-1.754-.863,2.075,2.075,0,0,0-1.727.852A3.925,3.925,0,0,0,61.484-4.133ZM74.461-2.242a1.064,1.064,0,0,0-.441-.91,4.249,4.249,0,0,0-1.539-.559,7.277,7.277,0,0,1-1.742-.562,2.479,2.479,0,0,1-.953-.781,1.869,1.869,0,0,1-.309-1.078,2.193,2.193,0,0,1,.879-1.758A3.432,3.432,0,0,1,72.6-8.609a3.532,3.532,0,0,1,2.332.742,2.357,2.357,0,0,1,.895,1.9H74.375a1.3,1.3,0,0,0-.5-1.023,1.888,1.888,0,0,0-1.27-.43,1.976,1.976,0,0,0-1.234.344,1.082,1.082,0,0,0-.445.9.877.877,0,0,0,.414.789,5.1,5.1,0,0,0,1.5.508,7.8,7.8,0,0,1,1.754.578,2.558,2.558,0,0,1,1,.809,1.988,1.988,0,0,1,.324,1.152A2.163,2.163,0,0,1,75-.527a3.8,3.8,0,0,1-2.352.684,4.257,4.257,0,0,1-1.8-.359,2.922,2.922,0,0,1-1.223-1A2.42,2.42,0,0,1,69.188-2.6h1.445a1.5,1.5,0,0,0,.582,1.152,2.258,2.258,0,0,0,1.434.426,2.331,2.331,0,0,0,1.316-.332A1.02,1.02,0,0,0,74.461-2.242Z" transform="translate(399 4672)" fill="#12263f"/>
    <path id="Trazado_873503" data-name="Trazado 873503" d="M-54.781-5.023h-4.773V0h-1.5V-11.375h7.047v1.227h-5.547v3.9h4.773ZM-47.484,0a3.036,3.036,0,0,1-.2-.891A3.225,3.225,0,0,1-50.094.156a2.984,2.984,0,0,1-2.051-.707,2.287,2.287,0,0,1-.8-1.793,2.39,2.39,0,0,1,1-2.051,4.733,4.733,0,0,1,2.824-.73h1.406v-.664A1.623,1.623,0,0,0-48.164-7,1.821,1.821,0,0,0-49.5-7.445a2.107,2.107,0,0,0-1.3.391,1.151,1.151,0,0,0-.523.945h-1.453a2,2,0,0,1,.449-1.223,3.066,3.066,0,0,1,1.219-.934,4.1,4.1,0,0,1,1.691-.344,3.342,3.342,0,0,1,2.289.73,2.635,2.635,0,0,1,.859,2.012v3.891a4.757,4.757,0,0,0,.3,1.852V0Zm-2.4-1.1a2.54,2.54,0,0,0,1.289-.352,2.127,2.127,0,0,0,.883-.914V-4.1h-1.133Q-51.5-4.1-51.5-2.547a1.316,1.316,0,0,0,.453,1.063A1.742,1.742,0,0,0-49.883-1.1Zm9.273.078a2.082,2.082,0,0,0,1.352-.469,1.649,1.649,0,0,0,.641-1.172h1.367a2.621,2.621,0,0,1-.5,1.383A3.293,3.293,0,0,1-38.98-.234a3.55,3.55,0,0,1-1.629.391A3.482,3.482,0,0,1-43.355-1a4.59,4.59,0,0,1-1.02-3.152v-.242a5.089,5.089,0,0,1,.453-2.2,3.451,3.451,0,0,1,1.3-1.492,3.7,3.7,0,0,1,2-.531,3.39,3.39,0,0,1,2.363.852,3.043,3.043,0,0,1,1,2.211h-1.367a1.992,1.992,0,0,0-.621-1.348,1.932,1.932,0,0,0-1.379-.527,2.023,2.023,0,0,0-1.707.793,3.724,3.724,0,0,0-.605,2.293v.273a3.65,3.65,0,0,0,.6,2.25A2.033,2.033,0,0,0-40.609-1.023Zm6.945-9.477v2.047h1.578v1.117h-1.578v5.249a1.173,1.173,0,0,0,.211.763.888.888,0,0,0,.719.254,3.5,3.5,0,0,0,.688-.094V0a4.215,4.215,0,0,1-1.109.155A1.8,1.8,0,0,1-34.617-.43a2.517,2.517,0,0,1-.492-1.664V-7.336h-1.539V-8.453h1.539V-10.5Zm2.727,6.2a4.993,4.993,0,0,1,.488-2.234A3.643,3.643,0,0,1-29.09-8.07,3.7,3.7,0,0,1-27.1-8.609a3.565,3.565,0,0,1,2.793,1.2,4.6,4.6,0,0,1,1.066,3.18v.1a5.036,5.036,0,0,1-.473,2.215A3.589,3.589,0,0,1-25.066-.391a3.743,3.743,0,0,1-2.02.547,3.556,3.556,0,0,1-2.785-1.2A4.575,4.575,0,0,1-30.937-4.2Zm1.453.172a3.616,3.616,0,0,0,.652,2.258,2.088,2.088,0,0,0,1.746.852,2.075,2.075,0,0,0,1.75-.863A3.955,3.955,0,0,0-24.687-4.3a3.61,3.61,0,0,0-.66-2.254A2.1,2.1,0,0,0-27.1-7.422a2.075,2.075,0,0,0-1.727.852A3.925,3.925,0,0,0-29.484-4.133Zm12.141-3.023a4.331,4.331,0,0,0-.711-.055A1.9,1.9,0,0,0-19.984-6V0H-21.43V-8.453h1.406l.023.977a2.251,2.251,0,0,1,2.016-1.133,1.477,1.477,0,0,1,.641.109ZM-12.656.156a3.693,3.693,0,0,1-2.8-1.129,4.19,4.19,0,0,1-1.078-3.02v-.266a5.073,5.073,0,0,1,.48-2.246,3.748,3.748,0,0,1,1.344-1.547,3.378,3.378,0,0,1,1.871-.559,3.166,3.166,0,0,1,2.563,1.086,4.7,4.7,0,0,1,.914,3.109v.6h-5.727a3,3,0,0,0,.73,2.02,2.3,2.3,0,0,0,1.777.77,2.517,2.517,0,0,0,1.3-.312,3.259,3.259,0,0,0,.93-.828l.883.688A3.55,3.55,0,0,1-12.656.156Zm-.18-7.578a1.928,1.928,0,0,0-1.469.637A3.1,3.1,0,0,0-15.039-5H-10.8v-.109A2.753,2.753,0,0,0-11.4-6.816,1.815,1.815,0,0,0-12.836-7.422Zm10.07,5.18a1.064,1.064,0,0,0-.441-.91,4.249,4.249,0,0,0-1.539-.559,7.277,7.277,0,0,1-1.742-.562,2.479,2.479,0,0,1-.953-.781A1.869,1.869,0,0,1-7.75-6.133a2.193,2.193,0,0,1,.879-1.758,3.432,3.432,0,0,1,2.246-.719,3.532,3.532,0,0,1,2.332.742,2.357,2.357,0,0,1,.895,1.9H-2.852a1.3,1.3,0,0,0-.5-1.023,1.888,1.888,0,0,0-1.27-.43,1.976,1.976,0,0,0-1.234.344,1.082,1.082,0,0,0-.445.9.877.877,0,0,0,.414.789,5.1,5.1,0,0,0,1.5.508A7.8,7.8,0,0,1-2.641-4.3a2.558,2.558,0,0,1,1,.809A1.988,1.988,0,0,1-1.32-2.344,2.163,2.163,0,0,1-2.227-.527,3.8,3.8,0,0,1-4.578.156,4.257,4.257,0,0,1-6.375-.2a2.922,2.922,0,0,1-1.223-1A2.42,2.42,0,0,1-8.039-2.6h1.445a1.5,1.5,0,0,0,.582,1.152,2.258,2.258,0,0,0,1.434.426,2.331,2.331,0,0,0,1.316-.332A1.02,1.02,0,0,0-2.766-2.242Zm12.211,0A1.064,1.064,0,0,0,9-3.152a4.249,4.249,0,0,0-1.539-.559,7.277,7.277,0,0,1-1.742-.562,2.479,2.479,0,0,1-.953-.781,1.869,1.869,0,0,1-.309-1.078A2.193,2.193,0,0,1,5.34-7.891a3.432,3.432,0,0,1,2.246-.719,3.532,3.532,0,0,1,2.332.742,2.357,2.357,0,0,1,.895,1.9H9.359a1.3,1.3,0,0,0-.5-1.023,1.888,1.888,0,0,0-1.27-.43,1.976,1.976,0,0,0-1.234.344,1.082,1.082,0,0,0-.445.9.877.877,0,0,0,.414.789,5.1,5.1,0,0,0,1.5.508A7.8,7.8,0,0,1,9.57-4.3a2.558,2.558,0,0,1,1,.809,1.988,1.988,0,0,1,.324,1.152A2.163,2.163,0,0,1,9.984-.527,3.8,3.8,0,0,1,7.633.156,4.257,4.257,0,0,1,5.836-.2a2.922,2.922,0,0,1-1.223-1A2.42,2.42,0,0,1,4.172-2.6H5.617A1.5,1.5,0,0,0,6.2-1.449a2.258,2.258,0,0,0,1.434.426,2.331,2.331,0,0,0,1.316-.332A1.02,1.02,0,0,0,9.445-2.242ZM12.391-4.3a4.993,4.993,0,0,1,.488-2.234A3.643,3.643,0,0,1,14.238-8.07a3.7,3.7,0,0,1,1.988-.539,3.565,3.565,0,0,1,2.793,1.2,4.6,4.6,0,0,1,1.066,3.18v.1a5.036,5.036,0,0,1-.473,2.215A3.589,3.589,0,0,1,18.262-.391a3.743,3.743,0,0,1-2.02.547,3.556,3.556,0,0,1-2.785-1.2A4.575,4.575,0,0,1,12.391-4.2Zm1.453.172A3.616,3.616,0,0,0,14.5-1.875a2.088,2.088,0,0,0,1.746.852,2.075,2.075,0,0,0,1.75-.863A3.955,3.955,0,0,0,18.641-4.3a3.61,3.61,0,0,0-.66-2.254,2.1,2.1,0,0,0-1.754-.863A2.075,2.075,0,0,0,14.5-6.57,3.925,3.925,0,0,0,13.844-4.133ZM25.289-1.023a2.082,2.082,0,0,0,1.352-.469,1.649,1.649,0,0,0,.641-1.172h1.367a2.621,2.621,0,0,1-.5,1.383,3.293,3.293,0,0,1-1.23,1.047,3.55,3.55,0,0,1-1.629.391A3.482,3.482,0,0,1,22.543-1a4.59,4.59,0,0,1-1.02-3.152v-.242a5.089,5.089,0,0,1,.453-2.2,3.451,3.451,0,0,1,1.3-1.492,3.7,3.7,0,0,1,2-.531,3.39,3.39,0,0,1,2.363.852,3.043,3.043,0,0,1,1,2.211H27.281a1.992,1.992,0,0,0-.621-1.348,1.932,1.932,0,0,0-1.379-.527,2.023,2.023,0,0,0-1.707.793,3.724,3.724,0,0,0-.605,2.293v.273a3.65,3.65,0,0,0,.6,2.25A2.033,2.033,0,0,0,25.289-1.023ZM31.844,0H30.4V-8.453h1.445ZM30.281-10.7a.863.863,0,0,1,.215-.594.807.807,0,0,1,.637-.242.819.819,0,0,1,.641.242.854.854,0,0,1,.219.594.826.826,0,0,1-.219.586.834.834,0,0,1-.641.234.821.821,0,0,1-.637-.234A.834.834,0,0,1,30.281-10.7ZM39.375,0a3.036,3.036,0,0,1-.2-.891A3.225,3.225,0,0,1,36.766.156a2.984,2.984,0,0,1-2.051-.707,2.287,2.287,0,0,1-.8-1.793,2.39,2.39,0,0,1,1-2.051,4.733,4.733,0,0,1,2.824-.73h1.406v-.664A1.623,1.623,0,0,0,38.7-7a1.821,1.821,0,0,0-1.336-.449,2.107,2.107,0,0,0-1.3.391,1.151,1.151,0,0,0-.523.945H34.086a2,2,0,0,1,.449-1.223,3.066,3.066,0,0,1,1.219-.934,4.1,4.1,0,0,1,1.691-.344,3.342,3.342,0,0,1,2.289.73,2.635,2.635,0,0,1,.859,2.012v3.891a4.757,4.757,0,0,0,.3,1.852V0Zm-2.4-1.1a2.54,2.54,0,0,0,1.289-.352,2.127,2.127,0,0,0,.883-.914V-4.1H38.016q-2.656,0-2.656,1.555a1.316,1.316,0,0,0,.453,1.063A1.742,1.742,0,0,0,36.977-1.1ZM44.43,0H42.984V-12H44.43Zm5.82.156a3.693,3.693,0,0,1-2.8-1.129,4.19,4.19,0,0,1-1.078-3.02v-.266a5.073,5.073,0,0,1,.48-2.246A3.748,3.748,0,0,1,48.2-8.051a3.378,3.378,0,0,1,1.871-.559,3.166,3.166,0,0,1,2.563,1.086,4.7,4.7,0,0,1,.914,3.109v.6H47.82a3,3,0,0,0,.73,2.02,2.3,2.3,0,0,0,1.777.77,2.517,2.517,0,0,0,1.3-.312,3.259,3.259,0,0,0,.93-.828l.883.688A3.55,3.55,0,0,1,50.25.156Zm-.18-7.578a1.928,1.928,0,0,0-1.469.637A3.1,3.1,0,0,0,47.867-5H52.1v-.109a2.753,2.753,0,0,0-.594-1.707A1.815,1.815,0,0,0,50.07-7.422Zm10.07,5.18a1.064,1.064,0,0,0-.441-.91,4.249,4.249,0,0,0-1.539-.559,7.277,7.277,0,0,1-1.742-.562,2.479,2.479,0,0,1-.953-.781,1.869,1.869,0,0,1-.309-1.078,2.193,2.193,0,0,1,.879-1.758,3.432,3.432,0,0,1,2.246-.719,3.532,3.532,0,0,1,2.332.742,2.357,2.357,0,0,1,.895,1.9H60.055a1.3,1.3,0,0,0-.5-1.023,1.888,1.888,0,0,0-1.27-.43,1.976,1.976,0,0,0-1.234.344,1.082,1.082,0,0,0-.445.9.877.877,0,0,0,.414.789,5.1,5.1,0,0,0,1.5.508,7.8,7.8,0,0,1,1.754.578,2.558,2.558,0,0,1,1,.809,1.988,1.988,0,0,1,.324,1.152A2.163,2.163,0,0,1,60.68-.527a3.8,3.8,0,0,1-2.352.684,4.257,4.257,0,0,1-1.8-.359,2.922,2.922,0,0,1-1.223-1A2.42,2.42,0,0,1,54.867-2.6h1.445a1.5,1.5,0,0,0,.582,1.152,2.258,2.258,0,0,0,1.434.426,2.331,2.331,0,0,0,1.316-.332A1.02,1.02,0,0,0,60.141-2.242ZM-32.3,21.883l1.969-6.336h1.547l-3.4,9.758q-.789,2.109-2.508,2.109l-.273-.023-.539-.1V26.117l.391.031a1.923,1.923,0,0,0,1.145-.3,2.148,2.148,0,0,0,.676-1.086l.32-.859-3.016-8.359h1.578ZM-16.4,19.867a5.062,5.062,0,0,1-.883,3.109,2.829,2.829,0,0,1-2.391,1.18,3.1,3.1,0,0,1-2.422-.977v4.07h-1.445v-11.7h1.32l.07.938A2.977,2.977,0,0,1-19.7,15.391a2.882,2.882,0,0,1,2.41,1.148,5.117,5.117,0,0,1,.887,3.2Zm-1.445-.164a3.735,3.735,0,0,0-.609-2.258,1.963,1.963,0,0,0-1.672-.828,2.125,2.125,0,0,0-1.969,1.164V21.82a2.129,2.129,0,0,0,1.984,1.156,1.954,1.954,0,0,0,1.652-.824A4.077,4.077,0,0,0-17.844,19.7Zm2.9-.008a4.993,4.993,0,0,1,.488-2.234A3.643,3.643,0,0,1-13.1,15.93a3.7,3.7,0,0,1,1.988-.539,3.565,3.565,0,0,1,2.793,1.2,4.6,4.6,0,0,1,1.066,3.18v.1a5.036,5.036,0,0,1-.473,2.215,3.589,3.589,0,0,1-1.352,1.527,3.743,3.743,0,0,1-2.02.547,3.556,3.556,0,0,1-2.785-1.2A4.575,4.575,0,0,1-14.945,19.8Zm1.453.172a3.616,3.616,0,0,0,.652,2.258,2.088,2.088,0,0,0,1.746.852,2.075,2.075,0,0,0,1.75-.863A3.955,3.955,0,0,0-8.7,19.7a3.61,3.61,0,0,0-.66-2.254,2.1,2.1,0,0,0-1.754-.863,2.075,2.075,0,0,0-1.727.852A3.925,3.925,0,0,0-13.492,19.867ZM-3.867,24H-5.312V12h1.445ZM.016,24H-1.437V15.547H.016ZM.031,12.008h1.75L-.312,14.3l-1.164,0ZM4.359,13.5v2.047H5.938v1.117H4.359v5.249a1.173,1.173,0,0,0,.211.763.888.888,0,0,0,.719.254,3.5,3.5,0,0,0,.688-.094V24a4.215,4.215,0,0,1-1.109.155,1.8,1.8,0,0,1-1.461-.586,2.517,2.517,0,0,1-.492-1.664V16.664H1.375V15.547H2.914V13.5ZM9.2,24H7.75V15.547H9.2ZM7.633,13.3a.863.863,0,0,1,.215-.594.807.807,0,0,1,.637-.242.819.819,0,0,1,.641.242.854.854,0,0,1,.219.594.826.826,0,0,1-.219.586.834.834,0,0,1-.641.234.821.821,0,0,1-.637-.234A.834.834,0,0,1,7.633,13.3ZM14.9,22.977a2.082,2.082,0,0,0,1.352-.469,1.649,1.649,0,0,0,.641-1.172h1.367a2.621,2.621,0,0,1-.5,1.383,3.293,3.293,0,0,1-1.23,1.047,3.55,3.55,0,0,1-1.629.391A3.482,3.482,0,0,1,12.152,23a4.59,4.59,0,0,1-1.02-3.152v-.242a5.089,5.089,0,0,1,.453-2.2,3.451,3.451,0,0,1,1.3-1.492,3.7,3.7,0,0,1,2-.531,3.39,3.39,0,0,1,2.363.852,3.043,3.043,0,0,1,1,2.211H16.891a1.992,1.992,0,0,0-.621-1.348,1.932,1.932,0,0,0-1.379-.527,2.023,2.023,0,0,0-1.707.793,3.724,3.724,0,0,0-.605,2.293v.273a3.65,3.65,0,0,0,.6,2.25A2.033,2.033,0,0,0,14.9,22.977ZM19.5,19.7a4.993,4.993,0,0,1,.488-2.234,3.643,3.643,0,0,1,1.359-1.531,3.7,3.7,0,0,1,1.988-.539,3.565,3.565,0,0,1,2.793,1.2,4.6,4.6,0,0,1,1.066,3.18v.1a5.036,5.036,0,0,1-.473,2.215,3.589,3.589,0,0,1-1.352,1.527,3.743,3.743,0,0,1-2.02.547,3.556,3.556,0,0,1-2.785-1.2A4.575,4.575,0,0,1,19.5,19.8Zm1.453.172a3.616,3.616,0,0,0,.652,2.258,2.211,2.211,0,0,0,3.5-.012A3.955,3.955,0,0,0,25.75,19.7a3.61,3.61,0,0,0-.66-2.254,2.1,2.1,0,0,0-1.754-.863,2.075,2.075,0,0,0-1.727.852A3.925,3.925,0,0,0,20.953,19.867ZM33.93,21.758a1.064,1.064,0,0,0-.441-.91,4.249,4.249,0,0,0-1.539-.559,7.277,7.277,0,0,1-1.742-.562,2.479,2.479,0,0,1-.953-.781,1.869,1.869,0,0,1-.309-1.078,2.193,2.193,0,0,1,.879-1.758,3.432,3.432,0,0,1,2.246-.719,3.532,3.532,0,0,1,2.332.742,2.357,2.357,0,0,1,.895,1.9H33.844a1.3,1.3,0,0,0-.5-1.023,1.888,1.888,0,0,0-1.27-.43,1.976,1.976,0,0,0-1.234.344,1.082,1.082,0,0,0-.445.9.877.877,0,0,0,.414.789,5.1,5.1,0,0,0,1.5.508,7.8,7.8,0,0,1,1.754.578,2.558,2.558,0,0,1,1,.809,1.988,1.988,0,0,1,.324,1.152,2.163,2.163,0,0,1-.906,1.816,3.8,3.8,0,0,1-2.352.684,4.257,4.257,0,0,1-1.8-.359,2.922,2.922,0,0,1-1.223-1,2.42,2.42,0,0,1-.441-1.395H30.1a1.5,1.5,0,0,0,.582,1.152,2.258,2.258,0,0,0,1.434.426,2.331,2.331,0,0,0,1.316-.332A1.02,1.02,0,0,0,33.93,21.758Z" transform="translate(587 4672)" fill="#12263f"/>
    <path id="Trazado_873504" data-name="Trazado 873504" d="M-71.133-5.023h-4.773V0h-1.5V-11.375h7.047v1.227h-5.547v3.9h4.773ZM-63.836,0a3.036,3.036,0,0,1-.2-.891A3.225,3.225,0,0,1-66.445.156,2.984,2.984,0,0,1-68.5-.551a2.288,2.288,0,0,1-.8-1.793,2.39,2.39,0,0,1,1-2.051,4.733,4.733,0,0,1,2.824-.73h1.406v-.664A1.623,1.623,0,0,0-64.516-7a1.821,1.821,0,0,0-1.336-.449,2.108,2.108,0,0,0-1.3.391,1.151,1.151,0,0,0-.523.945h-1.453a2,2,0,0,1,.449-1.223,3.066,3.066,0,0,1,1.219-.934,4.1,4.1,0,0,1,1.691-.344,3.342,3.342,0,0,1,2.289.73,2.635,2.635,0,0,1,.859,2.012v3.891a4.757,4.757,0,0,0,.3,1.852V0Zm-2.4-1.1a2.54,2.54,0,0,0,1.289-.352,2.127,2.127,0,0,0,.883-.914V-4.1H-65.2q-2.656,0-2.656,1.555A1.316,1.316,0,0,0-67.4-1.484,1.742,1.742,0,0,0-66.234-1.1Zm9.273.078a2.082,2.082,0,0,0,1.352-.469,1.649,1.649,0,0,0,.641-1.172H-53.6a2.621,2.621,0,0,1-.5,1.383,3.293,3.293,0,0,1-1.23,1.047,3.55,3.55,0,0,1-1.629.391A3.482,3.482,0,0,1-59.707-1a4.59,4.59,0,0,1-1.02-3.152v-.242a5.089,5.089,0,0,1,.453-2.2,3.451,3.451,0,0,1,1.3-1.492,3.7,3.7,0,0,1,2-.531,3.39,3.39,0,0,1,2.363.852,3.043,3.043,0,0,1,1,2.211h-1.367a1.992,1.992,0,0,0-.621-1.348,1.932,1.932,0,0,0-1.379-.527,2.023,2.023,0,0,0-1.707.793,3.724,3.724,0,0,0-.605,2.293v.273a3.65,3.65,0,0,0,.6,2.25A2.033,2.033,0,0,0-56.961-1.023Zm6.945-9.477v2.047h1.578v1.117h-1.578v5.249a1.173,1.173,0,0,0,.211.763.888.888,0,0,0,.719.254,3.5,3.5,0,0,0,.688-.094V0a4.215,4.215,0,0,1-1.109.155A1.8,1.8,0,0,1-50.969-.43a2.517,2.517,0,0,1-.492-1.664V-7.336H-53V-8.453h1.539V-10.5Zm2.727,6.2A4.993,4.993,0,0,1-46.8-6.539,3.643,3.643,0,0,1-45.441-8.07a3.7,3.7,0,0,1,1.988-.539,3.565,3.565,0,0,1,2.793,1.2,4.6,4.6,0,0,1,1.066,3.18v.1a5.036,5.036,0,0,1-.473,2.215A3.589,3.589,0,0,1-41.418-.391a3.743,3.743,0,0,1-2.02.547,3.556,3.556,0,0,1-2.785-1.2A4.575,4.575,0,0,1-47.289-4.2Zm1.453.172a3.616,3.616,0,0,0,.652,2.258,2.088,2.088,0,0,0,1.746.852,2.075,2.075,0,0,0,1.75-.863A3.955,3.955,0,0,0-41.039-4.3a3.61,3.61,0,0,0-.66-2.254,2.1,2.1,0,0,0-1.754-.863,2.075,2.075,0,0,0-1.727.852A3.925,3.925,0,0,0-45.836-4.133ZM-33.7-7.156a4.331,4.331,0,0,0-.711-.055A1.9,1.9,0,0,0-36.336-6V0h-1.445V-8.453h1.406l.023.977a2.251,2.251,0,0,1,2.016-1.133A1.477,1.477,0,0,1-33.7-8.5ZM-29.008.156A3.693,3.693,0,0,1-31.8-.973a4.19,4.19,0,0,1-1.078-3.02v-.266A5.073,5.073,0,0,1-32.4-6.5a3.748,3.748,0,0,1,1.344-1.547,3.378,3.378,0,0,1,1.871-.559,3.166,3.166,0,0,1,2.563,1.086,4.7,4.7,0,0,1,.914,3.109v.6h-5.727a3,3,0,0,0,.73,2.02,2.3,2.3,0,0,0,1.777.77,2.517,2.517,0,0,0,1.3-.312,3.259,3.259,0,0,0,.93-.828l.883.688A3.55,3.55,0,0,1-29.008.156Zm-.18-7.578a1.928,1.928,0,0,0-1.469.637A3.1,3.1,0,0,0-31.391-5h4.234v-.109a2.753,2.753,0,0,0-.594-1.707A1.815,1.815,0,0,0-29.187-7.422Zm10.07,5.18a1.064,1.064,0,0,0-.441-.91A4.249,4.249,0,0,0-21.1-3.711a7.277,7.277,0,0,1-1.742-.562,2.479,2.479,0,0,1-.953-.781A1.869,1.869,0,0,1-24.1-6.133a2.193,2.193,0,0,1,.879-1.758,3.432,3.432,0,0,1,2.246-.719,3.532,3.532,0,0,1,2.332.742,2.357,2.357,0,0,1,.895,1.9H-19.2a1.3,1.3,0,0,0-.5-1.023,1.888,1.888,0,0,0-1.27-.43,1.976,1.976,0,0,0-1.234.344,1.082,1.082,0,0,0-.445.9.877.877,0,0,0,.414.789,5.1,5.1,0,0,0,1.5.508,7.8,7.8,0,0,1,1.754.578A2.558,2.558,0,0,1-18-3.5a1.988,1.988,0,0,1,.324,1.152,2.163,2.163,0,0,1-.906,1.816A3.8,3.8,0,0,1-20.93.156a4.257,4.257,0,0,1-1.8-.359,2.922,2.922,0,0,1-1.223-1A2.42,2.42,0,0,1-24.391-2.6h1.445a1.5,1.5,0,0,0,.582,1.152,2.258,2.258,0,0,0,1.434.426,2.331,2.331,0,0,0,1.316-.332A1.02,1.02,0,0,0-19.117-2.242Zm9.25-8.258v2.047h1.578v1.117H-9.867v5.249a1.173,1.173,0,0,0,.211.763.888.888,0,0,0,.719.254,3.5,3.5,0,0,0,.688-.094V0A4.215,4.215,0,0,1-9.359.156,1.8,1.8,0,0,1-10.82-.43a2.517,2.517,0,0,1-.492-1.664V-7.336h-1.539V-8.453h1.539V-10.5ZM-3.094.156a3.693,3.693,0,0,1-2.8-1.129,4.19,4.19,0,0,1-1.078-3.02v-.266A5.073,5.073,0,0,1-6.488-6.5,3.748,3.748,0,0,1-5.145-8.051a3.378,3.378,0,0,1,1.871-.559A3.166,3.166,0,0,1-.711-7.523,4.7,4.7,0,0,1,.2-4.414v.6H-5.523a3,3,0,0,0,.73,2.02,2.3,2.3,0,0,0,1.777.77,2.517,2.517,0,0,0,1.3-.312,3.259,3.259,0,0,0,.93-.828l.883.688A3.55,3.55,0,0,1-3.094.156Zm-.18-7.578a1.928,1.928,0,0,0-1.469.637A3.1,3.1,0,0,0-5.477-5h4.234v-.109a2.753,2.753,0,0,0-.594-1.707A1.815,1.815,0,0,0-3.273-7.422Zm8.539,6.4a2.082,2.082,0,0,0,1.352-.469,1.649,1.649,0,0,0,.641-1.172H8.625a2.621,2.621,0,0,1-.5,1.383A3.293,3.293,0,0,1,6.895-.234,3.55,3.55,0,0,1,5.266.156,3.482,3.482,0,0,1,2.52-1,4.59,4.59,0,0,1,1.5-4.148v-.242a5.089,5.089,0,0,1,.453-2.2,3.451,3.451,0,0,1,1.3-1.492,3.7,3.7,0,0,1,2-.531,3.39,3.39,0,0,1,2.363.852,3.043,3.043,0,0,1,1,2.211H7.258a1.992,1.992,0,0,0-.621-1.348,1.932,1.932,0,0,0-1.379-.527,2.023,2.023,0,0,0-1.707.793,3.724,3.724,0,0,0-.605,2.293v.273a3.65,3.65,0,0,0,.6,2.25A2.033,2.033,0,0,0,5.266-1.023Zm6.352-7.43.047,1.063A3.08,3.08,0,0,1,14.2-8.609q2.68,0,2.7,3.023V0H15.453V-5.594a1.946,1.946,0,0,0-.418-1.352,1.675,1.675,0,0,0-1.277-.437,2.086,2.086,0,0,0-1.234.375,2.546,2.546,0,0,0-.828.984V0H10.25V-8.453ZM18.7-4.3a4.993,4.993,0,0,1,.488-2.234A3.643,3.643,0,0,1,20.543-8.07a3.7,3.7,0,0,1,1.988-.539,3.565,3.565,0,0,1,2.793,1.2,4.6,4.6,0,0,1,1.066,3.18v.1a5.036,5.036,0,0,1-.473,2.215A3.589,3.589,0,0,1,24.566-.391a3.743,3.743,0,0,1-2.02.547,3.556,3.556,0,0,1-2.785-1.2A4.575,4.575,0,0,1,18.7-4.2Zm1.453.172A3.616,3.616,0,0,0,20.8-1.875a2.088,2.088,0,0,0,1.746.852,2.075,2.075,0,0,0,1.75-.863A3.955,3.955,0,0,0,24.945-4.3a3.61,3.61,0,0,0-.66-2.254,2.1,2.1,0,0,0-1.754-.863A2.075,2.075,0,0,0,20.8-6.57,3.925,3.925,0,0,0,20.148-4.133ZM29.773,0H28.328V-12h1.445ZM31.7-4.3a4.993,4.993,0,0,1,.488-2.234A3.643,3.643,0,0,1,33.551-8.07a3.7,3.7,0,0,1,1.988-.539,3.565,3.565,0,0,1,2.793,1.2A4.6,4.6,0,0,1,39.4-4.234v.1a5.036,5.036,0,0,1-.473,2.215A3.589,3.589,0,0,1,37.574-.391a3.743,3.743,0,0,1-2.02.547,3.556,3.556,0,0,1-2.785-1.2A4.575,4.575,0,0,1,31.7-4.2Zm1.453.172a3.616,3.616,0,0,0,.652,2.258,2.088,2.088,0,0,0,1.746.852,2.075,2.075,0,0,0,1.75-.863A3.955,3.955,0,0,0,37.953-4.3a3.61,3.61,0,0,0-.66-2.254,2.1,2.1,0,0,0-1.754-.863,2.075,2.075,0,0,0-1.727.852A3.925,3.925,0,0,0,33.156-4.133ZM36.2-12h1.75L35.852-9.7l-1.164,0Zm4.672,7.7a4.968,4.968,0,0,1,.914-3.145A2.923,2.923,0,0,1,44.2-8.609a2.908,2.908,0,0,1,2.414,1.094l.07-.937h1.32V-.2a3.439,3.439,0,0,1-.973,2.586,3.589,3.589,0,0,1-2.613.945,4.348,4.348,0,0,1-1.789-.391A3.08,3.08,0,0,1,41.3,1.867L42.047,1A2.826,2.826,0,0,0,44.32,2.148a2.214,2.214,0,0,0,1.645-.594,2.269,2.269,0,0,0,.59-1.672V-.844a2.971,2.971,0,0,1-2.367,1,2.887,2.887,0,0,1-2.4-1.2A5.224,5.224,0,0,1,40.867-4.3Zm1.453.164a3.79,3.79,0,0,0,.586,2.246,1.9,1.9,0,0,0,1.641.816,2.117,2.117,0,0,0,2.008-1.242V-6.172a2.142,2.142,0,0,0-1.992-1.211,1.921,1.921,0,0,0-1.648.82A4.128,4.128,0,0,0,42.32-4.133ZM51.758,0H50.313V-8.453h1.445ZM50.2-10.7a.863.863,0,0,1,.215-.594.807.807,0,0,1,.637-.242.819.819,0,0,1,.641.242.854.854,0,0,1,.219.594.826.826,0,0,1-.219.586.834.834,0,0,1-.641.234.821.821,0,0,1-.637-.234A.834.834,0,0,1,50.2-10.7Zm7.266,9.672a2.082,2.082,0,0,0,1.352-.469,1.649,1.649,0,0,0,.641-1.172H60.82a2.621,2.621,0,0,1-.5,1.383A3.293,3.293,0,0,1,59.09-.234a3.55,3.55,0,0,1-1.629.391A3.482,3.482,0,0,1,54.715-1,4.59,4.59,0,0,1,53.7-4.148v-.242a5.089,5.089,0,0,1,.453-2.2,3.451,3.451,0,0,1,1.3-1.492,3.7,3.7,0,0,1,2-.531,3.39,3.39,0,0,1,2.363.852,3.043,3.043,0,0,1,1,2.211H59.453a1.992,1.992,0,0,0-.621-1.348,1.932,1.932,0,0,0-1.379-.527,2.023,2.023,0,0,0-1.707.793,3.724,3.724,0,0,0-.605,2.293v.273a3.65,3.65,0,0,0,.6,2.25A2.033,2.033,0,0,0,57.461-1.023Zm4.6-3.281a4.993,4.993,0,0,1,.488-2.234A3.643,3.643,0,0,1,63.91-8.07,3.7,3.7,0,0,1,65.9-8.609a3.565,3.565,0,0,1,2.793,1.2,4.6,4.6,0,0,1,1.066,3.18v.1a5.036,5.036,0,0,1-.473,2.215A3.589,3.589,0,0,1,67.934-.391a3.743,3.743,0,0,1-2.02.547,3.556,3.556,0,0,1-2.785-1.2A4.575,4.575,0,0,1,62.063-4.2Zm1.453.172a3.616,3.616,0,0,0,.652,2.258,2.088,2.088,0,0,0,1.746.852,2.075,2.075,0,0,0,1.75-.863A3.955,3.955,0,0,0,68.313-4.3a3.61,3.61,0,0,0-.66-2.254A2.1,2.1,0,0,0,65.9-7.422a2.075,2.075,0,0,0-1.727.852A3.925,3.925,0,0,0,63.516-4.133ZM76.492-2.242a1.064,1.064,0,0,0-.441-.91,4.249,4.249,0,0,0-1.539-.559,7.277,7.277,0,0,1-1.742-.562,2.479,2.479,0,0,1-.953-.781,1.869,1.869,0,0,1-.309-1.078,2.193,2.193,0,0,1,.879-1.758,3.432,3.432,0,0,1,2.246-.719,3.532,3.532,0,0,1,2.332.742,2.357,2.357,0,0,1,.895,1.9H76.406a1.3,1.3,0,0,0-.5-1.023,1.888,1.888,0,0,0-1.27-.43,1.976,1.976,0,0,0-1.234.344,1.082,1.082,0,0,0-.445.9.877.877,0,0,0,.414.789,5.1,5.1,0,0,0,1.5.508,7.8,7.8,0,0,1,1.754.578,2.558,2.558,0,0,1,1,.809,1.988,1.988,0,0,1,.324,1.152,2.163,2.163,0,0,1-.906,1.816A3.8,3.8,0,0,1,74.68.156a4.257,4.257,0,0,1-1.8-.359,2.922,2.922,0,0,1-1.223-1A2.42,2.42,0,0,1,71.219-2.6h1.445a1.5,1.5,0,0,0,.582,1.152,2.258,2.258,0,0,0,1.434.426A2.331,2.331,0,0,0,76-1.355,1.02,1.02,0,0,0,76.492-2.242Z" transform="translate(805 4672)" fill="#12263f"/>
    <path id="Trazado_873505" data-name="Trazado 873505" d="M-74.328-5.023H-79.1V0h-1.5V-11.375h7.047v1.227H-79.1v3.9h4.773ZM-67.031,0a3.036,3.036,0,0,1-.2-.891A3.225,3.225,0,0,1-69.641.156a2.984,2.984,0,0,1-2.051-.707,2.288,2.288,0,0,1-.8-1.793,2.39,2.39,0,0,1,1-2.051,4.733,4.733,0,0,1,2.824-.73h1.406v-.664A1.623,1.623,0,0,0-67.711-7a1.821,1.821,0,0,0-1.336-.449,2.108,2.108,0,0,0-1.3.391,1.151,1.151,0,0,0-.523.945H-72.32a2,2,0,0,1,.449-1.223,3.066,3.066,0,0,1,1.219-.934,4.1,4.1,0,0,1,1.691-.344,3.342,3.342,0,0,1,2.289.73,2.635,2.635,0,0,1,.859,2.012v3.891a4.757,4.757,0,0,0,.3,1.852V0Zm-2.4-1.1a2.54,2.54,0,0,0,1.289-.352,2.127,2.127,0,0,0,.883-.914V-4.1h-1.133q-2.656,0-2.656,1.555a1.316,1.316,0,0,0,.453,1.063A1.742,1.742,0,0,0-69.43-1.1Zm9.273.078A2.082,2.082,0,0,0-58.8-1.492a1.649,1.649,0,0,0,.641-1.172H-56.8a2.621,2.621,0,0,1-.5,1.383,3.293,3.293,0,0,1-1.23,1.047,3.55,3.55,0,0,1-1.629.391A3.482,3.482,0,0,1-62.9-1a4.59,4.59,0,0,1-1.02-3.152v-.242a5.089,5.089,0,0,1,.453-2.2,3.451,3.451,0,0,1,1.3-1.492,3.7,3.7,0,0,1,2-.531,3.39,3.39,0,0,1,2.363.852,3.043,3.043,0,0,1,1,2.211h-1.367a1.992,1.992,0,0,0-.621-1.348,1.932,1.932,0,0,0-1.379-.527,2.023,2.023,0,0,0-1.707.793,3.724,3.724,0,0,0-.605,2.293v.273a3.65,3.65,0,0,0,.6,2.25A2.033,2.033,0,0,0-60.156-1.023Zm6.945-9.477v2.047h1.578v1.117h-1.578v5.249A1.173,1.173,0,0,0-53-1.325a.888.888,0,0,0,.719.254,3.5,3.5,0,0,0,.688-.094V0A4.215,4.215,0,0,1-52.7.156,1.8,1.8,0,0,1-54.164-.43a2.517,2.517,0,0,1-.492-1.664V-7.336H-56.2V-8.453h1.539V-10.5Zm2.727,6.2A4.993,4.993,0,0,1-50-6.539,3.643,3.643,0,0,1-48.637-8.07a3.7,3.7,0,0,1,1.988-.539,3.565,3.565,0,0,1,2.793,1.2,4.6,4.6,0,0,1,1.066,3.18v.1a5.036,5.036,0,0,1-.473,2.215A3.589,3.589,0,0,1-44.613-.391a3.743,3.743,0,0,1-2.02.547,3.556,3.556,0,0,1-2.785-1.2A4.575,4.575,0,0,1-50.484-4.2Zm1.453.172a3.616,3.616,0,0,0,.652,2.258,2.088,2.088,0,0,0,1.746.852,2.075,2.075,0,0,0,1.75-.863A3.955,3.955,0,0,0-44.234-4.3a3.61,3.61,0,0,0-.66-2.254,2.1,2.1,0,0,0-1.754-.863,2.075,2.075,0,0,0-1.727.852A3.925,3.925,0,0,0-49.031-4.133Zm12.141-3.023a4.331,4.331,0,0,0-.711-.055A1.9,1.9,0,0,0-39.531-6V0h-1.445V-8.453h1.406l.023.977a2.251,2.251,0,0,1,2.016-1.133,1.477,1.477,0,0,1,.641.109ZM-32.2.156A3.693,3.693,0,0,1-35-.973a4.19,4.19,0,0,1-1.078-3.02v-.266A5.073,5.073,0,0,1-35.6-6.5a3.748,3.748,0,0,1,1.344-1.547,3.378,3.378,0,0,1,1.871-.559A3.166,3.166,0,0,1-29.82-7.523a4.7,4.7,0,0,1,.914,3.109v.6h-5.727a3,3,0,0,0,.73,2.02,2.3,2.3,0,0,0,1.777.77,2.517,2.517,0,0,0,1.3-.312,3.259,3.259,0,0,0,.93-.828l.883.688A3.55,3.55,0,0,1-32.2.156Zm-.18-7.578a1.928,1.928,0,0,0-1.469.637A3.1,3.1,0,0,0-34.586-5h4.234v-.109a2.753,2.753,0,0,0-.594-1.707A1.815,1.815,0,0,0-32.383-7.422Zm10.07,5.18a1.064,1.064,0,0,0-.441-.91,4.249,4.249,0,0,0-1.539-.559,7.277,7.277,0,0,1-1.742-.562,2.479,2.479,0,0,1-.953-.781A1.869,1.869,0,0,1-27.3-6.133a2.193,2.193,0,0,1,.879-1.758,3.432,3.432,0,0,1,2.246-.719,3.532,3.532,0,0,1,2.332.742,2.357,2.357,0,0,1,.895,1.9H-22.4a1.3,1.3,0,0,0-.5-1.023,1.888,1.888,0,0,0-1.27-.43,1.976,1.976,0,0,0-1.234.344,1.082,1.082,0,0,0-.445.9.877.877,0,0,0,.414.789,5.1,5.1,0,0,0,1.5.508,7.8,7.8,0,0,1,1.754.578,2.558,2.558,0,0,1,1,.809,1.988,1.988,0,0,1,.324,1.152,2.163,2.163,0,0,1-.906,1.816,3.8,3.8,0,0,1-2.352.684,4.257,4.257,0,0,1-1.8-.359,2.922,2.922,0,0,1-1.223-1A2.42,2.42,0,0,1-27.586-2.6h1.445a1.5,1.5,0,0,0,.582,1.152,2.258,2.258,0,0,0,1.434.426,2.331,2.331,0,0,0,1.316-.332A1.02,1.02,0,0,0-22.312-2.242ZM-15.375-4.3a4.952,4.952,0,0,1,.922-3.129,2.915,2.915,0,0,1,2.414-1.184A2.932,2.932,0,0,1-9.687-7.594V-12h1.445V0H-9.57l-.07-.906A2.943,2.943,0,0,1-12.055.156a2.887,2.887,0,0,1-2.395-1.2,5.008,5.008,0,0,1-.926-3.141Zm1.445.164a3.749,3.749,0,0,0,.594,2.25A1.92,1.92,0,0,0-11.7-1.07,2.108,2.108,0,0,0-9.687-2.3V-6.187a2.125,2.125,0,0,0-1.992-1.2,1.929,1.929,0,0,0-1.656.82A4.128,4.128,0,0,0-13.93-4.133ZM-2.492.156a3.693,3.693,0,0,1-2.8-1.129,4.19,4.19,0,0,1-1.078-3.02v-.266A5.073,5.073,0,0,1-5.887-6.5,3.748,3.748,0,0,1-4.543-8.051a3.378,3.378,0,0,1,1.871-.559A3.166,3.166,0,0,1-.109-7.523,4.7,4.7,0,0,1,.8-4.414v.6H-4.922a3,3,0,0,0,.73,2.02,2.3,2.3,0,0,0,1.777.77,2.517,2.517,0,0,0,1.3-.312,3.259,3.259,0,0,0,.93-.828L.7-1.477A3.55,3.55,0,0,1-2.492.156Zm-.18-7.578a1.928,1.928,0,0,0-1.469.637A3.1,3.1,0,0,0-4.875-5H-.641v-.109a2.753,2.753,0,0,0-.594-1.707A1.815,1.815,0,0,0-2.672-7.422ZM3.836-8.453l.039.938A3.122,3.122,0,0,1,6.383-8.609,2.417,2.417,0,0,1,8.8-7.25a3.2,3.2,0,0,1,1.1-.984,3.242,3.242,0,0,1,1.6-.375q2.781,0,2.828,2.945V0H12.875V-5.578a1.941,1.941,0,0,0-.414-1.355,1.823,1.823,0,0,0-1.391-.449,1.916,1.916,0,0,0-1.336.48,1.949,1.949,0,0,0-.617,1.293V0H7.664V-5.539a1.613,1.613,0,0,0-1.8-1.844A1.934,1.934,0,0,0,3.914-6.172V0H2.469V-8.453ZM16.117-4.3a4.993,4.993,0,0,1,.488-2.234A3.643,3.643,0,0,1,17.965-8.07a3.7,3.7,0,0,1,1.988-.539,3.565,3.565,0,0,1,2.793,1.2,4.6,4.6,0,0,1,1.066,3.18v.1a5.036,5.036,0,0,1-.473,2.215A3.589,3.589,0,0,1,21.988-.391a3.743,3.743,0,0,1-2.02.547,3.556,3.556,0,0,1-2.785-1.2A4.575,4.575,0,0,1,16.117-4.2Zm1.453.172a3.616,3.616,0,0,0,.652,2.258,2.088,2.088,0,0,0,1.746.852,2.075,2.075,0,0,0,1.75-.863A3.955,3.955,0,0,0,22.367-4.3a3.61,3.61,0,0,0-.66-2.254,2.1,2.1,0,0,0-1.754-.863,2.075,2.075,0,0,0-1.727.852A3.925,3.925,0,0,0,17.57-4.133ZM25.281-4.3A4.968,4.968,0,0,1,26.2-7.441a2.923,2.923,0,0,1,2.422-1.168,2.908,2.908,0,0,1,2.414,1.094l.07-.937h1.32V-.2a3.439,3.439,0,0,1-.973,2.586,3.589,3.589,0,0,1-2.613.945,4.348,4.348,0,0,1-1.789-.391,3.08,3.08,0,0,1-1.336-1.07L26.461,1a2.826,2.826,0,0,0,2.273,1.148,2.214,2.214,0,0,0,1.645-.594,2.269,2.269,0,0,0,.59-1.672V-.844a2.971,2.971,0,0,1-2.367,1,2.887,2.887,0,0,1-2.4-1.2A5.224,5.224,0,0,1,25.281-4.3Zm1.453.164a3.79,3.79,0,0,0,.586,2.246,1.9,1.9,0,0,0,1.641.816,2.117,2.117,0,0,0,2.008-1.242V-6.172a2.142,2.142,0,0,0-1.992-1.211,1.921,1.921,0,0,0-1.648.82A4.128,4.128,0,0,0,26.734-4.133ZM38.688-7.156a4.331,4.331,0,0,0-.711-.055A1.9,1.9,0,0,0,36.047-6V0H34.6V-8.453h1.406l.023.977a2.251,2.251,0,0,1,2.016-1.133,1.477,1.477,0,0,1,.641.109ZM44.922,0a3.036,3.036,0,0,1-.2-.891A3.225,3.225,0,0,1,42.313.156a2.984,2.984,0,0,1-2.051-.707,2.287,2.287,0,0,1-.8-1.793,2.39,2.39,0,0,1,1-2.051,4.733,4.733,0,0,1,2.824-.73H44.7v-.664A1.623,1.623,0,0,0,44.242-7a1.821,1.821,0,0,0-1.336-.449,2.107,2.107,0,0,0-1.3.391,1.151,1.151,0,0,0-.523.945H39.633a2,2,0,0,1,.449-1.223A3.066,3.066,0,0,1,41.3-8.266a4.1,4.1,0,0,1,1.691-.344,3.342,3.342,0,0,1,2.289.73,2.635,2.635,0,0,1,.859,2.012v3.891a4.757,4.757,0,0,0,.3,1.852V0Zm-2.4-1.1a2.54,2.54,0,0,0,1.289-.352,2.127,2.127,0,0,0,.883-.914V-4.1H43.563q-2.656,0-2.656,1.555a1.316,1.316,0,0,0,.453,1.063A1.742,1.742,0,0,0,42.523-1.1ZM43.859-12h1.75L43.516-9.7l-1.164,0ZM48.891,0V-7.336H47.555V-8.453h1.336v-.719a2.937,2.937,0,0,1,.809-2.2,3.136,3.136,0,0,1,2.285-.789,6.881,6.881,0,0,1,2.211.477l-.242,1.219a5.008,5.008,0,0,0-1.859-.391,1.819,1.819,0,0,0-1.34.418,1.723,1.723,0,0,0-.41,1.254v.734H52.07v1.117H50.344V0Zm6.023,0H53.461V-8.453h1.453Zm5.742-1.023a2.082,2.082,0,0,0,1.352-.469,1.649,1.649,0,0,0,.641-1.172h1.367a2.621,2.621,0,0,1-.5,1.383,3.293,3.293,0,0,1-1.23,1.047,3.55,3.55,0,0,1-1.629.391A3.482,3.482,0,0,1,57.91-1a4.59,4.59,0,0,1-1.02-3.152v-.242a5.089,5.089,0,0,1,.453-2.2,3.451,3.451,0,0,1,1.3-1.492,3.7,3.7,0,0,1,2-.531,3.39,3.39,0,0,1,2.363.852,3.043,3.043,0,0,1,1,2.211H62.648a1.992,1.992,0,0,0-.621-1.348,1.932,1.932,0,0,0-1.379-.527,2.023,2.023,0,0,0-1.707.793,3.724,3.724,0,0,0-.605,2.293v.273a3.65,3.65,0,0,0,.6,2.25A2.033,2.033,0,0,0,60.656-1.023Zm4.6-3.281a4.993,4.993,0,0,1,.488-2.234A3.643,3.643,0,0,1,67.105-8.07a3.7,3.7,0,0,1,1.988-.539,3.565,3.565,0,0,1,2.793,1.2,4.6,4.6,0,0,1,1.066,3.18v.1a5.036,5.036,0,0,1-.473,2.215A3.589,3.589,0,0,1,71.129-.391a3.743,3.743,0,0,1-2.02.547,3.556,3.556,0,0,1-2.785-1.2A4.575,4.575,0,0,1,65.258-4.2Zm1.453.172a3.616,3.616,0,0,0,.652,2.258,2.088,2.088,0,0,0,1.746.852,2.075,2.075,0,0,0,1.75-.863A3.955,3.955,0,0,0,71.508-4.3a3.61,3.61,0,0,0-.66-2.254,2.1,2.1,0,0,0-1.754-.863,2.075,2.075,0,0,0-1.727.852A3.925,3.925,0,0,0,66.711-4.133ZM79.688-2.242a1.064,1.064,0,0,0-.441-.91,4.249,4.249,0,0,0-1.539-.559,7.277,7.277,0,0,1-1.742-.562,2.479,2.479,0,0,1-.953-.781A1.869,1.869,0,0,1,74.7-6.133a2.193,2.193,0,0,1,.879-1.758,3.432,3.432,0,0,1,2.246-.719,3.532,3.532,0,0,1,2.332.742,2.357,2.357,0,0,1,.895,1.9H79.6a1.3,1.3,0,0,0-.5-1.023,1.888,1.888,0,0,0-1.27-.43,1.976,1.976,0,0,0-1.234.344,1.082,1.082,0,0,0-.445.9.877.877,0,0,0,.414.789,5.1,5.1,0,0,0,1.5.508,7.8,7.8,0,0,1,1.754.578,2.558,2.558,0,0,1,1,.809,1.988,1.988,0,0,1,.324,1.152,2.163,2.163,0,0,1-.906,1.816,3.8,3.8,0,0,1-2.352.684,4.257,4.257,0,0,1-1.8-.359,2.922,2.922,0,0,1-1.223-1A2.42,2.42,0,0,1,74.414-2.6h1.445a1.5,1.5,0,0,0,.582,1.152,2.258,2.258,0,0,0,1.434.426,2.331,2.331,0,0,0,1.316-.332A1.02,1.02,0,0,0,79.688-2.242Z" transform="translate(1008 4672)" fill="#12263f"/>
    <path id="Trazado_873506" data-name="Trazado 873506" d="M-38.1-11.375l3.719,9.281,3.719-9.281h1.945V0h-1.5V-4.43l.141-4.781L-33.812,0h-1.148l-3.727-9.187.148,4.758V0h-1.5V-11.375ZM-22.789.156a3.693,3.693,0,0,1-2.8-1.129,4.19,4.19,0,0,1-1.078-3.02v-.266a5.073,5.073,0,0,1,.48-2.246A3.748,3.748,0,0,1-24.84-8.051a3.378,3.378,0,0,1,1.871-.559,3.166,3.166,0,0,1,2.563,1.086,4.7,4.7,0,0,1,.914,3.109v.6h-5.727a3,3,0,0,0,.73,2.02,2.3,2.3,0,0,0,1.777.77,2.517,2.517,0,0,0,1.3-.312,3.259,3.259,0,0,0,.93-.828l.883.688A3.55,3.55,0,0,1-22.789.156Zm-.18-7.578a1.928,1.928,0,0,0-1.469.637A3.1,3.1,0,0,0-25.172-5h4.234v-.109a2.753,2.753,0,0,0-.594-1.707A1.815,1.815,0,0,0-22.969-7.422Zm9.234.266a4.331,4.331,0,0,0-.711-.055A1.9,1.9,0,0,0-16.375-6V0H-17.82V-8.453h1.406l.023.977a2.251,2.251,0,0,1,2.016-1.133,1.477,1.477,0,0,1,.641.109Zm4.57,6.133a2.082,2.082,0,0,0,1.352-.469,1.649,1.649,0,0,0,.641-1.172H-5.8a2.621,2.621,0,0,1-.5,1.383A3.293,3.293,0,0,1-7.535-.234,3.55,3.55,0,0,1-9.164.156,3.482,3.482,0,0,1-11.91-1a4.59,4.59,0,0,1-1.02-3.152v-.242a5.089,5.089,0,0,1,.453-2.2,3.451,3.451,0,0,1,1.3-1.492,3.7,3.7,0,0,1,2-.531,3.39,3.39,0,0,1,2.363.852,3.043,3.043,0,0,1,1,2.211H-7.172a1.992,1.992,0,0,0-.621-1.348,1.932,1.932,0,0,0-1.379-.527,2.023,2.023,0,0,0-1.707.793,3.724,3.724,0,0,0-.605,2.293v.273a3.65,3.65,0,0,0,.6,2.25A2.033,2.033,0,0,0-9.164-1.023ZM1.039,0a3.036,3.036,0,0,1-.2-.891A3.225,3.225,0,0,1-1.57.156,2.984,2.984,0,0,1-3.621-.551a2.287,2.287,0,0,1-.8-1.793,2.39,2.39,0,0,1,1-2.051,4.733,4.733,0,0,1,2.824-.73H.813v-.664A1.623,1.623,0,0,0,.359-7,1.821,1.821,0,0,0-.977-7.445a2.107,2.107,0,0,0-1.3.391,1.151,1.151,0,0,0-.523.945H-4.25A2,2,0,0,1-3.8-7.332a3.066,3.066,0,0,1,1.219-.934A4.1,4.1,0,0,1-.891-8.609a3.342,3.342,0,0,1,2.289.73,2.635,2.635,0,0,1,.859,2.012v3.891a4.757,4.757,0,0,0,.3,1.852V0Zm-2.4-1.1A2.54,2.54,0,0,0-.07-1.453a2.127,2.127,0,0,0,.883-.914V-4.1H-.32q-2.656,0-2.656,1.555a1.316,1.316,0,0,0,.453,1.063A1.742,1.742,0,0,0-1.359-1.1ZM4.172-4.3a4.952,4.952,0,0,1,.922-3.129A2.915,2.915,0,0,1,7.508-8.609,2.932,2.932,0,0,1,9.859-7.594V-12H11.3V0H9.977l-.07-.906A2.943,2.943,0,0,1,7.492.156,2.887,2.887,0,0,1,5.1-1.047a5.008,5.008,0,0,1-.926-3.141Zm1.445.164a3.749,3.749,0,0,0,.594,2.25,1.92,1.92,0,0,0,1.641.813A2.108,2.108,0,0,0,9.859-2.3V-6.187a2.125,2.125,0,0,0-1.992-1.2,1.929,1.929,0,0,0-1.656.82A4.128,4.128,0,0,0,5.617-4.133ZM13.164-4.3a4.993,4.993,0,0,1,.488-2.234A3.643,3.643,0,0,1,15.012-8.07,3.7,3.7,0,0,1,17-8.609a3.565,3.565,0,0,1,2.793,1.2,4.6,4.6,0,0,1,1.066,3.18v.1a5.036,5.036,0,0,1-.473,2.215A3.589,3.589,0,0,1,19.035-.391a3.743,3.743,0,0,1-2.02.547,3.556,3.556,0,0,1-2.785-1.2A4.575,4.575,0,0,1,13.164-4.2Zm1.453.172a3.616,3.616,0,0,0,.652,2.258,2.088,2.088,0,0,0,1.746.852,2.075,2.075,0,0,0,1.75-.863A3.955,3.955,0,0,0,19.414-4.3a3.61,3.61,0,0,0-.66-2.254A2.1,2.1,0,0,0,17-7.422a2.075,2.075,0,0,0-1.727.852A3.925,3.925,0,0,0,14.617-4.133ZM27.594-2.242a1.064,1.064,0,0,0-.441-.91,4.249,4.249,0,0,0-1.539-.559,7.277,7.277,0,0,1-1.742-.562,2.479,2.479,0,0,1-.953-.781,1.869,1.869,0,0,1-.309-1.078,2.193,2.193,0,0,1,.879-1.758,3.432,3.432,0,0,1,2.246-.719,3.532,3.532,0,0,1,2.332.742,2.357,2.357,0,0,1,.895,1.9H27.508A1.3,1.3,0,0,0,27-6.992a1.888,1.888,0,0,0-1.27-.43,1.976,1.976,0,0,0-1.234.344,1.082,1.082,0,0,0-.445.9.877.877,0,0,0,.414.789,5.1,5.1,0,0,0,1.5.508,7.8,7.8,0,0,1,1.754.578,2.558,2.558,0,0,1,1,.809,1.988,1.988,0,0,1,.324,1.152,2.163,2.163,0,0,1-.906,1.816,3.8,3.8,0,0,1-2.352.684,4.257,4.257,0,0,1-1.8-.359,2.922,2.922,0,0,1-1.223-1A2.42,2.42,0,0,1,22.32-2.6h1.445a1.5,1.5,0,0,0,.582,1.152,2.258,2.258,0,0,0,1.434.426A2.331,2.331,0,0,0,27.1-1.355,1.02,1.02,0,0,0,27.594-2.242Zm10.055.125,1.969-6.336h1.547L37.766,1.3q-.789,2.109-2.508,2.109l-.273-.023-.539-.1V2.117l.391.031a1.923,1.923,0,0,0,1.145-.3A2.148,2.148,0,0,0,36.656.766l.32-.859L33.961-8.453h1.578ZM-45.875,22.977a2.082,2.082,0,0,0,1.352-.469,1.649,1.649,0,0,0,.641-1.172h1.367a2.621,2.621,0,0,1-.5,1.383,3.293,3.293,0,0,1-1.23,1.047,3.55,3.55,0,0,1-1.629.391A3.482,3.482,0,0,1-48.621,23a4.59,4.59,0,0,1-1.02-3.152v-.242a5.089,5.089,0,0,1,.453-2.2,3.451,3.451,0,0,1,1.3-1.492,3.7,3.7,0,0,1,2-.531,3.39,3.39,0,0,1,2.363.852,3.043,3.043,0,0,1,1,2.211h-1.367a1.992,1.992,0,0,0-.621-1.348,1.932,1.932,0,0,0-1.379-.527,2.023,2.023,0,0,0-1.707.793,3.724,3.724,0,0,0-.605,2.293v.273a3.65,3.65,0,0,0,.6,2.25A2.033,2.033,0,0,0-45.875,22.977Zm4.6-3.281a4.993,4.993,0,0,1,.488-2.234,3.643,3.643,0,0,1,1.359-1.531,3.7,3.7,0,0,1,1.988-.539,3.565,3.565,0,0,1,2.793,1.2,4.6,4.6,0,0,1,1.066,3.18v.1a5.036,5.036,0,0,1-.473,2.215A3.589,3.589,0,0,1-35.4,23.609a3.743,3.743,0,0,1-2.02.547,3.556,3.556,0,0,1-2.785-1.2A4.575,4.575,0,0,1-41.273,19.8Zm1.453.172a3.616,3.616,0,0,0,.652,2.258,2.088,2.088,0,0,0,1.746.852,2.075,2.075,0,0,0,1.75-.863,3.955,3.955,0,0,0,.648-2.418,3.61,3.61,0,0,0-.66-2.254,2.1,2.1,0,0,0-1.754-.863,2.075,2.075,0,0,0-1.727.852A3.925,3.925,0,0,0-39.82,19.867Zm9.414-4.32.039.938a3.122,3.122,0,0,1,2.508-1.094,2.417,2.417,0,0,1,2.414,1.359,3.2,3.2,0,0,1,1.1-.984,3.242,3.242,0,0,1,1.6-.375q2.781,0,2.828,2.945V24h-1.445V18.422a1.941,1.941,0,0,0-.414-1.355,1.823,1.823,0,0,0-1.391-.449,1.916,1.916,0,0,0-1.336.48,1.949,1.949,0,0,0-.617,1.293V24h-1.453V18.461a1.613,1.613,0,0,0-1.8-1.844,1.934,1.934,0,0,0-1.945,1.211V24h-1.445V15.547Zm19.8,4.32a5.062,5.062,0,0,1-.883,3.109,2.829,2.829,0,0,1-2.391,1.18A3.1,3.1,0,0,1-16.3,23.18v4.07h-1.445v-11.7h1.32l.07.938A2.977,2.977,0,0,1-13.9,15.391a2.882,2.882,0,0,1,2.41,1.148,5.117,5.117,0,0,1,.887,3.2Zm-1.445-.164a3.735,3.735,0,0,0-.609-2.258,1.963,1.963,0,0,0-1.672-.828A2.125,2.125,0,0,0-16.3,17.781V21.82a2.129,2.129,0,0,0,1.984,1.156,1.954,1.954,0,0,0,1.652-.824A4.077,4.077,0,0,0-12.047,19.7Zm6.789,4.453a3.693,3.693,0,0,1-2.8-1.129,4.19,4.19,0,0,1-1.078-3.02v-.266a5.073,5.073,0,0,1,.48-2.246,3.748,3.748,0,0,1,1.344-1.547,3.378,3.378,0,0,1,1.871-.559,3.166,3.166,0,0,1,2.563,1.086,4.7,4.7,0,0,1,.914,3.109v.6H-7.687a3,3,0,0,0,.73,2.02,2.3,2.3,0,0,0,1.777.77,2.517,2.517,0,0,0,1.3-.312,3.259,3.259,0,0,0,.93-.828l.883.688A3.55,3.55,0,0,1-5.258,24.156Zm-.18-7.578a1.928,1.928,0,0,0-1.469.637A3.1,3.1,0,0,0-7.641,19h4.234v-.109A2.753,2.753,0,0,0-4,17.184,1.815,1.815,0,0,0-5.437,16.578ZM1.672,13.5v2.047H3.25v1.117H1.672v5.249a1.173,1.173,0,0,0,.211.763.888.888,0,0,0,.719.254,3.5,3.5,0,0,0,.688-.094V24a4.215,4.215,0,0,1-1.109.155A1.8,1.8,0,0,1,.719,23.57a2.517,2.517,0,0,1-.492-1.664V16.664H-1.312V15.547H.227V13.5ZM8.445,24.156a3.693,3.693,0,0,1-2.8-1.129,4.19,4.19,0,0,1-1.078-3.02v-.266a5.073,5.073,0,0,1,.48-2.246,3.748,3.748,0,0,1,1.344-1.547,3.378,3.378,0,0,1,1.871-.559,3.166,3.166,0,0,1,2.563,1.086,4.7,4.7,0,0,1,.914,3.109v.6H6.016a3,3,0,0,0,.73,2.02,2.3,2.3,0,0,0,1.777.77,2.517,2.517,0,0,0,1.3-.312,3.259,3.259,0,0,0,.93-.828l.883.688A3.55,3.55,0,0,1,8.445,24.156Zm-.18-7.578a1.928,1.928,0,0,0-1.469.637A3.1,3.1,0,0,0,6.063,19H10.3v-.109A2.753,2.753,0,0,0,9.7,17.184,1.815,1.815,0,0,0,8.266,16.578Zm6.516-1.031.047,1.063a3.08,3.08,0,0,1,2.531-1.219q2.68,0,2.7,3.023V24H18.617V18.406a1.946,1.946,0,0,0-.418-1.352,1.675,1.675,0,0,0-1.277-.437,2.086,2.086,0,0,0-1.234.375,2.546,2.546,0,0,0-.828.984V24H13.414V15.547Zm10.852,7.43a2.082,2.082,0,0,0,1.352-.469,1.649,1.649,0,0,0,.641-1.172h1.367a2.621,2.621,0,0,1-.5,1.383,3.293,3.293,0,0,1-1.23,1.047,3.55,3.55,0,0,1-1.629.391A3.482,3.482,0,0,1,22.887,23a4.59,4.59,0,0,1-1.02-3.152v-.242a5.089,5.089,0,0,1,.453-2.2,3.451,3.451,0,0,1,1.3-1.492,3.7,3.7,0,0,1,2-.531,3.39,3.39,0,0,1,2.363.852,3.043,3.043,0,0,1,1,2.211H27.625A1.992,1.992,0,0,0,27,17.105a1.932,1.932,0,0,0-1.379-.527,2.023,2.023,0,0,0-1.707.793,3.724,3.724,0,0,0-.605,2.293v.273a3.65,3.65,0,0,0,.6,2.25A2.033,2.033,0,0,0,25.633,22.977ZM32.188,24H30.742V15.547h1.445ZM30.625,13.3a.863.863,0,0,1,.215-.594.807.807,0,0,1,.637-.242.819.819,0,0,1,.641.242.854.854,0,0,1,.219.594.826.826,0,0,1-.219.586.834.834,0,0,1-.641.234.821.821,0,0,1-.637-.234A.834.834,0,0,1,30.625,13.3ZM39.719,24a3.036,3.036,0,0,1-.2-.891,3.225,3.225,0,0,1-2.406,1.047,2.984,2.984,0,0,1-2.051-.707,2.287,2.287,0,0,1-.8-1.793,2.39,2.39,0,0,1,1-2.051,4.733,4.733,0,0,1,2.824-.73h1.406v-.664A1.623,1.623,0,0,0,39.039,17a1.821,1.821,0,0,0-1.336-.449,2.107,2.107,0,0,0-1.3.391,1.151,1.151,0,0,0-.523.945H34.43a2,2,0,0,1,.449-1.223,3.066,3.066,0,0,1,1.219-.934,4.1,4.1,0,0,1,1.691-.344,3.342,3.342,0,0,1,2.289.73,2.635,2.635,0,0,1,.859,2.012v3.891a4.757,4.757,0,0,0,.3,1.852V24Zm-2.4-1.1a2.54,2.54,0,0,0,1.289-.352,2.127,2.127,0,0,0,.883-.914V19.9H38.359q-2.656,0-2.656,1.555a1.316,1.316,0,0,0,.453,1.063A1.742,1.742,0,0,0,37.32,22.9Zm10.8-1.141a1.064,1.064,0,0,0-.441-.91,4.249,4.249,0,0,0-1.539-.559,7.277,7.277,0,0,1-1.742-.562,2.479,2.479,0,0,1-.953-.781,1.869,1.869,0,0,1-.309-1.078,2.193,2.193,0,0,1,.879-1.758,3.432,3.432,0,0,1,2.246-.719,3.532,3.532,0,0,1,2.332.742,2.357,2.357,0,0,1,.895,1.9H48.039a1.3,1.3,0,0,0-.5-1.023,1.888,1.888,0,0,0-1.27-.43,1.976,1.976,0,0,0-1.234.344,1.082,1.082,0,0,0-.445.9.877.877,0,0,0,.414.789,5.1,5.1,0,0,0,1.5.508,7.8,7.8,0,0,1,1.754.578,2.558,2.558,0,0,1,1,.809,1.988,1.988,0,0,1,.324,1.152,2.163,2.163,0,0,1-.906,1.816,3.8,3.8,0,0,1-2.352.684,4.257,4.257,0,0,1-1.8-.359,2.922,2.922,0,0,1-1.223-1,2.42,2.42,0,0,1-.441-1.395H44.3a1.5,1.5,0,0,0,.582,1.152,2.258,2.258,0,0,0,1.434.426,2.331,2.331,0,0,0,1.316-.332A1.02,1.02,0,0,0,48.125,21.758Z" transform="translate(1211 4672)" fill="#12263f"/>
    <g id="Grupo_1099653" data-name="Grupo 1099653" transform="translate(1159.3 4396.566)">
      <g id="Grupo_1099652" data-name="Grupo 1099652" clip-path="url(#clip-path-2)">
        <path id="Trazado_873342" data-name="Trazado 873342" d="M24.989,113.371s-4.4,6.758-11.084,18.514c-3.611,6.348-4.243,18.245,7.125,20.3C31.937,154.163,40.912,134.8,40.912,134.8Z" transform="translate(1.159 11.355)" fill="#db5349"/>
        <path id="Trazado_873343" data-name="Trazado 873343" d="M44.553,173.21a9.4,9.4,0,0,1-9.4-9.678l2.209-76.044H51.376l2.575,76a9.4,9.4,0,0,1-9.4,9.723" transform="translate(3.52 8.763)" fill="#28121f"/>
        <path id="Trazado_873344" data-name="Trazado 873344" d="M53.983,99.667H35.125a1.8,1.8,0,0,1-1.8-1.8V86.571a1.8,1.8,0,0,1,1.8-1.8H53.983a1.8,1.8,0,0,1,1.8,1.8V97.864a1.8,1.8,0,0,1-1.8,1.8" transform="translate(3.338 8.49)" fill="#70529e"/>
        <path id="Trazado_873345" data-name="Trazado 873345" d="M96.191,48.1A48.1,48.1,0,1,1,48.1,0a48.1,48.1,0,0,1,48.1,48.1" fill="#fc5649"/>
        <path id="Trazado_873346" data-name="Trazado 873346" d="M86.9,47.32A39.58,39.58,0,1,1,47.319,7.741,39.58,39.58,0,0,1,86.9,47.32" transform="translate(0.775 0.775)" fill="#fffeeb"/>
        <path id="Trazado_873347" data-name="Trazado 873347" d="M128.2,124.372H95.719a8.033,8.033,0,0,1-6.217-2.946l-6.118-7.479a21.336,21.336,0,0,0-15.393-7.795c-8.715-.458-18.776-.9-23.126-.942-12.219-.119-20.6,2.686-21.451,11.378-.647,6.665,2.928,10,6.318,11.116,0,0-8.662.833-9.49,9.534s5.832,12.312,7.682,12.312c0,0-6.193,3.035-5.841,9.689.361,6.812,4.114,10.83,12.938,11.169,0,0-1.79,2.161-.185,6.912,1.376,4.078,5.924,10,25.95,10,6.283,0,36.751-.712,36.751-.712H128.2Z" transform="translate(2.02 10.538)" fill="#ffa194"/>
        <path id="Trazado_873348" data-name="Trazado 873348" d="M55.9,126.47H27.813a.746.746,0,0,1,0-1.492H55.9a.746.746,0,0,1,0,1.492" transform="translate(2.711 12.518)" fill="#db5349"/>
        <path id="Trazado_873349" data-name="Trazado 873349" d="M56.09,146.383H25.884a.746.746,0,1,1,0-1.492H56.09a.746.746,0,1,1,0,1.492" transform="translate(2.518 14.512)" fill="#db5349"/>
        <path id="Trazado_873350" data-name="Trazado 873350" d="M54.675,165.343H33.765a.746.746,0,0,1,0-1.492h20.91a.746.746,0,0,1,0,1.492" transform="translate(3.307 16.411)" fill="#db5349"/>
        <rect id="Rectángulo_400987" data-name="Rectángulo 400987" width="56.145" height="62.234" transform="translate(99.557 134.911)" fill="#28121f"/>
        <path id="Trazado_873351" data-name="Trazado 873351" d="M116.193,166.242a9.181,9.181,0,1,1-9.181-9.181,9.181,9.181,0,0,1,9.181,9.181" transform="translate(9.799 15.731)" fill="#fffeeb"/>
        <path id="Trazado_873352" data-name="Trazado 873352" d="M97,108.7a.745.745,0,0,1-.528-.219L84.159,96.171a.746.746,0,0,1,1.055-1.055l12.313,12.312A.746.746,0,0,1,97,108.7" transform="translate(8.408 9.505)" fill="#3180b5"/>
        <path id="Trazado_873353" data-name="Trazado 873353" d="M84.686,108.7a.746.746,0,0,1-.527-1.274L96.471,95.116a.746.746,0,0,1,1.055,1.055L85.214,108.483a.743.743,0,0,1-.528.219" transform="translate(8.408 9.505)" fill="#3180b5"/>
        <path id="Trazado_873354" data-name="Trazado 873354" d="M71.394,44.476A2.8,2.8,0,0,0,68.577,41.7l-2.056.015a2.8,2.8,0,0,1-2.665-1.89A19.53,19.53,0,0,0,63,37.744a2.8,2.8,0,0,1,.525-3.183l1.427-1.447a2.8,2.8,0,0,0-.028-3.956L62.046,26.32a2.8,2.8,0,0,0-3.957.028L56.7,27.755a2.8,2.8,0,0,1-3.19.562,19.848,19.848,0,0,0-2.127-.854,2.8,2.8,0,0,1-1.911-2.634l-.014-1.988a2.8,2.8,0,0,0-2.818-2.779l-4.042.028a2.8,2.8,0,0,0-2.779,2.818l.015,2.118a2.8,2.8,0,0,1-1.824,2.641,19.856,19.856,0,0,0-2,.876,2.806,2.806,0,0,1-3.241-.5l-1.535-1.513a2.8,2.8,0,0,0-3.957.026l-2.837,2.878a2.8,2.8,0,0,0,.026,3.957l1.706,1.683a2.782,2.782,0,0,1,.6,3.117,19.774,19.774,0,0,0-.757,1.945,2.738,2.738,0,0,1-2.589,1.87l-2.462.016a2.8,2.8,0,0,0-2.778,2.818l.028,4.042a2.8,2.8,0,0,0,2.818,2.779l2.663-.019a2.739,2.739,0,0,1,2.588,1.765q.337.9.759,1.761a2.8,2.8,0,0,1-.525,3.188l-1.86,1.887a2.8,2.8,0,0,0,.028,3.957l2.878,2.838a2.8,2.8,0,0,0,3.957-.028l1.9-1.923a2.794,2.794,0,0,1,3.166-.575q.819.381,1.674.689a2.837,2.837,0,0,1,1.876,2.655l.019,2.66A2.8,2.8,0,0,0,42.967,73.3l4.042-.029a2.8,2.8,0,0,0,2.778-2.818l-.017-2.533a2.836,2.836,0,0,1,1.886-2.7c.618-.219,1.223-.468,1.811-.744a2.727,2.727,0,0,1,3.069.539l1.834,1.809a2.8,2.8,0,0,0,3.957-.028l2.838-2.878a2.8,2.8,0,0,0-.029-3.957L63.5,58.354a2.788,2.788,0,0,1-.556-3.2,19.789,19.789,0,0,0,.842-1.986,2.777,2.777,0,0,1,2.6-1.814l2.258-.015a2.8,2.8,0,0,0,2.778-2.818ZM45.9,56.727a10.106,10.106,0,1,1,8.959-9.085A10.108,10.108,0,0,1,45.9,56.727" transform="translate(1.821 2.01)" fill="#59c4c8"/>
      </g>
    </g>
    <g id="Grupo_1099654" data-name="Grupo 1099654" transform="translate(285 4410.049)">
      <g id="Grupo_1099650" data-name="Grupo 1099650" transform="translate(0 0)" clip-path="url(#clip-path-3)">
        <path id="Trazado_873334" data-name="Trazado 873334" d="M65.4,11.472c-4.2,12.178-7.3,28.609-10.479,36.483-3.96,9.813-11.767,27.276-25.6,22.72C16.423,66.427,20,38.653,30.738,3.334Z" transform="translate(96.8 1.065)" fill="#db5349"/>
        <path id="Trazado_873335" data-name="Trazado 873335" d="M53.345,19.218c-3.781,12.315-6.316,28.842-9.223,36.821C40.5,65.983,33.3,83.7,19.32,79.624c-13.037-3.8-10.412-31.685-.892-67.35Z" transform="translate(122.927 3.923)" fill="#ffa194"/>
        <path id="Trazado_873336" data-name="Trazado 873336" d="M0,2.382S43.747-.028,64.478,0C87.687.032,115-.4,129.828,19.893c13.455,18.408,21.055,39.7,8.215,47.249-13.843,8.141-22.563-3.129-37.3-23.252-4.373-5.97-15.476-5.337-23.375-2.444A24.5,24.5,0,0,0,61.755,59.608a13.215,13.215,0,0,0-.207,1.32c-.637,7.162,2.393,9.765,13.971,18.688C91.43,91.876,91.728,102.9,83.971,109.922c-4.665,4.224-12.89,3.659-28.951-4.332C48,102.1,41.2,98.553,38.043,96.9a7.747,7.747,0,0,0-3.839-.882C16.822,96.534,0,92.212,0,92.212Z" transform="translate(45.356 -0.001)" fill="#ffa194"/>
        <path id="Trazado_873337" data-name="Trazado 873337" d="M65.661,57.7a.9.9,0,0,0,.538-1.611c-5.5-4.121-11.013-11.4-18.8-22.038-2.159-2.947-5.975-4.644-11.04-4.91A35.123,35.123,0,0,0,22.993,31.3a25.518,25.518,0,0,0-4.356,2.081.9.9,0,0,0,.922,1.535,23.617,23.617,0,0,1,4.05-1.936C31.752,30,42.043,29.773,45.953,35.112c7.885,10.767,13.478,18.143,19.172,22.413a.882.882,0,0,0,.536.179" transform="translate(99.423 9.304)" fill="#db5349"/>
        <rect id="Rectángulo_400985" data-name="Rectángulo 400985" width="45.357" height="89.83" transform="translate(0 2.381)" fill="#28121f"/>
        <path id="Trazado_873338" data-name="Trazado 873338" d="M116.944,54.652a11.013,11.013,0,1,0,11.013-11.013,11.012,11.012,0,0,0-11.013,11.013" transform="translate(-103.296 13.949)" fill="#fffeeb"/>
        <path id="Trazado_873339" data-name="Trazado 873339" d="M16.843,59.788a2.321,2.321,0,0,1,2.337-2.305l1.7.012a2.324,2.324,0,0,0,2.21-1.566,16.608,16.608,0,0,1,.711-1.725,2.326,2.326,0,0,0-.435-2.641l-1.184-1.2a2.321,2.321,0,0,1,.022-3.282L24.6,44.727a2.321,2.321,0,0,1,3.283.022l1.152,1.168a2.324,2.324,0,0,0,2.647.467,16.4,16.4,0,0,1,1.764-.709,2.323,2.323,0,0,0,1.585-2.185l.012-1.65a2.321,2.321,0,0,1,2.337-2.3l3.353.022A2.323,2.323,0,0,1,43.037,41.9l-.013,1.756a2.324,2.324,0,0,0,1.514,2.192,16.412,16.412,0,0,1,1.657.727,2.327,2.327,0,0,0,2.688-.413L50.155,44.9a2.323,2.323,0,0,1,3.283.022l2.354,2.387A2.323,2.323,0,0,1,55.77,50.6l-1.416,1.4a2.306,2.306,0,0,0-.494,2.585,16.207,16.207,0,0,1,.627,1.614,2.274,2.274,0,0,0,2.147,1.551l2.043.015a2.321,2.321,0,0,1,2.305,2.337l-.024,3.353a2.321,2.321,0,0,1-2.337,2.305l-2.209-.016A2.27,2.27,0,0,0,54.267,67.2c-.187.5-.4.986-.629,1.461a2.315,2.315,0,0,0,.434,2.645l1.543,1.565a2.319,2.319,0,0,1-.022,3.282L53.2,78.509a2.319,2.319,0,0,1-3.282-.022l-1.574-1.6a2.317,2.317,0,0,0-2.626-.476q-.679.315-1.39.571a2.353,2.353,0,0,0-1.556,2.2l-.015,2.206A2.322,2.322,0,0,1,40.424,83.7l-3.352-.024a2.32,2.32,0,0,1-2.305-2.337l.015-2.1A2.355,2.355,0,0,0,33.217,77c-.513-.181-1.015-.388-1.5-.616a2.261,2.261,0,0,0-2.546.447l-1.522,1.5a2.322,2.322,0,0,1-3.283-.024l-2.354-2.387a2.32,2.32,0,0,1,.024-3.282L23.39,71.3a2.312,2.312,0,0,0,.462-2.658,16.344,16.344,0,0,1-.7-1.647A2.3,2.3,0,0,0,21,65.491l-1.873-.013a2.321,2.321,0,0,1-2.305-2.336ZM37.988,69.951a8.383,8.383,0,1,0-7.432-7.537,8.385,8.385,0,0,0,7.432,7.537" transform="translate(106.822 12.638)" fill="#0dba98"/>
      </g>
      <path id="Trazado_873340" data-name="Trazado 873340" d="M39.259,18.013a2.064,2.064,0,0,0-2.077-2.05l-1.518.011A2.07,2.07,0,0,1,33.7,14.581a14.866,14.866,0,0,0-.632-1.535,2.063,2.063,0,0,1,.387-2.347L34.5,9.631a2.066,2.066,0,0,0-.019-2.919L32.362,4.618a2.066,2.066,0,0,0-2.919.019L28.418,5.678a2.071,2.071,0,0,1-2.355.414,14.245,14.245,0,0,0-1.567-.63,2.065,2.065,0,0,1-1.412-1.944l-.011-1.467A2.066,2.066,0,0,0,21,0L18.013.022a2.064,2.064,0,0,0-2.05,2.08l.011,1.562a2.063,2.063,0,0,1-1.347,1.949,14.812,14.812,0,0,0-1.475.646,2.07,2.07,0,0,1-2.391-.365L9.631,4.776A2.063,2.063,0,0,0,6.711,4.8L4.618,6.918a2.066,2.066,0,0,0,.019,2.922L5.9,11.081a2.052,2.052,0,0,1,.439,2.3,15.216,15.216,0,0,0-.559,1.437,2.017,2.017,0,0,1-1.908,1.379l-1.818.014A2.066,2.066,0,0,0,0,18.285l.022,2.982a2.064,2.064,0,0,0,2.08,2.05L4.064,23.3a2.023,2.023,0,0,1,1.911,1.3q.249.666.559,1.3a2.06,2.06,0,0,1-.387,2.352L4.776,29.65a2.063,2.063,0,0,0,.019,2.919l2.123,2.094a2.063,2.063,0,0,0,2.919-.019l1.4-1.417a2.062,2.062,0,0,1,2.339-.425q.6.282,1.235.507a2.093,2.093,0,0,1,1.382,1.96l.014,1.963a2.066,2.066,0,0,0,2.08,2.05l2.982-.022a2.064,2.064,0,0,0,2.05-2.077l-.014-1.87a2.094,2.094,0,0,1,1.393-1.99,14.3,14.3,0,0,0,1.336-.548,2.013,2.013,0,0,1,2.265.4L29.65,34.5a2.063,2.063,0,0,0,2.919-.019l2.094-2.123a2.066,2.066,0,0,0-.019-2.919l-1.208-1.191a2.05,2.05,0,0,1-.412-2.361,14.78,14.78,0,0,0,.622-1.467,2.046,2.046,0,0,1,1.916-1.338l1.666-.011A2.064,2.064,0,0,0,39.278,21ZM20.453,27.052a7.456,7.456,0,1,1,6.61-6.7,7.457,7.457,0,0,1-6.61,6.7" transform="translate(190 73.08)" fill="#ffb14c"/>
      <path id="Trazado_873341" data-name="Trazado 873341" d="M103.512,62.178a4.33,4.33,0,0,0-4.359-4.3l-3.181.023a4.337,4.337,0,0,1-4.122-2.923,30.97,30.97,0,0,0-1.325-3.216,4.332,4.332,0,0,1,.812-4.924L93.545,44.6a4.327,4.327,0,0,0-.044-6.121L89.05,34.085a4.33,4.33,0,0,0-6.123.044l-2.151,2.178a4.332,4.332,0,0,1-4.937.871,30.222,30.222,0,0,0-3.29-1.323,4.329,4.329,0,0,1-2.957-4.074L69.57,28.7a4.33,4.33,0,0,0-4.359-4.3l-6.253.044a4.331,4.331,0,0,0-4.3,4.361l.023,3.275a4.33,4.33,0,0,1-2.821,4.087,30.675,30.675,0,0,0-3.093,1.356,4.34,4.34,0,0,1-5.014-.768L41.38,34.417a4.33,4.33,0,0,0-6.123.042l-4.392,4.453a4.332,4.332,0,0,0,.042,6.123l2.641,2.6a4.3,4.3,0,0,1,.923,4.821,30.046,30.046,0,0,0-1.17,3.009,4.243,4.243,0,0,1-4.007,2.894l-3.809.027a4.33,4.33,0,0,0-4.3,4.359L21.228,69a4.33,4.33,0,0,0,4.359,4.3l4.12-.029A4.24,4.24,0,0,1,33.713,76q.521,1.4,1.174,2.727a4.323,4.323,0,0,1-.812,4.932L31.2,86.582a4.328,4.328,0,0,0,.042,6.123l4.453,4.39a4.329,4.329,0,0,0,6.121-.042l2.936-2.976a4.32,4.32,0,0,1,4.9-.889q1.268.59,2.593,1.065a4.39,4.39,0,0,1,2.9,4.106l.029,4.116a4.33,4.33,0,0,0,4.359,4.3l6.255-.044a4.33,4.33,0,0,0,4.3-4.359l-.027-3.919a4.388,4.388,0,0,1,2.917-4.171q1.438-.509,2.8-1.151a4.222,4.222,0,0,1,4.748.833l2.838,2.8a4.327,4.327,0,0,0,6.121-.044l4.392-4.453a4.329,4.329,0,0,0-.042-6.121L91.3,83.65a4.31,4.31,0,0,1-.86-4.957,30.655,30.655,0,0,0,1.3-3.072,4.3,4.3,0,0,1,4.022-2.806l3.49-.025a4.329,4.329,0,0,0,4.3-4.359ZM64.074,81.133A15.636,15.636,0,1,1,77.936,67.077,15.639,15.639,0,0,1,64.074,81.133" transform="translate(106.444 80.752)" fill="#fe9b4f"/>
    </g>
  </g>
</svg>
