<svg xmlns="http://www.w3.org/2000/svg" width="53" height="53" viewBox="0 0 53 53">
  <g id="imgicono" transform="translate(-285.419 -3424)">
    <circle id="Elipse_6026" data-name="Elipse 6026" cx="26.5" cy="26.5" r="26.5" transform="translate(285.419 3424)" fill="#deecfb"/>
    <g id="mercadeo-en-linea" transform="translate(-31.315 3234.812)">
      <g id="Icon" transform="translate(324 196.01)">
        <path id="Trazado_615534" data-name="Trazado 615534" d="M363.364,245.406A1.405,1.405,0,0,0,361.958,244H325.406A1.405,1.405,0,0,0,324,245.406v1.406a2.812,2.812,0,0,0,2.812,2.812h33.74a2.813,2.813,0,0,0,2.812-2.812Z" transform="translate(-324 -210.267)" fill="#6d7a8a" fill-rule="evenodd"/>
        <path id="Trazado_615535" data-name="Trazado 615535" d="M355.247,244H344v1.406a1.405,1.405,0,0,0,1.406,1.406h8.435a1.405,1.405,0,0,0,1.406-1.406Z" transform="translate(-329.941 -210.267)" fill="#f0f0f0" fill-rule="evenodd"/>
        <path id="Trazado_615536" data-name="Trazado 615536" d="M361.74,214.812A2.812,2.812,0,0,0,358.929,212H330.812A2.812,2.812,0,0,0,328,214.812v19.682h33.74Z" transform="translate(-325.188 -200.76)" fill="#4d5a6a" fill-rule="evenodd"/>
        <path id="Trazado_615537" data-name="Trazado 615537" d="M360.117,217.406A1.406,1.406,0,0,0,358.711,216H333.406A1.406,1.406,0,0,0,332,217.406v14.059a1.406,1.406,0,0,0,1.406,1.406h25.305a1.406,1.406,0,0,0,1.406-1.406Z" transform="translate(-326.377 -201.949)" fill="#f0f0f0" fill-rule="evenodd"/>
        <g id="Grupo_1074404" data-name="Grupo 1074404" transform="translate(22.494 16.863)">
          <path id="Trazado_615538" data-name="Trazado 615538" d="M362.812,93.406a1.406,1.406,0,1,0-2.812,0v8.435a1.406,1.406,0,0,0,2.812,0Z" transform="translate(-360 -92)" fill="#ff6c5c" fill-rule="evenodd"/>
        </g>
        <g id="Grupo_1074405" data-name="Grupo 1074405" transform="translate(14.058 18.269)">
          <path id="Trazado_615539" data-name="Trazado 615539" d="M352.435,94a2.543,2.543,0,0,1-2.275,1.406h-4.755A1.406,1.406,0,0,0,344,96.812v2.812a1.406,1.406,0,0,0,1.406,1.406h4.755a2.543,2.543,0,0,1,2.275,1.406Z" transform="translate(-344 -94)" fill="#ffce4b" fill-rule="evenodd"/>
        </g>
        <g id="Grupo_1074406" data-name="Grupo 1074406" transform="translate(14.058 19.675)">
          <path id="Trazado_615540" data-name="Trazado 615540" d="M346.812,96h-1.406A1.405,1.405,0,0,0,344,97.406v2.812a1.405,1.405,0,0,0,1.406,1.406h1.406Z" transform="translate(-344 -96)" fill="#ff6c5c" fill-rule="evenodd"/>
        </g>
        <path id="Trazado_615541" data-name="Trazado 615541" d="M349.109,234.109a.7.7,0,0,1-.7-.7V232H347v1.406a2.109,2.109,0,0,0,4.218,0V232h-1.406v1.406A.7.7,0,0,1,349.109,234.109Z" transform="translate(-330.833 -206.702)" fill="#ff7b6c" fill-rule="evenodd"/>
        <g id="Grupo_1074407" data-name="Grupo 1074407" transform="translate(28.117 16.863)">
          <circle id="Elipse_6023" data-name="Elipse 6023" cx="5.623" cy="5.623" r="5.623" fill="#ff6c5c"/>
        </g>
        <g id="Grupo_1074408" data-name="Grupo 1074408" transform="translate(32.335 20.407)">
          <path id="Trazado_615542" data-name="Trazado 615542" d="M373.165,115.823a.842.842,0,0,0,0-1.4l-1.853-1.236a.843.843,0,0,0-1.312.7v2.471a.843.843,0,0,0,1.312.7Z" transform="translate(-370 -113.042)" fill="#f0f0f0" fill-rule="evenodd"/>
        </g>
        <g id="Grupo_1074409" data-name="Grupo 1074409" transform="translate(0 16.863)">
          <path id="Trazado_615543" data-name="Trazado 615543" d="M335.247,98.812A2.812,2.812,0,0,0,332.435,96h-5.623A2.812,2.812,0,0,0,324,98.812v5.623a2.812,2.812,0,0,0,2.812,2.812h5.623a2.812,2.812,0,0,0,2.812-2.812Z" transform="translate(-324 -96)" fill="#23a7f1" fill-rule="evenodd"/>
        </g>
        <g id="Grupo_1074410" data-name="Grupo 1074410" transform="translate(2.812 19.675)">
          <circle id="Elipse_6024" data-name="Elipse 6024" cx="1.406" cy="1.406" r="1.406" fill="#ffce4b"/>
        </g>
        <g id="Grupo_1074411" data-name="Grupo 1074411" transform="translate(2.812 23.069)">
          <path id="Trazado_615544" data-name="Trazado 615544" d="M336.435,107.058l-1.818-1.818a1.405,1.405,0,0,0-1.988,0L328,109.869h5.623A2.812,2.812,0,0,0,336.435,107.058Z" transform="translate(-328 -104.828)" fill="#3ddc80" fill-rule="evenodd"/>
        </g>
        <g id="Grupo_1074412" data-name="Grupo 1074412" transform="translate(22.494 2.805)">
          <path id="Trazado_615545" data-name="Trazado 615545" d="M338.059,77.406A1.406,1.406,0,0,0,336.653,76H325.406A1.406,1.406,0,0,0,324,77.406v8.435a1.406,1.406,0,0,0,1.406,1.406h11.247a1.406,1.406,0,0,0,1.406-1.406Z" transform="translate(-324 -76)" fill="#f9b32f" fill-rule="evenodd"/>
        </g>
        <g id="Grupo_1074413" data-name="Grupo 1074413" transform="translate(22.493 7.022)">
          <path id="Trazado_615546" data-name="Trazado 615546" d="M325.406-78.971a1.405,1.405,0,0,1-1.333-.962,1.4,1.4,0,0,1,.49-1.569l5.623-4.218a1.407,1.407,0,0,1,1.687,0L337.5-81.5a1.4,1.4,0,0,1,.49,1.569,1.405,1.405,0,0,1-1.333.962Z" transform="translate(-324 86)" fill="#f9bf3a" fill-rule="evenodd"/>
        </g>
        <g id="Grupo_1074414" data-name="Grupo 1074414" transform="translate(22.493 2.805)">
          <path id="Trazado_615547" data-name="Trazado 615547" d="M325.406,76a1.406,1.406,0,0,0-.843,2.531l5.623,4.218a1.407,1.407,0,0,0,1.687,0l5.623-4.218A1.406,1.406,0,0,0,336.653,76Z" transform="translate(-324 -76)" fill="#ffce4b" fill-rule="evenodd"/>
        </g>
        <g id="Grupo_1074419" data-name="Grupo 1074419" transform="translate(2.812 0)">
          <g id="Grupo_1074415" data-name="Grupo 1074415">
            <path id="Trazado_615548" data-name="Trazado 615548" d="M361.623,84.435l1.69,2.239a1.406,1.406,0,0,0,2.244,0l1.69-2.239h4.218a1.406,1.406,0,0,0,1.406-1.406V77.406A1.406,1.406,0,0,0,371.464,76H357.406A1.406,1.406,0,0,0,356,77.406v5.623a1.406,1.406,0,0,0,1.406,1.406Z" transform="translate(-356 -76)" fill="#2dcc70" fill-rule="evenodd"/>
          </g>
          <g id="Grupo_1074416" data-name="Grupo 1074416" transform="translate(2.109 2.109)">
            <path id="Trazado_615549" data-name="Trazado 615549" d="M359.7,80.406h2.812a.7.7,0,0,0,0-1.406H359.7a.7.7,0,1,0,0,1.406Z" transform="translate(-359 -79)" fill="#f0f0f0" fill-rule="evenodd"/>
          </g>
          <g id="Grupo_1074417" data-name="Grupo 1074417" transform="translate(7.732 2.109)">
            <path id="Trazado_615550" data-name="Trazado 615550" d="M367.7,80.406h5.623a.7.7,0,0,0,0-1.406H367.7a.7.7,0,1,0,0,1.406Z" transform="translate(-367 -79)" fill="#f0f0f0" fill-rule="evenodd"/>
          </g>
          <g id="Grupo_1074418" data-name="Grupo 1074418" transform="translate(2.109 4.913)">
            <path id="Trazado_615551" data-name="Trazado 615551" d="M359.7,84.4H370.95a.7.7,0,0,0,0-1.406H359.7a.7.7,0,1,0,0,1.406Z" transform="translate(-359 -82.99)" fill="#f0f0f0" fill-rule="evenodd"/>
          </g>
        </g>
      </g>
    </g>
  </g>
</svg>
