<svg xmlns="http://www.w3.org/2000/svg" xmlns:xlink="http://www.w3.org/1999/xlink" width="139" height="139" viewBox="0 0 139 139">
  <defs>
    <clipPath id="clip-path">
      <rect id="Rectángulo_379058" data-name="Rectángulo 379058" width="77.094" height="63.255" fill="none"/>
    </clipPath>
  </defs>
  <g id="img13" transform="translate(-1046 -3656.416)">
    <g id="Grupo_1074463" data-name="Grupo 1074463" transform="translate(1046 3656.416)">
      <rect id="Rectángulo_378651" data-name="Rectángulo 378651" width="139" height="30" rx="15" transform="translate(0 109)" fill="#315884"/>
      <g id="Grupo_1074381" data-name="Grupo 1074381" transform="translate(3.475 0)">
        <g id="Grupo_1073526" data-name="Grupo 1073526" transform="translate(0 0)">
          <g id="Grupo_1072785" data-name="Grupo 1072785" transform="translate(0 0)">
            <path id="Trazado_608385" data-name="Trazado 608385" d="M65.462,0A65.462,65.462,0,1,1,0,65.462,65.462,65.462,0,0,1,65.462,0Z" transform="translate(0 0)" fill="none"/>
          </g>
          <g id="Grupo_1073383" data-name="Grupo 1073383" transform="translate(0 0)">
            <g id="Trazado_608385-2" data-name="Trazado 608385" transform="translate(0 0)" fill="#fff">
              <path d="M 65.46222686767578 129.9244689941406 C 56.75944519042969 129.9244689941406 48.3175163269043 128.2202301025391 40.37093734741211 124.8591156005859 C 36.55149841308594 123.2436294555664 32.86757278442383 121.2440414428711 29.42148208618164 118.9159164428711 C 26.00788116455078 116.609733581543 22.7978458404541 113.9612121582031 19.88055419921875 111.0439147949219 C 16.9632625579834 108.1266098022461 14.31473636627197 104.9165878295898 12.00855445861816 101.5029754638672 C 9.680426597595215 98.05690002441406 7.680845260620117 94.37297058105469 6.065354347229004 90.55353546142578 C 2.704245090484619 82.60695648193359 1.000008702278137 74.16500854492188 1.000008702278137 65.46222686767578 C 1.000008702278137 56.75944519042969 2.704245090484619 48.3175163269043 6.065354347229004 40.37093734741211 C 7.680845260620117 36.55149841308594 9.680426597595215 32.86757278442383 12.00855445861816 29.42148208618164 C 14.31473636627197 26.00788116455078 16.9632625579834 22.7978458404541 19.88055419921875 19.88055419921875 C 22.7978458404541 16.9632625579834 26.00788116455078 14.31473636627197 29.42148208618164 12.00855445861816 C 32.86757278442383 9.680426597595215 36.55149841308594 7.680845260620117 40.37093734741211 6.065354347229004 C 48.3175163269043 2.704245090484619 56.75944519042969 1.000008702278137 65.46222686767578 1.000008702278137 C 74.16500854492188 1.000008702278137 82.60695648193359 2.704245090484619 90.55353546142578 6.065354347229004 C 94.37297058105469 7.680845260620117 98.05690002441406 9.680426597595215 101.5029754638672 12.00855445861816 C 104.9165878295898 14.31473636627197 108.1266098022461 16.9632625579834 111.0439147949219 19.88055419921875 C 113.9612121582031 22.7978458404541 116.609733581543 26.00788116455078 118.9159164428711 29.42148208618164 C 121.2440414428711 32.86757278442383 123.2436294555664 36.55149841308594 124.8591156005859 40.37093734741211 C 128.2202301025391 48.3175163269043 129.9244689941406 56.75944519042969 129.9244689941406 65.46222686767578 C 129.9244689941406 74.16500854492188 128.2202301025391 82.60695648193359 124.8591156005859 90.55353546142578 C 123.2436294555664 94.37297058105469 121.2440414428711 98.05690002441406 118.9159164428711 101.5029754638672 C 116.609733581543 104.9165878295898 113.9612121582031 108.1266098022461 111.0439147949219 111.0439147949219 C 108.1266098022461 113.9612121582031 104.9165878295898 116.609733581543 101.5029754638672 118.9159164428711 C 98.05690002441406 121.2440414428711 94.37297058105469 123.2436294555664 90.55353546142578 124.8591156005859 C 82.60695648193359 128.2202301025391 74.16500854492188 129.9244689941406 65.46222686767578 129.9244689941406 Z" stroke="none"/>
              <path d="M 65.46222686767578 1.999984741210938 C 56.89401245117188 1.999984741210938 48.58313751220703 3.677642822265625 40.76048278808594 6.986351013183594 C 37.00051879882812 8.576683044433594 33.37386322021484 10.54517364501953 29.98128509521484 12.83715057373047 C 26.62042999267578 15.10771942138672 23.45995330810547 17.71535491943359 20.587646484375 20.587646484375 C 17.71535491943359 23.45995330810547 15.10771942138672 26.62042999267578 12.83715057373047 29.98128509521484 C 10.54517364501953 33.37386322021484 8.576683044433594 37.00051879882812 6.986351013183594 40.76048278808594 C 3.677642822265625 48.58313751220703 1.999984741210938 56.89401245117188 1.999984741210938 65.46222686767578 C 1.999984741210938 74.03046417236328 3.677642822265625 82.34131622314453 6.986351013183594 90.16397094726562 C 8.576683044433594 93.9239501953125 10.54517364501953 97.55059051513672 12.83715057373047 100.9431762695312 C 15.10771942138672 104.3040313720703 17.71535491943359 107.4645004272461 20.587646484375 110.3367919921875 C 23.45995330810547 113.2090835571289 26.62042999267578 115.8167343139648 29.98128509521484 118.0872802734375 C 33.37386322021484 120.379264831543 37.00051879882812 122.3477554321289 40.76048278808594 123.938102722168 C 48.58313751220703 127.2467880249023 56.89401245117188 128.9244384765625 65.46222686767578 128.9244384765625 C 74.03046417236328 128.9244384765625 82.34133911132812 127.2467880249023 90.16397094726562 123.938102722168 C 93.9239501953125 122.3477554321289 97.55059051513672 120.379264831543 100.9431762695312 118.0872802734375 C 104.3040313720703 115.8167343139648 107.4645004272461 113.2090835571289 110.3367919921875 110.3367919921875 C 113.2090835571289 107.4645004272461 115.8167343139648 104.3040313720703 118.0872802734375 100.9431762695312 C 120.379264831543 97.55059051513672 122.3477554321289 93.9239501953125 123.938102722168 90.16397094726562 C 127.2467880249023 82.34133911132812 128.9244384765625 74.03046417236328 128.9244384765625 65.46222686767578 C 128.9244384765625 56.89401245117188 127.2467880249023 48.58313751220703 123.938102722168 40.76048278808594 C 122.3477554321289 37.00051879882812 120.379264831543 33.37386322021484 118.0872802734375 29.98128509521484 C 115.8167343139648 26.62042999267578 113.2090835571289 23.45995330810547 110.3367919921875 20.587646484375 C 107.4645004272461 17.71535491943359 104.3040313720703 15.10771942138672 100.9431762695312 12.83715057373047 C 97.55059051513672 10.54517364501953 93.9239501953125 8.576683044433594 90.16397094726562 6.986351013183594 C 82.34131622314453 3.677642822265625 74.03046417236328 1.999984741210938 65.46222686767578 1.999984741210938 M 65.46222686767578 -1.52587890625e-05 C 101.6160278320312 -1.52587890625e-05 130.9244384765625 29.30844879150391 130.9244384765625 65.46222686767578 C 130.9244384765625 101.6160278320312 101.6160278320312 130.9244384765625 65.46222686767578 130.9244384765625 C 29.30844879150391 130.9244384765625 -1.52587890625e-05 101.6160278320312 -1.52587890625e-05 65.46222686767578 C -1.52587890625e-05 29.30844879150391 29.30844879150391 -1.52587890625e-05 65.46222686767578 -1.52587890625e-05 Z" stroke="none" fill="#85b6ec"/>
            </g>
          </g>
        </g>
      </g>
      <path id="Trazado_615556" data-name="Trazado 615556" d="M752.741,143.019l5.036-5.036a1.424,1.424,0,1,0-2.013-2.013l-5.036,5.036-5.036-5.036a1.424,1.424,0,1,0-2.013,2.013l5.036,5.036-5.036,5.036a1.424,1.424,0,1,0,2.013,2.013l5.036-5.036,5.036,5.036a1.424,1.424,0,0,0,2.013-2.013Z" transform="translate(-629.091 -124.169)" fill="#ff7c48"/>
      <path id="Trazado_615557" data-name="Trazado 615557" d="M0,15.861,10.1,0,20.2,15.861Z" transform="translate(17.903 87.028) rotate(90)" fill="#ffb850"/>
      <path id="Trazado_615559" data-name="Trazado 615559" d="M159.276,312.164a4.15,4.15,0,1,1-4.15-4.15,4.15,4.15,0,0,1,4.15,4.15" transform="translate(-50.197 -191.155)" fill="#ffb850"/>
      <path id="Trazado_615560" data-name="Trazado 615560" d="M77.022,312.164a4.15,4.15,0,1,1-4.15-4.15,4.15,4.15,0,0,1,4.15,4.15" transform="translate(14.781 -191.155)" fill="#3656b3"/>
      <path id="Trazado_615561" data-name="Trazado 615561" d="M241.53,312.164a4.15,4.15,0,1,1-4.15-4.15,4.15,4.15,0,0,1,4.15,4.15" transform="translate(-115.173 -191.155)" fill="#29c7cc"/>
    </g>
    <g id="Grupo_1075292" data-name="Grupo 1075292" transform="translate(1076.953 3693.452)">
      <g id="Grupo_1075291" data-name="Grupo 1075291" clip-path="url(#clip-path)">
        <path id="Trazado_616548" data-name="Trazado 616548" d="M78.076,460.285a3.193,3.193,0,1,1-3.178-3.5,3.352,3.352,0,0,1,3.178,3.5" transform="translate(-63.456 -404.158)" fill="#fdfcea"/>
        <path id="Trazado_616549" data-name="Trazado 616549" d="M508.367,457.588a3.252,3.252,0,1,1-3.232-3.61,3.436,3.436,0,0,1,3.232,3.61" transform="translate(-444.079 -401.676)" fill="#fdfcea"/>
        <path id="Trazado_616550" data-name="Trazado 616550" d="M495.357,233.277v13.252l11.1-.754.108-1.509-3.017-9.8Z" transform="translate(-438.288 -206.401)" fill="#3b3b3d"/>
        <rect id="Rectángulo_379006" data-name="Rectángulo 379006" width="5.847" height="3.467" transform="translate(69.546 47.958)" fill="#f39225"/>
        <path id="Trazado_616551" data-name="Trazado 616551" d="M471.011,423.85a7.212,7.212,0,1,0,7.212,7.212,7.212,7.212,0,0,0-7.212-7.212m1.455,8.8a2.153,2.153,0,0,1-3.608-1.584,2.153,2.153,0,1,1,3.608,1.584" transform="translate(-410.365 -375.019)"/>
        <path id="Trazado_616552" data-name="Trazado 616552" d="M45.925,423.851h-.034a7.211,7.211,0,1,0,.034,0m1.438,8.8a2.153,2.153,0,0,1-3.608-1.584,2.184,2.184,0,0,1,.037-.391,2.152,2.152,0,0,1,4.232,0,2.173,2.173,0,0,1,.037.391,2.147,2.147,0,0,1-.7,1.584" transform="translate(-34.238 -375.02)"/>
        <path id="Trazado_616553" data-name="Trazado 616553" d="M98.613,196.814c-.03-3.292.061-6.554-.06-9.846-1.05-.48-2.111-.962-3.169-1.456-.738-.344-1.474-.691-2.206-1.051a2.372,2.372,0,0,1-.276-.129c-1.5-.8-1.449-2.822-2.019-4.249-.592-2.421-1.567-4.775-2.159-7.193a14.72,14.72,0,0,1-.468-4.706c-4.3-.061-9.154-.031-13.428,0h.532s-.574,0-.574.008l-.022,5.279.021.019c-.014,7.026-.072,14.059,0,21.085h-.8V166.436a1.714,1.714,0,0,0-1.716-1.715H27.949a1.717,1.717,0,0,0-1.715,1.715v28.139h-.206v5.984H27.14c0-.025.007-.051.011-.076a7.636,7.636,0,0,1,4.958-5.908h-.018a7.29,7.29,0,0,1,5.481.129h.039a7.63,7.63,0,0,1,4.637,5.782c0,.025.007.051.011.076h33.19c1.058-3.352,3.685-6.584,7.46-6.8,4.167-.6,8.033,2.6,8.938,6.584,2.749.03,5.5.03,8.245.03,0-1.148.031-2.326.031-3.473l-1.51-.09M81.037,183.888c-.03-3.2-.091-6.4.031-9.6,2.144,0,4.318-.031,6.463.06.845,3.171,1.872,6.312,2.718,9.513-3.081.061-6.131.03-9.211.03m17.23,13.166c-1.866.065-3.764.065-5.63.032-.033-1.126-.033-2.22,0-3.346q2.8-.049,5.6,0c.064,1.126.064,2.22.033,3.313" transform="translate(-23.029 -145.744)" fill="#ffb074"/>
        <rect id="Rectángulo_379007" data-name="Rectángulo 379007" width="41.175" height="27.517" transform="translate(7.057 20.102)" fill="#b5b5b6"/>
        <rect id="Rectángulo_379008" data-name="Rectángulo 379008" width="18.743" height="20.737" transform="translate(8.154 27.48)" fill="#f9f9f9"/>
        <rect id="Rectángulo_379009" data-name="Rectángulo 379009" width="18.743" height="20.737" transform="translate(28.235 27.48)" fill="#f9f9f9"/>
        <path id="Trazado_616554" data-name="Trazado 616554" d="M28.557,174.871A3.7,3.7,0,0,0,32.162,172a3.7,3.7,0,0,0,3.6,2.869h.356a3.766,3.766,0,0,0,3.758-3.419,3.706,3.706,0,0,0,3.584,2.766h.355a3.7,3.7,0,0,0,3.638-3.009,3.7,3.7,0,0,0,3.638,3.009h.356a3.7,3.7,0,0,0,3.607-2.862,3.7,3.7,0,0,0,3.669,3.2h.356a3.7,3.7,0,0,0,3.638-3.009,3.7,3.7,0,0,0,3.638,3.009h.356a3.7,3.7,0,0,0,3.7-3.493,3.705,3.705,0,0,0,3.578,2.746h.356a3.694,3.694,0,0,0,1.218-.206v-7.169a1.714,1.714,0,0,0-1.716-1.715H29.532a1.717,1.717,0,0,0-1.715,1.715v8.414a3.781,3.781,0,0,0,.384.02Z" transform="translate(-24.612 -145.745)" fill="#b5b5b6"/>
        <path id="Trazado_616555" data-name="Trazado 616555" d="M462.54,194.513c-4.3-.061-9.154-.031-13.428,0h.533s-.574,0-.574.008l-.021,5.029a3.706,3.706,0,0,0,1.606-2.272,3.7,3.7,0,0,0,3.67,3.2h.356a3.7,3.7,0,0,0,3.638-3.009,3.7,3.7,0,0,0,3.638,3.009h.356a3.7,3.7,0,0,0,1-.14c-.107-.373-.211-.746-.3-1.121a14.726,14.726,0,0,1-.468-4.706" transform="translate(-397.315 -172.072)" fill="#b5b5b6"/>
        <path id="Trazado_616556" data-name="Trazado 616556" d="M7.664,61.688c-.008-.064-.015-.128-.02-.192-.007-.09-.013-.179-.013-.271V43.385H0V61.224a3.7,3.7,0,0,0,3.7,3.7H4.06a3.7,3.7,0,0,0,3.6-2.869c-.011-.047-.024-.093-.033-.14.014-.076.023-.154.033-.231M6.953,45.6c-.01-.047-.024-.093-.033-.14.014-.076.023-.153.033-.231-.009-.064-.014-.128-.02-.192-.007-.09-.013-.18-.013-.272,0,.092.005.182.013.272.006.064.011.128.02.192s.018.155.033.231c-.009.047-.022.093-.033.14" transform="translate(0 -38.387)" fill="#ef5554"/>
        <path id="Trazado_616557" data-name="Trazado 616557" d="M7.632,5.476l4.753-4.8L7.848.679,0,5.476v.116H7.632Z" transform="translate(0 -0.594)" fill="#b92026"/>
        <path id="Trazado_616558" data-name="Trazado 616558" d="M66.242,5.521h7.632V5.405L76.916.591,71,.6l-4.753,4.8Z" transform="translate(-58.61 -0.523)" fill="#e5dbe3"/>
        <path id="Trazado_616559" data-name="Trazado 616559" d="M73.874,43.384H66.242V61.223c0,.092.005.182.013.271,0,.065.012.129.02.193s.019.155.033.231c-.009.047-.022.093-.033.14a3.7,3.7,0,0,0,3.605,2.869h.356a3.766,3.766,0,0,0,3.758-3.419,3.707,3.707,0,0,1-.12-.937Z" transform="translate(-58.61 -38.386)" fill="#fff"/>
        <path id="Trazado_616560" data-name="Trazado 616560" d="M66.242,198.229c0,.092.006.182.013.271-.008-.09-.013-.18-.013-.271" transform="translate(-58.61 -175.391)" fill="#ffb074"/>
        <path id="Trazado_616561" data-name="Trazado 616561" d="M60.077,55.608c-.008-.09-.013-.18-.013-.272,0,.091.006.181.013.272" transform="translate(-53.144 -48.961)" fill="#5c5c5f"/>
        <path id="Trazado_616562" data-name="Trazado 616562" d="M60.063,59.593c.009.047.022.093.033.14.011-.047.024-.093.033-.14-.015-.076-.023-.153-.033-.231-.01.077-.019.155-.033.231" transform="translate(-53.143 -52.523)" fill="#5c5c5f"/>
        <path id="Trazado_616563" data-name="Trazado 616563" d="M140.115,43.384h-7.628l0,17.187a3.7,3.7,0,0,0,3.7,3.7h.356a3.7,3.7,0,0,0,3.638-3.009,3.739,3.739,0,0,1-.066-.694Z" transform="translate(-117.221 -38.386)" fill="#ef5554"/>
        <path id="Trazado_616564" data-name="Trazado 616564" d="M132.487,5.445h7.628V5.329L141.838.505l-6.3.01-3.053,4.814,0,.025Z" transform="translate(-117.22 -0.447)" fill="#b92026"/>
        <path id="Trazado_616565" data-name="Trazado 616565" d="M198.724,5.376h7.632V.426l-5.909.009-1.723,4.824Z" transform="translate(-175.829 -0.377)" fill="#e5dbe3"/>
        <path id="Trazado_616566" data-name="Trazado 616566" d="M206.356,43.384h-7.632V60.571a3.706,3.706,0,0,0,3.7,3.7h.356a3.7,3.7,0,0,0,3.607-2.862,3.762,3.762,0,0,1-.035-.5Z" transform="translate(-175.829 -38.386)" fill="#fff"/>
        <path id="Trazado_616567" data-name="Trazado 616567" d="M272.6,5.283V5.246h-.02V.321l-7.611.012V5.166h0v.116Z" transform="translate(-234.439 -0.284)" fill="#b92026"/>
        <path id="Trazado_616568" data-name="Trazado 616568" d="M272.6,43.384h-7.631V60.911a3.762,3.762,0,0,0,.035.5,3.7,3.7,0,0,0,3.669,3.2h.356a3.7,3.7,0,0,0,3.638-3.009,3.706,3.706,0,0,1-.066-.695Z" transform="translate(-234.439 -38.386)" fill="#ef5554"/>
        <path id="Trazado_616569" data-name="Trazado 616569" d="M331.05,5.1v.116h7.631V5.1L336.787.242,331.03.251V5.1Z" transform="translate(-292.892 -0.214)" fill="#e5dbe3"/>
        <path id="Trazado_616570" data-name="Trazado 616570" d="M338.836,43.384H331.2V60.911a3.706,3.706,0,0,0,3.7,3.7h.356a3.7,3.7,0,0,0,3.7-3.492,3.724,3.724,0,0,1-.125-.958Z" transform="translate(-293.047 -38.386)" fill="#fff"/>
        <path id="Trazado_616571" data-name="Trazado 616571" d="M405.076,43.384h-7.631v16.78a3.7,3.7,0,0,0,3.7,3.7h.356a3.7,3.7,0,0,0,3.607-2.862,3.71,3.71,0,0,1-.035-.5Z" transform="translate(-351.656 -38.386)" fill="#ef5554"/>
        <path id="Trazado_616572" data-name="Trazado 616572" d="M382.9,5.138h7.631V5.033l-1.717-2.541L387.227.158,381,.168,382.9,5.022Z" transform="translate(-337.108 -0.14)" fill="#b92026"/>
        <path id="Trazado_616573" data-name="Trazado 616573" d="M438.385,4.963v.105h7.632V4.984l-5.231-4.9-5.7.009,1.577,2.334,1.717,2.53Z" transform="translate(-384.964 -0.07)" fill="#e5dbe3"/>
        <path id="Trazado_616574" data-name="Trazado 616574" d="M471.318,43.384h-7.632V60.5a3.709,3.709,0,0,0,3.7,3.7h.356a3.7,3.7,0,0,0,3.638-3.01,3.7,3.7,0,0,1-.066-.694Z" transform="translate(-410.265 -38.386)" fill="#fff"/>
        <path id="Trazado_616575" data-name="Trazado 616575" d="M497.768,5V4.882L490.538,0l-5.732.009L490,4.882V5Z" transform="translate(-428.952 0)" fill="#b92026"/>
        <path id="Trazado_616576" data-name="Trazado 616576" d="M529.927,43.384V60.5a3.708,3.708,0,0,0,3.7,3.7h.356a3.7,3.7,0,0,0,3.7-3.7V43.384Z" transform="translate(-468.875 -38.386)" fill="#ef5554"/>
        <rect id="Rectángulo_379010" data-name="Rectángulo 379010" width="0.722" height="0.657" transform="translate(10.301 39.166)" fill="#ee5558"/>
        <rect id="Rectángulo_379011" data-name="Rectángulo 379011" width="0.722" height="2.299" transform="translate(10.301 39.823)" fill="#7dc6b7"/>
        <rect id="Rectángulo_379012" data-name="Rectángulo 379012" width="2.496" height="1.708" transform="translate(9.414 45.406)" fill="#7dc6b7"/>
        <path id="Trazado_616577" data-name="Trazado 616577" d="M84.21,361.162a1.248,1.248,0,1,0-2.5,0v1.051h2.5Z" transform="translate(-72.3 -318.449)" fill="#7dc6b7"/>
        <rect id="Rectángulo_379013" data-name="Rectángulo 379013" width="2.496" height="1.642" transform="translate(9.414 43.764)" fill="#ee5558"/>
        <rect id="Rectángulo_379014" data-name="Rectángulo 379014" width="0.722" height="0.657" transform="translate(13.632 39.166)" fill="#ee5558"/>
        <rect id="Rectángulo_379015" data-name="Rectángulo 379015" width="0.722" height="2.299" transform="translate(13.632 39.823)" fill="#7dc6b7"/>
        <rect id="Rectángulo_379016" data-name="Rectángulo 379016" width="2.496" height="1.708" transform="translate(12.745 45.406)" fill="#7dc6b7"/>
        <path id="Trazado_616578" data-name="Trazado 616578" d="M113.122,361.162a1.248,1.248,0,1,0-2.5,0v1.051h2.5Z" transform="translate(-97.881 -318.449)" fill="#7dc6b7"/>
        <rect id="Rectángulo_379017" data-name="Rectángulo 379017" width="2.496" height="1.642" transform="translate(12.745 43.764)" fill="#ee5558"/>
        <rect id="Rectángulo_379018" data-name="Rectángulo 379018" width="0.722" height="0.657" transform="translate(16.963 39.166)" fill="#ee5558"/>
        <rect id="Rectángulo_379019" data-name="Rectángulo 379019" width="0.722" height="2.299" transform="translate(16.963 39.823)" fill="#7dc6b7"/>
        <rect id="Rectángulo_379020" data-name="Rectángulo 379020" width="2.496" height="1.708" transform="translate(16.076 45.406)" fill="#7dc6b7"/>
        <path id="Trazado_616579" data-name="Trazado 616579" d="M142.035,361.162a1.248,1.248,0,0,0-2.5,0v1.051h2.5Z" transform="translate(-123.463 -318.449)" fill="#7dc6b7"/>
        <rect id="Rectángulo_379021" data-name="Rectángulo 379021" width="2.496" height="1.642" transform="translate(16.076 43.764)" fill="#ee5558"/>
        <rect id="Rectángulo_379022" data-name="Rectángulo 379022" width="0.722" height="0.657" transform="translate(20.294 39.166)" fill="#ee5558"/>
        <rect id="Rectángulo_379023" data-name="Rectángulo 379023" width="0.722" height="2.299" transform="translate(20.294 39.823)" fill="#7dc6b7"/>
        <rect id="Rectángulo_379024" data-name="Rectángulo 379024" width="2.496" height="1.708" transform="translate(19.407 45.406)" fill="#7dc6b7"/>
        <path id="Trazado_616580" data-name="Trazado 616580" d="M170.949,361.162a1.248,1.248,0,0,0-2.5,0v1.051h2.5Z" transform="translate(-149.046 -318.449)" fill="#7dc6b7"/>
        <rect id="Rectángulo_379025" data-name="Rectángulo 379025" width="2.496" height="1.642" transform="translate(19.407 43.764)" fill="#ee5558"/>
        <rect id="Rectángulo_379026" data-name="Rectángulo 379026" width="0.722" height="0.657" transform="translate(23.625 39.166)" fill="#ee5558"/>
        <rect id="Rectángulo_379027" data-name="Rectángulo 379027" width="0.722" height="2.299" transform="translate(23.625 39.823)" fill="#7dc6b7"/>
        <rect id="Rectángulo_379028" data-name="Rectángulo 379028" width="2.496" height="1.708" transform="translate(22.738 45.406)" fill="#7dc6b7"/>
        <path id="Trazado_616581" data-name="Trazado 616581" d="M199.863,361.162a1.248,1.248,0,0,0-2.5,0v1.051h2.5Z" transform="translate(-174.629 -318.449)" fill="#7dc6b7"/>
        <rect id="Rectángulo_379029" data-name="Rectángulo 379029" width="2.496" height="1.642" transform="translate(22.738 43.764)" fill="#ee5558"/>
        <rect id="Rectángulo_379030" data-name="Rectángulo 379030" width="0.722" height="0.657" transform="translate(10.279 29.673)" fill="#ee5558"/>
        <rect id="Rectángulo_379031" data-name="Rectángulo 379031" width="0.722" height="2.299" transform="translate(10.279 30.329)" fill="#7dc6b7"/>
        <rect id="Rectángulo_379032" data-name="Rectángulo 379032" width="2.496" height="1.708" transform="translate(9.392 35.912)" fill="#7dc6b7"/>
        <path id="Trazado_616582" data-name="Trazado 616582" d="M84.021,278.755a1.248,1.248,0,1,0-2.5,0v1.051h2.5Z" transform="translate(-72.133 -245.536)" fill="#7dc6b7"/>
        <rect id="Rectángulo_379033" data-name="Rectángulo 379033" width="2.496" height="1.642" transform="translate(9.392 34.27)" fill="#ee5558"/>
        <rect id="Rectángulo_379034" data-name="Rectángulo 379034" width="0.722" height="0.657" transform="translate(13.61 29.673)" fill="#ee5558"/>
        <rect id="Rectángulo_379035" data-name="Rectángulo 379035" width="0.722" height="2.299" transform="translate(13.61 30.329)" fill="#7dc6b7"/>
        <rect id="Rectángulo_379036" data-name="Rectángulo 379036" width="2.496" height="1.708" transform="translate(12.723 35.912)" fill="#7dc6b7"/>
        <path id="Trazado_616583" data-name="Trazado 616583" d="M112.934,278.755a1.248,1.248,0,0,0-2.5,0v1.051h2.5Z" transform="translate(-97.715 -245.536)" fill="#7dc6b7"/>
        <rect id="Rectángulo_379037" data-name="Rectángulo 379037" width="2.496" height="1.642" transform="translate(12.723 34.27)" fill="#ee5558"/>
        <rect id="Rectángulo_379038" data-name="Rectángulo 379038" width="0.722" height="0.657" transform="translate(16.941 29.673)" fill="#ee5558"/>
        <rect id="Rectángulo_379039" data-name="Rectángulo 379039" width="0.722" height="2.299" transform="translate(16.942 30.329)" fill="#7dc6b7"/>
        <rect id="Rectángulo_379040" data-name="Rectángulo 379040" width="2.496" height="1.708" transform="translate(16.055 35.912)" fill="#7dc6b7"/>
        <path id="Trazado_616584" data-name="Trazado 616584" d="M141.85,278.755a1.248,1.248,0,1,0-2.5,0v1.051h2.5Z" transform="translate(-123.299 -245.536)" fill="#7dc6b7"/>
        <rect id="Rectángulo_379041" data-name="Rectángulo 379041" width="2.496" height="1.642" transform="translate(16.055 34.27)" fill="#ee5558"/>
        <rect id="Rectángulo_379042" data-name="Rectángulo 379042" width="0.722" height="0.657" transform="translate(20.273 29.673)" fill="#ee5558"/>
        <rect id="Rectángulo_379043" data-name="Rectángulo 379043" width="0.722" height="2.299" transform="translate(20.273 30.329)" fill="#7dc6b7"/>
        <rect id="Rectángulo_379044" data-name="Rectángulo 379044" width="2.496" height="1.708" transform="translate(19.386 35.912)" fill="#7dc6b7"/>
        <path id="Trazado_616585" data-name="Trazado 616585" d="M170.762,278.755a1.248,1.248,0,0,0-2.5,0v1.051h2.5Z" transform="translate(-148.88 -245.536)" fill="#7dc6b7"/>
        <rect id="Rectángulo_379045" data-name="Rectángulo 379045" width="2.496" height="1.642" transform="translate(19.386 34.27)" fill="#ee5558"/>
        <rect id="Rectángulo_379046" data-name="Rectángulo 379046" width="0.722" height="0.657" transform="translate(23.604 29.673)" fill="#ee5558"/>
        <rect id="Rectángulo_379047" data-name="Rectángulo 379047" width="0.722" height="2.299" transform="translate(23.604 30.329)" fill="#7dc6b7"/>
        <rect id="Rectángulo_379048" data-name="Rectángulo 379048" width="2.496" height="1.708" transform="translate(22.717 35.912)" fill="#7dc6b7"/>
        <path id="Trazado_616586" data-name="Trazado 616586" d="M199.677,278.755a1.248,1.248,0,0,0-2.5,0v1.051h2.5Z" transform="translate(-174.464 -245.536)" fill="#7dc6b7"/>
        <rect id="Rectángulo_379049" data-name="Rectángulo 379049" width="2.496" height="1.642" transform="translate(22.717 34.27)" fill="#ee5558"/>
        <path id="Trazado_616587" data-name="Trazado 616587" d="M260.46,353.592l.78-.7,1.986-.007-.707.7Z" transform="translate(-230.453 -312.229)" fill="#3fbfc4"/>
        <path id="Trazado_616588" data-name="Trazado 616588" d="M279.614,353.581l-.574-.7-.707.7Z" transform="translate(-246.266 -312.229)" fill="#177a99"/>
        <rect id="Rectángulo_379050" data-name="Rectángulo 379050" width="1.986" height="0.308" transform="translate(30.786 40.354) rotate(-0.199)" fill="#d4ecec"/>
        <path id="Trazado_616589" data-name="Trazado 616589" d="M262.519,358.969l-2.059.007.007,2.024h2.059Z" transform="translate(-230.453 -317.613)" fill="#d4ecec"/>
        <path id="Trazado_616590" data-name="Trazado 616590" d="M260.568,390.147l.007,2.126,2.059-.007-.008-2.118Z" transform="translate(-230.549 -345.198)" fill="#d4ecec"/>
        <path id="Trazado_616591" data-name="Trazado 616591" d="M279.62,360.967l-.007-2.035-1.282,0,.007,2.031Z" transform="translate(-246.265 -317.579)" fill="#3fbfc4"/>
        <path id="Trazado_616592" data-name="Trazado 616592" d="M278.445,392.265l1.282,0-.007-2.114h-1.282Z" transform="translate(-246.359 -345.198)" fill="#3fbfc4"/>
        <path id="Trazado_616593" data-name="Trazado 616593" d="M262.58,376.6h-2.059l.005,1.561h2.059Z" transform="translate(-230.507 -333.21)" fill="#3fbfc4"/>
        <path id="Trazado_616594" data-name="Trazado 616594" d="M278.392,376.6l.005,1.561h1.282l-.006-1.561Z" transform="translate(-246.319 -333.21)" fill="#177a99"/>
        <path id="Trazado_616595" data-name="Trazado 616595" d="M295.452,353.592l.78-.7,1.986-.007-.708.7Z" transform="translate(-261.413 -312.229)" fill="#3fbfc4"/>
        <path id="Trazado_616596" data-name="Trazado 616596" d="M314.6,353.581l-.574-.7-.708.7Z" transform="translate(-277.226 -312.229)" fill="#177a99"/>
        <rect id="Rectángulo_379051" data-name="Rectángulo 379051" width="1.986" height="0.308" transform="matrix(1, -0.003, 0.003, 1, 34.818, 40.354)" fill="#d4ecec"/>
        <path id="Trazado_616597" data-name="Trazado 616597" d="M297.511,358.969l-2.059.007.007,2.024h2.059Z" transform="translate(-261.414 -317.613)" fill="#d4ecec"/>
        <path id="Trazado_616598" data-name="Trazado 616598" d="M295.561,390.147l.007,2.126,2.059-.007-.007-2.118Z" transform="translate(-261.51 -345.198)" fill="#d4ecec"/>
        <path id="Trazado_616599" data-name="Trazado 616599" d="M314.613,360.967l-.007-2.035-1.282,0,.007,2.031Z" transform="translate(-277.226 -317.579)" fill="#3fbfc4"/>
        <path id="Trazado_616600" data-name="Trazado 616600" d="M313.438,392.265l1.282,0-.007-2.114H313.43Z" transform="translate(-277.32 -345.198)" fill="#3fbfc4"/>
        <path id="Trazado_616601" data-name="Trazado 616601" d="M297.572,376.6h-2.059l.006,1.561h2.059Z" transform="translate(-261.468 -333.21)" fill="#3fbfc4"/>
        <path id="Trazado_616602" data-name="Trazado 616602" d="M313.383,376.6l.006,1.561h1.282l-.005-1.561Z" transform="translate(-277.278 -333.21)" fill="#177a99"/>
        <path id="Trazado_616603" data-name="Trazado 616603" d="M330.445,353.592l.78-.7,1.986-.007-.708.7Z" transform="translate(-292.375 -312.229)" fill="#3fbfc4"/>
        <path id="Trazado_616604" data-name="Trazado 616604" d="M349.6,353.581l-.574-.7-.708.7Z" transform="translate(-308.186 -312.229)" fill="#177a99"/>
        <rect id="Rectángulo_379052" data-name="Rectángulo 379052" width="1.986" height="0.308" transform="translate(38.849 40.354) rotate(-0.199)" fill="#d4ecec"/>
        <path id="Trazado_616605" data-name="Trazado 616605" d="M332.5,358.969l-2.059.007.007,2.024h2.059Z" transform="translate(-292.375 -317.613)" fill="#d4ecec"/>
        <path id="Trazado_616606" data-name="Trazado 616606" d="M330.552,390.147l.007,2.126,2.059-.007-.007-2.118Z" transform="translate(-292.469 -345.198)" fill="#d4ecec"/>
        <path id="Trazado_616607" data-name="Trazado 616607" d="M349.6,360.967l-.007-2.035-1.282,0,.007,2.031Z" transform="translate(-308.185 -317.579)" fill="#3fbfc4"/>
        <path id="Trazado_616608" data-name="Trazado 616608" d="M348.43,392.265l1.282,0-.007-2.114h-1.282Z" transform="translate(-308.281 -345.198)" fill="#3fbfc4"/>
        <path id="Trazado_616609" data-name="Trazado 616609" d="M332.566,376.6h-2.059l.005,1.561h2.059Z" transform="translate(-292.43 -333.21)" fill="#3fbfc4"/>
        <path id="Trazado_616610" data-name="Trazado 616610" d="M348.377,376.6l.005,1.561h1.282l-.005-1.561Z" transform="translate(-308.241 -333.21)" fill="#177a99"/>
        <path id="Trazado_616611" data-name="Trazado 616611" d="M365.438,353.592l.78-.7,1.986-.007-.708.7Z" transform="translate(-323.336 -312.229)" fill="#3fbfc4"/>
        <path id="Trazado_616612" data-name="Trazado 616612" d="M384.59,353.581l-.574-.7-.707.7Z" transform="translate(-339.148 -312.229)" fill="#177a99"/>
        <rect id="Rectángulo_379053" data-name="Rectángulo 379053" width="1.986" height="0.308" transform="translate(42.88 40.354) rotate(-0.199)" fill="#d4ecec"/>
        <path id="Trazado_616613" data-name="Trazado 616613" d="M367.5,358.969l-2.059.007.007,2.024H367.5Z" transform="translate(-323.336 -317.613)" fill="#d4ecec"/>
        <path id="Trazado_616614" data-name="Trazado 616614" d="M365.545,390.147l.007,2.126,2.059-.007-.008-2.118Z" transform="translate(-323.431 -345.198)" fill="#d4ecec"/>
        <path id="Trazado_616615" data-name="Trazado 616615" d="M384.6,360.967l-.007-2.035-1.282,0,.007,2.031Z" transform="translate(-339.148 -317.579)" fill="#3fbfc4"/>
        <path id="Trazado_616616" data-name="Trazado 616616" d="M383.422,392.265l1.282,0-.007-2.114h-1.282Z" transform="translate(-339.242 -345.198)" fill="#3fbfc4"/>
        <path id="Trazado_616617" data-name="Trazado 616617" d="M367.556,376.6H365.5l.006,1.561h2.059Z" transform="translate(-323.389 -333.21)" fill="#3fbfc4"/>
        <path id="Trazado_616618" data-name="Trazado 616618" d="M383.367,376.6l.005,1.561h1.282l-.005-1.561Z" transform="translate(-339.2 -333.21)" fill="#177a99"/>
        <path id="Trazado_616619" data-name="Trazado 616619" d="M262.268,275.615l.78-.7,1.986-.007-.708.7Z" transform="translate(-232.053 -243.235)" fill="#3fbfc4"/>
        <path id="Trazado_616620" data-name="Trazado 616620" d="M281.421,275.6l-.574-.7-.708.7Z" transform="translate(-247.865 -243.235)" fill="#177a99"/>
        <rect id="Rectángulo_379054" data-name="Rectángulo 379054" width="1.986" height="0.308" transform="translate(30.995 31.37) rotate(-0.199)" fill="#d4ecec"/>
        <path id="Trazado_616621" data-name="Trazado 616621" d="M264.327,280.989l-2.059.007.007,2.024h2.059Z" transform="translate(-232.053 -248.617)" fill="#d4ecec"/>
        <path id="Trazado_616622" data-name="Trazado 616622" d="M262.378,312.168l.007,2.126,2.059-.007-.007-2.118Z" transform="translate(-232.15 -276.204)" fill="#d4ecec"/>
        <path id="Trazado_616623" data-name="Trazado 616623" d="M281.428,282.989l-.007-2.035-1.282,0,.007,2.031Z" transform="translate(-247.865 -248.585)" fill="#3fbfc4"/>
        <path id="Trazado_616624" data-name="Trazado 616624" d="M280.255,314.287l1.282,0-.007-2.114h-1.282Z" transform="translate(-247.961 -276.204)" fill="#3fbfc4"/>
        <path id="Trazado_616625" data-name="Trazado 616625" d="M264.389,298.62H262.33l.006,1.561h2.059Z" transform="translate(-232.107 -264.216)" fill="#3fbfc4"/>
        <path id="Trazado_616626" data-name="Trazado 616626" d="M280.2,298.62l.006,1.561h1.282l-.005-1.561Z" transform="translate(-247.918 -264.216)" fill="#177a99"/>
        <path id="Trazado_616627" data-name="Trazado 616627" d="M297.26,275.615l.78-.7,1.986-.007-.708.7Z" transform="translate(-263.013 -243.235)" fill="#3fbfc4"/>
        <path id="Trazado_616628" data-name="Trazado 616628" d="M316.413,275.6l-.574-.7-.708.7Z" transform="translate(-278.825 -243.235)" fill="#177a99"/>
        <rect id="Rectángulo_379055" data-name="Rectángulo 379055" width="1.986" height="0.308" transform="translate(35.026 31.37) rotate(-0.199)" fill="#d4ecec"/>
        <path id="Trazado_616629" data-name="Trazado 616629" d="M299.319,280.989,297.26,281l.007,2.024h2.059Z" transform="translate(-263.013 -248.617)" fill="#d4ecec"/>
        <path id="Trazado_616630" data-name="Trazado 616630" d="M297.368,312.168l.007,2.126,2.059-.007-.007-2.118Z" transform="translate(-263.109 -276.204)" fill="#d4ecec"/>
        <path id="Trazado_616631" data-name="Trazado 616631" d="M316.419,282.989l-.007-2.035-1.282,0,.007,2.031Z" transform="translate(-278.825 -248.585)" fill="#3fbfc4"/>
        <path id="Trazado_616632" data-name="Trazado 616632" d="M315.246,314.287l1.282,0-.007-2.114h-1.282Z" transform="translate(-278.92 -276.204)" fill="#3fbfc4"/>
        <path id="Trazado_616633" data-name="Trazado 616633" d="M299.38,298.62h-2.059l.005,1.561h2.059Z" transform="translate(-263.067 -264.216)" fill="#3fbfc4"/>
        <path id="Trazado_616634" data-name="Trazado 616634" d="M315.193,298.62l.005,1.561h1.282l-.005-1.561Z" transform="translate(-278.88 -264.216)" fill="#177a99"/>
        <path id="Trazado_616635" data-name="Trazado 616635" d="M332.252,275.615l.78-.7,1.987-.007-.708.7Z" transform="translate(-293.974 -243.235)" fill="#3fbfc4"/>
        <path id="Trazado_616636" data-name="Trazado 616636" d="M351.4,275.6l-.574-.7-.708.7Z" transform="translate(-309.786 -243.235)" fill="#177a99"/>
        <rect id="Rectángulo_379056" data-name="Rectángulo 379056" width="1.986" height="0.308" transform="matrix(1, -0.003, 0.003, 1, 39.057, 31.37)" fill="#d4ecec"/>
        <path id="Trazado_616637" data-name="Trazado 616637" d="M334.311,280.989l-2.059.007.007,2.024h2.059Z" transform="translate(-293.974 -248.617)" fill="#d4ecec"/>
        <path id="Trazado_616638" data-name="Trazado 616638" d="M332.361,312.168l.007,2.126,2.059-.007-.008-2.118Z" transform="translate(-294.07 -276.204)" fill="#d4ecec"/>
        <path id="Trazado_616639" data-name="Trazado 616639" d="M351.412,282.989l-.007-2.035-1.282,0,.007,2.031Z" transform="translate(-309.785 -248.585)" fill="#3fbfc4"/>
        <path id="Trazado_616640" data-name="Trazado 616640" d="M350.238,314.287l1.282,0-.007-2.114h-1.282Z" transform="translate(-309.881 -276.204)" fill="#3fbfc4"/>
        <path id="Trazado_616641" data-name="Trazado 616641" d="M334.372,298.62h-2.059l.006,1.561h2.059Z" transform="translate(-294.028 -264.216)" fill="#3fbfc4"/>
        <path id="Trazado_616642" data-name="Trazado 616642" d="M350.185,298.62l.005,1.561h1.282l-.005-1.561Z" transform="translate(-309.84 -264.216)" fill="#177a99"/>
        <path id="Trazado_616643" data-name="Trazado 616643" d="M367.245,275.615l.78-.7,1.986-.007-.708.7Z" transform="translate(-324.935 -243.235)" fill="#3fbfc4"/>
        <path id="Trazado_616644" data-name="Trazado 616644" d="M386.4,275.6l-.574-.7-.708.7Z" transform="translate(-340.747 -243.235)" fill="#177a99"/>
        <rect id="Rectángulo_379057" data-name="Rectángulo 379057" width="1.987" height="0.308" transform="translate(43.089 31.37) rotate(-0.199)" fill="#d4ecec"/>
        <path id="Trazado_616645" data-name="Trazado 616645" d="M369.3,280.989l-2.059.007.007,2.024h2.059Z" transform="translate(-324.935 -248.617)" fill="#d4ecec"/>
        <path id="Trazado_616646" data-name="Trazado 616646" d="M367.354,312.168l.007,2.126,2.059-.007-.008-2.118Z" transform="translate(-325.031 -276.204)" fill="#d4ecec"/>
        <path id="Trazado_616647" data-name="Trazado 616647" d="M386.4,282.989l-.007-2.035-1.282,0,.007,2.031Z" transform="translate(-340.747 -248.585)" fill="#3fbfc4"/>
        <path id="Trazado_616648" data-name="Trazado 616648" d="M385.23,314.287l1.282,0-.007-2.114h-1.282Z" transform="translate(-340.842 -276.204)" fill="#3fbfc4"/>
        <path id="Trazado_616649" data-name="Trazado 616649" d="M369.365,298.62h-2.059l.005,1.561h2.059Z" transform="translate(-324.99 -264.216)" fill="#3fbfc4"/>
        <path id="Trazado_616650" data-name="Trazado 616650" d="M385.177,298.62l.005,1.561h1.282l-.005-1.561Z" transform="translate(-340.801 -264.216)" fill="#177a99"/>
      </g>
    </g>
  </g>
</svg>
