<svg xmlns="http://www.w3.org/2000/svg" xmlns:xlink="http://www.w3.org/1999/xlink" width="820" height="641" viewBox="0 0 820 641">
  <defs>
    <linearGradient id="linear-gradient" x1="0.5" x2="0.5" y2="1" gradientUnits="objectBoundingBox">
      <stop offset="0" stop-color="#cce4ff"/>
      <stop offset="1" stop-color="#d1f3f5"/>
    </linearGradient>
    <clipPath id="clip-path">
      <rect id="Rectángulo_46351" data-name="Rectángulo 46351" width="92.43" height="95.638" fill="none"/>
    </clipPath>
    <clipPath id="clip-path-2">
      <path id="Trazado_617011" data-name="Trazado 617011" d="M0,0H586.664V563.471H0Z" fill="none"/>
    </clipPath>
    <clipPath id="clip-path-4">
      <rect id="Rectángulo_379070" data-name="Rectángulo 379070" width="413.886" height="30.444" transform="translate(86.389 368.163)" fill="none"/>
    </clipPath>
    <clipPath id="clip-path-5">
      <rect id="Rectángulo_379071" data-name="Rectángulo 379071" width="491.428" height="30.444" transform="translate(47.618 195.352)" fill="none"/>
    </clipPath>
    <clipPath id="clip-path-6">
      <rect id="Rectángulo_379072" data-name="Rectángulo 379072" width="586.323" height="29.813" transform="translate(0.17 20.063)" fill="none"/>
    </clipPath>
  </defs>
  <g id="img1" transform="translate(-390 -3635)">
    <rect id="Rectángulo_378977" data-name="Rectángulo 378977" width="820" height="641" transform="translate(390 3635)" fill="url(#linear-gradient)"/>
    <g id="Grupo_154801" data-name="Grupo 154801" transform="translate(1117.57 4180.362)">
      <g id="Grupo_154721" data-name="Grupo 154721" clip-path="url(#clip-path)">
        <line id="Línea_1878" data-name="Línea 1878" x1="17.302" y2="81.558" transform="translate(48.964 23.596)" fill="none" stroke="#1e0b4a" stroke-linecap="round" stroke-linejoin="round" stroke-width="1.052"/>
        <path id="Trazado_196481" data-name="Trazado 196481" d="M234.777,273.116a6.5,6.5,0,1,1-6.5-6.5,6.5,6.5,0,0,1,6.5,6.5" transform="translate(-162.01 -249.519)" fill="#59c4c8"/>
        <path id="Trazado_196482" data-name="Trazado 196482" d="M241.983,324.01c-7.2,20.729-29.886,31.676-29.886,31.676s-11.006-22.656-3.8-43.383,29.886-31.675,29.886-31.675,11.006,22.655,3.8,43.382" transform="translate(-156.885 -250.532)" fill="#12263f"/>
        <path id="Trazado_196483" data-name="Trazado 196483" d="M281.658,311.26c3.339,31.511-19.563,59.769-19.563,59.769s-28.316-22.83-31.655-54.342S250,256.918,250,256.918s28.315,22.83,31.654,54.342" transform="translate(-216.954 -248.819)" fill="#59c4c8"/>
        <path id="Trazado_196484" data-name="Trazado 196484" d="M295.32,320.154a11.874,11.874,0,1,1-11.874-11.874,11.874,11.874,0,0,1,11.874,11.874" transform="translate(-268.754 -252.529)" fill="#12263f"/>
        <line id="Línea_1879" data-name="Línea 1879" x2="11.68" y2="110.236" transform="translate(33.461 11.973)" fill="none" stroke="#1e0b4a" stroke-linecap="round" stroke-linejoin="round" stroke-width="1.052"/>
        <line id="Línea_1880" data-name="Línea 1880" y1="14.358" x2="22.324" transform="translate(40.46 63.675)" fill="none" stroke="#1e0b4a" stroke-linecap="round" stroke-linejoin="round" stroke-width="1.052"/>
        <line id="Línea_1881" data-name="Línea 1881" x1="19.186" y1="10.052" transform="translate(18.306 39.971)" fill="none" stroke="#1e0b4a" stroke-linecap="round" stroke-linejoin="round" stroke-width="1.052"/>
        <line id="Línea_1882" data-name="Línea 1882" x2="20.876" y2="42.819" transform="translate(14.691 67.625)" fill="none" stroke="#1e0b4a" stroke-linecap="round" stroke-linejoin="round" stroke-width="1.052"/>
      </g>
    </g>
    <path id="Trazado_615639" data-name="Trazado 615639" d="M591.416,176.61a.988.988,0,0,0-.805-1.107c-1.73-.6-3.456-1.215-5.147-1.909a2.05,2.05,0,0,1-.969-1.012c-.709-1.644-1.354-3.317-1.972-5a1.628,1.628,0,0,1,0-1.116c.835-1.858,1.754-3.68,2.584-5.54a1.166,1.166,0,0,0-.138-1.033c-1.395-1.49-2.862-2.911-4.274-4.384a.84.84,0,0,0-1.16-.188c-1.763.875-3.539,1.727-5.336,2.53a1.785,1.785,0,0,1-1.215.056q-2.577-.928-5.1-2a1.894,1.894,0,0,1-.963-.889c-.7-1.728-1.324-3.486-1.926-5.249-.194-.566-.422-.84-1.083-.824-1.971.049-3.944.045-5.916,0a.985.985,0,0,0-1.1.811c-.593,1.73-1.264,3.433-1.853,5.166a1.525,1.525,0,0,1-1.1,1.056c-1.628.565-3.236,1.2-4.8,1.921a1.541,1.541,0,0,1-1.524-.013c-1.728-.87-3.489-1.671-5.219-2.537a.9.9,0,0,0-1.249.218c-1.364,1.423-2.755,2.825-4.185,4.182a.955.955,0,0,0-.183,1.34c.858,1.734,1.7,3.478,2.474,5.25a1.789,1.789,0,0,1-.033,1.283q-1.08,2.518-2.307,4.971a2.113,2.113,0,0,1-1,.987c-1.839.7-3.708,1.324-5.579,1.934a.969.969,0,0,0-.82,1.089c.045,1.971.038,3.944,0,5.917a.9.9,0,0,0,.735,1.03c1.906.615,3.809,1.249,5.68,1.962a2.089,2.089,0,0,1,.974,1.016c.755,1.587,1.378,3.238,2.167,4.806a1.7,1.7,0,0,1,.038,1.725c-.818,1.638-1.563,3.311-2.376,4.951a.968.968,0,0,0,.211,1.338q2.141,2.039,4.183,4.184a.955.955,0,0,0,1.334.192c1.7-.844,3.435-1.626,5.137-2.469a1.511,1.511,0,0,1,1.524.039c1.635.808,3.341,1.475,4.993,2.255a1.781,1.781,0,0,1,.841.88c.7,1.875,1.35,3.771,1.977,5.674a.918.918,0,0,0,1.039.745c1.972-.033,3.945-.039,5.917,0a.949.949,0,0,0,1.083-.808c.6-1.874,1.243-3.736,1.944-5.574a1.93,1.93,0,0,1,.931-.937q2.53-1.182,5.122-2.223a1.709,1.709,0,0,1,1.206-.023c2.014.894,4,1.858,6.069,2.833,1.621-1.643,3.241-3.25,4.8-4.911a1.181,1.181,0,0,0,.094-1.048c-.8-1.8-1.691-3.557-2.5-5.35a1.7,1.7,0,0,1-.08-1.138c.61-1.757,1.258-3.5,1.964-5.222a1.879,1.879,0,0,1,.922-.941c1.727-.7,3.484-1.331,5.246-1.943a.922.922,0,0,0,.725-1.049c-.035-1.971-.04-3.945,0-5.916m-30.481,14.48a11.53,11.53,0,1,1,11.544-11.516,11.493,11.493,0,0,1-11.544,11.516" transform="translate(-132.417 3495.049)" fill="#3656b3"/>
    <g id="Grupo_1075308" data-name="Grupo 1075308" transform="translate(507 3687)">
      <g id="Enmascarar_grupo_1073829" data-name="Enmascarar grupo 1073829" clip-path="url(#clip-path-2)">
        <g id="Grupo_1075306" data-name="Grupo 1075306">
          <g id="Enmascarar_grupo_1073830" data-name="Enmascarar grupo 1073830" clip-path="url(#clip-path-2)">
            <path id="Trazado_616689" data-name="Trazado 616689" d="M477.7,493.365c0,16.76-82.544,30.346-184.368,30.346s-184.368-13.586-184.368-30.346l-22.575-125.2H500.276Z" fill="#85b6ec"/>
            <path id="Trazado_616690" data-name="Trazado 616690" d="M293.332,387.594c-38.587,0-74.687-.995-105.608-2.722l15.931,135.007c26.549,2.438,57.117,3.833,89.677,3.833s63.128-1.395,89.677-3.833L398.94,384.872c-30.921,1.727-67.021,2.722-105.608,2.722" fill="#b9daff"/>
            <path id="Trazado_616691" data-name="Trazado 616691" d="M500.276,368.163c0,10.732-92.652,19.431-206.943,19.431s-206.944-8.7-206.944-19.431,92.652-19.431,206.944-19.431,206.943,8.7,206.943,19.431" fill="#315884"/>
            <g id="Grupo_1075298" data-name="Grupo 1075298" opacity="0.5" style="mix-blend-mode: hard-light;isolation: isolate">
              <g id="Grupo_1075297" data-name="Grupo 1075297">
                <g id="Grupo_1075296" data-name="Grupo 1075296" clip-path="url(#clip-path-4)">
                  <path id="Trazado_616692" data-name="Trazado 616692" d="M293.332,398.607c103.284,0,188.877-7.1,204.41-16.393l2.533-14.051c0,10.731-92.652,19.431-206.943,19.431s-206.943-8.7-206.943-19.431l2.533,14.051c15.533,9.288,101.126,16.393,204.41,16.393" fill="#fff"/>
                </g>
              </g>
            </g>
            <path id="Trazado_616693" data-name="Trazado 616693" d="M516.016,322.842c0,16.76-99.7,30.347-222.684,30.347S70.648,339.6,70.648,322.842L47.618,195.353H539.046Z" fill="#85b6ec"/>
            <path id="Trazado_616694" data-name="Trazado 616694" d="M293.332,214.783c-47.777,0-92.336-1.082-130.064-2.947l16.176,137.082c33.327,2.709,72.264,4.269,113.888,4.269s80.561-1.56,113.888-4.269L423.4,211.835c-37.728,1.866-82.287,2.948-130.064,2.948" fill="#b9daff"/>
            <path id="Trazado_616695" data-name="Trazado 616695" d="M539.046,195.352c0,10.732-110.01,19.431-245.714,19.431s-245.713-8.7-245.713-19.431,110.009-19.431,245.713-19.431,245.714,8.7,245.714,19.431" fill="#315884"/>
            <g id="Grupo_1075301" data-name="Grupo 1075301" opacity="0.5" style="mix-blend-mode: hard-light;isolation: isolate">
              <g id="Grupo_1075300" data-name="Grupo 1075300">
                <g id="Grupo_1075299" data-name="Grupo 1075299" clip-path="url(#clip-path-5)">
                  <path id="Trazado_616696" data-name="Trazado 616696" d="M293.332,225.8c123.921,0,226.364-7.257,243.229-16.688l2.485-13.756c0,10.73-110.01,19.431-245.714,19.431s-245.714-8.7-245.714-19.431L50.1,209.109C66.968,218.54,169.411,225.8,293.332,225.8" fill="#fff"/>
                </g>
              </g>
            </g>
            <path id="Trazado_616697" data-name="Trazado 616697" d="M551.612,149.207c0,16.76-115.636,30.346-258.28,30.346s-258.28-13.586-258.28-30.346L0,19.431H586.664Z" fill="#85b6ec"/>
            <path id="Trazado_616698" data-name="Trazado 616698" d="M293.332,38.862c-56.7,0-109.621-1.067-154.489-2.912l16.39,138.9c39.95,2.976,87.291,4.707,138.1,4.707s98.149-1.731,138.1-4.707l16.39-138.9c-44.867,1.845-97.794,2.912-154.489,2.912" fill="#b9daff"/>
            <path id="Trazado_616699" data-name="Trazado 616699" d="M586.664,19.432c0,10.731-131.329,19.43-293.332,19.43S0,30.163,0,19.432,131.329,0,293.332,0,586.664,8.7,586.664,19.432" fill="#315884"/>
            <g id="Grupo_1075304" data-name="Grupo 1075304" opacity="0.5" style="mix-blend-mode: hard-light;isolation: isolate">
              <g id="Grupo_1075303" data-name="Grupo 1075303">
                <g id="Grupo_1075302" data-name="Grupo 1075302" clip-path="url(#clip-path-6)">
                  <path id="Trazado_616700" data-name="Trazado 616700" d="M293.332,49.876c145.911,0,266.91-7.057,289.512-16.3l3.65-13.512c-5.038,10.439-134.353,18.8-293.162,18.8S5.208,30.5.171,20.064L3.82,33.576c22.6,9.243,143.6,16.3,289.512,16.3" fill="#fff"/>
                </g>
              </g>
            </g>
            <path id="Trazado_617016" data-name="Trazado 617016" d="M9.333-5.52H3.989V0H1.206V-13.508H10v2.254H3.989v3.488H9.333Zm1.3.408a5.953,5.953,0,0,1,.575-2.663,4.211,4.211,0,0,1,1.656-1.809,4.831,4.831,0,0,1,2.51-.64A4.571,4.571,0,0,1,18.694-8.98,4.989,4.989,0,0,1,20.127-5.6l.019.687a5.247,5.247,0,0,1-1.29,3.706A4.482,4.482,0,0,1,15.4.186a4.5,4.5,0,0,1-3.465-1.392,5.339,5.339,0,0,1-1.294-3.785Zm2.681.19a3.752,3.752,0,0,0,.538,2.188,1.775,1.775,0,0,0,1.54.757,1.779,1.779,0,0,0,1.521-.748,4.106,4.106,0,0,0,.547-2.393,3.715,3.715,0,0,0-.547-2.174,1.779,1.779,0,0,0-1.54-.771,1.75,1.75,0,0,0-1.521.767A4.175,4.175,0,0,0,13.318-4.921Zm14.12-2.6a7.284,7.284,0,0,0-.965-.074,1.964,1.964,0,0,0-1.995,1.03V0H21.8V-10.038H24.33l.074,1.2a2.484,2.484,0,0,1,2.236-1.382,2.809,2.809,0,0,1,.835.121Zm3.8-2.514.083,1.123a3.528,3.528,0,0,1,2.885-1.308,2.677,2.677,0,0,1,2.663,1.531,3.447,3.447,0,0,1,3.015-1.531,2.994,2.994,0,0,1,2.431.951,4.371,4.371,0,0,1,.8,2.862V0h-2.69V-6.4a1.911,1.911,0,0,0-.334-1.248,1.48,1.48,0,0,0-1.178-.394,1.673,1.673,0,0,0-1.67,1.15L37.253,0H34.572V-6.392a1.888,1.888,0,0,0-.343-1.262,1.5,1.5,0,0,0-1.169-.39,1.738,1.738,0,0,0-1.651.946V0H28.727V-10.038ZM51.188-1.021A3.362,3.362,0,0,1,48.442.186a3.171,3.171,0,0,1-2.463-.928,3.96,3.96,0,0,1-.867-2.718v-6.578h2.681v6.492q0,1.57,1.429,1.57A1.936,1.936,0,0,0,51.1-2.924v-7.115h2.69V0H51.262ZM58.638,0h-2.69V-14.25h2.69Zm8.025,0a2.977,2.977,0,0,1-.269-.9A3.244,3.244,0,0,1,63.861.186a3.564,3.564,0,0,1-2.445-.854,2.745,2.745,0,0,1-.969-2.152A2.837,2.837,0,0,1,61.63-5.27a5.837,5.837,0,0,1,3.419-.863h1.234v-.575a1.654,1.654,0,0,0-.357-1.113A1.405,1.405,0,0,0,64.8-8.238a1.6,1.6,0,0,0-1.062.325,1.1,1.1,0,0,0-.385.891H60.669a2.693,2.693,0,0,1,.538-1.614A3.557,3.557,0,0,1,62.729-9.8a5.545,5.545,0,0,1,2.208-.422,4.381,4.381,0,0,1,2.946.932,3.262,3.262,0,0,1,1.09,2.621v4.351a4.8,4.8,0,0,0,.4,2.162V0ZM64.445-1.865a2.309,2.309,0,0,0,1.095-.264,1.737,1.737,0,0,0,.742-.71V-4.564h-1q-2.013,0-2.143,1.392l-.009.158a1.073,1.073,0,0,0,.353.826A1.369,1.369,0,0,0,64.445-1.865Zm10.762-.111a1.759,1.759,0,0,0,1.206-.408A1.43,1.43,0,0,0,76.9-3.47H79.41A3.439,3.439,0,0,1,78.853-1.6a3.673,3.673,0,0,1-1.5,1.317,4.689,4.689,0,0,1-2.1.469,4.358,4.358,0,0,1-3.4-1.368,5.415,5.415,0,0,1-1.243-3.781V-5.14a5.353,5.353,0,0,1,1.234-3.7,4.307,4.307,0,0,1,3.386-1.382,4.222,4.222,0,0,1,3.02,1.072A3.794,3.794,0,0,1,79.41-6.3H76.9a1.842,1.842,0,0,0-.482-1.273,1.608,1.608,0,0,0-1.225-.49,1.615,1.615,0,0,0-1.415.683A3.958,3.958,0,0,0,73.3-5.163v.279a4.008,4.008,0,0,0,.473,2.23A1.635,1.635,0,0,0,75.207-1.976ZM83.77,0H81.08V-10.038h2.69ZM80.922-12.636a1.32,1.32,0,0,1,.4-.993,1.516,1.516,0,0,1,1.1-.39,1.52,1.52,0,0,1,1.095.39,1.313,1.313,0,0,1,.408.993,1.316,1.316,0,0,1-.413,1,1.523,1.523,0,0,1-1.09.39,1.523,1.523,0,0,1-1.09-.39A1.316,1.316,0,0,1,80.922-12.636ZM85.56-5.112a5.953,5.953,0,0,1,.575-2.663,4.211,4.211,0,0,1,1.656-1.809,4.831,4.831,0,0,1,2.51-.64A4.571,4.571,0,0,1,93.618-8.98,4.989,4.989,0,0,1,95.051-5.6l.019.687a5.247,5.247,0,0,1-1.29,3.706,4.482,4.482,0,0,1-3.46,1.4,4.5,4.5,0,0,1-3.465-1.392A5.339,5.339,0,0,1,85.56-4.991Zm2.681.19a3.752,3.752,0,0,0,.538,2.188,1.775,1.775,0,0,0,1.54.757,1.779,1.779,0,0,0,1.521-.748,4.106,4.106,0,0,0,.547-2.393,3.715,3.715,0,0,0-.547-2.174,1.779,1.779,0,0,0-1.54-.771A1.75,1.75,0,0,0,88.78-7.3,4.175,4.175,0,0,0,88.242-4.921ZM90.83-14.25h2.922l-2.57,2.876H89Zm8.359,4.212.083,1.16a3.5,3.5,0,0,1,2.885-1.345,2.913,2.913,0,0,1,2.375.937,4.372,4.372,0,0,1,.8,2.8V0h-2.681V-6.42a1.739,1.739,0,0,0-.371-1.239,1.661,1.661,0,0,0-1.234-.385,1.844,1.844,0,0,0-1.7.965V0H96.665V-10.038ZM116.714.186a4.928,4.928,0,0,1-3.595-1.354,4.815,4.815,0,0,1-1.387-3.609v-.26a6.064,6.064,0,0,1,.584-2.7,4.289,4.289,0,0,1,1.656-1.837,4.648,4.648,0,0,1,2.445-.645,4.166,4.166,0,0,1,3.242,1.3,5.278,5.278,0,0,1,1.183,3.683v1.095H114.45a2.491,2.491,0,0,0,.784,1.577,2.37,2.37,0,0,0,1.656.594A2.894,2.894,0,0,0,119.311-3.1l1.317,1.475A4.025,4.025,0,0,1,119-.292,5.357,5.357,0,0,1,116.714.186Zm-.306-8.248a1.675,1.675,0,0,0-1.294.54,2.8,2.8,0,0,0-.635,1.547h3.729v-.214a2,2,0,0,0-.482-1.384A1.729,1.729,0,0,0,116.408-8.062ZM127.8-2.774a.864.864,0,0,0-.487-.775,5.533,5.533,0,0,0-1.563-.506q-3.581-.751-3.581-3.043a2.758,2.758,0,0,1,1.109-2.231,4.472,4.472,0,0,1,2.9-.9,4.813,4.813,0,0,1,3.057.9,2.836,2.836,0,0,1,1.146,2.338H127.7a1.3,1.3,0,0,0-.371-.951,1.57,1.57,0,0,0-1.16-.376,1.6,1.6,0,0,0-1.048.306.966.966,0,0,0-.371.779.826.826,0,0,0,.422.719,4.342,4.342,0,0,0,1.424.473,11.632,11.632,0,0,1,1.688.45,2.774,2.774,0,0,1,2.125,2.7,2.618,2.618,0,0,1-1.178,2.222,5.083,5.083,0,0,1-3.043.849,5.309,5.309,0,0,1-2.24-.45A3.759,3.759,0,0,1,122.41-1.5a2.867,2.867,0,0,1-.557-1.693H124.4a1.4,1.4,0,0,0,.529,1.095,2.1,2.1,0,0,0,1.317.38,1.941,1.941,0,0,0,1.164-.292A.909.909,0,0,0,127.8-2.774Zm7.542-9.732v2.468h1.716v1.967h-1.716v5.01a1.2,1.2,0,0,0,.213.8,1.072,1.072,0,0,0,.816.241,4.276,4.276,0,0,0,.789-.065V-.056a5.519,5.519,0,0,1-1.624.241,2.56,2.56,0,0,1-2.876-2.848V-8.071H131.2v-1.967h1.466v-2.468Zm8.851,4.982a7.284,7.284,0,0,0-.965-.074,1.964,1.964,0,0,0-1.995,1.03V0h-2.681V-10.038h2.533l.074,1.2a2.484,2.484,0,0,1,2.236-1.382,2.809,2.809,0,0,1,.835.121ZM150.755,0a2.977,2.977,0,0,1-.269-.9A3.244,3.244,0,0,1,147.954.186a3.564,3.564,0,0,1-2.445-.854,2.745,2.745,0,0,1-.969-2.152,2.837,2.837,0,0,1,1.183-2.449,5.837,5.837,0,0,1,3.419-.863h1.234v-.575a1.654,1.654,0,0,0-.357-1.113,1.405,1.405,0,0,0-1.127-.417,1.6,1.6,0,0,0-1.062.325,1.1,1.1,0,0,0-.385.891h-2.681a2.693,2.693,0,0,1,.538-1.614A3.557,3.557,0,0,1,146.822-9.8a5.545,5.545,0,0,1,2.208-.422,4.381,4.381,0,0,1,2.946.932,3.262,3.262,0,0,1,1.09,2.621v4.351a4.8,4.8,0,0,0,.4,2.162V0Zm-2.217-1.865a2.309,2.309,0,0,0,1.095-.264,1.737,1.737,0,0,0,.742-.71V-4.564h-1q-2.013,0-2.143,1.392l-.009.158a1.073,1.073,0,0,0,.353.826A1.369,1.369,0,0,0,148.538-1.865Zm9.8-10.641v2.468h1.716v1.967h-1.716v5.01a1.2,1.2,0,0,0,.213.8,1.072,1.072,0,0,0,.816.241,4.276,4.276,0,0,0,.789-.065V-.056a5.519,5.519,0,0,1-1.624.241,2.56,2.56,0,0,1-2.876-2.848V-8.071h-1.466v-1.967h1.466v-2.468ZM166.165.186a4.928,4.928,0,0,1-3.595-1.354,4.815,4.815,0,0,1-1.387-3.609v-.26a6.064,6.064,0,0,1,.584-2.7,4.289,4.289,0,0,1,1.656-1.837,4.648,4.648,0,0,1,2.445-.645,4.166,4.166,0,0,1,3.242,1.3,5.278,5.278,0,0,1,1.183,3.683v1.095H163.9a2.491,2.491,0,0,0,.784,1.577,2.37,2.37,0,0,0,1.656.594A2.894,2.894,0,0,0,168.763-3.1l1.317,1.475a4.025,4.025,0,0,1-1.633,1.331A5.357,5.357,0,0,1,166.165.186Zm-.306-8.248a1.675,1.675,0,0,0-1.294.54,2.8,2.8,0,0,0-.635,1.547h3.729v-.214a2,2,0,0,0-.482-1.384A1.729,1.729,0,0,0,165.859-8.062Zm.241-6.188h2.922l-2.57,2.876h-2.18Zm5.325,9.157a5.883,5.883,0,0,1,1.1-3.72,3.562,3.562,0,0,1,2.964-1.41,3.124,3.124,0,0,1,2.57,1.132l.111-.946H180.6v9.7a4.29,4.29,0,0,1-.6,2.292,3.843,3.843,0,0,1-1.684,1.484,5.919,5.919,0,0,1-2.542.51,5.5,5.5,0,0,1-2.152-.441,3.82,3.82,0,0,1-1.586-1.136L173.225.742a3.141,3.141,0,0,0,2.431,1.123,2.3,2.3,0,0,0,1.661-.571,2.14,2.14,0,0,0,.594-1.619V-.863A3.1,3.1,0,0,1,175.47.186a3.553,3.553,0,0,1-2.927-1.415,5.881,5.881,0,0,1-1.118-3.753Zm2.681.2a3.663,3.663,0,0,0,.547,2.142,1.741,1.741,0,0,0,1.5.776,1.862,1.862,0,0,0,1.753-.92V-7.124a1.857,1.857,0,0,0-1.735-.92,1.752,1.752,0,0,0-1.517.79A4.129,4.129,0,0,0,174.106-4.894ZM185.49,0H182.8V-10.038h2.69Zm-2.848-12.636a1.32,1.32,0,0,1,.4-.993,1.516,1.516,0,0,1,1.1-.39,1.52,1.52,0,0,1,1.095.39,1.313,1.313,0,0,1,.408.993,1.316,1.316,0,0,1-.413,1,1.523,1.523,0,0,1-1.09.39,1.523,1.523,0,0,1-1.09-.39A1.316,1.316,0,0,1,182.642-12.636Zm9.231,10.66a1.759,1.759,0,0,0,1.206-.408,1.43,1.43,0,0,0,.482-1.085h2.514a3.439,3.439,0,0,1-.557,1.869,3.673,3.673,0,0,1-1.5,1.317,4.689,4.689,0,0,1-2.1.469,4.358,4.358,0,0,1-3.4-1.368,5.415,5.415,0,0,1-1.243-3.781V-5.14a5.353,5.353,0,0,1,1.234-3.7,4.307,4.307,0,0,1,3.386-1.382,4.222,4.222,0,0,1,3.02,1.072A3.794,3.794,0,0,1,196.075-6.3h-2.514a1.842,1.842,0,0,0-.482-1.273,1.608,1.608,0,0,0-1.225-.49,1.615,1.615,0,0,0-1.415.683,3.958,3.958,0,0,0-.478,2.216v.279a4.008,4.008,0,0,0,.473,2.23A1.635,1.635,0,0,0,191.873-1.976ZM203.423,0a2.977,2.977,0,0,1-.269-.9A3.244,3.244,0,0,1,200.621.186a3.564,3.564,0,0,1-2.445-.854,2.745,2.745,0,0,1-.969-2.152A2.837,2.837,0,0,1,198.39-5.27a5.837,5.837,0,0,1,3.419-.863h1.234v-.575a1.654,1.654,0,0,0-.357-1.113,1.405,1.405,0,0,0-1.127-.417,1.6,1.6,0,0,0-1.062.325,1.1,1.1,0,0,0-.385.891H197.43a2.693,2.693,0,0,1,.538-1.614A3.557,3.557,0,0,1,199.489-9.8a5.545,5.545,0,0,1,2.208-.422,4.381,4.381,0,0,1,2.946.932,3.262,3.262,0,0,1,1.09,2.621v4.351a4.8,4.8,0,0,0,.4,2.162V0Zm-2.217-1.865a2.309,2.309,0,0,0,1.095-.264,1.737,1.737,0,0,0,.742-.71V-4.564h-1q-2.013,0-2.143,1.392l-.009.158a1.073,1.073,0,0,0,.353.826A1.369,1.369,0,0,0,201.206-1.865Z" transform="translate(185.424 558.322)" fill="#1e0b4a"/>
          </g>
        </g>
        <path id="Trazado_617012" data-name="Trazado 617012" d="M9.333-5.854H3.989v3.618h6.271V0H1.206V-13.508h9.036v2.254H3.989v3.219H9.333Zm7.821,3.08a.864.864,0,0,0-.487-.775A5.533,5.533,0,0,0,15.1-4.054Q11.522-4.806,11.522-7.1a2.758,2.758,0,0,1,1.109-2.231,4.472,4.472,0,0,1,2.9-.9,4.813,4.813,0,0,1,3.057.9,2.836,2.836,0,0,1,1.146,2.338H17.052a1.3,1.3,0,0,0-.371-.951,1.57,1.57,0,0,0-1.16-.376,1.6,1.6,0,0,0-1.048.306.966.966,0,0,0-.371.779.826.826,0,0,0,.422.719,4.342,4.342,0,0,0,1.424.473,11.632,11.632,0,0,1,1.688.45,2.774,2.774,0,0,1,2.125,2.7A2.618,2.618,0,0,1,18.583-.663,5.083,5.083,0,0,1,15.54.186a5.309,5.309,0,0,1-2.24-.45A3.759,3.759,0,0,1,11.764-1.5a2.867,2.867,0,0,1-.557-1.693h2.542A1.4,1.4,0,0,0,14.278-2.1a2.1,2.1,0,0,0,1.317.38,1.941,1.941,0,0,0,1.164-.292A.909.909,0,0,0,17.154-2.774ZM24.7-12.506v2.468h1.716v1.967H24.7v5.01a1.2,1.2,0,0,0,.213.8,1.072,1.072,0,0,0,.816.241,4.276,4.276,0,0,0,.789-.065V-.056a5.52,5.52,0,0,1-1.624.241,2.56,2.56,0,0,1-2.876-2.848V-8.071H20.549v-1.967h1.466v-2.468ZM33.723,0a2.977,2.977,0,0,1-.269-.9A3.244,3.244,0,0,1,30.921.186a3.564,3.564,0,0,1-2.445-.854,2.745,2.745,0,0,1-.969-2.152A2.837,2.837,0,0,1,28.69-5.27a5.837,5.837,0,0,1,3.419-.863h1.234v-.575a1.654,1.654,0,0,0-.357-1.113,1.405,1.405,0,0,0-1.127-.417,1.6,1.6,0,0,0-1.062.325,1.1,1.1,0,0,0-.385.891H27.73a2.693,2.693,0,0,1,.538-1.614A3.557,3.557,0,0,1,29.79-9.8,5.545,5.545,0,0,1,32-10.224a4.381,4.381,0,0,1,2.946.932,3.262,3.262,0,0,1,1.09,2.621v4.351a4.8,4.8,0,0,0,.4,2.162V0ZM31.506-1.865A2.309,2.309,0,0,0,32.6-2.129a1.737,1.737,0,0,0,.742-.71V-4.564h-1q-2.013,0-2.143,1.392l-.009.158a1.073,1.073,0,0,0,.353.826A1.369,1.369,0,0,0,31.506-1.865ZM47.138-4.926a6.078,6.078,0,0,1-1.03,3.762A3.411,3.411,0,0,1,43.232.186a3.134,3.134,0,0,1-2.607-1.252L40.5,0H38.093V-14.25h2.681v5.112a3.054,3.054,0,0,1,2.44-1.085,3.439,3.439,0,0,1,2.881,1.35,6.087,6.087,0,0,1,1.044,3.8Zm-2.681-.195a3.993,3.993,0,0,0-.482-2.222,1.631,1.631,0,0,0-1.438-.7A1.769,1.769,0,0,0,40.774-7v3.961a1.793,1.793,0,0,0,1.781,1.058,1.655,1.655,0,0,0,1.707-1.28A6.6,6.6,0,0,0,44.457-5.121ZM51.619,0h-2.69V-14.25h2.69Zm6.828.186a4.928,4.928,0,0,1-3.595-1.354,4.815,4.815,0,0,1-1.387-3.609v-.26a6.064,6.064,0,0,1,.584-2.7,4.289,4.289,0,0,1,1.656-1.837,4.648,4.648,0,0,1,2.445-.645,4.166,4.166,0,0,1,3.242,1.3,5.278,5.278,0,0,1,1.183,3.683v1.095H56.184a2.491,2.491,0,0,0,.784,1.577,2.37,2.37,0,0,0,1.656.594A2.894,2.894,0,0,0,61.045-3.1l1.317,1.475A4.025,4.025,0,0,1,60.729-.292,5.357,5.357,0,0,1,58.447.186Zm-.306-8.248a1.675,1.675,0,0,0-1.294.54,2.8,2.8,0,0,0-.635,1.547h3.729v-.214a2,2,0,0,0-.482-1.384A1.729,1.729,0,0,0,58.141-8.062ZM68.272-1.976a1.759,1.759,0,0,0,1.206-.408A1.43,1.43,0,0,0,69.96-3.47h2.514A3.439,3.439,0,0,1,71.918-1.6a3.673,3.673,0,0,1-1.5,1.317,4.689,4.689,0,0,1-2.1.469,4.358,4.358,0,0,1-3.4-1.368A5.415,5.415,0,0,1,63.68-4.963V-5.14a5.353,5.353,0,0,1,1.234-3.7A4.307,4.307,0,0,1,68.3-10.224a4.222,4.222,0,0,1,3.02,1.072A3.794,3.794,0,0,1,72.475-6.3H69.96a1.842,1.842,0,0,0-.482-1.273,1.608,1.608,0,0,0-1.225-.49,1.615,1.615,0,0,0-1.415.683,3.958,3.958,0,0,0-.478,2.216v.279a4.008,4.008,0,0,0,.473,2.23A1.635,1.635,0,0,0,68.272-1.976ZM78.625.186a4.928,4.928,0,0,1-3.595-1.354,4.815,4.815,0,0,1-1.387-3.609v-.26a6.064,6.064,0,0,1,.584-2.7,4.289,4.289,0,0,1,1.656-1.837,4.648,4.648,0,0,1,2.445-.645,4.166,4.166,0,0,1,3.242,1.3,5.278,5.278,0,0,1,1.183,3.683v1.095H76.362a2.491,2.491,0,0,0,.784,1.577,2.37,2.37,0,0,0,1.656.594A2.894,2.894,0,0,0,81.223-3.1l1.317,1.475A4.025,4.025,0,0,1,80.908-.292,5.357,5.357,0,0,1,78.625.186Zm-.306-8.248a1.675,1.675,0,0,0-1.294.54,2.8,2.8,0,0,0-.635,1.547h3.729v-.214a2,2,0,0,0-.482-1.384A1.729,1.729,0,0,0,78.319-8.062Zm11.6.538a7.284,7.284,0,0,0-.965-.074,1.964,1.964,0,0,0-1.995,1.03V0H84.275V-10.038h2.533l.074,1.2a2.484,2.484,0,0,1,2.236-1.382,2.809,2.809,0,0,1,.835.121ZM98.767,0h-2.69V-14.25h2.69Zm1.791-5.112a5.953,5.953,0,0,1,.575-2.663,4.211,4.211,0,0,1,1.656-1.809,4.831,4.831,0,0,1,2.51-.64,4.571,4.571,0,0,1,3.317,1.243A4.989,4.989,0,0,1,110.048-5.6l.019.687a5.247,5.247,0,0,1-1.29,3.706,4.482,4.482,0,0,1-3.46,1.4,4.5,4.5,0,0,1-3.465-1.392,5.339,5.339,0,0,1-1.294-3.785Zm2.681.19a3.752,3.752,0,0,0,.538,2.188,1.775,1.775,0,0,0,1.54.757,1.779,1.779,0,0,0,1.521-.748,4.106,4.106,0,0,0,.547-2.393,3.715,3.715,0,0,0-.547-2.174,1.779,1.779,0,0,0-1.54-.771,1.75,1.75,0,0,0-1.521.767A4.175,4.175,0,0,0,103.238-4.921Zm13.916,2.148a.864.864,0,0,0-.487-.775,5.533,5.533,0,0,0-1.563-.506q-3.581-.751-3.581-3.043a2.758,2.758,0,0,1,1.109-2.231,4.472,4.472,0,0,1,2.9-.9,4.813,4.813,0,0,1,3.057.9,2.836,2.836,0,0,1,1.146,2.338h-2.681a1.3,1.3,0,0,0-.371-.951,1.57,1.57,0,0,0-1.16-.376,1.6,1.6,0,0,0-1.048.306.966.966,0,0,0-.371.779.826.826,0,0,0,.422.719,4.342,4.342,0,0,0,1.424.473,11.632,11.632,0,0,1,1.688.45,2.774,2.774,0,0,1,2.125,2.7,2.618,2.618,0,0,1-1.178,2.222,5.083,5.083,0,0,1-3.043.849,5.309,5.309,0,0,1-2.24-.45A3.759,3.759,0,0,1,111.764-1.5a2.867,2.867,0,0,1-.557-1.693h2.542a1.4,1.4,0,0,0,.529,1.095,2.1,2.1,0,0,0,1.317.38,1.941,1.941,0,0,0,1.164-.292A.909.909,0,0,0,117.154-2.774ZM125.8-5.112a5.953,5.953,0,0,1,.575-2.663,4.211,4.211,0,0,1,1.656-1.809,4.831,4.831,0,0,1,2.51-.64,4.571,4.571,0,0,1,3.317,1.243A4.989,4.989,0,0,1,135.292-5.6l.019.687a5.247,5.247,0,0,1-1.29,3.706,4.482,4.482,0,0,1-3.46,1.4,4.5,4.5,0,0,1-3.465-1.392A5.339,5.339,0,0,1,125.8-4.991Zm2.681.19a3.752,3.752,0,0,0,.538,2.188,1.775,1.775,0,0,0,1.54.757,1.779,1.779,0,0,0,1.521-.748,4.106,4.106,0,0,0,.547-2.393,3.715,3.715,0,0,0-.547-2.174,1.779,1.779,0,0,0-1.54-.771,1.75,1.75,0,0,0-1.521.767A4.175,4.175,0,0,0,128.482-4.921Zm17.525,0a6.078,6.078,0,0,1-1.03,3.762A3.411,3.411,0,0,1,142.1.186a3.134,3.134,0,0,1-2.607-1.252L139.374,0h-2.412V-14.25h2.681v5.112a3.054,3.054,0,0,1,2.44-1.085,3.439,3.439,0,0,1,2.881,1.35,6.087,6.087,0,0,1,1.044,3.8Zm-2.681-.195a3.993,3.993,0,0,0-.482-2.222,1.631,1.631,0,0,0-1.438-.7A1.769,1.769,0,0,0,139.643-7v3.961a1.793,1.793,0,0,0,1.781,1.058,1.655,1.655,0,0,0,1.707-1.28A6.6,6.6,0,0,0,143.326-5.121Zm7.171-4.917V.547a3.591,3.591,0,0,1-.881,2.584,3.35,3.35,0,0,1-2.542.923,5.452,5.452,0,0,1-1.327-.158V1.772a5.033,5.033,0,0,0,.844.083q1.215,0,1.215-1.29v-10.6Zm-2.9-2.6a1.32,1.32,0,0,1,.4-.993,1.516,1.516,0,0,1,1.1-.39,1.516,1.516,0,0,1,1.1.39,1.32,1.32,0,0,1,.4.993,1.316,1.316,0,0,1-.413,1,1.523,1.523,0,0,1-1.09.39,1.523,1.523,0,0,1-1.09-.39A1.316,1.316,0,0,1,147.593-12.636ZM157.214.186a4.928,4.928,0,0,1-3.595-1.354,4.815,4.815,0,0,1-1.387-3.609v-.26a6.064,6.064,0,0,1,.584-2.7,4.289,4.289,0,0,1,1.656-1.837,4.648,4.648,0,0,1,2.445-.645,4.166,4.166,0,0,1,3.242,1.3,5.278,5.278,0,0,1,1.183,3.683v1.095H154.95a2.491,2.491,0,0,0,.784,1.577,2.37,2.37,0,0,0,1.656.594A2.894,2.894,0,0,0,159.812-3.1l1.317,1.475A4.025,4.025,0,0,1,159.5-.292,5.357,5.357,0,0,1,157.214.186Zm-.306-8.248a1.675,1.675,0,0,0-1.294.54,2.8,2.8,0,0,0-.635,1.547h3.729v-.214a2,2,0,0,0-.482-1.384A1.729,1.729,0,0,0,156.908-8.062Zm9.166-4.444v2.468h1.716v1.967h-1.716v5.01a1.2,1.2,0,0,0,.213.8,1.072,1.072,0,0,0,.816.241,4.276,4.276,0,0,0,.789-.065V-.056a5.519,5.519,0,0,1-1.624.241,2.56,2.56,0,0,1-2.876-2.848V-8.071h-1.466v-1.967h1.466v-2.468ZM172.113,0h-2.69V-10.038h2.69Zm-2.848-12.636a1.32,1.32,0,0,1,.4-.993,1.516,1.516,0,0,1,1.1-.39,1.52,1.52,0,0,1,1.095.39,1.313,1.313,0,0,1,.408.993,1.316,1.316,0,0,1-.413,1,1.523,1.523,0,0,1-1.09.39,1.523,1.523,0,0,1-1.09-.39A1.316,1.316,0,0,1,169.265-12.636Zm8.813,9.361,1.865-6.763h2.8L179.359,0H176.8l-3.386-10.038h2.8Zm5.155-1.837a5.953,5.953,0,0,1,.575-2.663,4.211,4.211,0,0,1,1.656-1.809,4.831,4.831,0,0,1,2.51-.64,4.571,4.571,0,0,1,3.317,1.243A4.989,4.989,0,0,1,192.724-5.6l.019.687a5.247,5.247,0,0,1-1.29,3.706,4.482,4.482,0,0,1-3.46,1.4,4.5,4.5,0,0,1-3.465-1.392,5.339,5.339,0,0,1-1.294-3.785Zm2.681.19a3.752,3.752,0,0,0,.538,2.188,1.775,1.775,0,0,0,1.54.757,1.779,1.779,0,0,0,1.521-.748,4.106,4.106,0,0,0,.547-2.393,3.715,3.715,0,0,0-.547-2.174,1.779,1.779,0,0,0-1.54-.771,1.75,1.75,0,0,0-1.521.767A4.175,4.175,0,0,0,185.915-4.921Zm13.916,2.148a.864.864,0,0,0-.487-.775,5.533,5.533,0,0,0-1.563-.506Q194.2-4.806,194.2-7.1a2.758,2.758,0,0,1,1.109-2.231,4.472,4.472,0,0,1,2.9-.9,4.813,4.813,0,0,1,3.057.9,2.836,2.836,0,0,1,1.146,2.338h-2.681a1.3,1.3,0,0,0-.371-.951,1.57,1.57,0,0,0-1.16-.376,1.6,1.6,0,0,0-1.048.306.966.966,0,0,0-.371.779.826.826,0,0,0,.422.719,4.343,4.343,0,0,0,1.424.473,11.632,11.632,0,0,1,1.688.45,2.774,2.774,0,0,1,2.125,2.7A2.618,2.618,0,0,1,201.26-.663a5.083,5.083,0,0,1-3.043.849,5.309,5.309,0,0,1-2.24-.45A3.759,3.759,0,0,1,194.441-1.5a2.867,2.867,0,0,1-.557-1.693h2.542a1.4,1.4,0,0,0,.529,1.095,2.1,2.1,0,0,0,1.317.38,1.941,1.941,0,0,0,1.164-.292A.909.909,0,0,0,199.831-2.774Z" transform="translate(191.698 117.976)" fill="#1e0b4a"/>
        <path id="Trazado_617013" data-name="Trazado 617013" d="M8.21-3.544a1.428,1.428,0,0,0-.557-1.211,7.3,7.3,0,0,0-2-.891,14.205,14.205,0,0,1-2.292-.923,3.744,3.744,0,0,1-2.3-3.349,3.262,3.262,0,0,1,.617-1.953,4.024,4.024,0,0,1,1.772-1.341,6.669,6.669,0,0,1,2.593-.482,6.071,6.071,0,0,1,2.579.524,4.107,4.107,0,0,1,1.758,1.48A3.872,3.872,0,0,1,11-9.519H8.22a1.821,1.821,0,0,0-.584-1.443,2.4,2.4,0,0,0-1.642-.515,2.567,2.567,0,0,0-1.586.431,1.361,1.361,0,0,0-.566,1.136A1.3,1.3,0,0,0,4.5-8.8a7.494,7.494,0,0,0,1.953.835A8.438,8.438,0,0,1,9.917-6.2,3.529,3.529,0,0,1,11-3.562,3.251,3.251,0,0,1,9.676-.812,5.808,5.808,0,0,1,6.1.186,6.9,6.9,0,0,1,3.266-.385,4.492,4.492,0,0,1,1.313-1.948a4,4,0,0,1-.673-2.3H3.433q0,2.236,2.672,2.236a2.6,2.6,0,0,0,1.549-.4A1.313,1.313,0,0,0,8.21-3.544ZM17.33.186a4.928,4.928,0,0,1-3.595-1.354,4.815,4.815,0,0,1-1.387-3.609v-.26a6.064,6.064,0,0,1,.584-2.7,4.289,4.289,0,0,1,1.656-1.837,4.648,4.648,0,0,1,2.445-.645,4.166,4.166,0,0,1,3.242,1.3,5.278,5.278,0,0,1,1.183,3.683v1.095H15.066A2.491,2.491,0,0,0,15.85-2.57a2.37,2.37,0,0,0,1.656.594A2.894,2.894,0,0,0,19.928-3.1l1.317,1.475A4.025,4.025,0,0,1,19.612-.292,5.357,5.357,0,0,1,17.33.186Zm-.306-8.248a1.675,1.675,0,0,0-1.294.54,2.8,2.8,0,0,0-.635,1.547h3.729v-.214a2,2,0,0,0-.482-1.384A1.729,1.729,0,0,0,17.024-8.062ZM25.81,0h-2.69V-14.25h2.69Zm6.828.186a4.928,4.928,0,0,1-3.595-1.354,4.815,4.815,0,0,1-1.387-3.609v-.26a6.064,6.064,0,0,1,.584-2.7A4.289,4.289,0,0,1,29.9-9.579a4.648,4.648,0,0,1,2.445-.645,4.166,4.166,0,0,1,3.242,1.3,5.278,5.278,0,0,1,1.183,3.683v1.095H30.374a2.491,2.491,0,0,0,.784,1.577,2.37,2.37,0,0,0,1.656.594A2.894,2.894,0,0,0,35.235-3.1l1.317,1.475A4.025,4.025,0,0,1,34.92-.292,5.357,5.357,0,0,1,32.638.186Zm-.306-8.248a1.675,1.675,0,0,0-1.294.54A2.8,2.8,0,0,0,30.4-5.975h3.729v-.214a2,2,0,0,0-.482-1.384A1.729,1.729,0,0,0,32.332-8.062ZM42.462-1.976a1.759,1.759,0,0,0,1.206-.408,1.43,1.43,0,0,0,.482-1.085h2.514A3.439,3.439,0,0,1,46.108-1.6a3.673,3.673,0,0,1-1.5,1.317,4.689,4.689,0,0,1-2.1.469,4.358,4.358,0,0,1-3.4-1.368A5.415,5.415,0,0,1,37.87-4.963V-5.14a5.353,5.353,0,0,1,1.234-3.7,4.307,4.307,0,0,1,3.386-1.382,4.222,4.222,0,0,1,3.02,1.072A3.794,3.794,0,0,1,46.665-6.3H44.151a1.842,1.842,0,0,0-.482-1.273,1.608,1.608,0,0,0-1.225-.49,1.615,1.615,0,0,0-1.415.683,3.958,3.958,0,0,0-.478,2.216v.279a4.008,4.008,0,0,0,.473,2.23A1.635,1.635,0,0,0,42.462-1.976Zm9.908,0a1.759,1.759,0,0,0,1.206-.408,1.43,1.43,0,0,0,.482-1.085h2.514A3.439,3.439,0,0,1,56.017-1.6a3.673,3.673,0,0,1-1.5,1.317,4.689,4.689,0,0,1-2.1.469,4.358,4.358,0,0,1-3.4-1.368,5.415,5.415,0,0,1-1.243-3.781V-5.14a5.353,5.353,0,0,1,1.234-3.7A4.307,4.307,0,0,1,52.4-10.224a4.222,4.222,0,0,1,3.02,1.072A3.794,3.794,0,0,1,56.573-6.3H54.059a1.842,1.842,0,0,0-.482-1.273,1.608,1.608,0,0,0-1.225-.49,1.615,1.615,0,0,0-1.415.683,3.958,3.958,0,0,0-.478,2.216v.279a4.008,4.008,0,0,0,.473,2.23A1.635,1.635,0,0,0,52.371-1.976ZM60.934,0h-2.69V-10.038h2.69ZM58.085-12.636a1.32,1.32,0,0,1,.4-.993,1.516,1.516,0,0,1,1.1-.39,1.52,1.52,0,0,1,1.095.39,1.313,1.313,0,0,1,.408.993,1.316,1.316,0,0,1-.413,1,1.523,1.523,0,0,1-1.09.39,1.523,1.523,0,0,1-1.09-.39A1.316,1.316,0,0,1,58.085-12.636Zm4.639,7.524A5.953,5.953,0,0,1,63.3-7.774a4.211,4.211,0,0,1,1.656-1.809,4.831,4.831,0,0,1,2.51-.64A4.571,4.571,0,0,1,70.781-8.98,4.989,4.989,0,0,1,72.215-5.6l.019.687a5.247,5.247,0,0,1-1.29,3.706,4.482,4.482,0,0,1-3.46,1.4,4.5,4.5,0,0,1-3.465-1.392,5.339,5.339,0,0,1-1.294-3.785Zm2.681.19a3.752,3.752,0,0,0,.538,2.188,1.775,1.775,0,0,0,1.54.757A1.779,1.779,0,0,0,69-2.724a4.106,4.106,0,0,0,.547-2.393A3.715,3.715,0,0,0,69-7.291a1.779,1.779,0,0,0-1.54-.771,1.75,1.75,0,0,0-1.521.767A4.175,4.175,0,0,0,65.405-4.921Zm10.947-5.117.083,1.16a3.5,3.5,0,0,1,2.885-1.345,2.913,2.913,0,0,1,2.375.937,4.372,4.372,0,0,1,.8,2.8V0H79.813V-6.42a1.739,1.739,0,0,0-.371-1.239,1.661,1.661,0,0,0-1.234-.385,1.844,1.844,0,0,0-1.7.965V0H73.829V-10.038ZM90.343,0a2.977,2.977,0,0,1-.269-.9A3.244,3.244,0,0,1,87.541.186,3.564,3.564,0,0,1,85.1-.668a2.745,2.745,0,0,1-.969-2.152A2.837,2.837,0,0,1,85.31-5.27a5.837,5.837,0,0,1,3.419-.863h1.234v-.575a1.654,1.654,0,0,0-.357-1.113,1.405,1.405,0,0,0-1.127-.417,1.6,1.6,0,0,0-1.062.325,1.1,1.1,0,0,0-.385.891H84.35a2.693,2.693,0,0,1,.538-1.614A3.557,3.557,0,0,1,86.409-9.8a5.545,5.545,0,0,1,2.208-.422,4.381,4.381,0,0,1,2.946.932,3.262,3.262,0,0,1,1.09,2.621v4.351a4.8,4.8,0,0,0,.4,2.162V0ZM88.125-1.865a2.309,2.309,0,0,0,1.095-.264,1.737,1.737,0,0,0,.742-.71V-4.564h-1q-2.013,0-2.143,1.392l-.009.158a1.073,1.073,0,0,0,.353.826A1.369,1.369,0,0,0,88.125-1.865Zm12.228-5.659a7.284,7.284,0,0,0-.965-.074,1.964,1.964,0,0,0-1.995,1.03V0H94.712V-10.038h2.533l.074,1.2a2.484,2.484,0,0,1,2.236-1.382,2.809,2.809,0,0,1,.835.121ZM110.994.186A4.928,4.928,0,0,1,107.4-1.169a4.815,4.815,0,0,1-1.387-3.609v-.26a6.064,6.064,0,0,1,.584-2.7,4.289,4.289,0,0,1,1.656-1.837,4.648,4.648,0,0,1,2.445-.645,4.166,4.166,0,0,1,3.242,1.3,5.278,5.278,0,0,1,1.183,3.683v1.095H108.73a2.491,2.491,0,0,0,.784,1.577,2.37,2.37,0,0,0,1.656.594A2.894,2.894,0,0,0,113.592-3.1l1.317,1.475a4.025,4.025,0,0,1-1.633,1.331A5.357,5.357,0,0,1,110.994.186Zm-.306-8.248a1.675,1.675,0,0,0-1.294.54,2.8,2.8,0,0,0-.635,1.547h3.729v-.214a2,2,0,0,0-.482-1.384A1.729,1.729,0,0,0,110.688-8.062ZM119.474,0h-2.69V-14.25h2.69Zm9.454-10.038.083,1.123a3.528,3.528,0,0,1,2.885-1.308,2.677,2.677,0,0,1,2.663,1.531,3.447,3.447,0,0,1,3.015-1.531A2.994,2.994,0,0,1,140-9.273a4.371,4.371,0,0,1,.8,2.862V0h-2.69V-6.4a1.911,1.911,0,0,0-.334-1.248,1.48,1.48,0,0,0-1.178-.394,1.673,1.673,0,0,0-1.67,1.15L134.939,0h-2.681V-6.392a1.888,1.888,0,0,0-.343-1.262,1.5,1.5,0,0,0-1.169-.39,1.738,1.738,0,0,0-1.651.946V0h-2.681V-10.038ZM147.482.186a4.928,4.928,0,0,1-3.595-1.354A4.815,4.815,0,0,1,142.5-4.778v-.26a6.064,6.064,0,0,1,.584-2.7,4.289,4.289,0,0,1,1.656-1.837,4.648,4.648,0,0,1,2.445-.645,4.166,4.166,0,0,1,3.242,1.3,5.278,5.278,0,0,1,1.183,3.683v1.095h-6.392A2.491,2.491,0,0,0,146-2.57a2.37,2.37,0,0,0,1.656.594A2.894,2.894,0,0,0,150.08-3.1L151.4-1.624a4.025,4.025,0,0,1-1.633,1.331A5.357,5.357,0,0,1,147.482.186Zm-.306-8.248a1.675,1.675,0,0,0-1.294.54,2.8,2.8,0,0,0-.635,1.547h3.729v-.214a2,2,0,0,0-.482-1.384A1.729,1.729,0,0,0,147.176-8.062Zm11.6.538a7.284,7.284,0,0,0-.965-.074,1.964,1.964,0,0,0-1.995,1.03V0h-2.681V-10.038h2.533l.074,1.2a2.484,2.484,0,0,1,2.236-1.382,2.809,2.809,0,0,1,.835.121Zm5.117,5.548a1.759,1.759,0,0,0,1.206-.408,1.43,1.43,0,0,0,.482-1.085h2.514a3.439,3.439,0,0,1-.557,1.869,3.673,3.673,0,0,1-1.5,1.317,4.689,4.689,0,0,1-2.1.469,4.358,4.358,0,0,1-3.4-1.368A5.415,5.415,0,0,1,159.3-4.963V-5.14a5.353,5.353,0,0,1,1.234-3.7,4.307,4.307,0,0,1,3.386-1.382,4.222,4.222,0,0,1,3.02,1.072A3.794,3.794,0,0,1,168.092-6.3h-2.514a1.842,1.842,0,0,0-.482-1.273,1.608,1.608,0,0,0-1.225-.49,1.615,1.615,0,0,0-1.415.683,3.958,3.958,0,0,0-.478,2.216v.279a4.008,4.008,0,0,0,.473,2.23A1.635,1.635,0,0,0,163.89-1.976ZM175.44,0a2.977,2.977,0,0,1-.269-.9A3.244,3.244,0,0,1,172.638.186a3.564,3.564,0,0,1-2.445-.854,2.745,2.745,0,0,1-.969-2.152,2.837,2.837,0,0,1,1.183-2.449,5.837,5.837,0,0,1,3.419-.863h1.234v-.575a1.654,1.654,0,0,0-.357-1.113,1.405,1.405,0,0,0-1.127-.417,1.6,1.6,0,0,0-1.062.325,1.1,1.1,0,0,0-.385.891h-2.681a2.693,2.693,0,0,1,.538-1.614A3.557,3.557,0,0,1,171.506-9.8a5.545,5.545,0,0,1,2.208-.422,4.381,4.381,0,0,1,2.946.932,3.262,3.262,0,0,1,1.09,2.621v4.351a4.8,4.8,0,0,0,.4,2.162V0Zm-2.217-1.865a2.309,2.309,0,0,0,1.095-.264,1.737,1.737,0,0,0,.742-.71V-4.564h-1q-2.013,0-2.143,1.392l-.009.158a1.073,1.073,0,0,0,.353.826A1.369,1.369,0,0,0,173.223-1.865Zm6.169-3.229a6.049,6.049,0,0,1,1.053-3.739,3.417,3.417,0,0,1,2.881-1.392,3.074,3.074,0,0,1,2.421,1.095V-14.25h2.69V0h-2.421l-.13-1.067A3.155,3.155,0,0,1,183.307.186a3.407,3.407,0,0,1-2.844-1.4A6.244,6.244,0,0,1,179.392-5.093Zm2.681.2a3.963,3.963,0,0,0,.492,2.165,1.6,1.6,0,0,0,1.429.753,1.794,1.794,0,0,0,1.753-1.05V-6.994a1.768,1.768,0,0,0-1.735-1.05Q182.073-8.043,182.073-4.894Zm8.025-.218a5.953,5.953,0,0,1,.575-2.663,4.211,4.211,0,0,1,1.656-1.809,4.831,4.831,0,0,1,2.51-.64,4.571,4.571,0,0,1,3.317,1.243A4.989,4.989,0,0,1,199.589-5.6l.019.687a5.247,5.247,0,0,1-1.29,3.706,4.482,4.482,0,0,1-3.46,1.4,4.5,4.5,0,0,1-3.465-1.392A5.339,5.339,0,0,1,190.1-4.991Zm2.681.19a3.752,3.752,0,0,0,.538,2.188,1.775,1.775,0,0,0,1.54.757,1.779,1.779,0,0,0,1.521-.748,4.106,4.106,0,0,0,.547-2.393,3.715,3.715,0,0,0-.547-2.174,1.779,1.779,0,0,0-1.54-.771,1.75,1.75,0,0,0-1.521.767A4.175,4.175,0,0,0,192.779-4.921Z" transform="translate(193.123 295.227)" fill="#1e0b4a"/>
        <path id="Trazado_617014" data-name="Trazado 617014" d="M1.206,0V-13.508H5.362a6.312,6.312,0,0,1,3.187.8,5.6,5.6,0,0,1,2.194,2.282,7.039,7.039,0,0,1,.789,3.363v.622a7.059,7.059,0,0,1-.775,3.349A5.548,5.548,0,0,1,8.572-.816,6.359,6.359,0,0,1,5.39,0ZM3.989-11.253v9.018H5.334A3.022,3.022,0,0,0,7.83-3.3a4.821,4.821,0,0,0,.881-3.052v-.714a4.9,4.9,0,0,0-.854-3.122,3.012,3.012,0,0,0-2.5-1.062ZM18,.186A4.928,4.928,0,0,1,14.4-1.169a4.815,4.815,0,0,1-1.387-3.609v-.26a6.064,6.064,0,0,1,.584-2.7,4.289,4.289,0,0,1,1.656-1.837,4.648,4.648,0,0,1,2.445-.645,4.166,4.166,0,0,1,3.242,1.3,5.278,5.278,0,0,1,1.183,3.683v1.095H15.734a2.491,2.491,0,0,0,.784,1.577,2.37,2.37,0,0,0,1.656.594A2.894,2.894,0,0,0,20.6-3.1l1.317,1.475A4.025,4.025,0,0,1,20.28-.292,5.357,5.357,0,0,1,18,.186Zm-.306-8.248a1.675,1.675,0,0,0-1.294.54,2.8,2.8,0,0,0-.635,1.547h3.729v-.214a2,2,0,0,0-.482-1.384A1.729,1.729,0,0,0,17.692-8.062ZM24.3,0V-8.071H22.8v-1.967H24.3V-10.5a3.764,3.764,0,0,1,1.164-2.918,4.684,4.684,0,0,1,3.233-1.025,10.724,10.724,0,0,1,3.043.547l-.39,2.217a11.872,11.872,0,0,0-1.41-.348,6.929,6.929,0,0,0-1.076-.079q-1.874,0-1.874,1.661v.408h1.976v1.967H26.988V0ZM32.99,0H30.3V-10.038h2.69Zm4.685-10.038.083,1.16a3.5,3.5,0,0,1,2.885-1.345,2.913,2.913,0,0,1,2.375.937,4.372,4.372,0,0,1,.8,2.8V0H41.136V-6.42a1.739,1.739,0,0,0-.371-1.239,1.661,1.661,0,0,0-1.234-.385,1.844,1.844,0,0,0-1.7.965V0H35.152V-10.038ZM48.678,0h-2.69V-10.038h2.69ZM45.83-12.636a1.32,1.32,0,0,1,.4-.993,1.516,1.516,0,0,1,1.1-.39,1.52,1.52,0,0,1,1.095.39,1.313,1.313,0,0,1,.408.993,1.316,1.316,0,0,1-.413,1,1.523,1.523,0,0,1-1.09.39,1.523,1.523,0,0,1-1.09-.39A1.316,1.316,0,0,1,45.83-12.636Zm10.7,5.112a7.284,7.284,0,0,0-.965-.074,1.964,1.964,0,0,0-1.995,1.03V0H50.886V-10.038h2.533l.074,1.2a2.484,2.484,0,0,1,2.236-1.382,2.809,2.809,0,0,1,.835.121ZM65.377,0h-2.69V-14.25h2.69ZM73.4,0a2.977,2.977,0,0,1-.269-.9A3.244,3.244,0,0,1,70.6.186a3.564,3.564,0,0,1-2.445-.854,2.745,2.745,0,0,1-.969-2.152A2.837,2.837,0,0,1,68.369-5.27a5.837,5.837,0,0,1,3.419-.863h1.234v-.575a1.654,1.654,0,0,0-.357-1.113,1.405,1.405,0,0,0-1.127-.417,1.6,1.6,0,0,0-1.062.325,1.1,1.1,0,0,0-.385.891H67.409a2.693,2.693,0,0,1,.538-1.614A3.557,3.557,0,0,1,69.469-9.8a5.545,5.545,0,0,1,2.208-.422,4.381,4.381,0,0,1,2.946.932,3.262,3.262,0,0,1,1.09,2.621v4.351a4.8,4.8,0,0,0,.4,2.162V0ZM71.185-1.865a2.309,2.309,0,0,0,1.095-.264,1.737,1.737,0,0,0,.742-.71V-4.564h-1q-2.013,0-2.143,1.392l-.009.158a1.073,1.073,0,0,0,.353.826A1.369,1.369,0,0,0,71.185-1.865ZM87.124.186a4.928,4.928,0,0,1-3.595-1.354,4.815,4.815,0,0,1-1.387-3.609v-.26a6.064,6.064,0,0,1,.584-2.7,4.289,4.289,0,0,1,1.656-1.837,4.648,4.648,0,0,1,2.445-.645,4.166,4.166,0,0,1,3.242,1.3,5.278,5.278,0,0,1,1.183,3.683v1.095H84.86a2.491,2.491,0,0,0,.784,1.577,2.37,2.37,0,0,0,1.656.594A2.894,2.894,0,0,0,89.721-3.1l1.317,1.475A4.025,4.025,0,0,1,89.406-.292,5.357,5.357,0,0,1,87.124.186Zm-.306-8.248a1.675,1.675,0,0,0-1.294.54,2.8,2.8,0,0,0-.635,1.547h3.729v-.214a2,2,0,0,0-.482-1.384A1.729,1.729,0,0,0,86.817-8.062ZM98.21-2.774a.864.864,0,0,0-.487-.775,5.533,5.533,0,0,0-1.563-.506Q92.579-4.806,92.579-7.1a2.758,2.758,0,0,1,1.109-2.231,4.472,4.472,0,0,1,2.9-.9,4.813,4.813,0,0,1,3.057.9,2.836,2.836,0,0,1,1.146,2.338H98.108a1.3,1.3,0,0,0-.371-.951,1.57,1.57,0,0,0-1.16-.376,1.6,1.6,0,0,0-1.048.306.966.966,0,0,0-.371.779.826.826,0,0,0,.422.719A4.342,4.342,0,0,0,97-6.035a11.632,11.632,0,0,1,1.688.45,2.774,2.774,0,0,1,2.125,2.7A2.618,2.618,0,0,1,99.639-.663,5.083,5.083,0,0,1,96.6.186a5.309,5.309,0,0,1-2.24-.45A3.759,3.759,0,0,1,92.82-1.5a2.867,2.867,0,0,1-.557-1.693h2.542A1.4,1.4,0,0,0,95.334-2.1a2.1,2.1,0,0,0,1.317.38,1.941,1.941,0,0,0,1.164-.292A.909.909,0,0,0,98.21-2.774Zm7.542-9.732v2.468h1.716v1.967h-1.716v5.01a1.2,1.2,0,0,0,.213.8,1.072,1.072,0,0,0,.816.241,4.276,4.276,0,0,0,.789-.065V-.056a5.52,5.52,0,0,1-1.624.241,2.56,2.56,0,0,1-2.876-2.848V-8.071h-1.466v-1.967h1.466v-2.468ZM114.6-7.524a7.284,7.284,0,0,0-.965-.074,1.964,1.964,0,0,0-1.995,1.03V0h-2.681V-10.038H111.5l.074,1.2a2.484,2.484,0,0,1,2.236-1.382,2.809,2.809,0,0,1,.835.121ZM121.165,0a2.977,2.977,0,0,1-.269-.9A3.244,3.244,0,0,1,118.363.186a3.564,3.564,0,0,1-2.445-.854,2.745,2.745,0,0,1-.969-2.152,2.837,2.837,0,0,1,1.183-2.449,5.837,5.837,0,0,1,3.419-.863h1.234v-.575a1.654,1.654,0,0,0-.357-1.113,1.405,1.405,0,0,0-1.127-.417,1.6,1.6,0,0,0-1.062.325,1.1,1.1,0,0,0-.385.891h-2.681a2.693,2.693,0,0,1,.538-1.614A3.557,3.557,0,0,1,117.232-9.8a5.545,5.545,0,0,1,2.208-.422,4.381,4.381,0,0,1,2.946.932,3.262,3.262,0,0,1,1.09,2.621v4.351a4.8,4.8,0,0,0,.4,2.162V0Zm-2.217-1.865a2.309,2.309,0,0,0,1.095-.264,1.737,1.737,0,0,0,.742-.71V-4.564h-1q-2.013,0-2.143,1.392l-.009.158a1.073,1.073,0,0,0,.353.826A1.369,1.369,0,0,0,118.948-1.865Zm9.8-10.641v2.468h1.716v1.967h-1.716v5.01a1.2,1.2,0,0,0,.213.8,1.072,1.072,0,0,0,.816.241,4.276,4.276,0,0,0,.789-.065V-.056a5.519,5.519,0,0,1-1.624.241,2.56,2.56,0,0,1-2.876-2.848V-8.071H124.6v-1.967h1.466v-2.468ZM136.575.186a4.928,4.928,0,0,1-3.595-1.354,4.815,4.815,0,0,1-1.387-3.609v-.26a6.064,6.064,0,0,1,.584-2.7,4.289,4.289,0,0,1,1.656-1.837,4.648,4.648,0,0,1,2.445-.645,4.166,4.166,0,0,1,3.242,1.3A5.278,5.278,0,0,1,140.7-5.242v1.095h-6.392A2.491,2.491,0,0,0,135.1-2.57a2.37,2.37,0,0,0,1.656.594A2.894,2.894,0,0,0,139.172-3.1l1.317,1.475a4.025,4.025,0,0,1-1.633,1.331A5.357,5.357,0,0,1,136.575.186Zm-.306-8.248a1.675,1.675,0,0,0-1.294.54,2.8,2.8,0,0,0-.635,1.547h3.729v-.214a2,2,0,0,0-.482-1.384A1.729,1.729,0,0,0,136.269-8.062Zm5.566,2.969a5.883,5.883,0,0,1,1.1-3.72,3.562,3.562,0,0,1,2.964-1.41,3.124,3.124,0,0,1,2.57,1.132l.111-.946h2.431v9.7a4.29,4.29,0,0,1-.6,2.292,3.843,3.843,0,0,1-1.684,1.484,5.919,5.919,0,0,1-2.542.51,5.5,5.5,0,0,1-2.152-.441,3.82,3.82,0,0,1-1.586-1.136L143.635.742a3.141,3.141,0,0,0,2.431,1.123,2.3,2.3,0,0,0,1.661-.571,2.14,2.14,0,0,0,.594-1.619V-.863A3.1,3.1,0,0,1,145.88.186a3.553,3.553,0,0,1-2.927-1.415,5.881,5.881,0,0,1-1.118-3.753Zm2.681.2a3.663,3.663,0,0,0,.547,2.142,1.741,1.741,0,0,0,1.5.776,1.862,1.862,0,0,0,1.753-.92V-7.124a1.857,1.857,0,0,0-1.735-.92,1.752,1.752,0,0,0-1.517.79A4.129,4.129,0,0,0,144.516-4.894ZM155.9,0h-2.69V-10.038h2.69Zm-2.848-12.636a1.32,1.32,0,0,1,.4-.993,1.516,1.516,0,0,1,1.1-.39,1.52,1.52,0,0,1,1.095.39,1.313,1.313,0,0,1,.408.993,1.316,1.316,0,0,1-.413,1,1.523,1.523,0,0,1-1.09.39,1.523,1.523,0,0,1-1.09-.39A1.316,1.316,0,0,1,153.051-12.636ZM163.924,0a2.977,2.977,0,0,1-.269-.9A3.244,3.244,0,0,1,161.123.186a3.564,3.564,0,0,1-2.445-.854,2.745,2.745,0,0,1-.969-2.152,2.837,2.837,0,0,1,1.183-2.449,5.837,5.837,0,0,1,3.419-.863h1.234v-.575a1.654,1.654,0,0,0-.357-1.113,1.405,1.405,0,0,0-1.127-.417A1.6,1.6,0,0,0,161-7.914a1.1,1.1,0,0,0-.385.891h-2.681a2.693,2.693,0,0,1,.538-1.614A3.557,3.557,0,0,1,159.991-9.8a5.545,5.545,0,0,1,2.208-.422,4.381,4.381,0,0,1,2.946.932,3.262,3.262,0,0,1,1.09,2.621v4.351a4.8,4.8,0,0,0,.4,2.162V0Zm-2.217-1.865a2.309,2.309,0,0,0,1.095-.264,1.737,1.737,0,0,0,.742-.71V-4.564h-1q-2.013,0-2.143,1.392l-.009.158a1.073,1.073,0,0,0,.353.826A1.369,1.369,0,0,0,161.707-1.865Z" transform="translate(209.406 464.156)" fill="#1e0b4a"/>
      </g>
    </g>
  </g>
</svg>
