<svg xmlns="http://www.w3.org/2000/svg" xmlns:xlink="http://www.w3.org/1999/xlink" width="820" height="601" viewBox="0 0 820 601">
  <defs>
    <linearGradient id="linear-gradient" x1="0.5" x2="0.5" y2="1" gradientUnits="objectBoundingBox">
      <stop offset="0" stop-color="#cce4ff"/>
      <stop offset="1" stop-color="#d1f3f5"/>
    </linearGradient>
    <clipPath id="clip-path">
      <path id="Trazado_873245" data-name="Trazado 873245" d="M83.3,43.052S87.078,60.627,84.339,65.2s20.433-.134,20.433-.134L101.9,38.4Z" transform="translate(-83.304 -38.396)" fill="none"/>
    </clipPath>
    <linearGradient id="linear-gradient-2" x1="-8.284" y1="5.274" x2="-8.181" y2="5.274" gradientUnits="objectBoundingBox">
      <stop offset="0" stop-color="#ffaf99"/>
      <stop offset="0.006" stop-color="#ffaf99"/>
      <stop offset="1" stop-color="#ed6f5f"/>
    </linearGradient>
    <clipPath id="clip-path-2">
      <rect id="Rectángulo_400946" data-name="Rectángulo 400946" width="389.391" height="340.11" fill="none"/>
    </clipPath>
    <clipPath id="clip-path-3">
      <path id="Trazado_873253" data-name="Trazado 873253" d="M156.936,46.667l-39.29,35.251L78.712,57.624l-16.6,7.507s-2.985,80.748,88.564,106.484l22.314,19.79s32.949,16.921,47.244-1.954c18.345-24.225-9.316-143.33-57.566-143.34a29.943,29.943,0,0,0-5.735.556" transform="translate(-62.103 -46.111)" fill="none"/>
    </clipPath>
    <linearGradient id="linear-gradient-3" x1="-1.24" y1="1.065" x2="-1.22" y2="1.065" gradientUnits="objectBoundingBox">
      <stop offset="0" stop-color="#fbfadc"/>
      <stop offset="0.418" stop-color="#fbfadc"/>
      <stop offset="0.994" stop-color="#b2e9df"/>
      <stop offset="1" stop-color="#b2e9df"/>
    </linearGradient>
    <clipPath id="clip-path-5">
      <path id="Trazado_873255" data-name="Trazado 873255" d="M77.022,188.957c-.915,8.3-3.367,23.07-4.878,27.584H180.625s-5.964-26.658-2.96-56.022c6.792-66.38-5.742-102.3-44.952-114.18L110.079,43.8Z" transform="translate(-72.144 -43.797)" fill="none"/>
    </clipPath>
    <linearGradient id="linear-gradient-4" x1="-2.333" y1="1.048" x2="-2.301" y2="1.048" gradientUnits="objectBoundingBox">
      <stop offset="0" stop-color="#fbfadc"/>
      <stop offset="0.18" stop-color="#fbfadc"/>
      <stop offset="0.994" stop-color="#b2e9df"/>
      <stop offset="1" stop-color="#b2e9df"/>
    </linearGradient>
    <clipPath id="clip-path-7">
      <rect id="Rectángulo_400951" data-name="Rectángulo 400951" width="108.484" height="115.676" fill="none"/>
    </clipPath>
    <clipPath id="clip-path-8">
      <path id="Trazado_873256" data-name="Trazado 873256" d="M178.976,165.729C131.406,156.776,127.716,59.51,127.716,59.51S106.763,87.051,84,116.945L77.022,147.6c-.915,8.3-3.367,23.07-4.878,27.584H180.629s-.8-3.548-1.653-9.458" transform="translate(-72.144 -59.51)" fill="none"/>
    </clipPath>
    <linearGradient id="linear-gradient-5" x1="-2.415" y1="1.072" x2="-2.382" y2="1.072" gradientUnits="objectBoundingBox">
      <stop offset="0" stop-color="gray"/>
      <stop offset="0.006" stop-color="gray"/>
      <stop offset="1"/>
    </linearGradient>
    <clipPath id="clip-path-9">
      <path id="Trazado_873259" data-name="Trazado 873259" d="M62.949,0a2.829,2.829,0,0,0-2.695,2.822V121.688a2.828,2.828,0,0,0,2.829,2.829H181.945a2.833,2.833,0,0,0,2.829-2.829V2.823A2.832,2.832,0,0,0,182.079,0Z" transform="translate(-60.254 -0.001)" fill="none"/>
    </clipPath>
    <linearGradient id="linear-gradient-6" x1="-1.757" y1="2.731" x2="-1.728" y2="2.731" gradientUnits="objectBoundingBox">
      <stop offset="0" stop-color="#364bb3"/>
      <stop offset="1" stop-color="#1f76cc"/>
    </linearGradient>
    <clipPath id="clip-path-11">
      <path id="Trazado_873262" data-name="Trazado 873262" d="M62.122,41.2c-2.557,1.8,1.569,9.428,1.569,9.428L58.6,49.639c-1.987,5.012,1.376,10.271,3.138,13.046.2.309,3.389,2.2,3.479,2.353.581,1,7.721,15.134,7.721,15.134s2.778,0,9.6-2.855c6.512-2.728,7-4.652,7-4.652S88.951,59,88.032,55.1L77.794,53.289a63.44,63.44,0,0,1-6.29-7.427L84.251,48.11A10.555,10.555,0,0,0,82.083,45.5c-4.267-3.545-11.807-3.737-13.739-3.719A6.666,6.666,0,0,0,64.61,40.4a4.251,4.251,0,0,0-2.488.8" transform="translate(-57.99 -40.396)" fill="none"/>
    </clipPath>
    <linearGradient id="linear-gradient-7" x1="-4.065" y1="3.874" x2="-3.991" y2="3.874" xlink:href="#linear-gradient-2"/>
    <clipPath id="clip-path-13">
      <path id="Trazado_873277" data-name="Trazado 873277" d="M105.6,115.874c-4.275-15.327-29.974-58.5-29.974-58.5L53.592,61.774S19.9,202.147,87.122,219.969c97.673,25.9,111.049-103.724,112.335-129.913.585-11.96,5.208-40.518-14.219-44.582a46.317,46.317,0,0,0-9.621-1.119c-16.107,0-39.2,10.591-70.019,71.519" transform="translate(-45.148 -44.355)" fill="none"/>
    </clipPath>
    <linearGradient id="linear-gradient-8" x1="-0.751" y1="0.887" x2="-0.731" y2="0.887" xlink:href="#linear-gradient-3"/>
    <clipPath id="clip-path-15">
      <path id="Trazado_873279" data-name="Trazado 873279" d="M47.575,41.067a8.525,8.525,0,0,0-.084,3.872c-1.257.621-3.977,2.626-2.909,7.936,1.2,5.974,11.139,25.718,11.139,25.718a30.371,30.371,0,0,0,10.6,0A45.743,45.743,0,0,0,77.752,74.2c.436-.087,1.126-7.928.4-13.355-.472-3.53-4.2-15.018-6.007-18.712a4.023,4.023,0,0,0-5.154-2.3c-4,1.264-.657,11.942.109,14.2.646,1.918.879,3.3-1.242,4.264-1.791.8-3.552-2.5-4.62-4.475-.516-.93-9.9-15.857-9.9-15.857-2.361.178-3.269,1.188-3.766,3.1" transform="translate(-44.339 -37.965)" fill="none"/>
    </clipPath>
    <linearGradient id="linear-gradient-9" x1="-3.354" y1="4.104" x2="-3.275" y2="4.104" xlink:href="#linear-gradient-2"/>
    <clipPath id="clip-path-17">
      <path id="Trazado_873281" data-name="Trazado 873281" d="M81.288,61.832c4.754,2.59,12.312.821,19.463-4.9L98.02,46.807a21.374,21.374,0,0,0,1.722-4.6,12.75,12.75,0,0,0,.323-2.452,4.922,4.922,0,0,0-.817-2.985l-.479-2.255c-.679-.167-1.351-.36-2.019-.563-.966-.312-1.605-.53-2.237-.77.919,8.07-.218,24.014-13.224,28.652" transform="translate(-81.288 -33.18)" fill="none"/>
    </clipPath>
    <linearGradient id="linear-gradient-10" x1="-8.204" y1="8.204" x2="-8.101" y2="8.204" xlink:href="#linear-gradient-2"/>
    <clipPath id="clip-path-19">
      <rect id="Rectángulo_400968" data-name="Rectángulo 400968" width="154.116" height="136.888" fill="none"/>
    </clipPath>
    <clipPath id="clip-path-20">
      <path id="Trazado_873286" data-name="Trazado 873286" d="M199.159,59.573c.054-1.111.131-2.328.218-3.636,0,0-21.2,117.75-87.747,116.584-44.2-.777-61.96-33.246-66.369-54.98.058.973.127,1.939.2,2.9.094,1.22.178,2.154.265,3.083.12,1.253.214,2.2.32,3.145.123,1.086.24,2.056.37,3.029s.258,1.9.4,2.829c.182,1.213.327,2.107.479,3,.218,1.242.381,2.143.556,3.033.218,1.093.407,2,.607,2.913.2.937.41,1.82.625,2.695.291,1.17.508,2.008.734,2.84.334,1.2.574,2.034.824,2.862.327,1.061.6,1.9.875,2.735.3.879.588,1.689.886,2.5.41,1.1.712,1.863,1.021,2.619.465,1.122.788,1.874,1.122,2.622.458,1,.814,1.747,1.184,2.488.4.8.777,1.518,1.169,2.234.552,1,.941,1.674,1.34,2.339.617,1.006,1.031,1.663,1.464,2.31.6.893,1.057,1.544,1.529,2.179.5.686.992,1.308,1.485,1.921.7.853,1.188,1.424,1.689,1.979.781.857,1.3,1.4,1.834,1.932.77.759,1.337,1.293,1.914,1.812.621.548,1.22,1.05,1.83,1.536.861.679,1.46,1.126,2.074,1.562.959.668,1.591,1.09,2.237,1.489.955.581,1.645.984,2.346,1.366.734.392,1.46.752,2.2,1.1,1.028.479,1.751.784,2.488,1.079,1.151.45,1.9.723,2.673.977,1.159.374,1.983.621,2.826.843.93.247,1.852.472,2.775.7.527.123,1.053.251,1.576.367C184.93,211.19,197.9,85.341,199.159,59.573" transform="translate(-45.261 -55.937)" fill="none"/>
    </clipPath>
    <linearGradient id="linear-gradient-11" x1="-1.067" y1="0.882" x2="-1.043" y2="0.882" xlink:href="#linear-gradient-5"/>
    <clipPath id="clip-path-21">
      <path id="Trazado_873290" data-name="Trazado 873290" d="M9.995,61.808a47.233,47.233,0,0,0,47.229,47.237c.4,0,.784-.018,1.18-.036v-47.2h-1.18V14.575A47.23,47.23,0,0,0,9.995,61.808" transform="translate(-9.995 -14.575)" fill="none"/>
    </clipPath>
    <linearGradient id="linear-gradient-12" x1="-0.75" y1="3.04" x2="-0.675" y2="3.04" gradientUnits="objectBoundingBox">
      <stop offset="0" stop-color="#ff6a48"/>
      <stop offset="0.194" stop-color="#ff6a48"/>
      <stop offset="1" stop-color="#f53"/>
    </linearGradient>
    <clipPath id="clip-path-22">
      <path id="Trazado_873294" data-name="Trazado 873294" d="M5.7,11.284A10.118,10.118,0,1,0,15.819,1.162,10.12,10.12,0,0,0,5.7,11.284" transform="translate(-5.701 -1.162)" fill="none"/>
    </clipPath>
    <linearGradient id="linear-gradient-13" x1="-1.023" y1="16.595" x2="-0.844" y2="16.595" xlink:href="#linear-gradient-12"/>
    <clipPath id="clip-path-23">
      <path id="Trazado_873295" data-name="Trazado 873295" d="M8.822,4.15a1.532,1.532,0,0,0-.548,2.092L35.143,52.091a15.7,15.7,0,0,1,2.669-1.5L10.918,4.691a1.551,1.551,0,0,0-1.326-.752,1.528,1.528,0,0,0-.77.211" transform="translate(-8.066 -3.939)" fill="none"/>
    </clipPath>
    <linearGradient id="linear-gradient-14" x1="-0.97" y1="6.767" x2="-0.849" y2="6.767" xlink:href="#linear-gradient-12"/>
    <clipPath id="clip-path-25">
      <rect id="Rectángulo_379074" data-name="Rectángulo 379074" width="527.407" height="506.556" fill="none"/>
    </clipPath>
    <clipPath id="clip-path-27">
      <rect id="Rectángulo_379070" data-name="Rectángulo 379070" width="372.081" height="27.369" fill="none"/>
    </clipPath>
    <clipPath id="clip-path-28">
      <rect id="Rectángulo_379071" data-name="Rectángulo 379071" width="441.79" height="27.369" fill="none"/>
    </clipPath>
    <clipPath id="clip-path-29">
      <rect id="Rectángulo_379072" data-name="Rectángulo 379072" width="527.1" height="26.802" fill="none"/>
    </clipPath>
    <clipPath id="clip-path-30">
      <rect id="Rectángulo_400978" data-name="Rectángulo 400978" width="31.949" height="42.508" fill="none"/>
    </clipPath>
    <clipPath id="clip-path-31">
      <rect id="Rectángulo_400979" data-name="Rectángulo 400979" width="53.767" height="53.767" fill="none"/>
    </clipPath>
  </defs>
  <g id="img1" transform="translate(-390 -539)">
    <rect id="Rectángulo_378977" data-name="Rectángulo 378977" width="820" height="601" transform="translate(390 539)" fill="url(#linear-gradient)"/>
    <path id="Trazado_615639" data-name="Trazado 615639" d="M591.416,176.61a.988.988,0,0,0-.805-1.107c-1.73-.6-3.456-1.215-5.147-1.909a2.05,2.05,0,0,1-.969-1.012c-.709-1.644-1.354-3.317-1.972-5a1.628,1.628,0,0,1,0-1.116c.835-1.858,1.754-3.68,2.584-5.54a1.166,1.166,0,0,0-.138-1.033c-1.395-1.49-2.862-2.911-4.274-4.384a.84.84,0,0,0-1.16-.188c-1.763.875-3.539,1.727-5.336,2.53a1.785,1.785,0,0,1-1.215.056q-2.577-.928-5.1-2a1.894,1.894,0,0,1-.963-.889c-.7-1.728-1.324-3.486-1.926-5.249-.194-.566-.422-.84-1.083-.824-1.971.049-3.944.045-5.916,0a.985.985,0,0,0-1.1.811c-.593,1.73-1.264,3.433-1.853,5.166a1.525,1.525,0,0,1-1.1,1.056c-1.628.565-3.236,1.2-4.8,1.921a1.541,1.541,0,0,1-1.524-.013c-1.728-.87-3.489-1.671-5.219-2.537a.9.9,0,0,0-1.249.218c-1.364,1.423-2.755,2.825-4.185,4.182a.955.955,0,0,0-.183,1.34c.858,1.734,1.7,3.478,2.474,5.25a1.789,1.789,0,0,1-.033,1.283q-1.08,2.518-2.307,4.971a2.113,2.113,0,0,1-1,.987c-1.839.7-3.708,1.324-5.579,1.934a.969.969,0,0,0-.82,1.089c.045,1.971.038,3.944,0,5.917a.9.9,0,0,0,.735,1.03c1.906.615,3.809,1.249,5.68,1.962a2.089,2.089,0,0,1,.974,1.016c.755,1.587,1.378,3.238,2.167,4.806a1.7,1.7,0,0,1,.038,1.725c-.818,1.638-1.563,3.311-2.376,4.951a.968.968,0,0,0,.211,1.338q2.141,2.039,4.183,4.184a.955.955,0,0,0,1.334.192c1.7-.844,3.435-1.626,5.137-2.469a1.511,1.511,0,0,1,1.524.039c1.635.808,3.341,1.475,4.993,2.255a1.781,1.781,0,0,1,.841.88c.7,1.875,1.35,3.771,1.977,5.674a.918.918,0,0,0,1.039.745c1.972-.033,3.945-.039,5.917,0a.949.949,0,0,0,1.083-.808c.6-1.874,1.243-3.736,1.944-5.574a1.93,1.93,0,0,1,.931-.937q2.53-1.182,5.122-2.223a1.709,1.709,0,0,1,1.206-.023c2.014.894,4,1.858,6.069,2.833,1.621-1.643,3.241-3.25,4.8-4.911a1.181,1.181,0,0,0,.094-1.048c-.8-1.8-1.691-3.557-2.5-5.35a1.7,1.7,0,0,1-.08-1.138c.61-1.757,1.258-3.5,1.964-5.222a1.879,1.879,0,0,1,.922-.941c1.727-.7,3.484-1.331,5.246-1.943a.922.922,0,0,0,.725-1.049c-.035-1.971-.04-3.945,0-5.916m-30.481,14.48a11.53,11.53,0,1,1,11.544-11.516,11.493,11.493,0,0,1-11.544,11.516" transform="translate(-116.417 411.096)" fill="#3656b3"/>
    <path id="Trazado_873311" data-name="Trazado 873311" d="M107.693,11.588l-8.146,12.8h16.293Z" transform="translate(406.604 760.514)" fill="#ffb850"/>
    <path id="Trazado_873312" data-name="Trazado 873312" d="M117.6,11.588,99.546,39.94h36.1Z" transform="translate(1171.885 763.615) rotate(-135)" fill="#ffb850"/>
    <g id="Grupo_1099571" data-name="Grupo 1099571" transform="translate(1123.161 936.986)">
      <g id="Grupo_1099570" data-name="Grupo 1099570" clip-path="url(#clip-path)">
        <rect id="Rectángulo_400945" data-name="Rectángulo 400945" width="35.57" height="38.705" transform="translate(-15.103 7.525) rotate(-29.318)" fill="url(#linear-gradient-2)"/>
      </g>
    </g>
    <g id="Grupo_1099573" data-name="Grupo 1099573" transform="translate(820.609 797.534)">
      <g id="Grupo_1099572" data-name="Grupo 1099572" clip-path="url(#clip-path-2)">
        <path id="Trazado_873246" data-name="Trazado 873246" d="M109.9,107.663,93.677,35.675a5.538,5.538,0,0,0-4.685-2.582H50.541c-4.369,0-5.553,3.893-4.689,8.517L62.072,113.6a5.56,5.56,0,0,0,4.685,2.582h38.455c4.369,0,5.557-4.184,4.689-8.517" transform="translate(119.984 87.099)" fill="#1a1a1a"/>
        <path id="Trazado_873247" data-name="Trazado 873247" d="M80.082,36.8H48.622c0-.824,31.46-.824,31.46-.824.414.639.229.824,0,.824" transform="translate(127.969 94.679)" fill="#29c7cc"/>
        <path id="Trazado_873248" data-name="Trazado 873248" d="M80.6,38.785H49.139c0-.824,31.46-.824,31.46-.824.418.639.229.824,0,.824" transform="translate(129.329 99.912)" fill="#29c7cc"/>
        <path id="Trazado_873249" data-name="Trazado 873249" d="M81.727,44.645H50.267c0-.824,31.46-.824,31.46-.824.41.639.225.824,0,.824" transform="translate(132.298 115.335)" fill="#29c7cc"/>
        <path id="Trazado_873250" data-name="Trazado 873250" d="M81.727,42.66H50.267c0-.824,31.46-.824,31.46-.824.41.643.225.824,0,.824" transform="translate(132.298 110.11)" fill="#29c7cc"/>
        <path id="Trazado_873251" data-name="Trazado 873251" d="M82.854,48.523H51.394c0-.828,31.46-.828,31.46-.828.414.639.229.828,0,.828" transform="translate(135.264 125.531)" fill="#29c7cc"/>
        <path id="Trazado_873252" data-name="Trazado 873252" d="M83.373,50.507H51.913c0-.824,31.46-.824,31.46-.824.41.639.225.824,0,.824" transform="translate(136.63 130.763)" fill="#29c7cc"/>
      </g>
    </g>
    <g id="Grupo_1099575" data-name="Grupo 1099575" transform="translate(1046.161 965.007)">
      <g id="Grupo_1099574" data-name="Grupo 1099574" clip-path="url(#clip-path-3)">
        <rect id="Rectángulo_400947" data-name="Rectángulo 400947" width="179.452" height="162.212" transform="translate(-2.974 0.002)" fill="url(#linear-gradient-3)"/>
      </g>
    </g>
    <g id="Grupo_1099577" data-name="Grupo 1099577" transform="translate(820.609 797.534)">
      <g id="Grupo_1099576" data-name="Grupo 1099576" clip-path="url(#clip-path-2)">
        <path id="Trazado_873254" data-name="Trazado 873254" d="M138.421,94.406a26.414,26.414,0,0,0,4.2-10.137,45.7,45.7,0,0,0-17.353-1.914C109.979,83.409,99.755,90.28,93.189,97.3c7.366,3.291,33.058,13.173,45.232-2.9" transform="translate(245.265 216.407)" fill="#ffb850"/>
      </g>
    </g>
    <g id="Grupo_1099579" data-name="Grupo 1099579" transform="translate(1082.629 956.603)">
      <g id="Grupo_1099578" data-name="Grupo 1099578" clip-path="url(#clip-path-5)">
        <rect id="Rectángulo_400949" data-name="Rectángulo 400949" width="112.313" height="172.744" transform="translate(0 -0.002)" fill="url(#linear-gradient-4)"/>
      </g>
    </g>
    <g id="Grupo_1099586" data-name="Grupo 1099586" transform="translate(820.609 797.534)">
      <g id="Grupo_1099585" data-name="Grupo 1099585" clip-path="url(#clip-path-2)">
        <g id="Grupo_1099584" data-name="Grupo 1099584" transform="translate(262.021 216.133)" style="mix-blend-mode: soft-light;isolation: isolate">
          <g id="Grupo_1099583" data-name="Grupo 1099583">
            <g id="Grupo_1099582" data-name="Grupo 1099582" clip-path="url(#clip-path-7)">
              <g id="Grupo_1099581" data-name="Grupo 1099581" transform="translate(-0.001 0.003)">
                <g id="Grupo_1099580" data-name="Grupo 1099580" clip-path="url(#clip-path-8)">
                  <rect id="Rectángulo_400950" data-name="Rectángulo 400950" width="108.485" height="115.676" transform="translate(0 -0.002)" fill="url(#linear-gradient-5)"/>
                </g>
              </g>
            </g>
          </g>
        </g>
      </g>
    </g>
    <g id="Grupo_1099592" data-name="Grupo 1099592" transform="translate(1039.446 797.54)">
      <g id="Grupo_1099591" data-name="Grupo 1099591" clip-path="url(#clip-path-9)">
        <rect id="Rectángulo_400955" data-name="Rectángulo 400955" width="124.52" height="124.516" transform="translate(0 -0.002)" fill="url(#linear-gradient-6)"/>
      </g>
    </g>
    <g id="Grupo_1099594" data-name="Grupo 1099594" transform="translate(820.609 797.534)">
      <g id="Grupo_1099593" data-name="Grupo 1099593" clip-path="url(#clip-path-2)">
        <rect id="Rectángulo_400956" data-name="Rectángulo 400956" width="23.451" height="73.161" transform="translate(236.335 34.162)" fill="#ff7c48"/>
        <rect id="Rectángulo_400957" data-name="Rectángulo 400957" width="23.451" height="45.159" transform="translate(269.567 62.164)" fill="#ffb850"/>
        <rect id="Rectángulo_400958" data-name="Rectángulo 400958" width="23.448" height="29.215" transform="translate(302.403 78.108)" fill="#fbfadc"/>
        <path id="Trazado_873260" data-name="Trazado 873260" d="M74.462,44.146,61.71,41.9A62.838,62.838,0,0,0,68,49.328l9.04,1.594,5.662,1,1.079-6.134-9.323-1.642" transform="translate(162.415 110.281)" fill="#344fb5"/>
        <path id="Trazado_873261" data-name="Trazado 873261" d="M60.733,41.331c-1.74,1.206-4.166,3.675-1.918,5.844l5.15,1,1.929-5.869Z" transform="translate(152.409 108.781)" fill="#344fb5"/>
      </g>
    </g>
    <g id="Grupo_1099596" data-name="Grupo 1099596" transform="translate(1031.225 944.251)">
      <g id="Grupo_1099595" data-name="Grupo 1099595" clip-path="url(#clip-path-11)">
        <rect id="Rectángulo_400960" data-name="Rectángulo 400960" width="49.443" height="51.353" transform="translate(-19.722 12.205) rotate(-33.634)" fill="url(#linear-gradient-7)"/>
      </g>
    </g>
    <g id="Grupo_1099598" data-name="Grupo 1099598" transform="translate(820.609 797.534)">
      <g id="Grupo_1099597" data-name="Grupo 1099597" clip-path="url(#clip-path-2)">
        <path id="Trazado_873263" data-name="Trazado 873263" d="M63,62.679a10.064,10.064,0,0,1,1.438-8.931c-2.226-2.967-5.466-11.96-5.6-12.348.567-.094,4.021,9.487,6.185,12.174-.033.4-2.938,3.879-1.743,8.753-.229.352-.254.352-.276.352" transform="translate(154.84 108.96)" fill="#c65347"/>
        <path id="Trazado_873264" data-name="Trazado 873264" d="M64.174,41.331,56.6,43.289l5.655,3.886a11.5,11.5,0,0,1,.421-3.123,6.3,6.3,0,0,1,1.5-2.72" transform="translate(148.968 108.781)" fill="#fbfadc"/>
        <path id="Trazado_873265" data-name="Trazado 873265" d="M52.929,10.085,47.151,4.307a1.573,1.573,0,0,1,2.223-2.226l5.782,5.778,5.778-5.778A1.574,1.574,0,0,1,63.16,4.307l-5.778,5.778,5.778,5.778a1.574,1.574,0,1,1-2.226,2.226l-5.778-5.778L49.373,18.09a1.573,1.573,0,0,1-2.223-2.226Z" transform="translate(122.884 4.259)" fill="#ff613f"/>
        <path id="Trazado_873266" data-name="Trazado 873266" d="M107.693,11.588l-8.146,12.8h16.293Z" transform="translate(261.996 30.501)" fill="#2a5f61"/>
        <path id="Trazado_873267" data-name="Trazado 873267" d="M14.7,52.736a6.186,6.186,0,1,1-6.781-5.528A6.184,6.184,0,0,1,14.7,52.736" transform="translate(6.217 124.165)" fill="#ffb850"/>
        <path id="Trazado_873268" data-name="Trazado 873268" d="M63.849,93.234c3.479-10.271,13.126-16.216,24.7-16.216,11.164,0,20.727,5.768,24.962,15.058A28.622,28.622,0,0,0,88.553,78.035c-11.161,0-20.444,5.7-24.232,14.887a.508.508,0,0,1-.472.312" transform="translate(168.045 202.706)"/>
        <path id="Trazado_873269" data-name="Trazado 873269" d="M108.792,64.888l-2.731-10.118s3.625-6.788,1.228-10.039l-.479-2.259c-8.506-2.1-16.144-7.3-18.937-12.316a18.27,18.27,0,0,0-.973,2.23,67.48,67.48,0,0,0-2.789,14.237c-.944.2-5.851-.091-5.876,1.867-.022,1.761,5.433,3.843,5.433,3.843-.2,5.321.178,10.173,2.259,14.03,3.643,6.755,13.609,5.935,22.866-1.475" transform="translate(205.902 79.37)" fill="#ffaf99"/>
        <path id="Trazado_873270" data-name="Trazado 873270" d="M96.258,35.8c-1.653-3.033-4.863-3.047-7.54-2.379A18.728,18.728,0,0,1,88.969,47.7c5.194-1,10.173-6.61,7.289-11.9" transform="translate(233.497 87.018)" fill="#ffaf99"/>
        <path id="Trazado_873271" data-name="Trazado 873271" d="M80.851,48.163a1.436,1.436,0,0,1-1.307-1.551L80.76,32.361a1.433,1.433,0,0,1,2.855.243L82.4,46.859a1.432,1.432,0,0,1-1.547,1.3" transform="translate(209.338 81.726)" fill="#fbfadc"/>
        <path id="Trazado_873272" data-name="Trazado 873272" d="M88.254,36.617A3.662,3.662,0,1,1,83.3,35.1a3.66,3.66,0,0,1,4.95,1.515" transform="translate(214.124 91.26)" fill="#ea7d6a"/>
        <path id="Trazado_873273" data-name="Trazado 873273" d="M81.454,36.5a.741.741,0,0,1-.679-.8l.156-1.838a.744.744,0,0,1,1.482.127l-.156,1.834a.738.738,0,0,1-.8.676" transform="translate(212.585 87.342)" fill="#93372b"/>
        <path id="Trazado_873274" data-name="Trazado 873274" d="M81.468,38.4a9.431,9.431,0,0,1-1.689-.156,15.584,15.584,0,0,0,3.418-.683c.178.581-.516.839-1.729.839" transform="translate(209.971 98.859)" fill="#c65347"/>
        <path id="Trazado_873275" data-name="Trazado 873275" d="M80.271,53.632l9.875-9.556,23.179-3,1.885,13.721s-14.252,5.589-34.939-1.162" transform="translate(211.266 108.102)" fill="#fbfadc"/>
        <path id="Trazado_873276" data-name="Trazado 873276" d="M364.181,93.147H6.958a1.055,1.055,0,1,1,0-2.11H364.181a1.055,1.055,0,1,1,0,2.11" transform="translate(15.531 239.603)" fill="#1a1a1a"/>
      </g>
    </g>
    <g id="Grupo_1099600" data-name="Grupo 1099600" transform="translate(984.583 958.629)">
      <g id="Grupo_1099599" data-name="Grupo 1099599" clip-path="url(#clip-path-13)">
        <rect id="Rectángulo_400962" data-name="Rectángulo 400962" width="184.766" height="201.509" transform="translate(-25.249 0.002)" fill="url(#linear-gradient-8)"/>
      </g>
    </g>
    <g id="Grupo_1099602" data-name="Grupo 1099602" transform="translate(820.609 797.534)">
      <g id="Grupo_1099601" data-name="Grupo 1099601" clip-path="url(#clip-path-2)">
        <path id="Trazado_873278" data-name="Trazado 873278" d="M69.862,143.671a.843.843,0,0,1-.824-.908c5.128-51.8-7.26-77.5-7.387-77.752a.827.827,0,1,1,1.482-.734c.123.254,12.723,26.379,7.551,78.649a.824.824,0,0,1-.821.745" transform="translate(162.031 167.966)" fill="#ff7c48"/>
      </g>
    </g>
    <g id="Grupo_1099604" data-name="Grupo 1099604" transform="translate(981.644 935.422)">
      <g id="Grupo_1099603" data-name="Grupo 1099603" clip-path="url(#clip-path-15)">
        <rect id="Rectángulo_400964" data-name="Rectángulo 400964" width="46.161" height="50.318" transform="translate(-12.661 3.689) rotate(-17.301)" fill="url(#linear-gradient-9)"/>
      </g>
    </g>
    <g id="Grupo_1099606" data-name="Grupo 1099606" transform="translate(820.609 797.534)">
      <g id="Grupo_1099605" data-name="Grupo 1099605" clip-path="url(#clip-path-2)">
        <path id="Trazado_873280" data-name="Trazado 873280" d="M52.4,55.475a65.879,65.879,0,0,1-7.275-15.566c.6-.091,2.524,6.8,7.536,15.1-.153.45-.207.465-.261.465" transform="translate(118.767 105.035)" fill="#c65347"/>
      </g>
    </g>
    <g id="Grupo_1099608" data-name="Grupo 1099608" transform="translate(1115.839 918.043)">
      <g id="Grupo_1099607" data-name="Grupo 1099607" clip-path="url(#clip-path-17)">
        <rect id="Rectángulo_400966" data-name="Rectángulo 400966" width="35.036" height="26.475" transform="translate(-7.367 29.393) rotate(-75.93)" fill="url(#linear-gradient-10)"/>
      </g>
    </g>
    <g id="Grupo_1099615" data-name="Grupo 1099615" transform="translate(820.609 797.534)">
      <g id="Grupo_1099614" data-name="Grupo 1099614" clip-path="url(#clip-path-2)">
        <path id="Trazado_873282" data-name="Trazado 873282" d="M80.68,43.029s6.868,8.92,17.865,11.135c0,0,1.18,7.645.381,11.945s-.919,10.042,7.376,11.978c4.936,1.148,21.889-1.714,23.96-26.64,2.778-33.468-49.336-31.7-49.583-8.419" transform="translate(212.342 68.131)" fill="#1a1a1a"/>
        <path id="Trazado_873283" data-name="Trazado 873283" d="M88.9,47.647A18.628,18.628,0,0,0,88.746,33.6c2.579-.893,5.789-.883,7.442,2.15,2.884,5.292-2.1,10.907-7.289,11.9" transform="translate(233.571 87.066)" fill="#ee8a76"/>
        <path id="Trazado_873284" data-name="Trazado 873284" d="M94.167,35.416c-.912-1.518-3-2.045-5.234-1.529a18.6,18.6,0,0,1,.309,9.421,9.333,9.333,0,0,0,1.7-.8c3.036-1.823,4.482-5,3.225-7.093" transform="translate(234.063 88.684)" fill="#e0644e"/>
        <path id="Trazado_873285" data-name="Trazado 873285" d="M52.868,103.115A45.583,45.583,0,0,0,66.8,109.388c24.3,6.443,43.383,3.258,58.361-5.564-5.106-7.609-14.415-15.773-31.158-17.241a47.543,47.543,0,0,0-41.139,16.532" transform="translate(139.144 227.321)" fill="#ffb850"/>
        <g id="Grupo_1099613" data-name="Grupo 1099613" transform="translate(164.383 203.159)" style="mix-blend-mode: soft-light;isolation: isolate">
          <g id="Grupo_1099612" data-name="Grupo 1099612">
            <g id="Grupo_1099611" data-name="Grupo 1099611" clip-path="url(#clip-path-19)">
              <g id="Grupo_1099610" data-name="Grupo 1099610" transform="translate(0.001 0.001)">
                <g id="Grupo_1099609" data-name="Grupo 1099609" clip-path="url(#clip-path-20)">
                  <rect id="Rectángulo_400967" data-name="Rectángulo 400967" width="154.116" height="155.253" transform="translate(0 -0.002)" fill="url(#linear-gradient-11)"/>
                </g>
              </g>
            </g>
          </g>
        </g>
        <path id="Trazado_873287" data-name="Trazado 873287" d="M69.707,49.487l-3.058-.538,1.126-6.123,3.014.53Z" transform="translate(175.415 112.715)" fill="#1a1a1a"/>
        <path id="Trazado_873288" data-name="Trazado 873288" d="M124.655,85.7c12.541-38.382,8.277-67.187-20.909-56.153-1.518.574-1.271,6.37-1.271,6.37s13.772,33.748-6.283,59.2c-16,20.291-6.806,54.144,20.724,50.28,33.686-4.732-1.257-32.171,7.74-59.7" transform="translate(232.492 71.495)" fill="#1a1a1a"/>
        <path id="Trazado_873289" data-name="Trazado 873289" d="M57.9,61.808c-.668,0-.668-47.233-.668-47.233a47.235,47.235,0,0,0,0,94.469c.668-.018.668-47.237.668-47.237" transform="translate(26.303 38.362)" fill="#ff7c48"/>
      </g>
    </g>
    <g id="Grupo_1099617" data-name="Grupo 1099617" transform="translate(856.91 850.471)">
      <g id="Grupo_1099616" data-name="Grupo 1099616" clip-path="url(#clip-path-21)">
        <rect id="Rectángulo_400970" data-name="Rectángulo 400970" width="48.41" height="94.469" transform="translate(0 -0.002)" fill="url(#linear-gradient-12)"/>
      </g>
    </g>
    <g id="Grupo_1099626" data-name="Grupo 1099626" transform="translate(820.609 797.534)">
      <path id="Trazado_873291" data-name="Trazado 873291" d="M24.857,12.293V59.53H72.09A47.231,47.231,0,0,0,24.857,12.293" transform="translate(65.421 32.356)" fill="#29c7cc"/>
      <path id="Trazado_873292" data-name="Trazado 873292" d="M60.779,22.756A10.122,10.122,0,1,1,50.657,12.634,10.12,10.12,0,0,1,60.779,22.756" transform="translate(106.684 33.253)" fill="#29c7cc"/>
    </g>
    <g id="Grupo_1099621" data-name="Grupo 1099621" transform="translate(841.314 801.757)">
      <g id="Grupo_1099620" data-name="Grupo 1099620" clip-path="url(#clip-path-22)">
        <rect id="Rectángulo_400972" data-name="Rectángulo 400972" width="20.237" height="20.241" transform="translate(0 0.002)" fill="url(#linear-gradient-13)"/>
      </g>
    </g>
    <g id="Grupo_1099623" data-name="Grupo 1099623" transform="translate(849.903 811.842)">
      <g id="Grupo_1099622" data-name="Grupo 1099622" clip-path="url(#clip-path-23)">
        <rect id="Rectángulo_400973" data-name="Rectángulo 400973" width="29.963" height="48.148" transform="translate(-0.217 0.002)" fill="url(#linear-gradient-14)"/>
      </g>
    </g>
    <g id="Grupo_1099625" data-name="Grupo 1099625" transform="translate(820.609 797.534)">
      <g id="Grupo_1099624" data-name="Grupo 1099624" clip-path="url(#clip-path-2)">
        <path id="Trazado_873296" data-name="Trazado 873296" d="M26.791,50.312c-1.148-1.021-.959-1.627-.472-1.889L88.609,15.33a1,1,0,0,1,.937,1.769L27.259,50.2a1.028,1.028,0,0,1-.469.116" transform="translate(68.264 40.037)" fill="#29c7cc"/>
        <path id="Trazado_873297" data-name="Trazado 873297" d="M81.073,111.054c-.824-.432-57.1-81.805-57.1-81.805a1,1,0,0,1,1.645-1.137l56.276,81.369a1,1,0,0,1-.821,1.573" transform="translate(62.62 72.849)" fill="#344fb5"/>
        <path id="Trazado_873298" data-name="Trazado 873298" d="M70.233,27.58H23V74.817A47.236,47.236,0,0,0,70.233,27.58" transform="translate(60.534 72.59)" fill="#344fb5"/>
        <path id="Trazado_873299" data-name="Trazado 873299" d="M18.731,210.64a7.518,7.518,0,0,1-.323-2.491c.646,0,.646,2.165.646,2.165a.322.322,0,0,1-.323.327m0-5.408c-.323-.327-.323-3.567-.323-3.567.646,0,.646,3.24.646,3.24a.322.322,0,0,1-.323.327m0-6.479c-.323-.323-.323-3.567-.323-3.567.646,0,.646,3.243.646,3.243a.322.322,0,0,1-.323.323m0-6.483c-.323-.323-.323-3.567-.323-3.567.646,0,.646,3.243.646,3.243a.322.322,0,0,1-.323.323m0-6.479c-.323-.327-.323-3.566-.323-3.566.646,0,.646,3.24.646,3.24a.322.322,0,0,1-.323.327m0-6.483c-.323-.327-.323-3.563-.323-3.563.646,0,.646,3.236.646,3.236a.322.322,0,0,1-.323.327m0-6.479c-.323-.327-.323-3.567-.323-3.567.646,0,.646,3.24.646,3.24a.322.322,0,0,1-.323.327m0-6.483c-.323-.327-.323-3.567-.323-3.567.646,0,.646,3.24.646,3.24a.322.322,0,0,1-.323.327m0-6.479c-.323-.327-.323-3.566-.323-3.566.646,0,.646,3.24.646,3.24a.325.325,0,0,1-.323.327m0-6.479c-.323-.327-.323-3.57-.323-3.57.646,0,.646,3.243.646,3.243a.325.325,0,0,1-.323.327m0-6.483c-.323-.327-.323-3.567-.323-3.567.646,0,.646,3.24.646,3.24a.325.325,0,0,1-.323.327m0-6.483c-.323-.323-.323-3.567-.323-3.567.646,0,.646,3.243.646,3.243a.322.322,0,0,1-.323.323m0-6.479c-.323-.327-.323-3.567-.323-3.567.646,0,.646,3.24.646,3.24a.322.322,0,0,1-.323.327m0-6.483c-.323-.323-.323-3.563-.323-3.563.646,0,.646,3.24.646,3.24a.322.322,0,0,1-.323.323m0-6.479c-.323-.327-.323-3.567-.323-3.567.646,0,.646,3.24.646,3.24a.322.322,0,0,1-.323.327m0-6.479c-.323-.327-.323-3.57-.323-3.57.646,0,.646,3.243.646,3.243a.325.325,0,0,1-.323.327m0-6.483c-.323-.327-.323-3.567-.323-3.567.646,0,.646,3.24.646,3.24a.322.322,0,0,1-.323.327m0-6.479c-.323-.327-.323-3.57-.323-3.57.646,0,.646,3.243.646,3.243a.325.325,0,0,1-.323.327m0-6.483c-.323-.327-.323-3.567-.323-3.567.646,0,.646,3.24.646,3.24a.322.322,0,0,1-.323.327m0-6.483c-.323-.323-.323-3.567-.323-3.567.646,0,.646,3.243.646,3.243a.322.322,0,0,1-.323.323m0-6.479c-.323-.323-.323-3.567-.323-3.567.646,0,.646,3.243.646,3.243a.322.322,0,0,1-.323.323m0-6.483c-.323-.323-.323-3.567-.323-3.567.646,0,.646,3.243.646,3.243a.322.322,0,0,1-.323.323m0-6.479c-.323-.327-.323-3.567-.323-3.567.646,0,.646,3.24.646,3.24a.322.322,0,0,1-.323.327m0-6.483c-.323-.327-.323-3.563-.323-3.563.646,0,.646,3.236.646,3.236a.32.32,0,0,1-.323.327m0-6.479c-.323-.327-.323-3.567-.323-3.567.646,0,.646,3.24.646,3.24a.322.322,0,0,1-.323.327m0-6.479c-.323-.327-.323-3.57-.323-3.57.646,0,.646,3.243.646,3.243a.325.325,0,0,1-.323.327" transform="translate(48.448 121.38)" fill="#1a1a1a"/>
        <path id="Trazado_873300" data-name="Trazado 873300" d="M40.541,149.565c-.323-.323-.323-3.563-.323-3.563.646,0,.646,3.24.646,3.24a.324.324,0,0,1-.323.323m0-6.479c-.323-.327-.323-3.567-.323-3.567.646,0,.646,3.24.646,3.24a.325.325,0,0,1-.323.327m0-6.479c-.323-.327-.323-3.567-.323-3.567.646,0,.646,3.24.646,3.24a.327.327,0,0,1-.323.327m0-6.483c-.323-.327-.323-3.567-.323-3.567.646,0,.646,3.24.646,3.24a.325.325,0,0,1-.323.327m0-6.479c-.323-.327-.323-3.567-.323-3.567.646,0,.646,3.24.646,3.24a.325.325,0,0,1-.323.327m0-6.479c-.323-.331-.323-3.57-.323-3.57.646,0,.646,3.24.646,3.24a.328.328,0,0,1-.323.331m0-6.483c-.323-.327-.323-3.57-.323-3.57.646,0,.646,3.243.646,3.243a.327.327,0,0,1-.323.327m0-6.483c-.323-.323-.323-3.567-.323-3.567.646,0,.646,3.243.646,3.243a.324.324,0,0,1-.323.323m0-6.479c-.323-.327-.323-3.567-.323-3.567.646,0,.646,3.24.646,3.24a.327.327,0,0,1-.323.327m0-6.483c-.323-.327-.323-3.567-.323-3.567.646,0,.646,3.24.646,3.24a.325.325,0,0,1-.323.327m0-6.483c-.323-.323-.323-3.563-.323-3.563.646,0,.646,3.24.646,3.24a.322.322,0,0,1-.323.323m0-6.479c-.323-.327-.323-3.567-.323-3.567.646,0,.646,3.24.646,3.24a.325.325,0,0,1-.323.327m0-6.479c-.323-.327-.323-3.567-.323-3.567.646,0,.646,3.24.646,3.24a.325.325,0,0,1-.323.327" transform="translate(105.85 179.571)" fill="#1a1a1a"/>
        <path id="Trazado_873301" data-name="Trazado 873301" d="M29.875,50.891a6.6,6.6,0,1,1-6.6-6.6,6.6,6.6,0,0,1,6.6,6.6" transform="translate(43.9 116.582)" fill="#fbfadc"/>
        <path id="Trazado_873302" data-name="Trazado 873302" d="M51.682,73.01a6.6,6.6,0,1,1-6.6-6.6,6.6,6.6,0,0,1,6.6,6.6" transform="translate(101.305 174.789)" fill="#fbfadc"/>
        <path id="Trazado_873303" data-name="Trazado 873303" d="M29.875,50.891a6.6,6.6,0,1,1-6.6-6.6,6.6,6.6,0,0,1,6.6,6.6" transform="translate(43.9 116.582)" fill="#fbfadc"/>
        <path id="Trazado_873304" data-name="Trazado 873304" d="M76,14.066a74.61,74.61,0,0,1-3.912-9.421c-.407.312-.81.621-1.213.933a33.345,33.345,0,0,0,9.512,3.08A.849.849,0,0,0,81.4,8.085a.83.83,0,0,0-.577-1.017,31.944,31.944,0,0,1-9.116-2.916c-.6-.3-1.46.2-1.213.933A78.528,78.528,0,0,0,74.572,14.9c.476.952,1.9.116,1.427-.835" transform="translate(185.418 10.698)" fill="#fbfadc"/>
        <path id="Trazado_873305" data-name="Trazado 873305" d="M71.348,5.921c14.858,14.891,32.6,27.588,53.211,32.916a80.8,80.8,0,0,0,17.8,2.568c1.064.033,1.064-1.62,0-1.653-21.141-.628-40.837-10.246-57.032-23.375A163.868,163.868,0,0,1,72.517,4.752a.827.827,0,0,0-1.169,1.169" transform="translate(187.142 11.869)" fill="#fbfadc"/>
        <path id="Trazado_873306" data-name="Trazado 873306" d="M98.281,28.232l-6.45-1.017s6.919,22.55,6.051,33.7c0,0,3.3-19.474.4-32.684" transform="translate(241.691 71.629)" fill="#ffb850"/>
        <path id="Trazado_873307" data-name="Trazado 873307" d="M110.842,135.225c-17.818-14.466-13.209-33.995-7.874-56.607,1.217-5.157,2.477-10.493,3.512-15.948,3.574-18.835.229-26.956-3.207-30.454a10.721,10.721,0,0,0-8.789-3.127c.04-1.122,5.324-1.968,9.574,2.357,5.266,5.357,6.443,15.933,3.5,31.431-1.039,5.477-2.3,10.823-3.519,15.991-5.252,22.256-9.788,41.476,7.155,55.383-.033.9-.192.973-.352.973" transform="translate(248.673 74.181)" fill="#344fb5"/>
        <path id="Trazado_873308" data-name="Trazado 873308" d="M102.726,128.269C84.152,114.035,91.961,94.358,98.851,76.99c1.34-3.381,2.608-6.577,3.708-9.737,10.209-29.4.37-34.939.269-34.99.948-.755,11.35,4.892.77,35.349C102.49,70.8,101.222,74,99.875,77.393c-7.075,17.84-14.393,36.283,3.189,49.891-.011.912-.174.984-.338.984" transform="translate(239.988 84.748)" fill="#344fb5"/>
        <path id="Trazado_873309" data-name="Trazado 873309" d="M7.74,67.451C7.54,67.385-.8,63.329.062,51.383a11.692,11.692,0,0,1,3.61-7.573A9,9,0,0,1,2.263,38.2a19.992,19.992,0,0,1,8.4-15.178c.211.516-7.075,5.019-7.849,15.221a8.449,8.449,0,0,0,1.268,5.19,15.728,15.728,0,0,1,3.781-2.5c3.89-1.863,8.037-2.048,10.326-.465a4.137,4.137,0,0,1,1.725,4c-.287,3.309-2.924,5.165-6.879,4.841A12.994,12.994,0,0,1,4,44.279,10.981,10.981,0,0,0,.611,51.423c-.832,11.557,7.166,15.465,7.246,15.5.087.461-.011.523-.116.523M4.4,43.9a12.4,12.4,0,0,0,8.68,4.856c2.829.229,5.978-.788,6.287-4.34a3.572,3.572,0,0,0-1.493-3.5c-2.1-1.453-6.116-1.242-9.773.512A15.6,15.6,0,0,0,4.4,43.9" transform="translate(0 60.583)" fill="#1a1a1a"/>
        <path id="Trazado_873310" data-name="Trazado 873310" d="M65.138,50.144a14.032,14.032,0,0,0-1.315-3.116c-.487.182-.973.338-1.453.469-2.444.668-8.361,1.38-11.03-.69a3.536,3.536,0,0,1-1.4-3c.022-1.863,1.268-3,3.4-3.116,3.261-.185,8.259,2.143,10.681,5.666,3.824-1.533,7.5-4.66,7.9-9.556a15.366,15.366,0,0,0-4.242-11.371,16.771,16.771,0,0,0-17.927-4.14A16.234,16.234,0,0,1,72.468,36.852c-.41,5.1-4.191,8.368-8.139,9.98a7.563,7.563,0,0,1,1.082,3c-.251.309-.265.309-.272.309M53.723,41.235c-1.653.08-3.207.585-3.232,2.582a2.965,2.965,0,0,0,1.184,2.553c2.51,1.943,8.19,1.238,10.551.592.425-.113.853-.251,1.286-.407a13.435,13.435,0,0,0-9.788-5.321" transform="translate(130.937 52.288)" fill="#1a1a1a"/>
      </g>
    </g>
    <rect id="Rectángulo_400975" data-name="Rectángulo 400975" width="389.391" height="340.108" transform="translate(820.609 797.536)" fill="none"/>
    <g id="Grupo_1075308" data-name="Grupo 1075308" transform="translate(536.629 570.001)">
      <g id="Grupo_1075307" data-name="Grupo 1075307" clip-path="url(#clip-path-25)">
        <g id="Grupo_1075306" data-name="Grupo 1075306">
          <g id="Grupo_1075305" data-name="Grupo 1075305" clip-path="url(#clip-path-25)">
            <path id="Trazado_616689" data-name="Trazado 616689" d="M438.175,480.719c0,15.067-74.207,27.281-165.746,27.281s-165.745-12.214-165.745-27.281L86.389,368.163H458.47Z" transform="translate(-8.726 -37.187)" fill="#85b6ec"/>
            <path id="Trazado_616690" data-name="Trazado 616690" d="M282.665,387.319c-34.689,0-67.143-.894-94.941-2.447l14.322,121.37c23.867,2.192,51.348,3.446,80.619,3.446s56.752-1.254,80.619-3.446l14.322-121.37c-27.8,1.553-60.251,2.447-94.941,2.447" transform="translate(-18.961 -38.875)" fill="#b9daff"/>
            <path id="Trazado_616691" data-name="Trazado 616691" d="M458.47,366.2c0,9.648-83.293,17.468-186.04,17.468S86.389,375.848,86.389,366.2s83.293-17.468,186.041-17.468,186.04,7.82,186.04,17.468" transform="translate(-8.726 -35.224)" fill="#315884"/>
            <g id="Grupo_1075298" data-name="Grupo 1075298" transform="translate(77.663 330.976)" opacity="0.5" style="mix-blend-mode: hard-light;isolation: isolate">
              <g id="Grupo_1075297" data-name="Grupo 1075297">
                <g id="Grupo_1075296" data-name="Grupo 1075296" clip-path="url(#clip-path-27)">
                  <path id="Trazado_616692" data-name="Trazado 616692" d="M272.429,395.532c92.852,0,169.8-6.387,183.763-14.737l2.277-12.632c0,9.647-83.294,17.468-186.04,17.468s-186.04-7.821-186.04-17.468l2.277,12.632c13.964,8.35,90.912,14.737,183.763,14.737" transform="translate(-86.389 -368.163)" fill="#fff"/>
                </g>
              </g>
            </g>
            <path id="Trazado_616693" data-name="Trazado 616693" d="M468.7,309.965c0,15.067-89.629,27.282-200.191,27.282S68.322,325.032,68.322,309.965l-20.7-114.612h441.79Z" transform="translate(-4.81 -19.732)" fill="#85b6ec"/>
            <path id="Trazado_616694" data-name="Trazado 616694" d="M280.195,214.485c-42.951,0-83.009-.973-116.927-2.649L177.81,335.072c29.961,2.435,64.965,3.838,102.384,3.838s72.424-1.4,102.384-3.838l14.542-123.237c-33.917,1.678-73.975,2.65-116.927,2.65" transform="translate(-16.491 -21.397)" fill="#b9daff"/>
            <path id="Trazado_616695" data-name="Trazado 616695" d="M489.408,193.389c0,9.648-98.9,17.468-220.9,17.468s-220.894-7.82-220.894-17.468,98.9-17.468,220.894-17.468,220.9,7.821,220.9,17.468" transform="translate(-4.81 -17.769)" fill="#315884"/>
            <g id="Grupo_1075301" data-name="Grupo 1075301" transform="translate(42.808 175.62)" opacity="0.5" style="mix-blend-mode: hard-light;isolation: isolate">
              <g id="Grupo_1075300" data-name="Grupo 1075300">
                <g id="Grupo_1075299" data-name="Grupo 1075299" clip-path="url(#clip-path-28)">
                  <path id="Trazado_616696" data-name="Trazado 616696" d="M268.513,222.722c111.4,0,203.5-6.524,218.661-15l2.234-12.367c0,9.646-98.9,17.468-220.9,17.468S47.618,205,47.618,195.353l2.234,12.367c15.162,8.478,107.257,15,218.661,15" transform="translate(-47.618 -195.352)" fill="#fff"/>
                </g>
              </g>
            </g>
            <path id="Trazado_616697" data-name="Trazado 616697" d="M495.9,136.1c0,15.067-103.956,27.281-232.192,27.281S31.511,151.166,31.511,136.1L0,19.431H527.407Z" transform="translate(0 -1.963)" fill="#85b6ec"/>
            <path id="Trazado_616698" data-name="Trazado 616698" d="M277.727,38.568c-50.968,0-98.548-.959-138.884-2.618l14.734,124.866c35.915,2.675,78.474,4.232,124.15,4.232s88.235-1.556,124.15-4.232L416.612,35.95c-40.335,1.659-87.916,2.618-138.884,2.618" transform="translate(-14.024 -3.631)" fill="#b9daff"/>
            <path id="Trazado_616699" data-name="Trazado 616699" d="M527.407,17.469c0,9.647-118.064,17.467-263.7,17.467S0,27.116,0,17.469,118.064,0,263.7,0s263.7,7.82,263.7,17.468" transform="translate(0 0)" fill="#315884"/>
            <g id="Grupo_1075304" data-name="Grupo 1075304" transform="translate(0.153 18.036)" opacity="0.5" style="mix-blend-mode: hard-light;isolation: isolate">
              <g id="Grupo_1075303" data-name="Grupo 1075303">
                <g id="Grupo_1075302" data-name="Grupo 1075302" clip-path="url(#clip-path-29)">
                  <path id="Trazado_616700" data-name="Trazado 616700" d="M263.721,46.865c131.173,0,239.95-6.344,260.269-14.654l3.281-12.147c-4.529,9.385-120.782,16.9-263.551,16.9S4.7,29.449.171,20.064l3.28,12.147c20.319,8.309,129.1,14.654,260.269,14.654" transform="translate(-0.171 -20.063)" fill="#fff"/>
                </g>
              </g>
            </g>
          </g>
        </g>
        <text id="Establecer_los_objetivos" data-name="Establecer los objetivos" transform="translate(172.335 104.878)" fill="#1e0b4a" font-size="16" font-family="Roboto-Bold, Roboto" font-weight="700"><tspan x="0" y="0">Establecer los objeti</tspan><tspan y="0" letter-spacing="-0.007em">v</tspan><tspan y="0">os</tspan></text>
        <text id="Seleccionar_el_mercado" data-name="Seleccionar el mercado" transform="translate(173.616 264.225)" fill="#1e0b4a" font-size="16" font-family="Roboto-Bold, Roboto" font-weight="700"><tspan x="0" y="0">Seleccionar el me</tspan><tspan y="0" letter-spacing="-0.009em">r</tspan><tspan y="0">cado</tspan></text>
        <text id="Definir_la_estrategia" data-name="Definir la estrategia" transform="translate(188.255 416.091)" fill="#1e0b4a" font-size="16" font-family="Roboto-Bold, Roboto" font-weight="700"><tspan x="0" y="0">Definir la est</tspan><tspan y="0" letter-spacing="-0.014em">r</tspan><tspan y="0">ategia</tspan></text>
      </g>
    </g>
    <rect id="Rectángulo_400944" data-name="Rectángulo 400944" width="230" height="38" rx="19" transform="translate(685 1057)" fill="#fff"/>
    <path id="Trazado_873526" data-name="Trazado 873526" d="M9.026-5.1H4.052V0H.967V-12.8H9.527v2.382H4.052v2.944H9.026Zm.91.255a5.613,5.613,0,0,1,.554-2.536,3.96,3.96,0,0,1,1.591-1.709,4.791,4.791,0,0,1,2.435-.6,4.373,4.373,0,0,1,3.366,1.323,5.076,5.076,0,0,1,1.23,3.6v.105a4.925,4.925,0,0,1-1.235,3.529A4.384,4.384,0,0,1,14.533.176a4.434,4.434,0,0,1-3.261-1.217,4.761,4.761,0,0,1-1.327-3.3Zm2.962.185a3.538,3.538,0,0,0,.413,1.934,1.376,1.376,0,0,0,1.222.615q1.582,0,1.617-2.435v-.3q0-2.558-1.635-2.558-1.485,0-1.608,2.206ZM26.17-6.829l-.976-.07a1.752,1.752,0,0,0-1.793.879V0H20.439V-9.51h2.777l.1,1.222a2.294,2.294,0,0,1,2.083-1.4,2.888,2.888,0,0,1,.826.105ZM30.037-9.51l.1,1.116a3.27,3.27,0,0,1,2.716-1.292,2.407,2.407,0,0,1,2.435,1.433,3.165,3.165,0,0,1,2.795-1.433q2.892,0,2.971,3.5V0H38.079V-6a1.813,1.813,0,0,0-.246-1.063,1.048,1.048,0,0,0-.9-.334,1.4,1.4,0,0,0-1.31.782l.009.123V0H32.665V-5.985a1.906,1.906,0,0,0-.237-1.081,1.045,1.045,0,0,0-.905-.334,1.42,1.42,0,0,0-1.3.782V0H27.259V-9.51ZM48.406-1.028a3.054,3.054,0,0,1-2.54,1.2A3,3,0,0,1,43.5-.734a3.826,3.826,0,0,1-.8-2.615V-9.51h2.962v6.179a1.065,1.065,0,0,0,1.187,1.222,1.548,1.548,0,0,0,1.45-.729V-9.51h2.979V0H48.494ZM56.017,0H53.047V-13.5h2.971ZM63.2,0a3.344,3.344,0,0,1-.281-.853A2.754,2.754,0,0,1,60.632.176a3.374,3.374,0,0,1-2.285-.813,2.588,2.588,0,0,1-.94-2.043,2.66,2.66,0,0,1,1.143-2.338,5.821,5.821,0,0,1,3.322-.791h.914v-.5q0-1.316-1.134-1.316A.927.927,0,0,0,60.6-6.587H57.634a2.655,2.655,0,0,1,1.173-2.239,4.931,4.931,0,0,1,2.993-.86,4.323,4.323,0,0,1,2.874.888,3.086,3.086,0,0,1,1.081,2.435v4.21a4.311,4.311,0,0,0,.4,2V0ZM61.343-1.934a1.652,1.652,0,0,0,.918-.237,1.487,1.487,0,0,0,.523-.536V-4.228h-.861q-1.547,0-1.547,1.389a.848.848,0,0,0,.272.655A.986.986,0,0,0,61.343-1.934Zm10.072-.176a1.317,1.317,0,0,0,.967-.338,1.241,1.241,0,0,0,.334-.945h2.777A3.288,3.288,0,0,1,74.373-.826a4.168,4.168,0,0,1-2.887,1,4.22,4.22,0,0,1-3.27-1.3,5.125,5.125,0,0,1-1.2-3.6v-.123A5.792,5.792,0,0,1,67.553-7.4a3.872,3.872,0,0,1,1.534-1.7,4.573,4.573,0,0,1,2.373-.593A4.116,4.116,0,0,1,74.4-8.657a3.647,3.647,0,0,1,1.09,2.786H72.716A1.626,1.626,0,0,0,72.356-7a1.244,1.244,0,0,0-.967-.4q-1.151,0-1.345,1.468a10.357,10.357,0,0,0-.062,1.283,4.068,4.068,0,0,0,.343,1.986A1.187,1.187,0,0,0,71.416-2.109ZM79.871,0H76.9V-9.51h2.971ZM76.724-11.962A1.322,1.322,0,0,1,77.181-13a1.724,1.724,0,0,1,1.187-.4,1.724,1.724,0,0,1,1.187.4,1.322,1.322,0,0,1,.457,1.037,1.322,1.322,0,0,1-.457,1.037,1.724,1.724,0,0,1-1.187.4,1.724,1.724,0,0,1-1.187-.4A1.322,1.322,0,0,1,76.724-11.962Zm4.6,7.119a5.613,5.613,0,0,1,.554-2.536,3.96,3.96,0,0,1,1.591-1.709,4.791,4.791,0,0,1,2.435-.6,4.373,4.373,0,0,1,3.366,1.323,5.076,5.076,0,0,1,1.23,3.6v.105a4.925,4.925,0,0,1-1.235,3.529A4.384,4.384,0,0,1,85.918.176a4.434,4.434,0,0,1-3.261-1.217,4.761,4.761,0,0,1-1.327-3.3Zm2.962.185A3.538,3.538,0,0,0,84.7-2.725a1.376,1.376,0,0,0,1.222.615q1.582,0,1.617-2.435v-.3Q87.535-7.4,85.9-7.4q-1.485,0-1.608,2.206ZM86.3-13.5h3.129L86.99-10.74l-2.417,0Zm8.218,3.99.1,1.116a3.225,3.225,0,0,1,2.716-1.292,2.713,2.713,0,0,1,2.219.888,4.226,4.226,0,0,1,.76,2.672V0H97.343V-6a1.6,1.6,0,0,0-.29-1.059A1.342,1.342,0,0,0,96-7.4a1.413,1.413,0,0,0-1.292.686V0H91.745V-9.51ZM111.037.176a4.889,4.889,0,0,1-3.542-1.305,4.507,4.507,0,0,1-1.354-3.4v-.246a5.84,5.84,0,0,1,.541-2.575,3.955,3.955,0,0,1,1.578-1.727,4.763,4.763,0,0,1,2.461-.611,4.117,4.117,0,0,1,3.164,1.244,4.887,4.887,0,0,1,1.16,3.467v1.151h-5.889a2.135,2.135,0,0,0,.694,1.257,2.066,2.066,0,0,0,1.389.457,2.662,2.662,0,0,0,2.2-.984l1.354,1.6a3.784,3.784,0,0,1-1.569,1.217A5.3,5.3,0,0,1,111.037.176ZM110.7-7.4q-1.3,0-1.547,1.723h2.988v-.229a1.467,1.467,0,0,0-.36-1.1A1.434,1.434,0,0,0,110.7-7.4Zm10.512,4.729a.684.684,0,0,0-.4-.606,6.016,6.016,0,0,0-1.5-.475,6.853,6.853,0,0,1-1.828-.646,3.062,3.062,0,0,1-1.1-.971,2.319,2.319,0,0,1-.378-1.31,2.628,2.628,0,0,1,1.081-2.158,4.453,4.453,0,0,1,2.83-.848,4.934,4.934,0,0,1,3.023.853,2.666,2.666,0,0,1,1.143,2.241h-2.971q0-1.143-1.2-1.143a1.194,1.194,0,0,0-.782.259.8.8,0,0,0-.316.646.737.737,0,0,0,.387.642,3.654,3.654,0,0,0,1.235.4,10.671,10.671,0,0,1,1.49.378,2.706,2.706,0,0,1,2.145,2.646,2.491,2.491,0,0,1-1.156,2.118,5.068,5.068,0,0,1-2.993.817,5.172,5.172,0,0,1-2.18-.439,3.645,3.645,0,0,1-1.494-1.2,2.707,2.707,0,0,1-.536-1.591h2.769a1.145,1.145,0,0,0,.439.962,1.808,1.808,0,0,0,1.081.3,1.422,1.422,0,0,0,.91-.246A.787.787,0,0,0,121.215-2.672Zm7.69-9.2V-9.51h1.564v2.057H128.9V-3.1a1.111,1.111,0,0,0,.193.747,1.037,1.037,0,0,0,.765.211A4.345,4.345,0,0,0,130.6-2.2V-.079a5.466,5.466,0,0,1-1.67.255,3.1,3.1,0,0,1-2.259-.721,2.954,2.954,0,0,1-.729-2.188v-4.72H124.73V-9.51h1.213v-2.364Zm8.481,5.045-.976-.07a1.752,1.752,0,0,0-1.793.879V0h-2.962V-9.51h2.777l.1,1.222a2.294,2.294,0,0,1,2.083-1.4,2.888,2.888,0,0,1,.826.105ZM143.3,0a3.344,3.344,0,0,1-.281-.853A2.754,2.754,0,0,1,140.729.176a3.374,3.374,0,0,1-2.285-.813,2.588,2.588,0,0,1-.94-2.043,2.66,2.66,0,0,1,1.143-2.338,5.821,5.821,0,0,1,3.322-.791h.914v-.5q0-1.316-1.134-1.316a.927.927,0,0,0-1.055,1.042h-2.962a2.655,2.655,0,0,1,1.173-2.239,4.931,4.931,0,0,1,2.993-.86,4.323,4.323,0,0,1,2.874.888,3.086,3.086,0,0,1,1.081,2.435v4.21a4.311,4.311,0,0,0,.4,2V0Zm-1.854-1.934a1.652,1.652,0,0,0,.918-.237,1.487,1.487,0,0,0,.523-.536V-4.228h-.861q-1.547,0-1.547,1.389a.848.848,0,0,0,.272.655A.986.986,0,0,0,141.441-1.934Zm9.5-9.94V-9.51h1.564v2.057h-1.564V-3.1a1.111,1.111,0,0,0,.193.747,1.037,1.037,0,0,0,.765.211,4.345,4.345,0,0,0,.738-.053V-.079a5.466,5.466,0,0,1-1.67.255,3.1,3.1,0,0,1-2.259-.721,2.954,2.954,0,0,1-.729-2.188v-4.72h-1.213V-9.51h1.213v-2.364Zm7.33,12.05a4.889,4.889,0,0,1-3.542-1.305,4.507,4.507,0,0,1-1.354-3.4v-.246a5.84,5.84,0,0,1,.541-2.575,3.955,3.955,0,0,1,1.578-1.727,4.763,4.763,0,0,1,2.461-.611,4.117,4.117,0,0,1,3.164,1.244,4.887,4.887,0,0,1,1.16,3.467v1.151h-5.889a2.135,2.135,0,0,0,.694,1.257,2.066,2.066,0,0,0,1.389.457,2.662,2.662,0,0,0,2.2-.984l1.354,1.6a3.784,3.784,0,0,1-1.569,1.217A5.3,5.3,0,0,1,158.272.176ZM157.938-7.4q-1.3,0-1.547,1.723h2.988v-.229a1.467,1.467,0,0,0-.36-1.1A1.434,1.434,0,0,0,157.938-7.4Zm-.035-6.108h3.129l-2.443,2.76-2.417,0Zm5.221,8.684a6.421,6.421,0,0,1,.475-2.549,3.821,3.821,0,0,1,1.362-1.709,3.591,3.591,0,0,1,2.065-.6,2.855,2.855,0,0,1,2.32,1l.105-.826h2.689V-.36a4.009,4.009,0,0,1-.584,2.184,3.75,3.75,0,0,1-1.692,1.424,6.219,6.219,0,0,1-2.566.5,5.365,5.365,0,0,1-2.026-.4,3.657,3.657,0,0,1-1.5-1.028L165.013.58a2.716,2.716,0,0,0,2.18.976,1.764,1.764,0,0,0,1.969-2.021v-.3a2.781,2.781,0,0,1-2.153.94A3.437,3.437,0,0,1,164.2-1.156a5.517,5.517,0,0,1-1.072-3.564Zm2.971.185a3.383,3.383,0,0,0,.439,1.85,1.386,1.386,0,0,0,1.23.681,1.573,1.573,0,0,0,1.4-.642v-4a1.534,1.534,0,0,0-1.38-.65,1.4,1.4,0,0,0-1.239.708A3.858,3.858,0,0,0,166.094-4.641ZM176.949,0h-2.971V-9.51h2.971ZM173.8-11.962A1.322,1.322,0,0,1,174.259-13a1.724,1.724,0,0,1,1.187-.4,1.724,1.724,0,0,1,1.187.4,1.322,1.322,0,0,1,.457,1.037,1.322,1.322,0,0,1-.457,1.037,1.724,1.724,0,0,1-1.187.4,1.724,1.724,0,0,1-1.187-.4A1.322,1.322,0,0,1,173.8-11.962Zm8.991,9.853a1.317,1.317,0,0,0,.967-.338,1.241,1.241,0,0,0,.334-.945h2.777a3.288,3.288,0,0,1-1.121,2.566,4.168,4.168,0,0,1-2.887,1,4.22,4.22,0,0,1-3.27-1.3,5.125,5.125,0,0,1-1.2-3.6v-.123a5.792,5.792,0,0,1,.532-2.544,3.872,3.872,0,0,1,1.534-1.7,4.573,4.573,0,0,1,2.373-.593,4.116,4.116,0,0,1,2.944,1.028,3.647,3.647,0,0,1,1.09,2.786h-2.777A1.626,1.626,0,0,0,183.734-7a1.244,1.244,0,0,0-.967-.4q-1.151,0-1.345,1.468a10.357,10.357,0,0,0-.062,1.283,4.068,4.068,0,0,0,.343,1.986A1.187,1.187,0,0,0,182.794-2.109ZM193.481,0a3.344,3.344,0,0,1-.281-.853A2.754,2.754,0,0,1,190.915.176a3.374,3.374,0,0,1-2.285-.813,2.588,2.588,0,0,1-.94-2.043,2.66,2.66,0,0,1,1.143-2.338,5.821,5.821,0,0,1,3.322-.791h.914v-.5q0-1.316-1.134-1.316a.927.927,0,0,0-1.055,1.042h-2.962a2.655,2.655,0,0,1,1.173-2.239,4.931,4.931,0,0,1,2.993-.86,4.323,4.323,0,0,1,2.874.888,3.086,3.086,0,0,1,1.081,2.435v4.21a4.311,4.311,0,0,0,.4,2V0Zm-1.854-1.934a1.652,1.652,0,0,0,.918-.237,1.487,1.487,0,0,0,.523-.536V-4.228h-.861q-1.547,0-1.547,1.389a.848.848,0,0,0,.272.655A.986.986,0,0,0,191.627-1.934Z" transform="translate(705 1081.558)" fill="#1e0b4a"/>
    <g id="Grupo_1099632" data-name="Grupo 1099632" transform="translate(514.297 1022.05)">
      <g id="Grupo_1099631" data-name="Grupo 1099631" transform="translate(0 0)" clip-path="url(#clip-path-30)">
        <path id="Trazado_873314" data-name="Trazado 873314" d="M21.6,42.507a19.462,19.462,0,0,0-1.846-4.375c-.683.255-1.366.474-2.04.658-3.431.938-11.737,1.938-15.485-.969A4.964,4.964,0,0,1,.265,33.615C.3,31,2.045,29.409,5.043,29.24c4.579-.26,11.595,3,15,7.954,5.369-2.152,10.529-6.542,11.085-13.415A21.572,21.572,0,0,0,25.168,7.815,23.544,23.544,0,0,0,0,2C8.617-2.117,19.314.351,25.739,7.29a22.366,22.366,0,0,1,6.154,16.556C31.317,31,26.009,35.593,20.466,37.857a10.618,10.618,0,0,1,1.519,4.217c-.352.433-.372.433-.382.433M5.578,30c-2.32.112-4.5.821-4.538,3.62A4.165,4.165,0,0,0,2.7,37.21c3.523,2.728,11.5,1.739,14.812.831.6-.158,1.2-.352,1.8-.571C16.178,33,9.948,30,5.578,30" transform="translate(0 0.003)" fill="#1a1a1a"/>
      </g>
    </g>
    <g id="Grupo_1099634" data-name="Grupo 1099634" transform="translate(441.233 845.897)">
      <g id="Grupo_1099633" data-name="Grupo 1099633" transform="translate(0 0)" clip-path="url(#clip-path-31)">
        <path id="Trazado_873315" data-name="Trazado 873315" d="M53.767,26.883A26.883,26.883,0,1,1,26.883,0,26.883,26.883,0,0,1,53.767,26.883" transform="translate(0 0)" fill="#29c7cc"/>
        <path id="Trazado_873316" data-name="Trazado 873316" d="M16.582,32.15a4.461,4.461,0,0,1-3.226-1.377l-8.99-9.358a4.473,4.473,0,0,1,6.453-6.2l5.732,5.968L30.96,5.879a4.472,4.472,0,1,1,6.514,6.129L19.837,30.744A4.483,4.483,0,0,1,16.6,32.15Z" transform="translate(5.982 8.572)" fill="#fbfadc"/>
      </g>
    </g>
  </g>
</svg>
