<svg xmlns="http://www.w3.org/2000/svg" xmlns:xlink="http://www.w3.org/1999/xlink" width="400" height="425.656" viewBox="0 0 400 425.656">
  <defs>
    <linearGradient id="linear-gradient" x1="0.5" x2="0.5" y2="1" gradientUnits="objectBoundingBox">
      <stop offset="0" stop-color="#cce4ff"/>
      <stop offset="1" stop-color="#d1f3f5"/>
    </linearGradient>
    <clipPath id="clip-path">
      <rect id="Rectángulo_46351" data-name="Rectángulo 46351" width="92.43" height="95.638" fill="none"/>
    </clipPath>
    <clipPath id="clip-path-2">
      <path id="Trazado_617017" data-name="Trazado 617017" d="M0,0H310.719V335.081H0Z" fill="none"/>
    </clipPath>
    <clipPath id="clip-path-3">
      <rect id="Rectángulo_379078" data-name="Rectángulo 379078" width="310.719" height="335.081" fill="none"/>
    </clipPath>
    <clipPath id="clip-path-4">
      <rect id="Rectángulo_379075" data-name="Rectángulo 379075" width="219.21" height="16.124" fill="none"/>
    </clipPath>
    <clipPath id="clip-path-5">
      <rect id="Rectángulo_379076" data-name="Rectángulo 379076" width="260.279" height="16.124" fill="none"/>
    </clipPath>
    <clipPath id="clip-path-6">
      <rect id="Rectángulo_379077" data-name="Rectángulo 379077" width="310.539" height="15.789" fill="none"/>
    </clipPath>
  </defs>
  <g id="img1_1" transform="translate(8674 9607)">
    <rect id="Rectángulo_378860" data-name="Rectángulo 378860" width="400" height="425.656" transform="translate(-8674 -9607)" fill="url(#linear-gradient)"/>
    <g id="Grupo_154801" data-name="Grupo 154801" transform="translate(-8366.43 -9276.982)">
      <g id="Grupo_154721" data-name="Grupo 154721" clip-path="url(#clip-path)">
        <line id="Línea_1878" data-name="Línea 1878" x1="17.302" y2="81.558" transform="translate(48.964 23.596)" fill="none" stroke="#1e0b4a" stroke-linecap="round" stroke-linejoin="round" stroke-width="1.052"/>
        <path id="Trazado_196481" data-name="Trazado 196481" d="M234.777,273.116a6.5,6.5,0,1,1-6.5-6.5,6.5,6.5,0,0,1,6.5,6.5" transform="translate(-162.01 -249.519)" fill="#59c4c8"/>
        <path id="Trazado_196482" data-name="Trazado 196482" d="M241.983,324.01c-7.2,20.729-29.886,31.676-29.886,31.676s-11.006-22.656-3.8-43.383,29.886-31.675,29.886-31.675,11.006,22.655,3.8,43.382" transform="translate(-156.885 -250.532)" fill="#12263f"/>
        <path id="Trazado_196483" data-name="Trazado 196483" d="M281.658,311.26c3.339,31.511-19.563,59.769-19.563,59.769s-28.316-22.83-31.655-54.342S250,256.918,250,256.918s28.315,22.83,31.654,54.342" transform="translate(-216.954 -248.819)" fill="#59c4c8"/>
        <path id="Trazado_196484" data-name="Trazado 196484" d="M295.32,320.154a11.874,11.874,0,1,1-11.874-11.874,11.874,11.874,0,0,1,11.874,11.874" transform="translate(-268.754 -252.529)" fill="#12263f"/>
        <line id="Línea_1879" data-name="Línea 1879" x2="11.68" y2="110.236" transform="translate(33.461 11.973)" fill="none" stroke="#1e0b4a" stroke-linecap="round" stroke-linejoin="round" stroke-width="1.052"/>
        <line id="Línea_1880" data-name="Línea 1880" y1="14.358" x2="22.324" transform="translate(40.46 63.675)" fill="none" stroke="#1e0b4a" stroke-linecap="round" stroke-linejoin="round" stroke-width="1.052"/>
        <line id="Línea_1881" data-name="Línea 1881" x1="19.186" y1="10.052" transform="translate(18.306 39.971)" fill="none" stroke="#1e0b4a" stroke-linecap="round" stroke-linejoin="round" stroke-width="1.052"/>
        <line id="Línea_1882" data-name="Línea 1882" x2="20.876" y2="42.819" transform="translate(14.691 67.625)" fill="none" stroke="#1e0b4a" stroke-linecap="round" stroke-linejoin="round" stroke-width="1.052"/>
      </g>
    </g>
    <path id="Trazado_615639" data-name="Trazado 615639" d="M572.842,168.311a.691.691,0,0,0-.563-.775c-1.211-.418-2.419-.851-3.6-1.337a1.434,1.434,0,0,1-.678-.708c-.5-1.151-.947-2.322-1.38-3.5a1.139,1.139,0,0,1,0-.781c.585-1.3,1.227-2.576,1.809-3.878a.816.816,0,0,0-.1-.723c-.976-1.043-2-2.038-2.992-3.068a.588.588,0,0,0-.812-.132c-1.234.612-2.477,1.209-3.735,1.771a1.25,1.25,0,0,1-.851.039q-1.8-.649-3.572-1.4a1.325,1.325,0,0,1-.674-.622c-.488-1.21-.927-2.44-1.348-3.674-.136-.4-.3-.588-.758-.577-1.379.035-2.761.031-4.141,0a.689.689,0,0,0-.771.568c-.415,1.211-.885,2.4-1.3,3.616a1.067,1.067,0,0,1-.773.739c-1.14.4-2.265.842-3.361,1.344a1.078,1.078,0,0,1-1.067-.009c-1.209-.609-2.442-1.17-3.653-1.776a.632.632,0,0,0-.874.152c-.955,1-1.928,1.978-2.929,2.927a.669.669,0,0,0-.128.938c.6,1.214,1.189,2.435,1.732,3.675a1.252,1.252,0,0,1-.023.9q-.756,1.762-1.615,3.48a1.479,1.479,0,0,1-.7.691c-1.287.49-2.6.926-3.905,1.354a.678.678,0,0,0-.574.762c.031,1.38.026,2.761,0,4.142a.627.627,0,0,0,.515.721c1.334.431,2.666.874,3.976,1.373a1.462,1.462,0,0,1,.682.711c.529,1.111.964,2.267,1.517,3.364a1.189,1.189,0,0,1,.026,1.208c-.572,1.147-1.094,2.318-1.663,3.466a.677.677,0,0,0,.148.937q1.5,1.428,2.928,2.929a.668.668,0,0,0,.934.134c1.192-.591,2.4-1.138,3.6-1.729a1.058,1.058,0,0,1,1.067.027c1.145.565,2.338,1.032,3.495,1.578a1.246,1.246,0,0,1,.588.616c.491,1.312.945,2.64,1.384,3.971a.643.643,0,0,0,.727.521c1.38-.023,2.762-.027,4.141,0a.664.664,0,0,0,.758-.565c.421-1.312.87-2.615,1.361-3.9a1.351,1.351,0,0,1,.652-.656q1.771-.827,3.585-1.556a1.2,1.2,0,0,1,.844-.016c1.41.626,2.8,1.3,4.248,1.983,1.135-1.15,2.268-2.275,3.362-3.437a.826.826,0,0,0,.066-.734c-.562-1.258-1.184-2.489-1.751-3.745a1.189,1.189,0,0,1-.056-.8c.427-1.23.881-2.451,1.375-3.655a1.316,1.316,0,0,1,.646-.659c1.209-.488,2.439-.932,3.672-1.36a.646.646,0,0,0,.508-.734c-.025-1.38-.028-2.761,0-4.141m-21.335,10.135a8.071,8.071,0,1,1,8.08-8.061,8.044,8.044,0,0,1-8.08,8.061" transform="translate(-9198.564 -9752.447)" fill="#3656b3"/>
    <g id="Grupo_1075327" data-name="Grupo 1075327" transform="translate(-8619.182 -9542.293)">
      <g id="Enmascarar_grupo_1073831" data-name="Enmascarar grupo 1073831" transform="translate(-9 -5.952)" clip-path="url(#clip-path-2)">
        <g id="Grupo_1075323" data-name="Grupo 1075323">
          <g id="Grupo_1075322" data-name="Grupo 1075322" clip-path="url(#clip-path-3)">
            <path id="Trazado_616701" data-name="Trazado 616701" d="M250.01,248.53c0,8.877-43.718,16.073-97.648,16.073s-97.648-7.2-97.648-16.073L42.757,182.218h219.21Z" transform="translate(2.998 12.775)" fill="#85b6ec"/>
            <path id="Trazado_616702" data-name="Trazado 616702" d="M148.846,191.929c-20.437,0-39.556-.527-55.934-1.441l8.438,71.5c14.061,1.292,30.252,2.03,47.5,2.03s33.434-.738,47.5-2.03l8.438-71.5c-16.378.915-35.5,1.441-55.934,1.441" transform="translate(6.514 13.354)" fill="#b9daff"/>
            <path id="Trazado_616703" data-name="Trazado 616703" d="M261.967,182.892c0,5.683-49.072,10.291-109.6,10.291S42.757,188.576,42.757,182.892,91.829,172.6,152.363,172.6s109.6,4.608,109.6,10.291" transform="translate(2.998 12.1)" fill="#315884"/>
            <g id="Grupo_1075315" data-name="Grupo 1075315" transform="translate(45.755 194.993)" opacity="0.5" style="mix-blend-mode: hard-light;isolation: isolate">
              <g id="Grupo_1075314" data-name="Grupo 1075314">
                <g id="Grupo_1075313" data-name="Grupo 1075313" clip-path="url(#clip-path-4)">
                  <path id="Trazado_616704" data-name="Trazado 616704" d="M152.363,198.342c54.7,0,100.037-3.762,108.263-8.683l1.342-7.442c0,5.683-49.072,10.291-109.6,10.291s-109.6-4.608-109.6-10.291L44.1,189.66c8.227,4.92,53.561,8.683,108.264,8.683" transform="translate(-42.757 -182.218)" fill="#fff"/>
                </g>
              </g>
            </g>
            <path id="Trazado_616705" data-name="Trazado 616705" d="M271.65,164.211c0,8.877-52.8,16.073-117.942,16.073s-117.942-7.2-117.942-16.073l-12.2-67.523H283.847Z" transform="translate(1.652 6.778)" fill="#85b6ec"/>
            <path id="Trazado_616706" data-name="Trazado 616706" d="M149.7,106.406c-25.3,0-48.9-.573-68.887-1.561l8.567,72.6c17.651,1.434,38.273,2.261,60.32,2.261s42.668-.827,60.32-2.261l8.567-72.6c-19.982.988-43.583,1.561-68.887,1.561" transform="translate(5.665 7.35)" fill="#b9daff"/>
            <path id="Trazado_616707" data-name="Trazado 616707" d="M283.847,97.361c0,5.683-58.265,10.291-130.139,10.291s-130.14-4.608-130.14-10.291S81.833,87.07,153.708,87.07s130.139,4.608,130.139,10.291" transform="translate(1.652 6.104)" fill="#315884"/>
            <g id="Grupo_1075318" data-name="Grupo 1075318" transform="translate(25.22 103.465)" opacity="0.5" style="mix-blend-mode: hard-light;isolation: isolate">
              <g id="Grupo_1075317" data-name="Grupo 1075317">
                <g id="Grupo_1075316" data-name="Grupo 1075316" clip-path="url(#clip-path-5)">
                  <path id="Trazado_616708" data-name="Trazado 616708" d="M153.708,112.811c65.633,0,119.89-3.843,128.823-8.838l1.316-7.286c0,5.683-58.265,10.291-130.139,10.291S23.568,102.37,23.568,96.687l1.316,7.286c8.932,5,63.191,8.838,128.824,8.838" transform="translate(-23.568 -96.687)" fill="#fff"/>
                </g>
              </g>
            </g>
            <path id="Trazado_616709" data-name="Trazado 616709" d="M292.154,78.351c0,8.877-61.245,16.073-136.795,16.073S18.564,87.227,18.564,78.351L0,9.617H310.719Z" transform="translate(0 0.674)" fill="#85b6ec"/>
            <path id="Trazado_616710" data-name="Trazado 616710" d="M150.541,19.335c-30.028,0-58.06-.565-81.823-1.542L77.4,91.357c21.159,1.576,46.233,2.493,73.143,2.493s51.984-.917,73.143-2.493l8.681-73.564c-23.764.977-51.8,1.542-81.824,1.542" transform="translate(4.818 1.247)" fill="#b9daff"/>
            <path id="Trazado_616711" data-name="Trazado 616711" d="M310.719,10.291c0,5.683-69.557,10.291-155.36,10.291S0,15.975,0,10.291,69.557,0,155.359,0s155.36,4.608,155.36,10.291" fill="#315884"/>
            <g id="Grupo_1075321" data-name="Grupo 1075321" transform="translate(0.09 10.626)" opacity="0.5" style="mix-blend-mode: hard-light;isolation: isolate">
              <g id="Grupo_1075320" data-name="Grupo 1075320">
                <g id="Grupo_1075319" data-name="Grupo 1075319" clip-path="url(#clip-path-6)">
                  <path id="Trazado_616712" data-name="Trazado 616712" d="M155.353,25.719c77.28,0,141.365-3.738,153.337-8.634l1.933-7.156c-2.668,5.528-71.158,9.956-155.269,9.956S2.752,15.458.084,9.93l1.933,7.156c11.971,4.9,76.057,8.634,153.337,8.634" transform="translate(-0.084 -9.93)" fill="#fff"/>
                </g>
              </g>
            </g>
          </g>
        </g>
        <path id="Trazado_617024" data-name="Trazado 617024" d="M8.842-5.229H3.779V0H1.143V-12.8H9.475v2.136h-5.7v3.3H8.842Zm1.235.387a5.64,5.64,0,0,1,.545-2.522,3.989,3.989,0,0,1,1.569-1.714,4.577,4.577,0,0,1,2.377-.606A4.33,4.33,0,0,1,17.71-8.508a4.727,4.727,0,0,1,1.358,3.2l.018.65a4.97,4.97,0,0,1-1.222,3.511A4.247,4.247,0,0,1,14.586.176,4.268,4.268,0,0,1,11.3-1.143a5.058,5.058,0,0,1-1.226-3.586Zm2.54.18a3.555,3.555,0,0,0,.51,2.073,1.682,1.682,0,0,0,1.459.717,1.686,1.686,0,0,0,1.441-.709,3.89,3.89,0,0,0,.519-2.267,3.519,3.519,0,0,0-.519-2.06,1.686,1.686,0,0,0-1.459-.731,1.658,1.658,0,0,0-1.441.726A3.955,3.955,0,0,0,12.617-4.662ZM25.994-7.128a6.9,6.9,0,0,0-.914-.07,1.86,1.86,0,0,0-1.89.976V0H20.65V-9.51h2.4l.07,1.134a2.354,2.354,0,0,1,2.118-1.31,2.662,2.662,0,0,1,.791.114ZM29.6-9.51l.079,1.063A3.342,3.342,0,0,1,32.41-9.686a2.536,2.536,0,0,1,2.522,1.45,3.265,3.265,0,0,1,2.856-1.45,2.836,2.836,0,0,1,2.3.9,4.141,4.141,0,0,1,.756,2.711V0H38.3V-6.064a1.811,1.811,0,0,0-.316-1.182,1.4,1.4,0,0,0-1.116-.374,1.585,1.585,0,0,0-1.582,1.09L35.293,0h-2.54V-6.056a1.789,1.789,0,0,0-.325-1.2A1.416,1.416,0,0,0,31.32-7.62a1.646,1.646,0,0,0-1.564.9V0h-2.54V-9.51Zm18.9,8.543a3.185,3.185,0,0,1-2.6,1.143A3,3,0,0,1,43.559-.7a3.752,3.752,0,0,1-.822-2.575V-9.51h2.54v6.151q0,1.487,1.354,1.487a1.834,1.834,0,0,0,1.775-.9V-9.51h2.549V0H48.564ZM55.551,0H53V-13.5h2.549Zm7.6,0A2.821,2.821,0,0,1,62.9-.853,3.073,3.073,0,0,1,60.5.176a3.376,3.376,0,0,1-2.316-.809,2.6,2.6,0,0,1-.918-2.039,2.687,2.687,0,0,1,1.121-2.32,5.529,5.529,0,0,1,3.239-.817h1.169v-.545a1.567,1.567,0,0,0-.338-1.055,1.331,1.331,0,0,0-1.068-.4,1.513,1.513,0,0,0-1.006.308,1.045,1.045,0,0,0-.365.844h-2.54a2.551,2.551,0,0,1,.51-1.529,3.37,3.37,0,0,1,1.441-1.1,5.253,5.253,0,0,1,2.092-.4A4.15,4.15,0,0,1,64.31-8.8a3.09,3.09,0,0,1,1.033,2.483V-2.2A4.546,4.546,0,0,0,65.72-.149V0Zm-2.1-1.767a2.188,2.188,0,0,0,1.037-.25,1.645,1.645,0,0,0,.7-.672V-4.324h-.949q-1.907,0-2.03,1.318l-.009.149a1.017,1.017,0,0,0,.334.782A1.3,1.3,0,0,0,61.053-1.767Zm10.2-.105a1.666,1.666,0,0,0,1.143-.387,1.355,1.355,0,0,0,.457-1.028H75.23A3.258,3.258,0,0,1,74.7-1.516,3.48,3.48,0,0,1,73.283-.268a4.442,4.442,0,0,1-1.991.444,4.129,4.129,0,0,1-3.217-1.3A5.13,5.13,0,0,1,66.9-4.7v-.167a5.071,5.071,0,0,1,1.169-3.507,4.08,4.08,0,0,1,3.208-1.31A4,4,0,0,1,74.136-8.67a3.594,3.594,0,0,1,1.094,2.7H72.848a1.745,1.745,0,0,0-.457-1.206,1.524,1.524,0,0,0-1.16-.464,1.53,1.53,0,0,0-1.34.647,3.749,3.749,0,0,0-.453,2.1v.264a3.8,3.8,0,0,0,.448,2.113A1.549,1.549,0,0,0,71.249-1.872ZM79.361,0H76.812V-9.51h2.549Zm-2.7-11.971a1.251,1.251,0,0,1,.382-.94,1.436,1.436,0,0,1,1.042-.369,1.44,1.44,0,0,1,1.037.369,1.244,1.244,0,0,1,.387.94,1.247,1.247,0,0,1-.391.949,1.443,1.443,0,0,1-1.033.369,1.443,1.443,0,0,1-1.033-.369A1.247,1.247,0,0,1,76.663-11.971Zm4.395,7.128A5.64,5.64,0,0,1,81.6-7.365a3.989,3.989,0,0,1,1.569-1.714,4.577,4.577,0,0,1,2.377-.606,4.33,4.33,0,0,1,3.142,1.178,4.727,4.727,0,0,1,1.358,3.2l.018.65a4.97,4.97,0,0,1-1.222,3.511A4.247,4.247,0,0,1,85.566.176a4.268,4.268,0,0,1-3.283-1.318,5.058,5.058,0,0,1-1.226-3.586Zm2.54.18a3.555,3.555,0,0,0,.51,2.073,1.682,1.682,0,0,0,1.459.717,1.686,1.686,0,0,0,1.441-.709,3.89,3.89,0,0,0,.519-2.267,3.519,3.519,0,0,0-.519-2.06,1.686,1.686,0,0,0-1.459-.731,1.658,1.658,0,0,0-1.441.726A3.955,3.955,0,0,0,83.6-4.662ZM86.049-13.5h2.769l-2.435,2.725H84.318Zm7.919,3.99.079,1.1a3.32,3.32,0,0,1,2.733-1.274,2.759,2.759,0,0,1,2.25.888,4.142,4.142,0,0,1,.756,2.654V0h-2.54V-6.082A1.648,1.648,0,0,0,96.9-7.255a1.574,1.574,0,0,0-1.169-.365,1.747,1.747,0,0,0-1.608.914V0h-2.54V-9.51Z" transform="translate(101.574 305.556)" fill="#1e0b4a"/>
        <g id="Grupo_1075325" data-name="Grupo 1075325">
          <g id="Grupo_1075324" data-name="Grupo 1075324" clip-path="url(#clip-path-3)">
            <text id="estratégica" transform="translate(106.926 328.669)" fill="#1e0b4a" font-size="18" font-family="Roboto-Bold, Roboto" font-weight="700"><tspan x="0" y="0">est</tspan><tspan y="0" letter-spacing="-0.015em">r</tspan><tspan y="0">atégica</tspan></text>
          </g>
        </g>
        <path id="Trazado_617018" data-name="Trazado 617018" d="M7.859-4.93h-4.5v3.047H8.641V0H1.016V-11.375H8.625v1.9H3.359v2.711h4.5Zm6.586,2.594a.727.727,0,0,0-.41-.652,4.659,4.659,0,0,0-1.316-.426Q9.7-4.047,9.7-5.977a2.323,2.323,0,0,1,.934-1.879,3.766,3.766,0,0,1,2.441-.754,4.053,4.053,0,0,1,2.574.758,2.388,2.388,0,0,1,.965,1.969H14.359a1.092,1.092,0,0,0-.312-.8A1.322,1.322,0,0,0,13.07-7a1.351,1.351,0,0,0-.883.258.814.814,0,0,0-.312.656.7.7,0,0,0,.355.605,3.657,3.657,0,0,0,1.2.4,9.8,9.8,0,0,1,1.422.379A2.336,2.336,0,0,1,16.641-2.43a2.2,2.2,0,0,1-.992,1.871,4.28,4.28,0,0,1-2.562.715A4.47,4.47,0,0,1,11.2-.223,3.166,3.166,0,0,1,9.906-1.262a2.414,2.414,0,0,1-.469-1.426h2.141a1.179,1.179,0,0,0,.445.922,1.766,1.766,0,0,0,1.109.32,1.635,1.635,0,0,0,.98-.246A.766.766,0,0,0,14.445-2.336Zm6.352-8.2v2.078h1.445V-6.8H20.8v4.219a1.007,1.007,0,0,0,.18.672.9.9,0,0,0,.688.2,3.6,3.6,0,0,0,.664-.055V-.047a4.648,4.648,0,0,1-1.367.2,2.156,2.156,0,0,1-2.422-2.4V-6.8H17.3V-8.453h1.234v-2.078ZM28.4,0a2.507,2.507,0,0,1-.227-.758,2.732,2.732,0,0,1-2.133.914A3,3,0,0,1,23.98-.562a2.312,2.312,0,0,1-.816-1.812,2.389,2.389,0,0,1,1-2.062,4.915,4.915,0,0,1,2.879-.727h1.039v-.484a1.393,1.393,0,0,0-.3-.937,1.183,1.183,0,0,0-.949-.352,1.345,1.345,0,0,0-.895.273.929.929,0,0,0-.324.75H23.352A2.268,2.268,0,0,1,23.8-7.273a3,3,0,0,1,1.281-.98,4.669,4.669,0,0,1,1.859-.355,3.689,3.689,0,0,1,2.48.785,2.747,2.747,0,0,1,.918,2.207v3.664a4.041,4.041,0,0,0,.336,1.82V0ZM26.531-1.57a1.945,1.945,0,0,0,.922-.223,1.462,1.462,0,0,0,.625-.6V-3.844h-.844q-1.7,0-1.8,1.172l-.008.133a.9.9,0,0,0,.3.7A1.153,1.153,0,0,0,26.531-1.57ZM39.7-4.148A5.119,5.119,0,0,1,38.828-.98,2.872,2.872,0,0,1,36.406.156,2.639,2.639,0,0,1,34.211-.9l-.1.9H32.078V-12h2.258v4.3a2.571,2.571,0,0,1,2.055-.914,2.9,2.9,0,0,1,2.426,1.137,5.126,5.126,0,0,1,.879,3.2Zm-2.258-.164a3.363,3.363,0,0,0-.406-1.871,1.374,1.374,0,0,0-1.211-.59,1.489,1.489,0,0,0-1.484.883v3.336a1.509,1.509,0,0,0,1.5.891,1.394,1.394,0,0,0,1.438-1.078A5.562,5.562,0,0,0,37.438-4.312ZM43.469,0H41.2V-12h2.266Zm5.75.156A4.15,4.15,0,0,1,46.191-.984a4.054,4.054,0,0,1-1.168-3.039v-.219a5.106,5.106,0,0,1,.492-2.277A3.612,3.612,0,0,1,46.91-8.066a3.914,3.914,0,0,1,2.059-.543A3.508,3.508,0,0,1,51.7-7.516a4.444,4.444,0,0,1,1,3.1v.922H47.313a2.1,2.1,0,0,0,.66,1.328,2,2,0,0,0,1.395.5,2.437,2.437,0,0,0,2.039-.945l1.109,1.242A3.389,3.389,0,0,1,51.141-.246,4.511,4.511,0,0,1,49.219.156Zm-.258-6.945a1.411,1.411,0,0,0-1.09.455,2.357,2.357,0,0,0-.535,1.3h3.141v-.181a1.681,1.681,0,0,0-.406-1.165A1.456,1.456,0,0,0,48.961-6.789Zm8.531,5.125a1.481,1.481,0,0,0,1.016-.344,1.2,1.2,0,0,0,.406-.914h2.117a2.9,2.9,0,0,1-.469,1.574A3.093,3.093,0,0,1,59.3-.238a3.949,3.949,0,0,1-1.77.395A3.67,3.67,0,0,1,54.672-1,4.56,4.56,0,0,1,53.625-4.18v-.148a4.508,4.508,0,0,1,1.039-3.117,3.627,3.627,0,0,1,2.852-1.164,3.555,3.555,0,0,1,2.543.9,3.2,3.2,0,0,1,.973,2.4H58.914a1.551,1.551,0,0,0-.406-1.072,1.354,1.354,0,0,0-1.031-.412,1.36,1.36,0,0,0-1.191.575,3.333,3.333,0,0,0-.4,1.866v.235a3.375,3.375,0,0,0,.4,1.878A1.377,1.377,0,0,0,57.492-1.664ZM66.211.156A4.15,4.15,0,0,1,63.184-.984a4.054,4.054,0,0,1-1.168-3.039v-.219a5.106,5.106,0,0,1,.492-2.277A3.612,3.612,0,0,1,63.9-8.066a3.914,3.914,0,0,1,2.059-.543,3.508,3.508,0,0,1,2.73,1.094,4.444,4.444,0,0,1,1,3.1v.922H64.3a2.1,2.1,0,0,0,.66,1.328,2,2,0,0,0,1.395.5A2.437,2.437,0,0,0,68.4-2.609l1.109,1.242A3.389,3.389,0,0,1,68.133-.246,4.511,4.511,0,0,1,66.211.156Zm-.258-6.945a1.411,1.411,0,0,0-1.09.455,2.357,2.357,0,0,0-.535,1.3h3.141v-.181a1.681,1.681,0,0,0-.406-1.165A1.456,1.456,0,0,0,65.953-6.789Zm9.766.453a6.134,6.134,0,0,0-.812-.062,1.654,1.654,0,0,0-1.68.867V0H70.969V-8.453H73.1l.063,1.008a2.092,2.092,0,0,1,1.883-1.164,2.366,2.366,0,0,1,.7.1ZM83.172,0H80.906V-12h2.266ZM84.68-4.3a5.013,5.013,0,0,1,.484-2.242A3.546,3.546,0,0,1,86.559-8.07a4.069,4.069,0,0,1,2.113-.539,3.849,3.849,0,0,1,2.793,1.047,4.2,4.2,0,0,1,1.207,2.844l.016.578A4.418,4.418,0,0,1,91.6-1.02,3.775,3.775,0,0,1,88.688.156,3.793,3.793,0,0,1,85.77-1.016,4.5,4.5,0,0,1,84.68-4.2Zm2.258.16A3.16,3.16,0,0,0,87.391-2.3a1.5,1.5,0,0,0,1.3.638,1.5,1.5,0,0,0,1.281-.63,3.457,3.457,0,0,0,.461-2.015,3.128,3.128,0,0,0-.461-1.831,1.5,1.5,0,0,0-1.3-.649,1.474,1.474,0,0,0-1.281.646A3.516,3.516,0,0,0,86.938-4.144ZM98.656-2.336a.727.727,0,0,0-.41-.652,4.659,4.659,0,0,0-1.316-.426q-3.016-.633-3.016-2.562a2.323,2.323,0,0,1,.934-1.879,3.766,3.766,0,0,1,2.441-.754,4.053,4.053,0,0,1,2.574.758,2.388,2.388,0,0,1,.965,1.969H98.57a1.092,1.092,0,0,0-.312-.8A1.322,1.322,0,0,0,97.281-7a1.351,1.351,0,0,0-.883.258.814.814,0,0,0-.312.656.7.7,0,0,0,.355.605,3.657,3.657,0,0,0,1.2.4,9.8,9.8,0,0,1,1.422.379,2.336,2.336,0,0,1,1.789,2.273,2.2,2.2,0,0,1-.992,1.871A4.28,4.28,0,0,1,97.3.156,4.47,4.47,0,0,1,95.41-.223a3.166,3.166,0,0,1-1.293-1.039,2.414,2.414,0,0,1-.469-1.426h2.141a1.179,1.179,0,0,0,.445.922,1.766,1.766,0,0,0,1.109.32,1.635,1.635,0,0,0,.98-.246A.766.766,0,0,0,98.656-2.336Z" transform="translate(103.323 52.573)" fill="#1e0b4a"/>
        <path id="Trazado_617019" data-name="Trazado 617019" d="M.516-4.3A5.013,5.013,0,0,1,1-6.547,3.546,3.546,0,0,1,2.395-8.07a4.069,4.069,0,0,1,2.113-.539A3.849,3.849,0,0,1,7.3-7.562,4.2,4.2,0,0,1,8.508-4.719l.016.578A4.418,4.418,0,0,1,7.438-1.02,3.775,3.775,0,0,1,4.523.156,3.793,3.793,0,0,1,1.605-1.016,4.5,4.5,0,0,1,.516-4.2Zm2.258.16A3.16,3.16,0,0,0,3.227-2.3a1.5,1.5,0,0,0,1.3.638A1.5,1.5,0,0,0,5.8-2.294a3.457,3.457,0,0,0,.461-2.015A3.128,3.128,0,0,0,5.8-6.14a1.5,1.5,0,0,0-1.3-.649,1.474,1.474,0,0,0-1.281.646A3.516,3.516,0,0,0,2.773-4.144Zm14.758,0A5.119,5.119,0,0,1,16.664-.98,2.872,2.872,0,0,1,14.242.156,2.639,2.639,0,0,1,12.047-.9l-.1.9H9.914V-12h2.258v4.3a2.571,2.571,0,0,1,2.055-.914,2.9,2.9,0,0,1,2.426,1.137,5.126,5.126,0,0,1,.879,3.2Zm-2.258-.164a3.363,3.363,0,0,0-.406-1.871,1.374,1.374,0,0,0-1.211-.59,1.489,1.489,0,0,0-1.484.883v3.336a1.509,1.509,0,0,0,1.5.891,1.394,1.394,0,0,0,1.438-1.078A5.562,5.562,0,0,0,15.273-4.312Zm6.039-4.141V.461a3.024,3.024,0,0,1-.742,2.176,2.821,2.821,0,0,1-2.141.777,4.591,4.591,0,0,1-1.117-.133V1.492a4.238,4.238,0,0,0,.711.07q1.023,0,1.023-1.086v-8.93Zm-2.445-2.187a1.112,1.112,0,0,1,.34-.836,1.277,1.277,0,0,1,.926-.328,1.277,1.277,0,0,1,.926.328,1.112,1.112,0,0,1,.34.836,1.108,1.108,0,0,1-.348.844,1.283,1.283,0,0,1-.918.328,1.283,1.283,0,0,1-.918-.328A1.108,1.108,0,0,1,18.867-10.641Zm8.1,10.8A4.15,4.15,0,0,1,23.941-.984a4.054,4.054,0,0,1-1.168-3.039v-.219a5.106,5.106,0,0,1,.492-2.277A3.612,3.612,0,0,1,24.66-8.066a3.914,3.914,0,0,1,2.059-.543,3.508,3.508,0,0,1,2.73,1.094,4.444,4.444,0,0,1,1,3.1v.922H25.063a2.1,2.1,0,0,0,.66,1.328,2,2,0,0,0,1.395.5,2.437,2.437,0,0,0,2.039-.945l1.109,1.242A3.389,3.389,0,0,1,28.891-.246,4.511,4.511,0,0,1,26.969.156Zm-.258-6.945a1.411,1.411,0,0,0-1.09.455,2.357,2.357,0,0,0-.535,1.3h3.141v-.181a1.681,1.681,0,0,0-.406-1.165A1.456,1.456,0,0,0,26.711-6.789Zm7.719-3.742v2.078h1.445V-6.8H34.43v4.219a1.007,1.007,0,0,0,.18.672.9.9,0,0,0,.688.2,3.6,3.6,0,0,0,.664-.055V-.047a4.648,4.648,0,0,1-1.367.2,2.156,2.156,0,0,1-2.422-2.4V-6.8H30.938V-8.453h1.234v-2.078ZM39.516,0H37.25V-8.453h2.266Zm-2.4-10.641a1.112,1.112,0,0,1,.34-.836,1.277,1.277,0,0,1,.926-.328,1.28,1.28,0,0,1,.922.328,1.105,1.105,0,0,1,.344.836A1.108,1.108,0,0,1,39.3-9.8a1.283,1.283,0,0,1-.918.328,1.283,1.283,0,0,1-.918-.328A1.108,1.108,0,0,1,37.117-10.641Zm7.422,7.883,1.57-5.7h2.359L45.617,0H43.461L40.609-8.453h2.359ZM48.88-4.3a5.013,5.013,0,0,1,.484-2.242A3.546,3.546,0,0,1,50.759-8.07a4.069,4.069,0,0,1,2.113-.539,3.849,3.849,0,0,1,2.793,1.047,4.2,4.2,0,0,1,1.207,2.844l.016.578A4.418,4.418,0,0,1,55.8-1.02,3.775,3.775,0,0,1,52.888.156,3.793,3.793,0,0,1,49.97-1.016,4.5,4.5,0,0,1,48.88-4.2Zm2.258.16A3.16,3.16,0,0,0,51.591-2.3a1.5,1.5,0,0,0,1.3.638,1.5,1.5,0,0,0,1.281-.63,3.457,3.457,0,0,0,.461-2.015,3.128,3.128,0,0,0-.461-1.831,1.5,1.5,0,0,0-1.3-.649,1.474,1.474,0,0,0-1.281.646A3.516,3.516,0,0,0,51.138-4.144ZM62.857-2.336a.727.727,0,0,0-.41-.652,4.659,4.659,0,0,0-1.316-.426q-3.016-.633-3.016-2.562a2.323,2.323,0,0,1,.934-1.879,3.766,3.766,0,0,1,2.441-.754,4.053,4.053,0,0,1,2.574.758,2.388,2.388,0,0,1,.965,1.969H62.771a1.092,1.092,0,0,0-.312-.8A1.322,1.322,0,0,0,61.482-7a1.351,1.351,0,0,0-.883.258.814.814,0,0,0-.312.656.7.7,0,0,0,.355.605,3.657,3.657,0,0,0,1.2.4,9.8,9.8,0,0,1,1.422.379A2.336,2.336,0,0,1,65.052-2.43,2.2,2.2,0,0,1,64.06-.559,4.28,4.28,0,0,1,61.5.156a4.47,4.47,0,0,1-1.887-.379,3.166,3.166,0,0,1-1.293-1.039,2.414,2.414,0,0,1-.469-1.426H59.99a1.179,1.179,0,0,0,.445.922,1.766,1.766,0,0,0,1.109.32,1.635,1.635,0,0,0,.98-.246A.766.766,0,0,0,62.857-2.336Z" transform="translate(123.607 74.403)" fill="#1e0b4a"/>
        <path id="Trazado_617020" data-name="Trazado 617020" d="M6.914-2.984A1.2,1.2,0,0,0,6.445-4a6.148,6.148,0,0,0-1.687-.75,11.963,11.963,0,0,1-1.93-.777A3.153,3.153,0,0,1,.891-8.352,2.747,2.747,0,0,1,1.41-10,3.389,3.389,0,0,1,2.9-11.125a5.616,5.616,0,0,1,2.184-.406,5.112,5.112,0,0,1,2.172.441,3.458,3.458,0,0,1,1.48,1.246,3.261,3.261,0,0,1,.527,1.828H6.922A1.534,1.534,0,0,0,6.43-9.23a2.023,2.023,0,0,0-1.383-.434A2.162,2.162,0,0,0,3.711-9.3a1.146,1.146,0,0,0-.477.957,1.1,1.1,0,0,0,.559.93,6.311,6.311,0,0,0,1.645.7A7.106,7.106,0,0,1,8.352-5.219,2.972,2.972,0,0,1,9.266-3,2.737,2.737,0,0,1,8.148-.684a4.891,4.891,0,0,1-3.008.84A5.808,5.808,0,0,1,2.75-.324,3.783,3.783,0,0,1,1.105-1.641,3.371,3.371,0,0,1,.539-3.578H2.891q0,1.883,2.25,1.883a2.189,2.189,0,0,0,1.3-.34A1.106,1.106,0,0,0,6.914-2.984ZM14.594.156A4.15,4.15,0,0,1,11.566-.984,4.054,4.054,0,0,1,10.4-4.023v-.219a5.106,5.106,0,0,1,.492-2.277,3.612,3.612,0,0,1,1.395-1.547,3.914,3.914,0,0,1,2.059-.543,3.508,3.508,0,0,1,2.73,1.094,4.444,4.444,0,0,1,1,3.1v.922H12.688a2.1,2.1,0,0,0,.66,1.328,2,2,0,0,0,1.395.5,2.437,2.437,0,0,0,2.039-.945l1.109,1.242A3.389,3.389,0,0,1,16.516-.246,4.511,4.511,0,0,1,14.594.156Zm-.258-6.945a1.411,1.411,0,0,0-1.09.455,2.357,2.357,0,0,0-.535,1.3h3.141v-.181a1.681,1.681,0,0,0-.406-1.165A1.456,1.456,0,0,0,14.336-6.789ZM21.734,0H19.469V-12h2.266Zm5.75.156A4.15,4.15,0,0,1,24.457-.984a4.054,4.054,0,0,1-1.168-3.039v-.219a5.106,5.106,0,0,1,.492-2.277,3.612,3.612,0,0,1,1.395-1.547,3.914,3.914,0,0,1,2.059-.543,3.508,3.508,0,0,1,2.73,1.094,4.444,4.444,0,0,1,1,3.1v.922H25.578a2.1,2.1,0,0,0,.66,1.328,2,2,0,0,0,1.395.5,2.437,2.437,0,0,0,2.039-.945l1.109,1.242A3.389,3.389,0,0,1,29.406-.246,4.511,4.511,0,0,1,27.484.156Zm-.258-6.945a1.411,1.411,0,0,0-1.09.455,2.357,2.357,0,0,0-.535,1.3h3.141v-.181a1.681,1.681,0,0,0-.406-1.165A1.456,1.456,0,0,0,27.227-6.789Zm8.531,5.125a1.481,1.481,0,0,0,1.016-.344,1.2,1.2,0,0,0,.406-.914H39.3a2.9,2.9,0,0,1-.469,1.574A3.093,3.093,0,0,1,37.566-.238,3.949,3.949,0,0,1,35.8.156,3.67,3.67,0,0,1,32.938-1,4.56,4.56,0,0,1,31.891-4.18v-.148A4.508,4.508,0,0,1,32.93-7.445a3.627,3.627,0,0,1,2.852-1.164,3.555,3.555,0,0,1,2.543.9A3.2,3.2,0,0,1,39.3-5.3H37.18a1.551,1.551,0,0,0-.406-1.072,1.354,1.354,0,0,0-1.031-.412,1.36,1.36,0,0,0-1.191.575,3.333,3.333,0,0,0-.4,1.866v.235a3.375,3.375,0,0,0,.4,1.878A1.377,1.377,0,0,0,35.758-1.664Zm8.344,0a1.481,1.481,0,0,0,1.016-.344,1.2,1.2,0,0,0,.406-.914h2.117a2.9,2.9,0,0,1-.469,1.574A3.093,3.093,0,0,1,45.91-.238a3.949,3.949,0,0,1-1.77.395A3.67,3.67,0,0,1,41.281-1,4.56,4.56,0,0,1,40.234-4.18v-.148a4.508,4.508,0,0,1,1.039-3.117,3.627,3.627,0,0,1,2.852-1.164,3.555,3.555,0,0,1,2.543.9,3.2,3.2,0,0,1,.973,2.4H45.523a1.551,1.551,0,0,0-.406-1.072,1.354,1.354,0,0,0-1.031-.412,1.36,1.36,0,0,0-1.191.575,3.333,3.333,0,0,0-.4,1.866v.235a3.375,3.375,0,0,0,.4,1.878A1.377,1.377,0,0,0,44.1-1.664ZM51.313,0H49.047V-8.453h2.266Zm-2.4-10.641a1.112,1.112,0,0,1,.34-.836,1.277,1.277,0,0,1,.926-.328,1.28,1.28,0,0,1,.922.328,1.105,1.105,0,0,1,.344.836A1.108,1.108,0,0,1,51.1-9.8a1.283,1.283,0,0,1-.918.328,1.283,1.283,0,0,1-.918-.328A1.108,1.108,0,0,1,48.914-10.641ZM52.82-4.3A5.013,5.013,0,0,1,53.3-6.547,3.546,3.546,0,0,1,54.7-8.07a4.069,4.069,0,0,1,2.113-.539,3.849,3.849,0,0,1,2.793,1.047,4.2,4.2,0,0,1,1.207,2.844l.016.578A4.418,4.418,0,0,1,59.742-1.02,3.775,3.775,0,0,1,56.828.156,3.793,3.793,0,0,1,53.91-1.016,4.5,4.5,0,0,1,52.82-4.2Zm2.258.16A3.16,3.16,0,0,0,55.531-2.3a1.5,1.5,0,0,0,1.3.638,1.5,1.5,0,0,0,1.281-.63,3.457,3.457,0,0,0,.461-2.015,3.128,3.128,0,0,0-.461-1.831,1.5,1.5,0,0,0-1.3-.649,1.474,1.474,0,0,0-1.281.646A3.516,3.516,0,0,0,55.078-4.144ZM64.3-8.453l.07.977A2.951,2.951,0,0,1,66.8-8.609a2.453,2.453,0,0,1,2,.789,3.682,3.682,0,0,1,.672,2.359V0H67.211V-5.406A1.465,1.465,0,0,0,66.9-6.449a1.4,1.4,0,0,0-1.039-.324,1.553,1.553,0,0,0-1.43.813V0H62.172V-8.453ZM76.078,0a2.507,2.507,0,0,1-.227-.758,2.732,2.732,0,0,1-2.133.914A3,3,0,0,1,71.66-.562a2.312,2.312,0,0,1-.816-1.812,2.389,2.389,0,0,1,1-2.062,4.915,4.915,0,0,1,2.879-.727h1.039v-.484a1.393,1.393,0,0,0-.3-.937,1.183,1.183,0,0,0-.949-.352,1.345,1.345,0,0,0-.895.273.929.929,0,0,0-.324.75H71.031a2.268,2.268,0,0,1,.453-1.359,3,3,0,0,1,1.281-.98,4.669,4.669,0,0,1,1.859-.355,3.689,3.689,0,0,1,2.48.785,2.747,2.747,0,0,1,.918,2.207v3.664a4.041,4.041,0,0,0,.336,1.82V0ZM74.211-1.57a1.945,1.945,0,0,0,.922-.223,1.462,1.462,0,0,0,.625-.6V-3.844h-.844q-1.7,0-1.8,1.172l-.008.133a.9.9,0,0,0,.3.7A1.153,1.153,0,0,0,74.211-1.57Zm10.3-4.766A6.134,6.134,0,0,0,83.7-6.4a1.654,1.654,0,0,0-1.68.867V0H79.758V-8.453h2.133l.063,1.008a2.092,2.092,0,0,1,1.883-1.164,2.366,2.366,0,0,1,.7.1Z" transform="translate(112.819 145.151)" fill="#1e0b4a"/>
        <path id="Trazado_617021" data-name="Trazado 617021" d="M4.758.156A4.15,4.15,0,0,1,1.73-.984,4.054,4.054,0,0,1,.563-4.023v-.219A5.106,5.106,0,0,1,1.055-6.52,3.612,3.612,0,0,1,2.449-8.066a3.914,3.914,0,0,1,2.059-.543,3.508,3.508,0,0,1,2.73,1.094,4.444,4.444,0,0,1,1,3.1v.922H2.852a2.1,2.1,0,0,0,.66,1.328,2,2,0,0,0,1.395.5,2.437,2.437,0,0,0,2.039-.945L8.055-1.367A3.389,3.389,0,0,1,6.68-.246,4.511,4.511,0,0,1,4.758.156ZM4.5-6.789a1.411,1.411,0,0,0-1.09.455,2.357,2.357,0,0,0-.535,1.3H6.016v-.181a1.681,1.681,0,0,0-.406-1.165A1.456,1.456,0,0,0,4.5-6.789ZM11.9,0H9.633V-12H11.9Zm7.961-8.453.07.945a2.971,2.971,0,0,1,2.43-1.1A2.255,2.255,0,0,1,24.6-7.32a2.9,2.9,0,0,1,2.539-1.289,2.521,2.521,0,0,1,2.047.8,3.681,3.681,0,0,1,.672,2.41V0H27.594V-5.391a1.61,1.61,0,0,0-.281-1.051,1.246,1.246,0,0,0-.992-.332,1.409,1.409,0,0,0-1.406.969L24.922,0H22.664V-5.383a1.59,1.59,0,0,0-.289-1.062,1.259,1.259,0,0,0-.984-.328,1.463,1.463,0,0,0-1.391.8V0H17.742V-8.453ZM35.484.156A4.15,4.15,0,0,1,32.457-.984a4.054,4.054,0,0,1-1.168-3.039v-.219a5.106,5.106,0,0,1,.492-2.277,3.612,3.612,0,0,1,1.395-1.547,3.914,3.914,0,0,1,2.059-.543,3.508,3.508,0,0,1,2.73,1.094,4.444,4.444,0,0,1,1,3.1v.922H33.578a2.1,2.1,0,0,0,.66,1.328,2,2,0,0,0,1.395.5,2.437,2.437,0,0,0,2.039-.945l1.109,1.242A3.389,3.389,0,0,1,37.406-.246,4.511,4.511,0,0,1,35.484.156Zm-.258-6.945a1.411,1.411,0,0,0-1.09.455,2.357,2.357,0,0,0-.535,1.3h3.141v-.181a1.681,1.681,0,0,0-.406-1.165A1.456,1.456,0,0,0,35.227-6.789Zm9.766.453A6.134,6.134,0,0,0,44.18-6.4a1.654,1.654,0,0,0-1.68.867V0H40.242V-8.453h2.133l.063,1.008A2.092,2.092,0,0,1,44.32-8.609a2.366,2.366,0,0,1,.7.1Zm4.293,4.672A1.481,1.481,0,0,0,50.3-2.008a1.2,1.2,0,0,0,.406-.914h2.117a2.9,2.9,0,0,1-.469,1.574A3.093,3.093,0,0,1,51.094-.238a3.949,3.949,0,0,1-1.77.395A3.67,3.67,0,0,1,46.465-1,4.56,4.56,0,0,1,45.418-4.18v-.148a4.508,4.508,0,0,1,1.039-3.117,3.627,3.627,0,0,1,2.852-1.164,3.555,3.555,0,0,1,2.543.9,3.2,3.2,0,0,1,.973,2.4H50.707A1.551,1.551,0,0,0,50.3-6.377a1.354,1.354,0,0,0-1.031-.412,1.36,1.36,0,0,0-1.191.575,3.333,3.333,0,0,0-.4,1.866v.235a3.375,3.375,0,0,0,.4,1.878A1.377,1.377,0,0,0,49.285-1.664ZM59.012,0a2.507,2.507,0,0,1-.227-.758,2.732,2.732,0,0,1-2.133.914,3,3,0,0,1-2.059-.719,2.312,2.312,0,0,1-.816-1.812,2.389,2.389,0,0,1,1-2.062,4.915,4.915,0,0,1,2.879-.727h1.039v-.484a1.393,1.393,0,0,0-.3-.937,1.183,1.183,0,0,0-.949-.352,1.345,1.345,0,0,0-.895.273.929.929,0,0,0-.324.75H53.965a2.268,2.268,0,0,1,.453-1.359,3,3,0,0,1,1.281-.98,4.669,4.669,0,0,1,1.859-.355,3.689,3.689,0,0,1,2.48.785,2.747,2.747,0,0,1,.918,2.207v3.664a4.041,4.041,0,0,0,.336,1.82V0ZM57.145-1.57a1.945,1.945,0,0,0,.922-.223,1.462,1.462,0,0,0,.625-.6V-3.844h-.844q-1.7,0-1.8,1.172l-.008.133a.9.9,0,0,0,.3.7A1.153,1.153,0,0,0,57.145-1.57Zm5.2-2.719a5.094,5.094,0,0,1,.887-3.148,2.877,2.877,0,0,1,2.426-1.172,2.589,2.589,0,0,1,2.039.922V-12h2.266V0H67.918l-.109-.9A2.657,2.657,0,0,1,65.637.156,2.869,2.869,0,0,1,63.242-1.02,5.258,5.258,0,0,1,62.34-4.289Zm2.258.168A3.337,3.337,0,0,0,65.012-2.3a1.349,1.349,0,0,0,1.2.634,1.511,1.511,0,0,0,1.477-.884V-5.889a1.489,1.489,0,0,0-1.461-.884Q64.6-6.773,64.6-4.121ZM71.356-4.3a5.013,5.013,0,0,1,.484-2.242A3.546,3.546,0,0,1,73.235-8.07a4.069,4.069,0,0,1,2.113-.539,3.849,3.849,0,0,1,2.793,1.047,4.2,4.2,0,0,1,1.207,2.844l.016.578A4.418,4.418,0,0,1,78.277-1.02,3.775,3.775,0,0,1,75.363.156a3.793,3.793,0,0,1-2.918-1.172A4.5,4.5,0,0,1,71.356-4.2Zm2.258.16A3.16,3.16,0,0,0,74.067-2.3a1.5,1.5,0,0,0,1.3.638,1.5,1.5,0,0,0,1.281-.63,3.457,3.457,0,0,0,.461-2.015,3.128,3.128,0,0,0-.461-1.831,1.5,1.5,0,0,0-1.3-.649,1.474,1.474,0,0,0-1.281.646A3.516,3.516,0,0,0,73.613-4.144Z" transform="translate(115.475 166.981)" fill="#1e0b4a"/>
        <path id="Trazado_617022" data-name="Trazado 617022" d="M1.016,0V-11.375h3.5A5.315,5.315,0,0,1,7.2-10.7,4.712,4.712,0,0,1,9.047-8.777a5.928,5.928,0,0,1,.664,2.832v.523A5.945,5.945,0,0,1,9.059-2.6,4.672,4.672,0,0,1,7.219-.687,5.355,5.355,0,0,1,4.539,0ZM3.359-9.477v7.594H4.492a2.545,2.545,0,0,0,2.1-.9,4.06,4.06,0,0,0,.742-2.57v-.6a4.124,4.124,0,0,0-.719-2.629,2.537,2.537,0,0,0-2.1-.895ZM15.156.156A4.15,4.15,0,0,1,12.129-.984a4.054,4.054,0,0,1-1.168-3.039v-.219a5.106,5.106,0,0,1,.492-2.277,3.612,3.612,0,0,1,1.395-1.547,3.914,3.914,0,0,1,2.059-.543,3.508,3.508,0,0,1,2.73,1.094,4.444,4.444,0,0,1,1,3.1v.922H13.25a2.1,2.1,0,0,0,.66,1.328,2,2,0,0,0,1.395.5,2.437,2.437,0,0,0,2.039-.945l1.109,1.242A3.389,3.389,0,0,1,17.078-.246,4.511,4.511,0,0,1,15.156.156ZM14.9-6.789a1.411,1.411,0,0,0-1.09.455,2.357,2.357,0,0,0-.535,1.3h3.141v-.181a1.681,1.681,0,0,0-.406-1.165A1.456,1.456,0,0,0,14.9-6.789ZM20.461,0V-6.8H19.2V-8.453h1.258v-.391a3.17,3.17,0,0,1,.98-2.457,3.945,3.945,0,0,1,2.723-.863,9.031,9.031,0,0,1,2.563.461L26.4-9.836a10,10,0,0,0-1.187-.293A5.835,5.835,0,0,0,24.3-10.2q-1.578,0-1.578,1.4v.344h1.664V-6.8H22.727V0Zm7.32,0H25.516V-8.453h2.266Zm3.945-8.453.07.977a2.951,2.951,0,0,1,2.43-1.133,2.453,2.453,0,0,1,2,.789A3.682,3.682,0,0,1,36.9-5.461V0H34.641V-5.406a1.465,1.465,0,0,0-.312-1.043,1.4,1.4,0,0,0-1.039-.324,1.553,1.553,0,0,0-1.43.813V0H29.6V-8.453ZM40.992,0H38.727V-8.453h2.266Zm-2.4-10.641a1.112,1.112,0,0,1,.34-.836,1.277,1.277,0,0,1,.926-.328,1.28,1.28,0,0,1,.922.328,1.105,1.105,0,0,1,.344.836,1.108,1.108,0,0,1-.348.844,1.283,1.283,0,0,1-.918.328,1.283,1.283,0,0,1-.918-.328A1.108,1.108,0,0,1,38.594-10.641Zm9.008,4.3a6.134,6.134,0,0,0-.812-.062,1.654,1.654,0,0,0-1.68.867V0H42.852V-8.453h2.133l.063,1.008A2.092,2.092,0,0,1,46.93-8.609a2.366,2.366,0,0,1,.7.1Z" transform="translate(133.648 232.981)" fill="#1e0b4a"/>
        <path id="Trazado_617023" data-name="Trazado 617023" d="M3.25,0H.984V-12H3.25Zm6.758,0a2.507,2.507,0,0,1-.227-.758A2.732,2.732,0,0,1,7.648.156,3,3,0,0,1,5.59-.562a2.312,2.312,0,0,1-.816-1.812,2.389,2.389,0,0,1,1-2.062,4.915,4.915,0,0,1,2.879-.727H9.688v-.484a1.393,1.393,0,0,0-.3-.937,1.183,1.183,0,0,0-.949-.352,1.345,1.345,0,0,0-.895.273.929.929,0,0,0-.324.75H4.961a2.268,2.268,0,0,1,.453-1.359A3,3,0,0,1,6.7-8.254a4.669,4.669,0,0,1,1.859-.355,3.689,3.689,0,0,1,2.48.785,2.747,2.747,0,0,1,.918,2.207v3.664a4.041,4.041,0,0,0,.336,1.82V0ZM8.141-1.57a1.945,1.945,0,0,0,.922-.223,1.462,1.462,0,0,0,.625-.6V-3.844H8.844q-1.7,0-1.8,1.172l-.008.133a.9.9,0,0,0,.3.7A1.153,1.153,0,0,0,8.141-1.57ZM21.563.156A4.15,4.15,0,0,1,18.535-.984a4.054,4.054,0,0,1-1.168-3.039v-.219a5.106,5.106,0,0,1,.492-2.277,3.612,3.612,0,0,1,1.395-1.547,3.914,3.914,0,0,1,2.059-.543,3.508,3.508,0,0,1,2.73,1.094,4.444,4.444,0,0,1,1,3.1v.922H19.656a2.1,2.1,0,0,0,.66,1.328,2,2,0,0,0,1.395.5,2.437,2.437,0,0,0,2.039-.945l1.109,1.242A3.389,3.389,0,0,1,23.484-.246,4.511,4.511,0,0,1,21.563.156ZM21.3-6.789a1.411,1.411,0,0,0-1.09.455,2.357,2.357,0,0,0-.535,1.3H22.82v-.181a1.681,1.681,0,0,0-.406-1.165A1.456,1.456,0,0,0,21.3-6.789ZM30.9-2.336a.727.727,0,0,0-.41-.652,4.659,4.659,0,0,0-1.316-.426q-3.016-.633-3.016-2.562a2.323,2.323,0,0,1,.934-1.879,3.766,3.766,0,0,1,2.441-.754,4.053,4.053,0,0,1,2.574.758,2.388,2.388,0,0,1,.965,1.969H30.813a1.092,1.092,0,0,0-.312-.8A1.322,1.322,0,0,0,29.523-7a1.351,1.351,0,0,0-.883.258.814.814,0,0,0-.312.656.7.7,0,0,0,.355.605,3.657,3.657,0,0,0,1.2.4A9.8,9.8,0,0,1,31.3-4.7,2.336,2.336,0,0,1,33.094-2.43,2.2,2.2,0,0,1,32.1-.559a4.28,4.28,0,0,1-2.562.715,4.47,4.47,0,0,1-1.887-.379,3.166,3.166,0,0,1-1.293-1.039,2.414,2.414,0,0,1-.469-1.426h2.141a1.179,1.179,0,0,0,.445.922,1.766,1.766,0,0,0,1.109.32,1.635,1.635,0,0,0,.98-.246A.766.766,0,0,0,30.9-2.336Zm6.352-8.2v2.078H38.7V-6.8H37.25v4.219a1.007,1.007,0,0,0,.18.672.9.9,0,0,0,.688.2,3.6,3.6,0,0,0,.664-.055V-.047a4.648,4.648,0,0,1-1.367.2,2.156,2.156,0,0,1-2.422-2.4V-6.8H33.758V-8.453h1.234v-2.078Zm7.453,4.2a6.134,6.134,0,0,0-.812-.062,1.654,1.654,0,0,0-1.68.867V0H39.953V-8.453h2.133l.063,1.008a2.092,2.092,0,0,1,1.883-1.164,2.366,2.366,0,0,1,.7.1ZM50.229,0A2.507,2.507,0,0,1,50-.758,2.732,2.732,0,0,1,47.87.156a3,3,0,0,1-2.059-.719,2.312,2.312,0,0,1-.816-1.812,2.389,2.389,0,0,1,1-2.062,4.915,4.915,0,0,1,2.879-.727h1.039v-.484a1.393,1.393,0,0,0-.3-.937,1.183,1.183,0,0,0-.949-.352,1.345,1.345,0,0,0-.895.273.929.929,0,0,0-.324.75H45.182a2.268,2.268,0,0,1,.453-1.359,3,3,0,0,1,1.281-.98,4.669,4.669,0,0,1,1.859-.355,3.689,3.689,0,0,1,2.48.785,2.747,2.747,0,0,1,.918,2.207v3.664a4.041,4.041,0,0,0,.336,1.82V0ZM48.362-1.57a1.945,1.945,0,0,0,.922-.223,1.462,1.462,0,0,0,.625-.6V-3.844h-.844q-1.7,0-1.8,1.172l-.008.133a.9.9,0,0,0,.3.7A1.153,1.153,0,0,0,48.362-1.57Zm8.25-8.961v2.078h1.445V-6.8H56.612v4.219a1.007,1.007,0,0,0,.18.672.9.9,0,0,0,.688.2,3.6,3.6,0,0,0,.664-.055V-.047a4.648,4.648,0,0,1-1.367.2,2.156,2.156,0,0,1-2.422-2.4V-6.8H53.12V-8.453h1.234v-2.078ZM63.206.156A4.15,4.15,0,0,1,60.178-.984,4.054,4.054,0,0,1,59.01-4.023v-.219A5.106,5.106,0,0,1,59.5-6.52,3.612,3.612,0,0,1,60.9-8.066a3.914,3.914,0,0,1,2.059-.543,3.508,3.508,0,0,1,2.73,1.094,4.444,4.444,0,0,1,1,3.1v.922H61.3a2.1,2.1,0,0,0,.66,1.328,2,2,0,0,0,1.395.5,2.437,2.437,0,0,0,2.039-.945L66.5-1.367A3.389,3.389,0,0,1,65.128-.246,4.511,4.511,0,0,1,63.206.156Zm-.258-6.945a1.411,1.411,0,0,0-1.09.455,2.357,2.357,0,0,0-.535,1.3h3.141v-.181a1.681,1.681,0,0,0-.406-1.165A1.456,1.456,0,0,0,62.948-6.789Zm4.688,2.5a4.954,4.954,0,0,1,.926-3.133,3,3,0,0,1,2.5-1.187,2.631,2.631,0,0,1,2.164.953l.094-.8h2.047V-.281a3.613,3.613,0,0,1-.5,1.93A3.236,3.236,0,0,1,73.44,2.9a4.985,4.985,0,0,1-2.141.43,4.635,4.635,0,0,1-1.812-.371A3.217,3.217,0,0,1,68.151,2l1-1.375A2.645,2.645,0,0,0,71.2,1.57a1.936,1.936,0,0,0,1.4-.48,1.8,1.8,0,0,0,.5-1.363V-.727a2.612,2.612,0,0,1-2.055.883,2.992,2.992,0,0,1-2.465-1.191,4.953,4.953,0,0,1-.941-3.16Zm2.258.168a3.085,3.085,0,0,0,.461,1.8,1.466,1.466,0,0,0,1.266.653A1.568,1.568,0,0,0,73.1-2.439V-6a1.564,1.564,0,0,0-1.461-.775,1.476,1.476,0,0,0-1.277.665A3.477,3.477,0,0,0,69.893-4.121ZM79.479,0H77.214V-8.453h2.266Zm-2.4-10.641a1.112,1.112,0,0,1,.34-.836,1.277,1.277,0,0,1,.926-.328,1.28,1.28,0,0,1,.922.328,1.105,1.105,0,0,1,.344.836,1.108,1.108,0,0,1-.348.844,1.283,1.283,0,0,1-.918.328,1.283,1.283,0,0,1-.918-.328A1.108,1.108,0,0,1,77.081-10.641ZM86.237,0a2.507,2.507,0,0,1-.227-.758,2.732,2.732,0,0,1-2.133.914,3,3,0,0,1-2.059-.719A2.312,2.312,0,0,1,81-2.375a2.389,2.389,0,0,1,1-2.062,4.915,4.915,0,0,1,2.879-.727h1.039v-.484a1.393,1.393,0,0,0-.3-.937,1.183,1.183,0,0,0-.949-.352,1.345,1.345,0,0,0-.895.273.929.929,0,0,0-.324.75H81.19a2.268,2.268,0,0,1,.453-1.359,3,3,0,0,1,1.281-.98,4.669,4.669,0,0,1,1.859-.355,3.689,3.689,0,0,1,2.48.785,2.747,2.747,0,0,1,.918,2.207v3.664a4.041,4.041,0,0,0,.336,1.82V0ZM84.37-1.57a1.945,1.945,0,0,0,.922-.223,1.462,1.462,0,0,0,.625-.6V-3.844h-.844q-1.7,0-1.8,1.172l-.008.133a.9.9,0,0,0,.3.7A1.153,1.153,0,0,0,84.37-1.57Z" transform="translate(110.217 254.811)" fill="#1e0b4a"/>
      </g>
    </g>
  </g>
</svg>
