<svg xmlns="http://www.w3.org/2000/svg" width="120" height="120" viewBox="0 0 120 120">
  <g id="img4" transform="translate(-180 -2709.23)">
    <g id="Grupo_1074445" data-name="Grupo 1074445" transform="translate(0 -6240.77)">
      <rect id="Rect치ngulo_378651" data-name="Rect치ngulo 378651" width="120" height="26" rx="13" transform="translate(180 9044)" fill="#315884"/>
      <g id="Grupo_1074381" data-name="Grupo 1074381" transform="translate(183 8950)">
        <g id="Grupo_1073526" data-name="Grupo 1073526" transform="translate(0 0)">
          <g id="Grupo_1072785" data-name="Grupo 1072785" transform="translate(0 0)">
            <path id="Trazado_608385" data-name="Trazado 608385" d="M56.514,0A56.514,56.514,0,1,1,0,56.514,56.514,56.514,0,0,1,56.514,0Z" transform="translate(0 0)" fill="none"/>
          </g>
          <g id="Grupo_1073383" data-name="Grupo 1073383" transform="translate(0 0)">
            <g id="Trazado_608385-2" data-name="Trazado 608385" transform="translate(0 0)" fill="#fff">
              <path d="M 56.51415634155273 112.0283126831055 C 49.01935577392578 112.0283126831055 41.74926376342773 110.560661315918 34.90584945678711 107.6661376953125 C 31.61661720275879 106.2749252319336 28.4440803527832 104.5529098510742 25.47635650634766 102.5479583740234 C 22.53657150268555 100.561882019043 19.7720947265625 98.28097534179688 17.25972557067871 95.76858520507812 C 14.74734115600586 93.25621795654297 12.46643352508545 90.49173736572266 10.48035621643066 87.55195617675781 C 8.47540283203125 84.58423614501953 6.753386974334717 81.41169738769531 5.362171649932861 78.12246704101562 C 2.46764874458313 71.27904510498047 1.000002503395081 64.00895690917969 1.000002503395081 56.51415634155273 C 1.000002503395081 49.01935577392578 2.46764874458313 41.74926376342773 5.362171649932861 34.90584945678711 C 6.753386974334717 31.61661720275879 8.47540283203125 28.4440803527832 10.48035621643066 25.47635650634766 C 12.46643352508545 22.53657150268555 14.74734115600586 19.7720947265625 17.25972557067871 17.25972557067871 C 19.7720947265625 14.74734115600586 22.53657150268555 12.46643352508545 25.47635650634766 10.48035621643066 C 28.4440803527832 8.47540283203125 31.61661720275879 6.753386974334717 34.90584945678711 5.362171649932861 C 41.74926376342773 2.46764874458313 49.01935577392578 1.000002503395081 56.51415634155273 1.000002503395081 C 64.00895690917969 1.000002503395081 71.27904510498047 2.46764874458313 78.12246704101562 5.362171649932861 C 81.41169738769531 6.753386974334717 84.58423614501953 8.47540283203125 87.55195617675781 10.48035621643066 C 90.49173736572266 12.46643352508545 93.25621795654297 14.74734115600586 95.76858520507812 17.25972557067871 C 98.28097534179688 19.7720947265625 100.561882019043 22.53657150268555 102.5479583740234 25.47635650634766 C 104.5529098510742 28.4440803527832 106.2749252319336 31.61661720275879 107.6661376953125 34.90584945678711 C 110.560661315918 41.74926376342773 112.0283126831055 49.01935577392578 112.0283126831055 56.51415634155273 C 112.0283126831055 64.00895690917969 110.560661315918 71.27904510498047 107.6661376953125 78.12246704101562 C 106.2749252319336 81.41169738769531 104.5529098510742 84.58423614501953 102.5479583740234 87.55195617675781 C 100.561882019043 90.49173736572266 98.28097534179688 93.25621795654297 95.76858520507812 95.76858520507812 C 93.25621795654297 98.28097534179688 90.49173736572266 100.561882019043 87.55195617675781 102.5479583740234 C 84.58423614501953 104.5529098510742 81.41169738769531 106.2749252319336 78.12246704101562 107.6661376953125 C 71.27904510498047 110.560661315918 64.00895690917969 112.0283126831055 56.51415634155273 112.0283126831055 Z" stroke="none"/>
              <path d="M 56.51415634155273 1.999992370605469 C 49.15390777587891 1.999992370605469 42.014892578125 3.441055297851562 35.29540252685547 6.283157348632812 C 32.06564331054688 7.649238586425781 28.95038604736328 9.340156555175781 26.03617095947266 11.30897521972656 C 23.14912414550781 13.25942230224609 20.4342041015625 15.49945831298828 17.96681976318359 17.96681976318359 C 15.49945831298828 20.4342041015625 13.25942230224609 23.14912414550781 11.30897521972656 26.03617095947266 C 9.340156555175781 28.95038604736328 7.649238586425781 32.06564331054688 6.283157348632812 35.29540252685547 C 3.441055297851562 42.014892578125 1.999992370605469 49.15390777587891 1.999992370605469 56.51415634155273 C 1.999992370605469 63.87440490722656 3.441055297851562 71.013427734375 6.283157348632812 77.73292541503906 C 7.649238586425781 80.96267700195312 9.340156555175781 84.07792663574219 11.30897521972656 86.99214172363281 C 13.25942230224609 89.87918853759766 15.49945831298828 92.59410858154297 17.96681976318359 95.06149291992188 C 20.4342041015625 97.52885437011719 23.14912414550781 99.76889038085938 26.03617095947266 101.7193374633789 C 28.95038604736328 103.6881408691406 32.06564331054688 105.3790740966797 35.29540252685547 106.7451400756836 C 42.014892578125 109.5872421264648 49.15390777587891 111.0283050537109 56.51415634155273 111.0283050537109 C 63.87440490722656 111.0283050537109 71.013427734375 109.5872421264648 77.73292541503906 106.7451400756836 C 80.96267700195312 105.3790740966797 84.07792663574219 103.6881408691406 86.99214172363281 101.7193374633789 C 89.87918853759766 99.76889038085938 92.59410858154297 97.52885437011719 95.06149291992188 95.06149291992188 C 97.52885437011719 92.59410858154297 99.76889038085938 89.87918853759766 101.7193374633789 86.99214172363281 C 103.6881408691406 84.07792663574219 105.3790740966797 80.96267700195312 106.7451400756836 77.73292541503906 C 109.5872421264648 71.013427734375 111.0283050537109 63.87440490722656 111.0283050537109 56.51415634155273 C 111.0283050537109 49.15390777587891 109.5872421264648 42.014892578125 106.7451400756836 35.29540252685547 C 105.3790740966797 32.06564331054688 103.6881408691406 28.95038604736328 101.7193374633789 26.03617095947266 C 99.76889038085938 23.14912414550781 97.52885437011719 20.4342041015625 95.06149291992188 17.96681976318359 C 92.59410858154297 15.49945831298828 89.87918853759766 13.25942230224609 86.99214172363281 11.30897521972656 C 84.07792663574219 9.340156555175781 80.96267700195312 7.649238586425781 77.73292541503906 6.283157348632812 C 71.013427734375 3.441055297851562 63.87440490722656 1.999992370605469 56.51415634155273 1.999992370605469 M 56.51415634155273 -7.62939453125e-06 C 87.72607421875 -7.62939453125e-06 113.0283050537109 25.30225372314453 113.0283050537109 56.51415634155273 C 113.0283050537109 87.72607421875 87.72607421875 113.0283050537109 56.51415634155273 113.0283050537109 C 25.30225372314453 113.0283050537109 -7.62939453125e-06 87.72607421875 -7.62939453125e-06 56.51415634155273 C -7.62939453125e-06 25.30225372314453 25.30225372314453 -7.62939453125e-06 56.51415634155273 -7.62939453125e-06 Z" stroke="none" fill="#85b6ec"/>
            </g>
          </g>
        </g>
      </g>
      <path id="Trazado_615556" data-name="Trazado 615556" d="M751.445,142l4.348-4.348a1.229,1.229,0,0,0-1.738-1.738l-4.348,4.348-4.348-4.348a1.229,1.229,0,0,0-1.738,1.738L747.969,142l-4.348,4.348a1.229,1.229,0,1,0,1.738,1.738l4.348-4.348,4.348,4.348a1.229,1.229,0,1,0,1.738-1.738Z" transform="translate(-464.697 8824.275)" fill="#ff7c48"/>
      <path id="Trazado_615557" data-name="Trazado 615557" d="M269.267,80.733l8.719-13.693L286.7,80.733Z" transform="translate(262.496 8755.865) rotate(90)" fill="#ffb850"/>
      <path id="Trazado_615559" data-name="Trazado 615559" d="M158.142,311.6a3.583,3.583,0,1,1-3.583-3.583,3.583,3.583,0,0,1,3.583,3.583" transform="translate(116.027 8742.871)" fill="#ffb850"/>
      <path id="Trazado_615560" data-name="Trazado 615560" d="M75.888,311.6a3.583,3.583,0,1,1-3.583-3.583,3.583,3.583,0,0,1,3.583,3.583" transform="translate(183.367 8742.871)" fill="#3656b3"/>
      <path id="Trazado_615561" data-name="Trazado 615561" d="M240.4,311.6a3.583,3.583,0,1,1-3.583-3.583A3.583,3.583,0,0,1,240.4,311.6" transform="translate(48.689 8742.871)" fill="#29c7cc"/>
    </g>
    <g id="Grupo_1074446" data-name="Grupo 1074446" transform="translate(203.242 2727.539)">
      <rect id="Rect치ngulo_378646" data-name="Rect치ngulo 378646" width="72.538" height="72.538" fill="#fff"/>
      <g id="Grupo_1075330" data-name="Grupo 1075330" transform="translate(0 -66.099)">
        <g id="Grupo_1075329" data-name="Grupo 1075329" transform="translate(0 77.321)">
          <path id="Trazado_616713" data-name="Trazado 616713" d="M359.781,162.5l-16.727,6.933a18.091,18.091,0,0,0-3.932-5.869l12.809-12.809A35.994,35.994,0,0,1,359.781,162.5Z" transform="translate(-290.1 -140.142)" fill="#f7be56"/>
          <path id="Trazado_616714" data-name="Trazado 616714" d="M385.819,245.878H367.705a17.88,17.88,0,0,0-1.379-6.933l16.727-6.933A36,36,0,0,1,385.819,245.878Z" transform="translate(-313.371 -209.651)" fill="#e56353"/>
          <path id="Trazado_616715" data-name="Trazado 616715" d="M385.818,327.932a36.08,36.08,0,0,1-2.766,13.866l-16.727-6.933a18.008,18.008,0,0,0,1.379-6.933Z" transform="translate(-313.371 -291.705)" fill="#d15241"/>
          <path id="Trazado_616716" data-name="Trazado 616716" d="M19.485,334.865,2.744,341.8A36.214,36.214,0,0,1,0,327.932H18.106A18.016,18.016,0,0,0,19.485,334.865Z" transform="translate(0 -291.705)" fill="#44c4a1"/>
          <path id="Trazado_616717" data-name="Trazado 616717" d="M317.2,104.208l-12.809,12.809a18.18,18.18,0,0,0-5.869-3.932l6.933-16.734A36.379,36.379,0,0,1,317.2,104.208Z" transform="translate(-255.369 -93.6)" fill="#fcd462"/>
          <path id="Trazado_616718" data-name="Trazado 616718" d="M250.561,77.321V95.435a18,18,0,0,1,6.933,1.372l6.933-16.734A36.21,36.21,0,0,0,250.561,77.321Z" transform="translate(-214.341 -77.321)" fill="#2d93ba"/>
          <path id="Trazado_616719" data-name="Trazado 616719" d="M168.507,77.321V95.435a18,18,0,0,0-6.933,1.372l-6.933-16.734A36.183,36.183,0,0,1,168.507,77.321Z" transform="translate(-132.287 -77.321)" fill="#27a2db"/>
          <path id="Trazado_616720" data-name="Trazado 616720" d="M92.066,113.087a17.929,17.929,0,0,0-5.869,3.94L73.388,104.218a36.316,36.316,0,0,1,11.738-7.865Z" transform="translate(-62.779 -93.602)" fill="#d5d6db"/>
          <path id="Trazado_616721" data-name="Trazado 616721" d="M19.485,238.945a17.877,17.877,0,0,0-1.379,6.933H0a36.123,36.123,0,0,1,2.744-13.866Z" transform="translate(0 -209.651)" fill="#3ea69b"/>
          <path id="Trazado_616722" data-name="Trazado 616722" d="M39.655,163.611a18.066,18.066,0,0,0-3.932,5.869l-16.742-6.933a36.163,36.163,0,0,1,7.865-11.738Z" transform="translate(-16.237 -140.186)" fill="#e1e6e9"/>
          <path id="Trazado_616723" data-name="Trazado 616723" d="M230.682,280.181a5.869,5.869,0,1,0-.025,8.3l.025-.025A5.869,5.869,0,0,0,230.682,280.181Z" transform="translate(-188.754 -249.375)" fill="#d5d6db"/>
          <path id="Trazado_616724" data-name="Trazado 616724" d="M206.215,222.613l18.8-25.912a.5.5,0,0,0-.734-.668l-25.025,19.676a1.13,1.13,0,0,0-.1,1.695l5.348,5.341a1.13,1.13,0,0,0,1.6.007,1.085,1.085,0,0,0,.119-.139Z" transform="translate(-170.076 -178.733)" fill="#e1e6e9"/>
        </g>
      </g>
    </g>
  </g>
</svg>
