<svg xmlns="http://www.w3.org/2000/svg" width="120" height="120" viewBox="0 0 120 120">
  <g id="img5" transform="translate(-810 -2709.23)">
    <g id="Grupo_1074448" data-name="Grupo 1074448" transform="translate(630 -6240.77)">
      <rect id="Rect치ngulo_378651" data-name="Rect치ngulo 378651" width="120" height="26" rx="13" transform="translate(180 9044)" fill="#315884"/>
      <g id="Grupo_1074381" data-name="Grupo 1074381" transform="translate(183 8950)">
        <g id="Grupo_1073526" data-name="Grupo 1073526" transform="translate(0 0)">
          <g id="Grupo_1072785" data-name="Grupo 1072785" transform="translate(0 0)">
            <path id="Trazado_608385" data-name="Trazado 608385" d="M56.514,0A56.514,56.514,0,1,1,0,56.514,56.514,56.514,0,0,1,56.514,0Z" transform="translate(0 0)" fill="none"/>
          </g>
          <g id="Grupo_1073383" data-name="Grupo 1073383" transform="translate(0 0)">
            <g id="Trazado_608385-2" data-name="Trazado 608385" transform="translate(0 0)" fill="#fff">
              <path d="M 56.51415634155273 112.0283126831055 C 49.01935577392578 112.0283126831055 41.74926376342773 110.560661315918 34.90584945678711 107.6661376953125 C 31.61661720275879 106.2749252319336 28.4440803527832 104.5529098510742 25.47635650634766 102.5479583740234 C 22.53657150268555 100.561882019043 19.7720947265625 98.28097534179688 17.25972557067871 95.76858520507812 C 14.74734115600586 93.25621795654297 12.46643352508545 90.49173736572266 10.48035621643066 87.55195617675781 C 8.47540283203125 84.58423614501953 6.753386974334717 81.41169738769531 5.362171649932861 78.12246704101562 C 2.46764874458313 71.27904510498047 1.000002503395081 64.00895690917969 1.000002503395081 56.51415634155273 C 1.000002503395081 49.01935577392578 2.46764874458313 41.74926376342773 5.362171649932861 34.90584945678711 C 6.753386974334717 31.61661720275879 8.47540283203125 28.4440803527832 10.48035621643066 25.47635650634766 C 12.46643352508545 22.53657150268555 14.74734115600586 19.7720947265625 17.25972557067871 17.25972557067871 C 19.7720947265625 14.74734115600586 22.53657150268555 12.46643352508545 25.47635650634766 10.48035621643066 C 28.4440803527832 8.47540283203125 31.61661720275879 6.753386974334717 34.90584945678711 5.362171649932861 C 41.74926376342773 2.46764874458313 49.01935577392578 1.000002503395081 56.51415634155273 1.000002503395081 C 64.00895690917969 1.000002503395081 71.27904510498047 2.46764874458313 78.12246704101562 5.362171649932861 C 81.41169738769531 6.753386974334717 84.58423614501953 8.47540283203125 87.55195617675781 10.48035621643066 C 90.49173736572266 12.46643352508545 93.25621795654297 14.74734115600586 95.76858520507812 17.25972557067871 C 98.28097534179688 19.7720947265625 100.561882019043 22.53657150268555 102.5479583740234 25.47635650634766 C 104.5529098510742 28.4440803527832 106.2749252319336 31.61661720275879 107.6661376953125 34.90584945678711 C 110.560661315918 41.74926376342773 112.0283126831055 49.01935577392578 112.0283126831055 56.51415634155273 C 112.0283126831055 64.00895690917969 110.560661315918 71.27904510498047 107.6661376953125 78.12246704101562 C 106.2749252319336 81.41169738769531 104.5529098510742 84.58423614501953 102.5479583740234 87.55195617675781 C 100.561882019043 90.49173736572266 98.28097534179688 93.25621795654297 95.76858520507812 95.76858520507812 C 93.25621795654297 98.28097534179688 90.49173736572266 100.561882019043 87.55195617675781 102.5479583740234 C 84.58423614501953 104.5529098510742 81.41169738769531 106.2749252319336 78.12246704101562 107.6661376953125 C 71.27904510498047 110.560661315918 64.00895690917969 112.0283126831055 56.51415634155273 112.0283126831055 Z" stroke="none"/>
              <path d="M 56.51415634155273 1.999992370605469 C 49.15390777587891 1.999992370605469 42.014892578125 3.441055297851562 35.29540252685547 6.283157348632812 C 32.06564331054688 7.649238586425781 28.95038604736328 9.340156555175781 26.03617095947266 11.30897521972656 C 23.14912414550781 13.25942230224609 20.4342041015625 15.49945831298828 17.96681976318359 17.96681976318359 C 15.49945831298828 20.4342041015625 13.25942230224609 23.14912414550781 11.30897521972656 26.03617095947266 C 9.340156555175781 28.95038604736328 7.649238586425781 32.06564331054688 6.283157348632812 35.29540252685547 C 3.441055297851562 42.014892578125 1.999992370605469 49.15390777587891 1.999992370605469 56.51415634155273 C 1.999992370605469 63.87440490722656 3.441055297851562 71.013427734375 6.283157348632812 77.73292541503906 C 7.649238586425781 80.96267700195312 9.340156555175781 84.07792663574219 11.30897521972656 86.99214172363281 C 13.25942230224609 89.87918853759766 15.49945831298828 92.59410858154297 17.96681976318359 95.06149291992188 C 20.4342041015625 97.52885437011719 23.14912414550781 99.76889038085938 26.03617095947266 101.7193374633789 C 28.95038604736328 103.6881408691406 32.06564331054688 105.3790740966797 35.29540252685547 106.7451400756836 C 42.014892578125 109.5872421264648 49.15390777587891 111.0283050537109 56.51415634155273 111.0283050537109 C 63.87440490722656 111.0283050537109 71.013427734375 109.5872421264648 77.73292541503906 106.7451400756836 C 80.96267700195312 105.3790740966797 84.07792663574219 103.6881408691406 86.99214172363281 101.7193374633789 C 89.87918853759766 99.76889038085938 92.59410858154297 97.52885437011719 95.06149291992188 95.06149291992188 C 97.52885437011719 92.59410858154297 99.76889038085938 89.87918853759766 101.7193374633789 86.99214172363281 C 103.6881408691406 84.07792663574219 105.3790740966797 80.96267700195312 106.7451400756836 77.73292541503906 C 109.5872421264648 71.013427734375 111.0283050537109 63.87440490722656 111.0283050537109 56.51415634155273 C 111.0283050537109 49.15390777587891 109.5872421264648 42.014892578125 106.7451400756836 35.29540252685547 C 105.3790740966797 32.06564331054688 103.6881408691406 28.95038604736328 101.7193374633789 26.03617095947266 C 99.76889038085938 23.14912414550781 97.52885437011719 20.4342041015625 95.06149291992188 17.96681976318359 C 92.59410858154297 15.49945831298828 89.87918853759766 13.25942230224609 86.99214172363281 11.30897521972656 C 84.07792663574219 9.340156555175781 80.96267700195312 7.649238586425781 77.73292541503906 6.283157348632812 C 71.013427734375 3.441055297851562 63.87440490722656 1.999992370605469 56.51415634155273 1.999992370605469 M 56.51415634155273 -7.62939453125e-06 C 87.72607421875 -7.62939453125e-06 113.0283050537109 25.30225372314453 113.0283050537109 56.51415634155273 C 113.0283050537109 87.72607421875 87.72607421875 113.0283050537109 56.51415634155273 113.0283050537109 C 25.30225372314453 113.0283050537109 -7.62939453125e-06 87.72607421875 -7.62939453125e-06 56.51415634155273 C -7.62939453125e-06 25.30225372314453 25.30225372314453 -7.62939453125e-06 56.51415634155273 -7.62939453125e-06 Z" stroke="none" fill="#85b6ec"/>
            </g>
          </g>
        </g>
      </g>
      <path id="Trazado_615556" data-name="Trazado 615556" d="M751.445,142l4.348-4.348a1.229,1.229,0,0,0-1.738-1.738l-4.348,4.348-4.348-4.348a1.229,1.229,0,0,0-1.738,1.738L747.969,142l-4.348,4.348a1.229,1.229,0,1,0,1.738,1.738l4.348-4.348,4.348,4.348a1.229,1.229,0,1,0,1.738-1.738Z" transform="translate(-464.697 8824.275)" fill="#ff7c48"/>
      <path id="Trazado_615557" data-name="Trazado 615557" d="M269.267,80.733l8.719-13.693L286.7,80.733Z" transform="translate(262.496 8755.865) rotate(90)" fill="#ffb850"/>
      <path id="Trazado_615559" data-name="Trazado 615559" d="M158.142,311.6a3.583,3.583,0,1,1-3.583-3.583,3.583,3.583,0,0,1,3.583,3.583" transform="translate(116.027 8742.871)" fill="#ffb850"/>
      <path id="Trazado_615560" data-name="Trazado 615560" d="M75.888,311.6a3.583,3.583,0,1,1-3.583-3.583,3.583,3.583,0,0,1,3.583,3.583" transform="translate(183.367 8742.871)" fill="#3656b3"/>
      <path id="Trazado_615561" data-name="Trazado 615561" d="M240.4,311.6a3.583,3.583,0,1,1-3.583-3.583A3.583,3.583,0,0,1,240.4,311.6" transform="translate(48.689 8742.871)" fill="#29c7cc"/>
    </g>
    <g id="Grupo_1074449" data-name="Grupo 1074449" transform="translate(833.242 2727.539)">
      <rect id="Rect치ngulo_378646" data-name="Rect치ngulo 378646" width="72.538" height="72.538" fill="#fff"/>
      <g id="Grupo_1075332" data-name="Grupo 1075332" transform="translate(2.77 -2.688)">
        <g id="Grupo_1075331" data-name="Grupo 1075331" transform="translate(0 8.86)">
          <path id="Trazado_616725" data-name="Trazado 616725" d="M364.7,220.447V190.926a1.019,1.019,0,0,0-1.162-1.158h-3.463c-.6,0-.734-.427-.34-.822l8.756-8.756a1.1,1.1,0,0,1,1.64,0l8.755,8.756c.471.471.321.822-.34.822h-3.466a1.035,1.035,0,0,0-1.158,1.158v29.521a1.041,1.041,0,0,1-1.037,1.037h-7.148A1.041,1.041,0,0,1,364.7,220.447Z" transform="translate(-313.185 -157.793)" fill="#ffe07d" fill-rule="evenodd"/>
          <path id="Trazado_616726" data-name="Trazado 616726" d="M423.045,180.984l.793-.793a1.1,1.1,0,0,1,1.64,0l8.755,8.755c.471.471.321.822-.34.822h-3.466a1.035,1.035,0,0,0-1.158,1.158v29.521a1.041,1.041,0,0,1-1.037,1.037H425.01a1.042,1.042,0,0,0,1.037-1.037V184.958a2.22,2.22,0,0,0-.7-1.68Z" transform="translate(-368.532 -157.793)" fill="#ffd064" fill-rule="evenodd"/>
          <path id="Trazado_616727" data-name="Trazado 616727" d="M70.016,410.2H95.38a1.034,1.034,0,0,0,1.03-1.03v-5.91a1.034,1.034,0,0,0-1.03-1.03H70.016Z" transform="translate(-60.994 -351.538)" fill="#80b4fb" fill-rule="evenodd"/>
          <path id="Trazado_616728" data-name="Trazado 616728" d="M241.854,410.2h3.222a1.034,1.034,0,0,0,1.03-1.03v-5.91a1.034,1.034,0,0,0-1.03-1.03h-3.222a1.034,1.034,0,0,1,1.03,1.03v5.91A1.034,1.034,0,0,1,241.854,410.2Z" transform="translate(-210.689 -351.538)" fill="#61a2f9" fill-rule="evenodd"/>
          <path id="Trazado_616729" data-name="Trazado 616729" d="M70.016,217.926h32.513a1.034,1.034,0,0,0,1.034-1.03V205.737a1.034,1.034,0,0,0-1.034-1.03H70.016Z" transform="translate(-60.994 -179.471)" fill="#b3e59f" fill-rule="evenodd"/>
          <path id="Trazado_616730" data-name="Trazado 616730" d="M297.355,217.926h3.218a1.034,1.034,0,0,0,1.034-1.03V205.737a1.034,1.034,0,0,0-1.034-1.03h-3.218a1.034,1.034,0,0,1,1.03,1.03V216.9A1.033,1.033,0,0,1,297.355,217.926Z" transform="translate(-259.039 -179.471)" fill="#95d6a4" fill-rule="evenodd"/>
          <path id="Trazado_616731" data-name="Trazado 616731" d="M70.016,26.9h55.922a1.034,1.034,0,0,0,1.03-1.03V9.89a1.034,1.034,0,0,0-1.03-1.03H70.016Z" transform="translate(-60.994 -8.86)" fill="#e27f84" fill-rule="evenodd"/>
          <path id="Trazado_616732" data-name="Trazado 616732" d="M479,26.9h3.222a1.034,1.034,0,0,0,1.03-1.03V9.89a1.034,1.034,0,0,0-1.03-1.03H479a1.034,1.034,0,0,1,1.03,1.03V25.871A1.033,1.033,0,0,1,479,26.9Z" transform="translate(-417.278 -8.86)" fill="#c9646d" fill-rule="evenodd"/>
          <path id="Trazado_616733" data-name="Trazado 616733" d="M9.022,54.511A9.02,9.02,0,1,1,0,63.533,9.022,9.022,0,0,1,9.022,54.511Zm0-45.651A9.02,9.02,0,1,1,0,17.882,9.022,9.022,0,0,1,9.022,8.86Zm0,22.826A9.02,9.02,0,1,1,0,40.708,9.022,9.022,0,0,1,9.022,31.686Z" transform="translate(0 -8.86)" fill="#ebe8fa" fill-rule="evenodd"/>
          <path id="Trazado_616734" data-name="Trazado 616734" d="M59.127,54.511a9.02,9.02,0,1,1-1.611,17.9,9.022,9.022,0,0,0,0-17.752,8.972,8.972,0,0,1,1.611-.146Zm0-45.651a9.02,9.02,0,1,1-1.611,17.9A9.024,9.024,0,0,0,57.516,9,9.328,9.328,0,0,1,59.127,8.86Zm0,22.826a9.02,9.02,0,1,1-1.611,17.9,9.024,9.024,0,0,0,0-17.756A9.327,9.327,0,0,1,59.127,31.686Z" transform="translate(-50.105 -8.86)" fill="#dddaec" fill-rule="evenodd"/>
        </g>
        <path id="Trazado_616735" data-name="Trazado 616735" d="M48.27,220.284a.963.963,0,1,1,.022,1.925c-.011,0-4.529.055-5.158-.051a.929.929,0,0,1-.65-1.435,5.953,5.953,0,0,1,.61-.88c.5-.658,1.425-1.863,2.922-4a7.751,7.751,0,0,0,.643-1.034,2.285,2.285,0,0,0,.252-.99,1.3,1.3,0,0,0-.4-.931,1.565,1.565,0,0,0-1.012-.446,1.494,1.494,0,0,0-1.549,1.2.964.964,0,1,1-1.892-.369,3.428,3.428,0,0,1,3.539-2.758,3.516,3.516,0,0,1,2.265,1,3.234,3.234,0,0,1,.983,2.3,4.252,4.252,0,0,1-.449,1.83,9.422,9.422,0,0,1-.8,1.293c-1.125,1.607-1.907,2.67-2.44,3.382,1.337-.01,3.108-.036,3.116-.036Z" transform="translate(-36.622 -175.664)" fill="#365e7d"/>
        <path id="Trazado_616736" data-name="Trazado 616736" d="M55.5,36.021a.966.966,0,0,1,0-1.932H57.56a.963.963,0,0,1,.964.964v9.61a.966.966,0,1,1-1.932,0V36.021Z" transform="translate(-47.511 -21.978)" fill="#365e7d"/>
        <path id="Trazado_616737" data-name="Trazado 616737" d="M45.388,390.622a.966.966,0,0,1-1.9-.369,3.424,3.424,0,1,1,5.742,3.12,3.421,3.421,0,0,1-4.624,5.041,3.444,3.444,0,0,1-1.184-2.582.966.966,0,1,1,1.932,0,1.47,1.47,0,0,0,.511,1.125,1.492,1.492,0,1,0,.983-2.619.966.966,0,1,1,0-1.932,1.5,1.5,0,1,0-1.465-1.783Z" transform="translate(-37.83 -329.839)" fill="#365e7d"/>
      </g>
    </g>
  </g>
</svg>
