<svg xmlns="http://www.w3.org/2000/svg" width="139" height="139" viewBox="0 0 139 139">
  <g id="img8" transform="translate(-731 -3716.807)">
    <g id="Grupo_1074468" data-name="Grupo 1074468" transform="translate(731 3716.807)">
      <rect id="Rect치ngulo_378651" data-name="Rect치ngulo 378651" width="139" height="30" rx="15" transform="translate(0 109)" fill="#315884"/>
      <g id="Grupo_1074381" data-name="Grupo 1074381" transform="translate(3.475 0)">
        <g id="Grupo_1073526" data-name="Grupo 1073526" transform="translate(0 0)">
          <g id="Grupo_1072785" data-name="Grupo 1072785" transform="translate(0 0)">
            <path id="Trazado_608385" data-name="Trazado 608385" d="M65.462,0A65.462,65.462,0,1,1,0,65.462,65.462,65.462,0,0,1,65.462,0Z" transform="translate(0 0)" fill="none"/>
          </g>
          <g id="Grupo_1073383" data-name="Grupo 1073383" transform="translate(0 0)">
            <g id="Trazado_608385-2" data-name="Trazado 608385" transform="translate(0 0)" fill="#fff">
              <path d="M 65.46222686767578 129.9244689941406 C 56.75944519042969 129.9244689941406 48.3175163269043 128.2202301025391 40.37093734741211 124.8591156005859 C 36.55149841308594 123.2436294555664 32.86757278442383 121.2440414428711 29.42148208618164 118.9159164428711 C 26.00788116455078 116.609733581543 22.7978458404541 113.9612121582031 19.88055419921875 111.0439147949219 C 16.9632625579834 108.1266098022461 14.31473636627197 104.9165878295898 12.00855445861816 101.5029754638672 C 9.680426597595215 98.05690002441406 7.680845260620117 94.37297058105469 6.065354347229004 90.55353546142578 C 2.704245090484619 82.60695648193359 1.000008702278137 74.16500854492188 1.000008702278137 65.46222686767578 C 1.000008702278137 56.75944519042969 2.704245090484619 48.3175163269043 6.065354347229004 40.37093734741211 C 7.680845260620117 36.55149841308594 9.680426597595215 32.86757278442383 12.00855445861816 29.42148208618164 C 14.31473636627197 26.00788116455078 16.9632625579834 22.7978458404541 19.88055419921875 19.88055419921875 C 22.7978458404541 16.9632625579834 26.00788116455078 14.31473636627197 29.42148208618164 12.00855445861816 C 32.86757278442383 9.680426597595215 36.55149841308594 7.680845260620117 40.37093734741211 6.065354347229004 C 48.3175163269043 2.704245090484619 56.75944519042969 1.000008702278137 65.46222686767578 1.000008702278137 C 74.16500854492188 1.000008702278137 82.60695648193359 2.704245090484619 90.55353546142578 6.065354347229004 C 94.37297058105469 7.680845260620117 98.05690002441406 9.680426597595215 101.5029754638672 12.00855445861816 C 104.9165878295898 14.31473636627197 108.1266098022461 16.9632625579834 111.0439147949219 19.88055419921875 C 113.9612121582031 22.7978458404541 116.609733581543 26.00788116455078 118.9159164428711 29.42148208618164 C 121.2440414428711 32.86757278442383 123.2436294555664 36.55149841308594 124.8591156005859 40.37093734741211 C 128.2202301025391 48.3175163269043 129.9244689941406 56.75944519042969 129.9244689941406 65.46222686767578 C 129.9244689941406 74.16500854492188 128.2202301025391 82.60695648193359 124.8591156005859 90.55353546142578 C 123.2436294555664 94.37297058105469 121.2440414428711 98.05690002441406 118.9159164428711 101.5029754638672 C 116.609733581543 104.9165878295898 113.9612121582031 108.1266098022461 111.0439147949219 111.0439147949219 C 108.1266098022461 113.9612121582031 104.9165878295898 116.609733581543 101.5029754638672 118.9159164428711 C 98.05690002441406 121.2440414428711 94.37297058105469 123.2436294555664 90.55353546142578 124.8591156005859 C 82.60695648193359 128.2202301025391 74.16500854492188 129.9244689941406 65.46222686767578 129.9244689941406 Z" stroke="none"/>
              <path d="M 65.46222686767578 1.999984741210938 C 56.89401245117188 1.999984741210938 48.58313751220703 3.677642822265625 40.76048278808594 6.986351013183594 C 37.00051879882812 8.576683044433594 33.37386322021484 10.54517364501953 29.98128509521484 12.83715057373047 C 26.62042999267578 15.10771942138672 23.45995330810547 17.71535491943359 20.587646484375 20.587646484375 C 17.71535491943359 23.45995330810547 15.10771942138672 26.62042999267578 12.83715057373047 29.98128509521484 C 10.54517364501953 33.37386322021484 8.576683044433594 37.00051879882812 6.986351013183594 40.76048278808594 C 3.677642822265625 48.58313751220703 1.999984741210938 56.89401245117188 1.999984741210938 65.46222686767578 C 1.999984741210938 74.03046417236328 3.677642822265625 82.34131622314453 6.986351013183594 90.16397094726562 C 8.576683044433594 93.9239501953125 10.54517364501953 97.55059051513672 12.83715057373047 100.9431762695312 C 15.10771942138672 104.3040313720703 17.71535491943359 107.4645004272461 20.587646484375 110.3367919921875 C 23.45995330810547 113.2090835571289 26.62042999267578 115.8167343139648 29.98128509521484 118.0872802734375 C 33.37386322021484 120.379264831543 37.00051879882812 122.3477554321289 40.76048278808594 123.938102722168 C 48.58313751220703 127.2467880249023 56.89401245117188 128.9244384765625 65.46222686767578 128.9244384765625 C 74.03046417236328 128.9244384765625 82.34133911132812 127.2467880249023 90.16397094726562 123.938102722168 C 93.9239501953125 122.3477554321289 97.55059051513672 120.379264831543 100.9431762695312 118.0872802734375 C 104.3040313720703 115.8167343139648 107.4645004272461 113.2090835571289 110.3367919921875 110.3367919921875 C 113.2090835571289 107.4645004272461 115.8167343139648 104.3040313720703 118.0872802734375 100.9431762695312 C 120.379264831543 97.55059051513672 122.3477554321289 93.9239501953125 123.938102722168 90.16397094726562 C 127.2467880249023 82.34133911132812 128.9244384765625 74.03046417236328 128.9244384765625 65.46222686767578 C 128.9244384765625 56.89401245117188 127.2467880249023 48.58313751220703 123.938102722168 40.76048278808594 C 122.3477554321289 37.00051879882812 120.379264831543 33.37386322021484 118.0872802734375 29.98128509521484 C 115.8167343139648 26.62042999267578 113.2090835571289 23.45995330810547 110.3367919921875 20.587646484375 C 107.4645004272461 17.71535491943359 104.3040313720703 15.10771942138672 100.9431762695312 12.83715057373047 C 97.55059051513672 10.54517364501953 93.9239501953125 8.576683044433594 90.16397094726562 6.986351013183594 C 82.34131622314453 3.677642822265625 74.03046417236328 1.999984741210938 65.46222686767578 1.999984741210938 M 65.46222686767578 -1.52587890625e-05 C 101.6160278320312 -1.52587890625e-05 130.9244384765625 29.30844879150391 130.9244384765625 65.46222686767578 C 130.9244384765625 101.6160278320312 101.6160278320312 130.9244384765625 65.46222686767578 130.9244384765625 C 29.30844879150391 130.9244384765625 -1.52587890625e-05 101.6160278320312 -1.52587890625e-05 65.46222686767578 C -1.52587890625e-05 29.30844879150391 29.30844879150391 -1.52587890625e-05 65.46222686767578 -1.52587890625e-05 Z" stroke="none" fill="#85b6ec"/>
            </g>
          </g>
        </g>
      </g>
      <path id="Trazado_615556" data-name="Trazado 615556" d="M752.741,143.019l5.036-5.036a1.424,1.424,0,1,0-2.013-2.013l-5.036,5.036-5.036-5.036a1.424,1.424,0,1,0-2.013,2.013l5.036,5.036-5.036,5.036a1.424,1.424,0,1,0,2.013,2.013l5.036-5.036,5.036,5.036a1.424,1.424,0,0,0,2.013-2.013Z" transform="translate(-629.091 -124.169)" fill="#ff7c48"/>
      <path id="Trazado_615557" data-name="Trazado 615557" d="M0,15.861,10.1,0,20.2,15.861Z" transform="translate(17.903 87.028) rotate(90)" fill="#ffb850"/>
      <path id="Trazado_615559" data-name="Trazado 615559" d="M159.276,312.164a4.15,4.15,0,1,1-4.15-4.15,4.15,4.15,0,0,1,4.15,4.15" transform="translate(-50.197 -191.155)" fill="#ffb850"/>
      <path id="Trazado_615560" data-name="Trazado 615560" d="M77.022,312.164a4.15,4.15,0,1,1-4.15-4.15,4.15,4.15,0,0,1,4.15,4.15" transform="translate(14.781 -191.155)" fill="#3656b3"/>
      <path id="Trazado_615561" data-name="Trazado 615561" d="M241.53,312.164a4.15,4.15,0,1,1-4.15-4.15,4.15,4.15,0,0,1,4.15,4.15" transform="translate(-115.173 -191.155)" fill="#29c7cc"/>
    </g>
    <g id="Grupo_1074469" data-name="Grupo 1074469" transform="translate(757.922 3738.014)">
      <rect id="Rect치ngulo_378646" data-name="Rect치ngulo 378646" width="84.023" height="84.023" fill="#fff"/>
      <g id="Grupo_1075349" data-name="Grupo 1075349" transform="translate(6.307 4.215)">
        <path id="Trazado_616931" data-name="Trazado 616931" d="M86.48,181.015,76,193.589h4.192V210.5l4.192,4.192H96.96v-21.1Z" transform="translate(-65.38 -155.721)" fill="#ffb64c"/>
        <path id="Trazado_616932" data-name="Trazado 616932" d="M14.812,392,0,408.768H16.908l6.288-4.192,4.1-8.209L27.388,392Z" transform="translate(0 -337.225)" fill="#ff9100"/>
        <path id="Trazado_616933" data-name="Trazado 616933" d="M296.48,181.015,286,193.589v21.1h13.493l3.275-4.192V193.589h4.192Z" transform="translate(-246.037 -155.721)" fill="#9266d8"/>
        <path id="Trazado_616934" data-name="Trazado 616934" d="M165.672,0,151,12.576h6.288V58.967h16.768V12.576h6.288Z" transform="translate(-129.9)" fill="#ff7666"/>
        <path id="Trazado_616935" data-name="Trazado 616935" d="M264.384,12.576h6.288L256,0V58.967h8.384Z" transform="translate(-220.229)" fill="#ff4547"/>
        <path id="Trazado_616936" data-name="Trazado 616936" d="M327.178,392H314.6l-.227,3.738,5.222,10.445,5.485,2.585H341.99Z" transform="translate(-270.447 -337.225)" fill="#5858a0"/>
        <g id="Grupo_1075348" data-name="Grupo 1075348" transform="translate(16.908 54.775)">
          <path id="Trazado_616937" data-name="Trazado 616937" d="M148.248,392H131.48L121,408.768h37.728Z" transform="translate(-121 -392)" fill="#ff4547"/>
          <path id="Trazado_616938" data-name="Trazado 616938" d="M264.384,392H256v16.768h18.864Z" transform="translate(-237.136 -392)" fill="#e00016"/>
        </g>
      </g>
    </g>
  </g>
</svg>
