<svg xmlns="http://www.w3.org/2000/svg" width="64.605" height="64.608" viewBox="0 0 64.605 64.608">
  <path id="banner-principal-decorativo-1" d="M1149.435,467.713a1.029,1.029,0,0,0-.84-1.155c-1.806-.623-3.606-1.268-5.372-1.993a2.142,2.142,0,0,1-1.01-1.056c-.741-1.716-1.414-3.462-2.058-5.216a1.69,1.69,0,0,1,0-1.164c.871-1.94,1.829-3.841,2.7-5.781a1.22,1.22,0,0,0-.144-1.079c-1.456-1.554-2.987-3.038-4.461-4.575a.877.877,0,0,0-1.211-.2c-1.84.913-3.694,1.8-5.569,2.64a1.858,1.858,0,0,1-1.267.059q-2.69-.968-5.325-2.083a1.972,1.972,0,0,1-1-.927c-.728-1.8-1.383-3.638-2.011-5.479-.2-.59-.44-.876-1.13-.86-2.058.052-4.117.047-6.175,0a1.029,1.029,0,0,0-1.149.846c-.619,1.806-1.319,3.583-1.933,5.392a1.592,1.592,0,0,1-1.152,1.1c-1.7.59-3.377,1.256-5.012,2.005a1.606,1.606,0,0,1-1.591-.014c-1.8-.908-3.641-1.743-5.448-2.647a.942.942,0,0,0-1.3.227c-1.424,1.486-2.875,2.949-4.368,4.365a1,1,0,0,0-.19,1.4c.895,1.81,1.772,3.63,2.582,5.479a1.866,1.866,0,0,1-.035,1.339q-1.126,2.627-2.407,5.188a2.208,2.208,0,0,1-1.039,1.029c-1.919.73-3.868,1.381-5.822,2.018a1.012,1.012,0,0,0-.856,1.136c.046,2.057.039,4.117,0,6.175a.935.935,0,0,0,.768,1.075c1.989.642,3.975,1.3,5.927,2.047a2.183,2.183,0,0,1,1.017,1.061c.788,1.656,1.438,3.38,2.262,5.015a1.776,1.776,0,0,1,.04,1.8c-.854,1.71-1.631,3.456-2.48,5.168a1.008,1.008,0,0,0,.22,1.4q2.234,2.129,4.365,4.367a1,1,0,0,0,1.392.2c1.776-.881,3.584-1.7,5.36-2.577a1.575,1.575,0,0,1,1.59.04c1.707.843,3.487,1.539,5.211,2.354a1.854,1.854,0,0,1,.878.918c.732,1.957,1.409,3.936,2.063,5.921a.958.958,0,0,0,1.085.777c2.058-.034,4.117-.04,6.175,0a.988.988,0,0,0,1.129-.842c.628-1.957,1.3-3.9,2.029-5.818a2.013,2.013,0,0,1,.972-.978c1.76-.823,3.546-1.592,5.345-2.32a1.782,1.782,0,0,1,1.258-.024c2.1.933,4.174,1.939,6.334,2.957,1.692-1.714,3.383-3.391,5.013-5.125a1.234,1.234,0,0,0,.1-1.094c-.837-1.876-1.764-3.712-2.611-5.583a1.772,1.772,0,0,1-.083-1.187c.636-1.833,1.313-3.655,2.05-5.45a1.962,1.962,0,0,1,.963-.982c1.8-.729,3.636-1.389,5.474-2.027a.963.963,0,0,0,.756-1.1c-.037-2.057-.042-4.117,0-6.174m-31.81,15.111a12.033,12.033,0,1,1,12.047-12.019,11.992,11.992,0,0,1-12.047,12.019" transform="translate(-1084.83 -438.847)" fill="#2b4284"/>
</svg>
