<svg xmlns="http://www.w3.org/2000/svg" xmlns:xlink="http://www.w3.org/1999/xlink" width="550" height="431" viewBox="0 0 550 431">
  <defs>
    <clipPath id="clip-path">
      <rect id="Rectángulo_378631" data-name="Rectángulo 378631" width="438.157" height="304.896" fill="none"/>
    </clipPath>
    <clipPath id="clip-path-2">
      <rect id="Rectángulo_379095" data-name="Rectángulo 379095" width="286.72" height="329" fill="none"/>
    </clipPath>
    <clipPath id="clip-path-4">
      <path id="Trazado_616961" data-name="Trazado 616961" d="M59.981,87.928a67.529,67.529,0,1,0,64.573-47.685A67.6,67.6,0,0,0,59.981,87.928" transform="translate(-56.957 -40.243)" fill="none"/>
    </clipPath>
    <clipPath id="clip-path-6">
      <rect id="Rectángulo_379091" data-name="Rectángulo 379091" width="158.299" height="158.299" fill="none"/>
    </clipPath>
    <clipPath id="clip-path-7">
      <path id="Trazado_616962" data-name="Trazado 616962" d="M52.842,88.4a79.128,79.128,0,1,0,98.943-52.275A79.129,79.129,0,0,0,52.842,88.4" transform="translate(-49.302 -32.589)" fill="none"/>
    </clipPath>
    <linearGradient id="linear-gradient" x1="-0.367" y1="1.634" x2="-0.358" y2="1.634" gradientUnits="objectBoundingBox">
      <stop offset="0" stop-color="#939598"/>
      <stop offset="1" stop-color="#231f20"/>
    </linearGradient>
    <clipPath id="clip-path-8">
      <rect id="Rectángulo_379093" data-name="Rectángulo 379093" width="96.642" height="81.331" fill="none"/>
    </clipPath>
    <clipPath id="clip-path-9">
      <path id="Trazado_616969" data-name="Trazado 616969" d="M213.843,232.561h-78.7a8.972,8.972,0,0,1-8.973-8.971V160.2a8.972,8.972,0,0,1,8.973-8.971h78.7a8.972,8.972,0,0,1,8.973,8.971V223.59a8.972,8.972,0,0,1-8.973,8.971" transform="translate(-126.174 -151.23)" fill="none"/>
    </clipPath>
    <linearGradient id="linear-gradient-2" x1="-1.967" y1="1.244" x2="-1.951" y2="1.244" xlink:href="#linear-gradient"/>
  </defs>
  <g id="banner-princiapal" transform="translate(-860.333 -132)">
    <g id="Grupo_1074325" data-name="Grupo 1074325">
      <path id="Trazado_615520" data-name="Trazado 615520" d="M0,0H550V431H0Z" transform="translate(860.333 132)" fill="none"/>
      <g id="Grupo_1074311" data-name="Grupo 1074311" transform="translate(1.924 9.09)">
        <rect id="Rectángulo_378585" data-name="Rectángulo 378585" width="540.49" height="100.236" rx="50.118" transform="translate(863.333 404.036)" fill="#fff"/>
      </g>
    </g>
    <path id="Trazado_873239" data-name="Trazado 873239" d="M203.121,158.035A77.576,77.576,0,1,0,56.872,121.083C38.2,129.562,6.647,156.521,1.491,197.034s20.482,95.833,78.875,98.358c103.877,4.489,153.138,4.489,162.573-49.955,4.1-23.659-5.211-76.827-39.818-87.4" transform="translate(970.921 187.762)" fill="#cbf4e1"/>
    <g id="Grupo_1074303" data-name="Grupo 1074303" transform="translate(916 188)" clip-path="url(#clip-path)">
      <path id="Trazado_611348" data-name="Trazado 611348" d="M10.573,269.305h103a10.572,10.572,0,0,1,10.573,10.573v22.565a10.572,10.572,0,0,1-10.573,10.572H101.818c-.89,1-2.234,3.475.569,7.815,0,0-6.974.19-11.719-7.815h-80.1A10.573,10.573,0,0,1,0,302.443V279.878a10.573,10.573,0,0,1,10.573-10.573" transform="translate(0 -171.398)" fill="#fff"/>
      <path id="Trazado_611349" data-name="Trazado 611349" d="M165.343,315.2a7.183,7.183,0,1,1-7.184-7.184,7.183,7.183,0,0,1,7.184,7.184" transform="translate(-96.088 -196.034)" fill="#ffb850"/>
      <path id="Trazado_611350" data-name="Trazado 611350" d="M83.089,315.2a7.183,7.183,0,1,1-7.183-7.184,7.183,7.183,0,0,1,7.183,7.184" transform="translate(-43.738 -196.034)" fill="#3656b3"/>
      <path id="Trazado_611351" data-name="Trazado 611351" d="M247.6,315.2a7.183,7.183,0,1,1-7.183-7.184A7.183,7.183,0,0,1,247.6,315.2" transform="translate(-148.438 -196.034)" fill="#29c7cc"/>
      <path id="Trazado_611352" data-name="Trazado 611352" d="M69.05,452.118a.489.489,0,0,0-.4-.549c-.859-.3-1.715-.6-2.554-.948a1.016,1.016,0,0,1-.481-.5c-.352-.816-.672-1.646-.979-2.481a.8.8,0,0,1,0-.554c.414-.922.87-1.826,1.282-2.749a.578.578,0,0,0-.068-.513c-.692-.739-1.42-1.445-2.121-2.176a.417.417,0,0,0-.576-.093c-.875.434-1.757.857-2.648,1.256a.886.886,0,0,1-.6.028q-1.279-.46-2.532-.991a.938.938,0,0,1-.478-.441c-.346-.858-.658-1.73-.957-2.605-.1-.281-.209-.417-.537-.409-.978.024-1.958.022-2.937,0a.489.489,0,0,0-.546.4c-.294.859-.628,1.7-.919,2.564a.758.758,0,0,1-.548.524c-.808.28-1.606.6-2.383.953a.764.764,0,0,1-.757-.007c-.858-.432-1.732-.829-2.59-1.259a.448.448,0,0,0-.62.108c-.677.706-1.367,1.4-2.077,2.075a.474.474,0,0,0-.091.665c.426.861.843,1.726,1.228,2.605a.888.888,0,0,1-.016.637q-.536,1.249-1.145,2.467a1.048,1.048,0,0,1-.494.49c-.912.347-1.84.657-2.768.959a.482.482,0,0,0-.408.541c.023.978.019,1.958,0,2.936a.444.444,0,0,0,.365.511c.946.305,1.89.62,2.819.974a1.037,1.037,0,0,1,.483.5c.375.787.684,1.607,1.076,2.385a.844.844,0,0,1,.019.856c-.406.813-.775,1.643-1.179,2.457a.48.48,0,0,0,.1.664q1.062,1.012,2.076,2.077a.473.473,0,0,0,.662.095c.845-.419,1.7-.806,2.55-1.226a.749.749,0,0,1,.756.019c.811.4,1.658.732,2.478,1.119a.887.887,0,0,1,.417.437c.348.931.67,1.872.981,2.816a.456.456,0,0,0,.516.37c.979-.016,1.958-.019,2.936,0a.471.471,0,0,0,.537-.4c.3-.93.617-1.854.965-2.766a.959.959,0,0,1,.463-.465c.837-.391,1.686-.757,2.542-1.1a.848.848,0,0,1,.6-.011c1,.444,1.985.922,3.012,1.406.8-.815,1.608-1.613,2.383-2.437a.584.584,0,0,0,.047-.52c-.4-.892-.839-1.765-1.241-2.655a.84.84,0,0,1-.04-.564c.3-.872.625-1.738.975-2.592a.932.932,0,0,1,.458-.467c.857-.346,1.729-.661,2.6-.964a.458.458,0,0,0,.36-.521c-.017-.978-.02-1.958,0-2.936M53.922,459.3a5.722,5.722,0,1,1,5.729-5.715,5.7,5.7,0,0,1-5.729,5.715" transform="translate(-17.514 -265.254)" fill="#29c7cc"/>
      <path id="Trazado_611353" data-name="Trazado 611353" d="M599.487,806.023H177.4a1.234,1.234,0,1,1,0-2.383H599.487a1.234,1.234,0,1,1,0,2.383" transform="translate(-166.752 -511.473)" fill="#1a1a1a"/>
    </g>
    <path id="Trazado_617005" data-name="Trazado 617005" d="M982.411,144.378A55.775,55.775,0,1,1,926.635,88.6v55.776Z" transform="translate(398.696 110.139)" fill="#a7fcff"/>
    <path id="Trazado_617006" data-name="Trazado 617006" d="M926.637,144.378V88.6a55.775,55.775,0,0,0-55.775,55.776Z" transform="translate(398.696 110.139)" fill="#3656b3"/>
    <g id="Grupo_1075368" data-name="Grupo 1075368" transform="translate(1009 152)" clip-path="url(#clip-path-2)">
      <g id="Grupo_1075353" data-name="Grupo 1075353">
        <g id="Grupo_1075352" data-name="Grupo 1075352" clip-path="url(#clip-path-2)">
          <path id="Trazado_616951" data-name="Trazado 616951" d="M27.961,105.785l.018,27.528a5.5,5.5,0,0,0,5.5,5.5l18.652-.021a5.5,5.5,0,0,0,5.395-6.531L53.243,109.8l-13.137-4.77Z" transform="translate(14.162 53.197)" fill="#28121f"/>
          <path id="Trazado_616952" data-name="Trazado 616952" d="M84.776,248.446a10.178,10.178,0,0,1-8.908-11.516L90.611,131.1l14.969,1.738-9.491,106.4a10.178,10.178,0,0,1-11.312,9.208" transform="translate(38.377 66.399)" fill="#70529e"/>
          <path id="Trazado_616953" data-name="Trazado 616953" d="M110.208,130.663h75.533a5.949,5.949,0,0,0,5.951-5.949V52.792a5.955,5.955,0,0,0-1.743-4.209L161.061,19.7a5.95,5.95,0,0,0-4.208-1.745H110.208a5.949,5.949,0,0,0-5.949,5.949V124.714a5.949,5.949,0,0,0,5.949,5.949" transform="translate(52.806 9.093)" fill="#239f87"/>
          <path id="Trazado_616954" data-name="Trazado 616954" d="M146.756,50.326h26.422L140.807,17.953V44.377a5.949,5.949,0,0,0,5.949,5.949" transform="translate(71.318 9.093)" fill="#086150"/>
          <path id="Trazado_616955" data-name="Trazado 616955" d="M52.842,88.4a79.128,79.128,0,1,0,98.943-52.275A79.126,79.126,0,0,0,52.842,88.4" transform="translate(24.971 16.506)" fill="#c9c9c9"/>
          <path id="Trazado_616956" data-name="Trazado 616956" d="M59.981,87.928a67.6,67.6,0,1,0,84.529-44.66,67.6,67.6,0,0,0-84.529,44.66" transform="translate(28.848 20.383)" fill="#fffeeb"/>
        </g>
      </g>
      <g id="Grupo_1075355" data-name="Grupo 1075355" transform="translate(85.805 60.626)">
        <g id="Grupo_1075354" data-name="Grupo 1075354" clip-path="url(#clip-path-4)">
          <path id="Trazado_616957" data-name="Trazado 616957" d="M91.606,166.8H203.391A8.8,8.8,0,0,0,212.2,158V51.557a8.8,8.8,0,0,0-2.579-6.226L166.866,2.578A8.8,8.8,0,0,0,160.64,0H91.606A8.8,8.8,0,0,0,82.8,8.8V158a8.806,8.806,0,0,0,8.805,8.805" transform="translate(-43.867 -60.626)" fill="#0dba98"/>
          <path id="Trazado_616958" data-name="Trazado 616958" d="M145.7,47.909H184.8L136.891,0V39.1a8.806,8.806,0,0,0,8.805,8.805" transform="translate(-16.47 -60.626)" fill="#068970"/>
          <path id="Trazado_616959" data-name="Trazado 616959" d="M158.65,51.726H111.42a4.013,4.013,0,0,1,0-8.027h47.23a4.013,4.013,0,1,1,0,8.027" transform="translate(-31.404 -38.493)" fill="#fffeeb"/>
          <path id="Trazado_616960" data-name="Trazado 616960" d="M158.65,69.723H111.42a4.013,4.013,0,0,1,0-8.027h47.23a4.013,4.013,0,1,1,0,8.027" transform="translate(-31.404 -29.377)" fill="#fffeeb"/>
        </g>
      </g>
      <g id="Grupo_1075367" data-name="Grupo 1075367">
        <g id="Grupo_1075366" data-name="Grupo 1075366" clip-path="url(#clip-path-2)">
          <g id="Grupo_1075360" data-name="Grupo 1075360" transform="translate(74.274 49.095)" opacity="0.5" style="mix-blend-mode: soft-light;isolation: isolate">
            <g id="Grupo_1075359" data-name="Grupo 1075359">
              <g id="Grupo_1075358" data-name="Grupo 1075358" clip-path="url(#clip-path-6)">
                <g id="Grupo_1075357" data-name="Grupo 1075357" transform="translate(0 0.001)">
                  <g id="Grupo_1075356" data-name="Grupo 1075356" clip-path="url(#clip-path-7)">
                    <rect id="Rectángulo_379090" data-name="Rectángulo 379090" width="176.993" height="176.992" transform="translate(-9.347 -9.347)" fill="url(#linear-gradient)"/>
                  </g>
                </g>
              </g>
            </g>
          </g>
          <path id="Trazado_616963" data-name="Trazado 616963" d="M213.843,232.561h-78.7a8.971,8.971,0,0,1-8.971-8.971V160.2a8.971,8.971,0,0,1,8.971-8.971h78.7a8.971,8.971,0,0,1,8.971,8.971V223.59a8.971,8.971,0,0,1-8.971,8.971" transform="translate(63.906 76.597)" fill="#3180b5"/>
          <path id="Trazado_616964" data-name="Trazado 616964" d="M222.816,163.085v-2.6a8.988,8.988,0,0,0-8.7-9.256H134.871a8.988,8.988,0,0,0-8.7,9.256v2.6Z" transform="translate(63.906 76.597)" fill="#28121f"/>
          <path id="Trazado_616965" data-name="Trazado 616965" d="M156.587,165.365V181.48a2.025,2.025,0,0,1-2.025,2.025H138.448a2.025,2.025,0,0,1-2.025-2.025V165.365a2.025,2.025,0,0,1,2.025-2.025h16.115a2.025,2.025,0,0,1,2.025,2.025" transform="translate(69.097 82.731)" fill="#fffeeb"/>
          <path id="Trazado_616966" data-name="Trazado 616966" d="M181.489,171.4H160.136a1.021,1.021,0,0,1,0-2.043h21.353a1.021,1.021,0,1,1,0,2.043" transform="translate(80.591 85.777)" fill="#fffeeb"/>
          <path id="Trazado_616967" data-name="Trazado 616967" d="M154.906,205.721H138.791a3.049,3.049,0,0,1-3.046-3.046V186.56a3.049,3.049,0,0,1,3.046-3.046h16.115a3.049,3.049,0,0,1,3.046,3.046v16.115a3.049,3.049,0,0,1-3.046,3.046m-16.115-20.164a1,1,0,0,0-1,1v16.115a1,1,0,0,0,1,1h16.115a1,1,0,0,0,1-1V186.56a1,1,0,0,0-1-1Z" transform="translate(68.754 92.949)" fill="#fffeeb"/>
          <path id="Trazado_616968" data-name="Trazado 616968" d="M181.439,192.25H160.086a1.021,1.021,0,0,1,0-2.043h21.353a1.021,1.021,0,0,1,0,2.043" transform="translate(80.565 96.339)" fill="#fffeeb"/>
          <g id="Grupo_1075365" data-name="Grupo 1075365" transform="translate(190.08 227.827)" opacity="0.5" style="mix-blend-mode: soft-light;isolation: isolate">
            <g id="Grupo_1075364" data-name="Grupo 1075364">
              <g id="Grupo_1075363" data-name="Grupo 1075363" clip-path="url(#clip-path-8)">
                <g id="Grupo_1075362" data-name="Grupo 1075362" transform="translate(0 0)">
                  <g id="Grupo_1075361" data-name="Grupo 1075361" clip-path="url(#clip-path-9)">
                    <rect id="Rectángulo_379092" data-name="Rectángulo 379092" width="96.642" height="81.331" transform="translate(0 0)" fill="url(#linear-gradient-2)"/>
                  </g>
                </g>
              </g>
            </g>
          </g>
          <path id="Trazado_616970" data-name="Trazado 616970" d="M73.209,121.425c-1.848,2.636-3.109,4.352-3.109,4.352-.975-1.115-8.485-10.137-8.485-10.137s-7.148,5.8-7.525,19.554c-.086,3.153,1.133,16.29,1.472,19.187.2,1.7-1.4,11.734-1.4,11.734l24.2,4.159s.17-8.057.035-8.153c1.371-1.285,4.286-5.893,3.87-12.07a117.041,117.041,0,0,0-2.19-12.758,73.861,73.861,0,0,0,3.962-10.71c.817-3.173.527-7.606-2.68-9.114-3.475-1.635-5.511.181-8.158,3.956" transform="translate(27.394 58.571)" fill="#ffa194"/>
          <path id="Trazado_616971" data-name="Trazado 616971" d="M0,229.654H109.451l-4.974-19.639-.414-13.87H8.8A130.586,130.586,0,0,0,0,229.654" transform="translate(0 99.346)" fill="#28121f"/>
          <path id="Trazado_616972" data-name="Trazado 616972" d="M62.8,136.181a1.128,1.128,0,0,1-.271-.036,1.022,1.022,0,0,1-.714-1.258l3.409-12.367a1.022,1.022,0,0,1,1.971.544l-3.411,12.367a1.019,1.019,0,0,1-.984.75" transform="translate(31.288 61.676)" fill="#db5349"/>
          <path id="Trazado_616973" data-name="Trazado 616973" d="M58.817,105.738c.563,7.421-5.887,14.9-13.289,15.684a13.475,13.475,0,0,1-14.819-11.981,138.139,138.139,0,0,1-.478-16.282c18.655-2.12,27.771,1.83,28.586,12.579" transform="translate(15.282 46.905)" fill="#28121f"/>
          <path id="Trazado_616974" data-name="Trazado 616974" d="M55.385,108.786A17.751,17.751,0,1,1,35.863,93a17.752,17.752,0,0,1,19.523,15.782" transform="translate(10.12 47.055)" fill="#28121f"/>
          <path id="Trazado_616975" data-name="Trazado 616975" d="M27.032,105.709c.027-.134.056-.268.084-.4,2.382-10.687,11.609-15.523,21.005-9.9,5.827,3.486,7.664,9.212,8.59,12.995.291,1.189.737,3.429.737,3.429l2.781.157a.79.79,0,0,1,.658,1.149l-2.059,4.024c1.274,6.681.157,10.829-11.147,12.013v11l-15.326,0,.107-18.037a16.525,16.525,0,0,1-5.431-16.434" transform="translate(13.49 47.126)" fill="#ffa194"/>
          <path id="Trazado_616976" data-name="Trazado 616976" d="M10.618,217.68a8.2,8.2,0,0,0,.315-2.936c-.588-7.941-3.6-38.131-3.613-51.644-.015-17.686,7.424-28.779,15.026-33.875,14.42-9.664,31.56-8.462,44.666-4.735,14.8,4.208,28.6,18.486,35.029,32.4,5.731,12.411,16.793,22.629,28.527,23.042,13.768.484,26.838-9.7,32.971-28.126l38.159,7.478c-4.289,21.929-15.83,57.562-39.633,72.693-16.635,10.576-49.517,12.426-72.762,1.85H5.842Z" transform="translate(2.959 61.663)" fill="#fe9b4f"/>
          <path id="Trazado_616977" data-name="Trazado 616977" d="M50.212,95.841a4.535,4.535,0,0,0-3.369-2.353c-9.884-1.809-21.9.89-23.073,12.275-.634,6.157,11.187,7.124,18.132,9.931,4.17-.856,10.958-11.056,8.31-19.853" transform="translate(12.027 47.09)" fill="#28121f"/>
          <path id="Trazado_616978" data-name="Trazado 616978" d="M36.418,119.168a10.869,10.869,0,0,0,6.385,4.654v-6.793l-5.627.6a1.016,1.016,0,0,0-.758,1.543" transform="translate(18.369 59.274)" fill="#db5349"/>
          <path id="Trazado_616979" data-name="Trazado 616979" d="M75.586,221.211a1.035,1.035,0,0,1-.371-.069,49.587,49.587,0,0,1-13.445-7.835A58.182,58.182,0,0,1,49.8,199.662a91.98,91.98,0,0,1-9.664-20.815,168.21,168.21,0,0,1-6.583-29.381,1.022,1.022,0,0,1,2.023-.285C41,187.87,54.208,210.786,75.957,219.237a1.022,1.022,0,0,1-.371,1.974" transform="translate(16.986 75.114)" fill="#e87323"/>
          <path id="Trazado_616980" data-name="Trazado 616980" d="M43.532,104.831a1.02,1.02,0,0,1-.926-1.449,3.2,3.2,0,0,1,5.3-.628L46.3,104.016a1.144,1.144,0,0,0-.972-.34,1.157,1.157,0,0,0-.866.562,1.021,1.021,0,0,1-.928.594" transform="translate(21.532 51.472)" fill="#28121f"/>
          <path id="Trazado_616981" data-name="Trazado 616981" d="M48.659,112.079a5.678,5.678,0,0,1-2.853-.785,1.021,1.021,0,0,1,1.02-1.77,3.4,3.4,0,0,0,2.43.453,1.021,1.021,0,1,1,.627,1.943,4.238,4.238,0,0,1-1.223.158" transform="translate(22.941 55.404)" fill="#db5349"/>
          <path id="Trazado_616982" data-name="Trazado 616982" d="M166.172,111.389a4,4,0,0,0-2.356.2c.1-.771.179-1.543.227-2.311a5.346,5.346,0,0,0-1.826-4.884,5.022,5.022,0,0,0-4.7-.637c-2.328.877-3.727,3.283-5.2,5.137q-2.542,3.2-5.3,6.225a121.017,121.017,0,0,1-10.973,10.576c.023-4.682-.193-9.726-3.221-13.537-2.59-3.262-7.189-2.948-8.878.657-1.821,3.888-1.006,10.255-1.568,16.525a75.591,75.591,0,0,0-8.3,19.639c-.753,3.061-3.56,12.1-3.56,12.1l38.161,7.478,2.508-13.126s10.066-8.159,15.72-15.405c3.055-3.917,5.324-8.3,4.607-11.448-.468-2.059-1.877-2.391-3.253-1.891,1.574-3.62,2.609-7.945,1.573-11.583a4.886,4.886,0,0,0-3.664-3.714" transform="translate(55.977 52.392)" fill="#ffa194"/>
          <path id="Trazado_616983" data-name="Trazado 616983" d="M137.761,128.807a1.023,1.023,0,0,1-.832-1.613l13.018-18.316a1.022,1.022,0,1,1,1.666,1.183l-13.019,18.317a1.019,1.019,0,0,1-.833.429" transform="translate(69.258 54.928)" fill="#db5349"/>
          <path id="Trazado_616984" data-name="Trazado 616984" d="M143.6,134.221a1.006,1.006,0,0,1-.545-.16,1.02,1.02,0,0,1-.318-1.409l8.581-13.548a1.022,1.022,0,1,1,1.728,1.092l-8.582,13.548a1.021,1.021,0,0,1-.863.476" transform="translate(72.213 60.085)" fill="#db5349"/>
          <path id="Trazado_616985" data-name="Trazado 616985" d="M127.5,124.292l1.47-1.936c.02-4.2-.154-8.692-2.377-12.326l-2.09,12.98a1.68,1.68,0,0,0,3,1.282" transform="translate(63.049 55.729)" fill="#db5349"/>
          <path id="Trazado_616986" data-name="Trazado 616986" d="M134.842,153.381a4.334,4.334,0,1,1-4.334-4.333,4.334,4.334,0,0,1,4.334,4.333" transform="translate(63.906 75.492)" fill="#fffeeb"/>
          <path id="Trazado_616987" data-name="Trazado 616987" d="M74.843,208.982c19.372,3,40.142-.066,52.274-7.778q1.731-1.1,3.378-2.344a29.434,29.434,0,0,0-55.651,10.122" transform="translate(37.907 92.439)" fill="#fc5649"/>
          <path id="Trazado_616988" data-name="Trazado 616988" d="M38.91,114.053a1.022,1.022,0,0,1-.447-1.94c3.512-1.71,5.208-4.947,5.044-9.625A23.088,23.088,0,0,0,42.1,95.6,1.022,1.022,0,0,1,44,94.84a24.885,24.885,0,0,1,1.55,7.52c.208,5.508-1.931,9.515-6.192,11.588a1.007,1.007,0,0,1-.446.1" transform="translate(19.189 47.711)" fill="#28121f"/>
          <path id="Trazado_616989" data-name="Trazado 616989" d="M38.38,142.912a239.809,239.809,0,0,1-24.524-1.33L9.25,141.1a1.022,1.022,0,0,1,.214-2.032l4.605.487a237.536,237.536,0,0,0,24.309,1.32,135.272,135.272,0,0,0,24.572-1.975,56.054,56.054,0,0,0,17.906-6.168l3.71-2.172a1.022,1.022,0,1,1,1.033,1.763l-3.71,2.174A58.108,58.108,0,0,1,63.327,140.9a137.34,137.34,0,0,1-24.948,2.01" transform="translate(4.222 66.054)" fill="#e87323"/>
          <path id="Trazado_616990" data-name="Trazado 616990" d="M64.609,124.489c-13.1-3.726-30.244-4.929-44.664,4.735a30.753,30.753,0,0,0-9.363,10.338l2.781.294a233.412,233.412,0,0,0,23.878,1.3c18.221,0,31.814-2.549,40.4-7.579l2.1-1.229a46.568,46.568,0,0,0-15.137-7.853" transform="translate(5.36 61.663)" fill="#fffeeb"/>
          <path id="Trazado_616991" data-name="Trazado 616991" d="M63.494,124.489c-13.1-3.726-30.244-4.929-44.664,4.735a28.589,28.589,0,0,0-6.044,5.53c12.207,1.288,45.241,3.707,61.153-5.607a42.9,42.9,0,0,0-10.445-4.658" transform="translate(6.476 61.663)" fill="#ffa194"/>
          <path id="Trazado_616992" data-name="Trazado 616992" d="M19.967,105.145l.018,27.528a5.5,5.5,0,0,0,5.5,5.494l18.652-.021a5.5,5.5,0,0,0,5.395-6.529l-4.287-22.459-13.137-4.77Z" transform="translate(10.113 52.872)" fill="#28121f"/>
          <path id="Trazado_616993" data-name="Trazado 616993" d="M183.836,161.045a1.022,1.022,0,0,1-.55-1.883c3.79-2.419,6.168-7.31,6.058-12.456a16.34,16.34,0,0,0-6.451-12.582,7.529,7.529,0,0,0-3.662-1.419,17.349,17.349,0,0,1-2.421,4.236c-2.13,2.736-4.178,2.65-5.518,2.1a3,3,0,0,1-1.876-2.284c-.113-.8.093-2.032,1.717-3.352a11.987,11.987,0,0,1,6.272-2.724c.131-.012.261-.024.392-.032a15.372,15.372,0,0,0-2.9-14.605c-4.623-5.149-12.632-6.234-17.852-2.419a1.021,1.021,0,1,1-1.205-1.65,14.507,14.507,0,0,1,10.791-2.477,16.631,16.631,0,0,1,9.788,5.181,17.417,17.417,0,0,1,3.472,16.058,9.662,9.662,0,0,1,4.2,1.731,18.447,18.447,0,0,1,7.3,14.2c.125,5.844-2.623,11.427-7,14.221a1,1,0,0,1-.548.161m-6.873-28.236a10.437,10.437,0,0,0-4.542,2.177c-.678.553-1.036,1.092-.982,1.481a1,1,0,0,0,.631.682c.646.265,1.674.4,3.128-1.463a15.3,15.3,0,0,0,1.766-2.877" transform="translate(78.717 55.367)" fill="#0dba98"/>
          <path id="Trazado_616994" data-name="Trazado 616994" d="M34.132,113.3a1.022,1.022,0,0,1-.6-1.847c5.96-4.357,6.579-15.636,6.585-15.749a1.022,1.022,0,0,1,2.041.1c-.024.5-.669,12.365-7.421,17.3a1.014,1.014,0,0,1-.6.2" transform="translate(16.77 47.982)" fill="#70529e"/>
          <path id="Trazado_616995" data-name="Trazado 616995" d="M31.62,106.389a1.021,1.021,0,0,1-.777-1.684c1.669-1.955,1.967-6.243,1.94-7.73a1.022,1.022,0,0,1,2.043-.039c.006.25.086,6.15-2.428,9.095a1.019,1.019,0,0,1-.777.359" transform="translate(15.498 48.59)" fill="#70529e"/>
          <path id="Trazado_616996" data-name="Trazado 616996" d="M32.729,111.146a4.941,4.941,0,1,0,3.3-6.159,4.942,4.942,0,0,0-3.3,6.159" transform="translate(16.47 53.068)" fill="#ffa194"/>
          <path id="Trazado_616997" data-name="Trazado 616997" d="M33.918,109.949a3.028,3.028,0,1,0,2.022-3.774,3.027,3.027,0,0,0-2.022,3.774" transform="translate(17.113 53.711)" fill="#db5349"/>
          <path id="Trazado_616998" data-name="Trazado 616998" d="M103.468,206.718H3.013a1.021,1.021,0,0,1,0-2.043H103.468a1.021,1.021,0,0,1,0,2.043" transform="translate(1.009 103.666)" fill="#70529e"/>
          <path id="Trazado_616999" data-name="Trazado 616999" d="M19.691,211.382a1.022,1.022,0,0,1-1.021-1.021V196.49a1.021,1.021,0,1,1,2.043,0v13.87a1.022,1.022,0,0,1-1.021,1.021" transform="translate(9.456 99.002)" fill="#70529e"/>
          <path id="Trazado_617000" data-name="Trazado 617000" d="M51.343,211.382a1.022,1.022,0,0,1-1.021-1.021V196.49a1.021,1.021,0,1,1,2.043,0v13.87a1.021,1.021,0,0,1-1.021,1.021" transform="translate(25.488 99.002)" fill="#70529e"/>
          <path id="Trazado_617001" data-name="Trazado 617001" d="M140,140.3a1.028,1.028,0,0,1-.426-.093l-6.384-2.932a1.022,1.022,0,0,1,.853-1.857l6.386,2.933A1.021,1.021,0,0,1,140,140.3" transform="translate(67.161 68.542)" fill="#db5349"/>
          <path id="Trazado_617002" data-name="Trazado 617002" d="M46.215,105.665a1.026,1.026,0,1,1-1.026-1.026,1.026,1.026,0,0,1,1.026,1.026" transform="translate(22.368 52.999)" fill="#28121f"/>
          <path id="Trazado_617003" data-name="Trazado 617003" d="M46.826,110.439a3.028,3.028,0,1,1-2.409-3.54,3.026,3.026,0,0,1,2.409,3.54" transform="translate(20.677 54.116)" fill="#f4756e"/>
          <path id="Trazado_617004" data-name="Trazado 617004" d="M149.025,150.545c-.2-.02-38.358-7.5-38.358-7.5a1.022,1.022,0,1,1,.393-2.005l38.161,7.478a1.022,1.022,0,0,1-.2,2.025" transform="translate(55.634 71.427)" fill="#e87323"/>
        </g>
      </g>
    </g>
    <path id="Trazado_611341" data-name="Trazado 611341" d="M373.786,61.811a.487.487,0,0,1-.111-.013.469.469,0,0,1-.346-.567c.521-2.154,1.128-4.3,1.8-6.377a.47.47,0,0,1,.894.29c-.669,2.055-1.269,4.178-1.785,6.308a.47.47,0,0,1-.456.359m4.083-12.524a.47.47,0,0,1-.434-.65c.859-2.057,1.806-4.077,2.814-6.005a.47.47,0,0,1,.833.435c-1,1.9-1.931,3.9-2.78,5.932a.47.47,0,0,1-.433.289m93.864-5.827A5.941,5.941,0,0,1,468.08,42a.47.47,0,1,1,.593-.728c1.868,1.521,4.043,1.66,5.233.222a.47.47,0,0,1,.723.6,3.654,3.654,0,0,1-2.9,1.363m-87.753-5.838a.464.464,0,0,1-.254-.075.469.469,0,0,1-.141-.649c1.209-1.874,2.508-3.69,3.861-5.4a.47.47,0,0,1,.737.584c-1.335,1.682-2.616,3.472-3.807,5.321a.47.47,0,0,1-.4.215M465.3,36.459a.47.47,0,0,1-.465-.408,9.55,9.55,0,0,1-.081-1.268,10.5,10.5,0,0,1,.507-3.185c.232-.737.5-1.471.785-2.181a.469.469,0,1,1,.87.352c-.278.688-.533,1.4-.761,2.114a9.6,9.6,0,0,0-.462,2.9,8.632,8.632,0,0,0,.073,1.143.469.469,0,0,1-.4.527.439.439,0,0,1-.061,0m10.15-.512a.47.47,0,0,1-.467-.418,14.792,14.792,0,0,0-2.158-5.956.47.47,0,0,1,.806-.484,15.756,15.756,0,0,1,2.286,6.336.47.47,0,0,1-.415.518.448.448,0,0,1-.052,0m77.606-2.66a.469.469,0,0,1-.427-.275,18.307,18.307,0,0,0-2.3-3.642.469.469,0,1,1,.737-.581,19.13,19.13,0,0,1,2.422,3.834.469.469,0,0,1-.427.664M392.163,27.319a.469.469,0,0,1-.335-.8,60.4,60.4,0,0,1,4.889-4.484.47.47,0,0,1,.6.726,59.7,59.7,0,0,0-4.814,4.415.466.466,0,0,1-.335.141m154.019-2.571a.467.467,0,0,1-.322-.128c-1.328-1.252-2.708-2.463-3.926-3.532l-.972-.855a.47.47,0,1,1,.622-.7l.97.853c1.223,1.074,2.609,2.291,3.949,3.554a.469.469,0,0,1-.322.811m-77.029-.112a.468.468,0,0,1-.337-.142,45.28,45.28,0,0,0-4.891-4.308.47.47,0,0,1,.572-.745,46.876,46.876,0,0,1,4.719,4.12,30.541,30.541,0,0,1,4.419-5.021.469.469,0,0,1,.633.693,29.6,29.6,0,0,0-4.274,4.853.422.422,0,0,1-.387.2.455.455,0,0,1-.126.217.465.465,0,0,1-.327.133M402.332,19a.47.47,0,0,1-.254-.864,56.786,56.786,0,0,1,5.782-3.258.47.47,0,0,1,.412.844,55.59,55.59,0,0,0-5.686,3.2.467.467,0,0,1-.254.075M458.747,16.6a.471.471,0,0,1-.235-.063,46.275,46.275,0,0,0-5.857-2.858.469.469,0,0,1,.351-.871,47.27,47.27,0,0,1,5.977,2.916.47.47,0,0,1-.236.875m77.235-.161a.468.468,0,0,1-.245-.069,45.788,45.788,0,0,0-5.8-2.98.469.469,0,0,1,.37-.863,46.58,46.58,0,0,1,5.915,3.042.469.469,0,0,1-.245.87m-56.763-1.025a.47.47,0,0,1-.245-.87,41.285,41.285,0,0,1,5.951-2.983.47.47,0,1,1,.354.87,40.256,40.256,0,0,0-5.815,2.915.468.468,0,0,1-.245.069m-65.077-2.183a.47.47,0,0,1-.154-.913A57.717,57.717,0,0,1,420.37,10.5a.47.47,0,0,1,.2.917,56.712,56.712,0,0,0-6.278,1.787.464.464,0,0,1-.155.027m32.433-1.573a.479.479,0,0,1-.117-.015,52.251,52.251,0,0,0-6.41-1.228.469.469,0,0,1,.12-.931,53.18,53.18,0,0,1,6.524,1.25.469.469,0,0,1-.117.924m77.349-.45a.472.472,0,0,1-.132-.019,61.2,61.2,0,0,0-6.362-1.5.469.469,0,0,1-.378-.545.459.459,0,0,1,.545-.378,62.042,62.042,0,0,1,6.458,1.52.469.469,0,0,1-.132.92m-32.564-.786a.47.47,0,0,1-.116-.925,56.356,56.356,0,0,1,6.522-1.245.464.464,0,0,1,.526.4.47.47,0,0,1-.4.526,55.37,55.37,0,0,0-6.412,1.225.489.489,0,0,1-.116.015m-64.4-.07a.47.47,0,0,1-.052-.937c1.156-.127,2.335-.224,3.507-.287.963-.052,1.94-.079,2.908-.079h.211a.47.47,0,0,1,0,.939h-.21c-.951,0-1.912.026-2.858.077-1.154.063-2.317.158-3.454.283l-.052,0m84.016-1.492a65.448,65.448,0,0,0-6.574-.177.481.481,0,0,1-.48-.458.469.469,0,0,1,.459-.48,65.568,65.568,0,0,1,6.631.179.469.469,0,0,1-.036.937" transform="translate(670.624 141.91)" fill="#1a1a1a"/>
    <path id="Trazado_611342" data-name="Trazado 611342" d="M477.941,12.407a5.643,5.643,0,1,0,5.506-5.778,5.643,5.643,0,0,0-5.506,5.778" transform="translate(604.037 142.611)" fill="#ffd7b8"/>
    <path id="Trazado_611343" data-name="Trazado 611343" d="M760.66,5.78A5.643,5.643,0,1,0,766.166,0,5.644,5.644,0,0,0,760.66,5.78" transform="translate(424.102 146.829)" fill="#1a1a1a"/>
    <path id="Trazado_611345" data-name="Trazado 611345" d="M269.267,78l6.977-10.956L283.22,78Z" transform="translate(755.517 91.076)" fill="#ffb850"/>
    <path id="Trazado_617007" data-name="Trazado 617007" d="M571.871,167.878a.676.676,0,0,0-.551-.757c-1.184-.408-2.365-.831-3.522-1.307a1.4,1.4,0,0,1-.663-.692c-.485-1.125-.926-2.27-1.35-3.42a1.114,1.114,0,0,1,0-.763c.572-1.272,1.2-2.518,1.768-3.791a.8.8,0,0,0-.094-.707c-.954-1.02-1.959-1.992-2.925-3a.575.575,0,0,0-.794-.129c-1.207.6-2.422,1.182-3.651,1.731a1.222,1.222,0,0,1-.832.038q-1.763-.635-3.492-1.366a1.3,1.3,0,0,1-.659-.608c-.477-1.183-.906-2.385-1.318-3.592-.133-.387-.289-.575-.741-.564-1.348.034-2.7.031-4.049,0a.674.674,0,0,0-.753.555c-.406,1.184-.865,2.349-1.268,3.535a1.043,1.043,0,0,1-.755.723c-1.114.386-2.214.823-3.286,1.314a1.054,1.054,0,0,1-1.043-.009c-1.182-.6-2.388-1.144-3.572-1.736a.618.618,0,0,0-.855.149c-.934.974-1.885,1.933-2.864,2.862a.654.654,0,0,0-.125.917c.587,1.187,1.162,2.38,1.693,3.592a1.224,1.224,0,0,1-.022.878q-.739,1.723-1.579,3.4a1.445,1.445,0,0,1-.681.675c-1.258.479-2.537.906-3.818,1.323a.663.663,0,0,0-.561.745c.031,1.349.026,2.7,0,4.049a.613.613,0,0,0,.5.7c1.3.421,2.606.855,3.887,1.343a1.429,1.429,0,0,1,.666.7c.517,1.086.943,2.216,1.483,3.288a1.163,1.163,0,0,1,.026,1.18c-.56,1.121-1.069,2.266-1.626,3.388a.662.662,0,0,0,.144.916q1.465,1.4,2.862,2.863a.653.653,0,0,0,.913.131c1.165-.577,2.35-1.112,3.515-1.69a1.034,1.034,0,0,1,1.043.027c1.119.553,2.286,1.009,3.416,1.543a1.218,1.218,0,0,1,.575.6c.48,1.283.924,2.581,1.353,3.882a.628.628,0,0,0,.711.51c1.35-.023,2.7-.027,4.049,0a.649.649,0,0,0,.741-.553c.411-1.282.851-2.556,1.33-3.814a1.32,1.32,0,0,1,.637-.641c1.154-.539,2.325-1.043,3.505-1.521a1.17,1.17,0,0,1,.825-.016c1.378.612,2.736,1.271,4.153,1.939,1.109-1.124,2.218-2.224,3.287-3.36a.808.808,0,0,0,.064-.717c-.549-1.23-1.157-2.434-1.712-3.661a1.162,1.162,0,0,1-.055-.778c.417-1.2.861-2.4,1.344-3.573a1.286,1.286,0,0,1,.631-.644c1.182-.477,2.384-.911,3.589-1.329a.631.631,0,0,0,.5-.718c-.024-1.349-.027-2.7,0-4.048m-20.857,9.908a7.89,7.89,0,1,1,7.9-7.88,7.864,7.864,0,0,1-7.9,7.88" transform="translate(536.929 33.588)" fill="#3656b3"/>
  </g>
</svg>
