<svg xmlns="http://www.w3.org/2000/svg" xmlns:xlink="http://www.w3.org/1999/xlink" width="550" height="431" viewBox="0 0 550 431">
  <defs>
    <clipPath id="clip-path">
      <rect id="Rectángulo_378669" data-name="Rectángulo 378669" width="286.72" height="329" fill="none"/>
    </clipPath>
    <clipPath id="clip-path-3">
      <path id="Trazado_615575" data-name="Trazado 615575" d="M59.981,87.928a67.529,67.529,0,1,0,64.573-47.685A67.6,67.6,0,0,0,59.981,87.928" transform="translate(-56.957 -40.243)" fill="none"/>
    </clipPath>
    <clipPath id="clip-path-5">
      <rect id="Rectángulo_378665" data-name="Rectángulo 378665" width="158.299" height="158.299" fill="none"/>
    </clipPath>
    <clipPath id="clip-path-6">
      <path id="Trazado_615576" data-name="Trazado 615576" d="M52.842,88.4a79.128,79.128,0,1,0,98.943-52.275A79.129,79.129,0,0,0,52.842,88.4" transform="translate(-49.302 -32.589)" fill="none"/>
    </clipPath>
    <linearGradient id="linear-gradient" x1="-0.367" y1="1.634" x2="-0.358" y2="1.634" gradientUnits="objectBoundingBox">
      <stop offset="0" stop-color="#939598"/>
      <stop offset="1" stop-color="#231f20"/>
    </linearGradient>
    <clipPath id="clip-path-7">
      <rect id="Rectángulo_378667" data-name="Rectángulo 378667" width="96.642" height="81.331" fill="none"/>
    </clipPath>
    <clipPath id="clip-path-8">
      <path id="Trazado_615583" data-name="Trazado 615583" d="M213.843,232.561h-78.7a8.972,8.972,0,0,1-8.973-8.971V160.2a8.972,8.972,0,0,1,8.973-8.971h78.7a8.972,8.972,0,0,1,8.973,8.971V223.59a8.972,8.972,0,0,1-8.973,8.971" transform="translate(-126.174 -151.23)" fill="none"/>
    </clipPath>
    <linearGradient id="linear-gradient-2" x1="-1.967" y1="1.244" x2="-1.951" y2="1.244" xlink:href="#linear-gradient"/>
  </defs>
  <g id="banner-princiapal" transform="translate(-860.333 -132)">
    <path id="Trazado_615520" data-name="Trazado 615520" d="M0,0H550V431H0Z" transform="translate(860.333 132)" fill="none"/>
    <g id="Grupo_1074311" data-name="Grupo 1074311" transform="translate(1.924 9.09)">
      <rect id="Rectángulo_378585" data-name="Rectángulo 378585" width="540.49" height="100.236" rx="50.118" transform="translate(863.333 404.036)" fill="#fff"/>
      <g id="Grupo_1074501" data-name="Grupo 1074501" transform="translate(1007.076 147.91)">
        <g id="Grupo_1074500" data-name="Grupo 1074500" clip-path="url(#clip-path)">
          <g id="Grupo_1074485" data-name="Grupo 1074485">
            <g id="Grupo_1074484" data-name="Grupo 1074484" clip-path="url(#clip-path)">
              <path id="Trazado_615564" data-name="Trazado 615564" d="M203.121,158.035A77.576,77.576,0,1,0,56.872,121.083c-18.671,8.479-34.678,26.718-36.279,68.1-2.722,70.328,1.38,103.683,59.773,106.208,103.877,4.489,153.138,4.489,162.573-49.955,4.1-23.659-5.211-76.827-39.818-87.4" transform="translate(10.12 22.436)" fill="#cbf4e1"/>
              <path id="Trazado_615565" data-name="Trazado 615565" d="M27.961,105.785l.018,27.528a5.5,5.5,0,0,0,5.5,5.5l18.652-.021a5.5,5.5,0,0,0,5.395-6.531L53.243,109.8l-13.137-4.77Z" transform="translate(14.162 53.197)" fill="#28121f"/>
              <path id="Trazado_615566" data-name="Trazado 615566" d="M84.776,248.446a10.178,10.178,0,0,1-8.908-11.516L90.611,131.1l14.969,1.738-9.491,106.4a10.178,10.178,0,0,1-11.312,9.208" transform="translate(38.377 66.399)" fill="#70529e"/>
              <path id="Trazado_615567" data-name="Trazado 615567" d="M110.208,130.663h75.533a5.949,5.949,0,0,0,5.951-5.949V52.792a5.955,5.955,0,0,0-1.743-4.209L161.061,19.7a5.95,5.95,0,0,0-4.208-1.745H110.208a5.949,5.949,0,0,0-5.949,5.949V124.714a5.949,5.949,0,0,0,5.949,5.949" transform="translate(52.806 9.093)" fill="#0dba98"/>
              <path id="Trazado_615568" data-name="Trazado 615568" d="M146.756,50.326h26.422L140.807,17.953V44.377a5.949,5.949,0,0,0,5.949,5.949" transform="translate(71.318 9.093)" fill="#068970"/>
              <path id="Trazado_615569" data-name="Trazado 615569" d="M52.842,88.4a79.128,79.128,0,1,0,98.943-52.275A79.126,79.126,0,0,0,52.842,88.4" transform="translate(24.971 16.506)" fill="#c9c9c9"/>
              <path id="Trazado_615570" data-name="Trazado 615570" d="M59.981,87.928a67.6,67.6,0,1,0,84.529-44.66,67.6,67.6,0,0,0-84.529,44.66" transform="translate(28.848 20.383)" fill="#fffeeb"/>
            </g>
          </g>
          <g id="Grupo_1074487" data-name="Grupo 1074487" transform="translate(85.805 60.626)">
            <g id="Grupo_1074486" data-name="Grupo 1074486" clip-path="url(#clip-path-3)">
              <path id="Trazado_615571" data-name="Trazado 615571" d="M91.606,166.8H203.391A8.8,8.8,0,0,0,212.2,158V51.557a8.8,8.8,0,0,0-2.579-6.226L166.866,2.578A8.8,8.8,0,0,0,160.64,0H91.606A8.8,8.8,0,0,0,82.8,8.8V158a8.806,8.806,0,0,0,8.805,8.805" transform="translate(-43.867 -60.626)" fill="#0dba98"/>
              <path id="Trazado_615572" data-name="Trazado 615572" d="M145.7,47.909H184.8L136.891,0V39.1a8.806,8.806,0,0,0,8.805,8.805" transform="translate(-16.47 -60.626)" fill="#068970"/>
              <path id="Trazado_615573" data-name="Trazado 615573" d="M158.65,51.726H111.42a4.013,4.013,0,0,1,0-8.027h47.23a4.013,4.013,0,1,1,0,8.027" transform="translate(-31.404 -38.493)" fill="#fffeeb"/>
              <path id="Trazado_615574" data-name="Trazado 615574" d="M158.65,69.723H111.42a4.013,4.013,0,0,1,0-8.027h47.23a4.013,4.013,0,1,1,0,8.027" transform="translate(-31.404 -29.377)" fill="#fffeeb"/>
            </g>
          </g>
          <g id="Grupo_1074499" data-name="Grupo 1074499">
            <g id="Grupo_1074498" data-name="Grupo 1074498" clip-path="url(#clip-path)">
              <g id="Grupo_1074492" data-name="Grupo 1074492" transform="translate(74.274 49.095)" opacity="0.5" style="mix-blend-mode: soft-light;isolation: isolate">
                <g id="Grupo_1074491" data-name="Grupo 1074491">
                  <g id="Grupo_1074490" data-name="Grupo 1074490" clip-path="url(#clip-path-5)">
                    <g id="Grupo_1074489" data-name="Grupo 1074489" transform="translate(0 0.001)">
                      <g id="Grupo_1074488" data-name="Grupo 1074488" clip-path="url(#clip-path-6)">
                        <rect id="Rectángulo_378664" data-name="Rectángulo 378664" width="176.993" height="176.992" transform="translate(-9.347 -9.347)" fill="url(#linear-gradient)"/>
                      </g>
                    </g>
                  </g>
                </g>
              </g>
              <path id="Trazado_615577" data-name="Trazado 615577" d="M213.843,232.561h-78.7a8.971,8.971,0,0,1-8.971-8.971V160.2a8.971,8.971,0,0,1,8.971-8.971h78.7a8.971,8.971,0,0,1,8.971,8.971V223.59a8.971,8.971,0,0,1-8.971,8.971" transform="translate(63.906 76.597)" fill="#3180b5"/>
              <path id="Trazado_615578" data-name="Trazado 615578" d="M222.816,163.085v-2.6a8.988,8.988,0,0,0-8.7-9.256H134.871a8.988,8.988,0,0,0-8.7,9.256v2.6Z" transform="translate(63.906 76.597)" fill="#28121f"/>
              <path id="Trazado_615579" data-name="Trazado 615579" d="M156.587,165.365V181.48a2.025,2.025,0,0,1-2.025,2.025H138.448a2.025,2.025,0,0,1-2.025-2.025V165.365a2.025,2.025,0,0,1,2.025-2.025h16.115a2.025,2.025,0,0,1,2.025,2.025" transform="translate(69.097 82.731)" fill="#fffeeb"/>
              <path id="Trazado_615580" data-name="Trazado 615580" d="M181.489,171.4H160.136a1.021,1.021,0,0,1,0-2.043h21.353a1.021,1.021,0,1,1,0,2.043" transform="translate(80.591 85.777)" fill="#fffeeb"/>
              <path id="Trazado_615581" data-name="Trazado 615581" d="M154.906,205.721H138.791a3.049,3.049,0,0,1-3.046-3.046V186.56a3.049,3.049,0,0,1,3.046-3.046h16.115a3.049,3.049,0,0,1,3.046,3.046v16.115a3.049,3.049,0,0,1-3.046,3.046m-16.115-20.164a1,1,0,0,0-1,1v16.115a1,1,0,0,0,1,1h16.115a1,1,0,0,0,1-1V186.56a1,1,0,0,0-1-1Z" transform="translate(68.754 92.949)" fill="#fffeeb"/>
              <path id="Trazado_615582" data-name="Trazado 615582" d="M181.439,192.25H160.086a1.021,1.021,0,0,1,0-2.043h21.353a1.021,1.021,0,0,1,0,2.043" transform="translate(80.565 96.339)" fill="#fffeeb"/>
              <g id="Grupo_1074497" data-name="Grupo 1074497" transform="translate(190.08 227.827)" opacity="0.5" style="mix-blend-mode: soft-light;isolation: isolate">
                <g id="Grupo_1074496" data-name="Grupo 1074496">
                  <g id="Grupo_1074495" data-name="Grupo 1074495" clip-path="url(#clip-path-7)">
                    <g id="Grupo_1074494" data-name="Grupo 1074494" transform="translate(0 0)">
                      <g id="Grupo_1074493" data-name="Grupo 1074493" clip-path="url(#clip-path-8)">
                        <rect id="Rectángulo_378666" data-name="Rectángulo 378666" width="96.642" height="81.331" transform="translate(0 0)" fill="url(#linear-gradient-2)"/>
                      </g>
                    </g>
                  </g>
                </g>
              </g>
              <path id="Trazado_615584" data-name="Trazado 615584" d="M73.209,121.425c-1.848,2.636-3.109,4.352-3.109,4.352-.975-1.115-8.485-10.137-8.485-10.137s-7.148,5.8-7.525,19.554c-.086,3.153,1.133,16.29,1.472,19.187.2,1.7-1.4,11.734-1.4,11.734l24.2,4.159s.17-8.057.035-8.153c1.371-1.285,4.286-5.893,3.87-12.07a117.041,117.041,0,0,0-2.19-12.758,73.861,73.861,0,0,0,3.962-10.71c.817-3.173.527-7.606-2.68-9.114-3.475-1.635-5.511.181-8.158,3.956" transform="translate(27.394 58.571)" fill="#ffa194"/>
              <path id="Trazado_615585" data-name="Trazado 615585" d="M0,229.654H109.451l-4.974-19.639-.414-13.87H8.8A130.586,130.586,0,0,0,0,229.654" transform="translate(0 99.346)" fill="#28121f"/>
              <path id="Trazado_615586" data-name="Trazado 615586" d="M62.8,136.181a1.128,1.128,0,0,1-.271-.036,1.022,1.022,0,0,1-.714-1.258l3.409-12.367a1.022,1.022,0,0,1,1.971.544l-3.411,12.367a1.019,1.019,0,0,1-.984.75" transform="translate(31.288 61.676)" fill="#db5349"/>
              <path id="Trazado_615587" data-name="Trazado 615587" d="M58.817,105.738c.563,7.421-5.887,14.9-13.289,15.684a13.475,13.475,0,0,1-14.819-11.981,138.139,138.139,0,0,1-.478-16.282c18.655-2.12,27.771,1.83,28.586,12.579" transform="translate(15.282 46.905)" fill="#28121f"/>
              <path id="Trazado_615588" data-name="Trazado 615588" d="M55.385,108.786A17.751,17.751,0,1,1,35.863,93a17.752,17.752,0,0,1,19.523,15.782" transform="translate(10.12 47.055)" fill="#28121f"/>
              <path id="Trazado_615589" data-name="Trazado 615589" d="M27.032,105.709c.027-.134.056-.268.084-.4,2.382-10.687,11.609-15.523,21.005-9.9,5.827,3.486,7.664,9.212,8.59,12.995.291,1.189.737,3.429.737,3.429l2.781.157a.79.79,0,0,1,.658,1.149l-2.059,4.024c1.274,6.681.157,10.829-11.147,12.013v11l-15.326,0,.107-18.037a16.525,16.525,0,0,1-5.431-16.434" transform="translate(13.49 47.126)" fill="#ffa194"/>
              <path id="Trazado_615590" data-name="Trazado 615590" d="M10.618,217.68a8.2,8.2,0,0,0,.315-2.936c-.588-7.941-3.6-38.131-3.613-51.644-.015-17.686,7.424-28.779,15.026-33.875,14.42-9.664,31.56-8.462,44.666-4.735,14.8,4.208,28.6,18.486,35.029,32.4,5.731,12.411,16.793,22.629,28.527,23.042,13.768.484,26.838-9.7,32.971-28.126l38.159,7.478c-4.289,21.929-15.83,57.562-39.633,72.693-16.635,10.576-49.517,12.426-72.762,1.85H5.842Z" transform="translate(2.959 61.663)" fill="#fe9b4f"/>
              <path id="Trazado_615591" data-name="Trazado 615591" d="M50.212,95.841a4.535,4.535,0,0,0-3.369-2.353c-9.884-1.809-21.9.89-23.073,12.275-.634,6.157,11.187,7.124,18.132,9.931,4.17-.856,10.958-11.056,8.31-19.853" transform="translate(12.027 47.09)" fill="#28121f"/>
              <path id="Trazado_615592" data-name="Trazado 615592" d="M36.418,119.168a10.869,10.869,0,0,0,6.385,4.654v-6.793l-5.627.6a1.016,1.016,0,0,0-.758,1.543" transform="translate(18.369 59.274)" fill="#db5349"/>
              <path id="Trazado_615593" data-name="Trazado 615593" d="M75.586,221.211a1.035,1.035,0,0,1-.371-.069,49.587,49.587,0,0,1-13.445-7.835A58.182,58.182,0,0,1,49.8,199.662a91.98,91.98,0,0,1-9.664-20.815,168.21,168.21,0,0,1-6.583-29.381,1.022,1.022,0,0,1,2.023-.285C41,187.87,54.208,210.786,75.957,219.237a1.022,1.022,0,0,1-.371,1.974" transform="translate(16.986 75.114)" fill="#e87323"/>
              <path id="Trazado_615594" data-name="Trazado 615594" d="M43.532,104.831a1.02,1.02,0,0,1-.926-1.449,3.2,3.2,0,0,1,5.3-.628L46.3,104.016a1.144,1.144,0,0,0-.972-.34,1.157,1.157,0,0,0-.866.562,1.021,1.021,0,0,1-.928.594" transform="translate(21.532 51.472)" fill="#28121f"/>
              <path id="Trazado_615595" data-name="Trazado 615595" d="M48.659,112.079a5.678,5.678,0,0,1-2.853-.785,1.021,1.021,0,0,1,1.02-1.77,3.4,3.4,0,0,0,2.43.453,1.021,1.021,0,1,1,.627,1.943,4.238,4.238,0,0,1-1.223.158" transform="translate(22.941 55.404)" fill="#db5349"/>
              <path id="Trazado_615596" data-name="Trazado 615596" d="M166.172,111.389a4,4,0,0,0-2.356.2c.1-.771.179-1.543.227-2.311a5.346,5.346,0,0,0-1.826-4.884,5.022,5.022,0,0,0-4.7-.637c-2.328.877-3.727,3.283-5.2,5.137q-2.542,3.2-5.3,6.225a121.017,121.017,0,0,1-10.973,10.576c.023-4.682-.193-9.726-3.221-13.537-2.59-3.262-7.189-2.948-8.878.657-1.821,3.888-1.006,10.255-1.568,16.525a75.591,75.591,0,0,0-8.3,19.639c-.753,3.061-3.56,12.1-3.56,12.1l38.161,7.478,2.508-13.126s10.066-8.159,15.72-15.405c3.055-3.917,5.324-8.3,4.607-11.448-.468-2.059-1.877-2.391-3.253-1.891,1.574-3.62,2.609-7.945,1.573-11.583a4.886,4.886,0,0,0-3.664-3.714" transform="translate(55.977 52.392)" fill="#ffa194"/>
              <path id="Trazado_615597" data-name="Trazado 615597" d="M137.761,128.807a1.023,1.023,0,0,1-.832-1.613l13.018-18.316a1.022,1.022,0,1,1,1.666,1.183l-13.019,18.317a1.019,1.019,0,0,1-.833.429" transform="translate(69.258 54.928)" fill="#db5349"/>
              <path id="Trazado_615598" data-name="Trazado 615598" d="M143.6,134.221a1.006,1.006,0,0,1-.545-.16,1.02,1.02,0,0,1-.318-1.409l8.581-13.548a1.022,1.022,0,1,1,1.728,1.092l-8.582,13.548a1.021,1.021,0,0,1-.863.476" transform="translate(72.213 60.085)" fill="#db5349"/>
              <path id="Trazado_615599" data-name="Trazado 615599" d="M127.5,124.292l1.47-1.936c.02-4.2-.154-8.692-2.377-12.326l-2.09,12.98a1.68,1.68,0,0,0,3,1.282" transform="translate(63.049 55.729)" fill="#db5349"/>
              <path id="Trazado_615600" data-name="Trazado 615600" d="M134.842,153.381a4.334,4.334,0,1,1-4.334-4.333,4.334,4.334,0,0,1,4.334,4.333" transform="translate(63.906 75.492)" fill="#fffeeb"/>
              <path id="Trazado_615601" data-name="Trazado 615601" d="M74.843,208.982c19.372,3,40.142-.066,52.274-7.778q1.731-1.1,3.378-2.344a29.434,29.434,0,0,0-55.651,10.122" transform="translate(37.907 92.439)" fill="#fc5649"/>
              <path id="Trazado_615602" data-name="Trazado 615602" d="M38.91,114.053a1.022,1.022,0,0,1-.447-1.94c3.512-1.71,5.208-4.947,5.044-9.625A23.088,23.088,0,0,0,42.1,95.6,1.022,1.022,0,0,1,44,94.84a24.885,24.885,0,0,1,1.55,7.52c.208,5.508-1.931,9.515-6.192,11.588a1.007,1.007,0,0,1-.446.1" transform="translate(19.189 47.711)" fill="#28121f"/>
              <path id="Trazado_615603" data-name="Trazado 615603" d="M38.38,142.912a239.809,239.809,0,0,1-24.524-1.33L9.25,141.1a1.022,1.022,0,0,1,.214-2.032l4.605.487a237.536,237.536,0,0,0,24.309,1.32,135.272,135.272,0,0,0,24.572-1.975,56.054,56.054,0,0,0,17.906-6.168l3.71-2.172a1.022,1.022,0,1,1,1.033,1.763l-3.71,2.174A58.108,58.108,0,0,1,63.327,140.9a137.34,137.34,0,0,1-24.948,2.01" transform="translate(4.222 66.054)" fill="#e87323"/>
              <path id="Trazado_615604" data-name="Trazado 615604" d="M64.609,124.489c-13.1-3.726-30.244-4.929-44.664,4.735a30.753,30.753,0,0,0-9.363,10.338l2.781.294a233.412,233.412,0,0,0,23.878,1.3c18.221,0,31.814-2.549,40.4-7.579l2.1-1.229a46.568,46.568,0,0,0-15.137-7.853" transform="translate(5.36 61.663)" fill="#fffeeb"/>
              <path id="Trazado_615605" data-name="Trazado 615605" d="M63.494,124.489c-13.1-3.726-30.244-4.929-44.664,4.735a28.589,28.589,0,0,0-6.044,5.53c12.207,1.288,45.241,3.707,61.153-5.607a42.9,42.9,0,0,0-10.445-4.658" transform="translate(6.476 61.663)" fill="#ffa194"/>
              <path id="Trazado_615606" data-name="Trazado 615606" d="M19.967,105.145l.018,27.528a5.5,5.5,0,0,0,5.5,5.494l18.652-.021a5.5,5.5,0,0,0,5.395-6.529l-4.287-22.459-13.137-4.77Z" transform="translate(10.113 52.872)" fill="#28121f"/>
              <path id="Trazado_615607" data-name="Trazado 615607" d="M183.836,161.045a1.022,1.022,0,0,1-.55-1.883c3.79-2.419,6.168-7.31,6.058-12.456a16.34,16.34,0,0,0-6.451-12.582,7.529,7.529,0,0,0-3.662-1.419,17.349,17.349,0,0,1-2.421,4.236c-2.13,2.736-4.178,2.65-5.518,2.1a3,3,0,0,1-1.876-2.284c-.113-.8.093-2.032,1.717-3.352a11.987,11.987,0,0,1,6.272-2.724c.131-.012.261-.024.392-.032a15.372,15.372,0,0,0-2.9-14.605c-4.623-5.149-12.632-6.234-17.852-2.419a1.021,1.021,0,1,1-1.205-1.65,14.507,14.507,0,0,1,10.791-2.477,16.631,16.631,0,0,1,9.788,5.181,17.417,17.417,0,0,1,3.472,16.058,9.662,9.662,0,0,1,4.2,1.731,18.447,18.447,0,0,1,7.3,14.2c.125,5.844-2.623,11.427-7,14.221a1,1,0,0,1-.548.161m-6.873-28.236a10.437,10.437,0,0,0-4.542,2.177c-.678.553-1.036,1.092-.982,1.481a1,1,0,0,0,.631.682c.646.265,1.674.4,3.128-1.463a15.3,15.3,0,0,0,1.766-2.877" transform="translate(78.717 55.367)" fill="#0dba98"/>
              <path id="Trazado_615608" data-name="Trazado 615608" d="M34.132,113.3a1.022,1.022,0,0,1-.6-1.847c5.96-4.357,6.579-15.636,6.585-15.749a1.022,1.022,0,0,1,2.041.1c-.024.5-.669,12.365-7.421,17.3a1.014,1.014,0,0,1-.6.2" transform="translate(16.77 47.982)" fill="#70529e"/>
              <path id="Trazado_615609" data-name="Trazado 615609" d="M31.62,106.389a1.021,1.021,0,0,1-.777-1.684c1.669-1.955,1.967-6.243,1.94-7.73a1.022,1.022,0,0,1,2.043-.039c.006.25.086,6.15-2.428,9.095a1.019,1.019,0,0,1-.777.359" transform="translate(15.498 48.59)" fill="#70529e"/>
              <path id="Trazado_615610" data-name="Trazado 615610" d="M32.729,111.146a4.941,4.941,0,1,0,3.3-6.159,4.942,4.942,0,0,0-3.3,6.159" transform="translate(16.47 53.068)" fill="#ffa194"/>
              <path id="Trazado_615611" data-name="Trazado 615611" d="M33.918,109.949a3.028,3.028,0,1,0,2.022-3.774,3.027,3.027,0,0,0-2.022,3.774" transform="translate(17.113 53.711)" fill="#db5349"/>
              <path id="Trazado_615612" data-name="Trazado 615612" d="M103.468,206.718H3.013a1.021,1.021,0,0,1,0-2.043H103.468a1.021,1.021,0,0,1,0,2.043" transform="translate(1.009 103.666)" fill="#70529e"/>
              <path id="Trazado_615613" data-name="Trazado 615613" d="M19.691,211.382a1.022,1.022,0,0,1-1.021-1.021V196.49a1.021,1.021,0,1,1,2.043,0v13.87a1.022,1.022,0,0,1-1.021,1.021" transform="translate(9.456 99.002)" fill="#70529e"/>
              <path id="Trazado_615614" data-name="Trazado 615614" d="M51.343,211.382a1.022,1.022,0,0,1-1.021-1.021V196.49a1.021,1.021,0,1,1,2.043,0v13.87a1.021,1.021,0,0,1-1.021,1.021" transform="translate(25.488 99.002)" fill="#70529e"/>
              <path id="Trazado_615615" data-name="Trazado 615615" d="M140,140.3a1.028,1.028,0,0,1-.426-.093l-6.384-2.932a1.022,1.022,0,0,1,.853-1.857l6.386,2.933A1.021,1.021,0,0,1,140,140.3" transform="translate(67.161 68.542)" fill="#db5349"/>
              <path id="Trazado_615616" data-name="Trazado 615616" d="M46.215,105.665a1.026,1.026,0,1,1-1.026-1.026,1.026,1.026,0,0,1,1.026,1.026" transform="translate(22.368 52.999)" fill="#28121f"/>
              <path id="Trazado_615617" data-name="Trazado 615617" d="M46.826,110.439a3.028,3.028,0,1,1-2.409-3.54,3.026,3.026,0,0,1,2.409,3.54" transform="translate(20.677 54.116)" fill="#f4756e"/>
              <path id="Trazado_615618" data-name="Trazado 615618" d="M149.025,150.545c-.2-.02-38.358-7.5-38.358-7.5a1.022,1.022,0,1,1,.393-2.005l38.161,7.478a1.022,1.022,0,0,1-.2,2.025" transform="translate(55.634 71.427)" fill="#e87323"/>
            </g>
          </g>
        </g>
      </g>
    </g>
  </g>
</svg>
