<svg xmlns="http://www.w3.org/2000/svg" xmlns:xlink="http://www.w3.org/1999/xlink" width="400" height="435.138" viewBox="0 0 400 435.138">
  <defs>
    <clipPath id="clip-path">
      <rect id="Rectángulo_46351" data-name="Rectángulo 46351" width="92.43" height="95.638" fill="none"/>
    </clipPath>
    <clipPath id="clip-path-2">
      <rect id="Rectángulo_378978" data-name="Rectángulo 378978" width="195.905" height="205.359" fill="none"/>
    </clipPath>
  </defs>
  <g id="Grupo_1075230" data-name="Grupo 1075230" transform="translate(8674 9607)">
    <rect id="Rectángulo_378860" data-name="Rectángulo 378860" width="400" height="435.138" transform="translate(-8674 -9607)" fill="#f3f9ff"/>
    <path id="Feature_One" data-name="Feature One" d="M7.32,12.875H3.563L2.906,15H-.023L4.148,3.625H6.727L10.93,15H7.984Zm-3.1-2.117H6.664L5.438,6.813Zm9.047,1.688a1.5,1.5,0,0,1,1.039.371,1.3,1.3,0,0,1,0,1.9,1.639,1.639,0,0,1-2.082,0,1.294,1.294,0,0,1,0-1.891A1.486,1.486,0,0,1,13.266,12.445ZM20.578,15V3.625h3.664a5.39,5.39,0,0,1,2.711.684,4.805,4.805,0,0,1,1.879,1.93,5.826,5.826,0,0,1,.684,2.793v.523a5.86,5.86,0,0,1-.66,2.8A4.826,4.826,0,0,1,27,14.293,5.271,5.271,0,0,1,24.32,15ZM23.32,5.742v7.148h.953a2.133,2.133,0,0,0,1.813-.84,4.116,4.116,0,0,0,.633-2.5V9.063a4.082,4.082,0,0,0-.633-2.484,2.17,2.17,0,0,0-1.844-.836ZM33.578,15H30.938V6.547h2.641Zm-2.8-10.633a1.175,1.175,0,0,1,.406-.922,1.727,1.727,0,0,1,2.109,0,1.175,1.175,0,0,1,.406.922,1.175,1.175,0,0,1-.406.922,1.727,1.727,0,0,1-2.109,0A1.175,1.175,0,0,1,30.781,4.367ZM40.313,8.93l-.867-.062a1.558,1.558,0,0,0-1.594.781V15H35.219V6.547h2.469l.086,1.086a2.039,2.039,0,0,1,1.852-1.242,2.567,2.567,0,0,1,.734.094ZM45.2,15.156A4.345,4.345,0,0,1,42.055,14a4.006,4.006,0,0,1-1.2-3.02v-.219a5.191,5.191,0,0,1,.48-2.289,3.516,3.516,0,0,1,1.4-1.535,4.233,4.233,0,0,1,2.188-.543A3.659,3.659,0,0,1,47.734,7.5a4.344,4.344,0,0,1,1.031,3.082V11.6H43.531a1.9,1.9,0,0,0,.617,1.117,1.836,1.836,0,0,0,1.234.406,2.366,2.366,0,0,0,1.953-.875l1.2,1.422a3.363,3.363,0,0,1-1.395,1.082A4.713,4.713,0,0,1,45.2,15.156Zm-.3-6.734q-1.156,0-1.375,1.531h2.656v-.2a1.3,1.3,0,0,0-.32-.98A1.275,1.275,0,0,0,44.906,8.422Zm8.492,4.7a1.171,1.171,0,0,0,.859-.3,1.1,1.1,0,0,0,.3-.84h2.469a2.922,2.922,0,0,1-1,2.281,3.705,3.705,0,0,1-2.566.891A3.751,3.751,0,0,1,50.555,14a4.556,4.556,0,0,1-1.062-3.2v-.109a5.149,5.149,0,0,1,.473-2.262,3.441,3.441,0,0,1,1.363-1.508,4.065,4.065,0,0,1,2.109-.527,3.658,3.658,0,0,1,2.617.914,3.242,3.242,0,0,1,.969,2.477H54.555a1.445,1.445,0,0,0-.32-1.008,1.106,1.106,0,0,0-.859-.352q-1.023,0-1.2,1.3a9.206,9.206,0,0,0-.055,1.141,3.616,3.616,0,0,0,.3,1.766A1.055,1.055,0,0,0,53.4,13.125Zm8.313,0a1.171,1.171,0,0,0,.859-.3,1.1,1.1,0,0,0,.3-.84h2.469a2.922,2.922,0,0,1-1,2.281,3.705,3.705,0,0,1-2.566.891A3.751,3.751,0,0,1,58.867,14,4.556,4.556,0,0,1,57.8,10.8v-.109a5.149,5.149,0,0,1,.473-2.262,3.441,3.441,0,0,1,1.363-1.508,4.065,4.065,0,0,1,2.109-.527,3.658,3.658,0,0,1,2.617.914,3.242,3.242,0,0,1,.969,2.477H62.867a1.445,1.445,0,0,0-.32-1.008,1.106,1.106,0,0,0-.859-.352q-1.023,0-1.2,1.3a9.206,9.206,0,0,0-.055,1.141,3.616,3.616,0,0,0,.3,1.766A1.055,1.055,0,0,0,61.711,13.125ZM69.227,15H66.586V6.547h2.641ZM66.43,4.367a1.175,1.175,0,0,1,.406-.922,1.727,1.727,0,0,1,2.109,0,1.175,1.175,0,0,1,.406.922,1.175,1.175,0,0,1-.406.922,1.727,1.727,0,0,1-2.109,0A1.175,1.175,0,0,1,66.43,4.367ZM70.516,10.7a4.989,4.989,0,0,1,.492-2.254,3.52,3.52,0,0,1,1.414-1.52,4.259,4.259,0,0,1,2.164-.531,3.887,3.887,0,0,1,2.992,1.176,4.512,4.512,0,0,1,1.094,3.2v.094A4.378,4.378,0,0,1,77.574,14a3.9,3.9,0,0,1-2.973,1.16,3.942,3.942,0,0,1-2.9-1.082,4.232,4.232,0,0,1-1.18-2.934Zm2.633.164a3.145,3.145,0,0,0,.367,1.719,1.223,1.223,0,0,0,1.086.547q1.406,0,1.438-2.164V10.7q0-2.273-1.453-2.273-1.32,0-1.43,1.961Zm9.1-4.312.086.992A2.867,2.867,0,0,1,84.75,6.391a2.412,2.412,0,0,1,1.973.789A3.757,3.757,0,0,1,87.4,9.555V15H84.758V9.664a1.426,1.426,0,0,0-.258-.941,1.193,1.193,0,0,0-.937-.3,1.256,1.256,0,0,0-1.148.609V15H79.781V6.547ZM93.617,15a2.973,2.973,0,0,1-.25-.758,2.448,2.448,0,0,1-2.031.914,3,3,0,0,1-2.031-.723,2.3,2.3,0,0,1-.836-1.816,2.364,2.364,0,0,1,1.016-2.078,5.174,5.174,0,0,1,2.953-.7h.813V9.388q0-1.17-1.008-1.17a.824.824,0,0,0-.937.926H88.672a2.36,2.36,0,0,1,1.043-1.99,4.383,4.383,0,0,1,2.66-.765,3.843,3.843,0,0,1,2.555.789,2.743,2.743,0,0,1,.961,2.164v3.742a3.832,3.832,0,0,0,.359,1.781V15Zm-1.648-1.719a1.469,1.469,0,0,0,.816-.211,1.322,1.322,0,0,0,.465-.477V11.242h-.766q-1.375,0-1.375,1.234a.754.754,0,0,0,.242.582A.876.876,0,0,0,91.969,13.281Zm7.867-6.734.086.992a2.906,2.906,0,0,1,2.414-1.148A2.14,2.14,0,0,1,104.5,7.664a2.813,2.813,0,0,1,2.484-1.273q2.57,0,2.641,3.109V15h-2.641V9.664a1.611,1.611,0,0,0-.219-.945.931.931,0,0,0-.8-.3,1.247,1.247,0,0,0-1.164.7l.008.109V15h-2.641V9.68a1.694,1.694,0,0,0-.211-.961.928.928,0,0,0-.8-.3,1.263,1.263,0,0,0-1.156.7V15H97.367V6.547ZM113.906,15h-2.641V6.547h2.641Zm-2.8-10.633a1.175,1.175,0,0,1,.406-.922,1.727,1.727,0,0,1,2.109,0,1.175,1.175,0,0,1,.406.922,1.175,1.175,0,0,1-.406.922,1.727,1.727,0,0,1-2.109,0A1.175,1.175,0,0,1,111.109,4.367Zm8.508,10.789A4.345,4.345,0,0,1,116.469,14a4.006,4.006,0,0,1-1.2-3.02v-.219a5.191,5.191,0,0,1,.48-2.289,3.516,3.516,0,0,1,1.4-1.535,4.233,4.233,0,0,1,2.188-.543A3.659,3.659,0,0,1,122.148,7.5a4.344,4.344,0,0,1,1.031,3.082V11.6h-5.234a1.9,1.9,0,0,0,.617,1.117,1.836,1.836,0,0,0,1.234.406,2.366,2.366,0,0,0,1.953-.875l1.2,1.422a3.363,3.363,0,0,1-1.395,1.082A4.713,4.713,0,0,1,119.617,15.156Zm-.3-6.734q-1.156,0-1.375,1.531H120.6v-.2a1.3,1.3,0,0,0-.32-.98A1.275,1.275,0,0,0,119.32,8.422Zm7.336-1.875.086.992a2.867,2.867,0,0,1,2.414-1.148,2.412,2.412,0,0,1,1.973.789,3.757,3.757,0,0,1,.676,2.375V15h-2.641V9.664a1.426,1.426,0,0,0-.258-.941,1.193,1.193,0,0,0-.937-.3,1.256,1.256,0,0,0-1.148.609V15h-2.633V6.547Zm9.672-2.1v2.1h1.391V8.375h-1.391v3.867a.987.987,0,0,0,.172.664.922.922,0,0,0,.68.188,3.862,3.862,0,0,0,.656-.047V14.93a4.859,4.859,0,0,1-1.484.227,2.758,2.758,0,0,1-2.008-.641,2.626,2.626,0,0,1-.648-1.945v-4.2h-1.078V6.547H133.7v-2.1Zm1.859,6.25a4.989,4.989,0,0,1,.492-2.254,3.52,3.52,0,0,1,1.414-1.52,4.259,4.259,0,0,1,2.164-.531,3.887,3.887,0,0,1,2.992,1.176,4.512,4.512,0,0,1,1.094,3.2v.094a4.378,4.378,0,0,1-1.1,3.137,3.9,3.9,0,0,1-2.973,1.16,3.942,3.942,0,0,1-2.9-1.082,4.232,4.232,0,0,1-1.18-2.934Zm2.633.164a3.145,3.145,0,0,0,.367,1.719,1.223,1.223,0,0,0,1.086.547q1.406,0,1.438-2.164V10.7q0-2.273-1.453-2.273-1.32,0-1.43,1.961Zm14.758,4.3A4.345,4.345,0,0,1,152.43,14a4.006,4.006,0,0,1-1.2-3.02v-.219a5.191,5.191,0,0,1,.48-2.289,3.516,3.516,0,0,1,1.4-1.535,4.233,4.233,0,0,1,2.188-.543A3.659,3.659,0,0,1,158.109,7.5a4.344,4.344,0,0,1,1.031,3.082V11.6h-5.234a1.9,1.9,0,0,0,.617,1.117,1.836,1.836,0,0,0,1.234.406,2.366,2.366,0,0,0,1.953-.875l1.2,1.422a3.363,3.363,0,0,1-1.395,1.082A4.713,4.713,0,0,1,155.578,15.156Zm-.3-6.734q-1.156,0-1.375,1.531h2.656v-.2a1.3,1.3,0,0,0-.32-.98A1.275,1.275,0,0,0,155.281,8.422Zm9.344,4.2a.608.608,0,0,0-.352-.539,5.348,5.348,0,0,0-1.336-.422,6.092,6.092,0,0,1-1.625-.574,2.722,2.722,0,0,1-.977-.863A2.061,2.061,0,0,1,160,9.063a2.336,2.336,0,0,1,.961-1.918,3.958,3.958,0,0,1,2.516-.754,4.386,4.386,0,0,1,2.688.758,2.37,2.37,0,0,1,1.016,1.992h-2.641q0-1.016-1.07-1.016a1.061,1.061,0,0,0-.7.23.714.714,0,0,0-.281.574.655.655,0,0,0,.344.57,3.248,3.248,0,0,0,1.1.359,9.485,9.485,0,0,1,1.324.336,2.406,2.406,0,0,1,1.906,2.352,2.214,2.214,0,0,1-1.027,1.883,4.505,4.505,0,0,1-2.66.727,4.6,4.6,0,0,1-1.937-.391,3.24,3.24,0,0,1-1.328-1.062,2.406,2.406,0,0,1-.477-1.414H162.2a1.017,1.017,0,0,0,.391.855,1.607,1.607,0,0,0,.961.27,1.264,1.264,0,0,0,.809-.219A.7.7,0,0,0,164.625,12.625Zm6.836-8.18v2.1h1.391V8.375h-1.391v3.867a.987.987,0,0,0,.172.664.922.922,0,0,0,.68.188,3.862,3.862,0,0,0,.656-.047V14.93a4.859,4.859,0,0,1-1.484.227,2.758,2.758,0,0,1-2.008-.641,2.626,2.626,0,0,1-.648-1.945v-4.2H167.75V6.547h1.078v-2.1ZM179,8.93l-.867-.062a1.558,1.558,0,0,0-1.594.781V15h-2.633V6.547h2.469l.086,1.086a2.039,2.039,0,0,1,1.852-1.242,2.567,2.567,0,0,1,.734.094ZM184.477,15a2.973,2.973,0,0,1-.25-.758,2.448,2.448,0,0,1-2.031.914,3,3,0,0,1-2.031-.723,2.3,2.3,0,0,1-.836-1.816,2.364,2.364,0,0,1,1.016-2.078,5.174,5.174,0,0,1,2.953-.7h.813V9.388q0-1.17-1.008-1.17a.824.824,0,0,0-.937.926h-2.633a2.36,2.36,0,0,1,1.043-1.99,4.383,4.383,0,0,1,2.66-.765,3.843,3.843,0,0,1,2.555.789,2.743,2.743,0,0,1,.961,2.164v3.742a3.832,3.832,0,0,0,.359,1.781V15Zm-1.648-1.719a1.469,1.469,0,0,0,.816-.211,1.322,1.322,0,0,0,.465-.477V11.242h-.766q-1.375,0-1.375,1.234a.754.754,0,0,0,.242.582A.876.876,0,0,0,182.828,13.281Zm8.445-8.836v2.1h1.391V8.375h-1.391v3.867a.987.987,0,0,0,.172.664.922.922,0,0,0,.68.188,3.862,3.862,0,0,0,.656-.047V14.93a4.859,4.859,0,0,1-1.484.227,2.758,2.758,0,0,1-2.008-.641,2.626,2.626,0,0,1-.648-1.945v-4.2h-1.078V6.547h1.078v-2.1Zm6.516,10.711A4.345,4.345,0,0,1,194.641,14a4.006,4.006,0,0,1-1.2-3.02v-.219a5.191,5.191,0,0,1,.48-2.289,3.516,3.516,0,0,1,1.4-1.535,4.233,4.233,0,0,1,2.188-.543A3.659,3.659,0,0,1,200.32,7.5a4.344,4.344,0,0,1,1.031,3.082V11.6h-5.234a1.9,1.9,0,0,0,.617,1.117,1.836,1.836,0,0,0,1.234.406,2.366,2.366,0,0,0,1.953-.875l1.2,1.422a3.363,3.363,0,0,1-1.395,1.082A4.713,4.713,0,0,1,197.789,15.156Zm-.3-6.734q-1.156,0-1.375,1.531h2.656v-.2a1.3,1.3,0,0,0-.32-.98A1.275,1.275,0,0,0,197.492,8.422Zm-.031-5.43h2.781L198.07,5.445l-2.148,0Zm4.641,7.719a5.708,5.708,0,0,1,.422-2.266,3.4,3.4,0,0,1,1.211-1.52,3.192,3.192,0,0,1,1.836-.535,2.538,2.538,0,0,1,2.063.891l.094-.734h2.391V14.68a3.564,3.564,0,0,1-.52,1.941,3.334,3.334,0,0,1-1.5,1.266,5.528,5.528,0,0,1-2.281.441,4.769,4.769,0,0,1-1.8-.352,3.251,3.251,0,0,1-1.332-.914l1.1-1.547a2.414,2.414,0,0,0,1.938.867,1.568,1.568,0,0,0,1.75-1.8V14.32a2.472,2.472,0,0,1-1.914.836,3.055,3.055,0,0,1-2.5-1.184A4.9,4.9,0,0,1,202.1,10.8Zm2.641.164a3.007,3.007,0,0,0,.391,1.645,1.232,1.232,0,0,0,1.094.605,1.4,1.4,0,0,0,1.242-.57V9a1.363,1.363,0,0,0-1.227-.578,1.241,1.241,0,0,0-1.1.629A3.429,3.429,0,0,0,204.742,10.875ZM214.391,15H211.75V6.547h2.641Zm-2.8-10.633A1.175,1.175,0,0,1,212,3.445a1.727,1.727,0,0,1,2.109,0,1.175,1.175,0,0,1,.406.922,1.175,1.175,0,0,1-.406.922,1.727,1.727,0,0,1-2.109,0A1.175,1.175,0,0,1,211.594,4.367Zm7.992,8.758a1.171,1.171,0,0,0,.859-.3,1.1,1.1,0,0,0,.3-.84h2.469a2.922,2.922,0,0,1-1,2.281,3.705,3.705,0,0,1-2.566.891A3.751,3.751,0,0,1,216.742,14a4.556,4.556,0,0,1-1.062-3.2v-.109a5.149,5.149,0,0,1,.473-2.262,3.441,3.441,0,0,1,1.363-1.508,4.065,4.065,0,0,1,2.109-.527,3.658,3.658,0,0,1,2.617.914,3.242,3.242,0,0,1,.969,2.477h-2.469a1.445,1.445,0,0,0-.32-1.008,1.106,1.106,0,0,0-.859-.352q-1.023,0-1.2,1.3a9.207,9.207,0,0,0-.055,1.141,3.616,3.616,0,0,0,.3,1.766A1.055,1.055,0,0,0,219.586,13.125Zm4.406-2.43a4.989,4.989,0,0,1,.492-2.254,3.52,3.52,0,0,1,1.414-1.52,4.259,4.259,0,0,1,2.164-.531,3.887,3.887,0,0,1,2.992,1.176,4.512,4.512,0,0,1,1.094,3.2v.094a4.378,4.378,0,0,1-1.1,3.137,3.9,3.9,0,0,1-2.973,1.16,3.942,3.942,0,0,1-2.9-1.082A4.232,4.232,0,0,1,224,11.141Zm2.633.164a3.145,3.145,0,0,0,.367,1.719,1.223,1.223,0,0,0,1.086.547q1.406,0,1.438-2.164V10.7q0-2.273-1.453-2.273-1.32,0-1.43,1.961Z" transform="translate(-8593.424 -9345)" fill="#315884"/>
    <g id="Grupo_154801" data-name="Grupo 154801" transform="translate(-8366.43 -9267.5)">
      <g id="Grupo_154721" data-name="Grupo 154721" clip-path="url(#clip-path)">
        <line id="Línea_1878" data-name="Línea 1878" x1="17.302" y2="81.558" transform="translate(48.964 23.596)" fill="none" stroke="#1e0b4a" stroke-linecap="round" stroke-linejoin="round" stroke-width="1.052"/>
        <path id="Trazado_196481" data-name="Trazado 196481" d="M234.777,273.116a6.5,6.5,0,1,1-6.5-6.5,6.5,6.5,0,0,1,6.5,6.5" transform="translate(-162.01 -249.519)" fill="#59c4c8"/>
        <path id="Trazado_196482" data-name="Trazado 196482" d="M241.983,324.01c-7.2,20.729-29.886,31.676-29.886,31.676s-11.006-22.656-3.8-43.383,29.886-31.675,29.886-31.675,11.006,22.655,3.8,43.382" transform="translate(-156.885 -250.532)" fill="#12263f"/>
        <path id="Trazado_196483" data-name="Trazado 196483" d="M281.658,311.26c3.339,31.511-19.563,59.769-19.563,59.769s-28.316-22.83-31.655-54.342S250,256.918,250,256.918s28.315,22.83,31.654,54.342" transform="translate(-216.954 -248.819)" fill="#59c4c8"/>
        <path id="Trazado_196484" data-name="Trazado 196484" d="M295.32,320.154a11.874,11.874,0,1,1-11.874-11.874,11.874,11.874,0,0,1,11.874,11.874" transform="translate(-268.754 -252.529)" fill="#12263f"/>
        <line id="Línea_1879" data-name="Línea 1879" x2="11.68" y2="110.236" transform="translate(33.461 11.973)" fill="none" stroke="#1e0b4a" stroke-linecap="round" stroke-linejoin="round" stroke-width="1.052"/>
        <line id="Línea_1880" data-name="Línea 1880" y1="14.358" x2="22.324" transform="translate(40.46 63.675)" fill="none" stroke="#1e0b4a" stroke-linecap="round" stroke-linejoin="round" stroke-width="1.052"/>
        <line id="Línea_1881" data-name="Línea 1881" x1="19.186" y1="10.052" transform="translate(18.306 39.971)" fill="none" stroke="#1e0b4a" stroke-linecap="round" stroke-linejoin="round" stroke-width="1.052"/>
        <line id="Línea_1882" data-name="Línea 1882" x2="20.876" y2="42.819" transform="translate(14.691 67.625)" fill="none" stroke="#1e0b4a" stroke-linecap="round" stroke-linejoin="round" stroke-width="1.052"/>
      </g>
    </g>
    <path id="Trazado_615639" data-name="Trazado 615639" d="M572.842,168.311a.691.691,0,0,0-.563-.775c-1.211-.418-2.419-.851-3.6-1.337a1.434,1.434,0,0,1-.678-.708c-.5-1.151-.947-2.322-1.38-3.5a1.139,1.139,0,0,1,0-.781c.585-1.3,1.227-2.576,1.809-3.878a.816.816,0,0,0-.1-.723c-.976-1.043-2-2.038-2.992-3.068a.588.588,0,0,0-.812-.132c-1.234.612-2.477,1.209-3.735,1.771a1.25,1.25,0,0,1-.851.039q-1.8-.649-3.572-1.4a1.325,1.325,0,0,1-.674-.622c-.488-1.21-.927-2.44-1.348-3.674-.136-.4-.3-.588-.758-.577-1.379.035-2.761.031-4.141,0a.689.689,0,0,0-.771.568c-.415,1.211-.885,2.4-1.3,3.616a1.067,1.067,0,0,1-.773.739c-1.14.4-2.265.842-3.361,1.344a1.078,1.078,0,0,1-1.067-.009c-1.209-.609-2.442-1.17-3.653-1.776a.632.632,0,0,0-.874.152c-.955,1-1.928,1.978-2.929,2.927a.669.669,0,0,0-.128.938c.6,1.214,1.189,2.435,1.732,3.675a1.252,1.252,0,0,1-.023.9q-.756,1.762-1.615,3.48a1.479,1.479,0,0,1-.7.691c-1.287.49-2.6.926-3.905,1.354a.678.678,0,0,0-.574.762c.031,1.38.026,2.761,0,4.142a.627.627,0,0,0,.515.721c1.334.431,2.666.874,3.976,1.373a1.462,1.462,0,0,1,.682.711c.529,1.111.964,2.267,1.517,3.364a1.189,1.189,0,0,1,.026,1.208c-.572,1.147-1.094,2.318-1.663,3.466a.677.677,0,0,0,.148.937q1.5,1.428,2.928,2.929a.668.668,0,0,0,.934.134c1.192-.591,2.4-1.138,3.6-1.729a1.058,1.058,0,0,1,1.067.027c1.145.565,2.338,1.032,3.495,1.578a1.246,1.246,0,0,1,.588.616c.491,1.312.945,2.64,1.384,3.971a.643.643,0,0,0,.727.521c1.38-.023,2.762-.027,4.141,0a.664.664,0,0,0,.758-.565c.421-1.312.87-2.615,1.361-3.9a1.351,1.351,0,0,1,.652-.656q1.771-.827,3.585-1.556a1.2,1.2,0,0,1,.844-.016c1.41.626,2.8,1.3,4.248,1.983,1.135-1.15,2.268-2.275,3.362-3.437a.826.826,0,0,0,.066-.734c-.562-1.258-1.184-2.489-1.751-3.745a1.189,1.189,0,0,1-.056-.8c.427-1.23.881-2.451,1.375-3.655a1.316,1.316,0,0,1,.646-.659c1.209-.488,2.439-.932,3.672-1.36a.646.646,0,0,0,.508-.734c-.025-1.38-.028-2.761,0-4.141m-21.335,10.135a8.071,8.071,0,1,1,8.08-8.061,8.044,8.044,0,0,1-8.08,8.061" transform="translate(-9198.564 -9752.447)" fill="#3656b3"/>
    <g id="Grupo_1075235" data-name="Grupo 1075235" transform="translate(-8571.952 -9576.041)">
      <g id="Grupo_1075232" data-name="Grupo 1075232">
        <g id="Grupo_1075231" data-name="Grupo 1075231" clip-path="url(#clip-path-2)">
          <path id="Trazado_616341" data-name="Trazado 616341" d="M96.706,182.482a78.554,78.554,0,1,1,55.546-23.008,78.04,78.04,0,0,1-55.546,23.008m0-154.651a76.1,76.1,0,1,0,76.1,76.1,76.183,76.183,0,0,0-76.1-76.1" fill="#b0c0d2"/>
          <path id="Trazado_616342" data-name="Trazado 616342" d="M92.365,34.262a69.6,69.6,0,0,0-11.133,1.594A35.964,35.964,0,0,1,31.348,79.4a69.035,69.035,0,0,0-3.092,10.814A47.092,47.092,0,0,0,92.365,34.262m-45.3-23.15A35.829,35.829,0,0,1,73.187,22.368a84.066,84.066,0,0,1,12.26-2.549A47.066,47.066,0,1,0,14.87,81.392a82.9,82.9,0,0,1,4.194-11.787,35.947,35.947,0,0,1,28-58.493" fill="#8ce2e5"/>
          <path id="Trazado_616343" data-name="Trazado 616343" d="M148.84,0a47,47,0,0,0-38.612,20.147,84.022,84.022,0,0,1,11.946,2.8,35.949,35.949,0,1,1,53,48.582,83.533,83.533,0,0,1,3.838,11.649A47.061,47.061,0,0,0,148.84,0m0,83.015a35.976,35.976,0,0,1-34.348-46.592,69.09,69.09,0,0,0-11.007-1.968,47.095,47.095,0,0,0,61.852,56.7,68.934,68.934,0,0,0-2.923-10.792,35.821,35.821,0,0,1-13.574,2.653" fill="#ffb074"/>
          <path id="Trazado_616344" data-name="Trazado 616344" d="M47.065,111.232a46.91,46.91,0,0,0-19.233,4.1,68.778,68.778,0,0,0,2.761,11A35.964,35.964,0,0,1,80.387,171.8,69.563,69.563,0,0,0,91.6,173.547a47.088,47.088,0,0,0-44.535-62.315m0,83.015a35.952,35.952,0,0,1-28.7-57.6,83.622,83.622,0,0,1-4.019-12.174A47.063,47.063,0,1,0,83.737,187.8a84.255,84.255,0,0,1-12.5-2.889,35.816,35.816,0,0,1-24.173,9.34" fill="#b9daff"/>
          <path id="Trazado_616345" data-name="Trazado 616345" d="M179.5,122.6a83.358,83.358,0,0,1-3.635,12,35.952,35.952,0,0,1-51.849,49.715,84.157,84.157,0,0,1-12.143,3.125A47.064,47.064,0,1,0,179.5,122.6m-66.614,35.7a35.967,35.967,0,0,1,50.267-32.985,68.616,68.616,0,0,0,2.576-10.954,47.092,47.092,0,0,0-61.5,58.971,68.806,68.806,0,0,0,11.059-2.106,35.771,35.771,0,0,1-2.4-12.926" fill="#315884"/>
          <path id="Trazado_616346" data-name="Trazado 616346" d="M75.582,47.456A28.818,28.818,0,1,1,46.764,18.638,28.818,28.818,0,0,1,75.582,47.456" fill="#8ce2e5"/>
          <path id="Trazado_616347" data-name="Trazado 616347" d="M177.8,47.456a28.818,28.818,0,1,1-28.818-28.818A28.818,28.818,0,0,1,177.8,47.456" fill="#ffb074"/>
          <path id="Trazado_616348" data-name="Trazado 616348" d="M75.582,158.451a28.818,28.818,0,1,1-28.818-28.818,28.818,28.818,0,0,1,28.818,28.818" fill="#b9daff"/>
          <path id="Trazado_616349" data-name="Trazado 616349" d="M177.8,158.451a28.818,28.818,0,1,1-28.818-28.818A28.818,28.818,0,0,1,177.8,158.451" fill="#315884"/>
        </g>
      </g>
      <path id="Trazado_873523" data-name="Trazado 873523" d="M8.367-2.637H3.744L2.865,0H.062L4.825-12.8H7.269L12.059,0h-2.8ZM4.456-4.772h3.2L6.047-9.562Z" transform="translate(90.65 107.525)"/>
      <path id="Trazado_873521" data-name="Trazado 873521" d="M1.143,0V-12.8H5.625a5.886,5.886,0,0,1,3.533.892,3.05,3.05,0,0,1,1.2,2.615,2.891,2.891,0,0,1-.483,1.657,2.792,2.792,0,0,1-1.345,1.05,2.7,2.7,0,0,1,1.551.993,2.936,2.936,0,0,1,.567,1.828A3.377,3.377,0,0,1,9.475-.967,5.3,5.3,0,0,1,6.117,0ZM3.779-5.572v3.454H6.038a2.18,2.18,0,0,0,1.455-.444,1.522,1.522,0,0,0,.523-1.226A1.607,1.607,0,0,0,6.2-5.572Zm0-1.863H5.73q2-.035,2-1.591a1.47,1.47,0,0,0-.505-1.252,2.658,2.658,0,0,0-1.6-.382H3.779Z" transform="translate(41.024 53.849)"/>
      <path id="Trazado_873522" data-name="Trazado 873522" d="M11.188-4.263A4.528,4.528,0,0,1,9.664-1.011,5.355,5.355,0,0,1,6.038.176,4.816,4.816,0,0,1,2.167-1.481,6.793,6.793,0,0,1,.756-6.029v-.782a7.671,7.671,0,0,1,.65-3.252,4.874,4.874,0,0,1,1.859-2.158,5.207,5.207,0,0,1,2.808-.751,5.217,5.217,0,0,1,3.568,1.187,4.866,4.866,0,0,1,1.564,3.331H8.569a2.673,2.673,0,0,0-.69-1.8,2.555,2.555,0,0,0-1.806-.558A2.24,2.24,0,0,0,4.1-9.866a5.3,5.3,0,0,0-.672,2.931v.967a5.667,5.667,0,0,0,.628,3.032,2.2,2.2,0,0,0,1.982.958,2.6,2.6,0,0,0,1.824-.558,2.521,2.521,0,0,0,.69-1.727Z" transform="translate(143.103 53.849)"/>
      <path id="Trazado_873524" data-name="Trazado 873524" d="M8.842-5.546H3.779v3.428H9.721V0H1.143V-12.8H9.7v2.136H3.779v3.05H8.842Z" transform="translate(41.708 164.909)"/>
      <path id="Trazado_873525" data-name="Trazado 873525" d="M1.143,0V-12.8H5.08a5.98,5.98,0,0,1,3.019.76,5.3,5.3,0,0,1,2.079,2.162,6.669,6.669,0,0,1,.747,3.186V-6.1a6.688,6.688,0,0,1-.734,3.173A5.256,5.256,0,0,1,8.121-.773,6.025,6.025,0,0,1,5.106,0ZM3.779-10.661v8.543H5.054A2.863,2.863,0,0,0,7.418-3.129a4.567,4.567,0,0,0,.835-2.892V-6.7a4.64,4.64,0,0,0-.809-2.958A2.854,2.854,0,0,0,5.08-10.661Z" transform="translate(145.299 164.909)" fill="#fff"/>
      <g id="Grupo_1075234" data-name="Grupo 1075234">
        <g id="Grupo_1075233" data-name="Grupo 1075233" clip-path="url(#clip-path-2)">
          <path id="Trazado_616350" data-name="Trazado 616350" d="M12.871,101.441v4.24l7.078-5.763,7.078,5.763v-4.24l-7.078-5.764Z" fill="#b0c0d2"/>
        </g>
      </g>
    </g>
    <path id="Feature_One-2" data-name="Feature One" d="M.859,15V3.625H4.945a5.786,5.786,0,0,1,3.34.8A2.677,2.677,0,0,1,9.43,6.766a2.707,2.707,0,0,1-.406,1.508,2.367,2.367,0,0,1-1.2.922A2.4,2.4,0,0,1,9.2,10.07a2.544,2.544,0,0,1,.477,1.563,3.012,3.012,0,0,1-1.059,2.512A5.038,5.038,0,0,1,5.477,15ZM3.6,10.164v2.727H5.4a1.709,1.709,0,0,0,1.141-.34,1.189,1.189,0,0,0,.4-.957,1.261,1.261,0,0,0-1.414-1.43Zm0-1.8h1.43a2.031,2.031,0,0,0,1.281-.329A1.168,1.168,0,0,0,6.7,7.09a1.226,1.226,0,0,0-.414-1.038,2.216,2.216,0,0,0-1.336-.317H3.6Zm9.086,4.078a1.5,1.5,0,0,1,1.039.371,1.3,1.3,0,0,1,0,1.9,1.639,1.639,0,0,1-2.082,0,1.294,1.294,0,0,1,0-1.891A1.486,1.486,0,0,1,12.688,12.445Zm14.477-1.977H22.742V15H20V3.625h7.609V5.742H22.742V8.359h4.422ZM31.406,15H28.766V6.547h2.641Zm-2.8-10.633a1.175,1.175,0,0,1,.406-.922,1.727,1.727,0,0,1,2.109,0,1.175,1.175,0,0,1,.406.922,1.175,1.175,0,0,1-.406.922,1.727,1.727,0,0,1-2.109,0A1.175,1.175,0,0,1,28.609,4.367Zm6.836,2.18.086.992a2.867,2.867,0,0,1,2.414-1.148,2.412,2.412,0,0,1,1.973.789,3.757,3.757,0,0,1,.676,2.375V15H37.953V9.664a1.426,1.426,0,0,0-.258-.941,1.193,1.193,0,0,0-.937-.3,1.256,1.256,0,0,0-1.148.609V15H32.977V6.547ZM46.813,15a2.973,2.973,0,0,1-.25-.758,2.448,2.448,0,0,1-2.031.914,3,3,0,0,1-2.031-.723,2.3,2.3,0,0,1-.836-1.816,2.364,2.364,0,0,1,1.016-2.078,5.174,5.174,0,0,1,2.953-.7h.813V9.388q0-1.17-1.008-1.17a.824.824,0,0,0-.937.926H41.867a2.36,2.36,0,0,1,1.043-1.99,4.383,4.383,0,0,1,2.66-.765,3.843,3.843,0,0,1,2.555.789,2.743,2.743,0,0,1,.961,2.164v3.742a3.832,3.832,0,0,0,.359,1.781V15Zm-1.648-1.719a1.469,1.469,0,0,0,.816-.211,1.322,1.322,0,0,0,.465-.477V11.242H45.68q-1.375,0-1.375,1.234a.754.754,0,0,0,.242.582A.876.876,0,0,0,45.164,13.281Zm7.8-6.734.086.992a2.867,2.867,0,0,1,2.414-1.148,2.412,2.412,0,0,1,1.973.789,3.757,3.757,0,0,1,.676,2.375V15H55.469V9.664a1.426,1.426,0,0,0-.258-.941,1.193,1.193,0,0,0-.937-.3,1.256,1.256,0,0,0-1.148.609V15H50.492V6.547Zm10.18,6.578a1.171,1.171,0,0,0,.859-.3,1.1,1.1,0,0,0,.3-.84h2.469a2.922,2.922,0,0,1-1,2.281,3.705,3.705,0,0,1-2.566.891A3.751,3.751,0,0,1,60.3,14a4.556,4.556,0,0,1-1.062-3.2v-.109a5.149,5.149,0,0,1,.473-2.262A3.441,3.441,0,0,1,61.07,6.918a4.065,4.065,0,0,1,2.109-.527A3.658,3.658,0,0,1,65.8,7.3a3.242,3.242,0,0,1,.969,2.477H64.3a1.445,1.445,0,0,0-.32-1.008,1.106,1.106,0,0,0-.859-.352q-1.023,0-1.2,1.3a9.206,9.206,0,0,0-.055,1.141,3.616,3.616,0,0,0,.3,1.766A1.055,1.055,0,0,0,63.141,13.125ZM70.656,15H68.016V6.547h2.641Zm-2.8-10.633a1.175,1.175,0,0,1,.406-.922,1.727,1.727,0,0,1,2.109,0,1.175,1.175,0,0,1,.406.922,1.175,1.175,0,0,1-.406.922,1.727,1.727,0,0,1-2.109,0A1.175,1.175,0,0,1,67.859,4.367Zm8.508,10.789A4.345,4.345,0,0,1,73.219,14a4.006,4.006,0,0,1-1.2-3.02v-.219a5.191,5.191,0,0,1,.48-2.289,3.516,3.516,0,0,1,1.4-1.535,4.233,4.233,0,0,1,2.188-.543A3.659,3.659,0,0,1,78.9,7.5a4.344,4.344,0,0,1,1.031,3.082V11.6H74.7a1.9,1.9,0,0,0,.617,1.117,1.836,1.836,0,0,0,1.234.406A2.366,2.366,0,0,0,78.5,12.25l1.2,1.422a3.363,3.363,0,0,1-1.395,1.082A4.713,4.713,0,0,1,76.367,15.156Zm-.3-6.734q-1.156,0-1.375,1.531h2.656v-.2a1.3,1.3,0,0,0-.32-.98A1.275,1.275,0,0,0,76.07,8.422ZM86.1,8.93l-.867-.062a1.558,1.558,0,0,0-1.594.781V15H81.008V6.547h2.469l.086,1.086a2.039,2.039,0,0,1,1.852-1.242,2.567,2.567,0,0,1,.734.094Zm.336,1.766a4.989,4.989,0,0,1,.492-2.254,3.52,3.52,0,0,1,1.414-1.52,4.259,4.259,0,0,1,2.164-.531A3.887,3.887,0,0,1,93.5,7.566a4.512,4.512,0,0,1,1.094,3.2v.094A4.378,4.378,0,0,1,93.5,14a3.9,3.9,0,0,1-2.973,1.16,3.942,3.942,0,0,1-2.9-1.082,4.232,4.232,0,0,1-1.18-2.934Zm2.633.164a3.145,3.145,0,0,0,.367,1.719,1.223,1.223,0,0,0,1.086.547q1.406,0,1.438-2.164V10.7q0-2.273-1.453-2.273-1.32,0-1.43,1.961Z" transform="translate(-8593.424 -9314)" fill="#315884"/>
    <path id="Feature_One-3" data-name="Feature One" d="M10.063,11.148a4.154,4.154,0,0,1-.641,2.1,3.866,3.866,0,0,1-1.645,1.41,5.6,5.6,0,0,1-2.418.5A4.467,4.467,0,0,1,1.828,13.7,6.032,6.032,0,0,1,.539,9.57V9.008a6.885,6.885,0,0,1,.582-2.926A4.41,4.41,0,0,1,2.8,4.145a4.676,4.676,0,0,1,2.531-.684,4.9,4.9,0,0,1,3.328,1.09,4.306,4.306,0,0,1,1.43,3H7.352a2.037,2.037,0,0,0-.523-1.492,2.153,2.153,0,0,0-1.5-.453,1.638,1.638,0,0,0-1.5.766,4.921,4.921,0,0,0-.5,2.445v.8a5.445,5.445,0,0,0,.457,2.6,1.672,1.672,0,0,0,1.574.781A2.106,2.106,0,0,0,6.8,12.563a1.89,1.89,0,0,0,.531-1.414Zm2.8,1.3a1.5,1.5,0,0,1,1.039.371,1.3,1.3,0,0,1,0,1.9,1.639,1.639,0,0,1-2.082,0,1.294,1.294,0,0,1,0-1.891A1.486,1.486,0,0,1,12.867,12.445Zm10.055-1.3V15H20.18V3.625h4.539a5.287,5.287,0,0,1,2.309.48,3.621,3.621,0,0,1,1.555,1.367,3.734,3.734,0,0,1,.551,2.012,3.291,3.291,0,0,1-1.191,2.66,4.943,4.943,0,0,1-3.27,1Zm0-2.117h1.8a1.7,1.7,0,0,0,1.215-.4A1.48,1.48,0,0,0,26.352,7.5a1.83,1.83,0,0,0-.43-1.273,1.522,1.522,0,0,0-1.172-.484H22.922ZM35.586,8.93l-.867-.062a1.558,1.558,0,0,0-1.594.781V15H30.492V6.547h2.469l.086,1.086A2.039,2.039,0,0,1,34.9,6.391a2.567,2.567,0,0,1,.734.094Zm.336,1.766a4.989,4.989,0,0,1,.492-2.254,3.52,3.52,0,0,1,1.414-1.52,4.259,4.259,0,0,1,2.164-.531,3.887,3.887,0,0,1,2.992,1.176,4.512,4.512,0,0,1,1.094,3.2v.094A4.378,4.378,0,0,1,42.98,14a3.9,3.9,0,0,1-2.973,1.16,3.942,3.942,0,0,1-2.9-1.082,4.232,4.232,0,0,1-1.18-2.934Zm2.633.164a3.145,3.145,0,0,0,.367,1.719,1.223,1.223,0,0,0,1.086.547q1.406,0,1.438-2.164V10.7q0-2.273-1.453-2.273-1.32,0-1.43,1.961Zm10.258,2.266a1.171,1.171,0,0,0,.859-.3,1.1,1.1,0,0,0,.3-.84h2.469a2.922,2.922,0,0,1-1,2.281,3.705,3.705,0,0,1-2.566.891A3.751,3.751,0,0,1,45.969,14a4.556,4.556,0,0,1-1.062-3.2v-.109a5.149,5.149,0,0,1,.473-2.262,3.441,3.441,0,0,1,1.363-1.508,4.065,4.065,0,0,1,2.109-.527,3.658,3.658,0,0,1,2.617.914,3.242,3.242,0,0,1,.969,2.477H49.969a1.445,1.445,0,0,0-.32-1.008,1.106,1.106,0,0,0-.859-.352q-1.023,0-1.2,1.3a9.206,9.206,0,0,0-.055,1.141,3.616,3.616,0,0,0,.3,1.766A1.055,1.055,0,0,0,48.813,13.125Zm8.828,2.031A4.345,4.345,0,0,1,54.492,14a4.006,4.006,0,0,1-1.2-3.02v-.219a5.191,5.191,0,0,1,.48-2.289,3.516,3.516,0,0,1,1.4-1.535,4.233,4.233,0,0,1,2.188-.543A3.659,3.659,0,0,1,60.172,7.5,4.344,4.344,0,0,1,61.2,10.578V11.6H55.969a1.9,1.9,0,0,0,.617,1.117,1.836,1.836,0,0,0,1.234.406,2.366,2.366,0,0,0,1.953-.875l1.2,1.422a3.363,3.363,0,0,1-1.395,1.082A4.713,4.713,0,0,1,57.641,15.156Zm-.3-6.734q-1.156,0-1.375,1.531h2.656v-.2a1.3,1.3,0,0,0-.32-.98A1.275,1.275,0,0,0,57.344,8.422Zm9.344,4.2a.608.608,0,0,0-.352-.539A5.348,5.348,0,0,0,65,11.664a6.092,6.092,0,0,1-1.625-.574,2.722,2.722,0,0,1-.977-.863,2.061,2.061,0,0,1-.336-1.164,2.336,2.336,0,0,1,.961-1.918,3.958,3.958,0,0,1,2.516-.754,4.386,4.386,0,0,1,2.688.758,2.37,2.37,0,0,1,1.016,1.992H66.6q0-1.016-1.07-1.016a1.061,1.061,0,0,0-.7.23.714.714,0,0,0-.281.574.655.655,0,0,0,.344.57,3.248,3.248,0,0,0,1.1.359,9.486,9.486,0,0,1,1.324.336,2.406,2.406,0,0,1,1.906,2.352A2.214,2.214,0,0,1,68.2,14.43a4.505,4.505,0,0,1-2.66.727,4.6,4.6,0,0,1-1.937-.391A3.24,3.24,0,0,1,62.273,13.7a2.406,2.406,0,0,1-.477-1.414h2.461a1.017,1.017,0,0,0,.391.855,1.607,1.607,0,0,0,.961.27,1.264,1.264,0,0,0,.809-.219A.7.7,0,0,0,66.688,12.625Zm3.438-1.93a4.989,4.989,0,0,1,.492-2.254,3.52,3.52,0,0,1,1.414-1.52A4.259,4.259,0,0,1,74.2,6.391a3.887,3.887,0,0,1,2.992,1.176,4.512,4.512,0,0,1,1.094,3.2v.094A4.378,4.378,0,0,1,77.184,14a3.9,3.9,0,0,1-2.973,1.16,3.942,3.942,0,0,1-2.9-1.082,4.232,4.232,0,0,1-1.18-2.934Zm2.633.164a3.145,3.145,0,0,0,.367,1.719,1.223,1.223,0,0,0,1.086.547q1.406,0,1.438-2.164V10.7q0-2.273-1.453-2.273-1.32,0-1.43,1.961Zm11.109,1.766a.608.608,0,0,0-.352-.539,5.348,5.348,0,0,0-1.336-.422,6.092,6.092,0,0,1-1.625-.574,2.722,2.722,0,0,1-.977-.863,2.061,2.061,0,0,1-.336-1.164A2.336,2.336,0,0,1,80.2,7.145a3.958,3.958,0,0,1,2.516-.754,4.386,4.386,0,0,1,2.688.758,2.37,2.37,0,0,1,1.016,1.992H83.781q0-1.016-1.07-1.016a1.061,1.061,0,0,0-.7.23.714.714,0,0,0-.281.574.655.655,0,0,0,.344.57,3.248,3.248,0,0,0,1.1.359A9.486,9.486,0,0,1,84.5,10.2a2.406,2.406,0,0,1,1.906,2.352,2.214,2.214,0,0,1-1.027,1.883,4.505,4.505,0,0,1-2.66.727,4.6,4.6,0,0,1-1.937-.391A3.24,3.24,0,0,1,79.453,13.7a2.406,2.406,0,0,1-.477-1.414h2.461a1.017,1.017,0,0,0,.391.855,1.607,1.607,0,0,0,.961.27A1.264,1.264,0,0,0,83.6,13.2.7.7,0,0,0,83.867,12.625Z" transform="translate(-8593.424 -9283)" fill="#315884"/>
    <path id="Feature_One-4" data-name="Feature One" d="M.859,15V3.625H4.523a5.39,5.39,0,0,1,2.711.684,4.805,4.805,0,0,1,1.879,1.93A5.826,5.826,0,0,1,9.8,9.031v.523a5.86,5.86,0,0,1-.66,2.8,4.826,4.826,0,0,1-1.859,1.938A5.271,5.271,0,0,1,4.6,15ZM3.6,5.742v7.148h.953a2.133,2.133,0,0,0,1.813-.84A4.116,4.116,0,0,0,7,9.555V9.063a4.082,4.082,0,0,0-.633-2.484,2.17,2.17,0,0,0-1.844-.836Zm8.156,6.7a1.5,1.5,0,0,1,1.039.371,1.3,1.3,0,0,1,0,1.9,1.639,1.639,0,0,1-2.082,0,1.294,1.294,0,0,1,0-1.891A1.486,1.486,0,0,1,11.758,12.445Zm10.055-1.3V15H19.07V3.625h4.539a5.287,5.287,0,0,1,2.309.48,3.621,3.621,0,0,1,1.555,1.367,3.734,3.734,0,0,1,.551,2.012,3.291,3.291,0,0,1-1.191,2.66,4.943,4.943,0,0,1-3.27,1Zm0-2.117h1.8a1.7,1.7,0,0,0,1.215-.4A1.48,1.48,0,0,0,25.242,7.5a1.83,1.83,0,0,0-.43-1.273,1.522,1.522,0,0,0-1.172-.484H21.813Zm11.539,6.133A4.345,4.345,0,0,1,30.2,14a4.006,4.006,0,0,1-1.2-3.02v-.219a5.191,5.191,0,0,1,.48-2.289,3.516,3.516,0,0,1,1.4-1.535,4.233,4.233,0,0,1,2.188-.543A3.659,3.659,0,0,1,35.883,7.5a4.344,4.344,0,0,1,1.031,3.082V11.6H31.68a1.9,1.9,0,0,0,.617,1.117,1.836,1.836,0,0,0,1.234.406,2.366,2.366,0,0,0,1.953-.875l1.2,1.422a3.363,3.363,0,0,1-1.395,1.082A4.713,4.713,0,0,1,33.352,15.156Zm-.3-6.734q-1.156,0-1.375,1.531h2.656v-.2a1.3,1.3,0,0,0-.32-.98A1.275,1.275,0,0,0,33.055,8.422Zm10.031.508-.867-.062a1.558,1.558,0,0,0-1.594.781V15H37.992V6.547h2.469l.086,1.086A2.039,2.039,0,0,1,42.4,6.391a2.567,2.567,0,0,1,.734.094Zm5.375,3.7a.608.608,0,0,0-.352-.539,5.348,5.348,0,0,0-1.336-.422,6.092,6.092,0,0,1-1.625-.574,2.722,2.722,0,0,1-.977-.863,2.061,2.061,0,0,1-.336-1.164A2.336,2.336,0,0,1,44.8,7.145a3.958,3.958,0,0,1,2.516-.754A4.386,4.386,0,0,1,50,7.148a2.37,2.37,0,0,1,1.016,1.992H48.375q0-1.016-1.07-1.016a1.061,1.061,0,0,0-.7.23.714.714,0,0,0-.281.574.655.655,0,0,0,.344.57,3.248,3.248,0,0,0,1.1.359,9.485,9.485,0,0,1,1.324.336A2.406,2.406,0,0,1,51,12.547a2.214,2.214,0,0,1-1.027,1.883,4.505,4.505,0,0,1-2.66.727,4.6,4.6,0,0,1-1.937-.391A3.24,3.24,0,0,1,44.047,13.7a2.406,2.406,0,0,1-.477-1.414h2.461a1.017,1.017,0,0,0,.391.855,1.607,1.607,0,0,0,.961.27,1.264,1.264,0,0,0,.809-.219A.7.7,0,0,0,48.461,12.625ZM51.9,10.7a4.989,4.989,0,0,1,.492-2.254A3.52,3.52,0,0,1,53.8,6.922a4.259,4.259,0,0,1,2.164-.531,3.887,3.887,0,0,1,2.992,1.176,4.512,4.512,0,0,1,1.094,3.2v.094A4.378,4.378,0,0,1,58.957,14a3.9,3.9,0,0,1-2.973,1.16,3.942,3.942,0,0,1-2.9-1.082,4.232,4.232,0,0,1-1.18-2.934Zm2.633.164a3.145,3.145,0,0,0,.367,1.719,1.223,1.223,0,0,0,1.086.547q1.406,0,1.438-2.164V10.7q0-2.273-1.453-2.273-1.32,0-1.43,1.961Zm9.1-4.312.086.992a2.867,2.867,0,0,1,2.414-1.148,2.412,2.412,0,0,1,1.973.789,3.757,3.757,0,0,1,.676,2.375V15H66.141V9.664a1.426,1.426,0,0,0-.258-.941,1.193,1.193,0,0,0-.937-.3,1.256,1.256,0,0,0-1.148.609V15H61.164V6.547ZM75,15a2.973,2.973,0,0,1-.25-.758,2.448,2.448,0,0,1-2.031.914,3,3,0,0,1-2.031-.723,2.3,2.3,0,0,1-.836-1.816,2.364,2.364,0,0,1,1.016-2.078,5.174,5.174,0,0,1,2.953-.7h.813V9.388q0-1.17-1.008-1.17a.824.824,0,0,0-.937.926H70.055A2.36,2.36,0,0,1,71.1,7.155a4.383,4.383,0,0,1,2.66-.765,3.843,3.843,0,0,1,2.555.789,2.743,2.743,0,0,1,.961,2.164v3.742a3.832,3.832,0,0,0,.359,1.781V15Zm-1.648-1.719a1.469,1.469,0,0,0,.816-.211,1.322,1.322,0,0,0,.465-.477V11.242h-.766q-1.375,0-1.375,1.234a.754.754,0,0,0,.242.582A.876.876,0,0,0,73.352,13.281ZM81.508,15H78.867V3h2.641Z" transform="translate(-8593.424 -9252)" fill="#315884"/>
    <path id="Feature_One-5" data-name="Feature One" d="M7.914,10.172H3.6v2.719H8.7V15H.859V3.625H8.711V5.742H3.6v2.4H7.914Zm3.406,2.273a1.5,1.5,0,0,1,1.039.371,1.3,1.3,0,0,1,0,1.9,1.639,1.639,0,0,1-2.082,0,1.294,1.294,0,0,1,0-1.891A1.486,1.486,0,0,1,11.32,12.445Zm16.516-1.3a4.154,4.154,0,0,1-.641,2.1,3.866,3.866,0,0,1-1.645,1.41,5.6,5.6,0,0,1-2.418.5A4.467,4.467,0,0,1,19.6,13.7,6.032,6.032,0,0,1,18.313,9.57V9.008a6.885,6.885,0,0,1,.582-2.926A4.41,4.41,0,0,1,20.57,4.145,4.676,4.676,0,0,1,23.1,3.461a4.9,4.9,0,0,1,3.328,1.09,4.306,4.306,0,0,1,1.43,3H25.125A2.037,2.037,0,0,0,24.6,6.063a2.153,2.153,0,0,0-1.5-.453,1.638,1.638,0,0,0-1.5.766,4.921,4.921,0,0,0-.5,2.445v.8a5.445,5.445,0,0,0,.457,2.6,1.672,1.672,0,0,0,1.574.781,2.106,2.106,0,0,0,1.445-.445,1.89,1.89,0,0,0,.531-1.414ZM31.789,15H29.148V3h2.641Zm4.4,0H33.547V6.547h2.641Zm-2.8-10.633a1.175,1.175,0,0,1,.406-.922,1.727,1.727,0,0,1,2.109,0,1.175,1.175,0,0,1,.406.922,1.175,1.175,0,0,1-.406.922,1.727,1.727,0,0,1-2.109,0A1.175,1.175,0,0,1,33.391,4.367ZM41.9,15.156A4.345,4.345,0,0,1,38.75,14a4.006,4.006,0,0,1-1.2-3.02v-.219a5.191,5.191,0,0,1,.48-2.289,3.516,3.516,0,0,1,1.4-1.535,4.233,4.233,0,0,1,2.188-.543A3.659,3.659,0,0,1,44.43,7.5a4.344,4.344,0,0,1,1.031,3.082V11.6H40.227a1.9,1.9,0,0,0,.617,1.117,1.836,1.836,0,0,0,1.234.406,2.366,2.366,0,0,0,1.953-.875l1.2,1.422a3.363,3.363,0,0,1-1.395,1.082A4.713,4.713,0,0,1,41.9,15.156Zm-.3-6.734q-1.156,0-1.375,1.531h2.656v-.2a1.3,1.3,0,0,0-.32-.98A1.275,1.275,0,0,0,41.6,8.422Zm7.336-1.875.086.992a2.867,2.867,0,0,1,2.414-1.148,2.412,2.412,0,0,1,1.973.789,3.757,3.757,0,0,1,.676,2.375V15H51.445V9.664a1.426,1.426,0,0,0-.258-.941,1.193,1.193,0,0,0-.937-.3,1.256,1.256,0,0,0-1.148.609V15H46.469V6.547Zm9.672-2.1v2.1H60V8.375H58.609v3.867a.987.987,0,0,0,.172.664.922.922,0,0,0,.68.188,3.862,3.862,0,0,0,.656-.047V14.93a4.859,4.859,0,0,1-1.484.227,2.758,2.758,0,0,1-2.008-.641,2.626,2.626,0,0,1-.648-1.945v-4.2H54.9V6.547h1.078v-2.1Zm6.516,10.711A4.345,4.345,0,0,1,61.977,14a4.006,4.006,0,0,1-1.2-3.02v-.219a5.191,5.191,0,0,1,.48-2.289,3.516,3.516,0,0,1,1.4-1.535,4.233,4.233,0,0,1,2.188-.543A3.659,3.659,0,0,1,67.656,7.5a4.344,4.344,0,0,1,1.031,3.082V11.6H63.453a1.9,1.9,0,0,0,.617,1.117,1.836,1.836,0,0,0,1.234.406,2.366,2.366,0,0,0,1.953-.875l1.2,1.422a3.363,3.363,0,0,1-1.395,1.082A4.713,4.713,0,0,1,65.125,15.156Zm-.3-6.734q-1.156,0-1.375,1.531h2.656v-.2a1.3,1.3,0,0,0-.32-.98A1.275,1.275,0,0,0,64.828,8.422Zm9.344,4.2a.608.608,0,0,0-.352-.539,5.348,5.348,0,0,0-1.336-.422,6.092,6.092,0,0,1-1.625-.574,2.722,2.722,0,0,1-.977-.863,2.061,2.061,0,0,1-.336-1.164,2.336,2.336,0,0,1,.961-1.918,3.958,3.958,0,0,1,2.516-.754,4.386,4.386,0,0,1,2.688.758,2.37,2.37,0,0,1,1.016,1.992H74.086q0-1.016-1.07-1.016a1.061,1.061,0,0,0-.7.23.714.714,0,0,0-.281.574.655.655,0,0,0,.344.57,3.248,3.248,0,0,0,1.1.359A9.486,9.486,0,0,1,74.8,10.2a2.406,2.406,0,0,1,1.906,2.352,2.214,2.214,0,0,1-1.027,1.883,4.505,4.505,0,0,1-2.66.727,4.6,4.6,0,0,1-1.937-.391A3.24,3.24,0,0,1,69.758,13.7a2.406,2.406,0,0,1-.477-1.414h2.461a1.017,1.017,0,0,0,.391.855,1.607,1.607,0,0,0,.961.27A1.264,1.264,0,0,0,73.9,13.2.7.7,0,0,0,74.172,12.625Z" transform="translate(-8593.424 -9221)" fill="#315884"/>
  </g>
</svg>
