<svg xmlns="http://www.w3.org/2000/svg" xmlns:xlink="http://www.w3.org/1999/xlink" width="388" height="309.488" viewBox="0 0 388 309.488">
  <defs>
    <clipPath id="clip-path">
      <rect id="Rectángulo_378956" data-name="Rectángulo 378956" width="297.093" height="269.483" fill="none"/>
    </clipPath>
    <clipPath id="clip-path-2">
      <rect id="Rectángulo_378922" data-name="Rectángulo 378922" width="297.092" height="269.481" fill="none"/>
    </clipPath>
    <clipPath id="clip-path-3">
      <rect id="Rectángulo_378921" data-name="Rectángulo 378921" width="202.867" height="92.687" fill="none"/>
    </clipPath>
    <clipPath id="clip-path-5">
      <rect id="Rectángulo_378924" data-name="Rectángulo 378924" width="156.366" height="93.929" fill="none"/>
    </clipPath>
    <clipPath id="clip-path-8">
      <rect id="Rectángulo_378926" data-name="Rectángulo 378926" width="79.176" height="54.386" fill="none"/>
    </clipPath>
    <clipPath id="clip-path-10">
      <rect id="Rectángulo_378928" data-name="Rectángulo 378928" width="5.982" height="96.797" fill="none"/>
    </clipPath>
    <clipPath id="clip-path-11">
      <rect id="Rectángulo_378929" data-name="Rectángulo 378929" width="5.307" height="99.589" fill="none"/>
    </clipPath>
    <clipPath id="clip-path-12">
      <rect id="Rectángulo_378930" data-name="Rectángulo 378930" width="5.982" height="96.798" fill="none"/>
    </clipPath>
    <clipPath id="clip-path-16">
      <rect id="Rectángulo_378934" data-name="Rectángulo 378934" width="24.394" height="10.733" fill="none"/>
    </clipPath>
    <clipPath id="clip-path-17">
      <rect id="Rectángulo_378935" data-name="Rectángulo 378935" width="14.397" height="12.399" fill="none"/>
    </clipPath>
    <clipPath id="clip-path-18">
      <rect id="Rectángulo_378936" data-name="Rectángulo 378936" width="1.359" height="1.192" fill="none"/>
    </clipPath>
    <clipPath id="clip-path-19">
      <rect id="Rectángulo_378937" data-name="Rectángulo 378937" width="2.239" height="2.104" fill="none"/>
    </clipPath>
    <clipPath id="clip-path-20">
      <rect id="Rectángulo_378938" data-name="Rectángulo 378938" width="2.021" height="1.903" fill="none"/>
    </clipPath>
    <clipPath id="clip-path-21">
      <rect id="Rectángulo_378939" data-name="Rectángulo 378939" width="0.841" height="0.777" fill="none"/>
    </clipPath>
    <clipPath id="clip-path-22">
      <rect id="Rectángulo_378940" data-name="Rectángulo 378940" width="2.283" height="2.326" fill="none"/>
    </clipPath>
    <clipPath id="clip-path-26">
      <rect id="Rectángulo_378944" data-name="Rectángulo 378944" width="2.239" height="2.103" fill="none"/>
    </clipPath>
    <clipPath id="clip-path-28">
      <rect id="Rectángulo_378946" data-name="Rectángulo 378946" width="0.84" height="0.777" fill="none"/>
    </clipPath>
    <clipPath id="clip-path-29">
      <rect id="Rectángulo_378947" data-name="Rectángulo 378947" width="2.284" height="2.326" fill="none"/>
    </clipPath>
  </defs>
  <g id="img4" transform="translate(-1020 -1710.815)">
    <g id="Image_Place_Holder" data-name="Image Place Holder" transform="translate(1020 1749.534)">
      <rect id="Image_Place_Holder-2" data-name="Image Place Holder" width="388" height="270.77" rx="10" fill="#b9daff"/>
    </g>
    <g id="Grupo_1075208" data-name="Grupo 1075208" transform="translate(1065.453 1710.815)">
      <g id="Grupo_1075207" data-name="Grupo 1075207" clip-path="url(#clip-path)">
        <path id="Trazado_616192" data-name="Trazado 616192" d="M133.816,23.162,11.13,76.659,11.236,94.9,138.81,168.035,137.969,24.95Z" transform="translate(35.704 74.298)" fill="#95564a"/>
        <path id="Trazado_616193" data-name="Trazado 616193" d="M42.115,166.675,164.7,94.937,164.59,76.7,41.274,23.586Z" transform="translate(132.396 75.659)" fill="#61352b"/>
        <path id="Trazado_616194" data-name="Trazado 616194" d="M11.13,90.565,138.7,163.7l122.58-71.738L133.71,18.827Z" transform="translate(35.703 60.393)" fill="#c0d84d"/>
        <path id="Trazado_616195" data-name="Trazado 616195" d="M0,83.112l.105,18.236L127.68,174.487,126.843,31.4l-4.157-1.788Z" transform="translate(0 94.995)" fill="#95564a"/>
        <path id="Trazado_616196" data-name="Trazado 616196" d="M30.986,173.124l122.576-71.738-.105-18.232L30.144,30.039Z" transform="translate(96.696 96.359)" fill="#61352b"/>
        <path id="Trazado_616197" data-name="Trazado 616197" d="M0,97.014l127.571,73.139,122.58-71.734L122.58,25.28Z" transform="translate(0 81.093)" fill="#c0d84d"/>
        <path id="Trazado_616198" data-name="Trazado 616198" d="M59.974,23.837l1.018-.564v-.021Z" transform="translate(192.382 74.588)" fill="#b53e4b"/>
        <path id="Trazado_616199" data-name="Trazado 616199" d="M50.158,153.374l128.328-74.2.173-55.488L22.295,114.213Z" transform="translate(71.516 75.996)" fill="#9a9b9c"/>
        <path id="Trazado_616200" data-name="Trazado 616200" d="M214.877,61.1,172.164,8.722l-.05,0-160.1,92.68,38.917,54.7L214.877,61.2Z" transform="translate(38.522 27.977)" fill="#ed1a3d"/>
        <g id="Grupo_1075110" data-name="Grupo 1075110" transform="translate(0 0.002)">
          <g id="Grupo_1075109" data-name="Grupo 1075109" clip-path="url(#clip-path-2)">
            <g id="Grupo_1075108" data-name="Grupo 1075108" transform="translate(50.532 36.696)" style="mix-blend-mode: multiply;isolation: isolate">
              <g id="Grupo_1075107" data-name="Grupo 1075107">
                <g id="Grupo_1075106" data-name="Grupo 1075106" clip-path="url(#clip-path-3)">
                  <path id="Trazado_616201" data-name="Trazado 616201" d="M214.877,61.1,172.164,8.722l-.05,0-160.1,92.68L170.923,11.423,214.877,61.2Z" transform="translate(-12.01 -8.721)" fill="#cc1735"/>
                </g>
              </g>
            </g>
          </g>
        </g>
        <path id="Trazado_616202" data-name="Trazado 616202" d="M21.258,116.1l4.359,6.126L181.986,31.712v-.051l2.18-1.212,1.018-.589.025-8.668Z" transform="translate(68.192 67.979)" fill="#b5112d"/>
        <path id="Trazado_616203" data-name="Trazado 616203" d="M30.208,94.3v8.651L153.277,31.711v-.05l2.18-1.212,1.018-.589.025-8.668Z" transform="translate(96.901 67.979)" fill="#b5112d"/>
        <path id="Trazado_616204" data-name="Trazado 616204" d="M137.712,11.685,9.384,85.88,20.43,101.4l160.1-92.68Z" transform="translate(30.102 27.98)" fill="#f26d7a"/>
        <path id="Trazado_616205" data-name="Trazado 616205" d="M56.878,38.8,21.259,59.61l4.359,6.126L56.852,47.585Z" transform="translate(68.194 124.471)" fill="#616263"/>
        <g id="Grupo_1075118" data-name="Grupo 1075118" transform="translate(0 0.002)">
          <g id="Grupo_1075117" data-name="Grupo 1075117" clip-path="url(#clip-path-2)">
            <g id="Grupo_1075116" data-name="Grupo 1075116" transform="translate(93.81 99.688)" opacity="0.47">
              <g id="Grupo_1075115" data-name="Grupo 1075115">
                <g id="Grupo_1075114" data-name="Grupo 1075114" clip-path="url(#clip-path-5)">
                  <g id="Grupo_1075113" data-name="Grupo 1075113" style="mix-blend-mode: multiply;isolation: isolate">
                    <g id="Grupo_1075112" data-name="Grupo 1075112">
                      <g id="Grupo_1075111" data-name="Grupo 1075111" clip-path="url(#clip-path-5)">
                        <path id="Trazado_616206" data-name="Trazado 616206" d="M178.659,23.692,22.3,114.213l2.424,3.408L178.642,28.514Z" transform="translate(-22.293 -23.692)" fill="#9a9b9c"/>
                      </g>
                    </g>
                  </g>
                </g>
              </g>
            </g>
          </g>
        </g>
        <path id="Trazado_616207" data-name="Trazado 616207" d="M49.935,28.444,10.272,31.179,10.1,92.415l79.177,45.713.173-61.235Z" transform="translate(32.398 91.242)" fill="#c9c7c2"/>
        <path id="Trazado_616208" data-name="Trazado 616208" d="M52.273,26.355,9.4,29.321l-.025,8.786,3.206-.223,39.662-2.735L91.762,83.6l3.2,3.922.025-8.786Z" transform="translate(30.085 84.539)" fill="#fa5364"/>
        <g id="Grupo_1075123" data-name="Grupo 1075123" transform="translate(0 0.002)">
          <g id="Grupo_1075122" data-name="Grupo 1075122" clip-path="url(#clip-path-2)">
            <g id="Grupo_1075121" data-name="Grupo 1075121" transform="translate(42.672 119.685)" style="mix-blend-mode: multiply;isolation: isolate">
              <g id="Grupo_1075120" data-name="Grupo 1075120">
                <g id="Grupo_1075119" data-name="Grupo 1075119" clip-path="url(#clip-path-8)">
                  <path id="Trazado_616209" data-name="Trazado 616209" d="M49.8,34.4,89.3,82.83l.017-5.937L49.8,28.445,10.141,31.18v5.958Z" transform="translate(-10.143 -28.444)" fill="#bfbfbf"/>
                </g>
              </g>
            </g>
          </g>
        </g>
        <path id="Trazado_616210" data-name="Trazado 616210" d="M47.679,42.371l.05,18.161L31.921,69.658,31.871,51.5Z" transform="translate(102.233 135.915)" fill="#fff"/>
        <path id="Trazado_616211" data-name="Trazado 616211" d="M58.809,35.971l.051,18.161-15.8,9.127L43,45.1Z" transform="translate(137.936 115.387)" fill="#fff"/>
        <path id="Trazado_616212" data-name="Trazado 616212" d="M64.374,32.729l.051,18.161L48.616,60.016l-.051-18.161Z" transform="translate(155.787 104.985)" fill="#fff"/>
        <path id="Trazado_616213" data-name="Trazado 616213" d="M69.939,29.536,69.99,47.7,54.181,56.823l-.05-18.161Z" transform="translate(173.638 94.744)" fill="#fff"/>
        <path id="Trazado_616214" data-name="Trazado 616214" d="M53.244,39.214l.051,18.161L37.486,66.5,37.436,48.34Z" transform="translate(120.084 125.788)" fill="#fff"/>
        <path id="Trazado_616215" data-name="Trazado 616215" d="M46.2,43.2l.046,16.932L31.882,68.429l0,1.233,15.808-9.131-.05-18.161Z" transform="translate(102.269 135.915)" fill="#fff"/>
        <path id="Trazado_616216" data-name="Trazado 616216" d="M57.331,36.8l.046,16.932L43.012,62.03l0,1.229,15.809-9.122-.051-18.165Z" transform="translate(137.972 115.386)" fill="#fff"/>
        <path id="Trazado_616217" data-name="Trazado 616217" d="M62.9,33.562l.051,16.932L48.577,58.787l0,1.229L64.39,50.889l-.05-18.161Z" transform="translate(155.823 104.984)" fill="#fff"/>
        <path id="Trazado_616218" data-name="Trazado 616218" d="M69.955,47.7,69.9,29.536l-1.443.829L68.507,47.3l-14.365,8.3,0,1.229Z" transform="translate(173.675 94.745)" fill="#fff"/>
        <path id="Trazado_616219" data-name="Trazado 616219" d="M51.766,40.047l.046,16.932L37.447,65.272l0,1.233L53.26,57.374l-.051-18.161Z" transform="translate(120.121 125.788)" fill="#fff"/>
        <path id="Trazado_616220" data-name="Trazado 616220" d="M46.236,42.569,31.871,50.862l.046,16.932L46.283,59.5Z" transform="translate(102.234 136.55)" fill="#e2e3e4"/>
        <path id="Trazado_616221" data-name="Trazado 616221" d="M57.366,36.169,43,44.462l.046,16.932L57.413,53.1Z" transform="translate(137.937 116.021)" fill="#e2e3e4"/>
        <path id="Trazado_616222" data-name="Trazado 616222" d="M62.931,32.926,48.566,41.22l.046,16.932,14.369-8.293Z" transform="translate(155.788 105.62)" fill="#e2e3e4"/>
        <path id="Trazado_616223" data-name="Trazado 616223" d="M68.5,29.734,54.131,38.027l.046,16.932,14.365-8.293Z" transform="translate(173.639 95.378)" fill="#e2e3e4"/>
        <path id="Trazado_616224" data-name="Trazado 616224" d="M51.8,39.412,37.436,47.705l.046,16.932,14.365-8.293Z" transform="translate(120.085 126.423)" fill="#e2e3e4"/>
        <path id="Trazado_616225" data-name="Trazado 616225" d="M41.171,78.765l-.08-27.737-24.952-14.5.046,16.94-.046-.029.08,27.737,24.952,14.5-.046-16.945Z" transform="translate(51.769 117.173)" fill="#eedea6"/>
        <path id="Trazado_616226" data-name="Trazado 616226" d="M41.091,51.031l-24.952-14.5.046,16.945-.046-.029.076,27.737L41.121,66.853Z" transform="translate(51.77 117.17)" fill="#b4aa81"/>
        <g id="Grupo_1075206" data-name="Grupo 1075206" transform="translate(0 0.002)">
          <g id="Grupo_1075205" data-name="Grupo 1075205" clip-path="url(#clip-path-2)">
            <path id="Trazado_616227" data-name="Trazado 616227" d="M28.767,28.452s-3.871-.425-2.861,4.957,4.267,9.909,11.8,11.546c9.345,2.032,13.89-7.321,7.679-11.024-4.725-2.811-16.621-5.478-16.621-5.478" transform="translate(82.561 91.24)" fill="#9b0722"/>
            <path id="Trazado_616228" data-name="Trazado 616228" d="M46.264,102.884a8.466,8.466,0,0,0-.093-2.735l-3.059-91.9H29.181L26.1,95.024c-.673,3.455,1.111,7.717,4.83,10.683,4.835,3.854,11.092,4.052,13.974.438a6.561,6.561,0,0,0,1.355-3.232h0Z" transform="translate(83.276 26.469)" fill="#9a9b9c"/>
            <g id="Grupo_1075126" data-name="Grupo 1075126" transform="translate(109.24 34.719)" style="mix-blend-mode: screen;isolation: isolate">
              <g id="Grupo_1075125" data-name="Grupo 1075125">
                <g id="Grupo_1075124" data-name="Grupo 1075124" clip-path="url(#clip-path-10)">
                  <path id="Trazado_616229" data-name="Trazado 616229" d="M29.178,8.252,26.1,95.024h0c-.631,3.211.892,7.107,4.094,10.027l1.746-96.8Z" transform="translate(-25.961 -8.25)" fill="#9a9b9c"/>
                </g>
              </g>
            </g>
            <g id="Grupo_1075129" data-name="Grupo 1075129" transform="translate(124.305 34.719)" style="mix-blend-mode: multiply;isolation: isolate">
              <g id="Grupo_1075128" data-name="Grupo 1075128">
                <g id="Grupo_1075127" data-name="Grupo 1075127" clip-path="url(#clip-path-11)">
                  <path id="Trazado_616230" data-name="Trazado 616230" d="M34.688,100.149l-3.059-91.9H29.542l1.8,99.589a6.536,6.536,0,0,0,2.083-1.7,6.639,6.639,0,0,0,1.355-3.232h0v-.029a8.586,8.586,0,0,0-.093-2.735" transform="translate(-29.542 -8.25)" fill="#9a9b9c"/>
                </g>
              </g>
            </g>
            <path id="Trazado_616231" data-name="Trazado 616231" d="M40.662,9.76c0,1.094-3.118,1.978-6.968,1.978s-6.968-.884-6.968-1.978,3.122-1.978,6.968-1.978,6.968.884,6.968,1.978" transform="translate(85.73 24.961)" fill="#cbccce"/>
            <path id="Trazado_616232" data-name="Trazado 616232" d="M39.468,9.548c0,.938-2.815,1.7-6.291,1.7s-6.291-.757-6.291-1.7,2.819-1.7,6.291-1.7,6.291.762,6.291,1.7" transform="translate(86.247 25.173)" fill="#7e7f80"/>
            <path id="Trazado_616233" data-name="Trazado 616233" d="M36.854,24.4S32.987,23.979,34,29.361s4.271,9.909,11.8,11.546c9.341,2.032,13.886-7.326,7.675-11.024C48.754,27.072,36.854,24.4,36.854,24.4" transform="translate(108.515 78.255)" fill="#9b0722"/>
            <path id="Trazado_616234" data-name="Trazado 616234" d="M54.354,98.835a8.466,8.466,0,0,0-.093-2.735L51.207,4.2H37.271L34.19,90.975h0c-.682,3.455,1.107,7.717,4.826,10.679,4.835,3.859,11.092,4.056,13.974.442a6.561,6.561,0,0,0,1.355-3.232h0Z" transform="translate(109.231 13.48)" fill="#9a9b9c"/>
            <g id="Grupo_1075132" data-name="Grupo 1075132" transform="translate(143.284 17.683)" style="mix-blend-mode: screen;isolation: isolate">
              <g id="Grupo_1075131" data-name="Grupo 1075131">
                <g id="Grupo_1075130" data-name="Grupo 1075130" clip-path="url(#clip-path-12)">
                  <path id="Trazado_616235" data-name="Trazado 616235" d="M37.269,4.2l-3.08,86.772h0c-.631,3.215.892,7.107,4.094,10.027L40.033,4.2Z" transform="translate(-34.052 -4.202)" fill="#9a9b9c"/>
                </g>
              </g>
            </g>
            <g id="Grupo_1075135" data-name="Grupo 1075135" transform="translate(158.349 17.683)" style="mix-blend-mode: multiply;isolation: isolate">
              <g id="Grupo_1075134" data-name="Grupo 1075134">
                <g id="Grupo_1075133" data-name="Grupo 1075133" clip-path="url(#clip-path-11)">
                  <path id="Trazado_616236" data-name="Trazado 616236" d="M42.778,96.1,39.719,4.2H37.632l1.8,99.589a6.551,6.551,0,0,0,2.087-1.7,6.633,6.633,0,0,0,1.351-3.232h0v-.029a8.586,8.586,0,0,0-.093-2.735" transform="translate(-37.635 -4.202)" fill="#9a9b9c"/>
                </g>
              </g>
            </g>
            <path id="Trazado_616237" data-name="Trazado 616237" d="M48.753,5.711c0,1.094-3.118,1.978-6.968,1.978S34.817,6.8,34.817,5.711s3.122-1.978,6.968-1.978,6.968.884,6.968,1.978" transform="translate(111.684 11.973)" fill="#cbccce"/>
            <path id="Trazado_616238" data-name="Trazado 616238" d="M47.559,5.5c0,.938-2.815,1.7-6.291,1.7s-6.291-.762-6.291-1.7S37.8,3.8,41.269,3.8s6.291.762,6.291,1.7" transform="translate(112.201 12.185)" fill="#7e7f80"/>
            <path id="Trazado_616239" data-name="Trazado 616239" d="M44.781,20.671s-3.867-.425-2.857,4.957,4.271,9.909,11.8,11.546c9.341,2.032,13.886-7.326,7.675-11.024-4.721-2.811-16.621-5.478-16.621-5.478" transform="translate(133.943 66.28)" fill="#9b0722"/>
            <path id="Trazado_616240" data-name="Trazado 616240" d="M62.283,95.1a8.466,8.466,0,0,0-.093-2.735L59.131.47H45.2L42.12,87.242c-.677,3.455,1.111,7.717,4.83,10.683,4.835,3.854,11.092,4.052,13.974.438a6.561,6.561,0,0,0,1.355-3.232h0Z" transform="translate(134.656 1.506)" fill="#9a9b9c"/>
            <g id="Grupo_1075138" data-name="Grupo 1075138" transform="translate(176.638 1.976)" style="mix-blend-mode: screen;isolation: isolate">
              <g id="Grupo_1075137" data-name="Grupo 1075137">
                <g id="Grupo_1075136" data-name="Grupo 1075136" clip-path="url(#clip-path-12)">
                  <path id="Trazado_616241" data-name="Trazado 616241" d="M45.2.47l-3.08,86.772h0c-.631,3.215.892,7.107,4.094,10.027L47.96.47Z" transform="translate(-41.978 -0.47)" fill="#9a9b9c"/>
                </g>
              </g>
            </g>
            <g id="Grupo_1075141" data-name="Grupo 1075141" transform="translate(191.703 1.976)" style="mix-blend-mode: multiply;isolation: isolate">
              <g id="Grupo_1075140" data-name="Grupo 1075140">
                <g id="Grupo_1075139" data-name="Grupo 1075139" clip-path="url(#clip-path-11)">
                  <path id="Trazado_616242" data-name="Trazado 616242" d="M50.705,92.367,47.646.47H45.559l1.8,99.589a6.377,6.377,0,0,0,3.438-4.927h0V95.1a8.586,8.586,0,0,0-.093-2.735" transform="translate(-45.561 -0.47)" fill="#9a9b9c"/>
                </g>
              </g>
            </g>
            <path id="Trazado_616243" data-name="Trazado 616243" d="M56.683,1.978c0,1.094-3.122,1.978-6.968,1.978s-6.972-.884-6.972-1.978S45.869,0,49.715,0s6.968.884,6.968,1.978" transform="translate(137.109 -0.002)" fill="#cbccce"/>
            <path id="Trazado_616244" data-name="Trazado 616244" d="M55.486,1.766c0,.938-2.815,1.7-6.291,1.7S42.9,2.7,42.9,1.766,45.724.066,49.2.066s6.291.762,6.291,1.7" transform="translate(137.628 0.21)" fill="#7e7f80"/>
            <g id="Grupo_1075144" data-name="Grupo 1075144" transform="translate(123.354 224.404)" style="mix-blend-mode: multiply;isolation: isolate">
              <g id="Grupo_1075143" data-name="Grupo 1075143">
                <g id="Grupo_1075142" data-name="Grupo 1075142" clip-path="url(#clip-path-16)">
                  <path id="Trazado_616245" data-name="Trazado 616245" d="M53.708,58.7c0,2.962-5.462,5.365-12.2,5.365s-12.194-2.4-12.194-5.365,5.457-5.365,12.194-5.365,12.2,2.4,12.2,5.365" transform="translate(-29.316 -53.33)" fill="#c0d84d"/>
                </g>
              </g>
            </g>
            <path id="Trazado_616246" data-name="Trazado 616246" d="M33.573,54.709l.025-.029.017-.025a.173.173,0,0,0-.042.055" transform="translate(107.694 175.315)" fill="#619843"/>
            <path id="Trazado_616247" data-name="Trazado 616247" d="M51.942,60.045a3.876,3.876,0,0,0-1.107-1.9c-.139-.143-.29-.286-.442-.421a2.323,2.323,0,0,0,.059-1.292,2.071,2.071,0,0,0-1.612-1.582,2.9,2.9,0,0,0-.168-.572c-.526-1.275-2.26-1.818-3.787-1.851a2.518,2.518,0,0,0-2.714-1.548,4.763,4.763,0,0,0-2.066.863c-.846-1.187-2.819-.5-3.7.295a5.263,5.263,0,0,0-.879,1.14c-.042-.013-.08-.042-.122-.055a3.358,3.358,0,0,0-1.982.282,3.487,3.487,0,0,0-1.6,1.212,2.372,2.372,0,0,0-.206,2.209,4.164,4.164,0,0,0-1.877,1.814A3.1,3.1,0,0,0,29.6,60.9a4.575,4.575,0,0,0,1.09,2.007c.067.067.151.109.223.168a3.3,3.3,0,0,0-.522,1.115,4.89,4.89,0,0,0,.673,3.45,4,4,0,0,0,2.377,1.872,5.125,5.125,0,0,0,2.945.029,1.512,1.512,0,0,0,.248.244,2.047,2.047,0,0,0,2.638-.311,2.291,2.291,0,0,0,.16.194,2.934,2.934,0,0,0,2.159.614,5.5,5.5,0,0,0,3.808-1.8,2.467,2.467,0,0,0,.581.038A2.9,2.9,0,0,0,48,67.518a2.767,2.767,0,0,0,.522-.938,3.407,3.407,0,0,0,.547-.029,2.548,2.548,0,0,0,1.452-.677,2.287,2.287,0,0,0,.661-2.032,2.13,2.13,0,0,0-.13-.412,3.539,3.539,0,0,0,.48-.677,4.162,4.162,0,0,0,.412-2.706" transform="translate(94.479 163.153)" fill="#619843"/>
            <path id="Trazado_616248" data-name="Trazado 616248" d="M32.781,53.728l.017-.021.008-.013-.025.034" transform="translate(105.154 172.236)" fill="#95b33e"/>
            <g id="Grupo_1075147" data-name="Grupo 1075147" transform="translate(126.872 215.753)" opacity="0.29" style="mix-blend-mode: screen;isolation: isolate">
              <g id="Grupo_1075146" data-name="Grupo 1075146">
                <g id="Grupo_1075145" data-name="Grupo 1075145" clip-path="url(#clip-path-17)">
                  <path id="Trazado_616249" data-name="Trazado 616249" d="M44.5,57.133a2.455,2.455,0,0,0-.707-1.212c-.088-.093-.185-.181-.282-.269a1.483,1.483,0,0,0,.038-.825,1.317,1.317,0,0,0-1.031-1.006,1.474,1.474,0,0,0-.105-.366A2.6,2.6,0,0,0,40,52.273a1.607,1.607,0,0,0-1.734-.985,2.993,2.993,0,0,0-1.317.547c-.539-.757-1.8-.324-2.361.185a3.4,3.4,0,0,0-.56.732.269.269,0,0,0-.08-.034,2.113,2.113,0,0,0-1.262.177,2.248,2.248,0,0,0-1.022.774,1.513,1.513,0,0,0-.13,1.41,2.659,2.659,0,0,0-1.2,1.157,1.987,1.987,0,0,0-.093,1.443,2.915,2.915,0,0,0,.7,1.279,1.173,1.173,0,0,0,.143.109,2.075,2.075,0,0,0-.332.711,3.117,3.117,0,0,0,.429,2.2,2.559,2.559,0,0,0,1.515,1.2,3.255,3.255,0,0,0,1.881.021,1.813,1.813,0,0,0,.156.156,1.312,1.312,0,0,0,1.687-.2,1.472,1.472,0,0,0,.1.126,1.875,1.875,0,0,0,1.376.391,3.514,3.514,0,0,0,2.432-1.149,1.567,1.567,0,0,0,.37.025,1.846,1.846,0,0,0,1.288-.644,1.682,1.682,0,0,0,.332-.6,2.394,2.394,0,0,0,.349-.017,1.65,1.65,0,0,0,.926-.433,1.457,1.457,0,0,0,.421-1.3,1.165,1.165,0,0,0-.08-.261,2.192,2.192,0,0,0,.307-.433,2.665,2.665,0,0,0,.261-1.725" transform="translate(-30.154 -51.274)" fill="#619843"/>
                </g>
              </g>
            </g>
            <path id="Trazado_616250" data-name="Trazado 616250" d="M30.818,54.8" transform="translate(98.856 175.789)" fill="#061915"/>
            <g id="Grupo_1075150" data-name="Grupo 1075150" transform="translate(128.314 230.167)" style="mix-blend-mode: screen;isolation: isolate">
              <g id="Grupo_1075149" data-name="Grupo 1075149">
                <g id="Grupo_1075148" data-name="Grupo 1075148" clip-path="url(#clip-path-18)">
                  <path id="Trazado_616251" data-name="Trazado 616251" d="M31.854,55.122a.3.3,0,0,0,0-.067.246.246,0,0,0-.008-.063v0l-.046-.105-.008,0a.278.278,0,0,0-.093-.093c-.017-.013-.093-.042-.109-.05l0,0-.013,0a.975.975,0,0,0-.189-.025h-.046l-.029,0h-.017l-.151.013c-.055.017-.105.034-.16.055a.637.637,0,0,0-.219.143.579.579,0,0,0-.164.185l-.067.135a.455.455,0,0,0-.017.269.434.434,0,0,0,.173.248.453.453,0,0,0,.2.059l.021.021.008-.008a.224.224,0,0,0,.084.055.343.343,0,0,0,.173.008.4.4,0,0,0,.181-.046l.118-.067a.611.611,0,0,0,.185-.189l.05-.105.029-.042.025-.038a.613.613,0,0,0,.1-.274L31.846,55Z" transform="translate(-30.494 -54.702)" fill="#619843"/>
                </g>
              </g>
            </g>
            <path id="Trazado_616252" data-name="Trazado 616252" d="M30.812,54.924a.554.554,0,0,0,.025-.122l-.025.122" transform="translate(98.837 175.789)" fill="#061915"/>
            <g id="Grupo_1075153" data-name="Grupo 1075153" transform="translate(135.135 229.643)" style="mix-blend-mode: screen;isolation: isolate">
              <g id="Grupo_1075152" data-name="Grupo 1075152">
                <g id="Grupo_1075151" data-name="Grupo 1075151" clip-path="url(#clip-path-19)">
                  <path id="Trazado_616253" data-name="Trazado 616253" d="M34.338,55.338a.468.468,0,0,0-.034-.126,1.074,1.074,0,0,0-.122-.24l-.038-.05c-.05-.05-.1-.1-.151-.143a.4.4,0,0,0-.105-.067.753.753,0,0,0-.248-.1,1.2,1.2,0,0,0-.215-.034,2.147,2.147,0,0,0-.231.021l-.055.013a1.964,1.964,0,0,0-.206.067l-.029.013a1.342,1.342,0,0,0-.425.307,1.489,1.489,0,0,0-.273.429.716.716,0,0,0-.042.135,1.011,1.011,0,0,0-.046.278.744.744,0,0,0,.126.459l.021.029a1.394,1.394,0,0,0,.139.135l.029.021c.059.029.118.055.181.08a.539.539,0,0,0,.164.029.829.829,0,0,0,.143.063,1.656,1.656,0,0,0,.2.025,1.229,1.229,0,0,0,.215-.017l.046-.008c.067-.017.135-.042.2-.063l.029-.013.021-.013a1.664,1.664,0,0,0,.189-.105l.021-.017c.059-.042.118-.1.173-.143a1.067,1.067,0,0,0,.181-.236,1.16,1.16,0,0,0,.151-.433.988.988,0,0,0-.008-.295" transform="translate(-32.115 -54.579)" fill="#619843"/>
                </g>
              </g>
            </g>
            <g id="Grupo_1075156" data-name="Grupo 1075156" transform="translate(142.092 222.98)" style="mix-blend-mode: screen;isolation: isolate">
              <g id="Grupo_1075155" data-name="Grupo 1075155">
                <g id="Grupo_1075154" data-name="Grupo 1075154" clip-path="url(#clip-path-20)">
                  <path id="Trazado_616254" data-name="Trazado 616254" d="M35.767,53.572a.781.781,0,0,0-.269-.412.815.815,0,0,0-.48-.164.76.76,0,0,0-.274.029,1.241,1.241,0,0,0-.459.215c-.029.021-.042.05-.072.072l.034-.025-.038.038-.017.013a1.28,1.28,0,0,0-.164.173l-.008.008c-.029.038-.072.059-.093.1a.982.982,0,0,0-.143.686.727.727,0,0,0,.1.227.588.588,0,0,0,.362.244l.013.013a.729.729,0,0,0,.362.109h.021a.925.925,0,0,0,.185-.021.944.944,0,0,0,.219-.067,1.334,1.334,0,0,0,.412-.29,1.311,1.311,0,0,0,.274-.429.839.839,0,0,0,.038-.518" transform="translate(-33.769 -52.993)" fill="#619843"/>
                </g>
              </g>
            </g>
            <path id="Trazado_616255" data-name="Trazado 616255" d="M33.862,53.115l.034-.025.021-.021-.055.046" transform="translate(108.621 170.23)" fill="#061915"/>
            <g id="Grupo_1075159" data-name="Grupo 1075159" transform="translate(143.502 227.329)" style="mix-blend-mode: screen;isolation: isolate">
              <g id="Grupo_1075158" data-name="Grupo 1075158">
                <g id="Grupo_1075157" data-name="Grupo 1075157" clip-path="url(#clip-path-21)">
                  <path id="Trazado_616256" data-name="Trazado 616256" d="M34.657,54.027c-.438,0-.846.778-.265.778.438,0,.846-.778.265-.778" transform="translate(-34.103 -54.026)" fill="#619843"/>
                </g>
              </g>
            </g>
            <g id="Grupo_1075162" data-name="Grupo 1075162" transform="translate(134.693 217.084)" style="mix-blend-mode: screen;isolation: isolate">
              <g id="Grupo_1075161" data-name="Grupo 1075161">
                <g id="Grupo_1075160" data-name="Grupo 1075160" clip-path="url(#clip-path-22)">
                  <path id="Trazado_616257" data-name="Trazado 616257" d="M34.26,52.31a1.606,1.606,0,0,0-.1-.231.386.386,0,0,0-.055-.088,1.172,1.172,0,0,0-.173-.181.654.654,0,0,0-.084-.067.987.987,0,0,0-.484-.147.959.959,0,0,0-.269.021,1.1,1.1,0,0,0-.286.1,1.467,1.467,0,0,0-.3.194l-.042.034c-.025.025-.05.038-.084.067s-.076.1-.114.143l-.017.021,0,.008a.471.471,0,0,0-.072.088,1.216,1.216,0,0,0-.109.223,1.483,1.483,0,0,0-.05.219.778.778,0,0,0,.013.261.711.711,0,0,0,.1.24.639.639,0,0,0,.139.143l.021.055a1.185,1.185,0,0,0,.088.16,1.226,1.226,0,0,0-.059-.13.584.584,0,0,0,.084.151,1.062,1.062,0,0,0,.215.2.864.864,0,0,0,.429.126A1.089,1.089,0,0,0,33.7,53.7a1.274,1.274,0,0,0,.391-.429,1.7,1.7,0,0,0,.126-.282,2.108,2.108,0,0,0,.067-.324l0-.093a1.11,1.11,0,0,0-.034-.261" transform="translate(-32.012 -51.59)" fill="#619843"/>
                </g>
              </g>
            </g>
            <path id="Trazado_616258" data-name="Trazado 616258" d="M32.2,52.165a.74.74,0,0,1-.084-.084l-.017-.017.1.1" transform="translate(102.969 167.006)" fill="#061915"/>
            <g id="Grupo_1075165" data-name="Grupo 1075165" transform="translate(186.373 189.169)" style="mix-blend-mode: multiply;isolation: isolate">
              <g id="Grupo_1075164" data-name="Grupo 1075164">
                <g id="Grupo_1075163" data-name="Grupo 1075163" clip-path="url(#clip-path-16)">
                  <path id="Trazado_616259" data-name="Trazado 616259" d="M68.685,50.323c0,2.962-5.462,5.365-12.2,5.365s-12.194-2.4-12.194-5.365,5.457-5.365,12.194-5.365,12.2,2.4,12.2,5.365" transform="translate(-44.292 -44.957)" fill="#c0d84d"/>
                </g>
              </g>
            </g>
            <path id="Trazado_616260" data-name="Trazado 616260" d="M48.55,46.335l.025-.034.017-.021a.174.174,0,0,0-.042.055" transform="translate(155.736 148.453)" fill="#619843"/>
            <path id="Trazado_616261" data-name="Trazado 616261" d="M66.918,51.669a3.876,3.876,0,0,0-1.107-1.9c-.139-.143-.29-.286-.442-.421a2.321,2.321,0,0,0,.059-1.292,2.071,2.071,0,0,0-1.612-1.582,2.9,2.9,0,0,0-.168-.572c-.526-1.275-2.26-1.818-3.787-1.851a2.51,2.51,0,0,0-2.714-1.544,4.7,4.7,0,0,0-2.066.858c-.846-1.187-2.815-.5-3.7.295A5.37,5.37,0,0,0,50.5,44.8c-.042-.013-.08-.042-.122-.055a3.34,3.34,0,0,0-1.978.282,3.528,3.528,0,0,0-1.6,1.212A2.373,2.373,0,0,0,46.6,48.45a4.164,4.164,0,0,0-1.877,1.814,3.1,3.1,0,0,0-.143,2.268,4.583,4.583,0,0,0,1.09,2c.067.067.151.109.223.168a3.336,3.336,0,0,0-.522,1.115,4.89,4.89,0,0,0,.673,3.45,4,4,0,0,0,2.377,1.872,5.125,5.125,0,0,0,2.945.029,1.512,1.512,0,0,0,.248.244,2.041,2.041,0,0,0,2.638-.311,2.3,2.3,0,0,0,.16.194,2.934,2.934,0,0,0,2.159.614,5.5,5.5,0,0,0,3.808-1.8,2.468,2.468,0,0,0,.581.038,2.9,2.9,0,0,0,2.02-1.01A2.727,2.727,0,0,0,63.5,58.2a3.966,3.966,0,0,0,.547-.025A2.581,2.581,0,0,0,65.5,57.5a2.287,2.287,0,0,0,.661-2.032,2.13,2.13,0,0,0-.13-.412,3.539,3.539,0,0,0,.48-.677,4.161,4.161,0,0,0,.412-2.706" transform="translate(142.518 136.294)" fill="#619843"/>
            <path id="Trazado_616262" data-name="Trazado 616262" d="M47.758,45.354l.017-.021.008-.013-.025.034" transform="translate(153.196 145.376)" fill="#95b33e"/>
            <g id="Grupo_1075168" data-name="Grupo 1075168" transform="translate(189.89 180.518)" opacity="0.29" style="mix-blend-mode: screen;isolation: isolate">
              <g id="Grupo_1075167" data-name="Grupo 1075167">
                <g id="Grupo_1075166" data-name="Grupo 1075166" clip-path="url(#clip-path-17)">
                  <path id="Trazado_616263" data-name="Trazado 616263" d="M59.478,48.759a2.48,2.48,0,0,0-.7-1.212c-.093-.093-.189-.181-.286-.269a1.481,1.481,0,0,0,.038-.825,1.328,1.328,0,0,0-1.027-1.01,1.717,1.717,0,0,0-.109-.362A2.6,2.6,0,0,0,54.976,43.9a1.607,1.607,0,0,0-1.734-.985,2.993,2.993,0,0,0-1.317.547c-.539-.757-1.8-.324-2.356.185a3.276,3.276,0,0,0-.564.732.269.269,0,0,0-.08-.034,2.113,2.113,0,0,0-1.262.177,2.248,2.248,0,0,0-1.022.774,1.513,1.513,0,0,0-.13,1.41,2.68,2.68,0,0,0-1.2,1.157,1.987,1.987,0,0,0-.088,1.443,2.907,2.907,0,0,0,.694,1.279,1.174,1.174,0,0,0,.143.109,2.074,2.074,0,0,0-.332.711,3.117,3.117,0,0,0,.429,2.2,2.559,2.559,0,0,0,1.515,1.2,3.255,3.255,0,0,0,1.881.021,1.4,1.4,0,0,0,.16.156,1.307,1.307,0,0,0,1.683-.2,1.471,1.471,0,0,0,.1.126,1.875,1.875,0,0,0,1.376.391A3.514,3.514,0,0,0,55.3,54.145a1.568,1.568,0,0,0,.37.025,1.846,1.846,0,0,0,1.288-.644,1.719,1.719,0,0,0,.332-.6,2.4,2.4,0,0,0,.349-.017,1.675,1.675,0,0,0,.93-.433,1.48,1.48,0,0,0,.421-1.3,1.451,1.451,0,0,0-.084-.261,2.193,2.193,0,0,0,.307-.433,2.665,2.665,0,0,0,.261-1.725" transform="translate(-45.128 -42.901)" fill="#619843"/>
                </g>
              </g>
            </g>
            <path id="Trazado_616264" data-name="Trazado 616264" d="M45.794,46.428" transform="translate(146.896 148.928)" fill="#061915"/>
            <g id="Grupo_1075171" data-name="Grupo 1075171" transform="translate(191.333 194.933)" style="mix-blend-mode: screen;isolation: isolate">
              <g id="Grupo_1075170" data-name="Grupo 1075170">
                <g id="Grupo_1075169" data-name="Grupo 1075169" clip-path="url(#clip-path-18)">
                  <path id="Trazado_616265" data-name="Trazado 616265" d="M46.829,46.748a.32.32,0,0,0,0-.067l0-.063-.05-.109,0,0a.482.482,0,0,0-.093-.093c-.021-.013-.1-.042-.114-.051l0,0h-.013a.984.984,0,0,0-.189-.029h-.046l-.029,0h-.013l-.147.013c-.059.017-.114.034-.168.055a.727.727,0,0,0-.219.143.627.627,0,0,0-.164.185l-.067.139a.474.474,0,0,0-.017.265.434.434,0,0,0,.173.248.456.456,0,0,0,.2.063l.021.017.008-.008a.225.225,0,0,0,.084.055.36.36,0,0,0,.177.008.4.4,0,0,0,.177-.046c.038-.021.08-.042.118-.067a.568.568,0,0,0,.185-.189l.051-.105.029-.042.025-.038a.612.612,0,0,0,.1-.273l-.008-.122Z" transform="translate(-45.473 -46.329)" fill="#619843"/>
                </g>
              </g>
            </g>
            <path id="Trazado_616266" data-name="Trazado 616266" d="M45.788,46.55a.555.555,0,0,0,.025-.122l-.025.122" transform="translate(146.876 148.928)" fill="#061915"/>
            <g id="Grupo_1075174" data-name="Grupo 1075174" transform="translate(198.153 194.408)" style="mix-blend-mode: screen;isolation: isolate">
              <g id="Grupo_1075173" data-name="Grupo 1075173">
                <g id="Grupo_1075172" data-name="Grupo 1075172" clip-path="url(#clip-path-26)">
                  <path id="Trazado_616267" data-name="Trazado 616267" d="M49.315,46.962a.469.469,0,0,0-.034-.126,1.2,1.2,0,0,0-.122-.244l-.038-.046c-.051-.05-.1-.1-.151-.147a.9.9,0,0,0-.105-.067.847.847,0,0,0-.248-.1A.911.911,0,0,0,48.4,46.2a1.431,1.431,0,0,0-.231.017l-.055.013a1.96,1.96,0,0,0-.206.067l-.029.013a1.342,1.342,0,0,0-.425.307,1.489,1.489,0,0,0-.274.429.715.715,0,0,0-.042.135,1.009,1.009,0,0,0-.046.278.744.744,0,0,0,.126.459l.021.029a1.392,1.392,0,0,0,.139.135l.029.021c.059.029.118.055.177.08a.59.59,0,0,0,.168.029.827.827,0,0,0,.143.063,1.651,1.651,0,0,0,.2.025,1.232,1.232,0,0,0,.215-.017l.046-.008c.067-.017.135-.042.2-.063l.029-.013.021-.013a1.666,1.666,0,0,0,.189-.105l.021-.017c.059-.042.118-.1.173-.143a1.066,1.066,0,0,0,.181-.236,1.239,1.239,0,0,0,.151-.433.989.989,0,0,0-.008-.295" transform="translate(-47.091 -46.2)" fill="#619843"/>
                </g>
              </g>
            </g>
            <g id="Grupo_1075177" data-name="Grupo 1075177" transform="translate(205.111 187.746)" style="mix-blend-mode: screen;isolation: isolate">
              <g id="Grupo_1075176" data-name="Grupo 1075176">
                <g id="Grupo_1075175" data-name="Grupo 1075175" clip-path="url(#clip-path-20)">
                  <path id="Trazado_616268" data-name="Trazado 616268" d="M50.744,45.2A.778.778,0,0,0,50,44.622a.76.76,0,0,0-.273.029,1.311,1.311,0,0,0-.459.215c-.029.021-.046.05-.072.072l.034-.025-.038.038-.017.013a1.281,1.281,0,0,0-.164.173L49,45.144c-.029.038-.072.059-.093.1a.982.982,0,0,0-.143.686.641.641,0,0,0,.1.227.577.577,0,0,0,.362.244l.013.013a.729.729,0,0,0,.362.109h.021a1.378,1.378,0,0,0,.185-.017,1.213,1.213,0,0,0,.219-.072,1.334,1.334,0,0,0,.412-.29,1.311,1.311,0,0,0,.274-.429.839.839,0,0,0,.038-.518" transform="translate(-48.745 -44.62)" fill="#619843"/>
                </g>
              </g>
            </g>
            <path id="Trazado_616269" data-name="Trazado 616269" d="M48.839,44.741l.034-.025.021-.021-.055.046" transform="translate(156.663 143.369)" fill="#061915"/>
            <g id="Grupo_1075180" data-name="Grupo 1075180" transform="translate(206.521 192.095)" style="mix-blend-mode: screen;isolation: isolate">
              <g id="Grupo_1075179" data-name="Grupo 1075179">
                <g id="Grupo_1075178" data-name="Grupo 1075178" clip-path="url(#clip-path-28)">
                  <path id="Trazado_616270" data-name="Trazado 616270" d="M49.634,45.653c-.438,0-.846.778-.265.778.438,0,.846-.778.265-.778" transform="translate(-49.079 -45.653)" fill="#619843"/>
                </g>
              </g>
            </g>
            <g id="Grupo_1075183" data-name="Grupo 1075183" transform="translate(197.712 181.85)" style="mix-blend-mode: screen;isolation: isolate">
              <g id="Grupo_1075182" data-name="Grupo 1075182">
                <g id="Grupo_1075181" data-name="Grupo 1075181" clip-path="url(#clip-path-29)">
                  <path id="Trazado_616271" data-name="Trazado 616271" d="M49.237,43.936a1.608,1.608,0,0,0-.1-.231.387.387,0,0,0-.055-.088,1.172,1.172,0,0,0-.173-.181.654.654,0,0,0-.084-.067.987.987,0,0,0-.484-.147.959.959,0,0,0-.269.021,1.1,1.1,0,0,0-.286.1,1.6,1.6,0,0,0-.3.194l-.042.034c-.025.025-.051.038-.08.067a1.251,1.251,0,0,0-.118.143l-.017.021,0,.008a.658.658,0,0,0-.072.088,1.215,1.215,0,0,0-.109.223,1.483,1.483,0,0,0-.051.219.778.778,0,0,0,.013.261.748.748,0,0,0,.1.24.638.638,0,0,0,.139.143l.021.055a1.182,1.182,0,0,0,.088.16l-.059-.13a.584.584,0,0,0,.084.151,1.062,1.062,0,0,0,.215.2.864.864,0,0,0,.429.126,1.114,1.114,0,0,0,.656-.215,1.288,1.288,0,0,0,.391-.433,1.7,1.7,0,0,0,.126-.282,2.108,2.108,0,0,0,.067-.324l0-.093a1.109,1.109,0,0,0-.034-.261" transform="translate(-46.988 -43.218)" fill="#619843"/>
                </g>
              </g>
            </g>
            <path id="Trazado_616272" data-name="Trazado 616272" d="M47.178,43.791a.738.738,0,0,1-.084-.084l-.017-.017.1.1" transform="translate(151.011 140.145)" fill="#061915"/>
            <g id="Grupo_1075186" data-name="Grupo 1075186" transform="translate(237.956 159.161)" style="mix-blend-mode: multiply;isolation: isolate">
              <g id="Grupo_1075185" data-name="Grupo 1075185">
                <g id="Grupo_1075184" data-name="Grupo 1075184" clip-path="url(#clip-path-16)">
                  <path id="Trazado_616273" data-name="Trazado 616273" d="M80.944,43.192c0,2.962-5.462,5.365-12.2,5.365s-12.194-2.4-12.194-5.365,5.457-5.365,12.194-5.365,12.2,2.4,12.2,5.365" transform="translate(-56.552 -37.823)" fill="#c0d84d"/>
                </g>
              </g>
            </g>
            <path id="Trazado_616274" data-name="Trazado 616274" d="M60.809,39.2l.025-.034.017-.021a.174.174,0,0,0-.042.055" transform="translate(195.06 125.575)" fill="#619843"/>
            <path id="Trazado_616275" data-name="Trazado 616275" d="M79.179,44.538a3.876,3.876,0,0,0-1.107-1.9c-.143-.143-.295-.286-.442-.421a2.321,2.321,0,0,0,.059-1.292,2.071,2.071,0,0,0-1.612-1.582,2.9,2.9,0,0,0-.168-.572c-.526-1.275-2.26-1.818-3.791-1.851a2.5,2.5,0,0,0-2.71-1.544,4.7,4.7,0,0,0-2.066.858c-.846-1.187-2.823-.5-3.7.295a5.509,5.509,0,0,0-.879,1.14c-.038-.013-.076-.042-.118-.055a3.376,3.376,0,0,0-1.986.282,3.549,3.549,0,0,0-1.595,1.212,2.385,2.385,0,0,0-.21,2.209,4.206,4.206,0,0,0-1.877,1.814,3.138,3.138,0,0,0-.143,2.264A4.583,4.583,0,0,0,57.926,47.4c.067.067.151.109.219.168a3.419,3.419,0,0,0-.522,1.115,4.871,4.871,0,0,0,.677,3.45,3.985,3.985,0,0,0,2.377,1.872,5.125,5.125,0,0,0,2.945.029,1.363,1.363,0,0,0,.248.244,2.04,2.04,0,0,0,2.634-.311,2.353,2.353,0,0,0,.164.194,2.935,2.935,0,0,0,2.159.614,5.5,5.5,0,0,0,3.808-1.8,2.453,2.453,0,0,0,.581.038,2.837,2.837,0,0,0,2.541-1.948,4,4,0,0,0,.547-.025,2.556,2.556,0,0,0,1.447-.682,2.278,2.278,0,0,0,.665-2.032,2.144,2.144,0,0,0-.135-.412,3.386,3.386,0,0,0,.484-.677,4.215,4.215,0,0,0,.412-2.706" transform="translate(181.844 113.42)" fill="#619843"/>
            <path id="Trazado_616276" data-name="Trazado 616276" d="M60.017,38.223l.017-.021.008-.013-.025.034" transform="translate(192.52 122.499)" fill="#95b33e"/>
            <g id="Grupo_1075189" data-name="Grupo 1075189" transform="translate(241.473 150.509)" opacity="0.29" style="mix-blend-mode: screen;isolation: isolate">
              <g id="Grupo_1075188" data-name="Grupo 1075188">
                <g id="Grupo_1075187" data-name="Grupo 1075187" clip-path="url(#clip-path-17)">
                  <path id="Trazado_616277" data-name="Trazado 616277" d="M71.737,41.627a2.48,2.48,0,0,0-.7-1.212c-.093-.093-.185-.181-.286-.265a1.5,1.5,0,0,0,.038-.829,1.312,1.312,0,0,0-1.027-1.006,1.835,1.835,0,0,0-.109-.366,2.6,2.6,0,0,0-2.415-1.182,1.6,1.6,0,0,0-1.734-.985,2.993,2.993,0,0,0-1.317.547c-.539-.757-1.8-.324-2.356.189a3.146,3.146,0,0,0-.564.728.456.456,0,0,0-.08-.034,2.113,2.113,0,0,0-1.262.177,2.248,2.248,0,0,0-1.022.774,1.514,1.514,0,0,0-.13,1.41,2.7,2.7,0,0,0-1.2,1.157,2,2,0,0,0-.088,1.447,2.915,2.915,0,0,0,.694,1.275,1.172,1.172,0,0,0,.143.109,2.075,2.075,0,0,0-.332.711,3.132,3.132,0,0,0,.429,2.2,2.568,2.568,0,0,0,1.515,1.191,3.255,3.255,0,0,0,1.881.021,1.4,1.4,0,0,0,.16.156,1.3,1.3,0,0,0,1.683-.2c.034.038.063.084.1.122a1.875,1.875,0,0,0,1.376.391,3.513,3.513,0,0,0,2.432-1.149,1.374,1.374,0,0,0,.37.025,1.846,1.846,0,0,0,1.288-.644,1.682,1.682,0,0,0,.332-.6,2.4,2.4,0,0,0,.349-.017,1.648,1.648,0,0,0,.93-.433,1.48,1.48,0,0,0,.421-1.3,1.563,1.563,0,0,0-.084-.261,2.191,2.191,0,0,0,.307-.433,2.665,2.665,0,0,0,.261-1.725" transform="translate(-57.388 -35.77)" fill="#619843"/>
                </g>
              </g>
            </g>
            <path id="Trazado_616278" data-name="Trazado 616278" d="M58.054,39.3" transform="translate(186.223 126.05)" fill="#061915"/>
            <g id="Grupo_1075192" data-name="Grupo 1075192" transform="translate(242.917 164.924)" style="mix-blend-mode: screen;isolation: isolate">
              <g id="Grupo_1075191" data-name="Grupo 1075191">
                <g id="Grupo_1075190" data-name="Grupo 1075190" clip-path="url(#clip-path-18)">
                  <path id="Trazado_616279" data-name="Trazado 616279" d="M59.09,39.617a.3.3,0,0,0,0-.067l-.008-.063v0l-.046-.105,0,0a.409.409,0,0,0-.1-.093c-.017-.013-.093-.042-.109-.051l0,0-.013,0a.975.975,0,0,0-.189-.025h-.046l-.029,0h-.017l-.151.013c-.055.017-.105.034-.16.055a.637.637,0,0,0-.219.143.579.579,0,0,0-.164.185l-.067.135a.454.454,0,0,0-.017.269.434.434,0,0,0,.173.248.456.456,0,0,0,.2.063l.021.017.008-.008a.225.225,0,0,0,.084.055.344.344,0,0,0,.173.008.4.4,0,0,0,.181-.046c.038-.021.08-.042.118-.067a.611.611,0,0,0,.185-.189l.05-.105.029-.042.025-.038a.612.612,0,0,0,.1-.273l-.008-.122Z" transform="translate(-57.73 -39.195)" fill="#619843"/>
                </g>
              </g>
            </g>
            <path id="Trazado_616280" data-name="Trazado 616280" d="M58.048,39.418a.513.513,0,0,0,.025-.122l-.025.122" transform="translate(186.203 126.05)" fill="#061915"/>
            <g id="Grupo_1075195" data-name="Grupo 1075195" transform="translate(249.737 164.4)" style="mix-blend-mode: screen;isolation: isolate">
              <g id="Grupo_1075194" data-name="Grupo 1075194">
                <g id="Grupo_1075193" data-name="Grupo 1075193" clip-path="url(#clip-path-26)">
                  <path id="Trazado_616281" data-name="Trazado 616281" d="M61.574,39.83a.469.469,0,0,0-.034-.126,1.075,1.075,0,0,0-.122-.24l-.038-.05c-.05-.051-.1-.1-.151-.143a.405.405,0,0,0-.105-.067.992.992,0,0,0-.248-.1.911.911,0,0,0-.215-.029,1.428,1.428,0,0,0-.231.017l-.055.013a1.967,1.967,0,0,0-.206.067l-.029.013a1.342,1.342,0,0,0-.425.307,1.489,1.489,0,0,0-.273.429.717.717,0,0,0-.042.135,1.011,1.011,0,0,0-.046.278.744.744,0,0,0,.126.459l.021.029a1.4,1.4,0,0,0,.139.135l.029.021a1.393,1.393,0,0,0,.181.08.71.71,0,0,0,.164.034,1.291,1.291,0,0,0,.143.059,1.655,1.655,0,0,0,.2.025,1.23,1.23,0,0,0,.215-.017l.046-.008c.067-.017.135-.042.2-.063l.029-.013.021-.013a1.669,1.669,0,0,0,.189-.105l.021-.017c.059-.042.118-.1.173-.143a.977.977,0,0,0,.181-.236,1.16,1.16,0,0,0,.151-.433.988.988,0,0,0-.008-.295" transform="translate(-59.351 -39.069)" fill="#619843"/>
                </g>
              </g>
            </g>
            <g id="Grupo_1075198" data-name="Grupo 1075198" transform="translate(256.694 157.738)" style="mix-blend-mode: screen;isolation: isolate">
              <g id="Grupo_1075197" data-name="Grupo 1075197">
                <g id="Grupo_1075196" data-name="Grupo 1075196" clip-path="url(#clip-path-20)">
                  <path id="Trazado_616282" data-name="Trazado 616282" d="M63,38.066a.781.781,0,0,0-.269-.412.815.815,0,0,0-.48-.164.76.76,0,0,0-.274.029,1.311,1.311,0,0,0-.459.215c-.029.021-.042.05-.072.072l.034-.029-.038.042-.017.013a1.279,1.279,0,0,0-.164.173l-.008.008c-.029.038-.072.059-.093.1a.982.982,0,0,0-.143.686.64.64,0,0,0,.1.227.588.588,0,0,0,.362.244l.013.013a.729.729,0,0,0,.362.109h.021a1.376,1.376,0,0,0,.185-.017,1.212,1.212,0,0,0,.219-.072,1.355,1.355,0,0,0,.412-.29,1.311,1.311,0,0,0,.274-.429A.839.839,0,0,0,63,38.066" transform="translate(-61.005 -37.489)" fill="#619843"/>
                </g>
              </g>
            </g>
            <path id="Trazado_616283" data-name="Trazado 616283" d="M61.1,37.61l.034-.025.021-.021-.055.046" transform="translate(195.987 120.494)" fill="#061915"/>
            <g id="Grupo_1075201" data-name="Grupo 1075201" transform="translate(258.104 162.086)" style="mix-blend-mode: screen;isolation: isolate">
              <g id="Grupo_1075200" data-name="Grupo 1075200">
                <g id="Grupo_1075199" data-name="Grupo 1075199" clip-path="url(#clip-path-28)">
                  <path id="Trazado_616284" data-name="Trazado 616284" d="M61.893,38.521c-.438,0-.846.778-.265.778.438,0,.846-.778.265-.778" transform="translate(-61.339 -38.522)" fill="#619843"/>
                </g>
              </g>
            </g>
            <g id="Grupo_1075204" data-name="Grupo 1075204" transform="translate(249.295 151.841)" style="mix-blend-mode: screen;isolation: isolate">
              <g id="Grupo_1075203" data-name="Grupo 1075203">
                <g id="Grupo_1075202" data-name="Grupo 1075202" clip-path="url(#clip-path-22)">
                  <path id="Trazado_616285" data-name="Trazado 616285" d="M61.5,36.8a1.425,1.425,0,0,0-.1-.231.385.385,0,0,0-.055-.088,1.171,1.171,0,0,0-.173-.181.656.656,0,0,0-.084-.067.987.987,0,0,0-.484-.147,1.1,1.1,0,0,0-.555.122,1.467,1.467,0,0,0-.3.194l-.042.034c-.025.025-.05.038-.084.067s-.076.1-.114.143l-.017.021,0,.008a.47.47,0,0,0-.072.088,1.216,1.216,0,0,0-.109.223,1.483,1.483,0,0,0-.05.219.778.778,0,0,0,.013.261.69.69,0,0,0,.1.236.578.578,0,0,0,.139.147l.021.055a1.186,1.186,0,0,0,.088.16l-.059-.13a.584.584,0,0,0,.084.151,1.062,1.062,0,0,0,.215.2.864.864,0,0,0,.429.126,1.114,1.114,0,0,0,.656-.215,1.328,1.328,0,0,0,.391-.433,1.7,1.7,0,0,0,.126-.282,2.109,2.109,0,0,0,.067-.324l0-.093A1.109,1.109,0,0,0,61.5,36.8" transform="translate(-59.247 -36.087)" fill="#619843"/>
                </g>
              </g>
            </g>
            <path id="Trazado_616286" data-name="Trazado 616286" d="M59.437,36.659a.741.741,0,0,1-.084-.084l-.017-.017.1.1" transform="translate(190.335 117.267)" fill="#061915"/>
          </g>
        </g>
      </g>
    </g>
  </g>
</svg>
