<svg xmlns="http://www.w3.org/2000/svg" xmlns:xlink="http://www.w3.org/1999/xlink" width="139" height="139" viewBox="0 0 139 139">
  <defs>
    <clipPath id="clip-path">
      <rect id="Rect치ngulo_379005" data-name="Rect치ngulo 379005" width="88.221" height="61.583" fill="none"/>
    </clipPath>
  </defs>
  <g id="img12" transform="translate(-415 -3656.416)">
    <g id="Grupo_1074461" data-name="Grupo 1074461" transform="translate(415 3656.416)">
      <rect id="Rect치ngulo_378651" data-name="Rect치ngulo 378651" width="139" height="30" rx="15" transform="translate(0 109)" fill="#315884"/>
      <g id="Grupo_1074381" data-name="Grupo 1074381" transform="translate(3.475 0)">
        <g id="Grupo_1073526" data-name="Grupo 1073526" transform="translate(0 0)">
          <g id="Grupo_1072785" data-name="Grupo 1072785" transform="translate(0 0)">
            <path id="Trazado_608385" data-name="Trazado 608385" d="M65.462,0A65.462,65.462,0,1,1,0,65.462,65.462,65.462,0,0,1,65.462,0Z" transform="translate(0 0)" fill="none"/>
          </g>
          <g id="Grupo_1073383" data-name="Grupo 1073383" transform="translate(0 0)">
            <g id="Trazado_608385-2" data-name="Trazado 608385" transform="translate(0 0)" fill="#fff">
              <path d="M 65.46222686767578 129.9244689941406 C 56.75944519042969 129.9244689941406 48.3175163269043 128.2202301025391 40.37093734741211 124.8591156005859 C 36.55149841308594 123.2436294555664 32.86757278442383 121.2440414428711 29.42148208618164 118.9159164428711 C 26.00788116455078 116.609733581543 22.7978458404541 113.9612121582031 19.88055419921875 111.0439147949219 C 16.9632625579834 108.1266098022461 14.31473636627197 104.9165878295898 12.00855445861816 101.5029754638672 C 9.680426597595215 98.05690002441406 7.680845260620117 94.37297058105469 6.065354347229004 90.55353546142578 C 2.704245090484619 82.60695648193359 1.000008702278137 74.16500854492188 1.000008702278137 65.46222686767578 C 1.000008702278137 56.75944519042969 2.704245090484619 48.3175163269043 6.065354347229004 40.37093734741211 C 7.680845260620117 36.55149841308594 9.680426597595215 32.86757278442383 12.00855445861816 29.42148208618164 C 14.31473636627197 26.00788116455078 16.9632625579834 22.7978458404541 19.88055419921875 19.88055419921875 C 22.7978458404541 16.9632625579834 26.00788116455078 14.31473636627197 29.42148208618164 12.00855445861816 C 32.86757278442383 9.680426597595215 36.55149841308594 7.680845260620117 40.37093734741211 6.065354347229004 C 48.3175163269043 2.704245090484619 56.75944519042969 1.000008702278137 65.46222686767578 1.000008702278137 C 74.16500854492188 1.000008702278137 82.60695648193359 2.704245090484619 90.55353546142578 6.065354347229004 C 94.37297058105469 7.680845260620117 98.05690002441406 9.680426597595215 101.5029754638672 12.00855445861816 C 104.9165878295898 14.31473636627197 108.1266098022461 16.9632625579834 111.0439147949219 19.88055419921875 C 113.9612121582031 22.7978458404541 116.609733581543 26.00788116455078 118.9159164428711 29.42148208618164 C 121.2440414428711 32.86757278442383 123.2436294555664 36.55149841308594 124.8591156005859 40.37093734741211 C 128.2202301025391 48.3175163269043 129.9244689941406 56.75944519042969 129.9244689941406 65.46222686767578 C 129.9244689941406 74.16500854492188 128.2202301025391 82.60695648193359 124.8591156005859 90.55353546142578 C 123.2436294555664 94.37297058105469 121.2440414428711 98.05690002441406 118.9159164428711 101.5029754638672 C 116.609733581543 104.9165878295898 113.9612121582031 108.1266098022461 111.0439147949219 111.0439147949219 C 108.1266098022461 113.9612121582031 104.9165878295898 116.609733581543 101.5029754638672 118.9159164428711 C 98.05690002441406 121.2440414428711 94.37297058105469 123.2436294555664 90.55353546142578 124.8591156005859 C 82.60695648193359 128.2202301025391 74.16500854492188 129.9244689941406 65.46222686767578 129.9244689941406 Z" stroke="none"/>
              <path d="M 65.46222686767578 1.999984741210938 C 56.89401245117188 1.999984741210938 48.58313751220703 3.677642822265625 40.76048278808594 6.986351013183594 C 37.00051879882812 8.576683044433594 33.37386322021484 10.54517364501953 29.98128509521484 12.83715057373047 C 26.62042999267578 15.10771942138672 23.45995330810547 17.71535491943359 20.587646484375 20.587646484375 C 17.71535491943359 23.45995330810547 15.10771942138672 26.62042999267578 12.83715057373047 29.98128509521484 C 10.54517364501953 33.37386322021484 8.576683044433594 37.00051879882812 6.986351013183594 40.76048278808594 C 3.677642822265625 48.58313751220703 1.999984741210938 56.89401245117188 1.999984741210938 65.46222686767578 C 1.999984741210938 74.03046417236328 3.677642822265625 82.34131622314453 6.986351013183594 90.16397094726562 C 8.576683044433594 93.9239501953125 10.54517364501953 97.55059051513672 12.83715057373047 100.9431762695312 C 15.10771942138672 104.3040313720703 17.71535491943359 107.4645004272461 20.587646484375 110.3367919921875 C 23.45995330810547 113.2090835571289 26.62042999267578 115.8167343139648 29.98128509521484 118.0872802734375 C 33.37386322021484 120.379264831543 37.00051879882812 122.3477554321289 40.76048278808594 123.938102722168 C 48.58313751220703 127.2467880249023 56.89401245117188 128.9244384765625 65.46222686767578 128.9244384765625 C 74.03046417236328 128.9244384765625 82.34133911132812 127.2467880249023 90.16397094726562 123.938102722168 C 93.9239501953125 122.3477554321289 97.55059051513672 120.379264831543 100.9431762695312 118.0872802734375 C 104.3040313720703 115.8167343139648 107.4645004272461 113.2090835571289 110.3367919921875 110.3367919921875 C 113.2090835571289 107.4645004272461 115.8167343139648 104.3040313720703 118.0872802734375 100.9431762695312 C 120.379264831543 97.55059051513672 122.3477554321289 93.9239501953125 123.938102722168 90.16397094726562 C 127.2467880249023 82.34133911132812 128.9244384765625 74.03046417236328 128.9244384765625 65.46222686767578 C 128.9244384765625 56.89401245117188 127.2467880249023 48.58313751220703 123.938102722168 40.76048278808594 C 122.3477554321289 37.00051879882812 120.379264831543 33.37386322021484 118.0872802734375 29.98128509521484 C 115.8167343139648 26.62042999267578 113.2090835571289 23.45995330810547 110.3367919921875 20.587646484375 C 107.4645004272461 17.71535491943359 104.3040313720703 15.10771942138672 100.9431762695312 12.83715057373047 C 97.55059051513672 10.54517364501953 93.9239501953125 8.576683044433594 90.16397094726562 6.986351013183594 C 82.34131622314453 3.677642822265625 74.03046417236328 1.999984741210938 65.46222686767578 1.999984741210938 M 65.46222686767578 -1.52587890625e-05 C 101.6160278320312 -1.52587890625e-05 130.9244384765625 29.30844879150391 130.9244384765625 65.46222686767578 C 130.9244384765625 101.6160278320312 101.6160278320312 130.9244384765625 65.46222686767578 130.9244384765625 C 29.30844879150391 130.9244384765625 -1.52587890625e-05 101.6160278320312 -1.52587890625e-05 65.46222686767578 C -1.52587890625e-05 29.30844879150391 29.30844879150391 -1.52587890625e-05 65.46222686767578 -1.52587890625e-05 Z" stroke="none" fill="#85b6ec"/>
            </g>
          </g>
        </g>
      </g>
      <path id="Trazado_615556" data-name="Trazado 615556" d="M752.741,143.019l5.036-5.036a1.424,1.424,0,1,0-2.013-2.013l-5.036,5.036-5.036-5.036a1.424,1.424,0,1,0-2.013,2.013l5.036,5.036-5.036,5.036a1.424,1.424,0,1,0,2.013,2.013l5.036-5.036,5.036,5.036a1.424,1.424,0,0,0,2.013-2.013Z" transform="translate(-629.091 -124.169)" fill="#ff7c48"/>
      <path id="Trazado_615557" data-name="Trazado 615557" d="M0,15.861,10.1,0,20.2,15.861Z" transform="translate(17.903 87.028) rotate(90)" fill="#ffb850"/>
      <path id="Trazado_615559" data-name="Trazado 615559" d="M159.276,312.164a4.15,4.15,0,1,1-4.15-4.15,4.15,4.15,0,0,1,4.15,4.15" transform="translate(-50.197 -191.155)" fill="#ffb850"/>
      <path id="Trazado_615560" data-name="Trazado 615560" d="M77.022,312.164a4.15,4.15,0,1,1-4.15-4.15,4.15,4.15,0,0,1,4.15,4.15" transform="translate(14.781 -191.155)" fill="#3656b3"/>
      <path id="Trazado_615561" data-name="Trazado 615561" d="M241.53,312.164a4.15,4.15,0,1,1-4.15-4.15,4.15,4.15,0,0,1,4.15,4.15" transform="translate(-115.173 -191.155)" fill="#29c7cc"/>
    </g>
    <g id="Grupo_1075290" data-name="Grupo 1075290" transform="translate(438.889 3695.125)">
      <g id="Grupo_1075289" data-name="Grupo 1075289" clip-path="url(#clip-path)">
        <path id="Trazado_616530" data-name="Trazado 616530" d="M487.958,28.339a1.082,1.082,0,0,1-1.333.74l-19.157-4.221a1.082,1.082,0,0,1-.9-1.232L471.606.771A1.083,1.083,0,0,1,472.939.03L492.1,4.251a1.083,1.083,0,0,1,.9,1.232Z" transform="translate(-410.256 0)" fill="#da4643"/>
        <path id="Trazado_616531" data-name="Trazado 616531" d="M305.722,53.614c0,.62-.708,1.124-1.582,1.124H276.99c-.873,0-1.581-.5-1.581-1.124V27.584c0-.62.708-1.124,1.581-1.124h27.15c.873,0,1.582.5,1.582,1.124Z" transform="translate(-242.179 -23.267)" fill="#f39225"/>
        <path id="Trazado_616532" data-name="Trazado 616532" d="M278.556,59.063h-59.7a1.309,1.309,0,0,0,0,2.593h59.7a1.309,1.309,0,0,0,0-2.593" transform="translate(-191.462 -51.937)" fill="#bfbfbf"/>
        <path id="Trazado_616533" data-name="Trazado 616533" d="M296.122,145.252H243.116a1.31,1.31,0,0,0,0,2.594h53.005a1.31,1.31,0,0,0,0-2.594" transform="translate(-212.791 -127.726)" fill="#bfbfbf"/>
        <path id="Trazado_616534" data-name="Trazado 616534" d="M308.917,231.456H262.189a1.309,1.309,0,0,0,0,2.592h46.728a1.309,1.309,0,0,0,0-2.592" transform="translate(-229.561 -203.529)" fill="#bfbfbf"/>
        <path id="Trazado_616535" data-name="Trazado 616535" d="M301.478,73.42l-2.238.334,3.048,27.048,2.364.577Z" transform="translate(-263.134 -64.561)" fill="#bfbfbf"/>
        <path id="Trazado_616536" data-name="Trazado 616536" d="M375.954,75.047l-2.251.178,1.656,27.83,2.364-.493Z" transform="translate(-328.613 -65.992)" fill="#bfbfbf"/>
        <path id="Trazado_616537" data-name="Trazado 616537" d="M448.585,71.8l-.007,28.483,2.15-.083.113-28.4Z" transform="translate(-394.454 -63.139)" fill="#bfbfbf"/>
        <path id="Trazado_616538" data-name="Trazado 616538" d="M503.893,71.021l-4.265,28.906,2.437-.988,4.052-27.487Z" transform="translate(-439.344 -62.452)" fill="#bfbfbf"/>
        <path id="Trazado_616539" data-name="Trazado 616539" d="M564.243,70.915,557.229,100l2.507-.577,6.677-27.814Z" transform="translate(-489.995 -62.359)" fill="#bfbfbf"/>
        <path id="Trazado_616540" data-name="Trazado 616540" d="M626.46,67.042l-9.27,28.151,2.22,1.072,9.159-28.313Z" transform="translate(-542.722 -58.953)" fill="#bfbfbf"/>
        <path id="Trazado_616541" data-name="Trazado 616541" d="M255.287,69.081h-45.5l-9.168-29.547c-.132,1.581-1.553,1.906-2.921,2.1l9.372,29.988a1.68,1.68,0,0,0,1.555,1.259h46.66a1.918,1.918,0,0,0,0-3.8" transform="translate(-173.846 -34.764)" fill="#da4643"/>
        <path id="Trazado_616542" data-name="Trazado 616542" d="M26.355,21.5a3.115,3.115,0,0,0-2.07-.764H2.949A2.811,2.811,0,0,0,0,23.383a2.811,2.811,0,0,0,2.949,2.649H24.285A3.122,3.122,0,0,0,24.64,26a2.786,2.786,0,0,0,2.567-2.365,2.412,2.412,0,0,0,.028-.252,2.515,2.515,0,0,0-.879-1.884" transform="translate(0 -18.233)" fill="#bfbfbf"/>
        <path id="Trazado_616543" data-name="Trazado 616543" d="M303.273,318.154H266.819l4.353-20.194,2.285.652-3.629,16.835h33.445Z" transform="translate(-234.625 -262.009)" fill="#da4643"/>
        <path id="Trazado_616544" data-name="Trazado 616544" d="M241.278,408.384a6.549,6.549,0,1,1-6.549-6.549,6.549,6.549,0,0,1,6.549,6.549" transform="translate(-200.648 -353.35)" fill="#bfbfbf"/>
        <path id="Trazado_616545" data-name="Trazado 616545" d="M251.572,420.317a4.912,4.912,0,1,1-4.912-4.912,4.911,4.911,0,0,1,4.912,4.912" transform="translate(-212.58 -365.283)" fill="#f39225"/>
        <path id="Trazado_616546" data-name="Trazado 616546" d="M522.185,408.384a6.549,6.549,0,1,1-6.548-6.549,6.549,6.549,0,0,1,6.548,6.549" transform="translate(-447.662 -353.35)" fill="#bfbfbf"/>
        <path id="Trazado_616547" data-name="Trazado 616547" d="M532.478,420.317a4.912,4.912,0,1,1-4.911-4.912,4.911,4.911,0,0,1,4.911,4.912" transform="translate(-459.593 -365.283)" fill="#f39225"/>
      </g>
    </g>
  </g>
</svg>
