<svg xmlns="http://www.w3.org/2000/svg" xmlns:xlink="http://www.w3.org/1999/xlink" width="295" height="367.5" viewBox="0 0 295 367.5">
  <defs>
    <clipPath id="clip-path">
      <rect id="Rectángulo_379069" data-name="Rectángulo 379069" width="268.009" height="349.054" fill="none"/>
    </clipPath>
  </defs>
  <g id="img14" transform="translate(-285.332 -3959)">
    <rect id="Rectángulo_347494" data-name="Rectángulo 347494" width="295" height="367.5" transform="translate(285.332 3959)" fill="#fff"/>
    <g id="Grupo_1075295" data-name="Grupo 1075295" transform="translate(305.146 3966.249)">
      <rect id="Rectángulo_379059" data-name="Rectángulo 379059" width="210.306" height="276.498" transform="translate(0 25.38)" fill="#59c4c8"/>
      <rect id="Rectángulo_379060" data-name="Rectángulo 379060" width="210.306" height="276.498" transform="translate(8.211 15.66)" fill="#8ce2e5"/>
      <g id="Grupo_1075294" data-name="Grupo 1075294">
        <g id="Grupo_1075293" data-name="Grupo 1075293" clip-path="url(#clip-path)">
          <path id="Trazado_616651" data-name="Trazado 616651" d="M122.444,703.446a10.923,10.923,0,1,1,10.923-10.923,10.936,10.936,0,0,1-10.923,10.923m0-19.445a8.522,8.522,0,1,0,8.522,8.522A8.531,8.531,0,0,0,122.444,684" transform="translate(-82.96 -507.037)" fill="#fff"/>
          <path id="Trazado_616652" data-name="Trazado 616652" d="M122.444,840.208a10.923,10.923,0,1,1,10.923-10.923,10.936,10.936,0,0,1-10.923,10.923m0-19.444a8.522,8.522,0,1,0,8.522,8.521,8.531,8.531,0,0,0-8.522-8.521" transform="translate(-82.96 -608.773)" fill="#fff"/>
          <path id="Trazado_616653" data-name="Trazado 616653" d="M122.444,976.966a10.923,10.923,0,1,1,10.923-10.923,10.936,10.936,0,0,1-10.923,10.923m0-19.445a8.522,8.522,0,1,0,8.522,8.522,8.531,8.531,0,0,0-8.522-8.522" transform="translate(-82.96 -710.506)" fill="#fff"/>
          <rect id="Rectángulo_379061" data-name="Rectángulo 379061" width="65.733" height="2.401" transform="translate(63.993 180.512)" fill="#fff"/>
          <rect id="Rectángulo_379062" data-name="Rectángulo 379062" width="112.434" height="2.401" transform="translate(63.993 187.543)" fill="#fff"/>
          <rect id="Rectángulo_379063" data-name="Rectángulo 379063" width="112.434" height="2.401" transform="translate(63.993 250.563)" fill="#fff"/>
          <line id="Línea_3211" data-name="Línea 3211" x2="112.434" transform="translate(63.993 258.794)" fill="#fff"/>
          <rect id="Rectángulo_379064" data-name="Rectángulo 379064" width="112.434" height="2.401" transform="translate(63.993 257.594)" fill="#fff"/>
          <rect id="Rectángulo_379065" data-name="Rectángulo 379065" width="112.434" height="2.401" transform="translate(63.993 209.589)" fill="#fff"/>
          <rect id="Rectángulo_379066" data-name="Rectángulo 379066" width="112.434" height="2.401" transform="translate(63.993 216.619)" fill="#fff"/>
          <rect id="Rectángulo_379067" data-name="Rectángulo 379067" width="95.403" height="2.401" transform="translate(63.993 223.65)" fill="#fff"/>
          <path id="Trazado_616654" data-name="Trazado 616654" d="M134.537,705.375,128.7,700.69a1.2,1.2,0,0,1,1.5-1.873l4.282,3.437,11.147-9.566a1.2,1.2,0,0,1,1.564,1.823Z" transform="translate(-95.405 -515.071)" fill="#fff"/>
          <path id="Trazado_616655" data-name="Trazado 616655" d="M134.537,843.019l-5.837-4.685a1.2,1.2,0,0,1,1.5-1.873l4.282,3.437,11.147-9.566a1.2,1.2,0,0,1,1.564,1.823Z" transform="translate(-95.405 -617.463)" fill="#fff"/>
          <path id="Trazado_616656" data-name="Trazado 616656" d="M134.537,978.9,128.7,974.21a1.2,1.2,0,0,1,1.5-1.873l4.282,3.437,11.147-9.566a1.2,1.2,0,0,1,1.564,1.823Z" transform="translate(-95.405 -718.541)" fill="#fff"/>
          <path id="Trazado_616657" data-name="Trazado 616657" d="M297.4,567.914l2.143,4.343,4.792.7-3.468,3.38.819,4.773-4.286-2.254-4.286,2.254.818-4.773-3.468-3.38,4.792-.7Z" transform="translate(-216.078 -422.467)" fill="#fff"/>
          <path id="Trazado_616658" data-name="Trazado 616658" d="M365.239,567.914l2.143,4.343,4.792.7-3.468,3.38.818,4.773-4.286-2.254-4.286,2.254.819-4.773-3.468-3.38,4.792-.7Z" transform="translate(-266.539 -422.467)" fill="#fff"/>
          <path id="Trazado_616659" data-name="Trazado 616659" d="M433.073,567.914l2.143,4.343,4.792.7-3.468,3.38.819,4.773-4.286-2.254-4.286,2.254.819-4.773-3.468-3.38,4.792-.7Z" transform="translate(-317 -422.467)" fill="#fff"/>
          <path id="Trazado_616660" data-name="Trazado 616660" d="M500.907,567.914l2.143,4.343,4.792.7-3.468,3.38.819,4.773-4.286-2.254-4.286,2.254.819-4.773-3.468-3.38,4.792-.7Z" transform="translate(-367.461 -422.467)" fill="#fff"/>
          <path id="Trazado_616661" data-name="Trazado 616661" d="M572.211,576.341l.82,4.769-4.289-2.253-4.284,2.253.82-4.769-3.468-3.382,4.792-.7,2.14-4.339,2.144,4.339,4.792.7Z" transform="translate(-417.927 -422.473)" fill="#fff"/>
          <path id="Trazado_616662" data-name="Trazado 616662" d="M321.941,124.859a79.476,79.476,0,0,1-19.519,52.289q-1.855,2.159-3.87,4.168a79.833,79.833,0,1,1,23.389-56.457" transform="translate(-120.712 -33.493)" fill="#fff"/>
          <path id="Trazado_616663" data-name="Trazado 616663" d="M396.7,415.261c.04-.5.395-1.208.655-3.04a22.476,22.476,0,0,0,.222-3.161V389.948h36.1v18.7a22.2,22.2,0,0,0,.257,3.379c.3,1.971.719,2.651.759,3.231.206,2.937-8.556,8.4-18.844,8.45-10.564.05-19.379-5.628-19.154-8.45" transform="translate(-295.097 -290.079)" fill="#f79372"/>
          <path id="Trazado_616664" data-name="Trazado 616664" d="M400.136,397.445s7.6,11.28,18.052,11.792c9.877.484,18.052-11.92,18.052-11.92v-7.369h-36.1Z" transform="translate(-297.658 -290.079)" fill="#d6765c"/>
          <path id="Trazado_616665" data-name="Trazado 616665" d="M423.876,213.658c-.182.905-.66,7.413-1.473,9.808-4.925,14.7-13.611,19.695-21.63,19.695-7.267,0-16.6-7-21.238-19.826-1.052-2.907-.989-10.694-.989-10.71-4.3-20.024.087-40.494,22.176-40.494,20.933,0,27.13,21.422,23.154,41.527" transform="translate(-280.496 -128.047)" fill="#f79372"/>
          <path id="Trazado_616666" data-name="Trazado 616666" d="M364.255,318.9s-7.807-.641-7.478-11.488,8.872-1.626,8.872-1.626Z" transform="translate(-265.396 -224.756)" fill="#f79372"/>
          <path id="Trazado_616667" data-name="Trazado 616667" d="M548.479,318.875s7.794-.785,7.265-11.625-8.9-1.461-8.9-1.461Z" transform="translate(-406.792 -224.672)" fill="#f79372"/>
          <path id="Trazado_616668" data-name="Trazado 616668" d="M360.232,488.428q-1.855,2.159-3.87,4.168a79.817,79.817,0,0,1-116.378-3.731,33.049,33.049,0,0,1,6.844-3.88l22.259-9.37c5.383-2.26,11.033-12.142,11.033-12.142,5.879,4.8,15.953,9.314,19.988,9.314,3.864,0,11.471-3.513,17.5-9.314a20.218,20.218,0,0,0,11.9,11.961l23.581,9.189a33.961,33.961,0,0,1,7.142,3.806" transform="translate(-178.522 -344.773)" fill="#f15a24"/>
          <path id="Trazado_616669" data-name="Trazado 616669" d="M542.967,207.084s.44,9.631,1.588,12.829a38.745,38.745,0,0,1,2.249,10.813l3.054-6.211s2.285-22.465-1.689-26.254c-7.368-7.026-5.2,8.823-5.2,8.823" transform="translate(-403.688 -146.149)"/>
          <path id="Trazado_616670" data-name="Trazado 616670" d="M373.327,210.332s-.033,8.77-1.4,12.36a34.577,34.577,0,0,0-2.249,10.582l-3-6.28s-3.3-21.394,1.887-25.449c7.942-6.2,4.754,8.787,4.754,8.787" transform="translate(-272.004 -148.809)"/>
          <path id="Trazado_616671" data-name="Trazado 616671" d="M377.065,167.25c7.072-15.695,39.233-17.669,47.911-.041,0,0-2.649,13.888-5.2,8.823s-14.189.574-18.813.691c-4.885.123-18.819-6-19.143-.494Z" transform="translate(-280.496 -115.097)"/>
          <path id="Trazado_616672" data-name="Trazado 616672" d="M397.607,496.581l-9.339,15.22s-13.43-11.5-15.078-16.118c0,0,3.5,10.8,15.539,19.159l9.864-18.188Z" transform="translate(-277.613 -368.736)" fill="#d14a20"/>
          <path id="Trazado_616673" data-name="Trazado 616673" d="M477.228,495.179l1.34-.284,8.725,13.855s9.335-9.1,12.134-15.145a58.961,58.961,0,0,1-12.134,19.27Z" transform="translate(-355.006 -367.189)" fill="#d14a20"/>
          <path id="Trazado_616674" data-name="Trazado 616674" d="M464.482,547.315h-1.505V507.087l1.505-1.478Z" transform="translate(-344.405 -376.119)" fill="#d14a20"/>
          <path id="Trazado_616675" data-name="Trazado 616675" d="M477.534,523.111a1.769,1.769,0,1,1-1.769-1.769,1.769,1.769,0,0,1,1.769,1.769" transform="translate(-352.602 -387.822)" fill="#d14a20"/>
          <path id="Trazado_616676" data-name="Trazado 616676" d="M477.534,581.893a1.769,1.769,0,1,1-1.769-1.769,1.769,1.769,0,0,1,1.769,1.769" transform="translate(-352.602 -431.55)" fill="#d14a20"/>
          <path id="Trazado_616677" data-name="Trazado 616677" d="M477.534,640.674a1.769,1.769,0,1,1-1.769-1.769,1.769,1.769,0,0,1,1.769,1.769" transform="translate(-352.602 -475.277)" fill="#d14a20"/>
          <path id="Trazado_616678" data-name="Trazado 616678" d="M433.448,310.982c0,1.526-.814,2.764-1.819,2.764s-1.819-1.238-1.819-2.764.814-2.764,1.819-2.764,1.819,1.238,1.819,2.764" transform="translate(-319.733 -229.281)"/>
          <path id="Trazado_616679" data-name="Trazado 616679" d="M500.448,310.982c0,1.526-.814,2.764-1.819,2.764s-1.819-1.238-1.819-2.764.814-2.764,1.819-2.764,1.819,1.238,1.819,2.764" transform="translate(-369.574 -229.281)"/>
          <path id="Trazado_616680" data-name="Trazado 616680" d="M486.4,287.777q-.049.087-.091.177a3.27,3.27,0,0,0-.425,1.741,1.281,1.281,0,0,0,.864,1.037,2.748,2.748,0,0,0,1.889-.45,10.441,10.441,0,0,1,7.605-.429c.42.145,1.47.767,1.861.561.711-.375-.109-1.842-.583-2.405a6.328,6.328,0,0,0-4.055-1.711c-.489.028-.978.068-1.467.1a24.936,24.936,0,0,0-4.436.438,1.842,1.842,0,0,0-1.162.939" transform="translate(-361.434 -212.972)"/>
          <path id="Trazado_616681" data-name="Trazado 616681" d="M418.568,287.777q.049.087.091.177a3.275,3.275,0,0,1,.424,1.741,1.28,1.28,0,0,1-.863,1.037,2.743,2.743,0,0,1-1.887-.45,10.419,10.419,0,0,0-7.6-.429c-.42.145-1.447.611-1.859.448-.995-.394.109-1.729.582-2.292a6.317,6.317,0,0,1,4.051-1.711c.489.028.977.068,1.465.1a24.881,24.881,0,0,1,4.431.438,1.84,1.84,0,0,1,1.161.939" transform="translate(-302.375 -212.972)"/>
          <path id="Trazado_616682" data-name="Trazado 616682" d="M452.613,307.484c-.255,3.557-2.365,6.7-2.769,10.186-.352,3.038,2.911,3.827,5.248,4.524a1.042,1.042,0,0,0,.553-2.007c-1.083-.323-2.866-.588-3.425-1.607s.2-2.4.557-3.5a32.348,32.348,0,0,0,1.916-7.6c.1-1.337-1.986-1.331-2.082,0" transform="translate(-334.617 -227.991)" fill="#d6765c"/>
          <path id="Trazado_616683" data-name="Trazado 616683" d="M445.419,388.018a24.525,24.525,0,0,0,11.5.05c1.457-.34.839-2.349-.623-2.007a21.736,21.736,0,0,1-10.255-.05,1.053,1.053,0,1,0-.623,2.007" transform="translate(-330.727 -287.119)" fill="#d6765c"/>
          <rect id="Rectángulo_379068" data-name="Rectángulo 379068" width="19.445" height="30.159" transform="translate(153.65 171.853) rotate(-28.192)" fill="#fff"/>
          <path id="Trazado_616684" data-name="Trazado 616684" d="M741.59,880.277l-16.551,8.872a5.276,5.276,0,0,1-7.142-2.157L641,743.521a5.275,5.275,0,0,1,2.158-7.142l16.551-8.872a5.276,5.276,0,0,1,7.142,2.158l76.9,143.47a5.275,5.275,0,0,1-2.158,7.142" transform="translate(-476.366 -540.721)" fill="#315884"/>
          <path id="Trazado_616685" data-name="Trazado 616685" d="M174.374,20.217A88.872,88.872,0,1,0,294.69,56.557a88.872,88.872,0,0,0-120.316-36.34M253.5,167.836A78.615,78.615,0,1,1,285.65,61.4,78.617,78.617,0,0,1,253.5,167.836" transform="translate(-94.821 -7.183)" fill="#315884"/>
          <path id="Trazado_616686" data-name="Trazado 616686" d="M663.691,29.445A29.445,29.445,0,1,1,634.246,0a29.445,29.445,0,0,1,29.445,29.445" transform="translate(-449.907)" fill="#fab234"/>
          <path id="Trazado_616687" data-name="Trazado 616687" d="M660.022,91.154l-11.95-9.591A2.337,2.337,0,1,1,651,77.917l8.924,7.162,23.085-19.808a2.338,2.338,0,1,1,3.044,3.548Z" transform="translate(-481.445 -48.136)" fill="#fff"/>
        </g>
      </g>
    </g>
  </g>
</svg>
