<svg xmlns="http://www.w3.org/2000/svg" width="400" height="305.653" viewBox="0 0 400 305.653">
  <g id="img2" transform="translate(-180 -1714.651)">
    <g id="Image_Place_Holder" data-name="Image Place Holder" transform="translate(180 1749.534)">
      <rect id="Image_Place_Holder-2" data-name="Image Place Holder" width="400" height="270.769" rx="10" fill="#b9daff"/>
    </g>
    <g id="Grupo_1075105" data-name="Grupo 1075105" transform="translate(247.242 1714.651)">
      <path id="Trazado_616000" data-name="Trazado 616000" d="M120.777,29.841,11.13,77.652l.094,16.3,114.016,65.366-.752-127.877Z" transform="translate(30.726 82.376)" fill="#95564a"/>
      <path id="Trazado_616001" data-name="Trazado 616001" d="M42.026,158.146,151.578,94.033l-.094-16.3L41.274,30.265Z" transform="translate(113.938 83.547)" fill="#61352b"/>
      <path id="Trazado_616002" data-name="Trazado 616002" d="M11.13,89.62l114.012,65.366L234.695,90.872,120.683,25.506Z" transform="translate(30.726 70.41)" fill="#c0d84d"/>
      <path id="Trazado_616003" data-name="Trazado 616003" d="M0,84.1l.094,16.3L114.11,165.769l-.748-127.877-3.715-1.6Z" transform="translate(0 100.188)" fill="#95564a"/>
      <path id="Trazado_616004" data-name="Trazado 616004" d="M30.9,164.6l109.549-64.114-.094-16.294L30.144,36.718Z" transform="translate(83.215 101.362)" fill="#61352b"/>
      <path id="Trazado_616005" data-name="Trazado 616005" d="M0,96.069l114.012,65.366,109.552-64.11L109.552,31.959Z" transform="translate(0 88.224)" fill="#c0d84d"/>
      <path id="Trazado_616006" data-name="Trazado 616006" d="M29.353,24.819,29.165,91l57.608,33.262.188-66.189Z" transform="translate(80.51 68.514)" fill="#bfbfbf"/>
      <path id="Trazado_616007" data-name="Trazado 616007" d="M44.483,125.252l59.545-34.6.188-66.186-59.545,34.6Z" transform="translate(122.798 67.527)" fill="#e5e4de"/>
      <path id="Trazado_616008" data-name="Trazado 616008" d="M86.822,83.48l59.545-34.6-57.6-33.258-59.548,34.6Z" transform="translate(80.647 43.112)" fill="#d2cec1"/>
      <path id="Trazado_616009" data-name="Trazado 616009" d="M32.063,46.394,80.807,18.066l46.984,27.129L79.047,73.519Z" transform="translate(88.512 49.872)" fill="#e5e4de"/>
      <path id="Trazado_616010" data-name="Trazado 616010" d="M56.037,46.535l11.112-6.457.034-12.353L56.071,34.182Z" transform="translate(154.692 76.535)" fill="#bab7b1"/>
      <path id="Trazado_616011" data-name="Trazado 616011" d="M56.225,44.468l9.7-5.641.034-10.785-9.706,5.641Z" transform="translate(155.211 77.41)" fill="#737577"/>
      <path id="Trazado_616012" data-name="Trazado 616012" d="M64.389,38.211l.026-9.274,1.546-.9-.03,10.785-9.706,5.637,0-1.512Z" transform="translate(155.21 77.412)" fill="#f1f2f2"/>
      <path id="Trazado_616013" data-name="Trazado 616013" d="M56.037,51.891l11.112-6.457.034-12.353L56.071,39.537Z" transform="translate(154.692 91.319)" fill="#bab7b1"/>
      <path id="Trazado_616014" data-name="Trazado 616014" d="M56.225,49.823l9.7-5.641L65.961,33.4l-9.706,5.641Z" transform="translate(155.211 92.194)" fill="#737577"/>
      <path id="Trazado_616015" data-name="Trazado 616015" d="M64.389,43.566l.026-9.274,1.546-.9-.03,10.785L56.224,49.82l0-1.512Z" transform="translate(155.21 92.196)" fill="#f1f2f2"/>
      <path id="Trazado_616016" data-name="Trazado 616016" d="M56.037,57.246l11.112-6.457.034-12.353L56.071,44.893Z" transform="translate(154.692 106.104)" fill="#bab7b1"/>
      <path id="Trazado_616017" data-name="Trazado 616017" d="M56.225,55.179l9.7-5.641.034-10.785-9.706,5.641Z" transform="translate(155.211 106.979)" fill="#737577"/>
      <path id="Trazado_616018" data-name="Trazado 616018" d="M64.389,48.922l.026-9.274,1.546-.9-.03,10.785-9.706,5.637,0-1.512Z" transform="translate(155.21 106.981)" fill="#f1f2f2"/>
      <path id="Trazado_616019" data-name="Trazado 616019" d="M51.265,49.3l11.112-6.457.034-12.353L51.3,36.946Z" transform="translate(141.519 84.167)" fill="#bab7b1"/>
      <path id="Trazado_616020" data-name="Trazado 616020" d="M51.453,47.233l9.7-5.637.034-10.789-9.706,5.641Z" transform="translate(142.037 85.042)" fill="#737577"/>
      <path id="Trazado_616021" data-name="Trazado 616021" d="M59.617,40.976l.026-9.274,1.546-.9-.03,10.785-9.706,5.637,0-1.512Z" transform="translate(142.037 85.044)" fill="#f1f2f2"/>
      <path id="Trazado_616022" data-name="Trazado 616022" d="M51.265,54.655,62.377,48.2l.034-12.353L51.3,42.3Z" transform="translate(141.519 98.952)" fill="#bab7b1"/>
      <path id="Trazado_616023" data-name="Trazado 616023" d="M51.453,52.588l9.7-5.641.034-10.785L51.483,41.8Z" transform="translate(142.037 99.827)" fill="#737577"/>
      <path id="Trazado_616024" data-name="Trazado 616024" d="M59.617,46.331l.026-9.274,1.546-.9-.03,10.785-9.706,5.637,0-1.512Z" transform="translate(142.037 99.828)" fill="#f1f2f2"/>
      <path id="Trazado_616025" data-name="Trazado 616025" d="M51.265,60.011l11.112-6.457L62.411,41.2,51.3,47.658Z" transform="translate(141.519 113.736)" fill="#bab7b1"/>
      <path id="Trazado_616026" data-name="Trazado 616026" d="M51.453,57.944l9.7-5.641.034-10.785-9.706,5.641Z" transform="translate(142.037 114.612)" fill="#737577"/>
      <path id="Trazado_616027" data-name="Trazado 616027" d="M59.617,51.687l.026-9.273,1.546-.9L61.158,52.3l-9.706,5.637,0-1.512Z" transform="translate(142.037 114.613)" fill="#f1f2f2"/>
      <path id="Trazado_616028" data-name="Trazado 616028" d="M45.8,52.471l11.112-6.457.034-12.353L45.83,40.118Z" transform="translate(126.423 92.923)" fill="#bab7b1"/>
      <path id="Trazado_616029" data-name="Trazado 616029" d="M45.984,50.4l9.706-5.641.03-10.785-9.706,5.641Z" transform="translate(126.942 93.798)" fill="#737577"/>
      <path id="Trazado_616030" data-name="Trazado 616030" d="M54.148,44.147l.026-9.274,1.546-.9-.03,10.785L45.984,50.4l0-1.512Z" transform="translate(126.942 93.8)" fill="#f1f2f2"/>
      <path id="Trazado_616031" data-name="Trazado 616031" d="M45.8,57.827,56.909,51.37l.034-12.353L45.83,45.474Z" transform="translate(126.423 107.707)" fill="#bab7b1"/>
      <path id="Trazado_616032" data-name="Trazado 616032" d="M45.984,55.76l9.706-5.641.03-10.785-9.706,5.641Z" transform="translate(126.942 108.583)" fill="#737577"/>
      <path id="Trazado_616033" data-name="Trazado 616033" d="M54.148,49.5l.026-9.274,1.546-.9L55.69,50.12,45.984,55.76l0-1.516Z" transform="translate(126.942 108.584)" fill="#f1f2f2"/>
      <path id="Trazado_616034" data-name="Trazado 616034" d="M45.8,63.183l11.112-6.457.034-12.353L45.83,50.829Z" transform="translate(126.423 122.492)" fill="#bab7b1"/>
      <path id="Trazado_616035" data-name="Trazado 616035" d="M45.984,61.116l9.706-5.641.03-10.785L46.014,50.33Z" transform="translate(126.942 123.367)" fill="#737577"/>
      <path id="Trazado_616036" data-name="Trazado 616036" d="M54.148,54.861l.026-9.274,1.546-.9-.03,10.789-9.706,5.637,0-1.512Z" transform="translate(126.942 123.366)" fill="#f1f2f2"/>
      <path id="Trazado_616037" data-name="Trazado 616037" d="M97.327,46.625,92.01,49.716,45.025,22.591V16.428Z" transform="translate(124.294 45.349)" fill="#bfbfbf"/>
      <path id="Trazado_616038" data-name="Trazado 616038" d="M84.711,16.428v6.16L35.967,50.916l-5.317-3.069Z" transform="translate(84.609 45.349)" fill="#a1a3a4"/>
      <path id="Trazado_616039" data-name="Trazado 616039" d="M29.407,9.2l-.188,66.186L86.827,108.65l.188-66.189Z" transform="translate(80.661 25.402)" fill="#bfbfbf"/>
      <path id="Trazado_616040" data-name="Trazado 616040" d="M44.538,109.635l59.548-34.6.184-66.186-59.545,34.6Z" transform="translate(122.949 24.415)" fill="#e5e4de"/>
      <path id="Trazado_616041" data-name="Trazado 616041" d="M88.817,0,29.268,34.6,86.876,67.863l59.548-34.6Z" transform="translate(80.797 0)" fill="#d2cec1"/>
      <path id="Trazado_616042" data-name="Trazado 616042" d="M32.118,30.777,80.862,2.449l46.984,27.125L79.1,57.9Z" transform="translate(88.663 6.76)" fill="#e5e4de"/>
      <path id="Trazado_616043" data-name="Trazado 616043" d="M56.091,30.918,67.2,24.461l.034-12.353L56.125,18.564Z" transform="translate(154.843 33.423)" fill="#bab7b1"/>
      <path id="Trazado_616044" data-name="Trazado 616044" d="M56.279,28.851l9.7-5.641.034-10.785-9.706,5.641Z" transform="translate(155.361 34.298)" fill="#737577"/>
      <path id="Trazado_616045" data-name="Trazado 616045" d="M64.443,22.594l.026-9.274,1.546-.9-.03,10.785-9.706,5.641,0-1.515Z" transform="translate(155.361 34.3)" fill="#f1f2f2"/>
      <path id="Trazado_616046" data-name="Trazado 616046" d="M56.091,36.273,67.2,29.817l.034-12.353L56.125,23.92Z" transform="translate(154.843 48.207)" fill="#bab7b1"/>
      <path id="Trazado_616047" data-name="Trazado 616047" d="M56.279,34.206l9.7-5.641.034-10.785-9.706,5.641Z" transform="translate(155.361 49.083)" fill="#737577"/>
      <path id="Trazado_616048" data-name="Trazado 616048" d="M64.443,27.949l.026-9.274,1.546-.9-.03,10.785L56.279,34.2l0-1.512Z" transform="translate(155.361 49.084)" fill="#f1f2f2"/>
      <path id="Trazado_616049" data-name="Trazado 616049" d="M56.091,41.629,67.2,35.172l.034-12.353L56.125,29.276Z" transform="translate(154.843 62.992)" fill="#bab7b1"/>
      <path id="Trazado_616050" data-name="Trazado 616050" d="M56.279,39.562l9.7-5.641.034-10.785-9.706,5.641Z" transform="translate(155.361 63.867)" fill="#737577"/>
      <path id="Trazado_616051" data-name="Trazado 616051" d="M64.443,33.305l.026-9.274,1.546-.9-.03,10.785-9.706,5.637,0-1.512Z" transform="translate(155.361 63.869)" fill="#f1f2f2"/>
      <path id="Trazado_616052" data-name="Trazado 616052" d="M51.319,33.683l11.112-6.457.034-12.353L51.353,21.329Z" transform="translate(141.67 41.055)" fill="#bab7b1"/>
      <path id="Trazado_616053" data-name="Trazado 616053" d="M51.507,31.615l9.7-5.641.034-10.785L51.537,20.83Z" transform="translate(142.188 41.931)" fill="#737577"/>
      <path id="Trazado_616054" data-name="Trazado 616054" d="M59.671,25.359l.026-9.274,1.546-.9-.03,10.785-9.706,5.637,0-1.512Z" transform="translate(142.188 41.932)" fill="#f1f2f2"/>
      <path id="Trazado_616055" data-name="Trazado 616055" d="M51.319,39.038l11.112-6.457.034-12.353L51.353,26.685Z" transform="translate(141.67 55.84)" fill="#bab7b1"/>
      <path id="Trazado_616056" data-name="Trazado 616056" d="M51.507,36.971l9.7-5.641.034-10.785-9.706,5.641Z" transform="translate(142.188 56.715)" fill="#737577"/>
      <path id="Trazado_616057" data-name="Trazado 616057" d="M59.671,30.714l.026-9.274,1.546-.9-.03,10.785-9.706,5.637,0-1.512Z" transform="translate(142.188 56.717)" fill="#f1f2f2"/>
      <path id="Trazado_616058" data-name="Trazado 616058" d="M51.319,44.394l11.112-6.457.034-12.353L51.353,32.041Z" transform="translate(141.67 70.625)" fill="#bab7b1"/>
      <path id="Trazado_616059" data-name="Trazado 616059" d="M51.507,42.327l9.7-5.641L61.243,25.9l-9.706,5.641Z" transform="translate(142.188 71.5)" fill="#737577"/>
      <path id="Trazado_616060" data-name="Trazado 616060" d="M59.671,36.07,59.7,26.8l1.546-.9-.03,10.785-9.706,5.637,0-1.512Z" transform="translate(142.188 71.501)" fill="#f1f2f2"/>
      <path id="Trazado_616061" data-name="Trazado 616061" d="M45.851,36.854,56.964,30.4,57,18.044,45.885,24.5Z" transform="translate(126.574 49.811)" fill="#bab7b1"/>
      <path id="Trazado_616062" data-name="Trazado 616062" d="M46.039,34.787l9.706-5.641.03-10.785L46.069,24Z" transform="translate(127.093 50.686)" fill="#737577"/>
      <path id="Trazado_616063" data-name="Trazado 616063" d="M54.2,28.533l.026-9.274,1.546-.9-.03,10.789-9.706,5.637,0-1.512Z" transform="translate(127.092 50.685)" fill="#f1f2f2"/>
      <path id="Trazado_616064" data-name="Trazado 616064" d="M45.851,42.21l11.112-6.457L57,23.4,45.885,29.857Z" transform="translate(126.574 64.595)" fill="#bab7b1"/>
      <path id="Trazado_616065" data-name="Trazado 616065" d="M46.039,40.143,55.745,34.5l.03-10.785-9.706,5.641Z" transform="translate(127.093 65.471)" fill="#737577"/>
      <path id="Trazado_616066" data-name="Trazado 616066" d="M54.2,33.886l.026-9.274,1.546-.9L55.745,34.5,46.039,40.14l0-1.512Z" transform="translate(127.092 65.472)" fill="#f1f2f2"/>
      <path id="Trazado_616067" data-name="Trazado 616067" d="M45.851,47.566l11.112-6.457L57,28.755,45.885,35.212Z" transform="translate(126.574 79.38)" fill="#bab7b1"/>
      <path id="Trazado_616068" data-name="Trazado 616068" d="M46.039,45.5l9.706-5.641.03-10.785-9.706,5.641Z" transform="translate(127.093 80.255)" fill="#737577"/>
      <path id="Trazado_616069" data-name="Trazado 616069" d="M54.2,39.241l.026-9.274,1.546-.9-.03,10.785L46.039,45.5l0-1.512Z" transform="translate(127.092 80.257)" fill="#f1f2f2"/>
      <path id="Trazado_616070" data-name="Trazado 616070" d="M97.382,31.008,92.064,34.1,45.08,6.974V.811Z" transform="translate(124.445 2.237)" fill="#bfbfbf"/>
      <path id="Trazado_616071" data-name="Trazado 616071" d="M84.765.811v6.16L36.021,35.3,30.7,32.23Z" transform="translate(84.759 2.238)" fill="#a1a3a4"/>
      <path id="Trazado_616072" data-name="Trazado 616072" d="M13.273,34.253l-.188,66.186L70.693,133.7l.188-66.189Z" transform="translate(36.123 94.558)" fill="#bfbfbf"/>
      <path id="Trazado_616073" data-name="Trazado 616073" d="M28.4,134.686l59.548-34.6L88.137,33.9,28.592,68.5Z" transform="translate(78.411 93.571)" fill="#e5e4de"/>
      <path id="Trazado_616074" data-name="Trazado 616074" d="M70.743,92.915l59.545-34.6-57.6-33.258-59.548,34.6Z" transform="translate(36.26 69.156)" fill="#d2cec1"/>
      <path id="Trazado_616075" data-name="Trazado 616075" d="M15.984,55.829,64.728,27.5l46.984,27.129L62.968,82.953Z" transform="translate(44.125 75.916)" fill="#e5e4de"/>
      <path id="Trazado_616076" data-name="Trazado 616076" d="M39.958,55.969,51.07,49.512,51.1,37.159,39.992,43.62Z" transform="translate(110.305 102.578)" fill="#bab7b1"/>
      <path id="Trazado_616077" data-name="Trazado 616077" d="M40.146,53.9l9.7-5.641.034-10.785-9.706,5.641Z" transform="translate(110.824 103.454)" fill="#737577"/>
      <path id="Trazado_616078" data-name="Trazado 616078" d="M48.31,47.648l.026-9.273,1.546-.9-.03,10.789L40.145,53.9l0-1.512Z" transform="translate(110.823 103.453)" fill="#f1f2f2"/>
      <path id="Trazado_616079" data-name="Trazado 616079" d="M39.958,61.325,51.07,54.868,51.1,42.515,39.992,48.971Z" transform="translate(110.305 117.363)" fill="#bab7b1"/>
      <path id="Trazado_616080" data-name="Trazado 616080" d="M40.146,59.258l9.7-5.641.034-10.785-9.706,5.641Z" transform="translate(110.824 118.238)" fill="#737577"/>
      <path id="Trazado_616081" data-name="Trazado 616081" d="M48.31,53l.026-9.274,1.546-.9-.03,10.785-9.706,5.637,0-1.512Z" transform="translate(110.823 118.24)" fill="#f1f2f2"/>
      <path id="Trazado_616082" data-name="Trazado 616082" d="M39.958,66.681,51.07,60.224,51.1,47.87,39.992,54.327Z" transform="translate(110.305 132.148)" fill="#bab7b1"/>
      <path id="Trazado_616083" data-name="Trazado 616083" d="M40.146,64.613l9.7-5.641.034-10.785-9.706,5.641Z" transform="translate(110.824 133.023)" fill="#737577"/>
      <path id="Trazado_616084" data-name="Trazado 616084" d="M48.31,58.356l.026-9.273,1.546-.9-.03,10.785-9.706,5.641,0-1.515Z" transform="translate(110.823 133.025)" fill="#f1f2f2"/>
      <path id="Trazado_616085" data-name="Trazado 616085" d="M35.186,58.734,46.3,52.277l.034-12.353L35.22,46.381Z" transform="translate(97.132 110.211)" fill="#bab7b1"/>
      <path id="Trazado_616086" data-name="Trazado 616086" d="M35.374,56.667l9.706-5.641.03-10.785L35.4,45.882Z" transform="translate(97.651 111.086)" fill="#737577"/>
      <path id="Trazado_616087" data-name="Trazado 616087" d="M43.538,50.41l.026-9.274,1.546-.9-.03,10.785-9.706,5.637,0-1.512Z" transform="translate(97.65 111.088)" fill="#f1f2f2"/>
      <path id="Trazado_616088" data-name="Trazado 616088" d="M35.186,64.09,46.3,57.633l.034-12.353L35.22,51.736Z" transform="translate(97.132 124.996)" fill="#bab7b1"/>
      <path id="Trazado_616089" data-name="Trazado 616089" d="M35.374,62.023l9.706-5.641L45.11,45.6,35.4,51.237Z" transform="translate(97.651 125.871)" fill="#737577"/>
      <path id="Trazado_616090" data-name="Trazado 616090" d="M43.538,55.766l.026-9.274,1.546-.9-.03,10.785-9.706,5.637,0-1.512Z" transform="translate(97.65 125.872)" fill="#f1f2f2"/>
      <path id="Trazado_616091" data-name="Trazado 616091" d="M35.186,69.445,46.3,62.988l.034-12.353L35.22,57.092Z" transform="translate(97.132 139.78)" fill="#bab7b1"/>
      <path id="Trazado_616092" data-name="Trazado 616092" d="M35.374,67.378l9.706-5.641.03-10.785L35.4,56.593Z" transform="translate(97.651 140.656)" fill="#737577"/>
      <path id="Trazado_616093" data-name="Trazado 616093" d="M43.538,61.121l.026-9.274,1.546-.9-.03,10.785-9.706,5.637,0-1.512Z" transform="translate(97.65 140.657)" fill="#f1f2f2"/>
      <path id="Trazado_616094" data-name="Trazado 616094" d="M29.717,61.906,40.83,55.449,40.864,43.1,29.751,49.552Z" transform="translate(82.036 118.967)" fill="#bab7b1"/>
      <path id="Trazado_616095" data-name="Trazado 616095" d="M29.905,59.839,39.611,54.2l.03-10.785-9.706,5.641Z" transform="translate(82.555 119.842)" fill="#737577"/>
      <path id="Trazado_616096" data-name="Trazado 616096" d="M38.069,53.582l.026-9.273,1.546-.9L39.611,54.2l-9.706,5.637,0-1.512Z" transform="translate(82.555 119.843)" fill="#f1f2f2"/>
      <path id="Trazado_616097" data-name="Trazado 616097" d="M29.717,67.261,40.83,60.8l.034-12.353L29.751,54.908Z" transform="translate(82.036 133.751)" fill="#bab7b1"/>
      <path id="Trazado_616098" data-name="Trazado 616098" d="M29.905,65.194l9.706-5.641.03-10.785-9.706,5.641Z" transform="translate(82.555 134.626)" fill="#737577"/>
      <path id="Trazado_616099" data-name="Trazado 616099" d="M38.069,58.937l.026-9.274,1.546-.9-.03,10.785-9.706,5.637,0-1.512Z" transform="translate(82.555 134.628)" fill="#f1f2f2"/>
      <path id="Trazado_616100" data-name="Trazado 616100" d="M29.717,72.617,40.83,66.16l.034-12.353L29.751,60.264Z" transform="translate(82.036 148.536)" fill="#bab7b1"/>
      <path id="Trazado_616101" data-name="Trazado 616101" d="M29.905,70.55l9.706-5.641.03-10.785-9.706,5.641Z" transform="translate(82.555 149.411)" fill="#737577"/>
      <path id="Trazado_616102" data-name="Trazado 616102" d="M38.069,64.293l.026-9.274,1.546-.9-.03,10.785-9.706,5.637,0-1.512Z" transform="translate(82.555 149.413)" fill="#f1f2f2"/>
      <path id="Trazado_616103" data-name="Trazado 616103" d="M81.248,56.059,75.93,59.15,28.946,32.026V25.862Z" transform="translate(79.907 71.393)" fill="#bfbfbf"/>
      <path id="Trazado_616104" data-name="Trazado 616104" d="M68.632,25.862v6.164L19.888,60.35,14.57,57.282Z" transform="translate(40.221 71.394)" fill="#a1a3a4"/>
      <path id="Trazado_616105" data-name="Trazado 616105" d="M13.328,18.636,13.14,84.822l57.608,33.262.188-66.189Z" transform="translate(36.274 51.446)" fill="#bfbfbf"/>
      <path id="Trazado_616106" data-name="Trazado 616106" d="M28.459,119.069,88,84.465l.188-66.186-59.545,34.6Z" transform="translate(78.562 50.46)" fill="#e5e4de"/>
      <path id="Trazado_616107" data-name="Trazado 616107" d="M70.8,77.3l59.545-34.6L72.738,9.435,13.19,44.039Z" transform="translate(36.411 26.044)" fill="#d2cec1"/>
      <path id="Trazado_616108" data-name="Trazado 616108" d="M16.039,40.212,64.783,11.883l46.984,27.129L63.023,67.336Z" transform="translate(44.276 32.804)" fill="#e5e4de"/>
      <path id="Trazado_616109" data-name="Trazado 616109" d="M40.012,40.352,51.125,33.9l.034-12.353L40.046,28Z" transform="translate(110.456 59.467)" fill="#bab7b1"/>
      <path id="Trazado_616110" data-name="Trazado 616110" d="M40.2,38.285l9.706-5.641.03-10.785L40.23,27.5Z" transform="translate(110.974 60.342)" fill="#737577"/>
      <path id="Trazado_616111" data-name="Trazado 616111" d="M48.364,32.028l.026-9.274,1.546-.9-.03,10.785L40.2,38.282l0-1.512Z" transform="translate(110.974 60.344)" fill="#f1f2f2"/>
      <path id="Trazado_616112" data-name="Trazado 616112" d="M40.012,45.708l11.112-6.457L51.159,26.9,40.046,33.354Z" transform="translate(110.456 74.251)" fill="#bab7b1"/>
      <path id="Trazado_616113" data-name="Trazado 616113" d="M40.2,43.641,49.906,38l.03-10.785L40.23,32.855Z" transform="translate(110.974 75.127)" fill="#737577"/>
      <path id="Trazado_616114" data-name="Trazado 616114" d="M48.364,37.384l.026-9.274,1.546-.9L49.906,38,40.2,43.637l0-1.512Z" transform="translate(110.974 75.128)" fill="#f1f2f2"/>
      <path id="Trazado_616115" data-name="Trazado 616115" d="M40.012,51.063l11.112-6.457.034-12.353L40.046,38.71Z" transform="translate(110.456 89.036)" fill="#bab7b1"/>
      <path id="Trazado_616116" data-name="Trazado 616116" d="M40.2,49l9.706-5.641.03-10.785L40.23,38.211Z" transform="translate(110.974 89.911)" fill="#737577"/>
      <path id="Trazado_616117" data-name="Trazado 616117" d="M48.364,42.739l.026-9.274,1.546-.9-.03,10.785L40.2,49l0-1.516Z" transform="translate(110.974 89.912)" fill="#f1f2f2"/>
      <path id="Trazado_616118" data-name="Trazado 616118" d="M35.24,43.117,46.353,36.66l.034-12.353L35.274,30.764Z" transform="translate(97.283 67.099)" fill="#bab7b1"/>
      <path id="Trazado_616119" data-name="Trazado 616119" d="M35.428,41.05l9.7-5.641.034-10.785-9.706,5.641Z" transform="translate(97.801 67.975)" fill="#737577"/>
      <path id="Trazado_616120" data-name="Trazado 616120" d="M43.592,34.793l.026-9.274,1.546-.9-.03,10.785-9.706,5.637,0-1.512Z" transform="translate(97.801 67.976)" fill="#f1f2f2"/>
      <path id="Trazado_616121" data-name="Trazado 616121" d="M35.24,48.473l11.112-6.457.034-12.353L35.274,36.119Z" transform="translate(97.283 81.884)" fill="#bab7b1"/>
      <path id="Trazado_616122" data-name="Trazado 616122" d="M35.428,46.406l9.7-5.641.034-10.785L35.458,35.62Z" transform="translate(97.801 82.759)" fill="#737577"/>
      <path id="Trazado_616123" data-name="Trazado 616123" d="M43.592,40.149l.026-9.274,1.546-.9-.03,10.785-9.706,5.641,0-1.516Z" transform="translate(97.801 82.761)" fill="#f1f2f2"/>
      <path id="Trazado_616124" data-name="Trazado 616124" d="M35.24,53.828l11.112-6.457.034-12.353L35.274,41.475Z" transform="translate(97.283 96.668)" fill="#bab7b1"/>
      <path id="Trazado_616125" data-name="Trazado 616125" d="M35.428,51.761l9.7-5.641.034-10.785-9.706,5.641Z" transform="translate(97.801 97.544)" fill="#737577"/>
      <path id="Trazado_616126" data-name="Trazado 616126" d="M43.592,45.5l.026-9.274,1.546-.9-.03,10.785-9.706,5.637,0-1.512Z" transform="translate(97.801 97.545)" fill="#f1f2f2"/>
      <path id="Trazado_616127" data-name="Trazado 616127" d="M29.772,46.289l11.112-6.457.034-12.353L29.806,33.935Z" transform="translate(82.187 75.855)" fill="#bab7b1"/>
      <path id="Trazado_616128" data-name="Trazado 616128" d="M29.96,44.222l9.706-5.641L39.7,27.8,29.99,33.436Z" transform="translate(82.706 76.73)" fill="#737577"/>
      <path id="Trazado_616129" data-name="Trazado 616129" d="M38.124,37.965l.026-9.274,1.546-.9-.03,10.785L29.96,44.218l0-1.512Z" transform="translate(82.705 76.732)" fill="#f1f2f2"/>
      <path id="Trazado_616130" data-name="Trazado 616130" d="M29.772,51.644l11.112-6.457.034-12.353L29.806,39.291Z" transform="translate(82.187 90.64)" fill="#bab7b1"/>
      <path id="Trazado_616131" data-name="Trazado 616131" d="M29.96,49.577l9.706-5.641.03-10.785L29.99,38.792Z" transform="translate(82.706 91.515)" fill="#737577"/>
      <path id="Trazado_616132" data-name="Trazado 616132" d="M38.124,43.32l.026-9.274,1.546-.9-.03,10.785L29.96,49.574l0-1.512Z" transform="translate(82.705 91.516)" fill="#f1f2f2"/>
      <path id="Trazado_616133" data-name="Trazado 616133" d="M29.772,57l11.112-6.457.034-12.353L29.806,44.647Z" transform="translate(82.187 105.424)" fill="#bab7b1"/>
      <path id="Trazado_616134" data-name="Trazado 616134" d="M29.96,54.933l9.706-5.641.03-10.785L29.99,44.148Z" transform="translate(82.706 106.299)" fill="#737577"/>
      <path id="Trazado_616135" data-name="Trazado 616135" d="M38.124,48.676,38.15,39.4l1.546-.9-.03,10.785L29.96,54.93l0-1.512Z" transform="translate(82.705 106.301)" fill="#f1f2f2"/>
      <path id="Trazado_616136" data-name="Trazado 616136" d="M81.3,40.442l-5.317,3.091L29,16.409V10.245Z" transform="translate(80.058 28.281)" fill="#bfbfbf"/>
      <path id="Trazado_616137" data-name="Trazado 616137" d="M68.686,10.245V16.4L19.942,44.733l-5.317-3.069Z" transform="translate(40.372 28.282)" fill="#a1a3a4"/>
      <path id="Trazado_616138" data-name="Trazado 616138" d="M25.341,55.432,14.229,48.975,14.2,36.621l11.112,6.457Z" transform="translate(39.186 101.095)" fill="#bab7b1"/>
      <path id="Trazado_616139" data-name="Trazado 616139" d="M24.118,53.365l-9.7-5.641-.034-10.785,9.706,5.641Z" transform="translate(39.703 101.97)" fill="#737577"/>
      <path id="Trazado_616140" data-name="Trazado 616140" d="M15.954,47.108l-.026-9.274-1.546-.9.03,10.785,9.706,5.637,0-1.512Z" transform="translate(39.703 101.972)" fill="#f1f2f2"/>
      <path id="Trazado_616141" data-name="Trazado 616141" d="M25.341,60.787,14.229,54.331,14.2,41.977l11.112,6.457Z" transform="translate(39.186 115.879)" fill="#bab7b1"/>
      <path id="Trazado_616142" data-name="Trazado 616142" d="M24.118,58.72l-9.7-5.641-.034-10.785,9.706,5.641Z" transform="translate(39.703 116.755)" fill="#737577"/>
      <path id="Trazado_616143" data-name="Trazado 616143" d="M15.954,52.463l-.026-9.274-1.546-.9.03,10.785,9.706,5.637,0-1.512Z" transform="translate(39.703 116.756)" fill="#f1f2f2"/>
      <path id="Trazado_616144" data-name="Trazado 616144" d="M25.341,66.143,14.229,59.686,14.2,47.333,25.308,53.79Z" transform="translate(39.186 130.664)" fill="#bab7b1"/>
      <path id="Trazado_616145" data-name="Trazado 616145" d="M24.118,64.076l-9.7-5.641L14.382,47.65l9.706,5.641Z" transform="translate(39.703 131.539)" fill="#737577"/>
      <path id="Trazado_616146" data-name="Trazado 616146" d="M15.954,57.819l-.026-9.274-1.546-.9.03,10.785,9.706,5.637,0-1.512Z" transform="translate(39.703 131.541)" fill="#f1f2f2"/>
      <path id="Trazado_616147" data-name="Trazado 616147" d="M30.113,58.2,19,51.74l-.034-12.353L30.08,45.843Z" transform="translate(52.36 108.728)" fill="#bab7b1"/>
      <path id="Trazado_616148" data-name="Trazado 616148" d="M28.89,56.129l-9.7-5.641L19.154,39.7l9.706,5.641Z" transform="translate(52.876 109.603)" fill="#737577"/>
      <path id="Trazado_616149" data-name="Trazado 616149" d="M20.726,49.875,20.7,40.6l-1.546-.9.03,10.789,9.706,5.637,0-1.512Z" transform="translate(52.876 109.602)" fill="#f1f2f2"/>
      <path id="Trazado_616150" data-name="Trazado 616150" d="M30.113,63.552,19,57.1l-.034-12.353L30.08,51.2Z" transform="translate(52.36 123.512)" fill="#bab7b1"/>
      <path id="Trazado_616151" data-name="Trazado 616151" d="M28.89,61.485l-9.7-5.641-.034-10.785L28.86,50.7Z" transform="translate(52.876 124.387)" fill="#737577"/>
      <path id="Trazado_616152" data-name="Trazado 616152" d="M20.726,55.228,20.7,45.955l-1.546-.9.03,10.785,9.706,5.637,0-1.512Z" transform="translate(52.876 124.389)" fill="#f1f2f2"/>
      <path id="Trazado_616153" data-name="Trazado 616153" d="M30.113,68.908,19,62.451,18.967,50.1,30.08,56.554Z" transform="translate(52.36 138.296)" fill="#bab7b1"/>
      <path id="Trazado_616154" data-name="Trazado 616154" d="M28.89,66.841l-9.7-5.641-.034-10.785,9.706,5.641Z" transform="translate(52.876 139.172)" fill="#737577"/>
      <path id="Trazado_616155" data-name="Trazado 616155" d="M20.726,60.584,20.7,51.31l-1.546-.9.03,10.785,9.706,5.637,0-1.512Z" transform="translate(52.876 139.173)" fill="#f1f2f2"/>
      <path id="Trazado_616156" data-name="Trazado 616156" d="M35.582,61.368,24.469,54.912l-.034-12.353,11.112,6.457Z" transform="translate(67.455 117.483)" fill="#bab7b1"/>
      <path id="Trazado_616157" data-name="Trazado 616157" d="M34.359,59.3,24.653,53.66l-.03-10.785,9.706,5.641Z" transform="translate(67.972 118.358)" fill="#737577"/>
      <path id="Trazado_616158" data-name="Trazado 616158" d="M26.195,53.044l-.026-9.273-1.546-.9.03,10.785L34.359,59.3l0-1.512Z" transform="translate(67.972 118.36)" fill="#f1f2f2"/>
      <path id="Trazado_616159" data-name="Trazado 616159" d="M35.582,66.724,24.469,60.267l-.034-12.353,11.112,6.457Z" transform="translate(67.455 132.268)" fill="#bab7b1"/>
      <path id="Trazado_616160" data-name="Trazado 616160" d="M34.359,64.657,24.653,59.02l-.03-10.789,9.706,5.641Z" transform="translate(67.972 133.143)" fill="#737577"/>
      <path id="Trazado_616161" data-name="Trazado 616161" d="M26.195,58.4l-.026-9.274-1.546-.9.03,10.785,9.706,5.637,0-1.512Z" transform="translate(67.972 133.144)" fill="#f1f2f2"/>
      <path id="Trazado_616162" data-name="Trazado 616162" d="M35.582,72.08,24.469,65.623l-.034-12.353,11.112,6.457Z" transform="translate(67.455 147.052)" fill="#bab7b1"/>
      <path id="Trazado_616163" data-name="Trazado 616163" d="M34.359,70.012l-9.706-5.641-.03-10.785,9.706,5.641Z" transform="translate(67.972 147.927)" fill="#737577"/>
      <path id="Trazado_616164" data-name="Trazado 616164" d="M26.195,63.755l-.026-9.274-1.546-.9.03,10.785,9.706,5.637,0-1.512Z" transform="translate(67.972 147.929)" fill="#f1f2f2"/>
      <path id="Trazado_616165" data-name="Trazado 616165" d="M25.287,39.815,14.174,33.358,14.141,21l11.112,6.461Z" transform="translate(39.036 57.983)" fill="#bab7b1"/>
      <path id="Trazado_616166" data-name="Trazado 616166" d="M24.064,37.747l-9.706-5.641-.03-10.785,9.706,5.641Z" transform="translate(39.552 58.858)" fill="#737577"/>
      <path id="Trazado_616167" data-name="Trazado 616167" d="M15.9,31.491l-.026-9.274-1.546-.9.03,10.785,9.706,5.637,0-1.512Z" transform="translate(39.553 58.86)" fill="#f1f2f2"/>
      <path id="Trazado_616168" data-name="Trazado 616168" d="M25.287,45.17,14.174,38.713,14.141,26.36l11.112,6.457Z" transform="translate(39.036 72.768)" fill="#bab7b1"/>
      <path id="Trazado_616169" data-name="Trazado 616169" d="M24.064,43.1l-9.706-5.641-.03-10.785,9.706,5.641Z" transform="translate(39.552 73.643)" fill="#737577"/>
      <path id="Trazado_616170" data-name="Trazado 616170" d="M15.9,36.846l-.026-9.274-1.546-.9.03,10.785L24.064,43.1l0-1.512Z" transform="translate(39.553 73.644)" fill="#f1f2f2"/>
      <path id="Trazado_616171" data-name="Trazado 616171" d="M25.287,50.526,14.174,44.069l-.034-12.353,11.112,6.457Z" transform="translate(39.036 87.552)" fill="#bab7b1"/>
      <path id="Trazado_616172" data-name="Trazado 616172" d="M24.064,48.459l-9.706-5.641-.03-10.785,9.706,5.641Z" transform="translate(39.552 88.428)" fill="#737577"/>
      <path id="Trazado_616173" data-name="Trazado 616173" d="M15.9,42.2l-.026-9.274-1.546-.9.03,10.785,9.706,5.641,0-1.516Z" transform="translate(39.553 88.429)" fill="#f1f2f2"/>
      <path id="Trazado_616174" data-name="Trazado 616174" d="M30.059,42.579,18.946,36.123l-.034-12.353,11.112,6.457Z" transform="translate(52.209 65.615)" fill="#bab7b1"/>
      <path id="Trazado_616175" data-name="Trazado 616175" d="M28.836,40.512l-9.7-5.641L19.1,24.086l9.706,5.641Z" transform="translate(52.725 66.491)" fill="#737577"/>
      <path id="Trazado_616176" data-name="Trazado 616176" d="M20.672,34.255l-.026-9.274-1.546-.9.03,10.785,9.706,5.637,0-1.512Z" transform="translate(52.726 66.492)" fill="#f1f2f2"/>
      <path id="Trazado_616177" data-name="Trazado 616177" d="M30.059,47.935,18.946,41.478l-.034-12.353,11.112,6.457Z" transform="translate(52.209 80.4)" fill="#bab7b1"/>
      <path id="Trazado_616178" data-name="Trazado 616178" d="M28.836,45.868l-9.7-5.641L19.1,29.442l9.706,5.641Z" transform="translate(52.725 81.276)" fill="#737577"/>
      <path id="Trazado_616179" data-name="Trazado 616179" d="M20.672,39.611l-.026-9.274-1.546-.9.03,10.785,9.706,5.637,0-1.512Z" transform="translate(52.726 81.277)" fill="#f1f2f2"/>
      <path id="Trazado_616180" data-name="Trazado 616180" d="M30.059,53.291,18.946,46.834,18.912,34.48l11.112,6.457Z" transform="translate(52.209 95.185)" fill="#bab7b1"/>
      <path id="Trazado_616181" data-name="Trazado 616181" d="M28.836,51.224l-9.7-5.641L19.1,34.8l9.706,5.641Z" transform="translate(52.725 96.06)" fill="#737577"/>
      <path id="Trazado_616182" data-name="Trazado 616182" d="M20.672,44.967l-.026-9.274L19.1,34.8l.03,10.785,9.706,5.637,0-1.512Z" transform="translate(52.726 96.062)" fill="#f1f2f2"/>
      <path id="Trazado_616183" data-name="Trazado 616183" d="M35.527,45.751,24.415,39.294l-.034-12.353L35.493,33.4Z" transform="translate(67.304 74.371)" fill="#bab7b1"/>
      <path id="Trazado_616184" data-name="Trazado 616184" d="M34.3,43.684,24.6,38.043l-.03-10.785L34.274,32.9Z" transform="translate(67.821 75.247)" fill="#737577"/>
      <path id="Trazado_616185" data-name="Trazado 616185" d="M26.14,37.427l-.026-9.274-1.546-.9.03,10.785L34.3,43.681l0-1.512Z" transform="translate(67.821 75.248)" fill="#f1f2f2"/>
      <path id="Trazado_616186" data-name="Trazado 616186" d="M35.527,51.107,24.415,44.65,24.381,32.3l11.112,6.457Z" transform="translate(67.304 89.156)" fill="#bab7b1"/>
      <path id="Trazado_616187" data-name="Trazado 616187" d="M34.3,49.04,24.6,43.4l-.03-10.785,9.706,5.641Z" transform="translate(67.821 90.031)" fill="#737577"/>
      <path id="Trazado_616188" data-name="Trazado 616188" d="M26.14,42.783l-.026-9.274-1.546-.9L24.6,43.4,34.3,49.037l0-1.512Z" transform="translate(67.821 90.033)" fill="#f1f2f2"/>
      <path id="Trazado_616189" data-name="Trazado 616189" d="M35.527,56.462,24.415,50.006l-.034-12.353,11.112,6.457Z" transform="translate(67.304 103.94)" fill="#bab7b1"/>
      <path id="Trazado_616190" data-name="Trazado 616190" d="M34.3,54.4,24.6,48.755l-.03-10.785,9.706,5.641Z" transform="translate(67.821 104.816)" fill="#737577"/>
      <path id="Trazado_616191" data-name="Trazado 616191" d="M26.14,48.138l-.026-9.274-1.546-.9.03,10.785L34.3,54.392l0-1.512Z" transform="translate(67.821 104.817)" fill="#f1f2f2"/>
    </g>
  </g>
</svg>
