<svg xmlns="http://www.w3.org/2000/svg" xmlns:xlink="http://www.w3.org/1999/xlink" width="109" height="109" viewBox="0 0 109 109">
  <defs>
    <clipPath id="clip-path">
      <rect id="Rect치ngulo_378996" data-name="Rect치ngulo 378996" width="50.189" height="67.131" fill="none"/>
    </clipPath>
  </defs>
  <g id="img2" transform="translate(-287.668 -4447.437)">
    <path id="Elipse_5845" data-name="Elipse 5845" d="M53.5,0A53.5,53.5,0,1,1,0,53.5,53.5,53.5,0,0,1,53.5,0Z" transform="translate(288.668 4448.437)" fill="#fff" stroke="#b9daff" stroke-width="2"/>
    <g id="Grupo_1075266" data-name="Grupo 1075266" transform="translate(317.073 4468.371)">
      <g id="Grupo_1075265" data-name="Grupo 1075265" clip-path="url(#clip-path)">
        <path id="Trazado_616494" data-name="Trazado 616494" d="M59.363,615.776c-.134-.521-.317-1.029-.482-1.532-.2-.491-.4-.975-.625-1.426a11.18,11.18,0,0,0-.711-1.27,11.026,11.026,0,0,0-.746-1.065,9.835,9.835,0,0,0-1.345-1.4,5.088,5.088,0,0,0-.6-.429s.157.217.4.6c.118.2.259.432.411.707s.307.6.491.929c.157.352.345.717.513,1.122s.335.831.512,1.27.3.917.478,1.381c.126.483.294.959.413,1.452.109.477.253.944.344,1.418h1.309c-.01-.066-.02-.131-.03-.2-.066-.524-.222-1.042-.335-1.566" transform="translate(-49.612 -550.43)" fill="#0a333f"/>
        <path id="Trazado_616495" data-name="Trazado 616495" d="M421.819,621.02c.175-.464.3-.943.478-1.381s.329-.875.511-1.27.356-.771.514-1.122c.184-.334.332-.66.491-.929s.294-.51.412-.707c.24-.387.4-.6.4-.6a5.115,5.115,0,0,0-.594.429,9.777,9.777,0,0,0-1.345,1.4,11.108,11.108,0,0,0-.746,1.066,11.377,11.377,0,0,0-.711,1.27c-.227.45-.423.935-.625,1.426-.165.5-.347,1.011-.482,1.532-.085.395-.194.785-.271,1.178H421.2c.07-.276.145-.553.21-.832.119-.493.287-.969.413-1.452" transform="translate(-379.683 -556.172)" fill="#0a333f"/>
        <path id="Trazado_616496" data-name="Trazado 616496" d="M54.063,250.35S53.5,263.445,50.3,268.133c0,0,17.475,10.762,41.344-.32a25.126,25.126,0,0,1-3.09-16.09Z" transform="translate(-45.493 -226.401)" fill="#703d18"/>
        <rect id="Rect치ngulo_378995" data-name="Rect치ngulo 378995" width="12.508" height="14.797" transform="translate(18.866 39.804)" fill="#fff"/>
        <path id="Trazado_616497" data-name="Trazado 616497" d="M196.99,401.127l12.894-7.223-12.9-2.959Z" transform="translate(-178.143 -353.546)" fill="#aeaeaf"/>
        <path id="Trazado_616498" data-name="Trazado 616498" d="M96.772,71.171c0,11.116,6.945,20.149,15.583,20.4V54.784c-8.489.276-15.583,5.426-15.583,16.387" transform="translate(-87.514 -49.543)" fill="#dfe5e1"/>
        <path id="Trazado_616499" data-name="Trazado 616499" d="M260.391,54.648c-.242,0-.484.005-.725.013V91.445c.121,0,.241.011.364.011,8.807,0,15.946-9.137,15.946-20.408s-6.777-16.4-15.584-16.4" transform="translate(-234.825 -49.42)" fill="#fff"/>
        <path id="Trazado_616500" data-name="Trazado 616500" d="M98.327,11.524a12.96,12.96,0,0,0,10.289,9.465S112.32,0,93.389,0,73.634,12.347,73.634,20.989c0,0,13.993,1.235,24.693-9.465" transform="translate(-66.59)" fill="#703d18"/>
        <path id="Trazado_616501" data-name="Trazado 616501" d="M412.491,202c-.343,2.353.316,4.4,1.471,4.568s2.37-1.6,2.712-3.952-.316-4.4-1.471-4.568-2.369,1.6-2.711,3.952" transform="translate(-372.949 -179.094)" fill="#fff"/>
        <path id="Trazado_616502" data-name="Trazado 616502" d="M71.392,199.433c.224,2.322-.454,4.289-1.514,4.392s-2.1-1.7-2.323-4.018.454-4.289,1.514-4.392,2.1,1.7,2.323,4.019" transform="translate(-61.054 -176.717)" fill="#dfe5e1"/>
        <path id="Trazado_616503" data-name="Trazado 616503" d="M339.017,521.33l-2.853.2,2.241,1.834-3.518,7.459h8.128c.077-.392.186-.783.271-1.178.134-.521.317-1.029.482-1.531.2-.491.4-.976.624-1.426a11.321,11.321,0,0,1,.711-1.27,11.1,11.1,0,0,1,.746-1.066,9.738,9.738,0,0,1,1.345-1.4,5.141,5.141,0,0,1,.594-.429s-.156.217-.4.6c-.118.2-.259.432-.412.707s-.307.595-.491.929c-.157.351-.345.717-.514,1.122s-.335.83-.512,1.27-.3.917-.478,1.381c-.126.483-.294.959-.413,1.452-.064.279-.139.556-.21.832h8.676c-1.248-4.757-5.017-15.13-14.611-18.057l1,.411Z" transform="translate(-302.85 -463.717)" fill="#2c5871"/>
        <path id="Trazado_616504" data-name="Trazado 616504" d="M8.463,530.636c-.119-.493-.287-.969-.413-1.452-.175-.464-.3-.943-.478-1.381s-.329-.875-.512-1.27-.356-.77-.513-1.122c-.185-.334-.332-.66-.491-.929s-.293-.511-.411-.707c-.24-.387-.4-.6-.4-.6a5.094,5.094,0,0,1,.6.429A9.837,9.837,0,0,1,7.188,525a11.018,11.018,0,0,1,.746,1.065,11.181,11.181,0,0,1,.711,1.27c.228.45.423.935.625,1.426.165.5.347,1.011.482,1.532.113.524.269,1.042.335,1.566.01.066.02.132.03.2h8.2L13.957,524.6l2.446-2.037-3.26-.2.407-7.131,2.054-1.1c-3.671,1-13.333,4.833-15.6,17.927H8.807c-.091-.475-.235-.942-.344-1.418" transform="translate(0 -464.945)" fill="#2c5871"/>
        <path id="Trazado_616505" data-name="Trazado 616505" d="M181.974,512.051l-5.484-.825-.078.077-.351.343,5.127,15.083.918,2.7h2.234V512.478Z" transform="translate(-159.219 -462.321)" fill="#a8d7e1"/>
        <path id="Trazado_616506" data-name="Trazado 616506" d="M270.366,503.068l-5.116,2.51-2.645-.478v16.952h2.9l.715-2.7,3.9-14.708.393-1.364Z" transform="translate(-237.484 -454.943)" fill="#c6e8ee"/>
        <path id="Trazado_616507" data-name="Trazado 616507" d="M297.666,503.573l-1-.41-2.468-1.016-.086.3-.393,1.364-3.9,13.541-1.114,3.868h4.417l3.518-7.459-2.241-1.834,2.853-.2Z" transform="translate(-261.092 -454.109)" fill="#0a333f"/>
        <path id="Trazado_616508" data-name="Trazado 616508" d="M146.2,523.862l-5.124-14.65-.14-.4-.1-.276-1,.535-2.054,1.1-.408,7.131,3.26.2-2.446,2.037L142.549,527H147.3Z" transform="translate(-124.234 -459.886)" fill="#0a333f"/>
        <path id="Trazado_616509" data-name="Trazado 616509" d="M175.828,489.367l6.316,3.464-5.465,7.257-3.093-8.887Z" transform="translate(-156.981 -442.552)" fill="#8cc2d6"/>
        <path id="Trazado_616510" data-name="Trazado 616510" d="M269.359,487.241l1.63,1.426-2.49,8.676-5.456-6.435Z" transform="translate(-237.88 -440.63)" fill="#8cc2d6"/>
        <path id="Trazado_616511" data-name="Trazado 616511" d="M82.116,60.836S84.863,47,98.067,47s16.69,12.042,16.69,12.042l-2.007.211a14.965,14.965,0,0,0-14.313-9.084c-11.038,0-14.947,10.669-14.947,10.669Z" transform="translate(-74.26 -42.502)" fill="#0a333f"/>
        <path id="Trazado_616512" data-name="Trazado 616512" d="M407.856,183.921s1.268,10.774.95,11.514c0,0,4.226.634,4.331-2.746v-5.81a3.764,3.764,0,0,0-2.641-2.957h-2.219" transform="translate(-368.839 -166.326)" fill="#2c5871"/>
        <path id="Trazado_616513" data-name="Trazado 616513" d="M222.332,318.223s9.342-.732,13.145-5.186c0,0,.946-.671,1.618.671s-9.334,5.856-14.763,6.1c0,0-.244.976-2.927,1.037s-3.294-.854-3.294-.854a1.628,1.628,0,0,1,.244-2.5,3.438,3.438,0,0,1,2.8-.631s2.627.143,3.175,1.363" transform="translate(-194.982 -282.939)" fill="#0a333f"/>
      </g>
    </g>
  </g>
</svg>
