<svg xmlns="http://www.w3.org/2000/svg" xmlns:xlink="http://www.w3.org/1999/xlink" width="400" height="307.091" viewBox="0 0 400 307.091">
  <defs>
    <clipPath id="clip-path">
      <rect id="Rectángulo_378920" data-name="Rectángulo 378920" width="235.195" height="268.017" fill="none"/>
    </clipPath>
    <clipPath id="clip-path-2">
      <rect id="Rectángulo_378899" data-name="Rectángulo 378899" width="235.193" height="268.018" fill="none"/>
    </clipPath>
    <clipPath id="clip-path-3">
      <rect id="Rectángulo_378891" data-name="Rectángulo 378891" width="12.928" height="11.284" fill="none"/>
    </clipPath>
    <clipPath id="clip-path-4">
      <rect id="Rectángulo_378892" data-name="Rectángulo 378892" width="12.956" height="11.254" fill="none"/>
    </clipPath>
    <clipPath id="clip-path-5">
      <rect id="Rectángulo_378893" data-name="Rectángulo 378893" width="16.494" height="68.038" fill="none"/>
    </clipPath>
    <clipPath id="clip-path-6">
      <rect id="Rectángulo_378894" data-name="Rectángulo 378894" width="16.494" height="61.182" fill="none"/>
    </clipPath>
    <clipPath id="clip-path-7">
      <rect id="Rectángulo_378895" data-name="Rectángulo 378895" width="12.855" height="13.562" fill="none"/>
    </clipPath>
    <clipPath id="clip-path-8">
      <rect id="Rectángulo_378896" data-name="Rectángulo 378896" width="11.788" height="11.624" fill="none"/>
    </clipPath>
    <clipPath id="clip-path-9">
      <rect id="Rectángulo_378897" data-name="Rectángulo 378897" width="45.118" height="59.796" fill="none"/>
    </clipPath>
    <clipPath id="clip-path-10">
      <rect id="Rectángulo_378898" data-name="Rectángulo 378898" width="98.64" height="31.374" fill="none"/>
    </clipPath>
    <clipPath id="clip-path-11">
      <path id="Trazado_615933" data-name="Trazado 615933" d="M13.543,41.278,34,53.168l31.486-18.18-28.04-13.95Z" transform="translate(-13.543 -21.038)" fill="none"/>
    </clipPath>
    <clipPath id="clip-path-13">
      <rect id="Rectángulo_378900" data-name="Rectángulo 378900" width="104.556" height="60.549" fill="none"/>
    </clipPath>
    <clipPath id="clip-path-14">
      <rect id="Rectángulo_378901" data-name="Rectángulo 378901" width="12.145" height="11.164" fill="none"/>
    </clipPath>
    <clipPath id="clip-path-15">
      <rect id="Rectángulo_378902" data-name="Rectángulo 378902" width="0.479" height="4.449" fill="none"/>
    </clipPath>
    <clipPath id="clip-path-16">
      <rect id="Rectángulo_378903" data-name="Rectángulo 378903" width="0.27" height="3.726" fill="none"/>
    </clipPath>
    <clipPath id="clip-path-17">
      <rect id="Rectángulo_378904" data-name="Rectángulo 378904" width="3.448" height="2.87" fill="none"/>
    </clipPath>
    <clipPath id="clip-path-18">
      <rect id="Rectángulo_378905" data-name="Rectángulo 378905" width="7.027" height="14.278" fill="none"/>
    </clipPath>
    <clipPath id="clip-path-19">
      <rect id="Rectángulo_378906" data-name="Rectángulo 378906" width="6.594" height="11.271" fill="none"/>
    </clipPath>
    <clipPath id="clip-path-20">
      <rect id="Rectángulo_378907" data-name="Rectángulo 378907" width="16.588" height="34.558" fill="none"/>
    </clipPath>
    <clipPath id="clip-path-21">
      <rect id="Rectángulo_378908" data-name="Rectángulo 378908" width="4.748" height="2.887" fill="none"/>
    </clipPath>
    <clipPath id="clip-path-22">
      <rect id="Rectángulo_378909" data-name="Rectángulo 378909" width="16.588" height="31.134" fill="none"/>
    </clipPath>
    <clipPath id="clip-path-23">
      <rect id="Rectángulo_378910" data-name="Rectángulo 378910" width="3.708" height="1.311" fill="none"/>
    </clipPath>
    <clipPath id="clip-path-24">
      <rect id="Rectángulo_378911" data-name="Rectángulo 378911" width="16.589" height="37.354" fill="none"/>
    </clipPath>
    <clipPath id="clip-path-25">
      <rect id="Rectángulo_378912" data-name="Rectángulo 378912" width="42.521" height="67.908" fill="none"/>
    </clipPath>
    <clipPath id="clip-path-26">
      <rect id="Rectángulo_378913" data-name="Rectángulo 378913" width="32.454" height="65.26" fill="none"/>
    </clipPath>
    <clipPath id="clip-path-27">
      <rect id="Rectángulo_378914" data-name="Rectángulo 378914" width="11.856" height="11.689" fill="none"/>
    </clipPath>
    <clipPath id="clip-path-28">
      <rect id="Rectángulo_378915" data-name="Rectángulo 378915" width="1.292" height="6.439" fill="none"/>
    </clipPath>
    <clipPath id="clip-path-29">
      <rect id="Rectángulo_378916" data-name="Rectángulo 378916" width="0.619" height="6.233" fill="none"/>
    </clipPath>
    <clipPath id="clip-path-30">
      <rect id="Rectángulo_378917" data-name="Rectángulo 378917" width="0.652" height="3.38" fill="none"/>
    </clipPath>
    <clipPath id="clip-path-31">
      <rect id="Rectángulo_378918" data-name="Rectángulo 378918" width="0.653" height="2.475" fill="none"/>
    </clipPath>
  </defs>
  <g id="img3" transform="translate(-599.999 -1713.213)">
    <g id="Image_Place_Holder" data-name="Image Place Holder" transform="translate(599.999 1749.534)">
      <rect id="Image_Place_Holder-2" data-name="Image Place Holder" width="400" height="270.769" rx="10" fill="#b9daff"/>
    </g>
    <g id="Grupo_1075104" data-name="Grupo 1075104" transform="translate(685 1713.213)">
      <g id="Grupo_1075103" data-name="Grupo 1075103" clip-path="url(#clip-path)">
        <g id="Grupo_1075041" data-name="Grupo 1075041" transform="translate(0 -0.002)">
          <g id="Grupo_1075040" data-name="Grupo 1075040" clip-path="url(#clip-path-2)">
            <path id="Trazado_615819" data-name="Trazado 615819" d="M64.827,28.414a12.739,12.739,0,0,0-3.014-5.968,4.7,4.7,0,0,0-2.492-1.382l-.119-.017L33.825,35.925l2.882,4.489S54.955,33.806,64.95,28.961c-.038-.182-.076-.365-.123-.547" transform="translate(109.552 68.168)" fill="#fed09e"/>
            <g id="Grupo_1075018" data-name="Grupo 1075018" transform="translate(161.577 89.216)" style="mix-blend-mode: multiply;isolation: isolate">
              <g id="Grupo_1075017" data-name="Grupo 1075017">
                <g id="Grupo_1075016" data-name="Grupo 1075016" clip-path="url(#clip-path-3)">
                  <path id="Trazado_615820" data-name="Trazado 615820" d="M39.644,25.731c1.7.941,2.641,2.87,3.277,4.62a20.073,20.073,0,0,1,.6,1.98c2.721-1.149,5.328-2.3,7.528-3.37-.038-.182-.076-.365-.123-.547a12.739,12.739,0,0,0-3.014-5.968,4.731,4.731,0,0,0-2.492-1.382l-.119-.017-7.181,4.209a3.977,3.977,0,0,1,1.526.475" transform="translate(-38.121 -21.048)" fill="#fed09e"/>
                </g>
              </g>
            </g>
            <path id="Trazado_615821" data-name="Trazado 615821" d="M60.518,11.281s-6.295-.619-9.079,6.447-6.9,34.245-6.9,34.245l-5.794,3.4a4.475,4.475,0,0,1,.9.365A8.35,8.35,0,0,1,43,59.819a21.312,21.312,0,0,1,1.081,3.073c5.811-2.539,10.6-4.951,11.233-6.261,1.746-3.573,5.209-45.351,5.209-45.351" transform="translate(125.496 36.492)" fill="#d4d6d7"/>
            <path id="Trazado_615822" data-name="Trazado 615822" d="M60.518,11.281s-6.295-.619-9.079,6.447-6.9,34.245-6.9,34.245l-5.794,3.4a4.475,4.475,0,0,1,.9.365A8.35,8.35,0,0,1,43,59.819a21.312,21.312,0,0,1,1.081,3.073c5.811-2.539,10.6-4.951,11.233-6.261,1.746-3.573,5.209-45.351,5.209-45.351" transform="translate(125.496 36.492)" fill="#f6f6f6"/>
            <path id="Trazado_615823" data-name="Trazado 615823" d="M40.923,21.37l-2.174,1.276a4.475,4.475,0,0,1,.9.365A8.386,8.386,0,0,1,43,27.092a21.546,21.546,0,0,1,1.081,3.077c.814-.356,1.606-.708,2.369-1.055-.67-3.26-2.488-6.333-5.523-7.744" transform="translate(125.496 69.215)" fill="#d4d6d7"/>
            <path id="Trazado_615824" data-name="Trazado 615824" d="M40.905,21.4l-2.594,1.649s4.315.716,6.536,8.6l2.437-1.276S46,22.479,40.905,21.4" transform="translate(124.081 69.305)" fill="#f6f6f6"/>
            <path id="Trazado_615825" data-name="Trazado 615825" d="M45.7,33.9c1.233-1.992,2.505-4.374,1.729-6.6-.585-1.67-2.319-2.628-3.891-3.192a32.431,32.431,0,0,0-5.472-1.259C36.7,22.625,33,25.1,32.8,26.579c-.415,3.141-.292,9.711,3.4,11.084,3.162,1.178,8.329-.318,9.495-3.76" transform="translate(105.715 73.983)" fill="#fed09e"/>
            <g id="Grupo_1075021" data-name="Grupo 1075021" transform="translate(139.426 100.299)" style="mix-blend-mode: multiply;isolation: isolate">
              <g id="Grupo_1075020" data-name="Grupo 1075020">
                <g id="Grupo_1075019" data-name="Grupo 1075019" clip-path="url(#clip-path-4)">
                  <path id="Trazado_615826" data-name="Trazado 615826" d="M38.912,30.884a15.064,15.064,0,0,1,3.73-2.331c1.055-.479,2.145-.882,3.2-1.352a6.568,6.568,0,0,0-1.45-.538c-.564-.131-1.157-.093-1.721-.2-.933-.178-1.611-.755-1.373-1.755.064-.267.3-.67.191-.941a.221.221,0,0,0-.2-.1,2,2,0,0,0-.945.373,15.367,15.367,0,0,0-2.971,2.823c-.988,1.123-1.92,2.3-2.832,3.484-.547.712-1.064,1.471-1.653,2.149a4.662,4.662,0,0,0,2.3,2.425,28.906,28.906,0,0,1,3.722-4.031" transform="translate(-32.893 -23.665)" fill="#fed09e"/>
                </g>
              </g>
            </g>
            <path id="Trazado_615827" data-name="Trazado 615827" d="M36.031,27.361l-.047,16.819L30.291,40.9l.051-16.82Z" transform="translate(98.108 77.979)" fill="#834951"/>
            <path id="Trazado_615828" data-name="Trazado 615828" d="M31.681,31.128l14.136-8.215-.047,16.815L31.634,47.947Z" transform="translate(102.457 74.213)" fill="#bc6a75"/>
            <path id="Trazado_615829" data-name="Trazado 615829" d="M30.3,30.353,44.44,22.138l5.693,3.285L35.992,33.638Z" transform="translate(98.146 71.703)" fill="#d27682"/>
            <path id="Trazado_615830" data-name="Trazado 615830" d="M45.176,24.625a1.9,1.9,0,0,0-1.59-.462c-1.441.288-2.505,1.556-3.62,2.331-1.217.844-2.645,1.428-3.946,2.166-1,.568-2.954,1.619-2.848,2.908.072.869,1.407,1.178,2.357,1.267.106-.008.216-.021.322-.038a4.7,4.7,0,0,0,1.645-.653c.483-.3,1.191-1,1.814-1.026.471-.021.928.475,1.293.716a3.914,3.914,0,0,0,1.785.7c2.285.225,3.561-1.941,3.8-3.683a7.942,7.942,0,0,0-1.009-4.222" transform="translate(107.424 78.15)" fill="#fed09e"/>
            <path id="Trazado_615831" data-name="Trazado 615831" d="M43.443,32.956l7.113,85.187s1.178,5.909,5.006,3.815a38.861,38.861,0,0,0,1.526-6.935c.373-2.6,4.531-21.41.954-50.166a88.18,88.18,0,0,1,1.895-30.82Z" transform="translate(140.703 106.739)" fill="#fed09e"/>
            <path id="Trazado_615832" data-name="Trazado 615832" d="M43.443,32.956l7.113,85.187s1.178,5.909,5.006,3.815a38.861,38.861,0,0,0,1.526-6.935c.373-2.6,4.531-21.41.954-50.166a88.18,88.18,0,0,1,1.895-30.82Z" transform="translate(140.703 106.739)" fill="#fed09e"/>
            <g id="Grupo_1075024" data-name="Grupo 1075024" transform="translate(184.144 139.696)" style="mix-blend-mode: multiply;isolation: isolate">
              <g id="Grupo_1075023" data-name="Grupo 1075023">
                <g id="Grupo_1075022" data-name="Grupo 1075022" clip-path="url(#clip-path-5)">
                  <path id="Trazado_615833" data-name="Trazado 615833" d="M48.14,77.226a9.936,9.936,0,0,0,5.676.335.437.437,0,0,1,.547.415c.22,2.59.568,5.163,1.009,7.723a153.869,153.869,0,0,0,3.573,15.294,175.871,175.871,0,0,0-.9-36.131,88.078,88.078,0,0,1,1.895-30.824L43.443,32.956,47.1,76.806a10.429,10.429,0,0,0,1.039.42" transform="translate(-43.441 -32.956)" fill="#fed09e"/>
                </g>
              </g>
            </g>
            <path id="Trazado_615834" data-name="Trazado 615834" d="M60.653,54.146a2.831,2.831,0,0,0-2.382-1.907,3.487,3.487,0,0,0-3.48,1.941.262.262,0,0,0-.153.114,24.7,24.7,0,0,1-3.777,6.638,45.65,45.65,0,0,1-5.3,5.375c-.555.5-1.2.988-1.78,1.513a4.854,4.854,0,0,0-1.475,1.912,1.211,1.211,0,0,0,.827,1.543,3.833,3.833,0,0,0,2.255-.292c.682-.242,1.322-.572,1.984-.856.835-.36,1.674-.708,2.505-1.085a36.962,36.962,0,0,0,5.154-2.768c3.077-2.026,5.917-5,5.968-8.91a9.557,9.557,0,0,0-.348-3.217" transform="translate(136.836 169.087)" fill="#fed09e"/>
            <path id="Trazado_615835" data-name="Trazado 615835" d="M64.305,58.57c-.288-3.972-2.03-5.735-2.03-5.735s.178,4.942-2.187,7.015a9.852,9.852,0,0,1-2.569,2.2,51.209,51.209,0,0,1-4.836,2.8A32,32,0,0,1,49.139,66.5c-.894.339-2.225.869-3.166.411a1.146,1.146,0,0,1-.657-1.111c-.941.178-4.993,3.734-3.035,5.744,2,2.06,10.8-1.149,16.769-5.591s5.544-3.416,5.256-7.384" transform="translate(135.227 171.123)" fill="#00051d"/>
            <path id="Trazado_615836" data-name="Trazado 615836" d="M46.056,33.383l7.108,85.187s1.183,5.909,5.01,3.815A38.865,38.865,0,0,0,59.7,115.45c.373-2.6,4.531-21.406.954-50.162a88.077,88.077,0,0,1,1.895-30.824Z" transform="translate(149.166 108.122)" fill="#fed09e"/>
            <path id="Trazado_615837" data-name="Trazado 615837" d="M46.056,33.383l7.108,85.187s1.183,5.909,5.01,3.815A38.865,38.865,0,0,0,59.7,115.45c.373-2.6,4.531-21.406.954-50.162a88.077,88.077,0,0,1,1.895-30.824Z" transform="translate(149.166 108.122)" fill="#fed09e"/>
            <g id="Grupo_1075027" data-name="Grupo 1075027" transform="translate(195.221 141.506)" style="mix-blend-mode: multiply;isolation: isolate">
              <g id="Grupo_1075026" data-name="Grupo 1075026">
                <g id="Grupo_1075025" data-name="Grupo 1075025" clip-path="url(#clip-path-6)">
                  <path id="Trazado_615838" data-name="Trazado 615838" d="M52.673,75.233A17.042,17.042,0,0,1,56.5,76a4.4,4.4,0,0,1,2.569,1.912,12.329,12.329,0,0,1,.831,3.934c.174,1.513.454,2.993.712,4.493.356,2.073.708,4.146,1.068,6.218.119.67.2,1.339.3,2.009a180.849,180.849,0,0,0-1.314-29.277,88.139,88.139,0,0,1,1.891-30.824L46.056,33.383,49.523,74.9c1.072.127,2.145.212,3.149.331" transform="translate(-46.056 -33.384)" fill="#fed09e"/>
                </g>
              </g>
            </g>
            <path id="Trazado_615839" data-name="Trazado 615839" d="M63.266,54.573a2.826,2.826,0,0,0-2.382-1.907,3.494,3.494,0,0,0-3.48,1.941.25.25,0,0,0-.153.119,24.744,24.744,0,0,1-3.777,6.634,45.327,45.327,0,0,1-5.3,5.375c-.555.5-1.2.988-1.78,1.513a4.854,4.854,0,0,0-1.475,1.912,1.217,1.217,0,0,0,.827,1.547,3.835,3.835,0,0,0,2.255-.3c.682-.242,1.323-.568,1.984-.856.835-.36,1.674-.708,2.505-1.085A36.959,36.959,0,0,0,57.645,66.7c3.077-2.026,5.917-5,5.968-8.906a9.57,9.57,0,0,0-.348-3.221" transform="translate(145.299 170.47)" fill="#fed09e"/>
            <path id="Trazado_615840" data-name="Trazado 615840" d="M66.918,59c-.288-3.968-2.03-5.735-2.03-5.735s.178,4.942-2.187,7.015a9.852,9.852,0,0,1-2.569,2.2,51.757,51.757,0,0,1-4.836,2.8,32.369,32.369,0,0,1-3.544,1.649c-.9.339-2.225.869-3.166.411a1.146,1.146,0,0,1-.657-1.111c-.941.178-4.993,3.734-3.035,5.744,2,2.06,10.8-1.149,16.769-5.591S67.206,62.965,66.918,59" transform="translate(143.69 172.506)" fill="#00051d"/>
            <path id="Trazado_615841" data-name="Trazado 615841" d="M51.248,33.439c3.4,3.87,5.981,8.342,8.935,12.538.721-.22,1.407-.873,2.081-1.1a.6.6,0,0,0,.428-.615,8.8,8.8,0,0,0-1.649-3.594,32.96,32.96,0,0,0-2.865-3.425c-1.64-1.772-3.2-3.9-5.387-5.027a5.137,5.137,0,0,0-1.284-.466c.093-.042.186-.089.28-.127.839-.381,1.7-.725,2.556-1.06.649-.254,1.3-.5,1.937-.78a8.757,8.757,0,0,0,2.933-1.712l0-.013a35.9,35.9,0,0,0-1.789-5.163c-1.573,1.492-3.141,3-4.565,4.637a38.559,38.559,0,0,0-3.082,4.349c.5.5,1,1.022,1.467,1.56" transform="translate(161.23 74.147)" fill="#6f7b7a"/>
            <path id="Trazado_615842" data-name="Trazado 615842" d="M44.608,17.728c-1.153,2.921-2.531,9.287-3.751,15.743.013,1.937.119,3.866.292,5.794.191,2.124.458,4.243.75,6.358.28,2.018.53,4.048.945,6.045.538,2.581,1.263,5.125,1.835,7.7,2.069-1.111,3.476-2.064,3.8-2.73,1.746-3.578,5.209-45.355,5.209-45.355s-6.295-.619-9.079,6.447" transform="translate(132.327 36.492)" fill="#d4d6d7"/>
            <path id="Trazado_615843" data-name="Trazado 615843" d="M62.514,10.5A4.569,4.569,0,0,0,60.4,8.44c-1.081-.466-2.3-.276-3.387-.729-.119-.047-.331.165-.195.25l.013.008a6.68,6.68,0,0,0-3.645.86,10.322,10.322,0,0,0-3.7,3.094c-1.844,2.526-2.7,6.108-1.306,9.033,1.6,3.34,5.489,3.946,8.77,3.031A9.052,9.052,0,0,0,63.565,16.5a9.949,9.949,0,0,0-1.051-6" transform="translate(153.813 24.955)" fill="#232712"/>
            <g id="Grupo_1075030" data-name="Grupo 1075030" transform="translate(201.304 32.659)" style="mix-blend-mode: multiply;isolation: isolate">
              <g id="Grupo_1075029" data-name="Grupo 1075029">
                <g id="Grupo_1075028" data-name="Grupo 1075028" clip-path="url(#clip-path-7)">
                  <path id="Trazado_615844" data-name="Trazado 615844" d="M51.111,21.212a9.6,9.6,0,0,0,4.158-1.577,11.227,11.227,0,0,0,3.306-3.785A15.176,15.176,0,0,0,60.347,8.42c-1.072-.437-2.272-.263-3.336-.708-.119-.051-.335.165-.195.25l.013,0a6.676,6.676,0,0,0-3.645.865,10.329,10.329,0,0,0-3.7,3.094c-1.827,2.505-2.683,6.057-1.327,8.965a6.038,6.038,0,0,0,2.954.322" transform="translate(-47.491 -7.705)" fill="#242835"/>
                </g>
              </g>
            </g>
            <path id="Trazado_615845" data-name="Trazado 615845" d="M47.547,26.751s-2.87,3.026-4.582,19.147-1.649,56.147-1.649,56.147,7.668,5.243,16.247,5.811c10.241.678,31.638-2.268,33.647-6.82,0,0-4.938-39.531-7.558-53.307A250.508,250.508,0,0,0,77.689,23.2Z" transform="translate(133.813 75.138)" fill="#293030"/>
            <path id="Trazado_615846" data-name="Trazado 615846" d="M64.137,11.163S52.628,9.553,49.191,14.219c0,0-8.9,13.077-8.164,22.6s5.913,30.6,5.913,30.6,2.319,7.3,12.331,9.457S79.5,73.24,79.731,67.76,82.7,35.8,82.7,35.8s4.2-7.99,1.445-12.6a30.351,30.351,0,0,0-4.417-4.209c-4.858-2.7-15.594-7.829-15.594-7.829" transform="translate(132.738 35.287)" fill="#f6f6f6"/>
            <path id="Trazado_615847" data-name="Trazado 615847" d="M78.133,19.913c-2.336,5.4-4.925,10.817-8.944,15.2-3.828,4.171-9.245,7.426-15.094,6.485-5.549-.894-9.66-5.265-12.114-10.076.975,4.328,1.729,7.4,1.729,7.4s2.327,7.3,12.339,9.452S76.268,44.736,76.5,39.251c.123-2.933.962-11.873,1.721-19.554-.034.072-.064.144-.093.216" transform="translate(135.964 63.796)" fill="#d4d6d7"/>
            <path id="Trazado_615848" data-name="Trazado 615848" d="M43.066,29.32c2.781-1.793,5.824-3.2,8.664-4.883a.436.436,0,0,1,.636.259A82.381,82.381,0,0,0,55.3,33.5c1.047-.5,2.081-1.034,3.1-1.594a61.625,61.625,0,0,0,10.44-7.125,44.583,44.583,0,0,0,5.078-5.044,7.281,7.281,0,0,0-.941-.742c-4.853-2.7-15.59-7.829-15.59-7.829a35.225,35.225,0,0,0-7.549-.11,62.951,62.951,0,0,0-6.379,10.6c-.22,2.552-.331,5.112-.4,7.672" transform="translate(139.482 35.289)" fill="#d4d6d7"/>
            <path id="Trazado_615849" data-name="Trazado 615849" d="M66.476,13.679a8.56,8.56,0,0,0-4.73,1.208A11.107,11.107,0,0,0,57.1,20.168a50.105,50.105,0,0,0-2.23,6.367c-.848,2.67-1.556,5.383-2.175,8.117C51.463,40.061,50.577,45.537,49.619,51c-.92,5.235-2.03,10.427-3.01,15.65-.11.589-.216,1.174-.322,1.763,8.486.076,16.065-4.862,16.268-9.575.233-5.485,2.971-31.96,2.971-31.96s4.2-7.99,1.441-12.593a4.355,4.355,0,0,0-.492-.606" transform="translate(149.914 44.208)" fill="#d4d6d7"/>
            <path id="Trazado_615850" data-name="Trazado 615850" d="M45.377,21.167,48.772,29a15.964,15.964,0,0,0,6.807-3.124c3.005-2.293,7.515-6.189,8.045-10.063l-6.583-4.536Z" transform="translate(146.966 36.529)" fill="#a7b6b4"/>
            <path id="Trazado_615851" data-name="Trazado 615851" d="M51.389,20.436l-7.452,5.023L43.5,19.219l4.315-7.812L54,11.95Z" transform="translate(140.889 36.947)" fill="#a7b6b4"/>
            <path id="Trazado_615852" data-name="Trazado 615852" d="M46.262,13.509s.844,8.74-.733,11.084,1.149,5.922,5.3,4.277,6.981-5.481,7.147-9.084,0-10.771,0-10.771Z" transform="translate(145.992 29.203)" fill="#fed09e"/>
            <g id="Grupo_1075033" data-name="Grupo 1075033" transform="translate(192.253 38.219)" style="mix-blend-mode: multiply;isolation: isolate">
              <g id="Grupo_1075032" data-name="Grupo 1075032">
                <g id="Grupo_1075031" data-name="Grupo 1075031" clip-path="url(#clip-path-8)">
                  <path id="Trazado_615853" data-name="Trazado 615853" d="M45.517,20.622a15.51,15.51,0,0,0,7.045-1.386A19.464,19.464,0,0,0,57.144,16.4c.017-3.493-.072-7.388-.072-7.388L45.356,13.509a52.849,52.849,0,0,1,.161,7.113" transform="translate(-45.355 -9.017)" fill="#fed09e"/>
                </g>
              </g>
            </g>
            <path id="Trazado_615854" data-name="Trazado 615854" d="M74.257,35.575a23.035,23.035,0,0,0,2-5.205,50.292,50.292,0,0,0,1-5.438c.424-3,.708-6.023,1.255-9.007a16.77,16.77,0,0,0-.445-2.136,17.764,17.764,0,0,0-7.566-10.05,19.14,19.14,0,0,0-13.4-2.221,24.928,24.928,0,0,0-7.286,2.408,17.754,17.754,0,0,0-5.807,4.353,8.546,8.546,0,0,0-1.607,3.149,25,25,0,0,0-.492,3.226c-.064.475-.131.949-.191,1.428a.151.151,0,0,0-.047.093c-.008.14,0,.276-.008.411a10.853,10.853,0,0,0-.068,1.115,4.366,4.366,0,0,0,.305,2.052c.182,1.174.441,2.34.691,3.5.534,2.505.92,5.036,1.462,7.541.263,1.2.547,2.4.869,3.59a7.788,7.788,0,0,0,1.17,2.658c.682.911,7.672,7.808,9.52,7.948A16.011,16.011,0,0,0,62.1,43.7a43.106,43.106,0,0,0,6.532-3,49.456,49.456,0,0,0,4.294-2.662c.445-.822.9-1.636,1.331-2.463" transform="translate(134.745 3.839)" fill="#fed09e"/>
            <path id="Trazado_615855" data-name="Trazado 615855" d="M50.893,24.98s8.1,9.266,30.918.962L84.35,24l.53,2.2-4.942,5.315s3.539,41.557,3.938,51.268c0,0-29.014,5.226-44.113-8.1,0,0,4.137-38.348,11.131-49.7" transform="translate(128.781 77.736)" fill="#a7b6b4"/>
            <g id="Grupo_1075036" data-name="Grupo 1075036" transform="translate(168.545 101.733)" style="mix-blend-mode: multiply;isolation: isolate">
              <g id="Grupo_1075035" data-name="Grupo 1075035">
                <g id="Grupo_1075034" data-name="Grupo 1075034" clip-path="url(#clip-path-9)">
                  <path id="Trazado_615856" data-name="Trazado 615856" d="M84.881,26.2,84.347,24l-2.539,1.946c-22.822,8.3-30.913-.962-30.913-.962a23.126,23.126,0,0,0-1.149,2.145c3.4,2.954,8.028,4.362,12.365,5.167a68.416,68.416,0,0,0,14.446.958.44.44,0,0,1,.432.432c0,.581,0,1.157,0,1.738a122.125,122.125,0,0,1-1.1,17.464c-.848,5.667-2.276,11.708-5.735,16.4a14.858,14.858,0,0,1-6.507,5.159,13.209,13.209,0,0,1-9.957-.17c-6.214-2.581-10.105-8.5-11.864-14.815-1.339,8.575-2.056,15.221-2.056,15.221,15.1,13.331,44.113,8.1,44.113,8.1-.4-9.715-3.942-51.272-3.942-51.272Z" transform="translate(-39.761 -24.001)" fill="#a7b6b4"/>
                </g>
              </g>
            </g>
            <path id="Trazado_615857" data-name="Trazado 615857" d="M85.391,18.957A24.468,24.468,0,0,0,80.826,7.182a18.04,18.04,0,0,0-4.366-4.26A16.653,16.653,0,0,0,70.1.412a28.318,28.318,0,0,0-7.617-.28,30.816,30.816,0,0,0-6.952,1.331,22,22,0,0,0-6.625,3.573,15.68,15.68,0,0,0-2.552,2.505,11.038,11.038,0,0,0-3.773,2.976,9.5,9.5,0,0,0-2.052,4.832,9.433,9.433,0,0,0,1.094,5.294,10.981,10.981,0,0,0,4.311,4.527.49.49,0,0,0,.682-.483,25.273,25.273,0,0,1-.208-7.1,11.279,11.279,0,0,0,.2,1.907,13.079,13.079,0,0,0,2.45,5.3,10.928,10.928,0,0,0,1.924,1.28c-.365-.479-.721-.966-1.064-1.458a.4.4,0,0,1-.119-.174,14.6,14.6,0,0,1-2.327-4.976,10.372,10.372,0,0,1-.119-4.243c.047-.22.11-.424.17-.632.119-.212.263-.411.394-.619a7.253,7.253,0,0,0-.225,1.077,9.477,9.477,0,0,0,.335,3.959,14.7,14.7,0,0,0,3.353,5.7,14.151,14.151,0,0,0,3.891,2.319c-.174-.127-.348-.254-.509-.39a20.128,20.128,0,0,1-1.852-1.645,17.835,17.835,0,0,1-3.065-4.052,11.46,11.46,0,0,1-1.437-4.675,10.3,10.3,0,0,1,.042-1.763c.042.254.085.5.148.75a14.665,14.665,0,0,0,1.356,3.383,17.167,17.167,0,0,0,5.18,5.705,22.636,22.636,0,0,0,14.276,4.281,21.247,21.247,0,0,0,3.179-.407c.038.085.072.17.1.25.36,1,.67,2.018.945,3.043.288,1.047.661,2.073.937,3.124.089.352.576.03.615-.2.233-1.526.187-3.192,1.14-4.5.348-.475.894-1.03,1.526-.755a2.588,2.588,0,0,1,1.174,1.573,5.732,5.732,0,0,1-2.594,6.723c-.123.064-.305.225-.246.39a4.717,4.717,0,0,1-.055,2.187c-.119.712-.178,1.479-.369,2.179-.047.17.136.174.254.119,8.8-4.129,9.614-21.13,9.368-23.39M71.425,25.281c.051.14.11.276.165.415a17.4,17.4,0,0,1-7.079-.1,22.689,22.689,0,0,1-6.528-2.569c-.767-.441-1.513-.92-2.247-1.428.356.2.708.394,1.068.576a29.43,29.43,0,0,0,12.288,3.2,19.757,19.757,0,0,0,2.331-.1M53.8,19.067a26.773,26.773,0,0,0,10.779,4.769c1.14.246,2.289.441,3.446.615.53.081,1.06.161,1.594.233a24.445,24.445,0,0,1-6.163-.873A26.544,26.544,0,0,1,53.448,19,15.613,15.613,0,0,1,51.2,16.791c-.11-.131-.22-.276-.331-.415A18.96,18.96,0,0,0,53.8,19.067m16.633,8.52a21.009,21.009,0,0,1-7.045-.627,20.665,20.665,0,0,1-11.771-7.867A16.709,16.709,0,0,1,50.4,17.011q.528.839,1.119,1.623a18.8,18.8,0,0,0,5.532,4.633c4.315,2.56,9.4,4.061,14.412,3.06.114-.025.233-.059.352-.085.148.365.292.725.441,1.089a17.373,17.373,0,0,1-1.818.254" transform="translate(131.122 0.001)" fill="#232712"/>
            <path id="Trazado_615858" data-name="Trazado 615858" d="M72.211,31.02a12.676,12.676,0,0,0-3.022-5.968A4.648,4.648,0,0,0,66.7,23.67l-.123-.017L41.2,38.531l2.878,4.489S62.33,36.412,72.334,31.567c-.038-.182-.076-.365-.123-.547" transform="translate(133.451 76.609)" fill="#fed09e"/>
            <path id="Trazado_615859" data-name="Trazado 615859" d="M95.862,41.786l-.013,59.652-53.756,31.24L42.1,72.395Z" transform="translate(136.331 135.339)" fill="#6c2406"/>
            <path id="Trazado_615860" data-name="Trazado 615860" d="M155.858,113.3l-.013,61.039L6.971,88.382l.013-59.457Z" transform="translate(22.576 93.682)" fill="#f05123"/>
            <path id="Trazado_615861" data-name="Trazado 615861" d="M218.634,110.266l-56.647,32.918L5.113,52.615,61.761,19.7Z" transform="translate(16.562 63.794)" fill="#a29e8c"/>
            <path id="Trazado_615862" data-name="Trazado 615862" d="M98.779,41.063l-.013,4.09L42.119,78.072l.013-4.09Z" transform="translate(136.416 132.997)" fill="#824e30"/>
            <path id="Trazado_615863" data-name="Trazado 615863" d="M161.993,118.033l-.013,4.086L5.111,31.549l.008-4.086Z" transform="translate(16.555 88.947)" fill="#b56e48"/>
            <path id="Trazado_615864" data-name="Trazado 615864" d="M106.558,52,60.821,78.579l-52.9-30.54L53.654,21.458Z" transform="translate(25.642 69.498)" fill="#545452"/>
            <g id="Grupo_1075039" data-name="Grupo 1075039" transform="translate(33.561 90.956)" style="mix-blend-mode: multiply;isolation: isolate">
              <g id="Grupo_1075038" data-name="Grupo 1075038">
                <g id="Grupo_1075037" data-name="Grupo 1075037" clip-path="url(#clip-path-10)">
                  <path id="Trazado_615865" data-name="Trazado 615865" d="M105.129,52.833,106.558,52l-52.9-30.545L7.917,48.039l1.428.822L53.654,23.115Z" transform="translate(-7.919 -21.459)" fill="#545452"/>
                </g>
              </g>
            </g>
            <path id="Trazado_615866" data-name="Trazado 615866" d="M50.133,24.62,47.721,46.132l-25.106,14.5L18.283,43.008Z" transform="translate(59.215 79.741)" fill="#a4a6a6"/>
            <path id="Trazado_615867" data-name="Trazado 615867" d="M39.512,56.4,21.145,45.709,13.066,25.926,35.18,38.778Z" transform="translate(42.318 83.971)" fill="#717273"/>
            <path id="Trazado_615868" data-name="Trazado 615868" d="M35.18,52.828,13.066,39.976l31.85-18.388L67.03,34.44Z" transform="translate(42.318 69.921)" fill="#b6b8b9"/>
            <path id="Trazado_615869" data-name="Trazado 615869" d="M34,50.7,13.543,38.81,43,21.8,63.459,33.69Z" transform="translate(43.864 70.608)" fill="#a4a6a6"/>
            <path id="Trazado_615870" data-name="Trazado 615870" d="M43,21.8l-.356,20.325L30.914,48.9l-17.371-10.1Z" transform="translate(43.865 70.608)" fill="#8b8d8e"/>
            <path id="Trazado_615871" data-name="Trazado 615871" d="M20.864,30.677c.267-.7.1-1.407-.377-1.594s-1.077.233-1.348.928-.1,1.412.377,1.594,1.081-.233,1.348-.928" transform="translate(61.576 94.056)" fill="#717273"/>
            <path id="Trazado_615872" data-name="Trazado 615872" d="M21.843,30.088c.267-.7.1-1.412-.377-1.594s-1.081.233-1.348.928-.1,1.412.377,1.594,1.081-.233,1.348-.928" transform="translate(64.747 92.148)" fill="#717273"/>
            <path id="Trazado_615873" data-name="Trazado 615873" d="M22.822,29.562c.267-.7.1-1.412-.377-1.594s-1.077.233-1.348.933-.1,1.407.377,1.59,1.081-.233,1.348-.928" transform="translate(67.918 90.444)" fill="#717273"/>
            <path id="Trazado_615874" data-name="Trazado 615874" d="M23.8,28.973c.267-.7.1-1.412-.377-1.594s-1.081.233-1.348.928-.1,1.412.377,1.594,1.081-.233,1.348-.928" transform="translate(71.09 88.537)" fill="#717273"/>
            <path id="Trazado_615875" data-name="Trazado 615875" d="M23.433,29.359c.475.182,1.081-.233,1.348-.928s.1-1.412-.377-1.594-1.081.233-1.348.928-.1,1.412.377,1.594" transform="translate(74.263 86.781)" fill="#717273"/>
            <path id="Trazado_615876" data-name="Trazado 615876" d="M24.412,28.77c.475.182,1.081-.233,1.348-.928s.1-1.412-.377-1.594-1.081.233-1.348.928-.1,1.412.377,1.594" transform="translate(77.433 84.874)" fill="#717273"/>
            <path id="Trazado_615877" data-name="Trazado 615877" d="M25.391,28.244c.475.182,1.081-.233,1.348-.928s.1-1.412-.377-1.594-1.081.233-1.348.928-.1,1.412.377,1.594" transform="translate(80.604 83.17)" fill="#717273"/>
            <path id="Trazado_615878" data-name="Trazado 615878" d="M20.979,31.561c.259-.678.1-1.369-.365-1.547s-1.047.229-1.31.9-.1,1.369.365,1.547,1.051-.225,1.31-.9" transform="translate(62.126 97.075)" fill="#717273"/>
            <path id="Trazado_615879" data-name="Trazado 615879" d="M21.93,30.989c.259-.678.1-1.369-.365-1.547s-1.051.229-1.31.9-.1,1.369.365,1.547,1.051-.229,1.31-.9" transform="translate(65.206 95.222)" fill="#717273"/>
            <path id="Trazado_615880" data-name="Trazado 615880" d="M22.88,30.479c.259-.678.1-1.369-.365-1.547s-1.051.229-1.31.9-.1,1.369.365,1.547,1.051-.225,1.31-.9" transform="translate(68.283 93.571)" fill="#717273"/>
            <path id="Trazado_615881" data-name="Trazado 615881" d="M22.523,30.81c.462.178,1.047-.225,1.31-.9s.093-1.369-.369-1.547-1.047.229-1.306.9-.1,1.369.365,1.547" transform="translate(71.362 91.718)" fill="#717273"/>
            <path id="Trazado_615882" data-name="Trazado 615882" d="M24.416,27.834c-.462-.178-1.047.225-1.31.9s-.093,1.369.369,1.543,1.047-.225,1.306-.9.1-1.369-.365-1.547" transform="translate(74.441 90.014)" fill="#717273"/>
            <path id="Trazado_615883" data-name="Trazado 615883" d="M25.367,27.262c-.462-.178-1.047.225-1.31.9s-.093,1.369.369,1.547,1.047-.229,1.306-.9.1-1.369-.365-1.547" transform="translate(77.521 88.162)" fill="#717273"/>
            <path id="Trazado_615884" data-name="Trazado 615884" d="M26.318,26.751c-.462-.178-1.047.225-1.31.9s-.093,1.369.369,1.547,1.047-.229,1.306-.9.1-1.369-.365-1.547" transform="translate(80.601 86.507)" fill="#717273"/>
            <path id="Trazado_615885" data-name="Trazado 615885" d="M21.105,32.416c.242-.627.089-1.272-.339-1.437s-.975.208-1.221.839-.089,1.272.343,1.437.975-.212,1.217-.839" transform="translate(62.933 100.209)" fill="#717273"/>
            <path id="Trazado_615886" data-name="Trazado 615886" d="M21.989,31.884c.237-.627.089-1.272-.339-1.437s-.975.208-1.217.839-.093,1.272.339,1.437.975-.212,1.217-.839" transform="translate(65.8 98.486)" fill="#717273"/>
            <path id="Trazado_615887" data-name="Trazado 615887" d="M21.655,32.248c.432.165.975-.212,1.217-.839s.089-1.272-.339-1.437-.975.208-1.217.839-.093,1.272.339,1.437" transform="translate(68.665 96.947)" fill="#717273"/>
            <path id="Trazado_615888" data-name="Trazado 615888" d="M22.538,31.717c.432.165.975-.212,1.217-.839s.089-1.272-.339-1.437-.975.208-1.217.835-.093,1.276.339,1.441" transform="translate(71.529 95.223)" fill="#717273"/>
            <path id="Trazado_615889" data-name="Trazado 615889" d="M24.3,28.95c-.428-.165-.975.212-1.217.839s-.089,1.272.339,1.441.975-.212,1.217-.839.093-1.276-.339-1.441" transform="translate(74.395 93.638)" fill="#717273"/>
            <path id="Trazado_615890" data-name="Trazado 615890" d="M25.185,28.417c-.432-.165-.975.212-1.217.839s-.089,1.272.339,1.441.975-.212,1.217-.839.093-1.276-.339-1.441" transform="translate(77.258 91.911)" fill="#717273"/>
            <path id="Trazado_615891" data-name="Trazado 615891" d="M26.07,27.942c-.428-.165-.975.212-1.217.839s-.089,1.272.339,1.437.975-.208,1.217-.839.093-1.272-.339-1.437" transform="translate(80.124 90.373)" fill="#717273"/>
            <path id="Trazado_615892" data-name="Trazado 615892" d="M20.843,31.937c-.415-.161-.941.2-1.174.81s-.089,1.233.326,1.39.941-.2,1.178-.81.085-1.229-.331-1.39" transform="translate(63.335 103.316)" fill="#717273"/>
            <path id="Trazado_615893" data-name="Trazado 615893" d="M21.7,31.422c-.415-.161-.941.2-1.174.81s-.089,1.233.326,1.395.941-.208,1.178-.814.085-1.229-.331-1.39" transform="translate(66.104 101.648)" fill="#717273"/>
            <path id="Trazado_615894" data-name="Trazado 615894" d="M22.553,30.963c-.415-.161-.941.2-1.174.81s-.089,1.233.322,1.39.941-.2,1.178-.81.089-1.229-.326-1.39" transform="translate(68.874 100.161)" fill="#717273"/>
            <path id="Trazado_615895" data-name="Trazado 615895" d="M23.407,30.449c-.415-.161-.941.2-1.174.81s-.089,1.233.326,1.39.945-.2,1.178-.81.085-1.229-.331-1.39" transform="translate(71.64 98.496)" fill="#717273"/>
            <path id="Trazado_615896" data-name="Trazado 615896" d="M24.263,29.976c-.415-.161-.941.2-1.178.81s-.085,1.233.331,1.39.941-.2,1.178-.81.085-1.229-.331-1.39" transform="translate(74.408 96.964)" fill="#717273"/>
            <path id="Trazado_615897" data-name="Trazado 615897" d="M25.117,29.461c-.415-.161-.941.2-1.174.81s-.089,1.233.326,1.39.941-.2,1.178-.81.085-1.229-.331-1.39" transform="translate(77.178 95.297)" fill="#717273"/>
            <path id="Trazado_615898" data-name="Trazado 615898" d="M25.972,29c-.415-.161-.941.2-1.174.81s-.089,1.233.326,1.39.941-.2,1.178-.81.085-1.229-.331-1.39" transform="translate(79.947 93.81)" fill="#717273"/>
            <path id="Trazado_615899" data-name="Trazado 615899" d="M17.906,30.633c-.373-.534-.381-1.174-.013-1.433s.966-.025,1.339.509.377,1.174.013,1.428-.966.03-1.339-.5" transform="translate(57.073 94.239)" fill="#535556"/>
            <path id="Trazado_615900" data-name="Trazado 615900" d="M16.963,30.168c-.373-.534-.377-1.178-.013-1.433s.966-.03,1.339.509.377,1.174.013,1.428-.966.03-1.339-.5" transform="translate(54.024 92.729)" fill="#535556"/>
            <path id="Trazado_615901" data-name="Trazado 615901" d="M16.014,29.684c-.373-.534-.381-1.174-.013-1.433s.966-.025,1.344.509.373,1.174.013,1.433-.971.025-1.344-.509" transform="translate(50.946 91.165)" fill="#535556"/>
            <path id="Trazado_615902" data-name="Trazado 615902" d="M14.14,28.57c-.373-.534-.381-1.178-.013-1.433s.966-.03,1.339.509.377,1.174.013,1.428-.966.03-1.339-.5" transform="translate(44.876 87.554)" fill="#535556"/>
            <path id="Trazado_615903" data-name="Trazado 615903" d="M15.081,29.185c-.373-.534-.381-1.174-.013-1.433s.966-.025,1.339.509.377,1.174.013,1.433-.966.025-1.339-.509" transform="translate(47.924 89.549)" fill="#535556"/>
            <path id="Trazado_615904" data-name="Trazado 615904" d="M18.128,31.548c-.373-.534-.377-1.174-.013-1.433s.966-.025,1.339.509.377,1.174.013,1.433-.966.025-1.339-.509" transform="translate(57.797 97.202)" fill="#535556"/>
            <path id="Trazado_615905" data-name="Trazado 615905" d="M17.187,31.082c-.373-.534-.381-1.174-.013-1.433s.966-.025,1.339.509.377,1.174.013,1.433-.966.025-1.339-.509" transform="translate(54.745 95.693)" fill="#535556"/>
            <path id="Trazado_615906" data-name="Trazado 615906" d="M16.238,30.6c-.373-.534-.381-1.178-.013-1.433s.966-.025,1.339.509.377,1.174.013,1.428-.966.03-1.339-.5" transform="translate(51.671 94.129)" fill="#535556"/>
            <path id="Trazado_615907" data-name="Trazado 615907" d="M14.437,29.662c-.373-.534-.381-1.174-.013-1.433s.966-.03,1.339.509.377,1.174.013,1.433-.966.025-1.339-.509" transform="translate(45.838 91.09)" fill="#535556"/>
            <path id="Trazado_615908" data-name="Trazado 615908" d="M15.3,30.1c-.373-.534-.377-1.174-.013-1.433s.971-.025,1.339.513.381,1.17.013,1.428-.966.025-1.339-.509" transform="translate(48.647 92.511)" fill="#535556"/>
            <path id="Trazado_615909" data-name="Trazado 615909" d="M18.436,32.58c-.373-.534-.381-1.174-.013-1.433s.966-.025,1.339.509.377,1.174.013,1.433-.966.025-1.339-.509" transform="translate(58.79 100.545)" fill="#535556"/>
            <path id="Trazado_615910" data-name="Trazado 615910" d="M17.494,32.115c-.373-.534-.381-1.174-.013-1.433s.966-.03,1.339.509.377,1.174.013,1.433-.966.025-1.339-.509" transform="translate(55.739 99.035)" fill="#535556"/>
            <path id="Trazado_615911" data-name="Trazado 615911" d="M16.545,31.631c-.373-.534-.381-1.174-.013-1.433s.966-.025,1.339.509.377,1.174.013,1.433-.966.025-1.339-.509" transform="translate(52.665 97.471)" fill="#535556"/>
            <path id="Trazado_615912" data-name="Trazado 615912" d="M14.924,30.772c-.373-.534-.381-1.174-.013-1.433s.966-.03,1.339.509.377,1.174.013,1.433-.966.025-1.339-.509" transform="translate(47.415 94.685)" fill="#535556"/>
            <path id="Trazado_615913" data-name="Trazado 615913" d="M15.612,31.134c-.373-.534-.381-1.174-.013-1.437s.962-.03,1.339.513.377,1.17.013,1.428-.966.025-1.339-.5" transform="translate(49.644 95.853)" fill="#535556"/>
            <path id="Trazado_615914" data-name="Trazado 615914" d="M18.835,33.519c-.373-.534-.381-1.174-.013-1.433s.966-.025,1.339.509.377,1.174.013,1.433-.966.025-1.339-.509" transform="translate(60.082 103.586)" fill="#535556"/>
            <path id="Trazado_615915" data-name="Trazado 615915" d="M17.894,33.053c-.373-.534-.381-1.174-.013-1.433s.966-.025,1.339.509.377,1.174.013,1.433-.966.025-1.339-.509" transform="translate(57.035 102.077)" fill="#535556"/>
            <path id="Trazado_615916" data-name="Trazado 615916" d="M16.944,32.57c-.373-.534-.381-1.174-.013-1.433s.966-.025,1.339.509.377,1.174.013,1.433-.966.025-1.339-.509" transform="translate(53.958 100.513)" fill="#535556"/>
            <path id="Trazado_615917" data-name="Trazado 615917" d="M15.323,31.71c-.373-.534-.381-1.174-.013-1.433s.971-.025,1.339.509.381,1.174.013,1.428-.966.03-1.339-.5" transform="translate(48.708 97.727)" fill="#535556"/>
            <path id="Trazado_615918" data-name="Trazado 615918" d="M16.011,32.069c-.373-.53-.381-1.174-.013-1.433s.966-.025,1.339.513.377,1.17.013,1.428-.966.025-1.339-.509" transform="translate(50.936 98.895)" fill="#535556"/>
            <path id="Trazado_615919" data-name="Trazado 615919" d="M49.714,27.9a.622.622,0,0,0-.882.081L36.12,43.175c-.03.042-.738.958-2.717-.187C30.864,41.522,14.909,31.925,14.769,31.84a.98.98,0,0,1-.377-.75c-.013-.4.212-1.217,1.509-2.446a9.982,9.982,0,0,1-.5-1.229c-1.543,1.352-2.314,2.62-2.255,3.76A2.239,2.239,0,0,0,14.1,32.9c.161.093,16.129,9.7,18.676,11.173a4.8,4.8,0,0,0,2.378.733,2.389,2.389,0,0,0,1.984-.9L49.794,28.784a.626.626,0,0,0-.081-.882" transform="translate(42.552 88.793)" fill="#4577bb"/>
            <path id="Trazado_615920" data-name="Trazado 615920" d="M39.628,27.5c-1.068-.551-2.348-1.267-3.005-1.64-.047.454-.089.907-.148,1.356.7.39,1.662.924,2.518,1.365a4.145,4.145,0,0,1-.746.276L22.809,31.011a.633.633,0,0,0-.534.712.625.625,0,0,0,.619.538l.089,0,15.472-2.166.068-.013c.682-.174,1.84-.581,1.933-1.4.038-.326-.076-.8-.827-1.183" transform="translate(72.123 83.747)" fill="#4577bb"/>
          </g>
        </g>
        <g id="Grupo_1075043" data-name="Grupo 1075043" transform="translate(57.406 89.174)">
          <g id="Grupo_1075042" data-name="Grupo 1075042" clip-path="url(#clip-path-11)">
            <path id="Trazado_615921" data-name="Trazado 615921" d="M30.049,34.492l-15.2.267,5.943-10.792,15.2-.267Z" transform="translate(-9.328 -12.413)" fill="#be539f"/>
            <path id="Trazado_615922" data-name="Trazado 615922" d="M30.049,26.246l4.188,6.88-15.2.267-4.188-6.88Z" transform="translate(-9.328 -4.167)" fill="#983f7f"/>
            <path id="Trazado_615923" data-name="Trazado 615923" d="M24.374,23.7l4.188,6.88L22.623,41.372l-4.192-6.88Z" transform="translate(2.288 -12.414)" fill="#ef579f"/>
            <path id="Trazado_615924" data-name="Trazado 615924" d="M33.21,36.532,20.447,40.174l3.2-12.945,12.767-3.641Z" transform="translate(8.819 -12.78)" fill="#9899cb"/>
            <path id="Trazado_615925" data-name="Trazado 615925" d="M33.21,26.641,35.987,29.3,23.224,32.94l-2.776-2.658Z" transform="translate(8.819 -2.889)" fill="#4b54a4"/>
            <path id="Trazado_615926" data-name="Trazado 615926" d="M26.667,23.587l2.776,2.658L26.234,39.19l-2.776-2.658Z" transform="translate(18.569 -12.781)" fill="#7474b6"/>
            <path id="Trazado_615927" data-name="Trazado 615927" d="M25.167,27.833l-.017,6.2-5.4-3.116.021-6.2Z" transform="translate(6.559 -9.12)" fill="#00a292"/>
            <path id="Trazado_615928" data-name="Trazado 615928" d="M21.041,27.218l3.98-2.31L25,31.109l-3.976,2.31Z" transform="translate(10.686 -8.504)" fill="#008375"/>
            <path id="Trazado_615929" data-name="Trazado 615929" d="M19.754,26.482l3.98-2.31,5.4,3.115L25.15,29.6Z" transform="translate(6.574 -10.885)" fill="#00b39a"/>
            <path id="Trazado_615930" data-name="Trazado 615930" d="M26.244,34.136l-6.579,6.312-2.213-8.889,6.579-6.312Z" transform="translate(-0.879 -7.404)" fill="#fcb85c"/>
            <path id="Trazado_615931" data-name="Trazado 615931" d="M24.554,27.344,28.979,28.6,22.4,34.915l-4.425-1.259Z" transform="translate(0.811 -0.612)" fill="#f79a56"/>
            <path id="Trazado_615932" data-name="Trazado 615932" d="M19.005,25.247l4.425,1.259,2.213,8.889-4.425-1.259Z" transform="translate(4.148 -7.404)" fill="#ffdf62"/>
          </g>
        </g>
        <g id="Grupo_1075102" data-name="Grupo 1075102" transform="translate(0 -0.002)">
          <g id="Grupo_1075101" data-name="Grupo 1075101" clip-path="url(#clip-path-2)">
            <g id="Grupo_1075046" data-name="Grupo 1075046" transform="translate(114.121 138.159)" style="mix-blend-mode: multiply;isolation: isolate">
              <g id="Grupo_1075045" data-name="Grupo 1075045">
                <g id="Grupo_1075044" data-name="Grupo 1075044" clip-path="url(#clip-path-13)">
                  <path id="Trazado_615934" data-name="Trazado 615934" d="M131.481,64.969,83,93.145,26.923,60.769,75.406,32.594Z" transform="translate(-26.924 -32.594)" fill="#a29e8c"/>
                </g>
              </g>
            </g>
            <path id="Trazado_615935" data-name="Trazado 615935" d="M126.262,60.315,80.525,86.892l-52.9-30.54L73.357,29.77Z" transform="translate(89.458 96.421)" fill="#3d3d3c"/>
            <path id="Trazado_615936" data-name="Trazado 615936" d="M85.848,36.976l-.013,12.356L40.1,75.914l.013-12.36Z" transform="translate(129.871 119.76)" fill="#242524"/>
            <path id="Trazado_615937" data-name="Trazado 615937" d="M80.535,66.582l-.013,12.356-52.9-30.545.013-12.352Z" transform="translate(89.448 116.733)" fill="#686765"/>
            <path id="Trazado_615938" data-name="Trazado 615938" d="M79.352,49.054,58.6,61.114l-24-13.857L55.348,35.193Z" transform="translate(112.044 113.986)" fill="#686765"/>
            <path id="Trazado_615939" data-name="Trazado 615939" d="M61.014,38.463l0,5.608L40.257,56.131l0-5.608Z" transform="translate(130.382 124.576)" fill="#242524"/>
            <path id="Trazado_615940" data-name="Trazado 615940" d="M58.6,51.9l0,5.608-24-13.861,0-5.6Z" transform="translate(112.042 123.204)" fill="#565554"/>
            <path id="Trazado_615941" data-name="Trazado 615941" d="M71.894,51.743l-.085,29.871-38.1-22L33.8,29.748Z" transform="translate(109.181 96.35)" fill="#353635"/>
            <path id="Trazado_615942" data-name="Trazado 615942" d="M42.783,37.5l5.761-3.349-.085,29.875L42.7,67.367Z" transform="translate(138.292 110.597)" fill="#484947"/>
            <path id="Trazado_615943" data-name="Trazado 615943" d="M33.731,32.307l5.761-3.349,38.1,22L71.829,54.3Z" transform="translate(109.247 93.79)" fill="#686765"/>
            <path id="Trazado_615944" data-name="Trazado 615944" d="M60.514,47.1l-.059,20.617L34.161,52.53l.059-20.613Z" transform="translate(110.641 103.372)" fill="#565554"/>
            <path id="Trazado_615945" data-name="Trazado 615945" d="M40.424,37.263l3.976-2.31L44.34,55.57l-3.976,2.31Z" transform="translate(130.732 113.205)" fill="#484947"/>
            <path id="Trazado_615946" data-name="Trazado 615946" d="M34.175,33.681l3.976-2.31L64.444,46.55l-3.976,2.31Z" transform="translate(110.686 101.606)" fill="#686765"/>
            <path id="Trazado_615947" data-name="Trazado 615947" d="M30.543,29.181l.106,38.187,2.094-1.212-.106-38.183Z" transform="translate(98.922 90.6)" fill="#353635"/>
            <path id="Trazado_615948" data-name="Trazado 615948" d="M32.421,29.349l-2.458-1.428.11,38.187,2.454,1.428Z" transform="translate(97.043 90.431)" fill="#686765"/>
            <path id="Trazado_615949" data-name="Trazado 615949" d="M34.515,29.064l-2.458-1.428-2.094,1.208,2.459,1.428Z" transform="translate(97.042 89.508)" fill="#a5a5a5"/>
            <path id="Trazado_615950" data-name="Trazado 615950" d="M47.515,37.111l-.042,15.34-19.566-11.3.042-15.34Z" transform="translate(90.383 83.611)" fill="#686765"/>
            <path id="Trazado_615951" data-name="Trazado 615951" d="M29.328,27.187l-.665-.381-.03,10.516,13.416,7.744,0-.7L29.3,37.008Z" transform="translate(92.736 86.818)" fill="#070505"/>
            <path id="Trazado_615952" data-name="Trazado 615952" d="M28.82,26.9l-.03,9.821,12.755,7.363.025-9.821Z" transform="translate(93.245 87.109)" fill="#222422"/>
            <path id="Trazado_615953" data-name="Trazado 615953" d="M32.565,29.795l2.959-1.721-.042,15.344-2.959,1.717Z" transform="translate(105.334 90.927)" fill="#484947"/>
            <path id="Trazado_615954" data-name="Trazado 615954" d="M27.916,27.13l2.959-1.721,19.566,11.3-2.959,1.717Z" transform="translate(90.415 82.296)" fill="#7e7c7a"/>
            <path id="Trazado_615955" data-name="Trazado 615955" d="M30.553,28.79l-.008,2.916,3.785,2.183,0-2.916Z" transform="translate(98.926 93.247)" fill="#bad532"/>
            <path id="Trazado_615956" data-name="Trazado 615956" d="M29.166,27.987,29.157,30.9l3.781,2.187.008-2.916Z" transform="translate(94.434 90.645)" fill="#bad532"/>
            <path id="Trazado_615957" data-name="Trazado 615957" d="M51.8,43.015a.339.339,0,0,1-.153-.038L35.3,34.02a.314.314,0,0,1,.3-.551l16.349,8.957a.314.314,0,0,1-.153.589" transform="translate(113.8 108.278)" fill="#353635"/>
            <path id="Trazado_615958" data-name="Trazado 615958" d="M51.8,43.407a.339.339,0,0,1-.153-.038L35.3,34.408a.312.312,0,1,1,.3-.547l16.349,8.957a.314.314,0,0,1-.153.589" transform="translate(113.8 109.543)" fill="#353635"/>
            <path id="Trazado_615959" data-name="Trazado 615959" d="M51.8,43.877a.339.339,0,0,1-.153-.038L35.3,34.882a.314.314,0,0,1-.123-.428.309.309,0,0,1,.424-.123l16.349,8.957a.314.314,0,0,1-.153.589" transform="translate(113.8 111.065)" fill="#353635"/>
            <path id="Trazado_615960" data-name="Trazado 615960" d="M51.8,44.268a.339.339,0,0,1-.153-.038L35.3,35.269a.312.312,0,1,1,.3-.547l16.349,8.957a.315.315,0,0,1-.153.589" transform="translate(113.8 112.331)" fill="#353635"/>
            <path id="Trazado_615961" data-name="Trazado 615961" d="M69.193,25.051a4.676,4.676,0,0,0-2.6-1.4h-.013L41.2,38.53l2.882,4.493s18.256-6.613,28.252-11.457a13.3,13.3,0,0,0-3.145-6.515" transform="translate(133.451 76.605)" fill="#fed09e"/>
            <g id="Grupo_1075049" data-name="Grupo 1075049" transform="translate(193.644 100.258)" style="mix-blend-mode: multiply;isolation: isolate">
              <g id="Grupo_1075048" data-name="Grupo 1075048">
                <g id="Grupo_1075047" data-name="Grupo 1075047" clip-path="url(#clip-path-14)">
                  <path id="Trazado_615962" data-name="Trazado 615962" d="M49.126,30.451a11.65,11.65,0,0,1,1.458,4.362c2.62-1.106,5.12-2.217,7.244-3.247a13.3,13.3,0,0,0-3.145-6.515,4.676,4.676,0,0,0-2.6-1.4h-.013L45.684,27.4a8.179,8.179,0,0,1,3.442,3.052" transform="translate(-45.683 -23.652)" fill="#fed09e"/>
                </g>
              </g>
            </g>
            <path id="Trazado_615963" data-name="Trazado 615963" d="M67.9,13.887s-6.295-.619-9.079,6.447-6.9,34.245-6.9,34.245l-5.794,3.4a4.888,4.888,0,0,1,.907.365,8.388,8.388,0,0,1,3.34,4.086A21.309,21.309,0,0,1,51.455,65.5c5.811-2.539,10.652-4.925,11.233-6.256C79.88,19.855,67.9,13.887,67.9,13.887" transform="translate(149.395 44.933)" fill="#f6f6f6"/>
            <path id="Trazado_615964" data-name="Trazado 615964" d="M53.007,28.122c-.928-1.649-2.327-3.518-4.188-4.218l-2.692,1.577a4.737,4.737,0,0,1,.9.365,8.373,8.373,0,0,1,3.344,4.086,21.183,21.183,0,0,1,1.081,3.077c1.064-.466,2.094-.924,3.069-1.373a17.382,17.382,0,0,0-1.518-3.514" transform="translate(149.395 77.422)" fill="#d4d6d7"/>
            <path id="Trazado_615965" data-name="Trazado 615965" d="M48.345,23.935l-2.594,1.649s4.315.716,6.536,8.6l2.437-1.276s-1.289-7.9-6.379-8.974" transform="translate(148.178 77.522)" fill="#f6f6f6"/>
            <path id="Trazado_615966" data-name="Trazado 615966" d="M57.778,33.755a7.714,7.714,0,0,0,1.488-3.467,3.218,3.218,0,0,0-2.035-3.128,5.216,5.216,0,0,0-2.56-.36,8.207,8.207,0,0,0-.9-.059,14.7,14.7,0,0,0-3.226.394,26.355,26.355,0,0,0-3.06.8,12.083,12.083,0,0,0-3.031,1.623c-1,.687-2.043,1.339-3.018,2.052a25.583,25.583,0,0,0-2.764,2.353c-.513.5-1.454,1.28-1.022,2,.331.555,1.229.165,1.666-.072a9.122,9.122,0,0,0,1.111-.78c.5-.386,1.013-.767,1.543-1.128A14.626,14.626,0,0,1,44.757,32.5c0,.047.013.093.013.14.025.4.042.8.059,1.2a12.138,12.138,0,0,0,.246,2.475,2.1,2.1,0,0,0,1.335,1.331,2.917,2.917,0,0,0,.517.136l.021.055a2.112,2.112,0,0,0,1.522,1.246,3.245,3.245,0,0,0,.966.093,1.5,1.5,0,0,0,.712.729,3.215,3.215,0,0,0,1.738.191,4.523,4.523,0,0,0,1.89-.649c.564-.356,1.034-.793,1.56-1.183.445-.326.962-.674,1.1-1.178a1.106,1.106,0,0,0-.543-1.208l-.051-.021a6.812,6.812,0,0,0,1.937-2.1" transform="translate(121.577 86.603)" fill="#fed09e"/>
            <g id="Grupo_1075052" data-name="Grupo 1075052" transform="translate(167.933 119.785)" style="mix-blend-mode: multiply;isolation: isolate">
              <g id="Grupo_1075051" data-name="Grupo 1075051">
                <g id="Grupo_1075050" data-name="Grupo 1075050" clip-path="url(#clip-path-15)">
                  <path id="Trazado_615967" data-name="Trazado 615967" d="M40.1,32.709a17.625,17.625,0,0,0-.106-1.835,12.125,12.125,0,0,0-.373-2.615,22.459,22.459,0,0,0,.479,4.451" transform="translate(-39.619 -28.262)" fill="#fed09e"/>
                </g>
              </g>
            </g>
            <g id="Grupo_1075055" data-name="Grupo 1075055" transform="translate(170.714 122.01)" style="mix-blend-mode: multiply;isolation: isolate">
              <g id="Grupo_1075054" data-name="Grupo 1075054">
                <g id="Grupo_1075053" data-name="Grupo 1075053" clip-path="url(#clip-path-16)">
                  <path id="Trazado_615968" data-name="Trazado 615968" d="M40.274,28.784c.017.793-.008,1.59.038,2.382a10.2,10.2,0,0,0,.165,1.344,11,11,0,0,0-.2-3.726" transform="translate(-40.275 -28.783)" fill="#fed09e"/>
                </g>
              </g>
            </g>
            <g id="Grupo_1075058" data-name="Grupo 1075058" transform="translate(173.909 122.503)" style="mix-blend-mode: multiply;isolation: isolate">
              <g id="Grupo_1075057" data-name="Grupo 1075057">
                <g id="Grupo_1075056" data-name="Grupo 1075056" clip-path="url(#clip-path-17)">
                  <path id="Trazado_615969" data-name="Trazado 615969" d="M43.806,29.162l-.136.093c-.42.259-.873.449-1.293.712a4.3,4.3,0,0,0-1.017.814,1.37,1.37,0,0,0-.123.182,2.3,2.3,0,0,1-.093-.237l-.051-.161a1.207,1.207,0,0,0-.059.212.831.831,0,0,0,.148.572,1.326,1.326,0,0,0,.377.39l.059.03a.62.62,0,0,0-.059-.161c-.034-.059-.076-.114-.106-.178a.958.958,0,0,1-.072-.148,3.249,3.249,0,0,1,.979-1A24.159,24.159,0,0,0,44.475,28.9c-.225.076-.449.165-.67.263" transform="translate(-41.029 -28.903)" fill="#fed09e"/>
                </g>
              </g>
            </g>
            <path id="Trazado_615970" data-name="Trazado 615970" d="M15.732,29.324a13.015,13.015,0,0,1,1.818,6.723,8.575,8.575,0,0,1-2.658,7.1c-1.14,1.369-4.362-.742-4.362-.742l.7-13.077Z" transform="translate(34.108 94.976)" fill="#fed09e"/>
            <g id="Grupo_1075061" data-name="Grupo 1075061" transform="translate(44.639 124.298)" style="mix-blend-mode: multiply;isolation: isolate">
              <g id="Grupo_1075060" data-name="Grupo 1075060">
                <g id="Grupo_1075059" data-name="Grupo 1075059" clip-path="url(#clip-path-18)">
                  <path id="Trazado_615971" data-name="Trazado 615971" d="M15.732,29.324a13.015,13.015,0,0,1,1.818,6.723,8.575,8.575,0,0,1-2.658,7.1c-1.14,1.369-4.362-.742-4.362-.742l.7-13.077Z" transform="translate(-10.531 -29.322)" fill="#fed09e"/>
                </g>
              </g>
            </g>
            <path id="Trazado_615972" data-name="Trazado 615972" d="M9.951,55.38c2.081-.763-2.742-43.49-.526-43.062.954.182,6.723,1.725,9.283,5.477,4.366,6.384.521,38.069.551,38.1l1.984,29.515-5.366.144S11.053,66.643,9.425,55.588c.174-.072.348-.144.526-.208" transform="translate(28.592 39.888)" fill="#fed09e"/>
            <path id="Trazado_615973" data-name="Trazado 615973" d="M10.069,31.4a3.31,3.31,0,0,1,.7-1.895c1.217-1.437,3.349-1,4.811-.233a6.388,6.388,0,0,1,3.158,3.188c.9,2.276.6,4.743.123,7.075-.136.682-.216,2.7-.738,3.162-.674.593-1.352-.237-1.56-.92a9.082,9.082,0,0,1-.432-2.819,9.134,9.134,0,0,0,0-2.475c-.229-.971-1.14-1.3-1.98-1.615A6.868,6.868,0,0,1,10.12,31.52a1.066,1.066,0,0,1-.051-.123" transform="translate(32.611 92.5)" fill="#fed09e"/>
            <g id="Grupo_1075064" data-name="Grupo 1075064" transform="translate(42.682 121.064)" style="mix-blend-mode: multiply;isolation: isolate">
              <g id="Grupo_1075063" data-name="Grupo 1075063">
                <g id="Grupo_1075062" data-name="Grupo 1075062" clip-path="url(#clip-path-19)">
                  <path id="Trazado_615974" data-name="Trazado 615974" d="M10.765,29.5c1.111-1.314,2.984-1.055,4.413-.42a1.363,1.363,0,0,0-.263.7,6.4,6.4,0,0,0,.763,2.976,7.87,7.87,0,0,1,.983,3.243,25.43,25.43,0,0,1-.5,3.828,6.146,6.146,0,0,1-.034-.877,9.34,9.34,0,0,0,0-2.48c-.229-.966-1.14-1.293-1.984-1.611a6.868,6.868,0,0,1-4.023-3.344L10.07,31.4a3.27,3.27,0,0,1,.7-1.895" transform="translate(-10.067 -28.56)" fill="#fed09e"/>
                </g>
              </g>
            </g>
            <path id="Trazado_615975" data-name="Trazado 615975" d="M21.9,33.873l-7.151,85.674s-1.187,5.943-5.036,3.836a38.781,38.781,0,0,1-1.534-6.977C7.8,113.8,3.619,94.878,7.218,65.956a88.558,88.558,0,0,0-1.9-30.994Z" transform="translate(17.214 109.709)" fill="#fed09e"/>
            <g id="Grupo_1075067" data-name="Grupo 1075067" transform="translate(22.528 143.583)" style="mix-blend-mode: multiply;isolation: isolate">
              <g id="Grupo_1075066" data-name="Grupo 1075066">
                <g id="Grupo_1075065" data-name="Grupo 1075065" clip-path="url(#clip-path-20)">
                  <path id="Trazado_615976" data-name="Trazado 615976" d="M7.218,65.957c-.106.835-.2,1.657-.292,2.471.106-.1.208-.208.314-.309a52.855,52.855,0,0,1,9.622-7.21q1.437-.852,2.921-1.628L21.9,33.874,5.315,34.959a88.574,88.574,0,0,1,1.9,31" transform="translate(-5.314 -33.871)" fill="#fed09e"/>
                </g>
              </g>
            </g>
            <g id="Grupo_1075070" data-name="Grupo 1075070" transform="translate(31.915 172.977)" style="mix-blend-mode: multiply;isolation: isolate">
              <g id="Grupo_1075069" data-name="Grupo 1075069">
                <g id="Grupo_1075068" data-name="Grupo 1075068" clip-path="url(#clip-path-21)">
                  <path id="Trazado_615977" data-name="Trazado 615977" d="M7.529,43.021c1.144-.564,2.348-.983,3.51-1.518a10.325,10.325,0,0,0,1.238-.7l-.195,2.353a3.827,3.827,0,0,1-2,.534,4.713,4.713,0,0,1-2.552-.674" transform="translate(-7.53 -40.807)" fill="#fed09e"/>
                </g>
              </g>
            </g>
            <g id="Grupo_1075073" data-name="Grupo 1075073" transform="translate(22.528 143.583)" style="mix-blend-mode: multiply;isolation: isolate">
              <g id="Grupo_1075072" data-name="Grupo 1075072">
                <g id="Grupo_1075071" data-name="Grupo 1075071" clip-path="url(#clip-path-22)">
                  <path id="Trazado_615978" data-name="Trazado 615978" d="M14.721,59.751A29.643,29.643,0,0,0,9.94,62.387a11.362,11.362,0,0,0-2.611,2.624A88.874,88.874,0,0,0,5.315,34.962L21.9,33.873l-1.907,22.86a26.622,26.622,0,0,1-5.273,3.018" transform="translate(-5.314 -33.874)" fill="#fed09e"/>
                </g>
              </g>
            </g>
            <path id="Trazado_615979" data-name="Trazado 615979" d="M5.982,58.423c.051,3.929,2.9,6.918,6,8.961a37.415,37.415,0,0,0,5.188,2.781c.835.377,1.679.733,2.518,1.094.665.288,1.31.619,1.992.86a3.852,3.852,0,0,0,2.268.3,1.222,1.222,0,0,0,.835-1.556,4.871,4.871,0,0,0-1.484-1.92c-.581-.534-1.229-1.026-1.789-1.522a45.579,45.579,0,0,1-5.332-5.409,24.9,24.9,0,0,1-3.794-6.672.278.278,0,0,0-.153-.119,3.53,3.53,0,0,0-3.5-1.954,2.857,2.857,0,0,0-2.4,1.92,9.681,9.681,0,0,0-.348,3.238" transform="translate(19.365 172.411)" fill="#fed09e"/>
            <path id="Trazado_615980" data-name="Trazado 615980" d="M5.685,59.631c.288-3.993,2.039-5.765,2.039-5.765s-.174,4.968,2.2,7.049a9.979,9.979,0,0,0,2.586,2.217,50.884,50.884,0,0,0,4.866,2.815,31.3,31.3,0,0,0,3.565,1.662c.9.339,2.234.869,3.183.411a1.152,1.152,0,0,0,.661-1.115c.945.178,5.019,3.751,3.052,5.773-2.018,2.073-10.864-1.153-16.866-5.621S5.4,63.624,5.685,59.631" transform="translate(17.954 174.462)" fill="#7a65ad"/>
            <path id="Trazado_615981" data-name="Trazado 615981" d="M19.13,35l-7.151,85.674s-1.187,5.943-5.036,3.836a38.781,38.781,0,0,1-1.534-6.977C5.031,114.92.848,96,4.446,67.086a88.513,88.513,0,0,0-1.907-31Z" transform="translate(8.223 113.353)" fill="#fed09e"/>
            <g id="Grupo_1075076" data-name="Grupo 1075076" transform="translate(21.113 178.708)" style="mix-blend-mode: multiply;isolation: isolate">
              <g id="Grupo_1075075" data-name="Grupo 1075075">
                <g id="Grupo_1075074" data-name="Grupo 1075074" clip-path="url(#clip-path-23)">
                  <path id="Trazado_615982" data-name="Trazado 615982" d="M4.981,43.232A29.554,29.554,0,0,1,8.69,42.16L8.6,43.232a9.427,9.427,0,0,1-2.124.237,4.472,4.472,0,0,1-1.5-.237" transform="translate(-4.981 -42.159)" fill="#fed09e"/>
                </g>
              </g>
            </g>
            <g id="Grupo_1075079" data-name="Grupo 1075079" transform="translate(10.766 148.351)" style="mix-blend-mode: multiply;isolation: isolate">
              <g id="Grupo_1075078" data-name="Grupo 1075078">
                <g id="Grupo_1075077" data-name="Grupo 1075077" clip-path="url(#clip-path-24)">
                  <path id="Trazado_615983" data-name="Trazado 615983" d="M12.76,61.732a10.171,10.171,0,0,0-5.163,3.4,27.564,27.564,0,0,0-3.238,5.981c-.174.411-.335.827-.5,1.238q.248-2.575.581-5.269a88.574,88.574,0,0,0-1.9-31L19.126,35,16.99,60.63c-1.407.369-2.844.657-4.23,1.1" transform="translate(-2.54 -34.998)" fill="#fed09e"/>
                </g>
              </g>
            </g>
            <path id="Trazado_615984" data-name="Trazado 615984" d="M3.208,59.548c.047,3.929,2.9,6.918,6,8.961a37.413,37.413,0,0,0,5.188,2.781c.831.377,1.679.733,2.518,1.094.665.288,1.31.619,1.992.86a3.852,3.852,0,0,0,2.268.3,1.222,1.222,0,0,0,.835-1.556,4.871,4.871,0,0,0-1.484-1.92c-.581-.534-1.229-1.026-1.789-1.522a45.221,45.221,0,0,1-5.328-5.409,24.8,24.8,0,0,1-3.8-6.672.274.274,0,0,0-.157-.119,3.514,3.514,0,0,0-3.5-1.954,2.857,2.857,0,0,0-2.4,1.92,9.573,9.573,0,0,0-.348,3.238" transform="translate(10.378 176.054)" fill="#fed09e"/>
            <path id="Trazado_615985" data-name="Trazado 615985" d="M2.911,60.759C3.2,56.766,4.95,54.99,4.95,54.99s-.174,4.972,2.2,7.053A9.98,9.98,0,0,0,9.736,64.26,50.891,50.891,0,0,0,14.6,67.075a31.3,31.3,0,0,0,3.565,1.662c.9.339,2.234.869,3.183.411a1.152,1.152,0,0,0,.661-1.115c.945.178,5.019,3.751,3.052,5.773C23.045,75.879,14.2,72.653,8.2,68.185s-5.574-3.433-5.286-7.426" transform="translate(8.97 178.103)" fill="#6f5c9d"/>
            <path id="Trazado_615986" data-name="Trazado 615986" d="M41.327,27s2.887,2.348,4.608,14.844S47.6,85.374,47.6,85.374a63.809,63.809,0,0,1-16.031,7.418C23.231,95.072,2.241,90.85.223,87.323c0,0,4.472-27.938,5.3-38.776s5.493-24.3,5.493-24.3Z" transform="translate(0.722 78.529)" fill="#7f6c94"/>
            <g id="Grupo_1075082" data-name="Grupo 1075082" transform="translate(0.946 102.779)" style="mix-blend-mode: multiply;isolation: isolate">
              <g id="Grupo_1075081" data-name="Grupo 1075081">
                <g id="Grupo_1075080" data-name="Grupo 1075080" clip-path="url(#clip-path-25)">
                  <path id="Trazado_615987" data-name="Trazado 615987" d="M5.521,48.539c.827-10.843,5.493-24.292,5.493-24.292L41.327,27a6.866,6.866,0,0,1,1.42,2.208,14.916,14.916,0,0,1-11.131,9.431c-2.73.487-5.557.449-8.24,1.183a7.5,7.5,0,0,0-3.149,1.607,8.758,8.758,0,0,0-1.865,2.806A28.659,28.659,0,0,0,16.267,52c-.428,2.768-.661,5.557-.9,8.346-.259,3.048-.606,6.083-.852,9.13-.331,4.129-.6,8.261-.835,12.394-.2,3.425-.377,6.854-.56,10.279C6.751,90.94,1.211,89.045.223,87.32c0,0,4.476-27.938,5.3-38.781" transform="translate(-0.223 -24.246)" fill="#7f6c94"/>
                </g>
              </g>
            </g>
            <path id="Trazado_615988" data-name="Trazado 615988" d="M22.335,11.936s12.937,1.331,15.031,3.073c0,0,8.948,13.149,8.211,22.733S39.634,68.52,39.634,68.52,37.3,75.865,27.227,78.027,6.885,74.369,6.652,68.854,3.663,36.712,3.663,36.712s-4.222-8.037-1.45-12.665a30.064,30.064,0,0,1,4.438-4.239c4.883-2.717,15.684-7.871,15.684-7.871" transform="translate(4.115 38.66)" fill="#76ccce"/>
            <g id="Grupo_1075085" data-name="Grupo 1075085" transform="translate(5.384 50.595)" style="mix-blend-mode: multiply;isolation: isolate">
              <g id="Grupo_1075084" data-name="Grupo 1075084">
                <g id="Grupo_1075083" data-name="Grupo 1075083" clip-path="url(#clip-path-26)">
                  <path id="Trazado_615989" data-name="Trazado 615989" d="M2.213,24.042a30.28,30.28,0,0,1,4.442-4.235c4.887-2.717,15.684-7.871,15.684-7.871s6.85.708,11.39,1.763a14.031,14.031,0,0,0-5.6,1.361.442.442,0,0,0-.2.487c.483,1.628,1.085,3.209,1.462,4.866a8.06,8.06,0,0,1,.038,4.493A4.1,4.1,0,0,1,25.746,27.5a8.458,8.458,0,0,1-4.887-1.607,17.735,17.735,0,0,1-3.739-3.268c-.271-.318-.708-.03-.746.305-.441,4.379-1.2,8.719-1.907,13.064-.627,3.789-1.212,7.587-1.526,11.411a73.71,73.71,0,0,0,.038,11.729c.483,6.057,1.522,12.047,2.369,18.057C10.377,75.42,6.79,72.084,6.655,68.85c-.237-5.51-2.993-32.143-2.993-32.143S-.56,28.671,2.213,24.042" transform="translate(-1.272 -11.935)" fill="#76ccce"/>
                </g>
              </g>
            </g>
            <path id="Trazado_615990" data-name="Trazado 615990" d="M16.4,14.5s-.848,8.791.738,11.148-1.153,5.955-5.332,4.3-7.019-5.51-7.189-9.13,0-10.83,0-10.83Z" transform="translate(14.7 32.334)" fill="#fed09e"/>
            <g id="Grupo_1075088" data-name="Grupo 1075088" transform="translate(19.241 42.317)" style="mix-blend-mode: multiply;isolation: isolate">
              <g id="Grupo_1075087" data-name="Grupo 1075087">
                <g id="Grupo_1075086" data-name="Grupo 1075086" clip-path="url(#clip-path-27)">
                  <path id="Trazado_615991" data-name="Trazado 615991" d="M16.233,21.652a15.651,15.651,0,0,1-7.083-1.39,19.614,19.614,0,0,1-4.608-2.853c-.021-3.51.068-7.426.068-7.426L16.394,14.5a52.713,52.713,0,0,0-.161,7.155" transform="translate(-4.539 -9.982)" fill="#fed09e"/>
                </g>
              </g>
            </g>
            <path id="Trazado_615992" data-name="Trazado 615992" d="M6.636,36.693a23.426,23.426,0,0,1-2.018-5.235A51.911,51.911,0,0,1,3.61,25.99c-.42-3.018-.712-6.061-1.259-9.058A16.822,16.822,0,0,1,2.8,14.783,17.821,17.821,0,0,1,10.409,4.678,19.225,19.225,0,0,1,23.88,2.439a25.139,25.139,0,0,1,7.329,2.425,17.949,17.949,0,0,1,5.845,4.374A8.628,8.628,0,0,1,38.665,12.4a23.915,23.915,0,0,1,.492,3.247c.064.475.136.958.195,1.437a.151.151,0,0,1,.047.093c.008.14,0,.276.008.411a11.092,11.092,0,0,1,.068,1.123,4.315,4.315,0,0,1-.309,2.064c-.182,1.178-.441,2.353-.691,3.518-.534,2.522-.924,5.065-1.471,7.583-.263,1.212-.551,2.416-.873,3.616a7.707,7.707,0,0,1-1.178,2.67c-.687.916-7.719,7.85-9.575,7.994a16.107,16.107,0,0,1-6.511-1.3,42.841,42.841,0,0,1-6.57-3.022,48.005,48.005,0,0,1-4.319-2.675c-.445-.827-.9-1.645-1.339-2.475" transform="translate(7.614 6.824)" fill="#fed09e"/>
            <path id="Trazado_615993" data-name="Trazado 615993" d="M4.645,18.864s7.647-9.614,10.449-2.505S9.261,54.737,9.261,54.737l.8,30.269H2.729S.881,65.44.241,54.737c-.4-6.731,4.4-35.873,4.4-35.873" transform="translate(0.704 44.503)" fill="#fed09e"/>
            <path id="Trazado_615994" data-name="Trazado 615994" d="M2.054,81.017a8.947,8.947,0,0,0,1.7,2.492,15.056,15.056,0,0,1,2.06,2.2c.237.373.945.326.682-.2A15.052,15.052,0,0,1,5.5,77.392,36.624,36.624,0,0,1,7.081,70.17c.75-2.412,1.594-4.79,2.552-7.125.521-1.276,1.149-2.62,1.7-4a23.973,23.973,0,0,1,2.34,1.543,27.7,27.7,0,0,1,4.239,3.828,17.165,17.165,0,0,1,3.154,4.65A22.034,22.034,0,0,1,22.7,74.684a12.129,12.129,0,0,1-.369,5.82c-.127.339.483.755.755.53,1.462-1.191,1.865-3.272,2.009-5.12a13.686,13.686,0,0,0-.632-7.032l-.017-.047c-.131-.517-.271-1.03-.432-1.539a35.277,35.277,0,0,0-1.725-4.243c-.466-1.123-.937-2.242-1.39-3.361-.5-1.238-1.009-2.5-1.484-3.781-.242-.873-.432-1.763-.6-2.658,1.585,5.146,4.277,9.965,6.15,14.993a21.826,21.826,0,0,1,1.31,4.985,23.359,23.359,0,0,1,.106,4.146,12.28,12.28,0,0,1-2.781,7.63c-.148.17.229.47.39.331,2.242-1.954,2.954-5.282,3.183-8.113a20.438,20.438,0,0,0-.051-4.29A21.978,21.978,0,0,0,25.8,68.042c-1.272-3.353-2.861-6.579-4.243-9.885a38.012,38.012,0,0,1-3.065-10.3,20.509,20.509,0,0,1-.1-3.493,24.528,24.528,0,0,0,1.725,7.27,94.587,94.587,0,0,0,4.743,9.219A38.292,38.292,0,0,1,28.907,70.5a16.525,16.525,0,0,1,.377,5.163,16.1,16.1,0,0,1-1.509,5.222c-.085.187.25.437.356.25A15.028,15.028,0,0,0,29.5,70.11c-1.64-6.854-6.273-12.475-8.749-18.994a25.318,25.318,0,0,1-1.314-12.331A28.309,28.309,0,0,1,21.2,32.491,20.662,20.662,0,0,1,22.4,29.778c.072-.131.136-.263.2-.394.055.013.11.021.165.03.432.068.865.119,1.3.174a17.065,17.065,0,0,0,1.814.22c.178.013.365,0,.547,0a28.478,28.478,0,0,0,11.5-1.471,16.435,16.435,0,0,0,3.128-1.484,11.159,11.159,0,0,0,1.31-.716,8.32,8.32,0,0,0,3.179-4.353c.131-.246.263-.5.386-.746.042-.089.081-.182.123-.271a15,15,0,0,1,.2,1.509,9.29,9.29,0,0,1-.771,5.133c-.148.263.309.678.534.462a11.315,11.315,0,0,0,2.929-5.036,15.512,15.512,0,0,0-.479-9.109,15.281,15.281,0,0,0-1.645-3.535A14.828,14.828,0,0,0,39.66,3.54c-3.7-1.7-7.871-2.09-11.89-2.319a20.3,20.3,0,0,0-9.478,1.632,17.651,17.651,0,0,0-7.159,5.909,30.212,30.212,0,0,0-4.3,10.313A50.115,50.115,0,0,0,5.47,30.884c0,4.192.653,8.333.966,12.509a41.532,41.532,0,0,1,0,6.812,32.547,32.547,0,0,1-.39,3.315c-.581,3.366-1.967,6.468-3.166,9.643A40.327,40.327,0,0,0,.235,72.717a18.622,18.622,0,0,0-.114,2.056,22.963,22.963,0,0,0,1.933,6.244M17.585,44.3a19.187,19.187,0,0,0,.013,2.878c-.03.305-.055.615-.076.916,0,.093,0,.187-.008.28-.013-.127-.034-.259-.042-.386a18.8,18.8,0,0,1,.114-3.688" transform="translate(0.392 3.837)" fill="#343947"/>
            <path id="Trazado_615995" data-name="Trazado 615995" d="M3.958,30.927A36.566,36.566,0,0,1,7.938,29.6s3.489.157,4.209,4.332a27.071,27.071,0,0,0,2.2,7.083L11.9,46.144s-.534,1.848-1.284.454a2.482,2.482,0,0,1-.22-.534l.042,3.026a9.935,9.935,0,0,1-6.418-.284C3,48.247.491,47.395,0,44.173c.564-6.379,2.314-12.585,3.959-13.246" transform="translate(-0.003 95.857)" fill="#fed09e"/>
            <g id="Grupo_1075091" data-name="Grupo 1075091" transform="translate(10.506 135.553)" style="mix-blend-mode: multiply;isolation: isolate">
              <g id="Grupo_1075090" data-name="Grupo 1075090">
                <g id="Grupo_1075089" data-name="Grupo 1075089" clip-path="url(#clip-path-28)">
                  <path id="Trazado_615996" data-name="Trazado 615996" d="M3.081,35.1l.013-.034a6.662,6.662,0,0,0,.28-1.272c.136-.6.263-1.208.381-1.814a9.469,9.469,0,0,1-.28,3.145c-.174.547-.411,1.064-.564,1.619s-.271,1.119-.432,1.674c.136-1.119.36-2.221.6-3.319" transform="translate(-2.477 -31.978)" fill="#fed09e"/>
                </g>
              </g>
            </g>
            <g id="Grupo_1075094" data-name="Grupo 1075094" transform="translate(7.327 138.744)" style="mix-blend-mode: multiply;isolation: isolate">
              <g id="Grupo_1075093" data-name="Grupo 1075093">
                <g id="Grupo_1075092" data-name="Grupo 1075092" clip-path="url(#clip-path-29)">
                  <path id="Trazado_615997" data-name="Trazado 615997" d="M2.307,34.652a13.575,13.575,0,0,0-.144,2.221,16.345,16.345,0,0,0,.068,2.09,7.077,7.077,0,0,1-.479-3.188,23.048,23.048,0,0,1,.517-3.043,7.849,7.849,0,0,1,.038,1.92" transform="translate(-1.729 -32.731)" fill="#fed09e"/>
                </g>
              </g>
            </g>
            <g id="Grupo_1075097" data-name="Grupo 1075097" transform="translate(4.503 140.576)" style="mix-blend-mode: multiply;isolation: isolate">
              <g id="Grupo_1075096" data-name="Grupo 1075096">
                <g id="Grupo_1075095" data-name="Grupo 1075095" clip-path="url(#clip-path-30)">
                  <path id="Trazado_615998" data-name="Trazado 615998" d="M1.063,34.542l.013-.22.013-.144a2.9,2.9,0,0,1,.322-1.013c0,.242-.017.483-.008.725a4.784,4.784,0,0,0,.072.852c.055.606.131,1.2.242,1.8-.076-.144-.153-.288-.225-.437a6.19,6.19,0,0,1-.369-1.1,2.97,2.97,0,0,1-.059-.428v-.038" transform="translate(-1.06 -33.163)" fill="#fed09e"/>
                </g>
              </g>
            </g>
            <g id="Grupo_1075100" data-name="Grupo 1075100" transform="translate(1.696 140.719)" style="mix-blend-mode: multiply;isolation: isolate">
              <g id="Grupo_1075099" data-name="Grupo 1075099">
                <g id="Grupo_1075098" data-name="Grupo 1075098" clip-path="url(#clip-path-31)">
                  <path id="Trazado_615999" data-name="Trazado 615999" d="M.6,33.306c.03-.123.17-.127.259-.085a.288.288,0,0,1,.174.288,10.284,10.284,0,0,0-.072,1.081,3.229,3.229,0,0,0,.034.534c.025.157.123.407.013.543-.076.1-.61-1.013-.6-1.2A5.949,5.949,0,0,1,.6,33.306" transform="translate(-0.401 -33.198)" fill="#fed09e"/>
                </g>
              </g>
            </g>
          </g>
        </g>
      </g>
    </g>
  </g>
</svg>
