<svg xmlns="http://www.w3.org/2000/svg" xmlns:xlink="http://www.w3.org/1999/xlink" width="109" height="109" viewBox="0 0 109 109">
  <defs>
    <clipPath id="clip-path">
      <rect id="Rect치ngulo_378994" data-name="Rect치ngulo 378994" width="46.583" height="66.664" fill="none"/>
    </clipPath>
  </defs>
  <g id="img3" transform="translate(-287.668 -4447.437)">
    <path id="Elipse_5845" data-name="Elipse 5845" d="M53.5,0A53.5,53.5,0,1,1,0,53.5,53.5,53.5,0,0,1,53.5,0Z" transform="translate(288.668 4448.437)" fill="#fff" stroke="#b9daff" stroke-width="2"/>
    <g id="Grupo_1075264" data-name="Grupo 1075264" transform="translate(318.877 4468.604)">
      <rect id="Rect치ngulo_378993" data-name="Rect치ngulo 378993" width="14.641" height="6.694" transform="translate(16.723 58.975)" fill="#fffffa"/>
      <path id="Trazado_616466" data-name="Trazado 616466" d="M120.921,93.178v11.627l0-11.627Z" transform="translate(-109.971 -84.741)" fill="#fff"/>
      <g id="Grupo_1075263" data-name="Grupo 1075263">
        <g id="Grupo_1075262" data-name="Grupo 1075262" clip-path="url(#clip-path)">
          <path id="Trazado_616467" data-name="Trazado 616467" d="M115.114,214.017a2.507,2.507,0,0,1-2.484-2.168,2.507,2.507,0,0,1-2.441,1.937h-.241a2.508,2.508,0,0,1-2.422-1.859,2.507,2.507,0,0,1-2.5,2.364h-.241a2.508,2.508,0,0,1-2.463-2.037,2.507,2.507,0,0,1-2.462,2.037h-.241a2.507,2.507,0,0,1-2.484-2.168,2.508,2.508,0,0,1-2.442,1.938h-.241a2.508,2.508,0,0,1-2.463-2.037,2.508,2.508,0,0,1-2.463,2.037h-.241a2.508,2.508,0,0,1-2.426-1.873,2.549,2.549,0,0,1-2.544,2.314h-.241a2.5,2.5,0,0,1-.7-.1V251.12H115.84V213.969a2.515,2.515,0,0,1-.485.048Z" transform="translate(-75.828 -192.665)" fill="#fff"/>
          <path id="Trazado_616468" data-name="Trazado 616468" d="M69.039,93.1V93.1H63.873v12.076c0,.062,0,.123.009.184,0,.044.008.087.013.13s.013.1.022.156c-.006.032-.015.063-.022.095a2.51,2.51,0,0,0,1.744,1.843V93.1Z" transform="translate(-58.089 -84.666)" fill="#d5d8d8"/>
          <path id="Trazado_616469" data-name="Trazado 616469" d="M115.589,93.178H86.781l0,11.627V93.178h-3.4v14.476a2.5,2.5,0,0,0,.7.1h.241a2.549,2.549,0,0,0,2.544-2.314,2.508,2.508,0,0,0,2.426,1.873h.241a2.507,2.507,0,0,0,2.463-2.037,2.508,2.508,0,0,0,2.463,2.037h.241a2.508,2.508,0,0,0,2.441-1.937,2.507,2.507,0,0,0,2.484,2.168h.241a2.507,2.507,0,0,0,2.462-2.037,2.508,2.508,0,0,0,2.463,2.037h.241a2.507,2.507,0,0,0,2.5-2.364,2.508,2.508,0,0,0,2.422,1.859h.241a2.508,2.508,0,0,0,2.441-1.937,2.507,2.507,0,0,0,2.484,2.168h.241a2.509,2.509,0,0,0,.485-.048V93.178Z" transform="translate(-75.829 -84.74)" fill="#d5d8d8"/>
          <path id="Trazado_616470" data-name="Trazado 616470" d="M53.282,0a4.517,4.517,0,0,0-4.5,4.5v57.66a4.512,4.512,0,0,0,4.5,4.5h15.3V65.042a2.632,2.632,0,1,1,0-5.185V58.333H51.912V7.141H68.58V0ZM63.549,61.4A1.051,1.051,0,1,1,62.5,62.45,1.051,1.051,0,0,1,63.549,61.4" transform="translate(-44.362)" fill="#134f78"/>
          <path id="Trazado_616471" data-name="Trazado 616471" d="M281.17,0H266.748l-.069,5.205.069,0V7.141h15.794V58.333H266.748v1.524a2.628,2.628,0,0,1,0,5.185v1.622H281.17a4.514,4.514,0,0,0,4.5-4.5V4.5a4.515,4.515,0,0,0-4.5-4.5m-5.892,3.872c.037-.325.044-.514.044-.3a1.061,1.061,0,0,1-.044.3M270.9,63.5a1.051,1.051,0,1,1,1.052-1.052A1.052,1.052,0,0,1,270.9,63.5" transform="translate(-242.53 0)" fill="#0d3754"/>
          <path id="Trazado_616472" data-name="Trazado 616472" d="M187.522,340.99a.87.87,0,0,1,.122-.432,26.36,26.36,0,0,1,2.07-2.54q1.826-2.1,3.77-4.024,2.629-2.6,3.9-3.747a27.32,27.32,0,0,1,2.273-1.948,1.173,1.173,0,0,1,.563-.174.624.624,0,0,1,.427.2.678.678,0,0,1,.211.512q0,.253-.582.732a72.459,72.459,0,0,0-6.094,5.728,63.05,63.05,0,0,0-4.789,5.54q-.6.845-1.193.845a.64.64,0,0,1-.484-.2.687.687,0,0,1-.192-.493m4.4-13.09a2.077,2.077,0,0,1,1.488.587,1.8,1.8,0,0,1,.615,1.329,3.961,3.961,0,0,1-1.08,2.766,3.463,3.463,0,0,1-2.657,1.178,2.073,2.073,0,0,1-1.521-.606,1.993,1.993,0,0,1-.61-1.47,3.722,3.722,0,0,1,1.136-2.573,3.507,3.507,0,0,1,2.629-1.211m-.263,1.305a1.617,1.617,0,0,0-1.385.737,2.649,2.649,0,0,0-.521,1.554.965.965,0,0,0,.258.676.816.816,0,0,0,.624.282,1.54,1.54,0,0,0,1.24-.807,2.793,2.793,0,0,0,.554-1.578.94.94,0,0,0-.216-.587.672.672,0,0,0-.554-.277m5.709,6.658a2.071,2.071,0,0,1,1.484.582,1.8,1.8,0,0,1,.61,1.333,3.971,3.971,0,0,1-1.075,2.765,3.449,3.449,0,0,1-2.653,1.178,2.073,2.073,0,0,1-1.521-.606,1.993,1.993,0,0,1-.61-1.47,3.73,3.73,0,0,1,1.131-2.573,3.5,3.5,0,0,1,2.634-1.211m-.272,1.305a1.606,1.606,0,0,0-1.38.737,2.664,2.664,0,0,0-.516,1.554.98.98,0,0,0,.253.671.806.806,0,0,0,.629.286,1.534,1.534,0,0,0,1.23-.812,2.8,2.8,0,0,0,.554-1.573.939.939,0,0,0-.216-.587.673.673,0,0,0-.554-.277" transform="translate(-170.541 -298.207)" fill="#ef5558"/>
          <path id="Trazado_616473" data-name="Trazado 616473" d="M5.188,83.948c-.005-.043-.01-.086-.013-.13,0-.061-.009-.122-.009-.184V71.558H0V83.634a2.507,2.507,0,0,0,2.507,2.507h.241A2.505,2.505,0,0,0,5.188,84.2c-.007-.032-.016-.063-.022-.095.01-.051.016-.1.022-.156M4.707,73.055c-.007-.032-.016-.063-.022-.095.009-.051.016-.1.022-.156s-.01-.087-.014-.13c0-.061-.009-.122-.009-.184,0,.062,0,.123.009.184,0,.044.008.087.014.13s.013.1.022.156c-.006.032-.015.063-.022.095" transform="translate(0 -65.078)" fill="#ef5554"/>
          <path id="Trazado_616474" data-name="Trazado 616474" d="M5.166,38.027l3.218-3.252-3.071,0L0,38.027v.079H5.166Z" transform="translate(0 -31.625)" fill="#b92026"/>
          <path id="Trazado_616475" data-name="Trazado 616475" d="M57.048,38.042h5.166v-.079l2.059-3.259-4.008.006-3.218,3.252Z" transform="translate(-51.882 -31.562)" fill="#e5dbe3"/>
          <path id="Trazado_616476" data-name="Trazado 616476" d="M62.214,71.558H57.048V83.634c0,.062,0,.123.009.184,0,.044.008.087.013.13s.013.1.022.156c-.006.032-.015.063-.022.095a2.506,2.506,0,0,0,2.44,1.942h.241A2.549,2.549,0,0,0,62.3,83.827a2.515,2.515,0,0,1-.081-.635Z" transform="translate(-51.882 -65.078)" fill="#fff"/>
          <path id="Trazado_616477" data-name="Trazado 616477" d="M57.048,204.91c0,.062,0,.123.009.184-.005-.061-.009-.122-.009-.184" transform="translate(-51.882 -186.354)" fill="#fff"/>
          <path id="Trazado_616478" data-name="Trazado 616478" d="M51.736,82.035c-.005-.061-.009-.122-.009-.184,0,.062,0,.123.009.184" transform="translate(-47.043 -74.439)" fill="#5c5c5f"/>
          <path id="Trazado_616479" data-name="Trazado 616479" d="M51.728,85.474c.006.032.015.063.022.095.007-.032.016-.063.022-.095-.01-.051-.016-.1-.022-.156-.007.052-.013.1-.022.156" transform="translate(-47.044 -77.592)" fill="#5c5c5f"/>
          <path id="Trazado_616480" data-name="Trazado 616480" d="M119.262,71.558H114.1l0,11.634A2.5,2.5,0,0,0,116.6,85.7h.241a2.507,2.507,0,0,0,2.462-2.037,2.52,2.52,0,0,1-.045-.47Z" transform="translate(-103.764 -65.078)" fill="#ef5554"/>
          <path id="Trazado_616481" data-name="Trazado 616481" d="M114.1,37.974h5.163V37.9l1.166-3.265-4.265.007L114.1,37.9l0,.017Z" transform="translate(-103.764 -31.494)" fill="#b92026"/>
          <path id="Trazado_616482" data-name="Trazado 616482" d="M171.143,37.912h5.166v-3.35l-4,.006-1.166,3.265Z" transform="translate(-155.645 -31.432)" fill="#e5dbe3"/>
          <path id="Trazado_616483" data-name="Trazado 616483" d="M176.309,71.558h-5.166V83.192A2.508,2.508,0,0,0,173.65,85.7h.241a2.508,2.508,0,0,0,2.441-1.937,2.528,2.528,0,0,1-.024-.339Z" transform="translate(-155.645 -65.078)" fill="#fff"/>
          <path id="Trazado_616484" data-name="Trazado 616484" d="M233.356,37.83v-.025h-.014V34.472l-5.152.008v3.272h0v.079Z" transform="translate(-207.526 -31.35)" fill="#b92026"/>
          <path id="Trazado_616485" data-name="Trazado 616485" d="M233.356,71.558H228.19V83.422a2.511,2.511,0,0,0,2.507,2.507h.241a2.508,2.508,0,0,0,2.463-2.037,2.527,2.527,0,0,1-.045-.47Z" transform="translate(-207.526 -65.078)" fill="#ef5554"/>
          <path id="Trazado_616486" data-name="Trazado 616486" d="M285.1,37.689v.079h5.166v-.079L288.981,34.4l-3.9.006v3.28Z" transform="translate(-259.268 -31.288)" fill="#e5dbe3"/>
          <path id="Trazado_616487" data-name="Trazado 616487" d="M290.4,71.558h-5.166V83.422a2.509,2.509,0,0,0,2.507,2.507h.241a2.507,2.507,0,0,0,2.5-2.364,2.519,2.519,0,0,1-.085-.648Z" transform="translate(-259.406 -65.078)" fill="#fff"/>
          <path id="Trazado_616488" data-name="Trazado 616488" d="M347.45,71.558h-5.166V82.917a2.506,2.506,0,0,0,2.507,2.507h.241a2.507,2.507,0,0,0,2.441-1.938,2.561,2.561,0,0,1-.023-.339Z" transform="translate(-311.288 -65.078)" fill="#ef5554"/>
          <path id="Trazado_616489" data-name="Trazado 616489" d="M329.406,37.7h5.166v-.071l-1.162-1.72-1.072-1.58-4.213.007,1.282,3.286Z" transform="translate(-298.411 -31.222)" fill="#b92026"/>
          <path id="Trazado_616490" data-name="Trazado 616490" d="M376.933,37.57v.071H382.1v-.057l-3.541-3.32-3.855.006,1.068,1.58,1.162,1.713Z" transform="translate(-340.771 -31.161)" fill="#e5dbe3"/>
          <path id="Trazado_616491" data-name="Trazado 616491" d="M404.5,71.558h-5.166V83.147a2.556,2.556,0,0,0,.023.339,2.508,2.508,0,0,0,2.484,2.168h.241a2.508,2.508,0,0,0,2.463-2.037,2.519,2.519,0,0,1-.045-.47Z" transform="translate(-363.169 -65.078)" fill="#fff"/>
          <path id="Trazado_616492" data-name="Trazado 616492" d="M426.293,37.579V37.5L421.4,34.2l-3.88.006,3.519,3.3v.079Z" transform="translate(-379.71 -31.099)" fill="#b92026"/>
          <path id="Trazado_616493" data-name="Trazado 616493" d="M456.376,71.558V83.147a2.509,2.509,0,0,0,2.507,2.507h.241a2.507,2.507,0,0,0,2.507-2.507V71.558Z" transform="translate(-415.049 -65.078)" fill="#ef5554"/>
        </g>
      </g>
    </g>
  </g>
</svg>
