<svg xmlns="http://www.w3.org/2000/svg" xmlns:xlink="http://www.w3.org/1999/xlink" width="109" height="109" viewBox="0 0 109 109">
  <defs>
    <clipPath id="clip-path">
      <rect id="Rectángulo_378992" data-name="Rectángulo 378992" width="75" height="51.833" fill="none"/>
    </clipPath>
  </defs>
  <g id="img4" transform="translate(-287.668 -4447.437)">
    <path id="Elipse_5845" data-name="Elipse 5845" d="M53.5,0A53.5,53.5,0,1,1,0,53.5,53.5,53.5,0,0,1,53.5,0Z" transform="translate(288.668 4448.437)" fill="#fff" stroke="#b9daff" stroke-width="2"/>
    <g id="Grupo_1075261" data-name="Grupo 1075261" transform="translate(304.668 4476.02)">
      <g id="Grupo_1075260" data-name="Grupo 1075260" clip-path="url(#clip-path)">
        <path id="Trazado_616433" data-name="Trazado 616433" d="M376.079,121.911l-.548-1.189.75-.345.529,1.155a3.543,3.543,0,0,1,1.738-.3l.064.921a3.145,3.145,0,0,0-1.689.275,1.117,1.117,0,0,0-.706,1.58,1.054,1.054,0,0,0,.743.618H385.4a7.321,7.321,0,0,0-14.554,0h4.332a2.143,2.143,0,0,1,.906-2.717" transform="translate(-329.004 -104.785)" fill="#fcfdff"/>
        <path id="Trazado_616434" data-name="Trazado 616434" d="M250.421,22.784A4.3,4.3,0,0,1,255.3,16.8l2.465,5.349.032-.015L247.6,0l-.033.015,2.534,5.5a4.288,4.288,0,0,1-7.965-3L206.045,19.149l.32.694-.319-.694,5.432-2.5a4.255,4.255,0,0,1,1.931,2,4.325,4.325,0,0,1,.354,1.193h1.069a5.244,5.244,0,0,0-2.2-3.726L240.989,3.049a5.309,5.309,0,0,0,3.473,5.475,5.359,5.359,0,0,0,4.11-.161,5.32,5.32,0,0,0,2.058-1.71l4.144,8.993a5.335,5.335,0,0,0-3.693,9.578l1.121-.516a4.261,4.261,0,0,1-1.781-1.925" transform="translate(-182.8)" fill="#fcfdff"/>
        <path id="Trazado_616435" data-name="Trazado 616435" d="M213.411,149.563a4.256,4.256,0,0,0-1.931-2l-5.432,2.5.319.693h7.4a4.324,4.324,0,0,0-.354-1.193" transform="translate(-182.803 -130.912)" fill="#3e8257"/>
        <path id="Trazado_616436" data-name="Trazado 616436" d="M522.846,9.929l-5.431,2.5Z" transform="translate(-459.043 -8.809)" fill="#3e8257"/>
        <path id="Trazado_616437" data-name="Trazado 616437" d="M525.328,5.407a4.3,4.3,0,0,0,7.7.225l-2.534-5.5-5.431,2.5a4.268,4.268,0,0,0,.266,2.771" transform="translate(-465.723 -0.119)" fill="#3e8257"/>
        <path id="Trazado_616438" data-name="Trazado 616438" d="M601.139,148a4.3,4.3,0,0,0-4.882,5.989,4.261,4.261,0,0,0,1.781,1.925l5.566-2.565Z" transform="translate(-528.636 -131.205)" fill="#3e8257"/>
        <path id="Trazado_616439" data-name="Trazado 616439" d="M301.223,47.205a5.354,5.354,0,0,1,5.319-7.58L302.4,30.632a5.336,5.336,0,0,1-9.641-3.6L264.4,40.1a5.319,5.319,0,0,1,1.748,2.088,5.376,5.376,0,0,1,.456,1.638h9.8a7.32,7.32,0,0,1,14.554,0h7.074v7.6l4.816-2.219a5.339,5.339,0,0,1-1.626-2" transform="translate(-234.568 -23.979)" fill="#3e8257"/>
        <path id="Trazado_616440" data-name="Trazado 616440" d="M408.808,141.841a1.118,1.118,0,0,1,.706-1.58,3.145,3.145,0,0,1,1.689-.275l-.064-.921a3.545,3.545,0,0,0-1.738.3l-.529-1.155-.75.345.548,1.189a2.143,2.143,0,0,0-.906,2.717h1.786a1.054,1.054,0,0,1-.743-.618" transform="translate(-361.596 -122.615)" fill="#3e8257"/>
        <rect id="Rectángulo_378990" data-name="Rectángulo 378990" width="5.858" height="0.002" transform="translate(16.74 20.948)" fill="#fcfdff"/>
        <path id="Trazado_616441" data-name="Trazado 616441" d="M154.732,221.085a5.375,5.375,0,0,0-6.344-.905v-9.856a5.346,5.346,0,0,0,7.75-3.2l-.878-1.907a4.219,4.219,0,0,1,.024.425,4.295,4.295,0,0,1-6.9,3.426h0V227.38h0v-5.957a4.3,4.3,0,0,1,6.855,3.463,4.264,4.264,0,0,1-.81,2.494h1.231a5.3,5.3,0,0,0-.933-6.3" transform="translate(-131.647 -182.066)" fill="#fcfdff"/>
        <path id="Trazado_616442" data-name="Trazado 616442" d="M490.739,262.864a5.335,5.335,0,0,0-7.362,7.154h1.233a4.293,4.293,0,0,1,6.129-5.89v5.89h.036v-16.74l-.035.016Z" transform="translate(-428.276 -224.704)" fill="#fcfdff"/>
        <path id="Trazado_616443" data-name="Trazado 616443" d="M416.5,185.686h8.223a5.291,5.291,0,0,0-.711,2.627,5.417,5.417,0,0,0,.2,1.44,7.343,7.343,0,0,0,.722-4.069H416.5l0,0" transform="translate(-369.509 -164.736)" fill="#fcfdff"/>
        <path id="Trazado_616444" data-name="Trazado 616444" d="M366.6,185.686v0h-4.332v0Z" transform="translate(-321.402 -164.736)" fill="#fcfdff"/>
        <path id="Trazado_616445" data-name="Trazado 616445" d="M200.308,185.686v0Z" transform="translate(-177.71 -164.736)" fill="#fcfdff"/>
        <path id="Trazado_616446" data-name="Trazado 616446" d="M209.307,205.217h0l.878,1.907Z" transform="translate(-185.694 -182.065)" fill="#fcfdff"/>
        <path id="Trazado_616447" data-name="Trazado 616447" d="M266.947,185.686v0h-1.069v0Z" transform="translate(-235.883 -164.736)" fill="#fcfdff"/>
        <path id="Trazado_616448" data-name="Trazado 616448" d="M200.431,185.686a4.276,4.276,0,0,1,.892,2.2l.878,1.907a5.4,5.4,0,0,0,.21-1.481,5.312,5.312,0,0,0-.713-2.627h6.008v0h-7.4v0Z" transform="translate(-177.71 -164.736)" fill="#fcfdff"/>
        <path id="Trazado_616449" data-name="Trazado 616449" d="M484.881,189.753a5.321,5.321,0,0,0,7.761,3.24v.308l.035-.016v-7.6h-.036v6.054a4.288,4.288,0,0,1-5.979-6.054H485.6a7.341,7.341,0,0,1-.722,4.069" transform="translate(-430.179 -164.736)" fill="#fcfdff"/>
        <rect id="Rectángulo_378991" data-name="Rectángulo 378991" width="9.805" height="0.002" transform="translate(31.065 20.948)" fill="#fcfdff"/>
        <path id="Trazado_616450" data-name="Trazado 616450" d="M299.049,231.45a7.37,7.37,0,0,0-2.78-2.086,7.328,7.328,0,1,0-5.1,13.723l.028.01a7.329,7.329,0,0,0,8.934-4.115l.014-.031a7.319,7.319,0,0,0-1.1-7.5m-7.871,8.275a2.222,2.222,0,0,1-.229-.14l.048-.132.267-.744a3.543,3.543,0,0,0,1.873.564,1.3,1.3,0,0,0,1.473-1.282c0-.718-.427-1.165-1.4-1.556-1.335-.527-2.157-1.141-2.157-2.279a2.142,2.142,0,0,1,1.961-2.107V230.74h.825l0,1.27a3.547,3.547,0,0,1,1.7.457l-.328.863a3.15,3.15,0,0,0-1.648-.457c-1.006,0-1.3.6-1.3,1.14,0,.666.4,1.005,1.54,1.491,1.347.551,2.028,1.217,2.028,2.382a2.257,2.257,0,0,1-2.068,2.223v1.365h-.824l0-1.31c-.129,0-.259-.014-.387-.029a3.865,3.865,0,0,1-1.373-.41" transform="translate(-253.789 -202.965)" fill="#fcfdff"/>
        <path id="Trazado_616451" data-name="Trazado 616451" d="M402.457,185.684h-1.785v0h1.79l0,0" transform="translate(-355.47 -164.736)" fill="#fcfdff"/>
        <path id="Trazado_616452" data-name="Trazado 616452" d="M148.391,401.685h6.032l.013-.021h-6.046Z" transform="translate(-131.65 -356.35)" fill="#3e8257"/>
        <path id="Trazado_616453" data-name="Trazado 616453" d="M153.985,342.667a4.308,4.308,0,0,0-5.594-.412v5.957h6.046a4.288,4.288,0,0,0-.451-5.545" transform="translate(-131.65 -302.898)" fill="#3e8257"/>
        <path id="Trazado_616454" data-name="Trazado 616454" d="M154.023,191.374a4.283,4.283,0,0,0,1.261-3.049,4.221,4.221,0,0,0-.024-.425l-1.015-2.2h-5.858v6.054h0a4.3,4.3,0,0,0,5.635-.377" transform="translate(-131.647 -164.748)" fill="#3e8257"/>
        <path id="Trazado_616455" data-name="Trazado 616455" d="M200.311,185.7h0l1.015,2.2Z" transform="translate(-177.713 -164.748)" fill="#3e8257"/>
        <path id="Trazado_616456" data-name="Trazado 616456" d="M200.434,185.7h-.123l1.015,2.2a4.276,4.276,0,0,0-.892-2.2" transform="translate(-177.713 -164.748)" fill="#3e8257"/>
        <path id="Trazado_616457" data-name="Trazado 616457" d="M493.785,191.361a4.3,4.3,0,0,0,5.635.377v-6.054h-5.979a4.27,4.27,0,0,0,.344,5.677" transform="translate(-436.958 -164.736)" fill="#3e8257"/>
        <path id="Trazado_616458" data-name="Trazado 616458" d="M499.351,401.685h6.115v-.021h-6.129l.014.021" transform="translate(-443.004 -356.35)" fill="#3e8257"/>
        <path id="Trazado_616459" data-name="Trazado 616459" d="M493.413,342.681a4.282,4.282,0,0,0-.453,5.545h6.129v-5.89a4.3,4.3,0,0,0-5.676.345" transform="translate(-436.627 -302.912)" fill="#3e8257"/>
        <path id="Trazado_616460" data-name="Trazado 616460" d="M212.8,401.687h31.1c0-.007-.006-.015-.01-.022H212.813c0,.007-.006.015-.01.022" transform="translate(-188.796 -356.351)" fill="#3e8257"/>
        <path id="Trazado_616461" data-name="Trazado 616461" d="M194.116,193.313V193a5.345,5.345,0,0,1-7.761-3.24,5.418,5.418,0,0,1-.2-1.44,5.292,5.292,0,0,1,.711-2.627H155.642a5.312,5.312,0,0,1,.713,2.627,5.4,5.4,0,0,1-.209,1.481,5.322,5.322,0,0,1-7.75,3.2v9.856a5.35,5.35,0,0,1,7.917,4.705,5.318,5.318,0,0,1-.64,2.5h31.083a5.341,5.341,0,0,1,7.362-7.154v-9.57l.035-.016V193.3Zm-22.86,11.9a7.308,7.308,0,0,1-2.194-.336l-.028-.01a7.328,7.328,0,1,1,8.976-4.136c0,.011-.01.021-.014.031a7.339,7.339,0,0,1-6.74,4.451" transform="translate(-131.654 -164.748)" fill="#3e8257"/>
        <path id="Trazado_616462" data-name="Trazado 616462" d="M329.813,317.581c.064.087.123.18.181.272a3.863,3.863,0,0,0,1.372.41c-.045-.123-.085-.246-.141-.366a5.364,5.364,0,0,0-.389-.691,3.415,3.415,0,0,1-.757-.368Z" transform="translate(-292.605 -281.093)" fill="#3e8257"/>
        <path id="Trazado_616463" data-name="Trazado 616463" d="M329.389,323.564a2.187,2.187,0,0,0,.229.14c-.058-.092-.117-.185-.181-.272Z" transform="translate(-292.229 -286.944)" fill="#3e8257"/>
        <path id="Trazado_616464" data-name="Trazado 616464" d="M331.843,255.592c.128.014.258.026.387.029l0,1.31h.824v-1.365a2.257,2.257,0,0,0,2.068-2.223c0-1.165-.681-1.831-2.028-2.382-1.139-.485-1.539-.824-1.54-1.491,0-.536.3-1.14,1.3-1.14a3.149,3.149,0,0,1,1.648.457l.328-.863a3.548,3.548,0,0,0-1.7-.457l0-1.27h-.825v1.309a2.142,2.142,0,0,0-1.961,2.107c0,1.137.822,1.752,2.157,2.279.968.391,1.4.838,1.4,1.556a1.3,1.3,0,0,1-1.473,1.282,3.406,3.406,0,0,1-1.116-.2,5.367,5.367,0,0,1,.389.691c.056.12.1.243.141.366" transform="translate(-293.081 -218.422)" fill="#3e8257"/>
        <path id="Trazado_616465" data-name="Trazado 616465" d="M5.771,268.188c3.092-1.08,10.75-2.659,17.672-.993,6.748,1.624,5.134.753,12.935.823.2,0,.406,0,.621.007,8.516.123,7.742,3.4,7.742,3.4.288,3.472-3.567,3.757-3.567,3.757l-13.91,1.412s-1.436,1.786-1.191,3.407c.047.312.634.324,1.549.144l9.44,1.506c-2.99,2.544-7.234,6.132-9.044,6.481-1.453.28-4.3.01-8.009-.477-2.8-.367-6.088-.856-9.637-1.326C8.924,286.134,2.59,286,0,286.606V269.7c2.291-1.346,3.621-.762,5.771-1.512" transform="translate(0 -236.408)" fill="#f2c9a9"/>
      </g>
    </g>
  </g>
</svg>
