<svg xmlns="http://www.w3.org/2000/svg" xmlns:xlink="http://www.w3.org/1999/xlink" width="250" height="433.963" viewBox="0 0 250 433.963">
  <defs>
    <clipPath id="clip-path">
      <path id="Trazado_194907" data-name="Trazado 194907" d="M0,139.241c0,47.447,39.179,85.908,87.511,85.908s87.511-38.461,87.511-85.908S135.841,53.333,87.511,53.333,0,91.8,0,139.241" transform="translate(0 -53.333)" fill="#8ce2e5"/>
    </clipPath>
    <clipPath id="clip-path-2">
      <path id="Trazado_194907-2" data-name="Trazado 194907" d="M0,95.647A42.315,42.315,0,1,0,42.315,53.333,42.315,42.315,0,0,0,0,95.647" transform="translate(0 -53.333)" fill="#7f4fc7"/>
    </clipPath>
    <clipPath id="clip-path-3">
      <rect id="Rectángulo_46351" data-name="Rectángulo 46351" width="115.414" height="119.42" fill="none"/>
    </clipPath>
    <clipPath id="clip-path-4">
      <rect id="Rectángulo_400999" data-name="Rectángulo 400999" width="131.67" height="425.278" fill="none"/>
    </clipPath>
  </defs>
  <g id="img5" transform="translate(-2.443 -22.364)">
    <g id="Grupo_155444" data-name="Grupo 155444" transform="translate(2.443 22.364)">
      <g id="Grupo_155253" data-name="Grupo 155253" transform="translate(4.281 148.723)">
        <path id="Trazado_196478" data-name="Trazado 196478" d="M319.689,149.033q-.327.339-.648.683a52.147,52.147,0,0,0-14.068,37.632l21.849-.761a30.63,30.63,0,1,1,61.222-2.141l21.849-.761a52.492,52.492,0,0,0-90.2-34.646" transform="translate(-304.936 -133.025)" fill="#85b6ec"/>
        <path id="Trazado_196479" data-name="Trazado 196479" d="M304.88,231.066A52.492,52.492,0,1,0,409.8,227.4l-21.85.761a30.629,30.629,0,0,1-61.221,2.141Z" transform="translate(-304.844 -176.744)" fill="#2a5f61"/>
      </g>
      <g id="Grupo_154313" data-name="Grupo 154313" transform="translate(74.978 249.618)">
        <g id="Grupo_152768" data-name="Grupo 152768" clip-path="url(#clip-path)">
          <path id="Trazado_194826" data-name="Trazado 194826" d="M4.605,55.593a2.284,2.284,0,0,0-2.3-2.26,2.262,2.262,0,1,0,0,4.522,2.284,2.284,0,0,0,2.3-2.263" transform="translate(0.001 -53.333)" fill="#8ce2e5"/>
          <path id="Trazado_194827" data-name="Trazado 194827" d="M12.879,55.589a2.3,2.3,0,1,0-2.3,2.263,2.3,2.3,0,0,0,2.3-2.263" transform="translate(13.028 -53.329)" fill="#8ce2e5"/>
          <path id="Trazado_194828" data-name="Trazado 194828" d="M21.152,55.589a2.3,2.3,0,1,0-2.3,2.263,2.3,2.3,0,0,0,2.3-2.263" transform="translate(26.059 -53.329)" fill="#8ce2e5"/>
          <path id="Trazado_194829" data-name="Trazado 194829" d="M29.425,55.589a2.3,2.3,0,1,0-2.3,2.263,2.3,2.3,0,0,0,2.3-2.263" transform="translate(39.088 -53.329)" fill="#8ce2e5"/>
          <path id="Trazado_194830" data-name="Trazado 194830" d="M37.7,55.589a2.3,2.3,0,1,0-2.3,2.263,2.3,2.3,0,0,0,2.3-2.263" transform="translate(52.116 -53.329)" fill="#8ce2e5"/>
          <path id="Trazado_194831" data-name="Trazado 194831" d="M45.966,55.589a2.3,2.3,0,1,0-2.3,2.263,2.3,2.3,0,0,0,2.3-2.263" transform="translate(65.146 -53.329)" fill="#8ce2e5"/>
          <path id="Trazado_194832" data-name="Trazado 194832" d="M54.242,55.589a2.3,2.3,0,1,0-2.3,2.263,2.3,2.3,0,0,0,2.3-2.263" transform="translate(78.175 -53.329)" fill="#8ce2e5"/>
          <path id="Trazado_194833" data-name="Trazado 194833" d="M62.515,55.589a2.3,2.3,0,1,0-2.3,2.263,2.3,2.3,0,0,0,2.3-2.263" transform="translate(91.204 -53.329)" fill="#8ce2e5"/>
          <path id="Trazado_194834" data-name="Trazado 194834" d="M70.788,55.589a2.3,2.3,0,1,0-2.3,2.262,2.3,2.3,0,0,0,2.3-2.262" transform="translate(104.234 -53.329)" fill="#8ce2e5"/>
          <path id="Trazado_194835" data-name="Trazado 194835" d="M4.609,63.866a2.284,2.284,0,0,0-2.3-2.26,2.26,2.26,0,0,0,0,4.52,2.284,2.284,0,0,0,2.3-2.26" transform="translate(-0.002 -40.693)" fill="#8ce2e5"/>
          <path id="Trazado_194836" data-name="Trazado 194836" d="M12.879,63.862a2.3,2.3,0,1,0-2.3,2.26,2.3,2.3,0,0,0,2.3-2.26" transform="translate(13.028 -40.689)" fill="#8ce2e5"/>
          <path id="Trazado_194837" data-name="Trazado 194837" d="M21.152,63.862a2.3,2.3,0,1,0-2.3,2.26,2.3,2.3,0,0,0,2.3-2.26" transform="translate(26.059 -40.689)" fill="#8ce2e5"/>
          <path id="Trazado_194838" data-name="Trazado 194838" d="M29.425,63.862a2.3,2.3,0,1,0-2.3,2.26,2.3,2.3,0,0,0,2.3-2.26" transform="translate(39.088 -40.689)" fill="#8ce2e5"/>
          <path id="Trazado_194839" data-name="Trazado 194839" d="M37.7,63.862a2.3,2.3,0,1,0-2.3,2.26,2.3,2.3,0,0,0,2.3-2.26" transform="translate(52.116 -40.689)" fill="#8ce2e5"/>
          <path id="Trazado_194840" data-name="Trazado 194840" d="M45.966,63.862a2.3,2.3,0,1,0-2.3,2.26,2.3,2.3,0,0,0,2.3-2.26" transform="translate(65.146 -40.689)" fill="#8ce2e5"/>
          <path id="Trazado_194841" data-name="Trazado 194841" d="M54.242,63.862a2.3,2.3,0,1,0-2.3,2.26,2.3,2.3,0,0,0,2.3-2.26" transform="translate(78.175 -40.689)" fill="#8ce2e5"/>
          <path id="Trazado_194842" data-name="Trazado 194842" d="M62.515,63.862a2.3,2.3,0,1,0-2.3,2.26,2.3,2.3,0,0,0,2.3-2.26" transform="translate(91.204 -40.689)" fill="#8ce2e5"/>
          <path id="Trazado_194843" data-name="Trazado 194843" d="M70.788,63.862a2.3,2.3,0,1,0-2.3,2.26,2.3,2.3,0,0,0,2.3-2.26" transform="translate(104.234 -40.689)" fill="#8ce2e5"/>
          <path id="Trazado_194844" data-name="Trazado 194844" d="M4.609,72.139a2.284,2.284,0,0,0-2.3-2.26,2.26,2.26,0,0,0,0,4.52,2.284,2.284,0,0,0,2.3-2.26" transform="translate(-0.002 -28.054)" fill="#8ce2e5"/>
          <path id="Trazado_194845" data-name="Trazado 194845" d="M12.879,72.135a2.3,2.3,0,1,0-2.3,2.26,2.3,2.3,0,0,0,2.3-2.26" transform="translate(13.028 -28.049)" fill="#8ce2e5"/>
          <path id="Trazado_194846" data-name="Trazado 194846" d="M21.152,72.135a2.3,2.3,0,1,0-2.3,2.26,2.3,2.3,0,0,0,2.3-2.26" transform="translate(26.059 -28.049)" fill="#8ce2e5"/>
          <path id="Trazado_194847" data-name="Trazado 194847" d="M29.425,72.135a2.3,2.3,0,1,0-2.3,2.26,2.3,2.3,0,0,0,2.3-2.26" transform="translate(39.088 -28.049)" fill="#8ce2e5"/>
          <path id="Trazado_194848" data-name="Trazado 194848" d="M37.7,72.135a2.3,2.3,0,1,0-2.3,2.26,2.3,2.3,0,0,0,2.3-2.26" transform="translate(52.116 -28.049)" fill="#8ce2e5"/>
          <path id="Trazado_194849" data-name="Trazado 194849" d="M45.966,72.135a2.3,2.3,0,1,0-2.3,2.26,2.3,2.3,0,0,0,2.3-2.26" transform="translate(65.146 -28.049)" fill="#8ce2e5"/>
          <path id="Trazado_194850" data-name="Trazado 194850" d="M54.242,72.135a2.3,2.3,0,1,0-2.3,2.26,2.3,2.3,0,0,0,2.3-2.26" transform="translate(78.175 -28.049)" fill="#8ce2e5"/>
          <path id="Trazado_194851" data-name="Trazado 194851" d="M62.515,72.135a2.3,2.3,0,1,0-2.3,2.26,2.3,2.3,0,0,0,2.3-2.26" transform="translate(91.204 -28.049)" fill="#8ce2e5"/>
          <path id="Trazado_194852" data-name="Trazado 194852" d="M70.788,72.135a2.3,2.3,0,1,0-2.3,2.26,2.3,2.3,0,0,0,2.3-2.26" transform="translate(104.234 -28.049)" fill="#8ce2e5"/>
          <path id="Trazado_194853" data-name="Trazado 194853" d="M4.609,80.411a2.284,2.284,0,0,0-2.3-2.26,2.26,2.26,0,0,0,0,4.52,2.284,2.284,0,0,0,2.3-2.26" transform="translate(-0.002 -15.416)" fill="#8ce2e5"/>
          <path id="Trazado_194854" data-name="Trazado 194854" d="M12.879,80.407a2.3,2.3,0,1,0-2.3,2.259,2.3,2.3,0,0,0,2.3-2.259" transform="translate(13.028 -15.411)" fill="#8ce2e5"/>
          <path id="Trazado_194855" data-name="Trazado 194855" d="M21.152,80.407a2.3,2.3,0,1,0-2.3,2.259,2.3,2.3,0,0,0,2.3-2.259" transform="translate(26.059 -15.411)" fill="#8ce2e5"/>
          <path id="Trazado_194856" data-name="Trazado 194856" d="M29.425,80.407a2.3,2.3,0,1,0-2.3,2.259,2.3,2.3,0,0,0,2.3-2.259" transform="translate(39.088 -15.411)" fill="#8ce2e5"/>
          <path id="Trazado_194857" data-name="Trazado 194857" d="M37.7,80.407a2.3,2.3,0,1,0-2.3,2.259,2.3,2.3,0,0,0,2.3-2.259" transform="translate(52.116 -15.411)" fill="#8ce2e5"/>
          <path id="Trazado_194858" data-name="Trazado 194858" d="M45.966,80.407a2.3,2.3,0,1,0-2.3,2.259,2.3,2.3,0,0,0,2.3-2.259" transform="translate(65.146 -15.411)" fill="#8ce2e5"/>
          <path id="Trazado_194859" data-name="Trazado 194859" d="M54.242,80.407a2.3,2.3,0,1,0-2.3,2.259,2.3,2.3,0,0,0,2.3-2.259" transform="translate(78.175 -15.411)" fill="#8ce2e5"/>
          <path id="Trazado_194860" data-name="Trazado 194860" d="M62.515,80.407a2.3,2.3,0,1,0-2.3,2.259,2.3,2.3,0,0,0,2.3-2.259" transform="translate(91.204 -15.411)" fill="#8ce2e5"/>
          <path id="Trazado_194861" data-name="Trazado 194861" d="M70.788,80.407a2.3,2.3,0,1,0-2.3,2.259,2.3,2.3,0,0,0,2.3-2.259" transform="translate(104.234 -15.411)" fill="#8ce2e5"/>
          <path id="Trazado_194862" data-name="Trazado 194862" d="M4.605,88.685a2.284,2.284,0,0,0-2.3-2.26,2.262,2.262,0,1,0,0,4.522,2.284,2.284,0,0,0,2.3-2.262" transform="translate(0.001 -2.776)" fill="#8ce2e5"/>
          <path id="Trazado_194863" data-name="Trazado 194863" d="M12.879,88.681a2.3,2.3,0,1,0-2.3,2.262,2.3,2.3,0,0,0,2.3-2.262" transform="translate(13.028 -2.771)" fill="#8ce2e5"/>
          <path id="Trazado_194864" data-name="Trazado 194864" d="M21.152,88.681a2.3,2.3,0,1,0-2.3,2.262,2.3,2.3,0,0,0,2.3-2.262" transform="translate(26.059 -2.771)" fill="#8ce2e5"/>
          <path id="Trazado_194865" data-name="Trazado 194865" d="M29.425,88.681a2.3,2.3,0,1,0-2.3,2.262,2.3,2.3,0,0,0,2.3-2.262" transform="translate(39.088 -2.771)" fill="#8ce2e5"/>
          <path id="Trazado_194866" data-name="Trazado 194866" d="M37.7,88.681a2.3,2.3,0,1,0-2.3,2.262,2.3,2.3,0,0,0,2.3-2.262" transform="translate(52.116 -2.771)" fill="#8ce2e5"/>
          <path id="Trazado_194867" data-name="Trazado 194867" d="M45.966,88.681a2.3,2.3,0,1,0-2.3,2.262,2.3,2.3,0,0,0,2.3-2.262" transform="translate(65.146 -2.771)" fill="#8ce2e5"/>
          <path id="Trazado_194868" data-name="Trazado 194868" d="M54.242,88.681a2.3,2.3,0,1,0-2.3,2.262,2.3,2.3,0,0,0,2.3-2.262" transform="translate(78.175 -2.771)" fill="#8ce2e5"/>
          <path id="Trazado_194869" data-name="Trazado 194869" d="M62.515,88.681a2.3,2.3,0,1,0-2.3,2.262,2.3,2.3,0,0,0,2.3-2.262" transform="translate(91.204 -2.771)" fill="#8ce2e5"/>
          <path id="Trazado_194870" data-name="Trazado 194870" d="M70.788,88.681a2.3,2.3,0,1,0-2.3,2.261,2.3,2.3,0,0,0,2.3-2.261" transform="translate(104.234 -2.771)" fill="#8ce2e5"/>
          <path id="Trazado_194871" data-name="Trazado 194871" d="M4.609,96.957a2.284,2.284,0,0,0-2.3-2.257,2.26,2.26,0,0,0,0,4.52,2.284,2.284,0,0,0,2.3-2.26" transform="translate(-0.002 9.864)" fill="#8ce2e5"/>
          <path id="Trazado_194872" data-name="Trazado 194872" d="M12.879,96.953a2.3,2.3,0,1,0-2.3,2.26,2.3,2.3,0,0,0,2.3-2.26" transform="translate(13.028 9.869)" fill="#8ce2e5"/>
          <path id="Trazado_194873" data-name="Trazado 194873" d="M21.152,96.953a2.3,2.3,0,1,0-2.3,2.26,2.3,2.3,0,0,0,2.3-2.26" transform="translate(26.059 9.869)" fill="#8ce2e5"/>
          <path id="Trazado_194874" data-name="Trazado 194874" d="M29.425,96.953a2.3,2.3,0,1,0-2.3,2.26,2.3,2.3,0,0,0,2.3-2.26" transform="translate(39.088 9.869)" fill="#8ce2e5"/>
          <path id="Trazado_194875" data-name="Trazado 194875" d="M37.7,96.953a2.3,2.3,0,1,0-2.3,2.26,2.3,2.3,0,0,0,2.3-2.26" transform="translate(52.116 9.869)" fill="#8ce2e5"/>
          <path id="Trazado_194876" data-name="Trazado 194876" d="M45.966,96.953a2.3,2.3,0,1,0-2.3,2.26,2.3,2.3,0,0,0,2.3-2.26" transform="translate(65.146 9.869)" fill="#8ce2e5"/>
          <path id="Trazado_194877" data-name="Trazado 194877" d="M54.242,96.953a2.3,2.3,0,1,0-2.3,2.26,2.3,2.3,0,0,0,2.3-2.26" transform="translate(78.175 9.869)" fill="#8ce2e5"/>
          <path id="Trazado_194878" data-name="Trazado 194878" d="M62.515,96.953a2.3,2.3,0,1,0-2.3,2.26,2.3,2.3,0,0,0,2.3-2.26" transform="translate(91.204 9.869)" fill="#8ce2e5"/>
          <path id="Trazado_194879" data-name="Trazado 194879" d="M70.788,96.953a2.3,2.3,0,1,0-2.3,2.26,2.3,2.3,0,0,0,2.3-2.26" transform="translate(104.234 9.869)" fill="#8ce2e5"/>
          <path id="Trazado_194880" data-name="Trazado 194880" d="M4.609,105.229a2.284,2.284,0,0,0-2.3-2.26,2.26,2.26,0,1,0,0,4.52,2.284,2.284,0,0,0,2.3-2.26" transform="translate(-0.002 22.503)" fill="#8ce2e5"/>
          <path id="Trazado_194881" data-name="Trazado 194881" d="M12.879,105.225a2.3,2.3,0,1,0-2.3,2.26,2.3,2.3,0,0,0,2.3-2.26" transform="translate(13.028 22.507)" fill="#8ce2e5"/>
          <path id="Trazado_194882" data-name="Trazado 194882" d="M21.152,105.225a2.3,2.3,0,1,0-2.3,2.26,2.3,2.3,0,0,0,2.3-2.26" transform="translate(26.059 22.507)" fill="#8ce2e5"/>
          <path id="Trazado_194883" data-name="Trazado 194883" d="M29.425,105.225a2.3,2.3,0,1,0-2.3,2.26,2.3,2.3,0,0,0,2.3-2.26" transform="translate(39.088 22.507)" fill="#8ce2e5"/>
          <path id="Trazado_194884" data-name="Trazado 194884" d="M37.7,105.225a2.3,2.3,0,1,0-2.3,2.26,2.3,2.3,0,0,0,2.3-2.26" transform="translate(52.116 22.507)" fill="#8ce2e5"/>
          <path id="Trazado_194885" data-name="Trazado 194885" d="M45.966,105.225a2.3,2.3,0,1,0-2.3,2.26,2.3,2.3,0,0,0,2.3-2.26" transform="translate(65.146 22.507)" fill="#8ce2e5"/>
          <path id="Trazado_194886" data-name="Trazado 194886" d="M54.242,105.225a2.3,2.3,0,1,0-2.3,2.26,2.3,2.3,0,0,0,2.3-2.26" transform="translate(78.175 22.507)" fill="#8ce2e5"/>
          <path id="Trazado_194887" data-name="Trazado 194887" d="M62.515,105.225a2.3,2.3,0,1,0-2.3,2.26,2.3,2.3,0,0,0,2.3-2.26" transform="translate(91.204 22.507)" fill="#8ce2e5"/>
          <path id="Trazado_194888" data-name="Trazado 194888" d="M70.788,105.225a2.3,2.3,0,1,0-2.3,2.26,2.3,2.3,0,0,0,2.3-2.26" transform="translate(104.234 22.507)" fill="#8ce2e5"/>
          <path id="Trazado_194889" data-name="Trazado 194889" d="M4.609,113.5a2.284,2.284,0,0,0-2.3-2.26,2.26,2.26,0,0,0,0,4.52,2.284,2.284,0,0,0,2.3-2.26" transform="translate(-0.002 35.142)" fill="#8ce2e5"/>
          <path id="Trazado_194890" data-name="Trazado 194890" d="M12.879,113.5a2.3,2.3,0,1,0-2.3,2.26,2.3,2.3,0,0,0,2.3-2.26" transform="translate(13.028 35.146)" fill="#8ce2e5"/>
          <path id="Trazado_194891" data-name="Trazado 194891" d="M21.152,113.5a2.3,2.3,0,1,0-2.3,2.26,2.3,2.3,0,0,0,2.3-2.26" transform="translate(26.059 35.146)" fill="#8ce2e5"/>
          <path id="Trazado_194892" data-name="Trazado 194892" d="M29.425,113.5a2.3,2.3,0,1,0-2.3,2.26,2.3,2.3,0,0,0,2.3-2.26" transform="translate(39.088 35.146)" fill="#8ce2e5"/>
          <path id="Trazado_194893" data-name="Trazado 194893" d="M37.7,113.5a2.3,2.3,0,1,0-2.3,2.26,2.3,2.3,0,0,0,2.3-2.26" transform="translate(52.116 35.146)" fill="#8ce2e5"/>
          <path id="Trazado_194894" data-name="Trazado 194894" d="M45.966,113.5a2.3,2.3,0,1,0-2.3,2.26,2.3,2.3,0,0,0,2.3-2.26" transform="translate(65.146 35.146)" fill="#8ce2e5"/>
          <path id="Trazado_194895" data-name="Trazado 194895" d="M54.242,113.5a2.3,2.3,0,1,0-2.3,2.26,2.3,2.3,0,0,0,2.3-2.26" transform="translate(78.175 35.146)" fill="#8ce2e5"/>
          <path id="Trazado_194896" data-name="Trazado 194896" d="M62.515,113.5a2.3,2.3,0,1,0-2.3,2.26,2.3,2.3,0,0,0,2.3-2.26" transform="translate(91.204 35.146)" fill="#8ce2e5"/>
          <path id="Trazado_194897" data-name="Trazado 194897" d="M70.788,113.5a2.3,2.3,0,1,0-2.3,2.26,2.3,2.3,0,0,0,2.3-2.26" transform="translate(104.234 35.146)" fill="#8ce2e5"/>
          <path id="Trazado_194898" data-name="Trazado 194898" d="M4.609,121.774a2.284,2.284,0,0,0-2.3-2.26,2.26,2.26,0,0,0,0,4.52,2.284,2.284,0,0,0,2.3-2.26" transform="translate(-0.002 47.78)" fill="#8ce2e5"/>
          <path id="Trazado_194899" data-name="Trazado 194899" d="M12.879,121.77a2.3,2.3,0,1,0-2.3,2.26,2.3,2.3,0,0,0,2.3-2.26" transform="translate(13.028 47.784)" fill="#8ce2e5"/>
          <path id="Trazado_194900" data-name="Trazado 194900" d="M21.152,121.77a2.3,2.3,0,1,0-2.3,2.26,2.3,2.3,0,0,0,2.3-2.26" transform="translate(26.059 47.784)" fill="#8ce2e5"/>
          <path id="Trazado_194901" data-name="Trazado 194901" d="M29.425,121.77a2.3,2.3,0,1,0-2.3,2.26,2.3,2.3,0,0,0,2.3-2.26" transform="translate(39.088 47.784)" fill="#8ce2e5"/>
          <path id="Trazado_194902" data-name="Trazado 194902" d="M37.7,121.77a2.3,2.3,0,1,0-2.3,2.26,2.3,2.3,0,0,0,2.3-2.26" transform="translate(52.116 47.784)" fill="#8ce2e5"/>
          <path id="Trazado_194903" data-name="Trazado 194903" d="M45.966,121.77a2.3,2.3,0,1,0-2.3,2.26,2.3,2.3,0,0,0,2.3-2.26" transform="translate(65.146 47.784)" fill="#8ce2e5"/>
          <path id="Trazado_194904" data-name="Trazado 194904" d="M54.242,121.77a2.3,2.3,0,1,0-2.3,2.26,2.3,2.3,0,0,0,2.3-2.26" transform="translate(78.175 47.784)" fill="#8ce2e5"/>
          <path id="Trazado_194905" data-name="Trazado 194905" d="M62.515,121.77a2.3,2.3,0,1,0-2.3,2.26,2.3,2.3,0,0,0,2.3-2.26" transform="translate(91.204 47.784)" fill="#8ce2e5"/>
          <path id="Trazado_194906" data-name="Trazado 194906" d="M70.788,121.77a2.3,2.3,0,1,0-2.3,2.26,2.3,2.3,0,0,0,2.3-2.26" transform="translate(104.234 47.784)" fill="#8ce2e5"/>
        </g>
      </g>
      <g id="Grupo_154805" data-name="Grupo 154805" transform="translate(150.083 0)">
        <g id="Grupo_152768-2" data-name="Grupo 152768" transform="translate(0)" clip-path="url(#clip-path-2)">
          <path id="Trazado_194826-2" data-name="Trazado 194826" d="M2.228,54.443a1.113,1.113,0,1,0-1.113,1.114,1.113,1.113,0,0,0,1.113-1.114" transform="translate(0 -53.333)" fill="#7f4fc7"/>
          <path id="Trazado_194827-2" data-name="Trazado 194827" d="M10.5,54.443a1.113,1.113,0,1,0-1.113,1.114A1.113,1.113,0,0,0,10.5,54.443" transform="translate(2.028 -53.333)" fill="#7f4fc7"/>
          <path id="Trazado_194828-2" data-name="Trazado 194828" d="M18.773,54.443a1.113,1.113,0,1,0-1.113,1.114,1.113,1.113,0,0,0,1.113-1.114" transform="translate(4.056 -53.333)" fill="#7f4fc7"/>
          <path id="Trazado_194829-2" data-name="Trazado 194829" d="M27.046,54.443a1.113,1.113,0,1,0-1.113,1.114,1.113,1.113,0,0,0,1.113-1.114" transform="translate(6.083 -53.333)" fill="#7f4fc7"/>
          <path id="Trazado_194830-2" data-name="Trazado 194830" d="M35.318,54.443A1.113,1.113,0,1,0,34.2,55.558a1.113,1.113,0,0,0,1.113-1.114" transform="translate(8.111 -53.333)" fill="#7f4fc7"/>
          <path id="Trazado_194831-2" data-name="Trazado 194831" d="M43.587,54.443a1.113,1.113,0,1,0-1.113,1.114,1.113,1.113,0,0,0,1.113-1.114" transform="translate(10.139 -53.333)" fill="#7f4fc7"/>
          <path id="Trazado_194832-2" data-name="Trazado 194832" d="M51.863,54.443a1.113,1.113,0,1,0-1.113,1.114,1.113,1.113,0,0,0,1.113-1.114" transform="translate(12.167 -53.333)" fill="#7f4fc7"/>
          <path id="Trazado_194833-2" data-name="Trazado 194833" d="M60.136,54.443a1.113,1.113,0,1,0-1.113,1.114,1.113,1.113,0,0,0,1.113-1.114" transform="translate(14.194 -53.333)" fill="#7f4fc7"/>
          <path id="Trazado_194834-2" data-name="Trazado 194834" d="M68.409,54.443A1.113,1.113,0,1,0,67.3,55.558a1.113,1.113,0,0,0,1.113-1.114" transform="translate(16.222 -53.333)" fill="#7f4fc7"/>
          <path id="Trazado_194835-2" data-name="Trazado 194835" d="M2.228,62.719a1.112,1.112,0,1,0-.326.788,1.113,1.113,0,0,0,.326-.788" transform="translate(0 -51.305)" fill="#7f4fc7"/>
          <path id="Trazado_194836-2" data-name="Trazado 194836" d="M10.5,62.719a1.112,1.112,0,1,0-.326.788,1.113,1.113,0,0,0,.326-.788" transform="translate(2.028 -51.305)" fill="#7f4fc7"/>
          <path id="Trazado_194837-2" data-name="Trazado 194837" d="M18.773,62.719a1.112,1.112,0,1,0-.326.788,1.113,1.113,0,0,0,.326-.788" transform="translate(4.056 -51.305)" fill="#7f4fc7"/>
          <path id="Trazado_194838-2" data-name="Trazado 194838" d="M27.046,62.719a1.112,1.112,0,1,0-.326.788,1.113,1.113,0,0,0,.326-.788" transform="translate(6.083 -51.305)" fill="#7f4fc7"/>
          <path id="Trazado_194839-2" data-name="Trazado 194839" d="M35.318,62.719a1.112,1.112,0,1,0-.326.788,1.113,1.113,0,0,0,.326-.788" transform="translate(8.111 -51.305)" fill="#7f4fc7"/>
          <path id="Trazado_194840-2" data-name="Trazado 194840" d="M43.587,62.719a1.112,1.112,0,1,0-.326.788,1.113,1.113,0,0,0,.326-.788" transform="translate(10.139 -51.305)" fill="#7f4fc7"/>
          <path id="Trazado_194841-2" data-name="Trazado 194841" d="M51.863,62.719a1.112,1.112,0,1,0-.326.788,1.113,1.113,0,0,0,.326-.788" transform="translate(12.167 -51.305)" fill="#7f4fc7"/>
          <path id="Trazado_194842-2" data-name="Trazado 194842" d="M60.136,62.719a1.113,1.113,0,1,0-1.113,1.113,1.113,1.113,0,0,0,1.113-1.113" transform="translate(14.194 -51.305)" fill="#7f4fc7"/>
          <path id="Trazado_194843-2" data-name="Trazado 194843" d="M68.409,62.719a1.112,1.112,0,1,0-.326.788,1.113,1.113,0,0,0,.326-.788" transform="translate(16.222 -51.305)" fill="#7f4fc7"/>
          <path id="Trazado_194844-2" data-name="Trazado 194844" d="M2.228,70.992a1.112,1.112,0,1,0-.326.788,1.113,1.113,0,0,0,.326-.788" transform="translate(0 -49.277)" fill="#7f4fc7"/>
          <path id="Trazado_194845-2" data-name="Trazado 194845" d="M10.5,70.992a1.112,1.112,0,1,0-.326.788,1.113,1.113,0,0,0,.326-.788" transform="translate(2.028 -49.277)" fill="#7f4fc7"/>
          <path id="Trazado_194846-2" data-name="Trazado 194846" d="M18.773,70.992a1.112,1.112,0,1,0-.326.788,1.113,1.113,0,0,0,.326-.788" transform="translate(4.056 -49.277)" fill="#7f4fc7"/>
          <path id="Trazado_194847-2" data-name="Trazado 194847" d="M27.046,70.992a1.112,1.112,0,1,0-.326.788,1.113,1.113,0,0,0,.326-.788" transform="translate(6.083 -49.277)" fill="#7f4fc7"/>
          <path id="Trazado_194848-2" data-name="Trazado 194848" d="M35.318,70.992a1.112,1.112,0,1,0-.326.788,1.113,1.113,0,0,0,.326-.788" transform="translate(8.111 -49.277)" fill="#7f4fc7"/>
          <path id="Trazado_194849-2" data-name="Trazado 194849" d="M43.587,70.992a1.112,1.112,0,1,0-.326.788,1.113,1.113,0,0,0,.326-.788" transform="translate(10.139 -49.277)" fill="#7f4fc7"/>
          <path id="Trazado_194850-2" data-name="Trazado 194850" d="M51.863,70.992a1.112,1.112,0,1,0-.326.788,1.113,1.113,0,0,0,.326-.788" transform="translate(12.167 -49.277)" fill="#7f4fc7"/>
          <path id="Trazado_194851-2" data-name="Trazado 194851" d="M60.136,70.992a1.113,1.113,0,1,0-1.113,1.113,1.113,1.113,0,0,0,1.113-1.113" transform="translate(14.194 -49.277)" fill="#7f4fc7"/>
          <path id="Trazado_194852-2" data-name="Trazado 194852" d="M68.409,70.992a1.112,1.112,0,1,0-.326.788,1.113,1.113,0,0,0,.326-.788" transform="translate(16.222 -49.277)" fill="#7f4fc7"/>
          <path id="Trazado_194853-2" data-name="Trazado 194853" d="M2.228,79.264a1.112,1.112,0,1,0-.326.788,1.113,1.113,0,0,0,.326-.788" transform="translate(0 -47.25)" fill="#7f4fc7"/>
          <path id="Trazado_194854-2" data-name="Trazado 194854" d="M10.5,79.264a1.112,1.112,0,1,0-.326.788,1.113,1.113,0,0,0,.326-.788" transform="translate(2.028 -47.25)" fill="#7f4fc7"/>
          <path id="Trazado_194855-2" data-name="Trazado 194855" d="M18.773,79.264a1.112,1.112,0,1,0-.326.788,1.113,1.113,0,0,0,.326-.788" transform="translate(4.056 -47.25)" fill="#7f4fc7"/>
          <path id="Trazado_194856-2" data-name="Trazado 194856" d="M27.046,79.264a1.112,1.112,0,1,0-.326.788,1.113,1.113,0,0,0,.326-.788" transform="translate(6.083 -47.25)" fill="#7f4fc7"/>
          <path id="Trazado_194857-2" data-name="Trazado 194857" d="M35.318,79.264a1.112,1.112,0,1,0-.326.788,1.113,1.113,0,0,0,.326-.788" transform="translate(8.111 -47.25)" fill="#7f4fc7"/>
          <path id="Trazado_194858-2" data-name="Trazado 194858" d="M43.587,79.264a1.112,1.112,0,1,0-.326.788,1.113,1.113,0,0,0,.326-.788" transform="translate(10.139 -47.25)" fill="#7f4fc7"/>
          <path id="Trazado_194859-2" data-name="Trazado 194859" d="M51.863,79.264a1.112,1.112,0,1,0-.326.788,1.113,1.113,0,0,0,.326-.788" transform="translate(12.167 -47.25)" fill="#7f4fc7"/>
          <path id="Trazado_194860-2" data-name="Trazado 194860" d="M60.136,79.264a1.113,1.113,0,1,0-1.113,1.113,1.113,1.113,0,0,0,1.113-1.113" transform="translate(14.194 -47.25)" fill="#7f4fc7"/>
          <path id="Trazado_194861-2" data-name="Trazado 194861" d="M68.409,79.264a1.112,1.112,0,1,0-.326.788,1.113,1.113,0,0,0,.326-.788" transform="translate(16.222 -47.25)" fill="#7f4fc7"/>
          <path id="Trazado_194862-2" data-name="Trazado 194862" d="M2.228,87.537a1.112,1.112,0,1,0-.325.788,1.113,1.113,0,0,0,.325-.788" transform="translate(0 -45.222)" fill="#7f4fc7"/>
          <path id="Trazado_194863-2" data-name="Trazado 194863" d="M10.5,87.537a1.112,1.112,0,1,0-.325.788,1.113,1.113,0,0,0,.325-.788" transform="translate(2.028 -45.222)" fill="#7f4fc7"/>
          <path id="Trazado_194864-2" data-name="Trazado 194864" d="M18.773,87.537a1.112,1.112,0,1,0-.325.788,1.113,1.113,0,0,0,.325-.788" transform="translate(4.056 -45.222)" fill="#7f4fc7"/>
          <path id="Trazado_194865-2" data-name="Trazado 194865" d="M27.046,87.537a1.112,1.112,0,1,0-.325.788,1.113,1.113,0,0,0,.325-.788" transform="translate(6.083 -45.222)" fill="#7f4fc7"/>
          <path id="Trazado_194866-2" data-name="Trazado 194866" d="M35.318,87.537a1.112,1.112,0,1,0-.325.788,1.113,1.113,0,0,0,.325-.788" transform="translate(8.111 -45.222)" fill="#7f4fc7"/>
          <path id="Trazado_194867-2" data-name="Trazado 194867" d="M43.587,87.537a1.112,1.112,0,1,0-.325.788,1.113,1.113,0,0,0,.325-.788" transform="translate(10.139 -45.222)" fill="#7f4fc7"/>
          <path id="Trazado_194868-2" data-name="Trazado 194868" d="M51.863,87.537a1.112,1.112,0,1,0-.325.788,1.113,1.113,0,0,0,.325-.788" transform="translate(12.167 -45.222)" fill="#7f4fc7"/>
          <path id="Trazado_194869-2" data-name="Trazado 194869" d="M60.136,87.537a1.113,1.113,0,1,0-1.113,1.114,1.113,1.113,0,0,0,1.113-1.114" transform="translate(14.194 -45.222)" fill="#7f4fc7"/>
          <path id="Trazado_194870-2" data-name="Trazado 194870" d="M68.409,87.537a1.112,1.112,0,1,0-.325.788,1.113,1.113,0,0,0,.325-.788" transform="translate(16.222 -45.222)" fill="#7f4fc7"/>
          <path id="Trazado_194871-2" data-name="Trazado 194871" d="M2.228,95.81A1.112,1.112,0,1,0,1.9,96.6a1.113,1.113,0,0,0,.326-.788" transform="translate(0 -43.194)" fill="#7f4fc7"/>
          <path id="Trazado_194872-2" data-name="Trazado 194872" d="M10.5,95.81a1.112,1.112,0,1,0-.326.788,1.113,1.113,0,0,0,.326-.788" transform="translate(2.028 -43.194)" fill="#7f4fc7"/>
          <path id="Trazado_194873-2" data-name="Trazado 194873" d="M18.773,95.81a1.112,1.112,0,1,0-.326.788,1.113,1.113,0,0,0,.326-.788" transform="translate(4.056 -43.194)" fill="#7f4fc7"/>
          <path id="Trazado_194874-2" data-name="Trazado 194874" d="M27.046,95.81a1.112,1.112,0,1,0-.326.788,1.113,1.113,0,0,0,.326-.788" transform="translate(6.083 -43.194)" fill="#7f4fc7"/>
          <path id="Trazado_194875-2" data-name="Trazado 194875" d="M35.318,95.81a1.112,1.112,0,1,0-.326.788,1.113,1.113,0,0,0,.326-.788" transform="translate(8.111 -43.194)" fill="#7f4fc7"/>
          <path id="Trazado_194876-2" data-name="Trazado 194876" d="M43.587,95.81a1.112,1.112,0,1,0-.326.788,1.113,1.113,0,0,0,.326-.788" transform="translate(10.139 -43.194)" fill="#7f4fc7"/>
          <path id="Trazado_194877-2" data-name="Trazado 194877" d="M51.863,95.81a1.112,1.112,0,1,0-.326.788,1.113,1.113,0,0,0,.326-.788" transform="translate(12.167 -43.194)" fill="#7f4fc7"/>
          <path id="Trazado_194878-2" data-name="Trazado 194878" d="M60.136,95.81a1.113,1.113,0,1,0-1.113,1.113,1.113,1.113,0,0,0,1.113-1.113" transform="translate(14.194 -43.194)" fill="#7f4fc7"/>
          <path id="Trazado_194879-2" data-name="Trazado 194879" d="M68.409,95.81a1.112,1.112,0,1,0-.326.788,1.113,1.113,0,0,0,.326-.788" transform="translate(16.222 -43.194)" fill="#7f4fc7"/>
          <path id="Trazado_194880-2" data-name="Trazado 194880" d="M2.228,104.082a1.112,1.112,0,1,0-.326.788,1.113,1.113,0,0,0,.326-.788" transform="translate(0 -41.166)" fill="#7f4fc7"/>
          <path id="Trazado_194881-2" data-name="Trazado 194881" d="M10.5,104.082a1.112,1.112,0,1,0-.326.788,1.113,1.113,0,0,0,.326-.788" transform="translate(2.028 -41.166)" fill="#7f4fc7"/>
          <path id="Trazado_194882-2" data-name="Trazado 194882" d="M18.773,104.082a1.112,1.112,0,1,0-.326.788,1.113,1.113,0,0,0,.326-.788" transform="translate(4.056 -41.166)" fill="#7f4fc7"/>
          <path id="Trazado_194883-2" data-name="Trazado 194883" d="M27.046,104.082a1.112,1.112,0,1,0-.326.788,1.113,1.113,0,0,0,.326-.788" transform="translate(6.083 -41.166)" fill="#7f4fc7"/>
          <path id="Trazado_194884-2" data-name="Trazado 194884" d="M35.318,104.082a1.112,1.112,0,1,0-.326.788,1.113,1.113,0,0,0,.326-.788" transform="translate(8.111 -41.166)" fill="#7f4fc7"/>
          <path id="Trazado_194885-2" data-name="Trazado 194885" d="M43.587,104.082a1.112,1.112,0,1,0-.326.788,1.113,1.113,0,0,0,.326-.788" transform="translate(10.139 -41.166)" fill="#7f4fc7"/>
          <path id="Trazado_194886-2" data-name="Trazado 194886" d="M51.863,104.082a1.112,1.112,0,1,0-.326.788,1.113,1.113,0,0,0,.326-.788" transform="translate(12.167 -41.166)" fill="#7f4fc7"/>
          <path id="Trazado_194887-2" data-name="Trazado 194887" d="M60.136,104.082a1.113,1.113,0,1,0-1.113,1.113,1.113,1.113,0,0,0,1.113-1.113" transform="translate(14.194 -41.166)" fill="#7f4fc7"/>
          <path id="Trazado_194888-2" data-name="Trazado 194888" d="M68.409,104.082a1.112,1.112,0,1,0-.326.788,1.113,1.113,0,0,0,.326-.788" transform="translate(16.222 -41.166)" fill="#7f4fc7"/>
          <path id="Trazado_194889-2" data-name="Trazado 194889" d="M2.228,112.355a1.112,1.112,0,1,0-.326.788,1.113,1.113,0,0,0,.326-.788" transform="translate(0 -39.138)" fill="#7f4fc7"/>
          <path id="Trazado_194890-2" data-name="Trazado 194890" d="M10.5,112.355a1.112,1.112,0,1,0-.326.788,1.113,1.113,0,0,0,.326-.788" transform="translate(2.028 -39.138)" fill="#7f4fc7"/>
          <path id="Trazado_194891-2" data-name="Trazado 194891" d="M18.773,112.355a1.112,1.112,0,1,0-.326.788,1.113,1.113,0,0,0,.326-.788" transform="translate(4.056 -39.138)" fill="#7f4fc7"/>
          <path id="Trazado_194892-2" data-name="Trazado 194892" d="M27.046,112.355a1.112,1.112,0,1,0-.326.788,1.113,1.113,0,0,0,.326-.788" transform="translate(6.083 -39.138)" fill="#7f4fc7"/>
          <path id="Trazado_194893-2" data-name="Trazado 194893" d="M35.318,112.355a1.112,1.112,0,1,0-.326.788,1.113,1.113,0,0,0,.326-.788" transform="translate(8.111 -39.138)" fill="#7f4fc7"/>
          <path id="Trazado_194894-2" data-name="Trazado 194894" d="M43.587,112.355a1.112,1.112,0,1,0-.326.788,1.113,1.113,0,0,0,.326-.788" transform="translate(10.139 -39.138)" fill="#7f4fc7"/>
          <path id="Trazado_194895-2" data-name="Trazado 194895" d="M51.863,112.355a1.112,1.112,0,1,0-.326.788,1.113,1.113,0,0,0,.326-.788" transform="translate(12.167 -39.138)" fill="#7f4fc7"/>
          <path id="Trazado_194896-2" data-name="Trazado 194896" d="M60.136,112.355a1.113,1.113,0,1,0-1.113,1.113,1.113,1.113,0,0,0,1.113-1.113" transform="translate(14.194 -39.138)" fill="#7f4fc7"/>
          <path id="Trazado_194897-2" data-name="Trazado 194897" d="M68.409,112.355a1.112,1.112,0,1,0-.326.788,1.113,1.113,0,0,0,.326-.788" transform="translate(16.222 -39.138)" fill="#7f4fc7"/>
          <path id="Trazado_194898-2" data-name="Trazado 194898" d="M2.228,120.627a1.112,1.112,0,1,0-.326.788,1.113,1.113,0,0,0,.326-.788" transform="translate(0 -37.111)" fill="#7f4fc7"/>
          <path id="Trazado_194899-2" data-name="Trazado 194899" d="M10.5,120.627a1.112,1.112,0,1,0-.326.788,1.113,1.113,0,0,0,.326-.788" transform="translate(2.028 -37.111)" fill="#7f4fc7"/>
          <path id="Trazado_194900-2" data-name="Trazado 194900" d="M18.773,120.627a1.112,1.112,0,1,0-.326.788,1.113,1.113,0,0,0,.326-.788" transform="translate(4.056 -37.111)" fill="#7f4fc7"/>
          <path id="Trazado_194901-2" data-name="Trazado 194901" d="M27.046,120.627a1.112,1.112,0,1,0-.326.788,1.113,1.113,0,0,0,.326-.788" transform="translate(6.083 -37.111)" fill="#7f4fc7"/>
          <path id="Trazado_194902-2" data-name="Trazado 194902" d="M35.318,120.627a1.112,1.112,0,1,0-.326.788,1.113,1.113,0,0,0,.326-.788" transform="translate(8.111 -37.111)" fill="#7f4fc7"/>
          <path id="Trazado_194903-2" data-name="Trazado 194903" d="M43.587,120.627a1.112,1.112,0,1,0-.326.788,1.113,1.113,0,0,0,.326-.788" transform="translate(10.139 -37.111)" fill="#7f4fc7"/>
          <path id="Trazado_194904-2" data-name="Trazado 194904" d="M51.863,120.627a1.112,1.112,0,1,0-.326.788,1.113,1.113,0,0,0,.326-.788" transform="translate(12.167 -37.111)" fill="#7f4fc7"/>
          <path id="Trazado_194905-2" data-name="Trazado 194905" d="M60.136,120.627a1.113,1.113,0,1,0-1.113,1.113,1.113,1.113,0,0,0,1.113-1.113" transform="translate(14.194 -37.111)" fill="#7f4fc7"/>
          <path id="Trazado_194906-2" data-name="Trazado 194906" d="M68.409,120.627a1.112,1.112,0,1,0-.326.788,1.113,1.113,0,0,0,.326-.788" transform="translate(16.222 -37.111)" fill="#7f4fc7"/>
        </g>
      </g>
      <g id="Grupo_155254" data-name="Grupo 155254" transform="translate(28.76 343.395)">
        <g id="Grupo_154318" data-name="Grupo 154318">
          <g id="Grupo_154315" data-name="Grupo 154315" transform="translate(32.747 9.551)">
            <path id="Trazado_195058" data-name="Trazado 195058" d="M14.017,225.789H54.543a1.523,1.523,0,0,0,0-3.038H14.017a1.523,1.523,0,1,0,0,3.038" transform="translate(-12.394 -222.747)" fill="#12263f"/>
            <path id="Trazado_195059" data-name="Trazado 195059" d="M83.974,225.789H94.206a1.523,1.523,0,0,0,0-3.038H83.974a1.523,1.523,0,1,0,0,3.038" transform="translate(-35.06 -222.747)" fill="#12263f"/>
            <path id="Trazado_195064" data-name="Trazado 195064" d="M112.811,232.612H84.346a1.067,1.067,0,1,0,0,2.134h28.469a1.067,1.067,0,1,0,0-2.134" transform="translate(-35.33 -225.943)" fill="#12263f"/>
            <path id="Trazado_195065" data-name="Trazado 195065" d="M73.867,232.612H66.681a1.067,1.067,0,1,0,0,2.134h7.186a1.067,1.067,0,1,0,0-2.134" transform="translate(-29.607 -225.943)" fill="#12263f"/>
          </g>
          <g id="Grupo_154316" data-name="Grupo 154316">
            <path id="Trazado_195062" data-name="Trazado 195062" d="M161.607,1.333H113.762c-.991,0-1.793.476-1.793,1.067s.8,1.068,1.793,1.068h47.845c.991,0,1.794-.476,1.794-1.068s-.8-1.067-1.794-1.067" transform="translate(-80.777 -1.333)" fill="#12263f"/>
            <path id="Trazado_195063" data-name="Trazado 195063" d="M115.873,1.333H97.1c-1.541,0-2.787.476-2.787,1.067S95.556,3.467,97.1,3.467h18.777c1.541,0,2.787-.476,2.787-1.068s-1.247-1.067-2.787-1.067" transform="translate(-94.309 -1.333)" fill="#12263f"/>
          </g>
        </g>
      </g>
      <g id="Grupo_154801" data-name="Grupo 154801" transform="translate(0 314.542)">
        <g id="Grupo_154721" data-name="Grupo 154721" clip-path="url(#clip-path-3)">
          <line id="Línea_1878" data-name="Línea 1878" x1="21.605" y2="101.839" transform="translate(61.14 29.463)" fill="none" stroke="#1e0b4a" stroke-linecap="round" stroke-linejoin="round" stroke-width="1.052"/>
          <path id="Trazado_196481" data-name="Trazado 196481" d="M238.009,274.732a8.116,8.116,0,1,1-8.116-8.116,8.116,8.116,0,0,1,8.116,8.116" transform="translate(-147.148 -245.268)" fill="#59c4c8"/>
          <path id="Trazado_196482" data-name="Trazado 196482" d="M250.969,334.8c-8.993,25.883-37.317,39.553-37.317,39.553s-13.743-28.29-4.749-54.171,37.317-39.552,37.317-39.552,13.743,28.289,4.749,54.17" transform="translate(-144.709 -243.048)" fill="#12263f"/>
          <path id="Trazado_196483" data-name="Trazado 196483" d="M294.477,324.773c4.17,39.347-24.428,74.631-24.428,74.631s-35.357-28.508-39.526-67.855,24.429-74.631,24.429-74.631,35.356,28.508,39.525,67.855" transform="translate(-213.683 -246.805)" fill="#59c4c8"/>
          <path id="Trazado_196484" data-name="Trazado 196484" d="M301.225,323.107A14.827,14.827,0,1,1,286.4,308.28a14.827,14.827,0,0,1,14.827,14.827" transform="translate(-268.053 -238.666)" fill="#12263f"/>
          <line id="Línea_1879" data-name="Línea 1879" x2="14.585" y2="137.648" transform="translate(41.781 14.95)" fill="none" stroke="#1e0b4a" stroke-linecap="round" stroke-linejoin="round" stroke-width="1.052"/>
          <line id="Línea_1880" data-name="Línea 1880" y1="17.929" x2="27.876" transform="translate(50.522 79.509)" fill="none" stroke="#1e0b4a" stroke-linecap="round" stroke-linejoin="round" stroke-width="1.052"/>
          <line id="Línea_1881" data-name="Línea 1881" x1="23.957" y1="12.551" transform="translate(22.858 49.911)" fill="none" stroke="#1e0b4a" stroke-linecap="round" stroke-linejoin="round" stroke-width="1.052"/>
          <line id="Línea_1882" data-name="Línea 1882" x2="26.068" y2="53.467" transform="translate(18.345 84.441)" fill="none" stroke="#1e0b4a" stroke-linecap="round" stroke-linejoin="round" stroke-width="1.052"/>
        </g>
      </g>
      <g id="Grupo_155255" data-name="Grupo 155255" transform="translate(0.001 23.371)">
        <g id="Grupo_154317" data-name="Grupo 154317">
          <g id="Grupo_154315-2" data-name="Grupo 154315" transform="translate(47.652 8.224)">
            <path id="Trazado_195058-2" data-name="Trazado 195058" d="M14.7,227.158H73.5a2.2,2.2,0,1,0,0-4.407H14.7a2.2,2.2,0,1,0,0,4.407" transform="translate(-12.5 -222.751)" fill="#2a5f61"/>
            <path id="Trazado_195059-2" data-name="Trazado 195059" d="M84.665,227.158H99.51a2.2,2.2,0,1,0,0-4.407H84.665a2.2,2.2,0,1,0,0,4.407" transform="translate(-13.851 -222.751)" fill="#2a5f61"/>
            <path id="Trazado_195064-2" data-name="Trazado 195064" d="M126.12,232.612h-41.3a1.548,1.548,0,1,0,0,3.1h41.3a1.548,1.548,0,0,0,0-3.1" transform="translate(-13.866 -222.941)" fill="#2a5f61"/>
            <path id="Trazado_195065-2" data-name="Trazado 195065" d="M77.591,232.612H67.161a1.548,1.548,0,1,0,0,3.1H77.591a1.548,1.548,0,0,0,0-3.1" transform="translate(-13.525 -222.941)" fill="#2a5f61"/>
          </g>
          <g id="Grupo_154316-2" data-name="Grupo 154316">
            <path id="Trazado_195062-2" data-name="Trazado 195062" d="M183.977,1.333h-69.41c-1.437,0-2.6.694-2.6,1.547s1.164,1.548,2.6,1.548h69.408c1.437,0,2.6-.694,2.6-1.548s-1.166-1.547-2.6-1.547" transform="translate(-66.719 -1.333)" fill="#2a5f61"/>
            <path id="Trazado_195063-2" data-name="Trazado 195063" d="M125.591,1.333H98.352c-2.234,0-4.043.694-4.043,1.547s1.808,1.548,4.043,1.548h27.239c2.234,0,4.043-.694,4.043-1.548s-1.808-1.547-4.043-1.547" transform="translate(-94.309 -1.333)" fill="#2a5f61"/>
          </g>
        </g>
      </g>
      <g id="Grupo_155256" data-name="Grupo 155256" transform="translate(201.709 124.155)">
        <rect id="Rectángulo_45220" data-name="Rectángulo 45220" width="106.857" height="25.376" transform="translate(48.291) rotate(90)" fill="#315884"/>
        <rect id="Rectángulo_45221" data-name="Rectángulo 45221" width="3.287" height="3.287" transform="translate(0 23.055) rotate(-90)" fill="#85b6ec"/>
        <rect id="Rectángulo_45222" data-name="Rectángulo 45222" width="3.287" height="3.287" transform="translate(0 30.038) rotate(-90)" fill="#85b6ec"/>
        <rect id="Rectángulo_45223" data-name="Rectángulo 45223" width="3.287" height="3.287" transform="translate(0 37.022) rotate(-90)" fill="#85b6ec"/>
        <rect id="Rectángulo_45224" data-name="Rectángulo 45224" width="3.286" height="3.287" transform="translate(0 44.005) rotate(-90)" fill="#85b6ec"/>
        <rect id="Rectángulo_45225" data-name="Rectángulo 45225" width="3.287" height="3.287" transform="translate(0 50.989) rotate(-90)" fill="#85b6ec"/>
        <rect id="Rectángulo_45226" data-name="Rectángulo 45226" width="3.286" height="3.287" transform="translate(0 57.972) rotate(-90)" fill="#85b6ec"/>
        <rect id="Rectángulo_45227" data-name="Rectángulo 45227" width="3.287" height="3.287" transform="translate(0 64.955) rotate(-90)" fill="#85b6ec"/>
        <rect id="Rectángulo_45228" data-name="Rectángulo 45228" width="3.286" height="3.287" transform="translate(0 71.939) rotate(-90)" fill="#85b6ec"/>
        <rect id="Rectángulo_45229" data-name="Rectángulo 45229" width="3.287" height="3.287" transform="translate(0 78.923) rotate(-90)" fill="#85b6ec"/>
        <rect id="Rectángulo_46135" data-name="Rectángulo 46135" width="3.287" height="3.287" transform="translate(0 99.873) rotate(-90)" fill="#85b6ec"/>
        <rect id="Rectángulo_46159" data-name="Rectángulo 46159" width="3.287" height="3.287" transform="translate(0 120.824) rotate(-90)" fill="#85b6ec"/>
        <rect id="Rectángulo_45230" data-name="Rectángulo 45230" width="3.287" height="3.287" transform="translate(0 85.906) rotate(-90)" fill="#85b6ec"/>
        <rect id="Rectángulo_46125" data-name="Rectángulo 46125" width="3.287" height="3.287" transform="translate(0 106.857) rotate(-90)" fill="#85b6ec"/>
        <rect id="Rectángulo_46160" data-name="Rectángulo 46160" width="3.287" height="3.287" transform="translate(0 127.807) rotate(-90)" fill="#85b6ec"/>
        <rect id="Rectángulo_46168" data-name="Rectángulo 46168" width="3.287" height="3.287" transform="translate(0 141.773) rotate(-90)" fill="#85b6ec"/>
        <rect id="Rectángulo_45231" data-name="Rectángulo 45231" width="3.287" height="3.287" transform="translate(0 92.889) rotate(-90)" fill="#85b6ec"/>
        <rect id="Rectángulo_46123" data-name="Rectángulo 46123" width="3.287" height="3.287" transform="translate(0 113.84) rotate(-90)" fill="#85b6ec"/>
        <rect id="Rectángulo_46161" data-name="Rectángulo 46161" width="3.287" height="3.287" transform="translate(0 134.79) rotate(-90)" fill="#85b6ec"/>
        <rect id="Rectángulo_46162" data-name="Rectángulo 46162" width="3.287" height="3.287" transform="translate(0 148.757) rotate(-90)" fill="#85b6ec"/>
        <rect id="Rectángulo_45232" data-name="Rectángulo 45232" width="3.287" height="3.287" transform="translate(6.984 23.055) rotate(-90)" fill="#85b6ec"/>
        <rect id="Rectángulo_45233" data-name="Rectángulo 45233" width="3.287" height="3.287" transform="translate(6.984 30.038) rotate(-90)" fill="#85b6ec"/>
        <rect id="Rectángulo_45234" data-name="Rectángulo 45234" width="3.287" height="3.287" transform="translate(6.984 37.022) rotate(-90)" fill="#85b6ec"/>
        <rect id="Rectángulo_45235" data-name="Rectángulo 45235" width="3.286" height="3.287" transform="translate(6.984 44.005) rotate(-90)" fill="#85b6ec"/>
        <rect id="Rectángulo_45236" data-name="Rectángulo 45236" width="3.287" height="3.287" transform="translate(6.984 50.989) rotate(-90)" fill="#85b6ec"/>
        <rect id="Rectángulo_45237" data-name="Rectángulo 45237" width="3.286" height="3.287" transform="translate(6.984 57.972) rotate(-90)" fill="#85b6ec"/>
        <rect id="Rectángulo_45238" data-name="Rectángulo 45238" width="3.287" height="3.287" transform="translate(6.984 64.955) rotate(-90)" fill="#85b6ec"/>
        <rect id="Rectángulo_45239" data-name="Rectángulo 45239" width="3.286" height="3.287" transform="translate(6.984 71.939) rotate(-90)" fill="#85b6ec"/>
        <rect id="Rectángulo_45240" data-name="Rectángulo 45240" width="3.287" height="3.287" transform="translate(6.984 78.923) rotate(-90)" fill="#85b6ec"/>
        <rect id="Rectángulo_46136" data-name="Rectángulo 46136" width="3.287" height="3.287" transform="translate(6.984 99.873) rotate(-90)" fill="#85b6ec"/>
        <rect id="Rectángulo_46156" data-name="Rectángulo 46156" width="3.287" height="3.287" transform="translate(6.984 120.824) rotate(-90)" fill="#85b6ec"/>
        <rect id="Rectángulo_45241" data-name="Rectángulo 45241" width="3.287" height="3.287" transform="translate(6.984 85.906) rotate(-90)" fill="#85b6ec"/>
        <rect id="Rectángulo_46126" data-name="Rectángulo 46126" width="3.287" height="3.287" transform="translate(6.984 106.857) rotate(-90)" fill="#85b6ec"/>
        <rect id="Rectángulo_46157" data-name="Rectángulo 46157" width="3.287" height="3.287" transform="translate(6.984 127.807) rotate(-90)" fill="#85b6ec"/>
        <rect id="Rectángulo_46169" data-name="Rectángulo 46169" width="3.287" height="3.287" transform="translate(6.984 141.773) rotate(-90)" fill="#85b6ec"/>
        <rect id="Rectángulo_45242" data-name="Rectángulo 45242" width="3.287" height="3.287" transform="translate(6.984 92.889) rotate(-90)" fill="#85b6ec"/>
        <rect id="Rectángulo_46124" data-name="Rectángulo 46124" width="3.287" height="3.287" transform="translate(6.984 113.84) rotate(-90)" fill="#85b6ec"/>
        <rect id="Rectángulo_46158" data-name="Rectángulo 46158" width="3.287" height="3.287" transform="translate(6.984 134.79) rotate(-90)" fill="#85b6ec"/>
        <rect id="Rectángulo_46163" data-name="Rectángulo 46163" width="3.287" height="3.287" transform="translate(6.984 148.757) rotate(-90)" fill="#85b6ec"/>
        <rect id="Rectángulo_45243" data-name="Rectángulo 45243" width="3.287" height="3.287" transform="translate(12.856 23.055) rotate(-90)" fill="#85b6ec"/>
        <rect id="Rectángulo_45244" data-name="Rectángulo 45244" width="3.287" height="3.287" transform="translate(12.856 30.038) rotate(-90)" fill="#85b6ec"/>
        <rect id="Rectángulo_45245" data-name="Rectángulo 45245" width="3.287" height="3.287" transform="translate(12.856 37.022) rotate(-90)" fill="#85b6ec"/>
        <rect id="Rectángulo_45246" data-name="Rectángulo 45246" width="3.286" height="3.287" transform="translate(12.856 44.005) rotate(-90)" fill="#85b6ec"/>
        <rect id="Rectángulo_45247" data-name="Rectángulo 45247" width="3.287" height="3.287" transform="translate(12.856 50.989) rotate(-90)" fill="#85b6ec"/>
        <rect id="Rectángulo_45248" data-name="Rectángulo 45248" width="3.286" height="3.287" transform="translate(12.856 57.972) rotate(-90)" fill="#85b6ec"/>
        <rect id="Rectángulo_45249" data-name="Rectángulo 45249" width="3.287" height="3.287" transform="translate(12.856 64.955) rotate(-90)" fill="#85b6ec"/>
        <rect id="Rectángulo_45250" data-name="Rectángulo 45250" width="3.286" height="3.287" transform="translate(12.856 71.939) rotate(-90)" fill="#85b6ec"/>
        <rect id="Rectángulo_45251" data-name="Rectángulo 45251" width="3.287" height="3.287" transform="translate(12.856 78.923) rotate(-90)" fill="#85b6ec"/>
        <rect id="Rectángulo_46137" data-name="Rectángulo 46137" width="3.287" height="3.287" transform="translate(12.856 99.873) rotate(-90)" fill="#85b6ec"/>
        <rect id="Rectángulo_46146" data-name="Rectángulo 46146" width="3.287" height="3.287" transform="translate(12.856 120.824) rotate(-90)" fill="#85b6ec"/>
        <rect id="Rectángulo_45252" data-name="Rectángulo 45252" width="3.287" height="3.287" transform="translate(12.856 85.906) rotate(-90)" fill="#85b6ec"/>
        <rect id="Rectángulo_46127" data-name="Rectángulo 46127" width="3.287" height="3.287" transform="translate(12.856 106.857) rotate(-90)" fill="#85b6ec"/>
        <rect id="Rectángulo_46147" data-name="Rectángulo 46147" width="3.287" height="3.287" transform="translate(12.856 127.807) rotate(-90)" fill="#85b6ec"/>
        <rect id="Rectángulo_46170" data-name="Rectángulo 46170" width="3.287" height="3.287" transform="translate(12.856 141.773) rotate(-90)" fill="#85b6ec"/>
        <rect id="Rectángulo_45253" data-name="Rectángulo 45253" width="3.287" height="3.287" transform="translate(12.856 92.889) rotate(-90)" fill="#85b6ec"/>
        <rect id="Rectángulo_46128" data-name="Rectángulo 46128" width="3.287" height="3.287" transform="translate(12.856 113.84) rotate(-90)" fill="#85b6ec"/>
        <rect id="Rectángulo_46148" data-name="Rectángulo 46148" width="3.287" height="3.287" transform="translate(12.856 134.79) rotate(-90)" fill="#85b6ec"/>
        <rect id="Rectángulo_46164" data-name="Rectángulo 46164" width="3.287" height="3.287" transform="translate(12.856 148.757) rotate(-90)" fill="#85b6ec"/>
        <rect id="Rectángulo_45221-2" data-name="Rectángulo 45221" width="3.287" height="3.287" transform="translate(18.747 23.055) rotate(-90)" fill="#85b6ec"/>
        <rect id="Rectángulo_45222-2" data-name="Rectángulo 45222" width="3.287" height="3.287" transform="translate(18.747 30.038) rotate(-90)" fill="#85b6ec"/>
        <rect id="Rectángulo_45223-2" data-name="Rectángulo 45223" width="3.287" height="3.287" transform="translate(18.747 37.022) rotate(-90)" fill="#85b6ec"/>
        <rect id="Rectángulo_45224-2" data-name="Rectángulo 45224" width="3.286" height="3.287" transform="translate(18.747 44.005) rotate(-90)" fill="#85b6ec"/>
        <rect id="Rectángulo_45225-2" data-name="Rectángulo 45225" width="3.287" height="3.287" transform="translate(18.747 50.989) rotate(-90)" fill="#85b6ec"/>
        <rect id="Rectángulo_45226-2" data-name="Rectángulo 45226" width="3.286" height="3.287" transform="translate(18.747 57.972) rotate(-90)" fill="#85b6ec"/>
        <rect id="Rectángulo_45227-2" data-name="Rectángulo 45227" width="3.287" height="3.287" transform="translate(18.747 64.955) rotate(-90)" fill="#85b6ec"/>
        <rect id="Rectángulo_45228-2" data-name="Rectángulo 45228" width="3.286" height="3.287" transform="translate(18.747 71.939) rotate(-90)" fill="#85b6ec"/>
        <rect id="Rectángulo_45229-2" data-name="Rectángulo 45229" width="3.287" height="3.287" transform="translate(18.747 78.923) rotate(-90)" fill="#85b6ec"/>
        <rect id="Rectángulo_46138" data-name="Rectángulo 46138" width="3.287" height="3.287" transform="translate(18.747 99.873) rotate(-90)" fill="#85b6ec"/>
        <rect id="Rectángulo_46149" data-name="Rectángulo 46149" width="3.287" height="3.287" transform="translate(18.747 120.824) rotate(-90)" fill="#85b6ec"/>
        <rect id="Rectángulo_45230-2" data-name="Rectángulo 45230" width="3.287" height="3.287" transform="translate(18.747 85.906) rotate(-90)" fill="#85b6ec"/>
        <rect id="Rectángulo_46129" data-name="Rectángulo 46129" width="3.287" height="3.287" transform="translate(18.747 106.857) rotate(-90)" fill="#85b6ec"/>
        <rect id="Rectángulo_46150" data-name="Rectángulo 46150" width="3.287" height="3.287" transform="translate(18.747 127.807) rotate(-90)" fill="#85b6ec"/>
        <rect id="Rectángulo_46171" data-name="Rectángulo 46171" width="3.287" height="3.287" transform="translate(18.747 141.773) rotate(-90)" fill="#85b6ec"/>
        <rect id="Rectángulo_45231-2" data-name="Rectángulo 45231" width="3.287" height="3.287" transform="translate(18.747 92.889) rotate(-90)" fill="#85b6ec"/>
        <rect id="Rectángulo_46130" data-name="Rectángulo 46130" width="3.287" height="3.287" transform="translate(18.747 113.84) rotate(-90)" fill="#85b6ec"/>
        <rect id="Rectángulo_46151" data-name="Rectángulo 46151" width="3.287" height="3.287" transform="translate(18.747 134.79) rotate(-90)" fill="#85b6ec"/>
        <rect id="Rectángulo_46165" data-name="Rectángulo 46165" width="3.287" height="3.287" transform="translate(18.747 148.757) rotate(-90)" fill="#85b6ec"/>
        <rect id="Rectángulo_45232-2" data-name="Rectángulo 45232" width="3.287" height="3.287" transform="translate(25.175 23.055) rotate(-90)" fill="#85b6ec"/>
        <rect id="Rectángulo_45233-2" data-name="Rectángulo 45233" width="3.287" height="3.287" transform="translate(25.175 30.038) rotate(-90)" fill="#85b6ec"/>
        <rect id="Rectángulo_45234-2" data-name="Rectángulo 45234" width="3.287" height="3.287" transform="translate(25.175 37.022) rotate(-90)" fill="#85b6ec"/>
        <rect id="Rectángulo_45235-2" data-name="Rectángulo 45235" width="3.286" height="3.287" transform="translate(25.175 44.005) rotate(-90)" fill="#85b6ec"/>
        <rect id="Rectángulo_45236-2" data-name="Rectángulo 45236" width="3.287" height="3.287" transform="translate(25.175 50.989) rotate(-90)" fill="#85b6ec"/>
        <rect id="Rectángulo_45237-2" data-name="Rectángulo 45237" width="3.286" height="3.287" transform="translate(25.175 57.972) rotate(-90)" fill="#85b6ec"/>
        <rect id="Rectángulo_45238-2" data-name="Rectángulo 45238" width="3.287" height="3.287" transform="translate(25.175 64.955) rotate(-90)" fill="#85b6ec"/>
        <rect id="Rectángulo_45239-2" data-name="Rectángulo 45239" width="3.286" height="3.287" transform="translate(25.175 71.939) rotate(-90)" fill="#85b6ec"/>
        <rect id="Rectángulo_45240-2" data-name="Rectángulo 45240" width="3.287" height="3.287" transform="translate(25.175 78.923) rotate(-90)" fill="#85b6ec"/>
        <rect id="Rectángulo_46139" data-name="Rectángulo 46139" width="3.287" height="3.287" transform="translate(25.175 99.873) rotate(-90)" fill="#85b6ec"/>
        <rect id="Rectángulo_46152" data-name="Rectángulo 46152" width="3.287" height="3.287" transform="translate(25.175 120.824) rotate(-90)" fill="#85b6ec"/>
        <rect id="Rectángulo_45241-2" data-name="Rectángulo 45241" width="3.287" height="3.287" transform="translate(25.175 85.906) rotate(-90)" fill="#85b6ec"/>
        <rect id="Rectángulo_46131" data-name="Rectángulo 46131" width="3.287" height="3.287" transform="translate(25.175 106.857) rotate(-90)" fill="#85b6ec"/>
        <rect id="Rectángulo_46153" data-name="Rectángulo 46153" width="3.287" height="3.287" transform="translate(25.175 127.807) rotate(-90)" fill="#85b6ec"/>
        <rect id="Rectángulo_46172" data-name="Rectángulo 46172" width="3.287" height="3.287" transform="translate(25.175 141.773) rotate(-90)" fill="#85b6ec"/>
        <rect id="Rectángulo_45242-2" data-name="Rectángulo 45242" width="3.287" height="3.287" transform="translate(25.175 92.889) rotate(-90)" fill="#85b6ec"/>
        <rect id="Rectángulo_46132" data-name="Rectángulo 46132" width="3.287" height="3.287" transform="translate(25.175 113.84) rotate(-90)" fill="#85b6ec"/>
        <rect id="Rectángulo_46154" data-name="Rectángulo 46154" width="3.287" height="3.287" transform="translate(25.175 134.79) rotate(-90)" fill="#85b6ec"/>
        <rect id="Rectángulo_46166" data-name="Rectángulo 46166" width="3.287" height="3.287" transform="translate(25.175 148.757) rotate(-90)" fill="#85b6ec"/>
        <rect id="Rectángulo_45243-2" data-name="Rectángulo 45243" width="3.287" height="3.287" transform="translate(31.603 23.055) rotate(-90)" fill="#85b6ec"/>
        <rect id="Rectángulo_45244-2" data-name="Rectángulo 45244" width="3.287" height="3.287" transform="translate(31.603 30.038) rotate(-90)" fill="#85b6ec"/>
        <rect id="Rectángulo_45245-2" data-name="Rectángulo 45245" width="3.287" height="3.287" transform="translate(31.603 37.022) rotate(-90)" fill="#85b6ec"/>
        <rect id="Rectángulo_45246-2" data-name="Rectángulo 45246" width="3.286" height="3.287" transform="translate(31.603 44.005) rotate(-90)" fill="#85b6ec"/>
        <rect id="Rectángulo_45247-2" data-name="Rectángulo 45247" width="3.287" height="3.287" transform="translate(31.603 50.989) rotate(-90)" fill="#85b6ec"/>
        <rect id="Rectángulo_45248-2" data-name="Rectángulo 45248" width="3.286" height="3.287" transform="translate(31.603 57.972) rotate(-90)" fill="#85b6ec"/>
        <rect id="Rectángulo_45249-2" data-name="Rectángulo 45249" width="3.287" height="3.287" transform="translate(31.603 64.955) rotate(-90)" fill="#85b6ec"/>
        <rect id="Rectángulo_45250-2" data-name="Rectángulo 45250" width="3.286" height="3.287" transform="translate(31.603 71.939) rotate(-90)" fill="#85b6ec"/>
        <rect id="Rectángulo_45251-2" data-name="Rectángulo 45251" width="3.287" height="3.287" transform="translate(31.603 78.923) rotate(-90)" fill="#85b6ec"/>
        <rect id="Rectángulo_46140" data-name="Rectángulo 46140" width="3.287" height="3.287" transform="translate(31.603 99.873) rotate(-90)" fill="#85b6ec"/>
        <rect id="Rectángulo_46144" data-name="Rectángulo 46144" width="3.287" height="3.287" transform="translate(31.603 120.824) rotate(-90)" fill="#85b6ec"/>
        <rect id="Rectángulo_45252-2" data-name="Rectángulo 45252" width="3.287" height="3.287" transform="translate(31.603 85.906) rotate(-90)" fill="#85b6ec"/>
        <rect id="Rectángulo_46133" data-name="Rectángulo 46133" width="3.287" height="3.287" transform="translate(31.603 106.857) rotate(-90)" fill="#85b6ec"/>
        <rect id="Rectángulo_46145" data-name="Rectángulo 46145" width="3.287" height="3.287" transform="translate(31.603 127.807) rotate(-90)" fill="#85b6ec"/>
        <rect id="Rectángulo_46173" data-name="Rectángulo 46173" width="3.287" height="3.287" transform="translate(31.603 141.773) rotate(-90)" fill="#85b6ec"/>
        <rect id="Rectángulo_45253-2" data-name="Rectángulo 45253" width="3.287" height="3.287" transform="translate(31.603 92.889) rotate(-90)" fill="#85b6ec"/>
        <rect id="Rectángulo_46134" data-name="Rectángulo 46134" width="3.287" height="3.287" transform="translate(31.603 113.84) rotate(-90)" fill="#85b6ec"/>
        <rect id="Rectángulo_46155" data-name="Rectángulo 46155" width="3.287" height="3.287" transform="translate(31.603 134.79) rotate(-90)" fill="#85b6ec"/>
        <rect id="Rectángulo_46167" data-name="Rectángulo 46167" width="3.287" height="3.287" transform="translate(31.603 148.757) rotate(-90)" fill="#85b6ec"/>
      </g>
    </g>
    <g id="Grupo_1099682" data-name="Grupo 1099682" transform="translate(97.571 31.049)">
      <g id="Grupo_1099681" data-name="Grupo 1099681" clip-path="url(#clip-path-4)">
        <path id="Trazado_873435" data-name="Trazado 873435" d="M102.182,1620.621a2.046,2.046,0,0,0,1.682,1.507,6.452,6.452,0,0,0,1.374.175q.907.048,1.814.078,1.845.062,3.691.052c2.385-.012,4.775-.1,7.151-.308a22.218,22.218,0,0,0,5.842-1.162,10.808,10.808,0,0,0,4.764-3.39,37.67,37.67,0,0,0,3.132-5.247,30.306,30.306,0,0,1,3.623-5.163,30.654,30.654,0,0,1,2.173-2.25c.77-.719,1.591-1.374,2.4-2.05a9.04,9.04,0,0,0,2.078-2.282,6.439,6.439,0,0,0,.833-2.764,10.343,10.343,0,0,0-1.066-4.952,8.791,8.791,0,0,0-4.043-4.647c-.715-.557-2.11.711-3,.866-1.907.331-3.354,1.911-4.445,3.391a106.072,106.072,0,0,0-5.744,9.383,32.3,32.3,0,0,1-6.492,8.416c-1.374,1.178-2.55,1.017-4.194,1.766-1.709.779-3.863,2.5-5.568,3.292a16.817,16.817,0,0,0-4.611,2.941c-.624.592-1.52,1.4-1.391,2.349" transform="translate(-77.019 -1197.155)" fill="#381730"/>
        <path id="Trazado_873436" data-name="Trazado 873436" d="M240.466,1656.934l2.831-.1.468-20.04-6.167.223Z" transform="translate(-179.11 -1233.88)" fill="#381730"/>
        <path id="Trazado_873437" data-name="Trazado 873437" d="M130.618,1056.525c-.35,4.58-.411,9.549,1.089,13.986.691,2.044-2.047,3.785-3.15,5.772-4.813,8.665-4.04,13.865-7.673,16.216a13.079,13.079,0,0,1-11.038,1.791,9.335,9.335,0,0,1-2.5-1.312c-.212-.155-.276-.5-.079-.641,5.64-3.885,5.59-5.632,7.963-11.188q.151-.354.3-.705a41.3,41.3,0,0,0,3.452-19.583c0-.039-.006-.079-.009-.118-.535-6.922-1.347-13.82-2.293-20.7-.953-6.931-9.287-49.185-10.742-58.16-1.356-8.353-5.24-16.039-6.824-24.34-.388-2.044-1.191-7.5-2.067-14.3-.384-2.974-.779-6.2-1.164-9.522-1.442-12.482-2.684-26.174-2.221-31.893l37.673-3.156c-.124.87-1.43,17.085-2.764,33.691-.777,9.693-1.564,19.523-2.126,26.509-.238,2.963-.438,5.416-.578,7.128a6.993,6.993,0,0,0,.771,3.741,64.353,64.353,0,0,1,5.994,19.13c1.426,9.026,1.3,28.357.574,37.442-.811,10.224-1.8,19.988-2.587,30.212" transform="translate(-70.532 -677.456)" fill="#ff948f"/>
        <path id="Trazado_873438" data-name="Trazado 873438" d="M276.531,1620.224a2.046,2.046,0,0,0,1.682,1.507,6.456,6.456,0,0,0,1.374.175q.907.047,1.815.077,1.845.062,3.691.052c2.385-.013,4.775-.1,7.152-.308a22.228,22.228,0,0,0,5.842-1.162,10.811,10.811,0,0,0,4.764-3.39,37.7,37.7,0,0,0,3.132-5.247,30.314,30.314,0,0,1,3.623-5.164,30.647,30.647,0,0,1,2.172-2.25c1.715-1.6,4.365-2.927,4.717-5.47a11.784,11.784,0,0,0-1.149-6.946c-.772-1.43-3.7-5.084-5.554-4.42-.715-.557.077.851-.817,1.006-1.907.331-3.354,1.911-4.445,3.391a105.981,105.981,0,0,0-5.744,9.383,32.309,32.309,0,0,1-6.492,8.416c-1.374,1.178-2.55,1.016-4.194,1.766-1.709.779-3.863,2.5-5.569,3.292a16.821,16.821,0,0,0-4.611,2.941c-.624.592-1.52,1.4-1.39,2.349" transform="translate(-208.45 -1196.758)" fill="#381730"/>
        <path id="Trazado_873439" data-name="Trazado 873439" d="M409.949,1656.934l2.831-.1,2.05-20.04-6.167.223Z" transform="translate(-308.066 -1233.88)" fill="#381730"/>
        <path id="Trazado_873440" data-name="Trazado 873440" d="M240.282,1046.921a248.635,248.635,0,0,1-2.232-29.376c-.2-10.182-1.008-30.66-3.686-40.8a73.734,73.734,0,0,0-8.1-19.467,7.82,7.82,0,0,1-1.171-3.86c-.294-11.469-2.113-66.955-2.066-68.51,0,0-37.211,3.23-37.211,3.232.337,11.12,9.594,49.8,11.643,56.727,2.5,8.451,7.231,16.274,9.512,24.779,2.45,9.137,14.334,51.97,16.057,59.027.984,4.032,3.106,12.708,4.833,20.112a36.64,36.64,0,0,1-1.312,20.558c-.144.406-.275.8-.392,1.18-1.746,5.658-1.5,7.438-6.693,11.4-.18.137-.078.494.151.651a10.515,10.515,0,0,0,2.641,1.334,12.194,12.194,0,0,0,10.806-1.829c3.36-2.4,4.411-6.813,6.438-10.4,1.043-1.847,3.187-4.469,4.256-7.5.616-1.747-.047-3.136-.963-5.216-1.7-3.848-1.916-7.751-2.51-12.037" transform="translate(-140.076 -667.08)" fill="#ff948f"/>
        <path id="Trazado_873441" data-name="Trazado 873441" d="M210.108,1012.381a87.861,87.861,0,0,1-3.571-12.229,88.979,88.979,0,0,1-1.77-12.641q-.241-3.579-.191-7.171a.456.456,0,0,0-.5-.4.467.467,0,0,0-.4.5,89.015,89.015,0,0,0,3.346,25.407q.979,3.475,2.24,6.86a.453.453,0,0,0,.844-.326" transform="translate(-153.534 -738.714)" fill="#2d1f2a"/>
        <path id="Trazado_873442" data-name="Trazado 873442" d="M132.034,1166.736a7.948,7.948,0,0,0,3.055-2.4.462.462,0,0,1,.654,0,.481.481,0,0,1,0,.659,8.66,8.66,0,0,1-3.242,2.55.465.465,0,0,1-.467-.805" transform="translate(-99.363 -877.617)" fill="#2d1f2a"/>
        <path id="Trazado_873443" data-name="Trazado 873443" d="M289.753,1165.612a8,8,0,0,0,2.418-3.054.463.463,0,0,1,.636-.153.481.481,0,0,1,.152.641,8.707,8.707,0,0,1-2.566,3.24.464.464,0,0,1-.639-.674" transform="translate(-218.321 -876.218)" fill="#2d1f2a"/>
        <path id="Trazado_873444" data-name="Trazado 873444" d="M121.225,107.805c-3.995-7.126-7.8-15.752-6.862-24.067-.039.009-.068.005-.108.016-5.59,1.519-6.343-2.457-5.172,6.677.614,4.8,3.987,6.632,3.717,11.97-.458,9.063,7.533,19.991,17.613,20.157-3.928-4.846-7.178-11.166-9.188-14.752" transform="translate(-81.876 -63.125)" fill="#7e2e3a"/>
        <path id="Trazado_873445" data-name="Trazado 873445" d="M8.645,813.4c-1.161,2.694-2.631,3.454-3.548,4.507-.639.734-3.881,4.99-3.945,5.6s-.068,1.256-.109,1.882C1,826.034.121,832.827.01,833.426a12.3,12.3,0,0,0,.908,3.108c.181.532,1.059,4.525,1.251,4.847a.7.7,0,0,0,.875.291,2.563,2.563,0,0,0,1.2-2.09,10.956,10.956,0,0,0-.062-2.892l1.157.442c.65.248,1.3.519,1.961.718a4.713,4.713,0,0,0,.974.2,4.774,4.774,0,0,0,.917-.019c.614-.069,1.208-.218,1.818-.3q.487-.069.981-.105.239-.017.479-.027a.876.876,0,0,0,.418-.08.535.535,0,0,0,.214-.657,1.8,1.8,0,0,0-.533-.745,5.05,5.05,0,0,0-2.821-1c.734-.439,1.471-.872,2.235-1.263a7.341,7.341,0,0,0,.918-.475,4.447,4.447,0,0,0,.827-.9l1.611-1.993c.121-.15.292-.308.3-.518a.728.728,0,0,0-.25-.5,1.907,1.907,0,0,0-1.021-.5,2.785,2.785,0,0,0-.64-.034l.814-.812c.239-.238.486-.471.718-.716a.561.561,0,0,0,.01-.753,1.544,1.544,0,0,0-.7-.492,2.571,2.571,0,0,0-.9-.162c-.1,0-.191,0-.286.01q.113-.142.219-.289a23.543,23.543,0,0,0,1.731-2.676c.451-.87,1.435-4.008.564-4.953.853-2.7,3.508-7.765,3.233-7.924-1.115-.645-2.2-1.354-3.349-1.925A40.141,40.141,0,0,0,11,806.067c-.2-.053-.447.391-.481.568a36.277,36.277,0,0,1-1.87,6.768" transform="translate(0 -607.643)" fill="#ff948f"/>
        <path id="Trazado_873446" data-name="Trazado 873446" d="M47.719,568.922c-4.007-.455-8.008-7.544-8.5-6.69-1.269,2.473-6.508,23.19-7.977,27.371s-7.278,34.265-6.456,34.9a19.537,19.537,0,0,0,2.661,1.636,37.258,37.258,0,0,0,12.292,4.143s6.632-19.86,7.558-23.811l2.778-11.852,2.776-11.842,2.77-11.817c.115-.49-6.072-1.834-7.9-2.042" transform="translate(-18.626 -423.78)" fill="#4e425a"/>
        <path id="Trazado_873447" data-name="Trazado 873447" d="M167.678,16.742l-.1-.378C164.665.807,144.577-3.611,133.5,2.909c-5.708,3.358-9.656.644-15.273,2.7-10.7,3.924-14.025,11.69-12.49,18.8,1.01,4.682,4.776,9.109,8.755,10.094,1.363.249,2.643-.473,4.269-1.608,3.6-2.289,7.652-5.743,12.255-5.023,10.485,2.743,12.94,21.988,12.811,31.36.144,1.609.647,2.158,1.931,1.034,3.813-4.22,7.985-3.478,12.841-6.345,6.648-3.924,2.27-7.766,7.783-13.734,6.834-7.4,3.6-13.463,1.3-23.453" transform="translate(-79.438 0)" fill="#7e2e3a"/>
        <path id="Trazado_873448" data-name="Trazado 873448" d="M240.245,12.395a.4.4,0,0,0-.5-.083,30.874,30.874,0,0,0-10.863,10.206,29.484,29.484,0,0,0-2.444,4.65c-.211.506.586.782.8.277a29.2,29.2,0,0,1,4.754-7.707,30.7,30.7,0,0,1,6.908-5.986c.328-.208.865-.512,1.249-.725a.4.4,0,0,0,.1-.624l-.008-.008" transform="translate(-170.675 -9.243)" fill="#2d1f2a"/>
        <path id="Trazado_873449" data-name="Trazado 873449" d="M286.752,101.652a21.534,21.534,0,0,1-7.253.393,12.005,12.005,0,0,1-6.391-3.9,17.55,17.55,0,0,1-2.624-3.592c-.25-.455-1.023-.1-.771.356a18.341,18.341,0,0,0,5.515,6.183,10.212,10.212,0,0,0,3.585,1.655,13.674,13.674,0,0,0,3.759.264,37.96,37.96,0,0,0,4.3-.549.408.408,0,0,0-.119-.808" transform="translate(-203.284 -71.116)" fill="#2d1f2a"/>
        <path id="Trazado_873450" data-name="Trazado 873450" d="M308.7,102.262a11.373,11.373,0,0,1-8.7-.7.447.447,0,0,0-.588.111.4.4,0,0,0,.092.57,12.312,12.312,0,0,0,9.533.763.407.407,0,1,0-.336-.74" transform="translate(-225.651 -76.511)" fill="#2d1f2a"/>
        <path id="Trazado_873451" data-name="Trazado 873451" d="M310.079,23.041a11.491,11.491,0,0,1,6.578,5.787.449.449,0,0,0,.538.263.4.4,0,0,0,.263-.513,12.439,12.439,0,0,0-7.211-6.334.416.416,0,0,0-.5.31.428.428,0,0,0,.331.486" transform="translate(-233.494 -16.756)" fill="#2d1f2a"/>
        <path id="Trazado_873452" data-name="Trazado 873452" d="M118,109.989a11.566,11.566,0,0,1-4.768-7.374.451.451,0,0,0-.446-.4.4.4,0,0,0-.391.422,12.519,12.519,0,0,0,5.23,8.074.415.415,0,0,0,.563-.161.429.429,0,0,0-.188-.559" transform="translate(-84.724 -77.053)" fill="#2d1f2a"/>
        <path id="Trazado_873453" data-name="Trazado 873453" d="M163.887,51.956a9.418,9.418,0,0,0-4.743,1.266,27.425,27.425,0,0,0-4.259,2.382,10.921,10.921,0,0,0-1.789,1.615,18.031,18.031,0,0,0-1.441,1.93,44.379,44.379,0,0,1-2.84,4,9.129,9.129,0,0,1-1.92,1.931,2.2,2.2,0,0,1-1.3.37.356.356,0,0,0-.358.253l0,.007a.359.359,0,0,0,.314.47,2.634,2.634,0,0,0,.939-.117,4.631,4.631,0,0,0,1.909-1.342,29.074,29.074,0,0,0,3.119-4.023,18.675,18.675,0,0,1,2.9-3.8,18.008,18.008,0,0,1,4.173-2.611c1.646-.818,3.4-1.763,5.293-1.615a.379.379,0,0,0,.373-.368.362.362,0,0,0-.37-.351" transform="translate(-109.469 -39.155)" fill="#2d1f2a"/>
        <path id="Trazado_873454" data-name="Trazado 873454" d="M162.121,35.154a22.952,22.952,0,0,0-14.93,4.418,21.481,21.481,0,0,0-3.293,3,.4.4,0,0,0,.115.564.449.449,0,0,0,.587-.121,21.884,21.884,0,0,1,13.188-6.9,20.923,20.923,0,0,1,4.269-.151.409.409,0,0,0,.064-.815" transform="translate(-108.419 -26.466)" fill="#2d1f2a"/>
        <path id="Trazado_873455" data-name="Trazado 873455" d="M211.01,148.1a12.221,12.221,0,0,0-6.416-1.852,9.867,9.867,0,0,0-4.721,1.3,6.709,6.709,0,0,0-1.029.651,10.161,10.161,0,0,0-1.634,1.444h-.02a15.778,15.778,0,0,0-3.854,9.38,35.415,35.415,0,0,0-.141,4.618v.773c.02.529.04,1.038.061,1.567.1,2.4.222,4.761.4,7.122v.041a2.75,2.75,0,0,0,.02.407c.02.122.02.264.04.386.181,2.4.424,4.782.686,7.162a18.161,18.161,0,0,0,1.735,6.735.6.6,0,0,0,.867.244q4.268-2.441,8.454-5.046c1.251-.773,2.5-1.567,3.733-2.36a9.227,9.227,0,0,0,2.886-2.3c.766-1.119.6-2.462.6-3.7v-4.212c-.02-3.3-.02-6.613-.04-9.93,0-2.177-.02-4.334-.02-6.511a2.281,2.281,0,0,0,1.251-1.688c.222-1.811-1.372-3.358-2.866-4.232" transform="translate(-145.624 -110.247)" fill="#ff948f"/>
        <path id="Trazado_873456" data-name="Trazado 873456" d="M174.784,96.259a.521.521,0,0,0-.686-.325,19.65,19.65,0,0,1-2.925.061c-3.572-.508-4.194-5.643-6.192-8.776-2.3-3.642-5.955-5.792-7.993-9.6,0,0-8.913-1.714-13.166,5.754-4.1,7.2-9.412,8.672-9.412,8.672,1.009,4.883-1.231,6.287-.525,10.621a36.442,36.442,0,0,0,4.378,12.31A16.632,16.632,0,0,0,142,119.6a8.1,8.1,0,0,0,5.71,1.811c.242-.021.464-.041.706-.082a3.053,3.053,0,0,0,.444-.041,20.858,20.858,0,0,0,2.5-.468c.928-.224,1.856-.508,2.744-.814.464-.162.929-.325,1.372-.529.2-.082.383-.163.585-.264a19.309,19.309,0,0,0,3.914-2.238,15.525,15.525,0,0,0,5.69-8.505.287.287,0,0,0,.04-.122,3.9,3.9,0,0,0,2.139.325.828.828,0,0,0,.222-.02,6.392,6.392,0,0,0,3.228-1.791,16.489,16.489,0,0,0,2.482-2.95c1.393-2.177,2.179-5.086,1.009-7.65" transform="translate(-100.823 -58.386)" fill="#ff948f"/>
        <path id="Trazado_873457" data-name="Trazado 873457" d="M145.719,140.912c.023,1.762-.895,3.2-2.049,3.217s-2.109-1.4-2.131-3.162.895-3.2,2.049-3.218,2.109,1.4,2.132,3.163" transform="translate(-106.697 -103.841)" fill="#2d1f2a"/>
        <path id="Trazado_873458" data-name="Trazado 873458" d="M210.765,141.855c-.081,1.758-1.137,3.137-2.359,3.079s-2.147-1.528-2.066-3.287,1.137-3.137,2.359-3.08,2.147,1.529,2.066,3.287" transform="translate(-155.544 -104.457)" fill="#2d1f2a"/>
        <path id="Trazado_873459" data-name="Trazado 873459" d="M273.254,192.585a1.89,1.89,0,1,1-1.8-1.967,1.883,1.883,0,0,1,1.8,1.967" transform="translate(-203.143 -143.694)" fill="#ffd9de"/>
        <path id="Trazado_873460" data-name="Trazado 873460" d="M203.938,111.244c-1.173-2.4-9.562-3.509-11.081-1.1-.675,1.086.558,2.125,1.406,2.572a10.549,10.549,0,0,0,3.824.894,16.536,16.536,0,0,0,4.275-.174c1.021-.167,2.149-1.037,1.575-2.188" transform="translate(-145.237 -82.016)" fill="#7e2e3a"/>
        <path id="Trazado_873461" data-name="Trazado 873461" d="M275.606,165.458a6.4,6.4,0,0,0,1.649-.8,1.488,1.488,0,0,0,.483-1.318,1.125,1.125,0,0,0-.869-.907.4.4,0,0,1,.133-.8,2.013,2.013,0,0,1,1.309,2.926,2.735,2.735,0,0,1-1.442,1.263,6.251,6.251,0,0,0-1,.4.8.8,0,0,0-.445.609c.008.515-.788.6-.8.083a1.638,1.638,0,0,1,.976-1.462" transform="translate(-207.027 -121.844)" fill="#2d1f2a"/>
        <path id="Trazado_873462" data-name="Trazado 873462" d="M193.775,255.358v.041a3.044,3.044,0,0,1-.444.041.691.691,0,0,1,.2-.041,1,1,0,0,0,.242-.041" transform="translate(-145.741 -192.499)" fill="#2d1f2a"/>
        <path id="Trazado_873463" data-name="Trazado 873463" d="M212.184,203.784a13.517,13.517,0,0,1-4.015,7.182,20.988,20.988,0,0,1-7.849,4.823,24.213,24.213,0,0,1-5.125,1.18c-.02-.122-.02-.265-.04-.386a2.746,2.746,0,0,1-.02-.407v-.041c.827-.1,1.675-.244,2.5-.427a21.677,21.677,0,0,0,4.116-1.343c.2-.082.383-.163.585-.265a17.539,17.539,0,0,0,7.425-6.348,11.544,11.544,0,0,0,1.634-4.11.385.385,0,0,1,.545-.285.361.361,0,0,1,.242.427" transform="translate(-147.101 -153.276)" fill="#2d1f2a"/>
        <path id="Trazado_873464" data-name="Trazado 873464" d="M163.228,202.643c3.065.767,6.64,1.133,9.235-1.067.4-.335.865.319.473.651-2.756,2.336-6.575,2.029-9.841,1.212-.5-.124-.369-.921.133-.8" transform="translate(-122.711 -151.886)" fill="#2d1f2a"/>
        <path id="Trazado_873465" data-name="Trazado 873465" d="M155.754,276.363q-.229,1.367-.437,2.737c-.648,4.308-1.138,8.639-1.506,12.98q-.555,6.552-.746,13.129-.2,6.468-.076,12.942.111,6.049.5,12.087.4-.569.783-1.152a78.79,78.79,0,0,0,6.2-12.481,114.913,114.913,0,0,1,5.9-12.705,100.048,100.048,0,0,1,7.784-11.314c2.857-3.688,5.816-7.3,8.5-11.124a57.522,57.522,0,0,0,6.054-10.63c-.819-.2-1.633-.407-2.46-.53a57.855,57.855,0,0,0-2.845-8.476.489.489,0,0,0-.74-.218c-3.161,2.518-6.361,5.123-10.065,6.788-2.227,1-5.935,1.471-6.7,4.174q-.2.214-.389.429c-1.5-2.149-1.69-7.394-1.69-7.394-2.176,3.33-4.069,5.147-5.813,8.725a8.608,8.608,0,0,1-2.249,2.033" transform="translate(-115.296 -197.139)" fill="#8583ec"/>
        <path id="Trazado_873466" data-name="Trazado 873466" d="M89.9,713.1h62.366c1.87-18.516,4.327-36.8,4.016-55.424-.319-19.047,0-37.684-10.427-56.058-2.86-5.04,2.769-12.765,1.811-18.489l-50.134-2.678c-1.488,9.322-5.921,40.584-9.511,63.5-3.9,24.9,1.779,68.238,1.88,69.145" transform="translate(-65.32 -437.566)" fill="#4e425a"/>
        <path id="Trazado_873467" data-name="Trazado 873467" d="M188.044,361.987q-.922-3-1.941-5.972-1.96-5.711-4.272-11.291c-5.655-13.644-25.265-39.5-26.577-41.455-1.619-2.41-5.786-3.618-8.576-3.944-3.476-.407-6.826-.263-10.309-.607-1.709-.169-3.419-.365-5.107-.688-.394-.075-.785-.166-1.175-.26-.023.056-.043.112-.066.168a55.638,55.638,0,0,1-6.543,11.227c-2.611,3.612-5.442,7.054-8.142,10.6a82.308,82.308,0,0,0-7.279,11c-2.132,3.99-3.779,8.217-5.554,12.373a61.4,61.4,0,0,1-6.147,11.707.081.081,0,0,1-.15-.041q-.047-.7-.089-1.4-.36-5.964-.433-11.941-.08-6.238.145-12.476.23-6.283.8-12.548c.378-4.1.874-8.181,1.521-12.243.026-.165,1.926-2.317,1.961-2.526-1.873.234-10.255,2.865-11.717,3.116a9.176,9.176,0,0,0-3.174.919c-1.782,1.054-2.783,3.375-3.757,5.123q-1.723,3.094-3.157,6.338c-1.878,4.244-2.164,61.659-2.157,64.543.015,6.165,10.613-1.867,13.554-7.826.262,3.489.714,6.868,3.827,9.049,2.748,1.925,6.509,2.431,9.766,2.686a50.221,50.221,0,0,0,11.3-.525c3.871-.575,7.7-1.443,11.5-2.34a10.334,10.334,0,0,0,4.8-2.047,10.569,10.569,0,0,0,2.248-3.346,171.536,171.536,0,0,0,8.712-22c1.17-3.634,2.25-7.315,3.146-11.028a83.343,83.343,0,0,0,1.752-8.275c.221.363.443.723.659,1.085.9,1.508,1.839,2.99,2.791,4.465q2.855,4.42,5.9,8.708,3.112,4.393,6.391,8.662s-7.754,6.12-11.912,9.192a45.857,45.857,0,0,0-7.059,6.5c-2.139,2.414-4.366,5.267-7.7,5.887a.759.759,0,0,0-.231,1.429,10.42,10.42,0,0,1,4.862,7.832.751.751,0,0,0,.613.659c8.983.976,17.786-1.774,25.607-6.087a101.406,101.406,0,0,0,10.288-6.63c1.681-1.212,3.342-2.453,5-3.7,1.146-.862,6.642-5.8,7.023-7.306s-.5-3.341-.933-4.759" transform="translate(-57.402 -224.472)" fill="#4e425a"/>
        <path id="Trazado_873468" data-name="Trazado 873468" d="M164.929,342.5a68.112,68.112,0,0,0-2.08,7.859,54.215,54.215,0,0,0-.924,8.49q-.033.957-.038,1.914.42-.655.815-1.324c.027-1.034.078-2.068.158-3.1a64.6,64.6,0,0,1,3.689-16.168c1.807-5.222,3.874-10.36,5.282-15.713a39.748,39.748,0,0,0,1.269-16.344c-.082-.511-.878-.43-.8.083.109.677.2,1.358.257,2.041.5,5.568-.6,11.146-2.187,16.457-1.6,5.343-3.739,10.5-5.445,15.806" transform="translate(-122.037 -232.009)" fill="#2d1f2a"/>
        <path id="Trazado_873469" data-name="Trazado 873469" d="M307.433,341.216a14.452,14.452,0,0,1,4.856-.531,14.257,14.257,0,0,1,4.352.962,30.764,30.764,0,0,1-3.032-12.6,32.537,32.537,0,0,1,2.593-13.7,29.631,29.631,0,0,1,4.068-6.8c.324-.4.945.1.621.509a29.771,29.771,0,0,0-5.781,12.34,31.805,31.805,0,0,0,.06,13.677,28.977,28.977,0,0,0,2.7,7.231c.171.319-.247.655-.538.514a13.687,13.687,0,0,0-8.616-1.1,5.928,5.928,0,0,0-1.9.6c-.342.206-1,.688-.846,1.174.088.27.389.376.637.441.379.1.773.155,1.158.223q1.194.212,2.4.371,2.784.37,5.594.458a.407.407,0,0,1,.244.653,13.346,13.346,0,0,0-3.166,6.476,5.181,5.181,0,0,0,2.922-2.608c.227-.465.957-.134.729.334a6,6,0,0,1-4.1,3.229c-.265.059-.467-.235-.435-.468a14.126,14.126,0,0,1,2.918-6.854c-1.616-.074-3.229-.211-4.833-.424q-1.391-.185-2.773-.439c-.7-.128-1.54-.22-1.935-.9-.788-1.356,1.059-2.474,2.107-2.776" transform="translate(-230.023 -232.489)" fill="#2d1f2a"/>
        <path id="Trazado_873470" data-name="Trazado 873470" d="M207.808,299.416l.63-1.736a.4.4,0,0,1,.617-.146,28.982,28.982,0,0,1,7.915,10.552,30.988,30.988,0,0,0,7.753-8.172,30.49,30.49,0,0,0,1.67-2.922c.232-.462.962-.131.729.334a31.866,31.866,0,0,1-7.368,9.562,31.18,31.18,0,0,1-2.716,2.139.4.4,0,0,1-.609-.179,28.121,28.121,0,0,0-7.45-10.319l-.443,1.22c-.177.488-.905.152-.729-.334" transform="translate(-156.634 -223.717)" fill="#2d1f2a"/>
        <path id="Trazado_873471" data-name="Trazado 873471" d="M167.852,306.166a19.46,19.46,0,0,1,3.452-5.928,4.551,4.551,0,0,1,1.223-1.2c.564-.278,1.029.063,1.476.4a14.056,14.056,0,0,1,2.558,2.519c.321.407-.326.882-.646.477a13.176,13.176,0,0,0-2.232-2.228,2.649,2.649,0,0,0-.611-.438c-.245-.091-.434.191-.588.355q-.517.552-.987,1.147a18.8,18.8,0,0,0-2.917,5.233c-.178.487-.906.152-.729-.334" transform="translate(-126.513 -225.347)" fill="#2d1f2a"/>
        <path id="Trazado_873472" data-name="Trazado 873472" d="M336.273,629.57a11.1,11.1,0,0,1,4.985,8.591c.03.517-.766.6-.8.082a10.348,10.348,0,0,0-4.694-8.048c-.434-.279.075-.9.5-.626" transform="translate(-252.991 -474.543)" fill="#917835"/>
        <path id="Trazado_873473" data-name="Trazado 873473" d="M206.438,525.96c-1.759-1.294-3.283-5.951-6.651-11.9-6.064-12.26-14.567-27.647-18.711-39.75-.307-2.594,1.742-2.743,4.054-3.935l7.015-3.141c6.268-2.814,14.808-6.624,20.715-9.274,4.22-1.619,5.562-3.34,6.594-1.454,2.562,6.226,19.094,44.908,21.52,53.1a.992.992,0,0,1-.32.915c-3.237,1.83-6.641,2.879-11.477,5.209-7.053,3.035-16.735,8.027-22.647,10.231Z" transform="translate(-136.479 -343.511)" fill="#ffc4bf"/>
        <path id="Trazado_873474" data-name="Trazado 873474" d="M225.278,640.815a3.236,3.236,0,0,0,1.365,3.355c-.382.9.743,2.931,2.187,3.57a2.648,2.648,0,0,0,1.6,2,12.236,12.236,0,0,0,6.2.4,13.86,13.86,0,0,0,6.738-3.5c.984-.886,4.294-3.626,5.467-4.072a22.733,22.733,0,0,1,8.293-1.45c.234,0,.343-.258.346-.474a8.2,8.2,0,0,0-.575-3.124,7.33,7.33,0,0,0-3.549-3.961,6.328,6.328,0,0,0-4.657-.328,38.7,38.7,0,0,1-6.095.6,17.578,17.578,0,0,1-3.208-.281,20.585,20.585,0,0,1-3.158-.922,15.808,15.808,0,0,0-3.163-.866,19.269,19.269,0,0,0-3.305-.106,4.247,4.247,0,0,0-1.5.146c-.436.191-.377.658-.209,1.121a4.5,4.5,0,0,0,2.309,2.153c.738.314,4.057.121,4.568,1.425-.179.5-5.053.411-5.491.4-1.343-.035-2.25-1.749-2.25-1.749-.85.11-2.344,1.9-2.5,2.954a3.515,3.515,0,0,0,.587,2.707" transform="translate(-169.345 -476.152)" fill="#ff948f"/>
        <path id="Trazado_873475" data-name="Trazado 873475" d="M308.838,580.257c-.246-.408,14.575-10.662,17.154-12.567a44.371,44.371,0,0,1,9.243-5.237c1.262.927,2.5,1.892,3.7,2.907a63.443,63.443,0,0,1,7.025,6.948,62.53,62.53,0,0,1,4.695,6.189,94.824,94.824,0,0,1-8.572,5.413c-7.82,4.312-25.209,12.37-25.242,12.058-.338-3.229-8-15.711-8-15.711" transform="translate(-232.812 -423.999)" fill="#4e425a"/>
        <path id="Trazado_873476" data-name="Trazado 873476" d="M385.5,482.928c2.281,3.7,4.575,7.413,7.21,10.876a44.4,44.4,0,0,0,9.1,9.135c1.862,1.357,4.086,3.221,3.573,5.837a.4.4,0,0,1-.647.246q-2.684-2.7-5.621-5.119a10.071,10.071,0,0,1,.892,3.65,5.3,5.3,0,0,1-1.594,4.088.4.4,0,0,1-.609-.179l-2.4-8.932c-.133-.5.612-.794.746-.293l2.217,8.265a4.846,4.846,0,0,0,.828-3.171,13.486,13.486,0,0,0-1.5-4.656c-.174-.38.326-.7.625-.459a78.248,78.248,0,0,1,6.328,5.6c-.124-1.846-1.9-3.2-3.3-4.219a39.33,39.33,0,0,1-4.821-4.133,64.461,64.461,0,0,1-7.832-9.962c-1.323-2.007-2.587-4.053-3.847-6.1-.271-.439.374-.918.646-.477" transform="translate(-290.073 -363.919)" fill="#2d1f2a"/>
        <path id="Trazado_873477" data-name="Trazado 873477" d="M181.691,303.04c-.02-.547-.866-.549-.845,0q.156,4.166.311,8.332l-9.195,2.913a.431.431,0,0,0-.252.626l2.088,2.779.964,1.283a3.975,3.975,0,0,1,.918,1.5c.168.991-1.1,1.921-1.693,2.545q-1.169,1.226-2.322,2.469-4.566,4.921-8.9,10.05c-2.931,3.444-5.8,6.937-8.654,10.45-2.743,3.382-5.525,6.744-8.174,10.2a29.684,29.684,0,0,0-5.677,10.778c-1.068,4.286-1.2,8.813-1.5,13.2-.638,9.359-1,18.734-1.209,28.112-.211,9.336-.275,18.674-.323,28.013q-.009,1.768-.017,3.535a.423.423,0,0,0,.845,0c.046-9.429.093-18.858.273-28.285s.494-18.847,1.075-28.254a131.17,131.17,0,0,1,1.21-13.857,24.1,24.1,0,0,1,1.91-6.326,33.043,33.043,0,0,1,3.246-5.292c2.616-3.576,5.5-6.972,8.284-10.414,2.846-3.516,5.713-7.015,8.636-10.466s5.9-6.852,8.958-10.176q1.148-1.246,2.313-2.477a24.493,24.493,0,0,0,2.05-2.211,2.174,2.174,0,0,0,.385-2.137,12.641,12.641,0,0,0-1.863-2.669l-1.757-2.338,8.933-2.83a.434.434,0,0,0,.31-.411q-.161-4.32-.323-8.641" transform="translate(-103.432 -228.134)" fill="#2d1f2a"/>
        <path id="Trazado_873478" data-name="Trazado 873478" d="M129.489,327.466l.859-1.388c.288-.467-.442-.9-.73-.43l-4.071,6.581c-.548.886-1.219,1.9-.72,2.961a3.727,3.727,0,0,0,1.5,1.406,6.459,6.459,0,0,1,.894.627,1.361,1.361,0,0,1,.433.627,5.521,5.521,0,0,1-2.2,1.4,4.019,4.019,0,0,0-2.154,1.8,4.879,4.879,0,0,0-.264,2.176q.035,1.112.091,2.224.115,2.273.319,4.54a116.941,116.941,0,0,0,3.035,17.943q1.242,4.953,2.917,9.781c.178.514,1,.293.815-.227a115.85,115.85,0,0,1-5.622-24.58q-.366-3.165-.558-6.347-.094-1.565-.146-3.132a3.393,3.393,0,0,1,.453-2.446,4.566,4.566,0,0,1,1.57-1.014,9.323,9.323,0,0,0,1.775-.965,3.127,3.127,0,0,0,.73-.751,1.021,1.021,0,0,0-.086-1,3.424,3.424,0,0,0-1.281-1.216,5.038,5.038,0,0,1-1.325-1.006c-.478-.618-.068-1.367.306-1.977,1.149-1.869,2.308-3.731,3.462-5.6" transform="translate(-92.739 -245.336)" fill="#2d1f2a"/>
        <path id="Trazado_873479" data-name="Trazado 873479" d="M110.249,409.74a88.791,88.791,0,0,1-4.8-33.921,87.565,87.565,0,0,1,1.037-9.582.439.439,0,0,0-.3-.524.426.426,0,0,0-.52.3,89.77,89.77,0,0,0,1.07,34.588,88.372,88.372,0,0,0,2.692,9.368c.179.514,1,.293.815-.226" transform="translate(-78.762 -275.679)" fill="#2d1f2a"/>
        <path id="Trazado_873480" data-name="Trazado 873480" d="M113.79,546.36a.425.425,0,0,0-.52.3q-1.01,6.31-1.894,12.638t-1.642,12.683q-.425,3.566-.81,7.137a.427.427,0,0,0,.423.426.434.434,0,0,0,.423-.426q.68-6.3,1.484-12.587t1.736-12.546q.528-3.552,1.1-7.1a.44.44,0,0,0-.295-.524" transform="translate(-82.11 -411.859)" fill="#2d1f2a"/>
        <path id="Trazado_873481" data-name="Trazado 873481" d="M141.821,924.862q-1.684-11.061-2.589-22.223-.9-11.1-1.028-22.242-.071-6.242.1-12.484a.423.423,0,0,0-.845,0q-.308,11.187.164,22.378t1.727,22.31q.705,6.259,1.654,12.488a.425.425,0,0,0,.52.3.437.437,0,0,0,.295-.524" transform="translate(-103.532 -653.958)" fill="#2d1f2a"/>
        <path id="Trazado_873482" data-name="Trazado 873482" d="M166.874,567.375a.42.42,0,0,0-.6,0l-.759.869a.452.452,0,0,0-.124.3.436.436,0,0,0,.124.3.42.42,0,0,0,.6,0l.759-.869a.453.453,0,0,0,.124-.3.435.435,0,0,0-.124-.3" transform="translate(-124.68 -427.616)" fill="#2d1f2a"/>
        <path id="Trazado_873483" data-name="Trazado 873483" d="M160.02,667.409a.42.42,0,0,0-.6,0,.443.443,0,0,0-.124.3v.648a.442.442,0,0,0,.124.3.421.421,0,0,0,.6,0,.445.445,0,0,0,.124-.3v-.648a.441.441,0,0,0-.124-.3" transform="translate(-120.086 -503.026)" fill="#2d1f2a"/>
        <path id="Trazado_873484" data-name="Trazado 873484" d="M158.714,817.51a.422.422,0,0,0-.721.3v.972a.444.444,0,0,0,.124.3.422.422,0,0,0,.721-.3v-.972a.442.442,0,0,0-.124-.3" transform="translate(-119.102 -616.178)" fill="#2d1f2a"/>
        <path id="Trazado_873485" data-name="Trazado 873485" d="M161.326,892.562a.422.422,0,0,0-.721.3v.972a.442.442,0,0,0,.124.3.427.427,0,0,0,.3.125.432.432,0,0,0,.423-.426v-.972a.442.442,0,0,0-.124-.3" transform="translate(-121.07 -672.755)" fill="#2d1f2a"/>
        <path id="Trazado_873486" data-name="Trazado 873486" d="M252.213,748.055a81.459,81.459,0,0,1-7.67-9.071,82.658,82.658,0,0,1-6.288-10.115q-1.559-2.964-2.873-6.05a.423.423,0,0,0-.578-.153.44.44,0,0,0-.152.583A82.717,82.717,0,0,0,247.11,743.66q2.149,2.591,4.505,5c.383.391.98-.211.6-.6" transform="translate(-176.853 -544.733)" fill="#2d1f2a"/>
        <path id="Trazado_873487" data-name="Trazado 873487" d="M163.369,162.175c.393-.669.883-1.5,1.443-2.64a.408.408,0,0,0,.021-.3.393.393,0,0,0-.5-.246.4.4,0,0,0-.225.2c-.568,1.15-1.07,2-1.436,2.624a5.436,5.436,0,0,0-1.075,2.707,3.773,3.773,0,0,0,2,3.036l.233.175a.393.393,0,0,0,.463-.635l-.238-.177c-.8-.583-1.695-1.242-1.682-2.388a4.915,4.915,0,0,1,.967-2.317Z" transform="translate(-121.821 -119.835)" fill="#2d1f2a"/>
      </g>
    </g>
  </g>
</svg>
