<svg xmlns="http://www.w3.org/2000/svg" xmlns:xlink="http://www.w3.org/1999/xlink" width="505" height="285.804" viewBox="0 0 505 285.804">
  <defs>
    <clipPath id="clip-path">
      <rect id="Rectángulo_379087" data-name="Rectángulo 379087" width="247.975" height="278.804" fill="none"/>
    </clipPath>
    <clipPath id="clip-path-3">
      <rect id="Rectángulo_379083" data-name="Rectángulo 379083" width="76.237" height="76.363" fill="none"/>
    </clipPath>
    <clipPath id="clip-path-4">
      <path id="Trazado_616749" data-name="Trazado 616749" d="M132.925,168.7c-.986-.985-.757-2.448.414-2.632L154.09,162.8l20.752-3.267a2.072,2.072,0,0,1,2.218,2.218l-3.267,20.752-3.267,20.752c-.184,1.17-1.646,1.4-2.632.414l-7.787-7.787a1.655,1.655,0,0,0-2.3-.263l-39.78,39.9a1.657,1.657,0,0,1-2.3-.263L101.46,220.99a1.656,1.656,0,0,1-.266-2.294l39.787-39.908a1.659,1.659,0,0,0-.267-2.3Z" transform="translate(-100.841 -159.518)" fill="none"/>
    </clipPath>
    <linearGradient id="linear-gradient" x1="-1.664" y1="1.004" x2="-1.647" y2="1.004" gradientUnits="objectBoundingBox">
      <stop offset="0" stop-color="#939598"/>
      <stop offset="1" stop-color="#231f20"/>
    </linearGradient>
    <clipPath id="clip-path-5">
      <rect id="Rectángulo_379085" data-name="Rectángulo 379085" width="39.558" height="39.623" fill="none"/>
    </clipPath>
    <clipPath id="clip-path-6">
      <path id="Trazado_616751" data-name="Trazado 616751" d="M180.612,87.419c-.511-.511-.391-1.271.215-1.366l10.768-1.7,10.768-1.7a1.075,1.075,0,0,1,1.151,1.151l-1.7,10.768-1.7,10.767c-.1.608-.854.727-1.366.215l-4.041-4.041a.862.862,0,0,0-1.193-.137l-20.641,20.705a.858.858,0,0,1-1.192-.137l-7.4-7.4a.859.859,0,0,1-.138-1.191l20.645-20.708a.86.86,0,0,0-.138-1.19Z" transform="translate(-163.965 -82.653)" fill="none"/>
    </clipPath>
    <linearGradient id="linear-gradient-2" x1="-5.219" y1="4.376" x2="-5.187" y2="4.376" xlink:href="#linear-gradient"/>
  </defs>
  <g id="img6" transform="translate(-285 -5679.354)">
    <g id="Grupo_1074432" data-name="Grupo 1074432" transform="translate(-580.257 5473.171)">
      <g id="Grupo_1074311" data-name="Grupo 1074311" transform="translate(865.257 187.829)">
        <rect id="Rectángulo_378585" data-name="Rectángulo 378585" width="505" height="93.655" rx="46.827" transform="translate(0 210.503)" fill="#8ce2e5"/>
        <path id="Trazado_616738" data-name="Trazado 616738" d="M571.67,805.867H177.3a1.153,1.153,0,1,1,0-2.227H571.67a1.153,1.153,0,1,1,0,2.227" transform="translate(-119.909 -568.657)" fill="#1a1a1a"/>
        <g id="Grupo_1075346" data-name="Grupo 1075346" transform="translate(139.605 18.354)">
          <g id="Grupo_1075345" data-name="Grupo 1075345" clip-path="url(#clip-path)">
            <g id="Grupo_1075344" data-name="Grupo 1075344">
              <g id="Grupo_1075343" data-name="Grupo 1075343" clip-path="url(#clip-path)">
                <path id="Trazado_616739" data-name="Trazado 616739" d="M31.637,130.449c.8,26.062,18.5,74.921,66.565,78.394,87.746,6.341,140.948-1.343,136.693-86.884-2.757-55.45-45.667-61.778-45.667-61.778S189.978,9.064,128,9.347C43.67,9.735,29.18,50.71,31.637,130.449" transform="translate(8.347 2.485)" fill="#cbf4e1"/>
                <path id="Trazado_616740" data-name="Trazado 616740" d="M133.274,34.488a4.3,4.3,0,0,1,1.57.295,5.9,5.9,0,0,1,10.891.392,4.32,4.32,0,1,1,2.339,7.953h-14.8a4.32,4.32,0,0,1,0-8.64" transform="translate(34.292 8.333)" fill="#fff"/>
                <path id="Trazado_616741" data-name="Trazado 616741" d="M22.387,55.845V87.092h12.6L26.879,56.36Z" transform="translate(5.953 14.851)" fill="#28121f"/>
                <path id="Trazado_616742" data-name="Trazado 616742" d="M37.963,77.283a16,16,0,1,0,16-16,16,16,0,0,0-16,16" transform="translate(10.095 16.297)" fill="#28121f"/>
                <path id="Trazado_616743" data-name="Trazado 616743" d="M30.458,59.669c0,8.835,6.66,16,14.876,16s14.876-7.163,14.876-16S55.46,42.313,34.971,44.753c-8.166.972-4.513,6.082-4.513,14.916" transform="translate(7.883 11.788)" fill="#28121f"/>
                <path id="Trazado_616744" data-name="Trazado 616744" d="M53.2,83.776A19.943,19.943,0,1,0,73.138,63.834,19.942,19.942,0,0,0,53.2,83.776" transform="translate(14.146 16.975)" fill="#28121f"/>
                <path id="Trazado_616745" data-name="Trazado 616745" d="M74.879,102.6a20.8,20.8,0,1,1,20.8-20.8,20.824,20.824,0,0,1-20.8,20.8m0-39.886A19.084,19.084,0,1,0,93.963,81.793,19.105,19.105,0,0,0,74.879,62.71" transform="translate(14.381 16.22)" fill="#28121f"/>
                <path id="Trazado_616746" data-name="Trazado 616746" d="M180.612,87.419c-.511-.511-.391-1.27.215-1.366l10.768-1.7,10.768-1.7a1.075,1.075,0,0,1,1.151,1.151l-1.7,10.768-1.7,10.768c-.1.606-.854.727-1.366.214l-4.041-4.04a.859.859,0,0,0-1.193-.137l-20.641,20.705a.86.86,0,0,1-1.192-.137l-7.4-7.406a.858.858,0,0,1-.138-1.19l20.643-20.709a.858.858,0,0,0-.138-1.19Z" transform="translate(43.603 21.98)" fill="#ffb14c"/>
                <path id="Trazado_616747" data-name="Trazado 616747" d="M103.564,37.466l29.01-6.13c11.288,29.48,14.8,60.386-4.651,85.174-21.07,26.855-54.939,31.379-83.046,28.181l3.886-54.975s30.782,12.439,49.279-4.747c15.8-14.682,7.156-38.168,5.522-47.5" transform="translate(11.934 8.333)" fill="#3180b5"/>
                <path id="Trazado_616748" data-name="Trazado 616748" d="M132.925,168.7c-.986-.986-.756-2.448.414-2.632l20.752-3.267,20.751-3.267a2.072,2.072,0,0,1,2.218,2.218l-3.267,20.752-3.267,20.751c-.184,1.17-1.646,1.4-2.632.415l-7.787-7.787a1.654,1.654,0,0,0-2.3-.263l-39.782,39.9a1.654,1.654,0,0,1-2.3-.265L101.46,220.99a1.658,1.658,0,0,1-.266-2.3l39.787-39.908a1.657,1.657,0,0,0-.266-2.294Z" transform="translate(26.816 42.42)" fill="#0dba98"/>
                <g id="Grupo_1075337" data-name="Grupo 1075337" transform="translate(127.657 201.938)" opacity="0.5" style="mix-blend-mode: soft-light;isolation: isolate">
                  <g id="Grupo_1075336" data-name="Grupo 1075336">
                    <g id="Grupo_1075335" data-name="Grupo 1075335" clip-path="url(#clip-path-3)">
                      <g id="Grupo_1075334" data-name="Grupo 1075334" transform="translate(0 0)">
                        <g id="Grupo_1075333" data-name="Grupo 1075333" clip-path="url(#clip-path-4)">
                          <rect id="Rectángulo_379082" data-name="Rectángulo 379082" width="76.609" height="76.735" transform="translate(-0.207 -0.165)" fill="url(#linear-gradient)"/>
                        </g>
                      </g>
                    </g>
                  </g>
                </g>
                <path id="Trazado_616750" data-name="Trazado 616750" d="M114.6,236.094a.858.858,0,0,1-.608-1.465l39.78-39.9a2.116,2.116,0,0,1,1.515-.608,2.871,2.871,0,0,1,2,.871l7.785,7.785a1,1,0,0,0,.954.342.309.309,0,0,0,.223-.282l6.535-41.5a.859.859,0,0,1,1.7.267l-6.535,41.5a2.027,2.027,0,0,1-1.387,1.648,2.678,2.678,0,0,1-2.7-.761L156.07,196.2a1.17,1.17,0,0,0-.782-.367.425.425,0,0,0-.3.1l-39.782,39.9a.849.849,0,0,1-.608.253" transform="translate(30.246 42.709)" fill="#068970"/>
                <g id="Grupo_1075342" data-name="Grupo 1075342" transform="translate(207.568 104.633)" opacity="0.5" style="mix-blend-mode: soft-light;isolation: isolate">
                  <g id="Grupo_1075341" data-name="Grupo 1075341">
                    <g id="Grupo_1075340" data-name="Grupo 1075340" clip-path="url(#clip-path-5)">
                      <g id="Grupo_1075339" data-name="Grupo 1075339" transform="translate(0 0)">
                        <g id="Grupo_1075338" data-name="Grupo 1075338" clip-path="url(#clip-path-6)">
                          <rect id="Rectángulo_379084" data-name="Rectángulo 379084" width="39.751" height="39.817" transform="translate(-0.108 -0.087)" fill="url(#linear-gradient-2)"/>
                        </g>
                      </g>
                    </g>
                  </g>
                </g>
                <path id="Trazado_616752" data-name="Trazado 616752" d="M171.19,122.888a.858.858,0,0,1-.608-1.465l20.642-20.705a1.51,1.51,0,0,1,1.077-.437,1.909,1.909,0,0,1,1.329.572l4,4,3.343-21.236a.859.859,0,0,1,1.7.267l-3.39,21.536a1.459,1.459,0,0,1-1,1.184,1.8,1.8,0,0,1-1.822-.495l-4.04-4.041c-.065-.049-20.619,20.567-20.619,20.567a.854.854,0,0,1-.608.253" transform="translate(45.296 22.043)" fill="#e87323"/>
                <path id="Trazado_616753" data-name="Trazado 616753" d="M0,177.662H91.949l-6.7-28.261-77.08-.019Z" transform="translate(0 39.725)" fill="#28121f"/>
                <path id="Trazado_616754" data-name="Trazado 616754" d="M90.617,116.926c.406-20.879-9.127-28.478-17.318-34.118C62.661,75.483,34.84,72.717,18.773,85.1c-4.508,3.475-7.466,6.621-9.287,9.586-10.622,16.248-2.024,49.9-.167,58.324a16.688,16.688,0,0,1,.046,6.956l-2.336,8.783H86.263l-1.33-32.83s5.442-6.56,5.684-18.991" transform="translate(1.136 20.36)" fill="#3180b5"/>
                <path id="Trazado_616755" data-name="Trazado 616755" d="M72.779,168.934a.859.859,0,0,1-.857-.824l-1.33-32.829a.858.858,0,0,1,.2-.584c.051-.062,5.254-6.514,5.485-18.46.386-19.784-8.16-27.345-16.946-33.4a24.2,24.2,0,0,0-3.842-2.109.858.858,0,1,1,.7-1.568A25.819,25.819,0,0,1,60.3,81.428c4.05,2.789,8.659,6.213,12.117,11.587,3.934,6.113,5.757,13.72,5.571,23.255-.22,11.343-4.633,17.872-5.671,19.255l1.318,32.515a.858.858,0,0,1-.823.892h-.035" transform="translate(14.62 21.032)" fill="#1c5482"/>
                <path id="Trazado_616756" data-name="Trazado 616756" d="M52.219,59.58A14.916,14.916,0,1,1,37.3,44.664,14.917,14.917,0,0,1,52.219,59.58" transform="translate(5.953 11.877)" fill="#28121f"/>
                <path id="Trazado_616757" data-name="Trazado 616757" d="M95.51,78.162c-2.419-2.419-1.853-6.007,1.017-6.459l50.922-8.017,50.922-8.017a5.083,5.083,0,0,1,5.442,5.442L195.8,112.034l-8.017,50.922c-.452,2.871-4.04,3.436-6.459,1.017l-19.107-19.107c-1.737-1.737-4.262-2.027-5.637-.647L58.959,242.135c-1.375,1.38-3.9,1.091-5.637-.646L18.3,206.47c-1.733-1.734-2.025-4.254-.653-5.631l97.631-97.931c1.372-1.377,1.08-3.9-.653-5.631Z" transform="translate(4.463 14.792)" fill="#fe9b4f"/>
                <path id="Trazado_616758" data-name="Trazado 616758" d="M50.279,242.022a.858.858,0,0,1-.608-1.465l97.616-97.917a3.959,3.959,0,0,1,2.834-1.124,5.788,5.788,0,0,1,4.018,1.77l19.107,19.107a3.7,3.7,0,0,0,3.61,1.143,2.006,2.006,0,0,0,1.394-1.686L194.285,60.006a.859.859,0,0,1,1.7.267L179.947,162.117a3.7,3.7,0,0,1-2.558,3.052,5.408,5.408,0,0,1-5.355-1.562L152.926,144.5a4.063,4.063,0,0,0-2.8-1.267,2.256,2.256,0,0,0-1.622.62L50.887,241.77a.853.853,0,0,1-.608.252" transform="translate(13.142 15.764)" fill="#b21f1f"/>
                <path id="Trazado_616759" data-name="Trazado 616759" d="M6.682,156.316H48.605l-43.026-33c1.217,7.1,2.567,13.52,3.393,17.265a16.688,16.688,0,0,1,.046,6.956Z" transform="translate(1.484 32.792)" fill="#1c5482"/>
                <path id="Trazado_616760" data-name="Trazado 616760" d="M35.721,61.736l.148-.309c-.053.1-.1.2-.148.309" transform="translate(9.499 16.335)" fill="#3180b5"/>
                <path id="Trazado_616761" data-name="Trazado 616761" d="M53.176,58.894A14.916,14.916,0,1,1,36.783,45.617,14.915,14.915,0,0,1,53.176,58.894" transform="translate(6.229 12.109)" fill="#28121f"/>
                <path id="Trazado_616762" data-name="Trazado 616762" d="M46.523,85.953l-.837-7.973c11.539-.817,12.983-3.452,10.586-15.553-.791-3.99-1.808-9.541-7.712-13.081a13.494,13.494,0,0,0-20.136,8.563c-.025.11-.049.223-.072.335-1.174,5.728-1.209,10.862,2.536,14.026l1.591,15.157Z" transform="translate(7.353 12.606)" fill="#ffa194"/>
                <path id="Trazado_616763" data-name="Trazado 616763" d="M37.109,73.722a12.885,12.885,0,0,0,6.76,3.822l-.629-5.987-5.475.495a1,1,0,0,0-.656,1.67" transform="translate(9.799 19.029)" fill="#db5349"/>
                <path id="Trazado_616764" data-name="Trazado 616764" d="M49.171,49.368c-1.734-2.061-4.56-2.146-6.7-2.579C31.26,44.517,27.389,49.141,25.5,58.57c-.81,4.06-3.357,14.19-1.265,19.726,2.218,5.865,9.108,7.027,9.108,7.027,9.622-3.333,3.38-18.453,3.38-18.453,9.348-2.546,14.777-9.331,12.443-17.5" transform="translate(6.231 12.291)" fill="#28121f"/>
                <path id="Trazado_616765" data-name="Trazado 616765" d="M49.085,94.98c-11.714,0-22.874-6.541-28.485-10.44l-2.4-1.668a.858.858,0,1,1,.98-1.409l2.4,1.668c5.446,3.784,16.26,10.132,27.5,10.132a28.344,28.344,0,0,0,3.528-.218c4.8-.6,8.367-3.7,10.045-8.726a20.686,20.686,0,0,0,.955-4.85.858.858,0,1,1,1.712.133,22.445,22.445,0,0,1-1.038,5.261c-1.9,5.685-5.969,9.2-11.46,9.886a30.025,30.025,0,0,1-3.741.23" transform="translate(4.741 20.922)" fill="#1c5482"/>
                <path id="Trazado_616766" data-name="Trazado 616766" d="M22.756,80.115C34.077,75.62,47.809,75.783,58,78.429c0,0,.311,9.908-7.245,10.857-11.591,1.455-23.684-6.169-28-9.17" transform="translate(6.051 20.36)" fill="#ffa194"/>
                <path id="Trazado_616767" data-name="Trazado 616767" d="M102.464,203s6.55,7.178,10.56,10.757,13.5,10.621,18.914,6.9c0,0,4.94-.4,6.589-4.552,0,0,5.889.8,7.934-6.387,0,0,8.448-4.35,5.056-12.3a25.225,25.225,0,0,1-3.471,2.247c-1.576.7-3.212,1.205-4.566.138-3.729-2.936-9.451-8.815-10.3-11.568-1.246-4.065,3.028-10.048,3.028-10.048l-.857.061a15.2,15.2,0,0,0-8.013,2.972l-1.253.933-3.1-2.36Z" transform="translate(27.248 47.381)" fill="#ffa194"/>
                <path id="Trazado_616768" data-name="Trazado 616768" d="M139.07,201.442a3.7,3.7,0,0,1-2.347-.8c-3.8-3-9.669-9.006-10.586-11.992-1.355-4.419,2.966-10.539,3.151-10.8a.858.858,0,1,1,1.4,1c-.039.056-4.012,5.687-2.905,9.3.732,2.386,6.073,8.049,10.006,11.146.934.736,2.15.433,3.688-.249a23.534,23.534,0,0,0,3.3-2.145.858.858,0,0,1,1.039,1.366,25.636,25.636,0,0,1-3.643,2.348,7.8,7.8,0,0,1-3.1.824" transform="translate(33.473 47.201)" fill="#db5349"/>
                <path id="Trazado_616769" data-name="Trazado 616769" d="M40.046,93.178s19,25.972,37.547,46.152c14.035,15.271,71.159,63.054,71.159,63.054L128.228,225.6S48.6,206.461,5.579,131.325Z" transform="translate(1.484 24.778)" fill="#3180b5"/>
                <path id="Trazado_616770" data-name="Trazado 616770" d="M121.168,226.638a.858.858,0,0,1-.643-1.427l19.942-22.555c-6.487-5.441-57.479-48.327-70.565-62.566C51.535,120.107,32.484,94.124,32.294,93.865a.859.859,0,1,1,1.386-1.014c.19.26,19.184,26.167,37.485,46.078,13.838,15.054,70.508,62.5,71.079,62.977a.858.858,0,0,1,.092,1.227l-20.526,23.215a.855.855,0,0,1-.643.29" transform="translate(8.544 24.598)" fill="#1c5482"/>
                <path id="Trazado_616771" data-name="Trazado 616771" d="M138.5,204.716c-3.005,0-6.217-2.905-6.355-3.032a.858.858,0,0,1,1.158-1.267c.814.742,3.353,2.651,5.3,2.58a.858.858,0,1,1,.063,1.715c-.056,0-.113,0-.168,0" transform="translate(35.068 53.236)" fill="#db5349"/>
                <path id="Trazado_616772" data-name="Trazado 616772" d="M132.53,209.833c-3.007,0-6.217-2.905-6.355-3.032a.858.858,0,0,1,1.158-1.267c.814.742,3.353,2.651,5.3,2.58a.858.858,0,1,1,.063,1.715c-.056,0-.113,0-.168,0" transform="translate(33.479 54.597)" fill="#db5349"/>
                <path id="Trazado_616773" data-name="Trazado 616773" d="M127.032,213.356c-3.005,0-6.217-2.905-6.355-3.032a.858.858,0,1,1,1.16-1.266c.814.742,3.352,2.651,5.3,2.579a.859.859,0,0,1,.063,1.717l-.168,0" transform="translate(32.017 55.534)" fill="#db5349"/>
                <path id="Trazado_616774" data-name="Trazado 616774" d="M118.534,6.593A2.65,2.65,0,0,0,116.4,8.278c.285-4.217-.98-7.808-4.4-7.7a3.453,3.453,0,0,0-3.128,2.207A3.032,3.032,0,0,0,105.5.015c-3.219.323-4.648,3.675-4.351,7.2s.59,8.694.59,8.694C96.648,10.346,93,10.984,89.466,13.631s-3.742,5.488-3.742,5.488C78.714,21.9,82.406,28.574,83.4,30.567c.492.981,8.94,9.448,8.94,9.448l1.47,5.784,29.011-6.13-3.038-7.946s1.591-5.2,1.832-6.987c1.557-11.581,1.348-18.442-3.085-18.143M97.179,26.413c-.879,1.237-2.376,2.4-3.905,1.6a4.275,4.275,0,0,1-1.6-1.543A14.1,14.1,0,0,0,90.455,24.2a8,8,0,0,0,4.3-2.446.4.4,0,0,1,.333-.1.426.426,0,0,1,.22.105c.51.482,1.01.984,1.515,1.477s1.089,1.057.989,1.828a2.64,2.64,0,0,1-.415,1.032c-.067.108-.139.216-.215.324" transform="translate(21.684 0)" fill="#ffa194"/>
                <path id="Trazado_616775" data-name="Trazado 616775" d="M89.763,21.219a6.216,6.216,0,0,1-4.579-2.185,5.445,5.445,0,0,1-1-3.888.858.858,0,0,1,1.7.27,3.747,3.747,0,0,0,.677,2.589,4.56,4.56,0,0,0,3.29,1.5.859.859,0,0,1-.085,1.713" transform="translate(22.375 3.836)" fill="#db5349"/>
                <path id="Trazado_616776" data-name="Trazado 616776" d="M97.095,31.291a.856.856,0,0,1-.851-.757,8.764,8.764,0,0,1,2.018-7.185c3.009-3.377,8.355-4.037,10.445-4.164.085-9.07,3.005-12.84,3.133-13a.859.859,0,0,1,1.346,1.067c-.046.058-2.85,3.79-2.761,12.753a.862.862,0,0,1-.249.614.876.876,0,0,1-.613.253c-.068,0-6.825.027-10.024,3.623a7.132,7.132,0,0,0-1.591,5.836.857.857,0,0,1-.751.955.7.7,0,0,1-.1.006" transform="translate(25.571 1.558)" fill="#db5349"/>
                <path id="Trazado_616777" data-name="Trazado 616777" d="M101.786,20.944a.86.86,0,0,1-.853-.766c-.668-6.122-.519-11.044.447-14.632.751-2.79,1.755-3.752,1.867-3.853l1.147,1.279c-.019.019-3.247,3.36-1.753,17.02a.86.86,0,0,1-.761.947.789.789,0,0,1-.094.005" transform="translate(26.732 0.45)" fill="#db5349"/>
                <path id="Trazado_616778" data-name="Trazado 616778" d="M98.112,19.006a.859.859,0,0,1-.854-.79l-.437-5.4a.859.859,0,0,1,1.712-.139l.437,5.4a.858.858,0,0,1-.786.925l-.071,0" transform="translate(25.746 3.16)" fill="#db5349"/>
                <path id="Trazado_616779" data-name="Trazado 616779" d="M92.268,18.344a.859.859,0,0,1-.551-1.518l1.3-1.084a.859.859,0,0,1,1.1,1.319l-1.3,1.082a.855.855,0,0,1-.549.2" transform="translate(24.308 4.133)" fill="#db5349"/>
                <path id="Trazado_616780" data-name="Trazado 616780" d="M62.666,137.266a.857.857,0,0,1-.854-.8c-1.343-17.953-4.986-29.542-7.806-36.1-3.023-7.03-5.713-9.854-5.74-9.882A.858.858,0,0,1,49.5,89.294c.119.123,2.938,3.08,6.084,10.4,2.871,6.68,6.58,18.462,7.94,36.652a.858.858,0,0,1-.792.92l-.065,0" transform="translate(12.771 23.676)" fill="#1c5482"/>
                <path id="Trazado_616781" data-name="Trazado 616781" d="M41.269,57.541a.859.859,0,0,1-.089-1.713l10.335-1.085a.859.859,0,0,1,.18,1.708L41.36,57.536a.734.734,0,0,1-.091.005" transform="translate(10.746 14.556)" fill="#fffeeb"/>
                <path id="Trazado_616782" data-name="Trazado 616782" d="M118.542,19.526a.859.859,0,0,1-.719-1.327L124.71,7.626a.859.859,0,1,1,1.439.938l-6.887,10.572a.859.859,0,0,1-.72.39" transform="translate(31.295 1.924)" fill="#0dba98"/>
                <path id="Trazado_616783" data-name="Trazado 616783" d="M85.886,33.825a.852.852,0,0,1-.634-.28L77.288,24.8l-4.711,4.289a.859.859,0,0,1-1.213-.057L63.406,20.29a.858.858,0,0,1,1.27-1.156l7.382,8.107,4.709-4.289a.858.858,0,0,1,1.213.057l8.541,9.381a.858.858,0,0,1-.634,1.436" transform="translate(16.802 5.013)" fill="#0dba98"/>
                <path id="Trazado_616784" data-name="Trazado 616784" d="M82.224,10.947a.86.86,0,0,1-.747-.434L77.07,2.757a.858.858,0,1,1,1.493-.848l4.407,7.755a.859.859,0,0,1-.744,1.284" transform="translate(20.465 0.392)" fill="#0dba98"/>
                <path id="Trazado_616785" data-name="Trazado 616785" d="M63.389,43.159a4.3,4.3,0,0,1,1.57.295,5.9,5.9,0,0,1,10.891.392A4.32,4.32,0,1,1,78.189,51.8h-14.8a4.32,4.32,0,0,1,0-8.64" transform="translate(15.708 10.639)" fill="#fff"/>
                <path id="Trazado_616786" data-name="Trazado 616786" d="M35.283,60.648a.859.859,0,0,1-.544-1.523c4.732-3.876,5.6-10.534,5.609-10.6a.858.858,0,0,1,1.7.208c-.035.3-.949,7.4-6.226,11.722a.855.855,0,0,1-.543.194" transform="translate(9.154 12.703)" fill="#70529e"/>
                <path id="Trazado_616787" data-name="Trazado 616787" d="M32.859,55.947a.858.858,0,0,1-.565-1.505,9,9,0,0,0,2.657-4.884.858.858,0,0,1,1.7.246,10.591,10.591,0,0,1-3.227,5.931.854.854,0,0,1-.565.213" transform="translate(8.51 12.984)" fill="#70529e"/>
                <path id="Trazado_616788" data-name="Trazado 616788" d="M30.338,64.153A4.152,4.152,0,1,0,34.047,59.6a4.152,4.152,0,0,0-3.709,4.551" transform="translate(8.062 15.844)" fill="#ffa194"/>
                <path id="Trazado_616789" data-name="Trazado 616789" d="M31.6,63.652a2.544,2.544,0,1,0,2.272-2.79,2.544,2.544,0,0,0-2.272,2.79" transform="translate(8.399 16.181)" fill="#db5349"/>
                <path id="Trazado_616790" data-name="Trazado 616790" d="M66.61,169.694a24.731,24.731,0,0,0-41.448-18.226,206.935,206.935,0,0,0,37.293,31.947,24.607,24.607,0,0,0,4.155-13.721" transform="translate(6.691 38.549)" fill="#0dba98"/>
                <path id="Trazado_616791" data-name="Trazado 616791" d="M101.457,41.333a3.641,3.641,0,1,1-3.642-3.642,3.642,3.642,0,0,1,3.642,3.642" transform="translate(25.043 10.023)" fill="#fffeeb"/>
                <path id="Trazado_616792" data-name="Trazado 616792" d="M103.272,192.151a3.642,3.642,0,1,1-3.642-3.642,3.642,3.642,0,0,1,3.642,3.642" transform="translate(25.526 50.129)" fill="#fffeeb"/>
                <path id="Trazado_616793" data-name="Trazado 616793" d="M62.938,94.358A3.641,3.641,0,1,1,59.3,90.716a3.642,3.642,0,0,1,3.642,3.642" transform="translate(14.8 24.124)" fill="#fffeeb"/>
                <path id="Trazado_616794" data-name="Trazado 616794" d="M68.756,113.682a3.641,3.641,0,1,1-3.642-3.642,3.642,3.642,0,0,1,3.642,3.642" transform="translate(16.347 29.262)" fill="#fffeeb"/>
                <path id="Trazado_616795" data-name="Trazado 616795" d="M47.191,66.466a5.731,5.731,0,0,1-2.536-.617.858.858,0,0,1,.794-1.522c.1.051,2.247,1.124,3.437-.327a.858.858,0,1,1,1.327,1.089,3.759,3.759,0,0,1-3.022,1.376" transform="translate(11.753 16.936)" fill="#db5349"/>
                <path id="Trazado_616796" data-name="Trazado 616796" d="M43.121,60.014a.862.862,0,1,1-.862-.862.862.862,0,0,1,.862.862" transform="translate(11.009 15.73)" fill="#28121f"/>
                <path id="Trazado_616797" data-name="Trazado 616797" d="M49.745,59.333a.862.862,0,1,1-.862-.862.862.862,0,0,1,.862.862" transform="translate(12.77 15.549)" fill="#28121f"/>
                <path id="Trazado_616798" data-name="Trazado 616798" d="M44.431,64.843a2.544,2.544,0,1,1-2.024-2.975,2.543,2.543,0,0,1,2.024,2.975" transform="translate(10.474 16.44)" fill="#f4756e"/>
                <path id="Trazado_616799" data-name="Trazado 616799" d="M50.789,60.357a2.544,2.544,0,0,0,.534,4.835,24.337,24.337,0,0,0-.534-4.835" transform="translate(13.098 16.05)" fill="#f4756e"/>
                <path id="Trazado_616800" data-name="Trazado 616800" d="M51.225,66.372a5.857,5.857,0,0,1-3.24-.977.859.859,0,0,1,.952-1.429,4.128,4.128,0,1,0-1.843-3.4.858.858,0,1,1-1.717.019,5.849,5.849,0,1,1,5.847,5.785" transform="translate(12.067 14.541)" fill="#fffeeb"/>
                <path id="Trazado_616801" data-name="Trazado 616801" d="M42.719,67.265a5.843,5.843,0,1,1,.622-.032,6.025,6.025,0,0,1-.622.032m.019-9.974a4.273,4.273,0,0,0-.439.023,4.123,4.123,0,1,0,.439-.023" transform="translate(9.808 14.778)" fill="#fffeeb"/>
                <path id="Trazado_616802" data-name="Trazado 616802" d="M47.24,65.351a.858.858,0,0,1-.506-1.552l.648-.472-.934-.046a.862.862,0,0,1-.786-.634,10.6,10.6,0,0,1-.109-4.319.859.859,0,0,1,1.686.324A8.967,8.967,0,0,0,47.2,61.6l1.076.054a1.429,1.429,0,0,1,.77,2.582l-1.306.951a.85.85,0,0,1-.5.165" transform="translate(12.068 15.325)" fill="#db5349"/>
                <path id="Trazado_616803" data-name="Trazado 616803" d="M91.415,38.505a.859.859,0,0,1-.176-1.7l29.01-6.13a.858.858,0,1,1,.354,1.68l-29.01,6.13a.855.855,0,0,1-.178.019" transform="translate(24.082 8.153)" fill="#1c5482"/>
              </g>
            </g>
          </g>
        </g>
        <path id="Trazado_616921" data-name="Trazado 616921" d="M1051.787,61.093v46.56h46.559a46.559,46.559,0,0,0-46.559-46.56" transform="translate(-611.764 -31.557)" fill="#ffb074"/>
        <path id="Trazado_616922" data-name="Trazado 616922" d="M957.865,132.1a43.5,43.5,0,1,1-43.5-43.5v43.5Z" transform="translate(-483.281 -49.155)" fill="#a7fcff"/>
        <path id="Trazado_616923" data-name="Trazado 616923" d="M914.364,132.1V88.6a43.5,43.5,0,0,0-43.5,43.5Z" transform="translate(-483.282 -49.155)" fill="#3656b3"/>
      </g>
      <path id="Trazado_616804" data-name="Trazado 616804" d="M9.878,269.305h96.235a9.878,9.878,0,0,1,9.878,9.878v21.083a9.878,9.878,0,0,1-9.878,9.878H95.132c-.831.931-2.087,3.246.532,7.3,0,0-6.516.178-10.949-7.3H9.878A9.878,9.878,0,0,1,0,300.267V279.183a9.879,9.879,0,0,1,9.878-9.878" transform="translate(896.696 -16.831)" fill="#d2e1f1"/>
      <path id="Trazado_616805" data-name="Trazado 616805" d="M164.4,314.726a6.712,6.712,0,1,1-6.712-6.712,6.712,6.712,0,0,1,6.712,6.712" transform="translate(797.004 -42.392)" fill="#ffb850"/>
      <path id="Trazado_616806" data-name="Trazado 616806" d="M82.145,314.726a6.712,6.712,0,1,1-6.712-6.712,6.712,6.712,0,0,1,6.712,6.712" transform="translate(851.318 -42.392)" fill="#3656b3"/>
      <path id="Trazado_616807" data-name="Trazado 616807" d="M246.653,314.726a6.712,6.712,0,1,1-6.712-6.712,6.712,6.712,0,0,1,6.712,6.712" transform="translate(742.691 -42.392)" fill="#29c7cc"/>
      <path id="Trazado_611340" data-name="Trazado 611340" d="M588.367,175.248a.939.939,0,0,0-.765-1.052c-1.645-.567-3.285-1.155-4.894-1.815a1.948,1.948,0,0,1-.921-.962c-.674-1.563-1.287-3.154-1.875-4.752a1.547,1.547,0,0,1,0-1.061c.794-1.767,1.667-3.5,2.457-5.267a1.108,1.108,0,0,0-.131-.982c-1.326-1.417-2.721-2.768-4.064-4.168a.8.8,0,0,0-1.1-.179c-1.676.831-3.365,1.642-5.073,2.405a1.7,1.7,0,0,1-1.155.053q-2.45-.882-4.851-1.9a1.8,1.8,0,0,1-.915-.845c-.663-1.643-1.259-3.314-1.832-4.991-.184-.538-.4-.8-1.03-.783-1.873.047-3.75.042-5.625,0a.936.936,0,0,0-1.047.771c-.564,1.645-1.2,3.264-1.761,4.912a1.45,1.45,0,0,1-1.05,1c-1.548.537-3.077,1.144-4.566,1.826a1.465,1.465,0,0,1-1.449-.013c-1.643-.827-3.317-1.589-4.962-2.412a.859.859,0,0,0-1.188.207c-1.3,1.353-2.619,2.686-3.979,3.976a.908.908,0,0,0-.174,1.274c.816,1.649,1.615,3.307,2.352,4.991a1.7,1.7,0,0,1-.031,1.22q-1.027,2.394-2.193,4.727a2.009,2.009,0,0,1-.947.938c-1.748.665-3.525,1.258-5.3,1.839a.921.921,0,0,0-.78,1.036c.042,1.874.036,3.75,0,5.626a.852.852,0,0,0,.7.979c1.812.585,3.621,1.188,5.4,1.865a1.985,1.985,0,0,1,.926.966c.718,1.509,1.31,3.079,2.06,4.569a1.616,1.616,0,0,1,.036,1.64c-.777,1.557-1.486,3.148-2.259,4.707a.92.92,0,0,0,.2,1.272q2.035,1.939,3.977,3.978a.908.908,0,0,0,1.268.182c1.618-.8,3.266-1.546,4.884-2.348a1.437,1.437,0,0,1,1.449.037c1.555.768,3.176,1.4,4.747,2.144a1.692,1.692,0,0,1,.8.837c.667,1.783,1.284,3.585,1.88,5.394a.873.873,0,0,0,.988.708c1.875-.031,3.751-.037,5.625,0a.9.9,0,0,0,1.029-.768c.571-1.782,1.182-3.552,1.848-5.3a1.834,1.834,0,0,1,.885-.891c1.6-.749,3.23-1.45,4.87-2.113a1.625,1.625,0,0,1,1.146-.022c1.915.85,3.8,1.766,5.77,2.694,1.541-1.562,3.081-3.09,4.567-4.669a1.123,1.123,0,0,0,.089-1c-.763-1.709-1.608-3.381-2.379-5.086a1.615,1.615,0,0,1-.076-1.081c.58-1.67,1.2-3.329,1.868-4.965a1.787,1.787,0,0,1,.877-.9c1.642-.663,3.313-1.265,4.987-1.847a.877.877,0,0,0,.69-1c-.034-1.874-.038-3.751,0-5.624m-28.979,13.767a10.962,10.962,0,1,1,10.975-10.949,10.926,10.926,0,0,1-10.975,10.949" transform="translate(409.167 181.065)" fill="#3656b3"/>
      <path id="Trazado_616924" data-name="Trazado 616924" d="M569.3,166.728a.635.635,0,0,0-.517-.711c-1.112-.383-2.221-.781-3.308-1.227a1.317,1.317,0,0,1-.623-.65c-.456-1.057-.87-2.132-1.268-3.213a1.045,1.045,0,0,1,0-.717c.537-1.194,1.127-2.365,1.661-3.561a.749.749,0,0,0-.089-.664c-.9-.958-1.84-1.871-2.747-2.818a.54.54,0,0,0-.746-.121c-1.133.562-2.275,1.11-3.429,1.626a1.147,1.147,0,0,1-.781.036q-1.656-.6-3.28-1.283a1.217,1.217,0,0,1-.619-.571c-.448-1.111-.851-2.24-1.238-3.374-.125-.364-.271-.54-.7-.53-1.267.032-2.535.029-3.8,0a.633.633,0,0,0-.707.521c-.381,1.112-.812,2.207-1.191,3.321a.98.98,0,0,1-.71.679c-1.046.363-2.08.773-3.087,1.234a.99.99,0,0,1-.98-.009c-1.11-.559-2.243-1.074-3.355-1.631a.581.581,0,0,0-.8.14c-.877.915-1.771,1.816-2.69,2.688a.614.614,0,0,0-.117.861c.552,1.115,1.092,2.236,1.59,3.374a1.15,1.15,0,0,1-.021.825q-.694,1.618-1.483,3.2a1.358,1.358,0,0,1-.64.634c-1.182.45-2.383.851-3.586,1.243a.623.623,0,0,0-.527.7c.029,1.267.024,2.535,0,3.8a.576.576,0,0,0,.473.662c1.225.4,2.448.8,3.651,1.261a1.342,1.342,0,0,1,.626.653c.485,1.02.885,2.081,1.393,3.089a1.092,1.092,0,0,1,.024,1.109c-.526,1.053-1,2.128-1.527,3.182a.622.622,0,0,0,.136.86q1.376,1.311,2.688,2.689a.614.614,0,0,0,.857.123c1.094-.542,2.208-1.045,3.3-1.587a.971.971,0,0,1,.98.025c1.051.519,2.147.948,3.209,1.449a1.144,1.144,0,0,1,.54.566c.451,1.205.868,2.424,1.271,3.647a.59.59,0,0,0,.668.479c1.268-.021,2.536-.025,3.8,0a.61.61,0,0,0,.7-.519c.386-1.2.8-2.4,1.25-3.583a1.24,1.24,0,0,1,.6-.6c1.084-.506,2.184-.98,3.292-1.429a1.1,1.1,0,0,1,.775-.015c1.295.575,2.57,1.194,3.9,1.821,1.042-1.056,2.083-2.089,3.087-3.156a.759.759,0,0,0,.06-.674c-.516-1.156-1.087-2.286-1.608-3.438a1.092,1.092,0,0,1-.051-.731c.392-1.129.809-2.251,1.263-3.356a1.208,1.208,0,0,1,.593-.605c1.11-.448,2.239-.855,3.372-1.248a.593.593,0,0,0,.466-.674c-.023-1.267-.026-2.536,0-3.8m-19.591,9.307a7.411,7.411,0,1,1,7.42-7.4,7.387,7.387,0,0,1-7.42,7.4" transform="translate(735.746 171.062)" fill="#315884"/>
    </g>
  </g>
</svg>
