<svg xmlns="http://www.w3.org/2000/svg" xmlns:xlink="http://www.w3.org/1999/xlink" width="1240" height="506" viewBox="0 0 1240 506">
  <defs>
    <clipPath id="clip-path">
      <rect id="Rectángulo_378881" data-name="Rectángulo 378881" width="438.451" height="317.568" fill="none"/>
    </clipPath>
    <clipPath id="clip-path-3">
      <path id="Trazado_615686" data-name="Trazado 615686" d="M212.113,108.126c-1.379-12.213-6.837-35.762-28.435-36.851-19.562-.984-34.48,21.651-42.2,36.723,6.994,2.858,13.837,3.233,23.676,3.112,4.144-.053,8.308-.018,12.392.016,2.6.02,5.16.043,7.66.043,10.906,0,20.639-.413,26.911-3.043" transform="translate(-141.475 -71.244)" fill="none"/>
    </clipPath>
    <clipPath id="clip-path-5">
      <rect id="Rectángulo_378879" data-name="Rectángulo 378879" width="64.229" height="86.841" fill="none"/>
    </clipPath>
    <clipPath id="clip-path-6">
      <path id="Trazado_615691" data-name="Trazado 615691" d="M137.315,156.419a8.345,8.345,0,0,0,8.345,8.345h7.44a3.849,3.849,0,0,0,3.792,4.045h25.077a3.8,3.8,0,0,0,3.8-3.8c-.008-.243,7.43-.243,7.43-.243a8.345,8.345,0,0,0,8.347-8.345V90.312a8.346,8.346,0,0,0-8.347-8.345H145.66a8.346,8.346,0,0,0-8.345,8.345Z" transform="translate(-137.315 -81.967)" fill="none"/>
    </clipPath>
    <linearGradient id="linear-gradient" x1="5.328" y1="-0.746" x2="5.296" y2="-0.746" gradientUnits="objectBoundingBox">
      <stop offset="0" stop-color="#939598"/>
      <stop offset="1" stop-color="#231f20"/>
    </linearGradient>
    <clipPath id="clip-path-7">
      <rect id="Rectángulo_378876" data-name="Rectángulo 378876" width="901.899" height="429.004" fill="none"/>
    </clipPath>
    <clipPath id="clip-path-9">
      <rect id="Rectángulo_378861" data-name="Rectángulo 378861" width="195.688" height="149.216" fill="none"/>
    </clipPath>
    <clipPath id="clip-path-10">
      <rect id="Rectángulo_378862" data-name="Rectángulo 378862" width="195.687" height="149.214" fill="none"/>
    </clipPath>
    <clipPath id="clip-path-11">
      <rect id="Rectángulo_378863" data-name="Rectángulo 378863" width="195.688" height="149.214" fill="none"/>
    </clipPath>
    <clipPath id="clip-path-12">
      <rect id="Rectángulo_378864" data-name="Rectángulo 378864" width="195.685" height="149.216" fill="none"/>
    </clipPath>
    <clipPath id="clip-path-17">
      <rect id="Rectángulo_378870" data-name="Rectángulo 378870" width="272.176" height="109.292" fill="none"/>
    </clipPath>
    <clipPath id="clip-path-18">
      <rect id="Rectángulo_378871" data-name="Rectángulo 378871" width="21.189" height="21.19" fill="none"/>
    </clipPath>
    <clipPath id="clip-path-19">
      <rect id="Rectángulo_378873" data-name="Rectángulo 378873" width="272.177" height="109.292" fill="none"/>
    </clipPath>
  </defs>
  <g id="img6" transform="translate(-180 -2868)">
    <path id="Trazado_615640" data-name="Trazado 615640" d="M0,0H1240V506H0Z" transform="translate(180 2868)" fill="#f3f9ff"/>
    <g id="Grupo_1074928" data-name="Grupo 1074928" transform="translate(1420 3374) rotate(180)">
      <g id="Grupo_1074939" data-name="Grupo 1074939" transform="translate(0)" clip-path="url(#clip-path)">
        <g id="Grupo_1074929" data-name="Grupo 1074929">
          <g id="Grupo_1074928-2" data-name="Grupo 1074928" clip-path="url(#clip-path)">
            <path id="Trazado_615666" data-name="Trazado 615666" d="M76.924,1.18S186.18,0,219.166,0c98.646,0,143.759,60.166,127.318,136.823-18.42,85.878-95.608,81.246-95.608,81.246s-16.981,80.706-99,90.994C81.343,317.91,0,300.806,0,161.59,0,107.7,2.714,75.817,4.121,45.734S38.565-1.519,76.924,1.18" transform="translate(88.654 6.578)" fill="#cbf4e1"/>
            <path id="Trazado_615667" data-name="Trazado 615667" d="M125.521,136.559H263.779l-9.752,41.114H136.151Z" transform="translate(-79.437 -136.559)" fill="#28121f"/>
            <path id="Trazado_615668" data-name="Trazado 615668" d="M69.292,164.478c20.163-38.7,41.582-81.1,83.012-84.419,64.274-5.152,77.517,41.487,90.747,87.893l-44.005,17.2c-9.889-22.242-19.011-40.391-37.452-39.173-21.321,1.409-37.486,24.026-50.418,38.942Z" transform="translate(55.123 -28.867)" fill="#fe9b4f"/>
            <path id="Trazado_615669" data-name="Trazado 615669" d="M66.463,74.258c.842,2.077,5.209,6.011,7.189,7.063,8.966,4.772,21.366,6.739,27.9,8.26,13.831,3.217,14.855-6.053,15-6.964L58.95,54.6Z" transform="translate(202.553 116.786)" fill="#ffa194"/>
            <path id="Trazado_615670" data-name="Trazado 615670" d="M50.812,58.531A3.981,3.981,0,0,1,55.5,55.278L121.42,68.172l5.166,4.666a.5.5,0,0,1-.17.852l-6.533,2.3L53.974,63.094a3.983,3.983,0,0,1-3.162-4.563" transform="translate(208.943 129.828)"/>
            <path id="Trazado_615671" data-name="Trazado 615671" d="M101.657,55.606l2,8.49c3.709,1.211,7.905,3.984,8.258,10.347,0,0,7.616,6.565,4.243,14.307,0,0,6.3,9.189,2.531,16.718,0,0,9.458,7.715,5.608,13.284-4.012,5.8-12.885,2.648-25.232-11.074l-29.911-5.885-8.4-22.41-3.108-6.575Z" transform="translate(196.519 83.478)" fill="#ffa194"/>
            <path id="Trazado_615672" data-name="Trazado 615672" d="M61.51,62.917c8.179,0,15.26,5.01,20.475,14.493a57.617,57.617,0,0,1,5.308,13.823l9.63,9.632a1.248,1.248,0,1,1-1.767,1.763l-9.885-9.885a1.239,1.239,0,0,1-.338-.63,55.618,55.618,0,0,0-5.162-13.547c-4.816-8.729-10.958-13.151-18.26-13.151a1.249,1.249,0,1,1,0-2.5" transform="translate(219.169 87.198)" fill="#db5349"/>
            <path id="Trazado_615673" data-name="Trazado 615673" d="M62.76,71.176c8.017,0,11.817,4.132,11.974,4.308a1.248,1.248,0,0,1-1.854,1.672c-.144-.154-3.3-3.482-10.12-3.482a1.249,1.249,0,0,1,0-2.5" transform="translate(238.872 95.91)" fill="#db5349"/>
            <path id="Trazado_615674" data-name="Trazado 615674" d="M70.039,78.243a21.306,21.306,0,0,1,9.584,2.022,1.248,1.248,0,0,1-1.19,2.194c-.069-.036-5.387-2.812-13.329-1.219a1.249,1.249,0,1,1-.492-2.45,27.539,27.539,0,0,1,5.427-.549" transform="translate(229.409 76.559)" fill="#db5349"/>
            <path id="Trazado_615675" data-name="Trazado 615675" d="M76.639,80.638a21.412,21.412,0,0,1,4.405.468,1.249,1.249,0,0,1-.565,2.433c-1.674-.385-6.535-.976-8.877.889a4.039,4.039,0,0,0-1.419,3.391,1.249,1.249,0,0,1-2.5,0,6.465,6.465,0,0,1,2.367-5.349,10.686,10.686,0,0,1,6.588-1.832" transform="translate(219.418 65.255)" fill="#db5349"/>
            <path id="Trazado_615676" data-name="Trazado 615676" d="M61.046,54.981a1.254,1.254,0,0,1,.783.275c4.593,3.7,8.205,3.253,8.359,3.233a1.249,1.249,0,0,1,.37,2.47c-.192.03-4.786.68-10.3-3.757a1.248,1.248,0,0,1,.783-2.221" transform="translate(245.775 145.253)" fill="#db5349"/>
            <path id="Trazado_615677" data-name="Trazado 615677" d="M122.694,158.265l41.883,20.445c6.776-7.816,14.44-17.744,23.269-25.629.061-.528.117-1.059.166-1.6,1.769-19.813-4.1-41.847-4.1-41.847V79.782c-27.82,13.535-44.93,47.214-61.221,78.483" transform="translate(1.722 -22.655)" fill="#b21f1f"/>
            <path id="Trazado_615678" data-name="Trazado 615678" d="M176.224,184.772c28.016,27.872,34.944,30.121,57.206,29.848,19.141-.233,38.794,1.34,48.343-3.628,2.952-1.537,22.465-15.706,24.89-42.894,1.609-18.017-3.725-38.053-3.725-38.053V82.453H193.569c-20.1-16.123-45.282-14.171-57.777,1.472-25.933,32.466,22.827,83.332,40.432,100.847" transform="translate(-128.346 -41.339)" fill="#fe9b4f"/>
            <path id="Trazado_615679" data-name="Trazado 615679" d="M185.79,73.605c.538,0,1.081.014,1.616.04,12,.605,21.68,6.857,27.978,18.082a65.065,65.065,0,0,1,7.11,22.1,1.249,1.249,0,0,1-2.47.375c-.864-5.693-2.749-14-6.818-21.25C207.349,82.513,198.382,76.7,187.28,76.14c-.494-.024-.994-.036-1.488-.036-9.827,0-19.386,4.851-28.411,14.42-6.075,6.44-11.8,14.873-17.025,25.064a1.249,1.249,0,1,1-2.223-1.14c5.328-10.4,11.2-19.028,17.432-25.639,9.515-10.088,19.683-15.2,30.225-15.2" transform="translate(-63.418 52.292)" fill="#b21f1f"/>
            <path id="Trazado_615680" data-name="Trazado 615680" d="M165.151,111.109c18.26-.223,36.988,1.2,46.963-2.984-1.379-12.215-6.839-35.762-28.435-36.851-19.564-.984-34.48,21.651-42.2,36.723,6.992,2.861,13.837,3.233,23.676,3.112" transform="translate(-60.069 62.172)" fill="#fffeeb"/>
            <path id="Trazado_615681" data-name="Trazado 615681" d="M72.515,93.646a5.3,5.3,0,1,1,5.3,5.3,5.3,5.3,0,0,1-5.3-5.3" transform="translate(208.538 39.77)" fill="#fffeeb"/>
            <path id="Trazado_615682" data-name="Trazado 615682" d="M174.743,125.3a5.3,5.3,0,1,1,5.3,5.3,5.3,5.3,0,0,1-5.3-5.3" transform="translate(-100.643 -55.953)" fill="#fffeeb"/>
            <path id="Trazado_615683" data-name="Trazado 615683" d="M204.09,132.97c-7.45,9.327-8.733,20.173-6.365,31.312,1.085.1,2.182.154,3.294.154a35.985,35.985,0,0,0,35.091-43.924c-12.669-1.306-24.589,3.154-32.02,12.458" transform="translate(-196.644 -90.385)" fill="#0dba98"/>
            <path id="Trazado_615684" data-name="Trazado 615684" d="M124.313,145.078a35.96,35.96,0,0,0,30.848-17.455c-11.6-6.709-26.548-10.031-46.331-8.446a60.293,60.293,0,0,0-17.6,4.085,35.984,35.984,0,0,0,33.081,21.815" transform="translate(98.597 -67.986)" fill="#0dba98"/>
          </g>
        </g>
        <g id="Grupo_1074931" data-name="Grupo 1074931" transform="translate(81.406 133.415)">
          <g id="Grupo_1074930" data-name="Grupo 1074930" clip-path="url(#clip-path-3)">
            <path id="Trazado_615685" data-name="Trazado 615685" d="M140.892,79.041h71.572a1.249,1.249,0,0,1,0,2.5H140.892a1.249,1.249,0,1,1,0-2.5" transform="translate(-139.366 -57.399)" fill="#0dba98"/>
          </g>
        </g>
        <g id="Grupo_1074938" data-name="Grupo 1074938">
          <g id="Grupo_1074937" data-name="Grupo 1074937" clip-path="url(#clip-path)">
            <path id="Trazado_615687" data-name="Trazado 615687" d="M154.1,83.358c11.865-.146,23.929.4,33.658-.342C184.442,77.8,179,72,170.98,71.322c-10.1-.854-17.463,5.391-22.933,12.023,1.9.043,3.9.038,6.053.012" transform="translate(-49.018 89.924)" fill="#ffa194"/>
            <path id="Trazado_615688" data-name="Trazado 615688" d="M152.877,93.212a1.248,1.248,0,0,1,1.249,1.249v46a88.733,88.733,0,0,1,2.52,29.411,53.706,53.706,0,0,1-2.1,11.5,1.248,1.248,0,1,1-2.365-.8,52.849,52.849,0,0,0,1.982-11.017,86.239,86.239,0,0,0-2.5-28.625c-.038-.308-.038-46.459-.038-46.459a1.248,1.248,0,0,1,1.249-1.249" transform="translate(-25.466 -53.347)" fill="#b21f1f"/>
            <path id="Trazado_615689" data-name="Trazado 615689" d="M193.2,83.965h-47.54a8.346,8.346,0,0,0-8.345,8.345v66.108a8.346,8.346,0,0,0,8.345,8.345H193.2a8.345,8.345,0,0,0,8.345-8.345V92.31a8.345,8.345,0,0,0-8.345-8.345" transform="translate(-41.081 -19.175)" fill="#70529e"/>
            <path id="Trazado_615690" data-name="Trazado 615690" d="M173.984,81.967H148.908a3.8,3.8,0,0,0,0,7.6h25.077a3.8,3.8,0,1,0,0-7.6" transform="translate(-33.096 62.063)"/>
            <g id="Grupo_1074936" data-name="Grupo 1074936" transform="translate(96.237 64.79)" opacity="0.5" style="mix-blend-mode: soft-light;isolation: isolate">
              <g id="Grupo_1074935" data-name="Grupo 1074935" transform="translate(0)">
                <g id="Grupo_1074934" data-name="Grupo 1074934" transform="translate(0)" clip-path="url(#clip-path-5)">
                  <g id="Grupo_1074933" data-name="Grupo 1074933" transform="translate(-0.002 0)">
                    <g id="Grupo_1074932" data-name="Grupo 1074932" clip-path="url(#clip-path-6)">
                      <rect id="Rectángulo_378878" data-name="Rectángulo 378878" width="64.231" height="86.842" transform="translate(0 0)" fill="url(#linear-gradient)"/>
                    </g>
                  </g>
                </g>
              </g>
            </g>
            <path id="Trazado_615692" data-name="Trazado 615692" d="M224.022,133.107c-1.452,2.33-4.106,3.583-8.75,1.3,5.363,3.073,7.33,6.77,5.334,10.519-1.98,3.723-6.98,4.029-12.284.057,2.225,3,3.636,6.466,1.271,9.033-5.16,5.6-11.991,1.229-33.559-10.027l-.055,15.187s-9-10.027-13.009-21.617L144.966,125.1l26.988-38.175,16.685,12.055s9.567,1.741,17.183,3.35c11.147,2.358,13.135,5.5,11.956,8.462s-4.719,3.259-14.819.753c0,0,10.978,5.944,14.967,9.215,7.071,5.806,7.626,9.885,6.1,12.343" transform="translate(-79.743 -17.587)" fill="#ffa194"/>
            <path id="Trazado_615693" data-name="Trazado 615693" d="M153.7,93.322a1.245,1.245,0,0,1,.591.15l22.615,12.2a1.249,1.249,0,0,1-1.184,2.2l-22.617-12.2a1.249,1.249,0,0,1,.6-2.348" transform="translate(-47.737 20.625)" fill="#db5349"/>
            <path id="Trazado_615694" data-name="Trazado 615694" d="M149.8,98.32a1.258,1.258,0,0,1,.593.15L173,110.669a1.249,1.249,0,0,1-1.186,2.2l-22.615-12.2a1.248,1.248,0,0,1,.593-2.348" transform="translate(-35.928 5.509)" fill="#db5349"/>
            <path id="Trazado_615695" data-name="Trazado 615695" d="M154.769,109.207a1.25,1.25,0,0,1,.532.119l9.144,4.312a1.249,1.249,0,0,1-1.067,2.259l-9.144-4.312a1.25,1.25,0,0,1,.534-2.379" transform="translate(-37.498 -19.533)" fill="#db5349"/>
            <path id="Trazado_615696" data-name="Trazado 615696" d="M172.77,89.962l-1.749-1.026a1.329,1.329,0,0,0-1.935,1.561l3.591,10.966Z" transform="translate(-76.481 36.439)" fill="#db5349"/>
            <path id="Trazado_615697" data-name="Trazado 615697" d="M215.308,103.141a1.249,1.249,0,0,1,.9.387L243.2,131.756a1.246,1.246,0,0,1,.117,1.583l-26.986,38.175a1.247,1.247,0,0,1-1.731.306c-8.407-5.816-43.112-22.036-43.462-22.2a1.249,1.249,0,0,1,1.057-2.263c1.383.646,32.836,15.347,42.8,21.726l25.692-36.345-26.275-27.486a1.249,1.249,0,0,1,.9-2.111" transform="translate(-150.085 -63.276)" fill="#b21f1f"/>
            <path id="Trazado_615698" data-name="Trazado 615698" d="M190.368,64.681a21.7,21.7,0,1,0-21.7,21.7,21.7,21.7,0,0,0,21.7-21.7" transform="translate(-49.443 144.176)" fill="#28121f"/>
            <path id="Trazado_615699" data-name="Trazado 615699" d="M183.962,65.455c0-12.713-6.061-22.811-18.777-22.811s-23.018,8.2-23.018,20.914,10.375,21.457,10.375,21.457c19.491,3.19,31.419-5.063,31.419-19.56" transform="translate(-33.321 145.541)" fill="#28121f"/>
            <path id="Trazado_615700" data-name="Trazado 615700" d="M170.609,41.981a1.249,1.249,0,0,1,1.15,1.737,17.276,17.276,0,0,1-10.485,9.867c-4.84,1.725-11.183,1.964-18.85.707a1.248,1.248,0,1,1,.4-2.464c14.325,2.346,23.038-.626,26.629-9.086a1.249,1.249,0,0,1,1.15-.761" transform="translate(-19.617 177.495)" fill="#28121f"/>
            <path id="Trazado_615701" data-name="Trazado 615701" d="M168.323,43.694V55.355c16.6,0,18.394,6.95,17.679,20.894-.3,5.913-1.164,14.082-9.169,20.1A19.633,19.633,0,0,1,146.4,87.019c-.053-.156-.105-.314-.154-.474-2.571-8.11-3.4-15.531,1.535-20.68V43.694Z" transform="translate(-39.584 128.787)" fill="#ffa194"/>
            <path id="Trazado_615702" data-name="Trazado 615702" d="M153.269,72.406a18.744,18.744,0,0,1,9.2-6.557v8.758l-8,.117a1.46,1.46,0,0,1-1.2-2.318" transform="translate(-33.731 109.538)" fill="#db5349"/>
            <path id="Trazado_615703" data-name="Trazado 615703" d="M184.5,79.54c-2.144,1.269-4.381,3.263-7.533,3.608-10.5,1.152-23.451-.777-26.344-14.465-1.565-7.4-.66-19.805,7.282-25.757,11.406,0,12.264,12.062,12.264,12.062C179.338,58.318,184.98,70.4,184.5,79.54" transform="translate(-49.71 147.239)" fill="#28121f"/>
            <path id="Trazado_615704" data-name="Trazado 615704" d="M154.292,61.57a6.039,6.039,0,1,1,7.377,4.3,6.041,6.041,0,0,1-7.377-4.3" transform="translate(-39.671 142.193)" fill="#ffa194"/>
            <path id="Trazado_615705" data-name="Trazado 615705" d="M155.37,59.792a3.7,3.7,0,1,1,4.523,2.638,3.7,3.7,0,0,1-4.523-2.638" transform="translate(-38.49 143.376)" fill="#db5349"/>
            <path id="Trazado_615706" data-name="Trazado 615706" d="M186.811,47.179A15.916,15.916,0,1,0,170.9,63.1a15.916,15.916,0,0,0,15.916-15.916" transform="translate(-62.104 191.183)" fill="#28121f"/>
            <path id="Trazado_615707" data-name="Trazado 615707" d="M172.683,30.646a17.165,17.165,0,1,1-17.165,17.165,17.185,17.185,0,0,1,17.165-17.165m0,31.832a14.667,14.667,0,1,0-14.667-14.667,14.683,14.683,0,0,0,14.667,14.667" transform="translate(-66.233 190.551)" fill="#28121f"/>
            <path id="Trazado_615708" data-name="Trazado 615708" d="M155,52.026a1.248,1.248,0,0,1,1.059,1.907,3.915,3.915,0,0,1-6.523-.032l2.14-1.29a1.4,1.4,0,0,0,1.128.557,1.415,1.415,0,0,0,1.134-.551A1.252,1.252,0,0,1,155,52.026" transform="translate(-20.527 156.579)" fill="#28121f"/>
            <path id="Trazado_615709" data-name="Trazado 615709" d="M147.225,52.6a1.246,1.246,0,0,1,.864.348l2.535,2.429a1.813,1.813,0,0,1-1.255,3.124h-1.492c-.324,1.292-.711,3.8.792,4.917a1.248,1.248,0,0,1-1.492,2c-3.612-2.692-1.486-8.375-1.393-8.616a1.247,1.247,0,0,1,1.166-.8h.719L146.36,54.75a1.249,1.249,0,0,1,.864-2.15" transform="translate(-6.434 145.416)" fill="#db5349"/>
            <path id="Trazado_615710" data-name="Trazado 615710" d="M144.985,55.967a1.254,1.254,0,1,1,1.253,1.253,1.254,1.254,0,0,1-1.253-1.253" transform="translate(-2.554 149.587)" fill="#28121f"/>
            <path id="Trazado_615711" data-name="Trazado 615711" d="M150.62,55.967a1.254,1.254,0,1,1,1.253,1.253,1.254,1.254,0,0,1-1.253-1.253" transform="translate(-19.597 149.587)" fill="#28121f"/>
            <path id="Trazado_615712" data-name="Trazado 615712" d="M146.272,59.468c.182.012,3.549.5,3.549.5a1.249,1.249,0,0,1-.36,2.472l-3.367-.492a1.248,1.248,0,0,1,.178-2.484" transform="translate(-6.027 134.721)" fill="#db5349"/>
            <path id="Trazado_615713" data-name="Trazado 615713" d="M145.152,52.59l4.4.02a1.249,1.249,0,0,1-.006,2.5l-4.4-.02a1.249,1.249,0,0,1,.006-2.5" transform="translate(-3.665 155.995)" fill="#28121f"/>
            <path id="Trazado_615714" data-name="Trazado 615714" d="M149.918,59.621a3.7,3.7,0,1,1,2.946,4.328,3.7,3.7,0,0,1-2.946-4.328" transform="translate(-22.173 138.951)" fill="#f4756e"/>
            <path id="Trazado_615715" data-name="Trazado 615715" d="M153.89,45.438a1.245,1.245,0,0,1,.881.362c4.51,4.478,4.561,12.556,4.561,12.9a1.248,1.248,0,1,1-2.5,0c0-.075-.059-7.389-3.826-11.128a1.249,1.249,0,0,1,.881-2.136" transform="translate(-29.892 165.633)" fill="#70529e"/>
            <path id="Trazado_615716" data-name="Trazado 615716" d="M157.3,46.084a1.247,1.247,0,0,1,1.051.573c1.668,2.589,2.2,6.885,2.227,7.067a1.249,1.249,0,0,1-2.48.3c0-.038-.492-3.911-1.846-6.017a1.248,1.248,0,0,1,1.049-1.925" transform="translate(-38.041 169.149)" fill="#70529e"/>
            <path id="Trazado_615717" data-name="Trazado 615717" d="M113.928,79.051a1.25,1.25,0,0,1,.455,2.413l-44,17.2a1.249,1.249,0,1,1-.909-2.326l44-17.2a1.235,1.235,0,0,1,.453-.087" transform="translate(184.246 58.785)" fill="#b21f1f"/>
          </g>
        </g>
      </g>
    </g>
    <g id="Grupo_1074927" data-name="Grupo 1074927" transform="translate(328.101 2906.498)">
      <g id="Grupo_1074926" data-name="Grupo 1074926" clip-path="url(#clip-path-7)">
        <line id="Línea_3191" data-name="Línea 3191" y1="103.993" x2="265.5" transform="translate(299.743 205)" fill="none" stroke="#b9daff" stroke-miterlimit="10" stroke-width="3"/>
        <line id="Línea_3192" data-name="Línea 3192" y1="103.993" x2="197.29" transform="translate(597.577 205)" fill="none" stroke="#b9daff" stroke-miterlimit="10" stroke-width="3"/>
        <path id="Trazado_615665" data-name="Trazado 615665" d="M265.5,103.993,0,0" transform="translate(332.078 205)" fill="none" stroke="#b9daff" stroke-width="3"/>
        <line id="Línea_3194" data-name="Línea 3194" x1="197.29" y1="103.993" transform="translate(102.453 205)" fill="none" stroke="#b9daff" stroke-miterlimit="10" stroke-width="3"/>
        <g id="Grupo_1074905" data-name="Grupo 1074905">
          <g id="Grupo_1074904" data-name="Grupo 1074904" clip-path="url(#clip-path-7)">
            <path id="Trazado_615641" data-name="Trazado 615641" d="M197.609,0H10.515A9.429,9.429,0,0,0,1.086,9.429V122.968a9.431,9.431,0,0,0,9.429,9.432H85.461l3.114,5.39,15.487,26.828,15.49-26.828,3.111-5.39h74.946a9.431,9.431,0,0,0,9.429-9.432V9.429A9.429,9.429,0,0,0,197.609,0" transform="translate(1.739)" fill="#b9daff"/>
            <g id="Grupo_1074894" data-name="Grupo 1074894" transform="translate(7.956 5.135)" style="mix-blend-mode: multiply;isolation: isolate">
              <g id="Grupo_1074893" data-name="Grupo 1074893">
                <g id="Grupo_1074892" data-name="Grupo 1074892" clip-path="url(#clip-path-9)">
                  <path id="Trazado_615642" data-name="Trazado 615642" d="M85.241,123.056H6.957a3.653,3.653,0,0,1-3.649-3.647V5.872A3.656,3.656,0,0,1,6.957,2.223H194.051A3.653,3.653,0,0,1,197.7,5.872V119.409a3.651,3.651,0,0,1-3.644,3.647H115.765L100.5,149.488Z" transform="translate(-2.66 -1.575)" fill="none" stroke="#b9daff" stroke-miterlimit="10" stroke-width="0.5"/>
                </g>
              </g>
            </g>
            <path id="Trazado_615643" data-name="Trazado 615643" d="M284.4,0H97.31a9.429,9.429,0,0,0-9.429,9.429V122.968A9.431,9.431,0,0,0,97.31,132.4h74.946l3.114,5.39,15.487,26.828,15.49-26.828,3.111-5.39H284.4a9.431,9.431,0,0,0,9.429-9.432V9.429A9.429,9.429,0,0,0,284.4,0" transform="translate(140.709)" fill="#b9daff"/>
            <g id="Grupo_1074897" data-name="Grupo 1074897" transform="translate(233.722 5.135)" style="mix-blend-mode: multiply;isolation: isolate">
              <g id="Grupo_1074896" data-name="Grupo 1074896">
                <g id="Grupo_1074895" data-name="Grupo 1074895" clip-path="url(#clip-path-10)">
                  <path id="Trazado_615644" data-name="Trazado 615644" d="M172.034,123.056H93.751a3.651,3.651,0,0,1-3.647-3.647V5.872a3.653,3.653,0,0,1,3.647-3.649H280.845a3.653,3.653,0,0,1,3.647,3.649V119.409a3.651,3.651,0,0,1-3.647,3.647H202.559L187.3,149.488Z" transform="translate(-89.455 -1.575)" fill="none" stroke="#b9daff" stroke-miterlimit="10" stroke-width="0.5"/>
                </g>
              </g>
            </g>
            <path id="Trazado_615645" data-name="Trazado 615645" d="M374.241,0H187.147a9.429,9.429,0,0,0-9.429,9.429V122.968a9.431,9.431,0,0,0,9.429,9.432h74.946l3.114,5.39,15.487,26.828,15.49-26.828,3.111-5.39h74.946a9.431,9.431,0,0,0,9.429-9.432V9.429A9.429,9.429,0,0,0,374.241,0" transform="translate(284.549)" fill="#b9daff"/>
            <g id="Grupo_1074900" data-name="Grupo 1074900" transform="translate(467.399 5.135)" style="mix-blend-mode: multiply;isolation: isolate">
              <g id="Grupo_1074899" data-name="Grupo 1074899">
                <g id="Grupo_1074898" data-name="Grupo 1074898" clip-path="url(#clip-path-11)">
                  <path id="Trazado_615646" data-name="Trazado 615646" d="M261.874,123.056H183.588a3.651,3.651,0,0,1-3.647-3.647V5.872a3.653,3.653,0,0,1,3.647-3.649H370.682a3.653,3.653,0,0,1,3.647,3.649V119.409a3.651,3.651,0,0,1-3.647,3.647H292.4l-15.263,26.433Z" transform="translate(-179.291 -1.575)" fill="none" stroke="#b9daff" stroke-miterlimit="10" stroke-width="0.5"/>
                </g>
              </g>
            </g>
            <path id="Trazado_615647" data-name="Trazado 615647" d="M464.078,0H276.984a9.429,9.429,0,0,0-9.429,9.429V122.968a9.431,9.431,0,0,0,9.429,9.432H351.93l3.113,5.39,15.487,26.828,15.49-26.828,3.111-5.39h74.946a9.434,9.434,0,0,0,9.432-9.432V9.429A9.431,9.431,0,0,0,464.078,0" transform="translate(428.39)" fill="#b9daff"/>
            <g id="Grupo_1074903" data-name="Grupo 1074903" transform="translate(701.079 5.135)" style="mix-blend-mode: multiply;isolation: isolate">
              <g id="Grupo_1074902" data-name="Grupo 1074902">
                <g id="Grupo_1074901" data-name="Grupo 1074901" clip-path="url(#clip-path-12)">
                  <path id="Trazado_615648" data-name="Trazado 615648" d="M351.711,123.056H273.427a3.652,3.652,0,0,1-3.649-3.647V5.872a3.654,3.654,0,0,1,3.649-3.649H460.519a3.653,3.653,0,0,1,3.647,3.649V119.409a3.651,3.651,0,0,1-3.647,3.647H382.235l-15.263,26.433Z" transform="translate(-269.13 -1.575)" fill="none" stroke="#b9daff" stroke-miterlimit="10" stroke-width="0.5"/>
                </g>
              </g>
            </g>
            <path id="Trazado_615649" data-name="Trazado 615649" d="M8.487,75.549H203.112a8.487,8.487,0,1,1,0,16.975H8.487a8.487,8.487,0,1,1,0-16.975" transform="translate(0 120.964)" fill="#3656b3"/>
            <path id="Trazado_615650" data-name="Trazado 615650" d="M93.328,75.549H301.14a8.487,8.487,0,1,1,0,16.975H93.328a8.487,8.487,0,0,1,0-16.975" transform="translate(135.841 120.964)" fill="#315884"/>
            <path id="Trazado_615651" data-name="Trazado 615651" d="M399.007,84.036h0a8.488,8.488,0,0,1-8.487,8.487H183.228a8.487,8.487,0,1,1,0-16.975H390.519a8.488,8.488,0,0,1,8.487,8.487" transform="translate(279.781 120.964)" fill="#59c4c8"/>
            <path id="Trazado_615652" data-name="Trazado 615652" d="M478.5,84.036h0a8.488,8.488,0,0,1-8.488,8.487H272.928a8.487,8.487,0,1,1,0-16.975H470.01a8.488,8.488,0,0,1,8.488,8.487" transform="translate(423.399 120.964)" fill="#fe9b4f"/>
            <path id="Trazado_615653" data-name="Trazado 615653" d="M98.672,100.909a35.9,35.9,0,1,1-35.9-35.9,35.9,35.9,0,0,1,35.9,35.9" transform="translate(43.027 104.091)" fill="#3656b3"/>
            <path id="Trazado_615654" data-name="Trazado 615654" d="M88.851,97.169A29.821,29.821,0,1,1,59.029,67.347,29.822,29.822,0,0,1,88.851,97.169" transform="translate(46.769 107.831)" fill="#3656b3"/>
          </g>
        </g>
        <path id="Trazado_873495" data-name="Trazado 873495" d="M19.25-24.78v6.16H9.52v3.43h7v5.845h-7V0H1.75V-24.78Z" transform="translate(95.969 216.502)" fill="#f9fbfc"/>
        <g id="Grupo_1074907" data-name="Grupo 1074907">
          <g id="Grupo_1074906" data-name="Grupo 1074906" clip-path="url(#clip-path-7)">
            <path id="Trazado_615655" data-name="Trazado 615655" d="M186.048,100.909a35.9,35.9,0,1,1-35.9-35.9,35.9,35.9,0,0,1,35.9,35.9" transform="translate(182.927 104.091)" fill="#315884"/>
            <path id="Trazado_615656" data-name="Trazado 615656" d="M176.227,97.169a29.821,29.821,0,1,1-29.822-29.822,29.822,29.822,0,0,1,29.822,29.822" transform="translate(186.669 107.831)" fill="#315884"/>
          </g>
        </g>
        <path id="Trazado_873496" data-name="Trazado 873496" d="M13.825.245A12.869,12.869,0,0,1,7.4-1.4,12.312,12.312,0,0,1,2.765-5.95,12.63,12.63,0,0,1,1.05-12.5,12.63,12.63,0,0,1,2.765-19.04,12.182,12.182,0,0,1,7.4-23.573,12.978,12.978,0,0,1,13.825-25.2a12.88,12.88,0,0,1,6.4,1.627,12.091,12.091,0,0,1,4.6,4.533,12.731,12.731,0,0,1,1.7,6.545,12.731,12.731,0,0,1-1.7,6.545,12.183,12.183,0,0,1-4.62,4.55A12.8,12.8,0,0,1,13.825.245Zm0-7.245A4.421,4.421,0,0,0,17.4-8.488a6,6,0,0,0,1.26-4.008,6.054,6.054,0,0,0-1.26-4.042,4.421,4.421,0,0,0-3.57-1.488,4.463,4.463,0,0,0-3.6,1.488A6.054,6.054,0,0,0,8.96-12.5a6,6,0,0,0,1.26,4.008A4.463,4.463,0,0,0,13.825-7Z" transform="translate(318.826 216.502)" fill="#f9fbfc"/>
        <g id="Grupo_1074909" data-name="Grupo 1074909">
          <g id="Grupo_1074908" data-name="Grupo 1074908" clip-path="url(#clip-path-7)">
            <path id="Trazado_615657" data-name="Trazado 615657" d="M275.847,100.909a35.9,35.9,0,1,1-35.9-35.9,35.9,35.9,0,0,1,35.9,35.9" transform="translate(326.707 104.091)" fill="#59c4c8"/>
            <path id="Trazado_615658" data-name="Trazado 615658" d="M266.026,97.169A29.821,29.821,0,1,1,236.2,67.347a29.822,29.822,0,0,1,29.822,29.822" transform="translate(330.449 107.831)" fill="#59c4c8"/>
          </g>
        </g>
        <path id="Trazado_873497" data-name="Trazado 873497" d="M12.075-24.78a14.134,14.134,0,0,1,6.807,1.575,11.056,11.056,0,0,1,4.5,4.375,12.767,12.767,0,0,1,1.575,6.37A12.892,12.892,0,0,1,23.38-6.09a11.337,11.337,0,0,1-4.5,4.463A13.763,13.763,0,0,1,12.075,0H1.75V-24.78Zm-.7,17.85A5.866,5.866,0,0,0,15.54-8.365a5.322,5.322,0,0,0,1.54-4.095,5.322,5.322,0,0,0-1.54-4.1,5.867,5.867,0,0,0-4.165-1.435H9.52V-6.93Z" transform="translate(555.226 216.502)" fill="#f9fbfc"/>
        <g id="Grupo_1074911" data-name="Grupo 1074911">
          <g id="Grupo_1074910" data-name="Grupo 1074910" clip-path="url(#clip-path-7)">
            <path id="Trazado_615659" data-name="Trazado 615659" d="M363.584,100.909a35.9,35.9,0,1,1-35.9-35.9,35.9,35.9,0,0,1,35.9,35.9" transform="translate(467.185 104.091)" fill="#fe9b4f"/>
            <path id="Trazado_615660" data-name="Trazado 615660" d="M353.763,97.169a29.821,29.821,0,1,1-29.822-29.822,29.822,29.822,0,0,1,29.822,29.822" transform="translate(470.927 107.831)" fill="#fe9b4f"/>
          </g>
        </g>
        <path id="Trazado_873498" data-name="Trazado 873498" d="M17.64-3.745H9.38L8.155,0H0L9.065-24.78h8.96L27.055,0h-8.19ZM15.75-9.59l-2.24-6.895L11.27-9.59Z" transform="translate(783.228 216.502)" fill="#f9fbfc"/>
        <g id="Grupo_1074925" data-name="Grupo 1074925">
          <g id="Grupo_1074924" data-name="Grupo 1074924" clip-path="url(#clip-path-7)">
            <path id="Trazado_615661" data-name="Trazado 615661" d="M331.864,237.809H71.751a10.585,10.585,0,0,1-10.584-10.584V130a10.583,10.583,0,0,1,10.584-10.584H331.864A10.583,10.583,0,0,1,342.448,130v97.228a10.585,10.585,0,0,1-10.584,10.584" transform="translate(97.936 191.195)" fill="#b9daff"/>
            <g id="Grupo_1074914" data-name="Grupo 1074914" transform="translate(163.656 315.16)" style="mix-blend-mode: multiply;isolation: isolate">
              <g id="Grupo_1074913" data-name="Grupo 1074913">
                <g id="Grupo_1074912" data-name="Grupo 1074912" clip-path="url(#clip-path-17)">
                  <path id="Rectángulo_378869" data-name="Rectángulo 378869" d="M2.069,0H268.808a2.068,2.068,0,0,1,2.068,2.068V105.922a2.069,2.069,0,0,1-2.069,2.069H2.069A2.069,2.069,0,0,1,0,105.922V2.069A2.069,2.069,0,0,1,2.069,0Z" transform="translate(0.65 0.651)" fill="none" stroke="#b9daff" stroke-miterlimit="10" stroke-width="0.5"/>
                </g>
              </g>
            </g>
            <path id="Trazado_615662" data-name="Trazado 615662" d="M141.029,128.62a15.966,15.966,0,1,1-15.966-15.966,15.965,15.965,0,0,1,15.966,15.966" transform="translate(174.68 180.373)" fill="#b9daff"/>
            <g id="Grupo_1074917" data-name="Grupo 1074917" transform="translate(289.149 298.398)" style="mix-blend-mode: multiply;isolation: isolate">
              <g id="Grupo_1074916" data-name="Grupo 1074916">
                <g id="Grupo_1074915" data-name="Grupo 1074915" clip-path="url(#clip-path-18)">
                  <circle id="Elipse_6027" data-name="Elipse 6027" cx="9.944" cy="9.944" r="9.944" transform="translate(0.651 0.651)" fill="none" stroke="#b9daff" stroke-miterlimit="10" stroke-width="0.5"/>
                </g>
              </g>
            </g>
            <path id="Trazado_615663" data-name="Trazado 615663" d="M446.366,237.809H186.253a10.585,10.585,0,0,1-10.584-10.584V130a10.583,10.583,0,0,1,10.584-10.584H446.366A10.583,10.583,0,0,1,456.95,130v97.228a10.585,10.585,0,0,1-10.584,10.584" transform="translate(281.268 191.195)" fill="#b9daff"/>
            <g id="Grupo_1074920" data-name="Grupo 1074920" transform="translate(461.489 315.16)" style="mix-blend-mode: multiply;isolation: isolate">
              <g id="Grupo_1074919" data-name="Grupo 1074919">
                <g id="Grupo_1074918" data-name="Grupo 1074918" clip-path="url(#clip-path-19)">
                  <path id="Rectángulo_378872" data-name="Rectángulo 378872" d="M2.069,0H268.808a2.068,2.068,0,0,1,2.068,2.068V105.922a2.069,2.069,0,0,1-2.069,2.069H2.069A2.069,2.069,0,0,1,0,105.922V2.069A2.069,2.069,0,0,1,2.069,0Z" transform="translate(0.65 0.651)" fill="none" stroke="#b9daff" stroke-miterlimit="10" stroke-width="0.5"/>
                </g>
              </g>
            </g>
            <path id="Trazado_615664" data-name="Trazado 615664" d="M255.531,128.62a15.966,15.966,0,1,1-15.966-15.966,15.965,15.965,0,0,1,15.966,15.966" transform="translate(358.012 180.373)" fill="#b9daff"/>
            <g id="Grupo_1074923" data-name="Grupo 1074923" transform="translate(586.983 298.398)" style="mix-blend-mode: multiply;isolation: isolate">
              <g id="Grupo_1074922" data-name="Grupo 1074922">
                <g id="Grupo_1074921" data-name="Grupo 1074921" clip-path="url(#clip-path-18)">
                  <circle id="Elipse_6028" data-name="Elipse 6028" cx="9.944" cy="9.944" r="9.944" transform="translate(0.65 0.651)" fill="none" stroke="#b9daff" stroke-miterlimit="10" stroke-width="0.5"/>
                </g>
              </g>
            </g>
          </g>
        </g>
      </g>
    </g>
    <path id="Trazado_873491" data-name="Trazado 873491" d="M8.842-5.229H3.779V0H1.143V-12.8H9.475v2.136h-5.7v3.3H8.842Zm1.415.387A5.64,5.64,0,0,1,10.8-7.365a3.989,3.989,0,0,1,1.569-1.714,4.577,4.577,0,0,1,2.377-.606A4.33,4.33,0,0,1,17.89-8.508a4.727,4.727,0,0,1,1.358,3.2l.018.65a4.97,4.97,0,0,1-1.222,3.511A4.247,4.247,0,0,1,14.766.176a4.268,4.268,0,0,1-3.283-1.318,5.058,5.058,0,0,1-1.226-3.586Zm2.54.18a3.555,3.555,0,0,0,.51,2.073,1.682,1.682,0,0,0,1.459.717,1.686,1.686,0,0,0,1.441-.709,3.89,3.89,0,0,0,.519-2.267,3.519,3.519,0,0,0-.519-2.06,1.686,1.686,0,0,0-1.459-.731,1.658,1.658,0,0,0-1.441.726A3.955,3.955,0,0,0,12.8-4.662ZM26.174-7.128a6.9,6.9,0,0,0-.914-.07,1.86,1.86,0,0,0-1.89.976V0H20.83V-9.51h2.4l.07,1.134a2.354,2.354,0,0,1,2.118-1.31,2.662,2.662,0,0,1,.791.114Zm4.7-4.72V-9.51H32.5v1.863H30.876V-2.9a1.133,1.133,0,0,0,.2.756,1.015,1.015,0,0,0,.773.229,4.051,4.051,0,0,0,.747-.062V-.053a5.229,5.229,0,0,1-1.538.229,2.425,2.425,0,0,1-2.725-2.7V-7.646H26.947V-9.51h1.389v-2.338ZM39.428,0a2.821,2.821,0,0,1-.255-.853,3.073,3.073,0,0,1-2.4,1.028,3.376,3.376,0,0,1-2.316-.809,2.6,2.6,0,0,1-.918-2.039,2.687,2.687,0,0,1,1.121-2.32A5.529,5.529,0,0,1,37.9-5.81h1.169v-.545a1.567,1.567,0,0,0-.338-1.055,1.331,1.331,0,0,0-1.068-.4,1.513,1.513,0,0,0-1.006.308,1.045,1.045,0,0,0-.365.844H33.75a2.551,2.551,0,0,1,.51-1.529,3.37,3.37,0,0,1,1.441-1.1,5.253,5.253,0,0,1,2.092-.4,4.15,4.15,0,0,1,2.791.883,3.09,3.09,0,0,1,1.033,2.483V-2.2a4.546,4.546,0,0,0,.378,2.048V0Zm-2.1-1.767a2.188,2.188,0,0,0,1.037-.25,1.645,1.645,0,0,0,.7-.672V-4.324h-.949q-1.907,0-2.03,1.318l-.009.149a1.017,1.017,0,0,0,.334.782A1.3,1.3,0,0,0,37.327-1.767ZM46.248,0H43.7V-13.5h2.549Zm6.469.176a4.668,4.668,0,0,1-3.406-1.283A4.561,4.561,0,0,1,48-4.526v-.246a5.745,5.745,0,0,1,.554-2.562,4.064,4.064,0,0,1,1.569-1.74,4.4,4.4,0,0,1,2.316-.611,3.947,3.947,0,0,1,3.072,1.23,5,5,0,0,1,1.121,3.489v1.037H50.572a2.36,2.36,0,0,0,.743,1.494,2.245,2.245,0,0,0,1.569.563,2.742,2.742,0,0,0,2.294-1.063l1.248,1.4A3.813,3.813,0,0,1,54.879-.277,5.075,5.075,0,0,1,52.717.176Zm-.29-7.813a1.587,1.587,0,0,0-1.226.512,2.651,2.651,0,0,0-.6,1.466h3.533v-.2a1.891,1.891,0,0,0-.457-1.311A1.638,1.638,0,0,0,52.427-7.638Zm8.561,5.59h4.649V0H57.744V-1.547l4.474-5.915H57.876V-9.51H65.5v1.5ZM72.738,0a2.821,2.821,0,0,1-.255-.853,3.073,3.073,0,0,1-2.4,1.028,3.376,3.376,0,0,1-2.316-.809,2.6,2.6,0,0,1-.918-2.039,2.687,2.687,0,0,1,1.121-2.32,5.529,5.529,0,0,1,3.239-.817h1.169v-.545a1.567,1.567,0,0,0-.338-1.055,1.331,1.331,0,0,0-1.068-.4,1.513,1.513,0,0,0-1.006.308,1.045,1.045,0,0,0-.365.844h-2.54a2.551,2.551,0,0,1,.51-1.529,3.37,3.37,0,0,1,1.441-1.1,5.253,5.253,0,0,1,2.092-.4,4.15,4.15,0,0,1,2.791.883,3.09,3.09,0,0,1,1.033,2.483V-2.2A4.546,4.546,0,0,0,75.3-.149V0Zm-2.1-1.767a2.188,2.188,0,0,0,1.037-.25,1.645,1.645,0,0,0,.7-.672V-4.324h-.949q-1.907,0-2.03,1.318l-.009.149a1.017,1.017,0,0,0,.334.782A1.3,1.3,0,0,0,70.638-1.767Zm11.391-.861a.818.818,0,0,0-.461-.734,5.241,5.241,0,0,0-1.481-.479q-3.393-.712-3.393-2.883a2.613,2.613,0,0,1,1.05-2.114,4.237,4.237,0,0,1,2.747-.848,4.56,4.56,0,0,1,2.9.853,2.687,2.687,0,0,1,1.085,2.215h-2.54a1.229,1.229,0,0,0-.352-.9,1.488,1.488,0,0,0-1.1-.356,1.52,1.52,0,0,0-.993.29.916.916,0,0,0-.352.738.783.783,0,0,0,.4.681,4.114,4.114,0,0,0,1.349.448,11.019,11.019,0,0,1,1.6.426A2.628,2.628,0,0,1,84.5-2.733a2.481,2.481,0,0,1-1.116,2.1,4.815,4.815,0,0,1-2.883.8A5.029,5.029,0,0,1,78.376-.25a3.561,3.561,0,0,1-1.455-1.169,2.716,2.716,0,0,1-.527-1.6H78.8a1.326,1.326,0,0,0,.5,1.037,1.987,1.987,0,0,0,1.248.36,1.839,1.839,0,0,0,1.1-.277A.861.861,0,0,0,82.028-2.628Z" transform="translate(391.101 2978)" fill="#12263f"/>
    <path id="Trazado_873492" data-name="Trazado 873492" d="M11.654-6.108a7.725,7.725,0,0,1-.668,3.313A5.03,5.03,0,0,1,9.075-.6,5.288,5.288,0,0,1,6.223.176,5.324,5.324,0,0,1,3.384-.589,5.08,5.08,0,0,1,1.45-2.773,7.5,7.5,0,0,1,.756-6.038v-.633A7.685,7.685,0,0,1,1.437-10,5.072,5.072,0,0,1,3.362-12.2a5.3,5.3,0,0,1,2.843-.769,5.3,5.3,0,0,1,2.843.769A5.072,5.072,0,0,1,10.973-10a7.663,7.663,0,0,1,.681,3.318Zm-2.672-.58a5.385,5.385,0,0,0-.721-3.059,2.349,2.349,0,0,0-2.057-1.046A2.349,2.349,0,0,0,4.157-9.76a5.324,5.324,0,0,0-.729,3.028v.624a5.453,5.453,0,0,0,.721,3.041A2.342,2.342,0,0,0,6.223-1.986,2.321,2.321,0,0,0,8.262-3.028a5.421,5.421,0,0,0,.721-3.037ZM21.964-4.667a5.7,5.7,0,0,1-1,3.52A3.2,3.2,0,0,1,18.272.176a2.963,2.963,0,0,1-2.329-1V3.656H13.4V-9.51h2.355l.088.932a2.985,2.985,0,0,1,2.408-1.107,3.22,3.22,0,0,1,2.733,1.3A5.858,5.858,0,0,1,21.964-4.8Zm-2.54-.185a3.743,3.743,0,0,0-.47-2.048,1.532,1.532,0,0,0-1.367-.721,1.663,1.663,0,0,0-1.644.914v3.894a1.692,1.692,0,0,0,1.661.94Q19.424-1.872,19.424-4.852Zm3.718.009a5.64,5.64,0,0,1,.545-2.522,3.989,3.989,0,0,1,1.569-1.714,4.577,4.577,0,0,1,2.377-.606,4.33,4.33,0,0,1,3.142,1.178,4.727,4.727,0,0,1,1.358,3.2l.018.65a4.97,4.97,0,0,1-1.222,3.511A4.247,4.247,0,0,1,27.65.176a4.268,4.268,0,0,1-3.283-1.318,5.058,5.058,0,0,1-1.226-3.586Zm2.54.18a3.555,3.555,0,0,0,.51,2.073,1.682,1.682,0,0,0,1.459.717,1.686,1.686,0,0,0,1.441-.709,3.89,3.89,0,0,0,.519-2.267,3.519,3.519,0,0,0-.519-2.06,1.686,1.686,0,0,0-1.459-.731,1.658,1.658,0,0,0-1.441.726A3.955,3.955,0,0,0,25.682-4.662ZM39.059-7.128a6.9,6.9,0,0,0-.914-.07,1.86,1.86,0,0,0-1.89.976V0h-2.54V-9.51h2.4l.07,1.134A2.354,2.354,0,0,1,38.3-9.686a2.662,2.662,0,0,1,.791.114Zm4.7-4.72V-9.51h1.626v1.863H43.761V-2.9a1.133,1.133,0,0,0,.2.756,1.015,1.015,0,0,0,.773.229,4.051,4.051,0,0,0,.747-.062V-.053a5.229,5.229,0,0,1-1.538.229,2.425,2.425,0,0,1-2.725-2.7V-7.646H39.832V-9.51h1.389v-2.338ZM52.5-.967A3.185,3.185,0,0,1,49.9.176,3,3,0,0,1,47.562-.7a3.752,3.752,0,0,1-.822-2.575V-9.51h2.54v6.151q0,1.487,1.354,1.487a1.834,1.834,0,0,0,1.775-.9V-9.51h2.549V0H52.567ZM59.212-9.51l.079,1.1a3.32,3.32,0,0,1,2.733-1.274,2.759,2.759,0,0,1,2.25.888,4.142,4.142,0,0,1,.756,2.654V0H62.49V-6.082a1.648,1.648,0,0,0-.352-1.173A1.574,1.574,0,0,0,60.97-7.62a1.747,1.747,0,0,0-1.608.914V0h-2.54V-9.51ZM69.636,0H67.087V-9.51h2.549Zm-2.7-11.971a1.251,1.251,0,0,1,.382-.94,1.436,1.436,0,0,1,1.042-.369,1.44,1.44,0,0,1,1.037.369,1.244,1.244,0,0,1,.387.94,1.247,1.247,0,0,1-.391.949,1.443,1.443,0,0,1-1.033.369,1.443,1.443,0,0,1-1.033-.369A1.247,1.247,0,0,1,66.938-11.971Zm4.395,7.146a5.731,5.731,0,0,1,1-3.542,3.237,3.237,0,0,1,2.729-1.318,2.913,2.913,0,0,1,2.294,1.037V-13.5H79.9V0H77.607l-.123-1.011A2.989,2.989,0,0,1,75.041.176a3.228,3.228,0,0,1-2.694-1.323A5.916,5.916,0,0,1,71.332-4.825Zm2.54.189a3.754,3.754,0,0,0,.466,2.051,1.517,1.517,0,0,0,1.354.713,1.7,1.7,0,0,0,1.661-.995V-6.625a1.675,1.675,0,0,0-1.644-.995Q73.872-7.62,73.872-4.636ZM87.381,0a2.821,2.821,0,0,1-.255-.853,3.073,3.073,0,0,1-2.4,1.028,3.376,3.376,0,0,1-2.316-.809,2.6,2.6,0,0,1-.918-2.039,2.687,2.687,0,0,1,1.121-2.32,5.529,5.529,0,0,1,3.239-.817h1.169v-.545a1.567,1.567,0,0,0-.338-1.055,1.331,1.331,0,0,0-1.068-.4,1.513,1.513,0,0,0-1.006.308,1.045,1.045,0,0,0-.365.844H81.7a2.551,2.551,0,0,1,.51-1.529,3.37,3.37,0,0,1,1.441-1.1,5.253,5.253,0,0,1,2.092-.4,4.15,4.15,0,0,1,2.791.883,3.09,3.09,0,0,1,1.033,2.483V-2.2a4.546,4.546,0,0,0,.378,2.048V0Zm-2.1-1.767a2.188,2.188,0,0,0,1.037-.25,1.645,1.645,0,0,0,.7-.672V-4.324h-.949q-1.907,0-2.03,1.318l-.009.149a1.017,1.017,0,0,0,.334.782A1.3,1.3,0,0,0,85.28-1.767Zm5.845-3.059a5.731,5.731,0,0,1,1-3.542,3.237,3.237,0,0,1,2.729-1.318,2.913,2.913,0,0,1,2.294,1.037V-13.5h2.549V0H97.4l-.123-1.011A2.989,2.989,0,0,1,94.834.176,3.228,3.228,0,0,1,92.14-1.147,5.916,5.916,0,0,1,91.125-4.825Zm2.54.189a3.754,3.754,0,0,0,.466,2.051,1.517,1.517,0,0,0,1.354.713,1.7,1.7,0,0,0,1.661-.995V-6.625A1.675,1.675,0,0,0,95.5-7.62Q93.665-7.62,93.665-4.636ZM106.04.176a4.668,4.668,0,0,1-3.406-1.283,4.561,4.561,0,0,1-1.314-3.419v-.246a5.745,5.745,0,0,1,.554-2.562,4.064,4.064,0,0,1,1.569-1.74,4.4,4.4,0,0,1,2.316-.611,3.947,3.947,0,0,1,3.072,1.23,5,5,0,0,1,1.121,3.489v1.037H103.9a2.36,2.36,0,0,0,.743,1.494,2.245,2.245,0,0,0,1.569.563A2.742,2.742,0,0,0,108.5-2.936l1.248,1.4A3.813,3.813,0,0,1,108.2-.277,5.075,5.075,0,0,1,106.04.176Zm-.29-7.813a1.587,1.587,0,0,0-1.226.512,2.651,2.651,0,0,0-.6,1.466h3.533v-.2A1.891,1.891,0,0,0,107-7.174,1.638,1.638,0,0,0,105.75-7.638Zm10.793,5.01a.818.818,0,0,0-.461-.734,5.241,5.241,0,0,0-1.481-.479q-3.393-.712-3.393-2.883a2.613,2.613,0,0,1,1.05-2.114A4.237,4.237,0,0,1,115-9.686a4.56,4.56,0,0,1,2.9.853,2.687,2.687,0,0,1,1.085,2.215h-2.54a1.229,1.229,0,0,0-.352-.9,1.488,1.488,0,0,0-1.1-.356,1.52,1.52,0,0,0-.993.29.916.916,0,0,0-.352.738.783.783,0,0,0,.4.681,4.114,4.114,0,0,0,1.349.448,11.019,11.019,0,0,1,1.6.426,2.628,2.628,0,0,1,2.013,2.558,2.481,2.481,0,0,1-1.116,2.1,4.815,4.815,0,0,1-2.883.8,5.029,5.029,0,0,1-2.123-.426,3.561,3.561,0,0,1-1.455-1.169,2.716,2.716,0,0,1-.527-1.6h2.408a1.326,1.326,0,0,0,.5,1.037,1.987,1.987,0,0,0,1.248.36,1.839,1.839,0,0,0,1.1-.277A.861.861,0,0,0,116.543-2.628Z" transform="translate(599.101 2978)" fill="#12263f"/>
    <path id="Trazado_873493" data-name="Trazado 873493" d="M1.143,0V-12.8H5.08a5.98,5.98,0,0,1,3.019.76,5.3,5.3,0,0,1,2.079,2.162,6.669,6.669,0,0,1,.747,3.186V-6.1a6.688,6.688,0,0,1-.734,3.173A5.256,5.256,0,0,1,8.121-.773,6.025,6.025,0,0,1,5.106,0ZM3.779-10.661v8.543H5.054A2.863,2.863,0,0,0,7.418-3.129a4.567,4.567,0,0,0,.835-2.892V-6.7a4.64,4.64,0,0,0-.809-2.958A2.854,2.854,0,0,0,5.08-10.661ZM17.051.176a4.668,4.668,0,0,1-3.406-1.283,4.561,4.561,0,0,1-1.314-3.419v-.246a5.745,5.745,0,0,1,.554-2.562,4.064,4.064,0,0,1,1.569-1.74,4.4,4.4,0,0,1,2.316-.611,3.947,3.947,0,0,1,3.072,1.23,5,5,0,0,1,1.121,3.489v1.037H14.906a2.36,2.36,0,0,0,.743,1.494,2.245,2.245,0,0,0,1.569.563,2.742,2.742,0,0,0,2.294-1.063l1.248,1.4A3.813,3.813,0,0,1,19.213-.277,5.075,5.075,0,0,1,17.051.176Zm-.29-7.813a1.587,1.587,0,0,0-1.226.512,2.651,2.651,0,0,0-.6,1.466h3.533v-.2a1.891,1.891,0,0,0-.457-1.311A1.638,1.638,0,0,0,16.761-7.638ZM30.973-4.667A5.758,5.758,0,0,1,30-1.1,3.231,3.231,0,0,1,27.272.176,2.969,2.969,0,0,1,24.8-1.011L24.688,0H22.4V-13.5h2.54v4.843a2.893,2.893,0,0,1,2.312-1.028,3.258,3.258,0,0,1,2.729,1.279,5.767,5.767,0,0,1,.989,3.6Zm-2.54-.185a3.783,3.783,0,0,0-.457-2.1,1.545,1.545,0,0,0-1.362-.664,1.676,1.676,0,0,0-1.67.993v3.753a1.7,1.7,0,0,0,1.688,1,1.568,1.568,0,0,0,1.617-1.213A6.257,6.257,0,0,0,28.433-4.852ZM35.218,0H32.669V-9.51h2.549Zm-2.7-11.971a1.251,1.251,0,0,1,.382-.94,1.436,1.436,0,0,1,1.042-.369,1.44,1.44,0,0,1,1.037.369,1.244,1.244,0,0,1,.387.94,1.247,1.247,0,0,1-.391.949,1.443,1.443,0,0,1-1.033.369,1.443,1.443,0,0,1-1.033-.369A1.247,1.247,0,0,1,32.52-11.971ZM39.99,0H37.441V-13.5H39.99Zm4.772,0H42.214V-9.51h2.549Zm-2.7-11.971a1.251,1.251,0,0,1,.382-.94,1.436,1.436,0,0,1,1.042-.369,1.44,1.44,0,0,1,1.037.369,1.244,1.244,0,0,1,.387.94,1.247,1.247,0,0,1-.391.949,1.443,1.443,0,0,1-1.033.369,1.443,1.443,0,0,1-1.033-.369A1.247,1.247,0,0,1,42.064-11.971Zm4.395,7.146a5.731,5.731,0,0,1,1-3.542,3.237,3.237,0,0,1,2.729-1.318,2.913,2.913,0,0,1,2.294,1.037V-13.5h2.549V0H52.734l-.123-1.011A2.989,2.989,0,0,1,50.168.176a3.228,3.228,0,0,1-2.694-1.323A5.916,5.916,0,0,1,46.459-4.825ZM49-4.636a3.754,3.754,0,0,0,.466,2.051,1.517,1.517,0,0,0,1.354.713,1.7,1.7,0,0,0,1.661-.995V-6.625a1.675,1.675,0,0,0-1.644-.995Q49-7.62,49-4.636ZM62.508,0a2.821,2.821,0,0,1-.255-.853,3.073,3.073,0,0,1-2.4,1.028,3.376,3.376,0,0,1-2.316-.809,2.6,2.6,0,0,1-.918-2.039,2.687,2.687,0,0,1,1.121-2.32,5.529,5.529,0,0,1,3.239-.817h1.169v-.545a1.567,1.567,0,0,0-.338-1.055,1.331,1.331,0,0,0-1.068-.4,1.513,1.513,0,0,0-1.006.308,1.045,1.045,0,0,0-.365.844H56.83a2.551,2.551,0,0,1,.51-1.529,3.37,3.37,0,0,1,1.441-1.1,5.253,5.253,0,0,1,2.092-.4,4.15,4.15,0,0,1,2.791.883A3.09,3.09,0,0,1,64.7-6.319V-2.2a4.546,4.546,0,0,0,.378,2.048V0Zm-2.1-1.767a2.188,2.188,0,0,0,1.037-.25,1.645,1.645,0,0,0,.7-.672V-4.324H61.2q-1.907,0-2.03,1.318l-.009.149a1.017,1.017,0,0,0,.334.782A1.3,1.3,0,0,0,60.407-1.767Zm5.845-3.059a5.731,5.731,0,0,1,1-3.542,3.237,3.237,0,0,1,2.729-1.318,2.913,2.913,0,0,1,2.294,1.037V-13.5h2.549V0H72.527L72.4-1.011A2.989,2.989,0,0,1,69.961.176a3.228,3.228,0,0,1-2.694-1.323A5.916,5.916,0,0,1,66.252-4.825Zm2.54.189a3.754,3.754,0,0,0,.466,2.051,1.517,1.517,0,0,0,1.354.713,1.7,1.7,0,0,0,1.661-.995V-6.625a1.675,1.675,0,0,0-1.644-.995Q68.792-7.62,68.792-4.636ZM81.167.176a4.668,4.668,0,0,1-3.406-1.283,4.561,4.561,0,0,1-1.314-3.419v-.246A5.745,5.745,0,0,1,77-7.334a4.064,4.064,0,0,1,1.569-1.74,4.4,4.4,0,0,1,2.316-.611,3.947,3.947,0,0,1,3.072,1.23,5,5,0,0,1,1.121,3.489v1.037H79.022a2.36,2.36,0,0,0,.743,1.494,2.245,2.245,0,0,0,1.569.563,2.742,2.742,0,0,0,2.294-1.063l1.248,1.4A3.813,3.813,0,0,1,83.329-.277,5.075,5.075,0,0,1,81.167.176Zm-.29-7.813a1.587,1.587,0,0,0-1.226.512,2.651,2.651,0,0,0-.6,1.466h3.533v-.2a1.891,1.891,0,0,0-.457-1.311A1.638,1.638,0,0,0,80.877-7.638ZM91.67-2.628a.818.818,0,0,0-.461-.734,5.241,5.241,0,0,0-1.481-.479q-3.393-.712-3.393-2.883a2.613,2.613,0,0,1,1.05-2.114,4.237,4.237,0,0,1,2.747-.848,4.56,4.56,0,0,1,2.9.853,2.687,2.687,0,0,1,1.085,2.215h-2.54a1.229,1.229,0,0,0-.352-.9,1.488,1.488,0,0,0-1.1-.356,1.52,1.52,0,0,0-.993.29.916.916,0,0,0-.352.738.783.783,0,0,0,.4.681,4.114,4.114,0,0,0,1.349.448,11.019,11.019,0,0,1,1.6.426A2.628,2.628,0,0,1,94.14-2.733a2.481,2.481,0,0,1-1.116,2.1,4.815,4.815,0,0,1-2.883.8A5.029,5.029,0,0,1,88.018-.25a3.561,3.561,0,0,1-1.455-1.169,2.716,2.716,0,0,1-.527-1.6h2.408a1.326,1.326,0,0,0,.5,1.037,1.987,1.987,0,0,0,1.248.36A1.839,1.839,0,0,0,91.3-1.9.861.861,0,0,0,91.67-2.628Z" transform="translate(848.101 2978)" fill="#12263f"/>
    <path id="Trazado_873494" data-name="Trazado 873494" d="M8.367-2.637H3.744L2.865,0H.062L4.825-12.8H7.269L12.059,0h-2.8ZM4.456-4.772h3.2L6.047-9.562ZM15.047-9.51l.079,1.063a3.342,3.342,0,0,1,2.733-1.239,2.536,2.536,0,0,1,2.522,1.45,3.265,3.265,0,0,1,2.856-1.45,2.836,2.836,0,0,1,2.3.9A4.141,4.141,0,0,1,26.3-6.073V0H23.748V-6.064a1.811,1.811,0,0,0-.316-1.182,1.4,1.4,0,0,0-1.116-.374,1.585,1.585,0,0,0-1.582,1.09L20.742,0H18.2V-6.056a1.789,1.789,0,0,0-.325-1.2A1.416,1.416,0,0,0,16.77-7.62a1.646,1.646,0,0,0-1.564.9V0h-2.54V-9.51ZM32.625.176a4.668,4.668,0,0,1-3.406-1.283,4.561,4.561,0,0,1-1.314-3.419v-.246a5.745,5.745,0,0,1,.554-2.562,4.064,4.064,0,0,1,1.569-1.74,4.4,4.4,0,0,1,2.316-.611,3.947,3.947,0,0,1,3.072,1.23,5,5,0,0,1,1.121,3.489v1.037H30.48a2.36,2.36,0,0,0,.743,1.494,2.245,2.245,0,0,0,1.569.563,2.742,2.742,0,0,0,2.294-1.063l1.248,1.4A3.813,3.813,0,0,1,34.787-.277,5.075,5.075,0,0,1,32.625.176Zm-.29-7.813a1.587,1.587,0,0,0-1.226.512,2.651,2.651,0,0,0-.6,1.466H34.04v-.2a1.891,1.891,0,0,0-.457-1.311A1.638,1.638,0,0,0,32.335-7.638Zm7.98-1.872.079,1.1a3.32,3.32,0,0,1,2.733-1.274,2.759,2.759,0,0,1,2.25.888,4.142,4.142,0,0,1,.756,2.654V0h-2.54V-6.082a1.648,1.648,0,0,0-.352-1.173,1.574,1.574,0,0,0-1.169-.365,1.747,1.747,0,0,0-1.608.914V0h-2.54V-9.51ZM53.569,0a2.821,2.821,0,0,1-.255-.853,3.073,3.073,0,0,1-2.4,1.028A3.376,3.376,0,0,1,48.6-.633a2.6,2.6,0,0,1-.918-2.039A2.687,2.687,0,0,1,48.8-4.992,5.529,5.529,0,0,1,52.04-5.81h1.169v-.545a1.567,1.567,0,0,0-.338-1.055A1.331,1.331,0,0,0,51.8-7.8,1.513,1.513,0,0,0,50.8-7.5a1.045,1.045,0,0,0-.365.844h-2.54a2.551,2.551,0,0,1,.51-1.529,3.37,3.37,0,0,1,1.441-1.1,5.253,5.253,0,0,1,2.092-.4,4.15,4.15,0,0,1,2.791.883,3.09,3.09,0,0,1,1.033,2.483V-2.2a4.546,4.546,0,0,0,.378,2.048V0Zm-2.1-1.767a2.188,2.188,0,0,0,1.037-.25,1.645,1.645,0,0,0,.7-.672V-4.324H52.26q-1.907,0-2.03,1.318l-.009.149a1.017,1.017,0,0,0,.334.782A1.3,1.3,0,0,0,51.469-1.767Zm9.158-.281h4.649V0H57.384V-1.547l4.474-5.915H57.516V-9.51h7.62v1.5ZM72.378,0a2.821,2.821,0,0,1-.255-.853,3.073,3.073,0,0,1-2.4,1.028,3.376,3.376,0,0,1-2.316-.809,2.6,2.6,0,0,1-.918-2.039,2.687,2.687,0,0,1,1.121-2.32,5.529,5.529,0,0,1,3.239-.817h1.169v-.545a1.567,1.567,0,0,0-.338-1.055,1.331,1.331,0,0,0-1.068-.4A1.513,1.513,0,0,0,69.6-7.5a1.045,1.045,0,0,0-.365.844H66.7a2.551,2.551,0,0,1,.51-1.529,3.37,3.37,0,0,1,1.441-1.1,5.253,5.253,0,0,1,2.092-.4,4.15,4.15,0,0,1,2.791.883,3.09,3.09,0,0,1,1.033,2.483V-2.2a4.546,4.546,0,0,0,.378,2.048V0Zm-2.1-1.767a2.188,2.188,0,0,0,1.037-.25,1.645,1.645,0,0,0,.7-.672V-4.324h-.949q-1.907,0-2.03,1.318l-.009.149a1.017,1.017,0,0,0,.334.782A1.3,1.3,0,0,0,70.277-1.767Zm11.391-.861a.818.818,0,0,0-.461-.734,5.241,5.241,0,0,0-1.481-.479q-3.393-.712-3.393-2.883a2.613,2.613,0,0,1,1.05-2.114,4.237,4.237,0,0,1,2.747-.848,4.56,4.56,0,0,1,2.9.853,2.687,2.687,0,0,1,1.085,2.215h-2.54a1.229,1.229,0,0,0-.352-.9,1.488,1.488,0,0,0-1.1-.356,1.52,1.52,0,0,0-.993.29.916.916,0,0,0-.352.738.783.783,0,0,0,.4.681,4.114,4.114,0,0,0,1.349.448,11.019,11.019,0,0,1,1.6.426,2.628,2.628,0,0,1,2.013,2.558,2.481,2.481,0,0,1-1.116,2.1,4.815,4.815,0,0,1-2.883.8A5.029,5.029,0,0,1,78.016-.25a3.561,3.561,0,0,1-1.455-1.169,2.716,2.716,0,0,1-.527-1.6h2.408a1.326,1.326,0,0,0,.5,1.037,1.987,1.987,0,0,0,1.248.36,1.839,1.839,0,0,0,1.1-.277A.861.861,0,0,0,81.668-2.628Z" transform="translate(1083.101 2978)" fill="#12263f"/>
    <path id="Trazado_873489" data-name="Trazado 873489" d="M-29.4,0h-2.637V-12.8H-29.4Zm4.614-9.51.079,1.1a3.32,3.32,0,0,1,2.733-1.274,2.759,2.759,0,0,1,2.25.888,4.142,4.142,0,0,1,.756,2.654V0h-2.54V-6.082a1.648,1.648,0,0,0-.352-1.173,1.574,1.574,0,0,0-1.169-.365,1.747,1.747,0,0,0-1.608.914V0h-2.54V-9.51ZM-14-11.848V-9.51h1.626v1.863H-14V-2.9a1.133,1.133,0,0,0,.2.756,1.015,1.015,0,0,0,.773.229,4.051,4.051,0,0,0,.747-.062V-.053a5.229,5.229,0,0,1-1.538.229,2.425,2.425,0,0,1-2.725-2.7V-7.646H-17.93V-9.51h1.389v-2.338ZM-6.583.176A4.668,4.668,0,0,1-9.989-1.107,4.561,4.561,0,0,1-11.3-4.526v-.246a5.745,5.745,0,0,1,.554-2.562A4.064,4.064,0,0,1-9.18-9.075a4.4,4.4,0,0,1,2.316-.611,3.947,3.947,0,0,1,3.072,1.23A5,5,0,0,1-2.672-4.966v1.037H-8.728a2.36,2.36,0,0,0,.743,1.494,2.245,2.245,0,0,0,1.569.563A2.742,2.742,0,0,0-4.122-2.936l1.248,1.4A3.813,3.813,0,0,1-4.421-.277,5.075,5.075,0,0,1-6.583.176Zm-.29-7.813A1.587,1.587,0,0,0-8.1-7.126,2.651,2.651,0,0,0-8.7-5.66h3.533v-.2a1.891,1.891,0,0,0-.457-1.311A1.638,1.638,0,0,0-6.873-7.638Zm10.986.51A6.9,6.9,0,0,0,3.2-7.2a1.86,1.86,0,0,0-1.89.976V0H-1.23V-9.51h2.4l.07,1.134a2.354,2.354,0,0,1,2.118-1.31,2.662,2.662,0,0,1,.791.114ZM7.673-9.51l.079,1.1a3.32,3.32,0,0,1,2.733-1.274,2.759,2.759,0,0,1,2.25.888,4.142,4.142,0,0,1,.756,2.654V0h-2.54V-6.082A1.648,1.648,0,0,0,10.6-7.255,1.574,1.574,0,0,0,9.431-7.62a1.747,1.747,0,0,0-1.608.914V0H5.282V-9.51ZM20.927,0a2.821,2.821,0,0,1-.255-.853,3.073,3.073,0,0,1-2.4,1.028,3.376,3.376,0,0,1-2.316-.809,2.6,2.6,0,0,1-.918-2.039,2.687,2.687,0,0,1,1.121-2.32A5.529,5.529,0,0,1,19.4-5.81h1.169v-.545a1.567,1.567,0,0,0-.338-1.055,1.331,1.331,0,0,0-1.068-.4,1.513,1.513,0,0,0-1.006.308,1.045,1.045,0,0,0-.365.844h-2.54a2.551,2.551,0,0,1,.51-1.529,3.37,3.37,0,0,1,1.441-1.1,5.253,5.253,0,0,1,2.092-.4,4.15,4.15,0,0,1,2.791.883,3.09,3.09,0,0,1,1.033,2.483V-2.2a4.546,4.546,0,0,0,.378,2.048V0Zm-2.1-1.767a2.188,2.188,0,0,0,1.037-.25,1.645,1.645,0,0,0,.7-.672V-4.324h-.949q-1.907,0-2.03,1.318l-.009.149a1.017,1.017,0,0,0,.334.782A1.3,1.3,0,0,0,18.826-1.767Zm11.391-.861a.818.818,0,0,0-.461-.734,5.241,5.241,0,0,0-1.481-.479q-3.393-.712-3.393-2.883a2.613,2.613,0,0,1,1.05-2.114,4.237,4.237,0,0,1,2.747-.848,4.56,4.56,0,0,1,2.9.853A2.687,2.687,0,0,1,32.66-6.618H30.12a1.229,1.229,0,0,0-.352-.9,1.488,1.488,0,0,0-1.1-.356,1.52,1.52,0,0,0-.993.29.916.916,0,0,0-.352.738.783.783,0,0,0,.4.681,4.114,4.114,0,0,0,1.349.448,11.019,11.019,0,0,1,1.6.426,2.628,2.628,0,0,1,2.013,2.558,2.481,2.481,0,0,1-1.116,2.1,4.815,4.815,0,0,1-2.883.8A5.029,5.029,0,0,1,26.565-.25,3.561,3.561,0,0,1,25.11-1.419a2.716,2.716,0,0,1-.527-1.6h2.408a1.326,1.326,0,0,0,.5,1.037,1.987,1.987,0,0,0,1.248.36,1.839,1.839,0,0,0,1.1-.277A.861.861,0,0,0,30.217-2.628ZM-99.763,42.414H-105V46.7h6.084V48h-7.678V35.914H-99v1.3h-6V41.11h5.238Zm7.819,3.2a1.131,1.131,0,0,0-.469-.967,4.514,4.514,0,0,0-1.635-.594,7.731,7.731,0,0,1-1.851-.6,2.633,2.633,0,0,1-1.013-.83,1.986,1.986,0,0,1-.328-1.146,2.33,2.33,0,0,1,.934-1.868,3.647,3.647,0,0,1,2.386-.764,3.753,3.753,0,0,1,2.478.789,2.5,2.5,0,0,1,.95,2.017h-1.544a1.386,1.386,0,0,0-.535-1.087,2.006,2.006,0,0,0-1.349-.457,2.1,2.1,0,0,0-1.312.365,1.15,1.15,0,0,0-.473.955.932.932,0,0,0,.44.838,5.413,5.413,0,0,0,1.59.54,8.283,8.283,0,0,1,1.864.614,2.718,2.718,0,0,1,1.058.859,2.112,2.112,0,0,1,.344,1.224,2.3,2.3,0,0,1-.963,1.93,4.039,4.039,0,0,1-2.5.726,4.523,4.523,0,0,1-1.909-.382,3.105,3.105,0,0,1-1.3-1.067,2.571,2.571,0,0,1-.469-1.482h1.536a1.59,1.59,0,0,0,.618,1.224,2.4,2.4,0,0,0,1.523.452,2.476,2.476,0,0,0,1.4-.353A1.084,1.084,0,0,0-91.944,45.618Zm15.332-2.009a5.378,5.378,0,0,1-.938,3.3,3.006,3.006,0,0,1-2.54,1.253,3.294,3.294,0,0,1-2.573-1.038v4.325H-84.2V39.019h1.4l.075,1a3.163,3.163,0,0,1,2.606-1.162,3.063,3.063,0,0,1,2.561,1.22,5.437,5.437,0,0,1,.942,3.4Zm-1.536-.174a3.968,3.968,0,0,0-.647-2.4,2.086,2.086,0,0,0-1.776-.88,2.257,2.257,0,0,0-2.092,1.237v4.292a2.262,2.262,0,0,0,2.108,1.229,2.076,2.076,0,0,0,1.756-.876A4.332,4.332,0,0,0-78.148,43.435Zm3.08-.008a5.3,5.3,0,0,1,.519-2.374A3.87,3.87,0,0,1-73.1,39.425a3.932,3.932,0,0,1,2.113-.573,3.788,3.788,0,0,1,2.968,1.27A4.886,4.886,0,0,1-66.892,43.5v.108a5.351,5.351,0,0,1-.5,2.353,3.813,3.813,0,0,1-1.436,1.623,3.977,3.977,0,0,1-2.146.581,3.778,3.778,0,0,1-2.959-1.27,4.861,4.861,0,0,1-1.133-3.362Zm1.544.183a3.842,3.842,0,0,0,.693,2.4,2.218,2.218,0,0,0,1.855.9A2.2,2.2,0,0,0-69.116,46a4.2,4.2,0,0,0,.689-2.569,3.836,3.836,0,0,0-.7-2.395,2.23,2.23,0,0,0-1.864-.917,2.205,2.205,0,0,0-1.834.9A4.17,4.17,0,0,0-73.524,43.609Zm13.788,2.009a1.13,1.13,0,0,0-.469-.967,4.514,4.514,0,0,0-1.635-.594,7.731,7.731,0,0,1-1.851-.6,2.633,2.633,0,0,1-1.013-.83,1.986,1.986,0,0,1-.328-1.146,2.33,2.33,0,0,1,.934-1.868,3.647,3.647,0,0,1,2.386-.764,3.753,3.753,0,0,1,2.478.789,2.5,2.5,0,0,1,.95,2.017h-1.544a1.386,1.386,0,0,0-.535-1.087,2.006,2.006,0,0,0-1.349-.457,2.1,2.1,0,0,0-1.312.365,1.15,1.15,0,0,0-.473.955.932.932,0,0,0,.44.838,5.413,5.413,0,0,0,1.59.54,8.283,8.283,0,0,1,1.864.614,2.718,2.718,0,0,1,1.058.859A2.112,2.112,0,0,1-58.2,45.51a2.3,2.3,0,0,1-.963,1.93,4.039,4.039,0,0,1-2.5.726,4.523,4.523,0,0,1-1.909-.382,3.105,3.105,0,0,1-1.3-1.067,2.571,2.571,0,0,1-.469-1.482H-63.8a1.59,1.59,0,0,0,.618,1.224,2.4,2.4,0,0,0,1.523.452,2.476,2.476,0,0,0,1.4-.353A1.084,1.084,0,0,0-59.737,45.618Zm5.2,2.382h-1.536V39.019h1.536Zm-1.66-11.364a.917.917,0,0,1,.228-.631.857.857,0,0,1,.677-.257.87.87,0,0,1,.681.257.907.907,0,0,1,.232.631.877.877,0,0,1-.232.623.886.886,0,0,1-.681.249.872.872,0,0,1-.677-.249A.886.886,0,0,1-56.192,36.636Zm11.721,6.973a5.34,5.34,0,0,1-.946,3.308,3.024,3.024,0,0,1-2.54,1.249,3.131,3.131,0,0,1-2.631-1.2L-50.664,48h-1.411V35.25h1.536v4.756a3.113,3.113,0,0,1,2.565-1.154,3.042,3.042,0,0,1,2.569,1.237,5.5,5.5,0,0,1,.934,3.387Zm-1.536-.174a4.15,4.15,0,0,0-.606-2.424,2.006,2.006,0,0,0-1.743-.855,2.255,2.255,0,0,0-2.183,1.411v3.885a2.318,2.318,0,0,0,2.2,1.411,2,2,0,0,0,1.718-.855A4.413,4.413,0,0,0-46.007,43.435ZM-40.869,48H-42.4V35.25h1.536Zm6.184.166a3.924,3.924,0,0,1-2.972-1.2A4.452,4.452,0,0,1-38.8,43.758v-.282a5.39,5.39,0,0,1,.51-2.386,3.982,3.982,0,0,1,1.428-1.644,3.59,3.59,0,0,1,1.988-.594,3.364,3.364,0,0,1,2.723,1.154,5,5,0,0,1,.971,3.3v.639h-6.084a3.193,3.193,0,0,0,.776,2.146,2.44,2.44,0,0,0,1.888.818,2.675,2.675,0,0,0,1.378-.332,3.462,3.462,0,0,0,.988-.88l.938.73A3.772,3.772,0,0,1-34.685,48.166Zm-.191-8.052a2.048,2.048,0,0,0-1.561.677,3.288,3.288,0,0,0-.78,1.9h4.5v-.116a2.925,2.925,0,0,0-.631-1.814A1.928,1.928,0,0,0-34.876,40.114ZM-19.652,48a3.226,3.226,0,0,1-.216-.946,3.426,3.426,0,0,1-2.557,1.112,3.17,3.17,0,0,1-2.179-.751,2.43,2.43,0,0,1-.851-1.905,2.539,2.539,0,0,1,1.067-2.179,5.029,5.029,0,0,1,3-.776h1.494v-.706a1.725,1.725,0,0,0-.481-1.282,1.935,1.935,0,0,0-1.419-.477,2.239,2.239,0,0,0-1.378.415,1.223,1.223,0,0,0-.556,1h-1.544a2.119,2.119,0,0,1,.477-1.3,3.258,3.258,0,0,1,1.295-.992,4.356,4.356,0,0,1,1.8-.365,3.551,3.551,0,0,1,2.432.776,2.8,2.8,0,0,1,.913,2.137V45.9a5.054,5.054,0,0,0,.315,1.967V48ZM-22.2,46.83a2.7,2.7,0,0,0,1.37-.374,2.259,2.259,0,0,0,.938-.971V43.642h-1.2q-2.822,0-2.822,1.652a1.4,1.4,0,0,0,.481,1.129A1.85,1.85,0,0,0-22.2,46.83Zm9.853.083a2.212,2.212,0,0,0,1.436-.5,1.752,1.752,0,0,0,.681-1.245h1.453a2.785,2.785,0,0,1-.531,1.469,3.5,3.5,0,0,1-1.307,1.112,3.772,3.772,0,0,1-1.731.415,3.7,3.7,0,0,1-2.918-1.224,4.877,4.877,0,0,1-1.083-3.349v-.257A5.407,5.407,0,0,1-15.867,41a3.667,3.667,0,0,1,1.382-1.585,3.926,3.926,0,0,1,2.129-.564,3.6,3.6,0,0,1,2.511.9,3.234,3.234,0,0,1,1.067,2.349h-1.453a2.116,2.116,0,0,0-.66-1.432,2.053,2.053,0,0,0-1.465-.56,2.149,2.149,0,0,0-1.814.843,3.957,3.957,0,0,0-.643,2.436v.291a3.878,3.878,0,0,0,.639,2.391A2.16,2.16,0,0,0-12.347,46.913Zm7.379-10.069v2.175h1.677v1.187H-4.968v5.577a1.247,1.247,0,0,0,.224.81.943.943,0,0,0,.764.27,3.718,3.718,0,0,0,.73-.1V48a4.478,4.478,0,0,1-1.179.165,1.912,1.912,0,0,1-1.552-.623A2.675,2.675,0,0,1-6.5,45.775v-5.57H-8.139V39.019H-6.5V36.844ZM4.047,47.112a3.262,3.262,0,0,1-2.631,1.054,2.792,2.792,0,0,1-2.187-.834,3.611,3.611,0,0,1-.76-2.469V39.019H0v5.8q0,2.042,1.66,2.042a2.3,2.3,0,0,0,2.341-1.312V39.019H5.541V48H4.08ZM13.418,48a3.226,3.226,0,0,1-.216-.946,3.426,3.426,0,0,1-2.557,1.112,3.17,3.17,0,0,1-2.179-.751,2.43,2.43,0,0,1-.851-1.905,2.539,2.539,0,0,1,1.067-2.179,5.029,5.029,0,0,1,3-.776h1.494v-.706a1.725,1.725,0,0,0-.481-1.282,1.935,1.935,0,0,0-1.419-.477A2.239,2.239,0,0,0,9.9,40.5a1.223,1.223,0,0,0-.556,1H7.8a2.119,2.119,0,0,1,.477-1.3,3.258,3.258,0,0,1,1.295-.992,4.356,4.356,0,0,1,1.8-.365,3.551,3.551,0,0,1,2.432.776,2.8,2.8,0,0,1,.913,2.137V45.9a5.054,5.054,0,0,0,.315,1.967V48ZM10.87,46.83a2.7,2.7,0,0,0,1.37-.374,2.259,2.259,0,0,0,.938-.971V43.642h-1.2q-2.822,0-2.822,1.652a1.4,1.4,0,0,0,.481,1.129A1.85,1.85,0,0,0,10.87,46.83ZM21.462,40.4a4.6,4.6,0,0,0-.755-.058,2.024,2.024,0,0,0-2.05,1.287V48H17.12V39.019h1.494l.025,1.038a2.391,2.391,0,0,1,2.142-1.2,1.569,1.569,0,0,1,.681.116Zm10.849,5.221a1.13,1.13,0,0,0-.469-.967,4.514,4.514,0,0,0-1.635-.594,7.731,7.731,0,0,1-1.851-.6,2.633,2.633,0,0,1-1.013-.83,1.986,1.986,0,0,1-.328-1.146,2.33,2.33,0,0,1,.934-1.868,3.647,3.647,0,0,1,2.386-.764,3.753,3.753,0,0,1,2.478.789,2.5,2.5,0,0,1,.95,2.017H32.219a1.386,1.386,0,0,0-.535-1.087,2.006,2.006,0,0,0-1.349-.457,2.1,2.1,0,0,0-1.312.365,1.15,1.15,0,0,0-.473.955.932.932,0,0,0,.44.838,5.413,5.413,0,0,0,1.59.54,8.283,8.283,0,0,1,1.864.614,2.718,2.718,0,0,1,1.058.859,2.112,2.112,0,0,1,.344,1.224,2.3,2.3,0,0,1-.963,1.93,4.039,4.039,0,0,1-2.5.726,4.523,4.523,0,0,1-1.909-.382,3.105,3.105,0,0,1-1.3-1.067,2.571,2.571,0,0,1-.469-1.482h1.536a1.59,1.59,0,0,0,.618,1.224,2.4,2.4,0,0,0,1.523.452,2.476,2.476,0,0,0,1.4-.353A1.084,1.084,0,0,0,32.311,45.618Zm3.129-2.191a5.3,5.3,0,0,1,.519-2.374A3.87,3.87,0,0,1,37.4,39.425a3.932,3.932,0,0,1,2.113-.573,3.788,3.788,0,0,1,2.968,1.27A4.886,4.886,0,0,1,43.616,43.5v.108a5.351,5.351,0,0,1-.5,2.353,3.813,3.813,0,0,1-1.436,1.623,3.977,3.977,0,0,1-2.146.581,3.778,3.778,0,0,1-2.959-1.27,4.861,4.861,0,0,1-1.133-3.362Zm1.544.183a3.842,3.842,0,0,0,.693,2.4A2.349,2.349,0,0,0,41.392,46a4.2,4.2,0,0,0,.689-2.569,3.836,3.836,0,0,0-.7-2.395,2.23,2.23,0,0,0-1.864-.917,2.205,2.205,0,0,0-1.834.9A4.17,4.17,0,0,0,36.984,43.609Zm16.162,0a5.34,5.34,0,0,1-.946,3.308,3.024,3.024,0,0,1-2.54,1.249,3.131,3.131,0,0,1-2.631-1.2L46.953,48H45.542V35.25h1.536v4.756a3.113,3.113,0,0,1,2.565-1.154,3.042,3.042,0,0,1,2.569,1.237,5.5,5.5,0,0,1,.934,3.387Zm-1.536-.174A4.15,4.15,0,0,0,51,41.011a2.006,2.006,0,0,0-1.743-.855,2.255,2.255,0,0,0-2.183,1.411v3.885a2.318,2.318,0,0,0,2.2,1.411A2,2,0,0,0,51,46.008,4.413,4.413,0,0,0,51.61,43.435ZM59.421,40.4a4.6,4.6,0,0,0-.755-.058,2.024,2.024,0,0,0-2.05,1.287V48H55.08V39.019h1.494l.025,1.038a2.391,2.391,0,0,1,2.142-1.2,1.569,1.569,0,0,1,.681.116Zm4.98,7.77a3.924,3.924,0,0,1-2.972-1.2,4.452,4.452,0,0,1-1.146-3.208v-.282a5.39,5.39,0,0,1,.51-2.386,3.982,3.982,0,0,1,1.428-1.644,3.59,3.59,0,0,1,1.988-.594,3.364,3.364,0,0,1,2.723,1.154,5,5,0,0,1,.971,3.3v.639H61.82a3.193,3.193,0,0,0,.776,2.146,2.44,2.44,0,0,0,1.888.818,2.675,2.675,0,0,0,1.378-.332,3.462,3.462,0,0,0,.988-.88l.938.73A3.772,3.772,0,0,1,64.4,48.166Zm-.191-8.052a2.048,2.048,0,0,0-1.561.677,3.288,3.288,0,0,0-.78,1.9h4.5v-.116a2.925,2.925,0,0,0-.631-1.814A1.928,1.928,0,0,0,64.211,40.114Zm13.406,8.052a3.924,3.924,0,0,1-2.972-1.2A4.452,4.452,0,0,1,73.5,43.758v-.282a5.39,5.39,0,0,1,.51-2.386,3.982,3.982,0,0,1,1.428-1.644,3.59,3.59,0,0,1,1.988-.594,3.364,3.364,0,0,1,2.723,1.154,5,5,0,0,1,.971,3.3v.639H75.035a3.193,3.193,0,0,0,.776,2.146,2.44,2.44,0,0,0,1.888.818,2.675,2.675,0,0,0,1.378-.332,3.462,3.462,0,0,0,.988-.88l.938.73A3.772,3.772,0,0,1,77.616,48.166Zm-.191-8.052a2.048,2.048,0,0,0-1.561.677,3.288,3.288,0,0,0-.78,1.9h4.5v-.116a2.925,2.925,0,0,0-.631-1.814A1.928,1.928,0,0,0,77.426,40.114ZM84.564,48H83.029V35.25h1.536Zm4.125,0H87.154V35.25H88.69Zm8,0a3.226,3.226,0,0,1-.216-.946,3.426,3.426,0,0,1-2.557,1.112,3.17,3.17,0,0,1-2.179-.751,2.43,2.43,0,0,1-.851-1.905,2.539,2.539,0,0,1,1.067-2.179,5.029,5.029,0,0,1,3-.776h1.494v-.706a1.725,1.725,0,0,0-.481-1.282,1.935,1.935,0,0,0-1.419-.477,2.239,2.239,0,0,0-1.378.415,1.223,1.223,0,0,0-.556,1H91.072a2.119,2.119,0,0,1,.477-1.3,3.258,3.258,0,0,1,1.295-.992,4.356,4.356,0,0,1,1.8-.365,3.551,3.551,0,0,1,2.432.776,2.8,2.8,0,0,1,.913,2.137V45.9a5.054,5.054,0,0,0,.315,1.967V48Zm-2.548-1.17a2.7,2.7,0,0,0,1.37-.374,2.259,2.259,0,0,0,.938-.971V43.642h-1.2q-2.822,0-2.822,1.652a1.4,1.4,0,0,0,.481,1.129A1.85,1.85,0,0,0,94.143,46.83Zm11.48-1.212a1.131,1.131,0,0,0-.469-.967,4.514,4.514,0,0,0-1.635-.594,7.731,7.731,0,0,1-1.851-.6,2.633,2.633,0,0,1-1.013-.83,1.986,1.986,0,0,1-.328-1.146,2.33,2.33,0,0,1,.934-1.868,3.647,3.647,0,0,1,2.386-.764,3.753,3.753,0,0,1,2.478.789,2.5,2.5,0,0,1,.95,2.017h-1.544A1.386,1.386,0,0,0,105,40.571a2.006,2.006,0,0,0-1.349-.457,2.1,2.1,0,0,0-1.312.365,1.15,1.15,0,0,0-.473.955.932.932,0,0,0,.44.838,5.413,5.413,0,0,0,1.59.54,8.283,8.283,0,0,1,1.864.614,2.718,2.718,0,0,1,1.058.859,2.112,2.112,0,0,1,.344,1.224,2.3,2.3,0,0,1-.963,1.93,4.039,4.039,0,0,1-2.5.726,4.523,4.523,0,0,1-1.909-.382,3.105,3.105,0,0,1-1.3-1.067,2.571,2.571,0,0,1-.469-1.482h1.536a1.59,1.59,0,0,0,.618,1.224,2.4,2.4,0,0,0,1.523.452,2.476,2.476,0,0,0,1.4-.353A1.084,1.084,0,0,0,105.623,45.618Z" transform="translate(629.101 3258)" fill="#12263f"/>
    <path id="Trazado_873488" data-name="Trazado 873488" d="M-26.481-5.546h-5.062v3.428H-25.6V0h-8.578V-12.8h8.561v2.136h-5.924v3.05h5.063Zm5.88-1.125L-19-9.51h2.716l-2.707,4.658L-16.172,0H-18.9l-1.7-2.988L-22.28,0h-2.733l2.821-4.852-2.7-4.658h2.725Zm8.578-5.177V-9.51H-10.4v1.863h-1.626V-2.9a1.133,1.133,0,0,0,.2.756,1.015,1.015,0,0,0,.773.229,4.051,4.051,0,0,0,.747-.062V-.053a5.229,5.229,0,0,1-1.538.229,2.425,2.425,0,0,1-2.725-2.7V-7.646h-1.389V-9.51h1.389v-2.338ZM-4.605.176A4.668,4.668,0,0,1-8.011-1.107,4.561,4.561,0,0,1-9.325-4.526v-.246a5.745,5.745,0,0,1,.554-2.562A4.064,4.064,0,0,1-7.2-9.075a4.4,4.4,0,0,1,2.316-.611,3.947,3.947,0,0,1,3.072,1.23A5,5,0,0,1-.694-4.966v1.037H-6.75a2.36,2.36,0,0,0,.743,1.494,2.245,2.245,0,0,0,1.569.563A2.742,2.742,0,0,0-2.145-2.936L-.9-1.538A3.813,3.813,0,0,1-2.443-.277,5.075,5.075,0,0,1-4.605.176ZM-4.9-7.638a1.587,1.587,0,0,0-1.226.512,2.651,2.651,0,0,0-.6,1.466H-3.19v-.2a1.891,1.891,0,0,0-.457-1.311A1.638,1.638,0,0,0-4.9-7.638Zm10.986.51a6.9,6.9,0,0,0-.914-.07,1.86,1.86,0,0,0-1.89.976V0H.747V-9.51h2.4l.07,1.134a2.354,2.354,0,0,1,2.118-1.31,2.662,2.662,0,0,1,.791.114ZM9.65-9.51l.079,1.1a3.32,3.32,0,0,1,2.733-1.274,2.759,2.759,0,0,1,2.25.888,4.142,4.142,0,0,1,.756,2.654V0h-2.54V-6.082a1.648,1.648,0,0,0-.352-1.173,1.574,1.574,0,0,0-1.169-.365A1.747,1.747,0,0,0,9.8-6.706V0H7.26V-9.51ZM22.9,0a2.821,2.821,0,0,1-.255-.853A3.073,3.073,0,0,1,20.25.176a3.376,3.376,0,0,1-2.316-.809,2.6,2.6,0,0,1-.918-2.039,2.687,2.687,0,0,1,1.121-2.32,5.529,5.529,0,0,1,3.239-.817h1.169v-.545a1.567,1.567,0,0,0-.338-1.055,1.331,1.331,0,0,0-1.068-.4,1.513,1.513,0,0,0-1.006.308,1.045,1.045,0,0,0-.365.844h-2.54a2.551,2.551,0,0,1,.51-1.529,3.37,3.37,0,0,1,1.441-1.1,5.253,5.253,0,0,1,2.092-.4A4.15,4.15,0,0,1,24.06-8.8a3.09,3.09,0,0,1,1.033,2.483V-2.2a4.546,4.546,0,0,0,.378,2.048V0ZM20.8-1.767a2.188,2.188,0,0,0,1.037-.25,1.645,1.645,0,0,0,.7-.672V-4.324h-.949q-1.907,0-2.03,1.318l-.009.149a1.017,1.017,0,0,0,.334.782A1.3,1.3,0,0,0,20.8-1.767Zm11.391-.861a.818.818,0,0,0-.461-.734,5.241,5.241,0,0,0-1.481-.479q-3.393-.712-3.393-2.883a2.613,2.613,0,0,1,1.05-2.114,4.237,4.237,0,0,1,2.747-.848,4.56,4.56,0,0,1,2.9.853,2.687,2.687,0,0,1,1.085,2.215H32.1a1.229,1.229,0,0,0-.352-.9,1.488,1.488,0,0,0-1.1-.356,1.52,1.52,0,0,0-.993.29.916.916,0,0,0-.352.738.783.783,0,0,0,.4.681,4.114,4.114,0,0,0,1.349.448,11.019,11.019,0,0,1,1.6.426,2.628,2.628,0,0,1,2.013,2.558,2.481,2.481,0,0,1-1.116,2.1,4.815,4.815,0,0,1-2.883.8A5.029,5.029,0,0,1,28.542-.25a3.561,3.561,0,0,1-1.455-1.169,2.716,2.716,0,0,1-.527-1.6h2.408a1.326,1.326,0,0,0,.5,1.037,1.987,1.987,0,0,0,1.248.36,1.839,1.839,0,0,0,1.1-.277A.861.861,0,0,0,32.194-2.628ZM-96.443,42.414h-5.238V46.7H-95.6V48h-7.678V35.914h7.6v1.3h-6V41.11h5.238Zm7.819,3.2a1.131,1.131,0,0,0-.469-.967,4.514,4.514,0,0,0-1.635-.594,7.731,7.731,0,0,1-1.851-.6,2.633,2.633,0,0,1-1.013-.83,1.986,1.986,0,0,1-.328-1.146,2.33,2.33,0,0,1,.934-1.868,3.647,3.647,0,0,1,2.386-.764,3.753,3.753,0,0,1,2.478.789,2.5,2.5,0,0,1,.95,2.017h-1.544a1.386,1.386,0,0,0-.535-1.087,2.006,2.006,0,0,0-1.349-.457,2.1,2.1,0,0,0-1.312.365,1.15,1.15,0,0,0-.473.955.932.932,0,0,0,.44.838,5.413,5.413,0,0,0,1.59.54,8.283,8.283,0,0,1,1.864.614,2.718,2.718,0,0,1,1.058.859,2.112,2.112,0,0,1,.344,1.224,2.3,2.3,0,0,1-.963,1.93,4.039,4.039,0,0,1-2.5.726,4.523,4.523,0,0,1-1.909-.382,3.105,3.105,0,0,1-1.3-1.067,2.571,2.571,0,0,1-.469-1.482h1.536a1.59,1.59,0,0,0,.618,1.224,2.4,2.4,0,0,0,1.523.452,2.476,2.476,0,0,0,1.4-.353A1.084,1.084,0,0,0-88.623,45.618Zm7.371-2.183a5.261,5.261,0,0,1,.979-3.324,3.1,3.1,0,0,1,2.565-1.258,3.115,3.115,0,0,1,2.5,1.079V35.25h1.536V48h-1.411l-.075-.963a3.127,3.127,0,0,1-2.565,1.129,3.068,3.068,0,0,1-2.544-1.278,5.321,5.321,0,0,1-.984-3.337Zm1.536.174A3.984,3.984,0,0,0-79.086,46a2.039,2.039,0,0,0,1.743.863,2.24,2.24,0,0,0,2.133-1.312V41.426a2.257,2.257,0,0,0-2.117-1.27,2.049,2.049,0,0,0-1.76.872A4.386,4.386,0,0,0-79.717,43.609ZM-69.623,48h-1.536V39.019h1.536Zm-1.66-11.364a.917.917,0,0,1,.228-.631.857.857,0,0,1,.677-.257.87.87,0,0,1,.681.257.907.907,0,0,1,.232.631.877.877,0,0,1-.232.623.886.886,0,0,1-.681.249.872.872,0,0,1-.677-.249A.886.886,0,0,1-71.283,36.636ZM-66.41,48V40.206H-67.83V39.019h1.419V38.1a3.058,3.058,0,0,1,.772-2.233,2.916,2.916,0,0,1,2.183-.789,4.054,4.054,0,0,1,1.054.14l-.083,1.238a4.41,4.41,0,0,0-.83-.075,1.5,1.5,0,0,0-1.154.437,1.773,1.773,0,0,0-.407,1.253v.949h1.917v1.187h-1.917V48Zm6.815,0h-1.544V39.019H-59.6Zm.017-12.742h1.859l-2.225,2.44-1.237,0Zm6.118,11.654a2.212,2.212,0,0,0,1.436-.5,1.752,1.752,0,0,0,.681-1.245h1.453a2.785,2.785,0,0,1-.531,1.469,3.5,3.5,0,0,1-1.307,1.112,3.772,3.772,0,0,1-1.731.415,3.7,3.7,0,0,1-2.918-1.224,4.877,4.877,0,0,1-1.083-3.349v-.257A5.407,5.407,0,0,1-56.981,41,3.667,3.667,0,0,1-55.6,39.417a3.926,3.926,0,0,1,2.129-.564,3.6,3.6,0,0,1,2.511.9,3.234,3.234,0,0,1,1.067,2.349h-1.453A2.116,2.116,0,0,0-52,40.675a2.053,2.053,0,0,0-1.465-.56,2.149,2.149,0,0,0-1.814.843,3.957,3.957,0,0,0-.643,2.436v.291a3.878,3.878,0,0,0,.639,2.391A2.16,2.16,0,0,0-53.461,46.913ZM-46.5,48h-1.536V39.019H-46.5Zm-1.66-11.364a.917.917,0,0,1,.228-.631.857.857,0,0,1,.677-.257.87.87,0,0,1,.681.257.907.907,0,0,1,.232.631.877.877,0,0,1-.232.623.886.886,0,0,1-.681.249.872.872,0,0,1-.677-.249A.886.886,0,0,1-48.157,36.636ZM-42.371,48h-1.536V35.25h1.536Zm14.252-4.391a5.378,5.378,0,0,1-.938,3.3,3.006,3.006,0,0,1-2.54,1.253,3.294,3.294,0,0,1-2.573-1.038v4.325h-1.536V39.019h1.4l.075,1a3.163,3.163,0,0,1,2.606-1.162,3.063,3.063,0,0,1,2.561,1.22,5.437,5.437,0,0,1,.942,3.4Zm-1.536-.174a3.968,3.968,0,0,0-.647-2.4,2.086,2.086,0,0,0-1.776-.88,2.257,2.257,0,0,0-2.092,1.237v4.292a2.262,2.262,0,0,0,2.108,1.229,2.076,2.076,0,0,0,1.756-.876A4.332,4.332,0,0,0-29.655,43.435Zm3.08-.008a5.3,5.3,0,0,1,.519-2.374,3.87,3.87,0,0,1,1.444-1.627,3.932,3.932,0,0,1,2.113-.573,3.788,3.788,0,0,1,2.968,1.27A4.886,4.886,0,0,1-18.4,43.5v.108a5.351,5.351,0,0,1-.5,2.353,3.813,3.813,0,0,1-1.436,1.623,3.977,3.977,0,0,1-2.146.581,3.778,3.778,0,0,1-2.959-1.27,4.861,4.861,0,0,1-1.133-3.362Zm1.544.183a3.842,3.842,0,0,0,.693,2.4,2.218,2.218,0,0,0,1.855.9A2.2,2.2,0,0,0-20.623,46a4.2,4.2,0,0,0,.689-2.569,3.836,3.836,0,0,0-.7-2.395,2.23,2.23,0,0,0-1.864-.917,2.205,2.205,0,0,0-1.834.9A4.17,4.17,0,0,0-25.031,43.609Zm8.185-.174a5.261,5.261,0,0,1,.979-3.324A3.1,3.1,0,0,1-13.3,38.853a3.115,3.115,0,0,1,2.5,1.079V35.25h1.536V48h-1.411l-.075-.963a3.127,3.127,0,0,1-2.565,1.129,3.068,3.068,0,0,1-2.544-1.278,5.321,5.321,0,0,1-.984-3.337Zm1.536.174A3.984,3.984,0,0,0-14.68,46a2.039,2.039,0,0,0,1.743.863A2.24,2.24,0,0,0-10.8,45.551V41.426a2.257,2.257,0,0,0-2.117-1.27,2.049,2.049,0,0,0-1.76.872A4.386,4.386,0,0,0-15.311,43.609Zm12.152,4.557a3.924,3.924,0,0,1-2.972-1.2,4.452,4.452,0,0,1-1.146-3.208v-.282a5.39,5.39,0,0,1,.51-2.386,3.982,3.982,0,0,1,1.428-1.644,3.59,3.59,0,0,1,1.988-.594A3.364,3.364,0,0,1-.627,40.006a5,5,0,0,1,.971,3.3v.639H-5.74a3.193,3.193,0,0,0,.776,2.146,2.44,2.44,0,0,0,1.888.818A2.675,2.675,0,0,0-1.7,46.581,3.462,3.462,0,0,0-.71,45.7l.938.73A3.772,3.772,0,0,1-3.158,48.166Zm-.191-8.052a2.048,2.048,0,0,0-1.561.677,3.288,3.288,0,0,0-.78,1.9h4.5v-.116a2.925,2.925,0,0,0-.631-1.814A1.928,1.928,0,0,0-3.349,40.114Zm9.812.282a4.6,4.6,0,0,0-.755-.058,2.024,2.024,0,0,0-2.05,1.287V48H2.121V39.019H3.615l.025,1.038a2.391,2.391,0,0,1,2.142-1.2,1.569,1.569,0,0,1,.681.116Zm7.064-1.378.042,1a3.317,3.317,0,0,1,2.665-1.162A2.568,2.568,0,0,1,18.8,40.3a3.4,3.4,0,0,1,1.166-1.046,3.445,3.445,0,0,1,1.7-.4q2.955,0,3,3.129V48H23.13V42.073a2.062,2.062,0,0,0-.44-1.44,1.937,1.937,0,0,0-1.478-.477,2.036,2.036,0,0,0-1.419.51,2.071,2.071,0,0,0-.656,1.374V48H17.594V42.115a1.713,1.713,0,0,0-1.917-1.959,2.055,2.055,0,0,0-2.067,1.287V48H12.073V39.019Zm13.049,4.408a5.3,5.3,0,0,1,.519-2.374,3.87,3.87,0,0,1,1.444-1.627,3.932,3.932,0,0,1,2.113-.573,3.788,3.788,0,0,1,2.968,1.27A4.886,4.886,0,0,1,34.751,43.5v.108a5.351,5.351,0,0,1-.5,2.353,3.813,3.813,0,0,1-1.436,1.623,3.977,3.977,0,0,1-2.146.581,3.778,3.778,0,0,1-2.959-1.27,4.861,4.861,0,0,1-1.133-3.362Zm1.544.183a3.842,3.842,0,0,0,.693,2.4A2.349,2.349,0,0,0,32.527,46a4.2,4.2,0,0,0,.689-2.569,3.836,3.836,0,0,0-.7-2.395,2.23,2.23,0,0,0-1.864-.917,2.205,2.205,0,0,0-1.834.9A4.17,4.17,0,0,0,28.119,43.609Zm8.185-.174a5.261,5.261,0,0,1,.979-3.324,3.333,3.333,0,0,1,5.063-.178V35.25h1.536V48H42.471l-.075-.963a3.127,3.127,0,0,1-2.565,1.129,3.068,3.068,0,0,1-2.544-1.278,5.321,5.321,0,0,1-.984-3.337Zm1.536.174A3.984,3.984,0,0,0,38.47,46a2.039,2.039,0,0,0,1.743.863,2.24,2.24,0,0,0,2.133-1.312V41.426a2.257,2.257,0,0,0-2.117-1.27,2.049,2.049,0,0,0-1.76.872A4.386,4.386,0,0,0,37.839,43.609ZM47.933,48H46.4V39.019h1.536Zm-1.66-11.364a.917.917,0,0,1,.228-.631.857.857,0,0,1,.677-.257.87.87,0,0,1,.681.257.907.907,0,0,1,.232.631.877.877,0,0,1-.232.623.886.886,0,0,1-.681.249.872.872,0,0,1-.677-.249A.886.886,0,0,1,46.273,36.636ZM50.9,48V40.206H49.485V39.019H50.9v-.764a3.12,3.12,0,0,1,.859-2.341,3.332,3.332,0,0,1,2.428-.838,7.311,7.311,0,0,1,2.349.506l-.257,1.295a5.321,5.321,0,0,0-1.976-.415,1.933,1.933,0,0,0-1.424.444,1.831,1.831,0,0,0-.436,1.332v.78h1.834v1.187H52.448V48Zm6.4,0H55.76V39.019H57.3Zm6.1-1.087a2.212,2.212,0,0,0,1.436-.5,1.752,1.752,0,0,0,.681-1.245h1.453a2.785,2.785,0,0,1-.531,1.469,3.5,3.5,0,0,1-1.307,1.112,3.772,3.772,0,0,1-1.731.415,3.7,3.7,0,0,1-2.918-1.224A4.877,4.877,0,0,1,59.4,43.592v-.257A5.407,5.407,0,0,1,59.886,41a3.667,3.667,0,0,1,1.382-1.585,3.926,3.926,0,0,1,2.129-.564,3.6,3.6,0,0,1,2.511.9,3.234,3.234,0,0,1,1.067,2.349H65.522a2.116,2.116,0,0,0-.66-1.432,2.053,2.053,0,0,0-1.465-.56,2.149,2.149,0,0,0-1.814.843,3.957,3.957,0,0,0-.643,2.436v.291a3.878,3.878,0,0,0,.639,2.391A2.16,2.16,0,0,0,63.406,46.913ZM74.246,48a3.226,3.226,0,0,1-.216-.946,3.426,3.426,0,0,1-2.557,1.112,3.17,3.17,0,0,1-2.179-.751,2.43,2.43,0,0,1-.851-1.905,2.539,2.539,0,0,1,1.067-2.179,5.029,5.029,0,0,1,3-.776h1.494v-.706a1.725,1.725,0,0,0-.481-1.282,1.935,1.935,0,0,0-1.419-.477,2.239,2.239,0,0,0-1.378.415,1.223,1.223,0,0,0-.556,1H68.627a2.119,2.119,0,0,1,.477-1.3,3.258,3.258,0,0,1,1.295-.992,4.356,4.356,0,0,1,1.8-.365,3.551,3.551,0,0,1,2.432.776,2.8,2.8,0,0,1,.913,2.137V45.9a5.054,5.054,0,0,0,.315,1.967V48ZM71.7,46.83a2.7,2.7,0,0,0,1.37-.374,2.259,2.259,0,0,0,.938-.971V43.642H72.8q-2.822,0-2.822,1.652a1.4,1.4,0,0,0,.481,1.129A1.85,1.85,0,0,0,71.7,46.83ZM82.29,40.4a4.6,4.6,0,0,0-.755-.058,2.024,2.024,0,0,0-2.05,1.287V48H77.948V39.019h1.494l.025,1.038a2.391,2.391,0,0,1,2.142-1.2,1.569,1.569,0,0,1,.681.116Zm3.08,7.6H83.834V35.25h1.536Zm8,0a3.226,3.226,0,0,1-.216-.946A3.426,3.426,0,0,1,90.6,48.166a3.17,3.17,0,0,1-2.179-.751,2.43,2.43,0,0,1-.851-1.905,2.539,2.539,0,0,1,1.067-2.179,5.029,5.029,0,0,1,3-.776h1.494v-.706a1.725,1.725,0,0,0-.481-1.282,1.935,1.935,0,0,0-1.419-.477,2.239,2.239,0,0,0-1.378.415,1.223,1.223,0,0,0-.556,1H87.752a2.119,2.119,0,0,1,.477-1.3,3.258,3.258,0,0,1,1.295-.992,4.356,4.356,0,0,1,1.8-.365,3.551,3.551,0,0,1,2.432.776,2.8,2.8,0,0,1,.913,2.137V45.9a5.054,5.054,0,0,0,.315,1.967V48Zm-2.548-1.17a2.7,2.7,0,0,0,1.37-.374,2.259,2.259,0,0,0,.938-.971V43.642h-1.2q-2.822,0-2.822,1.652a1.4,1.4,0,0,0,.481,1.129A1.85,1.85,0,0,0,90.823,46.83Zm11.48-1.212a1.131,1.131,0,0,0-.469-.967,4.514,4.514,0,0,0-1.635-.594,7.731,7.731,0,0,1-1.851-.6,2.633,2.633,0,0,1-1.013-.83,1.986,1.986,0,0,1-.328-1.146,2.33,2.33,0,0,1,.934-1.868,3.647,3.647,0,0,1,2.386-.764,3.753,3.753,0,0,1,2.478.789,2.5,2.5,0,0,1,.95,2.017h-1.544a1.386,1.386,0,0,0-.535-1.087,2.006,2.006,0,0,0-1.349-.457,2.1,2.1,0,0,0-1.312.365,1.15,1.15,0,0,0-.473.955.932.932,0,0,0,.44.838,5.413,5.413,0,0,0,1.59.54,8.283,8.283,0,0,1,1.864.614,2.718,2.718,0,0,1,1.058.859,2.112,2.112,0,0,1,.344,1.224,2.3,2.3,0,0,1-.963,1.93,4.039,4.039,0,0,1-2.5.726,4.523,4.523,0,0,1-1.909-.382,3.105,3.105,0,0,1-1.3-1.067,2.571,2.571,0,0,1-.469-1.482h1.536a1.59,1.59,0,0,0,.618,1.224,2.4,2.4,0,0,0,1.523.452,2.476,2.476,0,0,0,1.4-.353A1.084,1.084,0,0,0,102.3,45.618Z" transform="translate(926.101 3258)" fill="#12263f"/>
    <path id="Trazado_873490" data-name="Trazado 873490" d="M5.871-3.173l2.9-9.624h2.936L7.251,0H4.5L.062-12.8H2.988ZM17.851,0A2.821,2.821,0,0,1,17.6-.853,3.073,3.073,0,0,1,15.2.176,3.376,3.376,0,0,1,12.88-.633a2.6,2.6,0,0,1-.918-2.039,2.687,2.687,0,0,1,1.121-2.32,5.529,5.529,0,0,1,3.239-.817H17.49v-.545a1.567,1.567,0,0,0-.338-1.055,1.331,1.331,0,0,0-1.068-.4,1.513,1.513,0,0,0-1.006.308,1.045,1.045,0,0,0-.365.844h-2.54a2.551,2.551,0,0,1,.51-1.529,3.37,3.37,0,0,1,1.441-1.1,5.253,5.253,0,0,1,2.092-.4,4.15,4.15,0,0,1,2.791.883,3.09,3.09,0,0,1,1.033,2.483V-2.2a4.546,4.546,0,0,0,.378,2.048V0Zm-2.1-1.767a2.188,2.188,0,0,0,1.037-.25,1.645,1.645,0,0,0,.7-.672V-4.324h-.949q-1.907,0-2.03,1.318l-.009.149a1.017,1.017,0,0,0,.334.782A1.3,1.3,0,0,0,15.75-1.767ZM27.334-7.128a6.9,6.9,0,0,0-.914-.07,1.86,1.86,0,0,0-1.89.976V0H21.99V-9.51h2.4l.07,1.134a2.354,2.354,0,0,1,2.118-1.31,2.662,2.662,0,0,1,.791.114ZM31.236,0H28.688V-9.51h2.549Zm-2.7-11.971a1.251,1.251,0,0,1,.382-.94,1.436,1.436,0,0,1,1.042-.369A1.44,1.44,0,0,1,31-12.911a1.244,1.244,0,0,1,.387.94,1.247,1.247,0,0,1-.391.949,1.443,1.443,0,0,1-1.033.369,1.443,1.443,0,0,1-1.033-.369A1.247,1.247,0,0,1,28.538-11.971ZM38.839,0a2.821,2.821,0,0,1-.255-.853,3.073,3.073,0,0,1-2.4,1.028,3.376,3.376,0,0,1-2.316-.809,2.6,2.6,0,0,1-.918-2.039,2.687,2.687,0,0,1,1.121-2.32A5.529,5.529,0,0,1,37.31-5.81h1.169v-.545a1.567,1.567,0,0,0-.338-1.055,1.331,1.331,0,0,0-1.068-.4,1.513,1.513,0,0,0-1.006.308,1.045,1.045,0,0,0-.365.844h-2.54a2.551,2.551,0,0,1,.51-1.529,3.37,3.37,0,0,1,1.441-1.1,5.253,5.253,0,0,1,2.092-.4,4.15,4.15,0,0,1,2.791.883,3.09,3.09,0,0,1,1.033,2.483V-2.2a4.546,4.546,0,0,0,.378,2.048V0Zm-2.1-1.767a2.188,2.188,0,0,0,1.037-.25,1.645,1.645,0,0,0,.7-.672V-4.324h-.949q-1.907,0-2.03,1.318l-.009.149a1.017,1.017,0,0,0,.334.782A1.3,1.3,0,0,0,36.738-1.767Zm14.81-2.9A5.758,5.758,0,0,1,50.572-1.1,3.231,3.231,0,0,1,47.848.176a2.969,2.969,0,0,1-2.47-1.187L45.264,0H42.979V-13.5h2.54v4.843A2.893,2.893,0,0,1,47.83-9.686a3.258,3.258,0,0,1,2.729,1.279,5.767,5.767,0,0,1,.989,3.6Zm-2.54-.185a3.783,3.783,0,0,0-.457-2.1,1.545,1.545,0,0,0-1.362-.664,1.676,1.676,0,0,0-1.67.993v3.753a1.7,1.7,0,0,0,1.688,1,1.568,1.568,0,0,0,1.617-1.213A6.257,6.257,0,0,0,49.008-4.852ZM55.793,0H53.244V-13.5h2.549Zm6.469.176a4.668,4.668,0,0,1-3.406-1.283,4.561,4.561,0,0,1-1.314-3.419v-.246A5.745,5.745,0,0,1,58.1-7.334a4.064,4.064,0,0,1,1.569-1.74,4.4,4.4,0,0,1,2.316-.611,3.947,3.947,0,0,1,3.072,1.23,5,5,0,0,1,1.121,3.489v1.037H60.117a2.36,2.36,0,0,0,.743,1.494,2.245,2.245,0,0,0,1.569.563,2.742,2.742,0,0,0,2.294-1.063l1.248,1.4A3.813,3.813,0,0,1,64.424-.277,5.075,5.075,0,0,1,62.262.176Zm-.29-7.813a1.587,1.587,0,0,0-1.226.512,2.651,2.651,0,0,0-.6,1.466h3.533v-.2a1.891,1.891,0,0,0-.457-1.311A1.638,1.638,0,0,0,61.972-7.638Zm10.793,5.01a.818.818,0,0,0-.461-.734,5.241,5.241,0,0,0-1.481-.479Q67.43-4.553,67.43-6.724a2.613,2.613,0,0,1,1.05-2.114,4.237,4.237,0,0,1,2.747-.848,4.56,4.56,0,0,1,2.9.853,2.687,2.687,0,0,1,1.085,2.215h-2.54a1.229,1.229,0,0,0-.352-.9,1.488,1.488,0,0,0-1.1-.356,1.52,1.52,0,0,0-.993.29.916.916,0,0,0-.352.738.783.783,0,0,0,.4.681,4.114,4.114,0,0,0,1.349.448,11.019,11.019,0,0,1,1.6.426,2.628,2.628,0,0,1,2.013,2.558,2.481,2.481,0,0,1-1.116,2.1,4.815,4.815,0,0,1-2.883.8A5.029,5.029,0,0,1,69.113-.25a3.561,3.561,0,0,1-1.455-1.169,2.716,2.716,0,0,1-.527-1.6h2.408a1.326,1.326,0,0,0,.5,1.037,1.987,1.987,0,0,0,1.248.36,1.839,1.839,0,0,0,1.1-.277A.861.861,0,0,0,72.765-2.628Z" transform="translate(234.101 2978)" fill="#12263f"/>
  </g>
</svg>
