<svg xmlns="http://www.w3.org/2000/svg" xmlns:xlink="http://www.w3.org/1999/xlink" width="400" height="796" viewBox="0 0 400 796">
  <defs>
    <clipPath id="clip-path">
      <rect id="Rectángulo_378865" data-name="Rectángulo 378865" width="710.412" height="363.089" fill="none"/>
    </clipPath>
    <clipPath id="clip-path-2">
      <rect id="Rectángulo_378866" data-name="Rectángulo 378866" width="710.412" height="337.92" fill="none"/>
    </clipPath>
    <clipPath id="clip-path-6">
      <rect id="Rectángulo_378870" data-name="Rectángulo 378870" width="214.389" height="86.088" fill="none"/>
    </clipPath>
    <clipPath id="clip-path-7">
      <rect id="Rectángulo_378871" data-name="Rectángulo 378871" width="16.69" height="16.691" fill="none"/>
    </clipPath>
  </defs>
  <g id="img6_1" transform="translate(8714 8476)">
    <g id="Grupo_1074944" data-name="Grupo 1074944" transform="translate(-40 1131)">
      <rect id="Rectángulo_378860" data-name="Rectángulo 378860" width="400" height="796" transform="translate(-8674 -9607)" fill="#deecfb"/>
    </g>
    <line id="Línea_3191" data-name="Línea 3191" y1="81.914" x2="209.13" transform="translate(-8504.026 -7947.104) rotate(-90)" fill="none" stroke="#b9daff" stroke-miterlimit="10" stroke-width="3"/>
    <line id="Línea_3192" data-name="Línea 3192" y1="81.914" x2="155.403" transform="translate(-8504.026 -8181.702) rotate(-90)" fill="none" stroke="#b9daff" stroke-miterlimit="10" stroke-width="3"/>
    <path id="Trazado_615665" data-name="Trazado 615665" d="M209.13,81.914,0,0" transform="translate(-8504.026 -7972.572) rotate(-90)" fill="none" stroke="#b9daff" stroke-width="3"/>
    <line id="Línea_3194" data-name="Línea 3194" x1="155.403" y1="81.914" transform="translate(-8504.026 -7791.701) rotate(-90)" fill="none" stroke="#b9daff" stroke-miterlimit="10" stroke-width="3"/>
    <g id="Grupo_1074905" data-name="Grupo 1074905" transform="translate(-8665.502 -7711) rotate(-90)">
      <g id="Grupo_1074904" data-name="Grupo 1074904" transform="translate(0 -29.042)" clip-path="url(#clip-path)">
        <path id="Trazado_615647" data-name="Trazado 615647" d="M154.8,0H7.427C3.325,0,0,4.127,0,9.218v111c0,5.091,3.325,9.221,7.427,9.221H66.461l2.452,5.269,12.2,26.228,12.2-26.228,2.45-5.269H154.8c4.1,0,7.429-4.13,7.429-9.221v-111C162.227,4.127,158.9,0,154.8,0" transform="translate(548.185)" fill="#b9daff"/>
        <path id="Trazado_615649" data-name="Trazado 615649" d="M6.685,0h153.3a6.948,6.948,0,0,1,6.685,7.183,6.948,6.948,0,0,1-6.685,7.183H6.685A6.948,6.948,0,0,1,0,7.183,6.948,6.948,0,0,1,6.685,0" transform="translate(0 184.375)" fill="#3656b3"/>
        <path id="Trazado_615650" data-name="Trazado 615650" d="M6.685,0h163.69a6.948,6.948,0,0,1,6.685,7.183,6.948,6.948,0,0,1-6.685,7.183H6.685A6.948,6.948,0,0,1,0,7.183,6.948,6.948,0,0,1,6.685,0" transform="translate(173.828 184.375)" fill="#315884"/>
        <path id="Trazado_615651" data-name="Trazado 615651" d="M176.651,7.183h0a6.948,6.948,0,0,1-6.685,7.183H6.685A6.948,6.948,0,0,1,0,7.183,6.948,6.948,0,0,1,6.685,0h163.28a6.948,6.948,0,0,1,6.685,7.183" transform="translate(358.019 184.375)" fill="#59c4c8"/>
        <path id="Trazado_615652" data-name="Trazado 615652" d="M168.612,7.183h0a6.948,6.948,0,0,1-6.685,7.183H6.687A6.948,6.948,0,0,1,0,7.183,6.948,6.948,0,0,1,6.687,0H161.926a6.948,6.948,0,0,1,6.685,7.183" transform="translate(541.799 184.375)" fill="#fe9b4f"/>
        <path id="Trazado_615653" data-name="Trazado 615653" d="M56.555,30.383c0,16.78-12.66,30.383-28.276,30.383S0,47.162,0,30.383,12.66,0,28.278,0,56.555,13.6,56.555,30.383" transform="translate(55.059 160.933)" fill="#3656b3"/>
        <path id="Trazado_615718" data-name="Trazado 615718" d="M154.8,0H7.427C3.325,0,0,4.127,0,9.218v111c0,5.091,3.325,9.221,7.427,9.221H66.461l2.452,5.269,12.2,26.228,12.2-26.228,2.45-5.269H154.8c4.1,0,7.429-4.13,7.429-9.221v-111C162.227,4.127,158.9,0,154.8,0" transform="translate(365.231)" fill="#b9daff"/>
        <path id="Trazado_615719" data-name="Trazado 615719" d="M154.8,0H7.427C3.325,0,0,4.127,0,9.218v111c0,5.091,3.325,9.221,7.427,9.221H66.461l2.452,5.269,12.2,26.228,12.2-26.228,2.45-5.269H154.8c4.1,0,7.429-4.13,7.429-9.221v-111C162.227,4.127,158.9,0,154.8,0" transform="translate(182.276)" fill="#b9daff"/>
        <path id="Trazado_615720" data-name="Trazado 615720" d="M154.8,0H7.427C3.325,0,0,4.127,0,9.218v111c0,5.091,3.325,9.221,7.427,9.221H66.461l2.452,5.269,12.2,26.228,12.2-26.228,2.45-5.269H154.8c4.1,0,7.429-4.13,7.429-9.221v-111C162.227,4.127,158.9,0,154.8,0" transform="translate(-0.678)" fill="#b9daff"/>
      </g>
    </g>
    <g id="Grupo_1074907" data-name="Grupo 1074907" transform="translate(-8665.502 -7711) rotate(-90)">
      <g id="Grupo_1074906" data-name="Grupo 1074906" clip-path="url(#clip-path-2)">
        <path id="Trazado_615655" data-name="Trazado 615655" d="M56.555,28.276A28.277,28.277,0,1,1,28.278,0,28.277,28.277,0,0,1,56.555,28.276" transform="translate(234.081 133.199)" fill="#315884"/>
        <path id="Trazado_615656" data-name="Trazado 615656" d="M46.979,23.49A23.489,23.489,0,1,1,23.488,0a23.49,23.49,0,0,1,23.49,23.49" transform="translate(238.869 137.985)" fill="#315884"/>
      </g>
    </g>
    <g id="Grupo_1074909" data-name="Grupo 1074909" transform="translate(-8665.502 -7711) rotate(-90)">
      <g id="Grupo_1074908" data-name="Grupo 1074908" clip-path="url(#clip-path-2)">
        <path id="Trazado_615657" data-name="Trazado 615657" d="M56.555,28.276A28.277,28.277,0,1,1,28.278,0,28.277,28.277,0,0,1,56.555,28.276" transform="translate(418.067 133.199)" fill="#59c4c8"/>
        <path id="Trazado_615658" data-name="Trazado 615658" d="M46.979,23.49A23.489,23.489,0,1,1,23.488,0a23.49,23.49,0,0,1,23.49,23.49" transform="translate(422.856 137.985)" fill="#59c4c8"/>
      </g>
    </g>
    <g id="Grupo_1074911" data-name="Grupo 1074911" transform="translate(-8665.502 -7711) rotate(-90)">
      <g id="Grupo_1074910" data-name="Grupo 1074910" clip-path="url(#clip-path-2)">
        <path id="Trazado_615659" data-name="Trazado 615659" d="M56.555,28.276A28.277,28.277,0,1,1,28.278,0,28.277,28.277,0,0,1,56.555,28.276" transform="translate(597.829 133.199)" fill="#fe9b4f"/>
        <path id="Trazado_615660" data-name="Trazado 615660" d="M46.978,23.49A23.489,23.489,0,1,1,23.488,0a23.49,23.49,0,0,1,23.49,23.49" transform="translate(602.617 137.985)" fill="#fe9b4f"/>
      </g>
    </g>
    <g id="Grupo_1074925" data-name="Grupo 1074925" transform="translate(-8665.502 -7711) rotate(-90)">
      <g id="Grupo_1074924" data-name="Grupo 1074924" clip-path="url(#clip-path-2)">
        <path id="Trazado_615661" data-name="Trazado 615661" d="M213.224,93.258H8.337A8.337,8.337,0,0,1,0,84.922V8.337A8.336,8.336,0,0,1,8.337,0H213.224a8.336,8.336,0,0,1,8.337,8.337V84.922a8.337,8.337,0,0,1-8.337,8.337" transform="translate(125.323 244.662)" fill="#b9daff"/>
        <g id="Grupo_1074914" data-name="Grupo 1074914" transform="translate(128.909 248.247)" style="mix-blend-mode: multiply;isolation: isolate">
          <g id="Grupo_1074913" data-name="Grupo 1074913">
            <g id="Grupo_1074912" data-name="Grupo 1074912" clip-path="url(#clip-path-6)">
              <path id="Rectángulo_378869" data-name="Rectángulo 378869" d="M2.069,0H211.3a2.068,2.068,0,0,1,2.068,2.068V82.994a2.069,2.069,0,0,1-2.069,2.069H2.069A2.069,2.069,0,0,1,0,82.994V2.069A2.069,2.069,0,0,1,2.069,0Z" transform="translate(0.512 0.512)" fill="none" stroke="#b9daff" stroke-miterlimit="10" stroke-width="0.5"/>
            </g>
          </g>
        </g>
        <path id="Trazado_615662" data-name="Trazado 615662" d="M25.152,12.576A12.576,12.576,0,1,1,12.576,0,12.576,12.576,0,0,1,25.152,12.576" transform="translate(223.527 230.813)" fill="#b9daff"/>
        <g id="Grupo_1074917" data-name="Grupo 1074917" transform="translate(227.758 235.044)" style="mix-blend-mode: multiply;isolation: isolate">
          <g id="Grupo_1074916" data-name="Grupo 1074916">
            <g id="Grupo_1074915" data-name="Grupo 1074915" clip-path="url(#clip-path-7)">
              <ellipse id="Elipse_6027" data-name="Elipse 6027" cx="7.833" cy="7.833" rx="7.833" ry="7.833" transform="translate(0.512 0.513)" fill="none" stroke="#b9daff" stroke-miterlimit="10" stroke-width="0.5"/>
            </g>
          </g>
        </g>
        <path id="Trazado_615663" data-name="Trazado 615663" d="M213.224,93.258H8.337A8.337,8.337,0,0,1,0,84.922V8.337A8.336,8.336,0,0,1,8.337,0H213.224a8.336,8.336,0,0,1,8.337,8.337V84.922a8.338,8.338,0,0,1-8.337,8.337" transform="translate(359.923 244.662)" fill="#b9daff"/>
        <g id="Grupo_1074920" data-name="Grupo 1074920" transform="translate(363.508 248.247)" style="mix-blend-mode: multiply;isolation: isolate">
          <g id="Grupo_1074919" data-name="Grupo 1074919">
            <g id="Grupo_1074918" data-name="Grupo 1074918" clip-path="url(#clip-path-6)">
              <path id="Rectángulo_378872" data-name="Rectángulo 378872" d="M2.069,0H211.3a2.068,2.068,0,0,1,2.068,2.068V82.994a2.069,2.069,0,0,1-2.069,2.069H2.069A2.069,2.069,0,0,1,0,82.994V2.069A2.069,2.069,0,0,1,2.069,0Z" transform="translate(0.512 0.512)" fill="none" stroke="#b9daff" stroke-miterlimit="10" stroke-width="0.5"/>
            </g>
          </g>
        </g>
        <path id="Trazado_615664" data-name="Trazado 615664" d="M25.152,12.576A12.576,12.576,0,1,1,12.576,0,12.576,12.576,0,0,1,25.152,12.576" transform="translate(458.127 230.813)" fill="#b9daff"/>
        <g id="Grupo_1074923" data-name="Grupo 1074923" transform="translate(462.358 235.044)" style="mix-blend-mode: multiply;isolation: isolate">
          <g id="Grupo_1074922" data-name="Grupo 1074922">
            <g id="Grupo_1074921" data-name="Grupo 1074921" clip-path="url(#clip-path-7)">
              <ellipse id="Elipse_6028" data-name="Elipse 6028" cx="7.833" cy="7.833" rx="7.833" ry="7.833" transform="translate(0.512 0.513)" fill="none" stroke="#b9daff" stroke-miterlimit="10" stroke-width="0.5"/>
            </g>
          </g>
        </g>
      </g>
    </g>
    <rect id="Rectángulo_378876" data-name="Rectángulo 378876" width="710.412" height="337.92" transform="translate(-8665.502 -7711) rotate(-90)" fill="none"/>
    <path id="Trazado_616967" data-name="Trazado 616967" d="M-22.866,0h-2.051V-9.953h2.051Zm3.589-7.4.062.854a2.582,2.582,0,0,1,2.126-.991,2.146,2.146,0,0,1,1.75.69,3.221,3.221,0,0,1,.588,2.064V0h-1.976V-4.73A1.282,1.282,0,0,0-17-5.643a1.224,1.224,0,0,0-.909-.284,1.359,1.359,0,0,0-1.251.711V0h-1.976V-7.4Zm8.388-1.818V-7.4h1.265v1.449H-10.89v3.691a.881.881,0,0,0,.157.588.79.79,0,0,0,.6.178,3.151,3.151,0,0,0,.581-.048v1.5a4.067,4.067,0,0,1-1.2.178,1.886,1.886,0,0,1-2.119-2.1V-5.947h-1.08V-7.4h1.08V-9.215ZM-5.12.137a3.631,3.631,0,0,1-2.649-1A3.548,3.548,0,0,1-8.791-3.521v-.191A4.468,4.468,0,0,1-8.36-5.7,3.161,3.161,0,0,1-7.14-7.058a3.425,3.425,0,0,1,1.8-.475,3.07,3.07,0,0,1,2.389.957,3.889,3.889,0,0,1,.872,2.714v.807h-4.71A1.835,1.835,0,0,0-6.21-1.894a1.746,1.746,0,0,0,1.22.438,2.132,2.132,0,0,0,1.784-.827L-2.235-1.2a2.966,2.966,0,0,1-1.2.981A3.947,3.947,0,0,1-5.12.137ZM-5.346-5.94a1.234,1.234,0,0,0-.954.4A2.062,2.062,0,0,0-6.768-4.4H-4.02V-4.56a1.471,1.471,0,0,0-.355-1.02A1.274,1.274,0,0,0-5.346-5.94Zm8.545.4A5.367,5.367,0,0,0,2.488-5.6a1.447,1.447,0,0,0-1.47.759V0H-.957V-7.4H.909l.055.882A1.831,1.831,0,0,1,2.611-7.533a2.07,2.07,0,0,1,.615.089ZM5.968-7.4l.062.854a2.582,2.582,0,0,1,2.126-.991,2.146,2.146,0,0,1,1.75.69,3.221,3.221,0,0,1,.588,2.064V0H8.518V-4.73a1.282,1.282,0,0,0-.273-.913,1.224,1.224,0,0,0-.909-.284,1.359,1.359,0,0,0-1.251.711V0H4.108V-7.4ZM16.276,0a2.194,2.194,0,0,1-.2-.663,2.39,2.39,0,0,1-1.866.8,2.626,2.626,0,0,1-1.8-.629A2.023,2.023,0,0,1,11.7-2.078a2.09,2.09,0,0,1,.872-1.8,4.3,4.3,0,0,1,2.519-.636H16v-.424a1.219,1.219,0,0,0-.263-.82A1.035,1.035,0,0,0,14.9-6.07a1.177,1.177,0,0,0-.783.239.813.813,0,0,0-.284.656H11.86a1.984,1.984,0,0,1,.4-1.189,2.621,2.621,0,0,1,1.121-.858A4.086,4.086,0,0,1,15-7.533a3.228,3.228,0,0,1,2.17.687,2.4,2.4,0,0,1,.8,1.931v3.206a3.536,3.536,0,0,0,.294,1.593V0ZM14.643-1.374a1.7,1.7,0,0,0,.807-.195A1.28,1.28,0,0,0,16-2.092V-3.363h-.738q-1.483,0-1.579,1.025l-.007.116a.791.791,0,0,0,.26.608A1.009,1.009,0,0,0,14.643-1.374Zm8.859-.67a.637.637,0,0,0-.359-.571,4.077,4.077,0,0,0-1.152-.373q-2.639-.554-2.639-2.242a2.032,2.032,0,0,1,.817-1.644,3.3,3.3,0,0,1,2.136-.66,3.547,3.547,0,0,1,2.252.663A2.09,2.09,0,0,1,25.4-5.147H23.427a.956.956,0,0,0-.273-.7,1.157,1.157,0,0,0-.854-.277,1.182,1.182,0,0,0-.772.226.712.712,0,0,0-.273.574.609.609,0,0,0,.311.53,3.2,3.2,0,0,0,1.049.349,8.571,8.571,0,0,1,1.244.332,2.044,2.044,0,0,1,1.565,1.989,1.929,1.929,0,0,1-.868,1.637,3.745,3.745,0,0,1-2.242.625,3.912,3.912,0,0,1-1.651-.332A2.77,2.77,0,0,1,19.53-1.1a2.113,2.113,0,0,1-.41-1.248h1.873a1.031,1.031,0,0,0,.39.807,1.546,1.546,0,0,0,.971.28,1.43,1.43,0,0,0,.858-.215A.67.67,0,0,0,23.5-2.044ZM-23.309,33.728h-4.005V37h4.653v1h-5.872V28.758h5.808v1h-4.589v2.977h4.005Zm5.979,2.45a.864.864,0,0,0-.359-.74,3.452,3.452,0,0,0-1.25-.454,5.912,5.912,0,0,1-1.416-.457,2.014,2.014,0,0,1-.774-.635,1.518,1.518,0,0,1-.251-.876,1.782,1.782,0,0,1,.714-1.428A2.789,2.789,0,0,1-18.84,31a2.87,2.87,0,0,1,1.895.6,1.915,1.915,0,0,1,.727,1.542H-17.4a1.06,1.06,0,0,0-.409-.832,1.534,1.534,0,0,0-1.031-.349,1.605,1.605,0,0,0-1,.279.879.879,0,0,0-.362.73.712.712,0,0,0,.336.641,4.139,4.139,0,0,0,1.216.413,6.334,6.334,0,0,1,1.425.47,2.079,2.079,0,0,1,.809.657,1.615,1.615,0,0,1,.263.936,1.758,1.758,0,0,1-.736,1.476,3.089,3.089,0,0,1-1.911.555,3.459,3.459,0,0,1-1.46-.292,2.374,2.374,0,0,1-.993-.816,1.966,1.966,0,0,1-.359-1.133h1.174a1.216,1.216,0,0,0,.473.936,1.835,1.835,0,0,0,1.165.346,1.894,1.894,0,0,0,1.07-.27A.829.829,0,0,0-17.329,36.178ZM-5.6,34.642a4.113,4.113,0,0,1-.717,2.526,2.3,2.3,0,0,1-1.942.958,2.519,2.519,0,0,1-1.968-.793v3.307h-1.174V31.132h1.073l.057.762A2.419,2.419,0,0,1-8.284,31a2.342,2.342,0,0,1,1.958.933,4.157,4.157,0,0,1,.72,2.6Zm-1.174-.133a3.035,3.035,0,0,0-.5-1.834A1.6,1.6,0,0,0-8.633,32a1.726,1.726,0,0,0-1.6.946v3.282a1.73,1.73,0,0,0,1.612.939,1.587,1.587,0,0,0,1.343-.67A3.312,3.312,0,0,0-6.779,34.509Zm2.355-.006a4.057,4.057,0,0,1,.4-1.815,2.96,2.96,0,0,1,1.1-1.244A3.007,3.007,0,0,1-1.308,31a2.9,2.9,0,0,1,2.269.971,3.736,3.736,0,0,1,.866,2.583v.083a4.092,4.092,0,0,1-.384,1.8,2.916,2.916,0,0,1-1.1,1.241,3.041,3.041,0,0,1-1.641.444,2.889,2.889,0,0,1-2.263-.971,3.718,3.718,0,0,1-.866-2.571Zm1.181.14a2.938,2.938,0,0,0,.53,1.834,1.7,1.7,0,0,0,1.419.692,1.686,1.686,0,0,0,1.422-.7A3.213,3.213,0,0,0,.654,34.5a2.933,2.933,0,0,0-.536-1.831,1.705,1.705,0,0,0-1.425-.7,1.686,1.686,0,0,0-1.4.692A3.189,3.189,0,0,0-3.244,34.642ZM7.3,36.178a.864.864,0,0,0-.359-.74,3.452,3.452,0,0,0-1.25-.454,5.912,5.912,0,0,1-1.416-.457,2.014,2.014,0,0,1-.774-.635,1.518,1.518,0,0,1-.251-.876,1.782,1.782,0,0,1,.714-1.428A2.789,2.789,0,0,1,5.789,31a2.87,2.87,0,0,1,1.895.6,1.915,1.915,0,0,1,.727,1.542H7.23a1.06,1.06,0,0,0-.409-.832,1.534,1.534,0,0,0-1.031-.349,1.605,1.605,0,0,0-1,.279.879.879,0,0,0-.362.73.712.712,0,0,0,.336.641,4.139,4.139,0,0,0,1.216.413A6.334,6.334,0,0,1,7.4,34.5a2.079,2.079,0,0,1,.809.657,1.615,1.615,0,0,1,.263.936,1.758,1.758,0,0,1-.736,1.476,3.089,3.089,0,0,1-1.911.555,3.459,3.459,0,0,1-1.46-.292,2.374,2.374,0,0,1-.993-.816,1.966,1.966,0,0,1-.359-1.133H4.189a1.216,1.216,0,0,0,.473.936,1.835,1.835,0,0,0,1.165.346A1.894,1.894,0,0,0,6.9,36.9.829.829,0,0,0,7.3,36.178ZM11.28,38H10.105V31.132H11.28Zm-1.27-8.69a.7.7,0,0,1,.175-.482.655.655,0,0,1,.517-.2.666.666,0,0,1,.521.2.694.694,0,0,1,.178.482.671.671,0,0,1-.178.476.678.678,0,0,1-.521.19.667.667,0,0,1-.517-.19A.678.678,0,0,1,10.01,29.31Zm8.963,5.332a4.084,4.084,0,0,1-.724,2.53,2.312,2.312,0,0,1-1.942.955,2.394,2.394,0,0,1-2.012-.92L14.238,38H13.159V28.25h1.174v3.637A2.381,2.381,0,0,1,16.294,31a2.326,2.326,0,0,1,1.965.946,4.206,4.206,0,0,1,.714,2.59ZM17.8,34.509a3.173,3.173,0,0,0-.463-1.854A1.534,1.534,0,0,0,16,32a1.724,1.724,0,0,0-1.669,1.079v2.971a1.772,1.772,0,0,0,1.682,1.079,1.526,1.526,0,0,0,1.314-.654A3.375,3.375,0,0,0,17.8,34.509ZM21.728,38H20.554V28.25h1.174Zm4.729.127a3,3,0,0,1-2.272-.917,3.4,3.4,0,0,1-.876-2.453v-.216a4.121,4.121,0,0,1,.39-1.825,3.045,3.045,0,0,1,1.092-1.257A2.745,2.745,0,0,1,26.311,31a2.572,2.572,0,0,1,2.082.882,3.82,3.82,0,0,1,.743,2.526V34.9H24.483a2.441,2.441,0,0,0,.594,1.641,1.866,1.866,0,0,0,1.444.625,2.045,2.045,0,0,0,1.054-.254,2.648,2.648,0,0,0,.755-.673l.717.559A2.884,2.884,0,0,1,26.457,38.127Zm-.146-6.157a1.566,1.566,0,0,0-1.193.517,2.515,2.515,0,0,0-.6,1.45h3.44v-.089a2.237,2.237,0,0,0-.482-1.387A1.475,1.475,0,0,0,26.311,31.97ZM-13.251,57a2.467,2.467,0,0,1-.165-.724,2.62,2.62,0,0,1-1.955.851,2.424,2.424,0,0,1-1.666-.574,1.859,1.859,0,0,1-.651-1.457,1.942,1.942,0,0,1,.816-1.666,3.846,3.846,0,0,1,2.295-.594h1.143V52.3a1.319,1.319,0,0,0-.368-.981,1.48,1.48,0,0,0-1.085-.365,1.712,1.712,0,0,0-1.054.317.935.935,0,0,0-.425.768h-1.181a1.621,1.621,0,0,1,.365-.993,2.491,2.491,0,0,1,.99-.759A3.331,3.331,0,0,1-14.819,50a2.715,2.715,0,0,1,1.86.594,2.141,2.141,0,0,1,.7,1.635v3.161a3.865,3.865,0,0,0,.241,1.5V57Zm-1.949-.9a2.064,2.064,0,0,0,1.047-.286,1.728,1.728,0,0,0,.717-.743V53.667h-.92q-2.158,0-2.158,1.263a1.069,1.069,0,0,0,.368.863A1.415,1.415,0,0,0-15.2,56.1Zm7.535.063a1.692,1.692,0,0,0,1.1-.381,1.34,1.34,0,0,0,.521-.952h1.111a2.13,2.13,0,0,1-.406,1.124,2.676,2.676,0,0,1-1,.851,2.885,2.885,0,0,1-1.323.317A2.829,2.829,0,0,1-9.9,56.191a3.729,3.729,0,0,1-.828-2.561v-.2a4.135,4.135,0,0,1,.368-1.784A2.8,2.8,0,0,1-9.3,50.437,3,3,0,0,1-7.671,50a2.755,2.755,0,0,1,1.92.692,2.473,2.473,0,0,1,.816,1.8H-6.046a1.618,1.618,0,0,0-.5-1.095,1.57,1.57,0,0,0-1.12-.428,1.644,1.644,0,0,0-1.387.644,3.026,3.026,0,0,0-.492,1.863V53.7a2.965,2.965,0,0,0,.489,1.828A1.651,1.651,0,0,0-7.665,56.168Zm5.643-7.7v1.663H-.74v.908H-2.022V55.3a.953.953,0,0,0,.171.62.721.721,0,0,0,.584.207,2.843,2.843,0,0,0,.559-.076V57a3.424,3.424,0,0,1-.9.126A1.462,1.462,0,0,1-2.8,56.651,2.045,2.045,0,0,1-3.2,55.3V51.04h-1.25v-.908H-3.2V48.469Zm6.894,7.852a2.494,2.494,0,0,1-2.012.806,2.135,2.135,0,0,1-1.673-.638A2.761,2.761,0,0,1,.606,54.6V50.132H1.781v4.437q0,1.562,1.27,1.562a1.758,1.758,0,0,0,1.79-1v-5H6.014V57H4.9ZM12.038,57a2.467,2.467,0,0,1-.165-.724,2.62,2.62,0,0,1-1.955.851,2.424,2.424,0,0,1-1.666-.574A1.859,1.859,0,0,1,7.6,55.1a1.942,1.942,0,0,1,.816-1.666,3.846,3.846,0,0,1,2.295-.594h1.143V52.3a1.319,1.319,0,0,0-.368-.981,1.48,1.48,0,0,0-1.085-.365,1.712,1.712,0,0,0-1.054.317.935.935,0,0,0-.425.768H7.741a1.621,1.621,0,0,1,.365-.993,2.491,2.491,0,0,1,.99-.759A3.331,3.331,0,0,1,10.47,50a2.715,2.715,0,0,1,1.86.594,2.141,2.141,0,0,1,.7,1.635v3.161a3.865,3.865,0,0,0,.241,1.5V57Zm-1.949-.9a2.064,2.064,0,0,0,1.047-.286,1.728,1.728,0,0,0,.717-.743V53.667h-.92q-2.158,0-2.158,1.263a1.069,1.069,0,0,0,.368.863A1.415,1.415,0,0,0,10.09,56.1Zm8.1-4.919a3.519,3.519,0,0,0-.578-.044,1.547,1.547,0,0,0-1.568.984V57H14.869V50.132h1.143l.019.793A1.829,1.829,0,0,1,17.669,50a1.2,1.2,0,0,1,.521.089ZM-26.5,74.178a.865.865,0,0,0-.359-.74,3.452,3.452,0,0,0-1.25-.454,5.912,5.912,0,0,1-1.416-.457,2.014,2.014,0,0,1-.774-.635,1.518,1.518,0,0,1-.251-.876,1.782,1.782,0,0,1,.714-1.428A2.789,2.789,0,0,1-28.006,69a2.87,2.87,0,0,1,1.895.6,1.915,1.915,0,0,1,.727,1.542h-1.181a1.06,1.06,0,0,0-.409-.832,1.534,1.534,0,0,0-1.031-.349,1.606,1.606,0,0,0-1,.279.879.879,0,0,0-.362.73.712.712,0,0,0,.336.641,4.139,4.139,0,0,0,1.216.413,6.334,6.334,0,0,1,1.425.47,2.079,2.079,0,0,1,.809.657,1.615,1.615,0,0,1,.263.936,1.758,1.758,0,0,1-.736,1.476,3.089,3.089,0,0,1-1.911.555,3.459,3.459,0,0,1-1.46-.292,2.375,2.375,0,0,1-.993-.816,1.966,1.966,0,0,1-.359-1.133h1.174a1.216,1.216,0,0,0,.473.936,1.835,1.835,0,0,0,1.165.346,1.894,1.894,0,0,0,1.07-.27A.829.829,0,0,0-26.5,74.178ZM-24.1,72.5a4.057,4.057,0,0,1,.4-1.815,2.96,2.96,0,0,1,1.1-1.244A3.007,3.007,0,0,1-20.985,69a2.9,2.9,0,0,1,2.269.971,3.736,3.736,0,0,1,.866,2.583v.083a4.092,4.092,0,0,1-.384,1.8,2.916,2.916,0,0,1-1.1,1.241,3.041,3.041,0,0,1-1.641.444,2.889,2.889,0,0,1-2.263-.971,3.718,3.718,0,0,1-.866-2.571Zm1.181.14a2.938,2.938,0,0,0,.53,1.834,1.7,1.7,0,0,0,1.419.692,1.686,1.686,0,0,0,1.422-.7,3.213,3.213,0,0,0,.527-1.965,2.933,2.933,0,0,0-.536-1.831,1.705,1.705,0,0,0-1.425-.7,1.686,1.686,0,0,0-1.4.692A3.189,3.189,0,0,0-22.921,72.642Zm12.359,0a4.084,4.084,0,0,1-.724,2.53,2.312,2.312,0,0,1-1.942.955,2.394,2.394,0,0,1-2.012-.92L-15.3,76h-1.079V66.25H-15.2v3.637A2.381,2.381,0,0,1-13.241,69a2.326,2.326,0,0,1,1.965.946,4.206,4.206,0,0,1,.714,2.59Zm-1.174-.133a3.173,3.173,0,0,0-.463-1.854A1.534,1.534,0,0,0-13.533,70,1.724,1.724,0,0,0-15.2,71.081v2.971a1.772,1.772,0,0,0,1.682,1.079,1.526,1.526,0,0,0,1.314-.654A3.375,3.375,0,0,0-11.737,72.509Zm5.973-2.323a3.519,3.519,0,0,0-.578-.044,1.547,1.547,0,0,0-1.568.984V76H-9.083V69.132h1.143l.019.793A1.829,1.829,0,0,1-6.284,69a1.2,1.2,0,0,1,.521.089Zm3.809,5.941a3,3,0,0,1-2.272-.917A3.4,3.4,0,0,1-5.1,72.756v-.216a4.121,4.121,0,0,1,.39-1.825,3.045,3.045,0,0,1,1.092-1.257A2.745,2.745,0,0,1-2.1,69a2.572,2.572,0,0,1,2.082.882,3.82,3.82,0,0,1,.743,2.526V72.9H-3.929a2.441,2.441,0,0,0,.594,1.641,1.866,1.866,0,0,0,1.444.625,2.045,2.045,0,0,0,1.054-.254,2.648,2.648,0,0,0,.755-.673l.717.559A2.884,2.884,0,0,1-1.955,76.127ZM-2.1,69.97a1.566,1.566,0,0,0-1.193.517,2.515,2.515,0,0,0-.6,1.45h3.44v-.089a2.237,2.237,0,0,0-.482-1.387A1.475,1.475,0,0,0-2.1,69.97ZM8.15,76.127a3,3,0,0,1-2.272-.917A3.4,3.4,0,0,1,5,72.756v-.216a4.121,4.121,0,0,1,.39-1.825,3.045,3.045,0,0,1,1.092-1.257A2.745,2.745,0,0,1,8,69a2.572,2.572,0,0,1,2.082.882,3.82,3.82,0,0,1,.743,2.526V72.9H6.176a2.441,2.441,0,0,0,.594,1.641,1.866,1.866,0,0,0,1.444.625,2.045,2.045,0,0,0,1.054-.254,2.648,2.648,0,0,0,.755-.673l.717.559A2.884,2.884,0,0,1,8.15,76.127ZM8,69.97a1.566,1.566,0,0,0-1.193.517,2.515,2.515,0,0,0-.6,1.45h3.44v-.089a2.237,2.237,0,0,0-.482-1.387A1.475,1.475,0,0,0,8,69.97ZM13.463,76H12.289V66.25h1.174Zm3.155,0H15.444V66.25h1.174Zm6.119,0a2.467,2.467,0,0,1-.165-.724,2.62,2.62,0,0,1-1.955.851,2.424,2.424,0,0,1-1.666-.574A1.859,1.859,0,0,1,18.3,74.1a1.942,1.942,0,0,1,.816-1.666,3.846,3.846,0,0,1,2.295-.594h1.143V71.3a1.319,1.319,0,0,0-.368-.981,1.48,1.48,0,0,0-1.085-.365,1.712,1.712,0,0,0-1.054.317.935.935,0,0,0-.425.768H18.44a1.621,1.621,0,0,1,.365-.993,2.491,2.491,0,0,1,.99-.759A3.331,3.331,0,0,1,21.169,69a2.715,2.715,0,0,1,1.86.594,2.141,2.141,0,0,1,.7,1.635v3.161a3.865,3.865,0,0,0,.241,1.5V76Zm-1.949-.9a2.064,2.064,0,0,0,1.047-.286,1.728,1.728,0,0,0,.717-.743V72.667h-.92q-2.158,0-2.158,1.263a1.069,1.069,0,0,0,.368.863A1.415,1.415,0,0,0,20.789,75.1Zm8.779-.927a.865.865,0,0,0-.359-.74,3.452,3.452,0,0,0-1.25-.454,5.912,5.912,0,0,1-1.416-.457,2.014,2.014,0,0,1-.774-.635,1.518,1.518,0,0,1-.251-.876,1.782,1.782,0,0,1,.714-1.428A2.789,2.789,0,0,1,28.057,69a2.87,2.87,0,0,1,1.895.6,1.915,1.915,0,0,1,.727,1.542H29.5a1.06,1.06,0,0,0-.409-.832,1.534,1.534,0,0,0-1.031-.349,1.606,1.606,0,0,0-1,.279.879.879,0,0,0-.362.73.712.712,0,0,0,.336.641,4.139,4.139,0,0,0,1.216.413,6.334,6.334,0,0,1,1.425.47,2.079,2.079,0,0,1,.809.657,1.615,1.615,0,0,1,.263.936,1.758,1.758,0,0,1-.736,1.476,3.089,3.089,0,0,1-1.911.555,3.459,3.459,0,0,1-1.46-.292,2.375,2.375,0,0,1-.993-.816,1.966,1.966,0,0,1-.359-1.133h1.174a1.216,1.216,0,0,0,.473.936,1.835,1.835,0,0,0,1.165.346,1.894,1.894,0,0,0,1.07-.27A.829.829,0,0,0,29.567,74.178Z" transform="translate(-8373 -7980.103)" fill="#12263f"/>
    <path id="Trazado_616968" data-name="Trazado 616968" d="M14.3-18.408v4.576H7.072v2.548h5.2v4.342h-5.2V0H1.3V-18.408Z" transform="translate(-8511 -8329.702)" fill="#f9fbfc"/>
    <path id="Trazado_616969" data-name="Trazado 616969" d="M10.665.189A9.928,9.928,0,0,1,5.711-1.08,9.5,9.5,0,0,1,2.133-4.59,9.743,9.743,0,0,1,.81-9.639a9.743,9.743,0,0,1,1.323-5.049,9.4,9.4,0,0,1,3.578-3.5,10.011,10.011,0,0,1,4.954-1.255,9.936,9.936,0,0,1,4.941,1.255,9.327,9.327,0,0,1,3.55,3.5,9.821,9.821,0,0,1,1.309,5.049A9.821,9.821,0,0,1,19.156-4.59a9.4,9.4,0,0,1-3.564,3.51A9.875,9.875,0,0,1,10.665.189Zm0-5.589a3.41,3.41,0,0,0,2.754-1.148,4.627,4.627,0,0,0,.972-3.092,4.67,4.67,0,0,0-.972-3.118,3.41,3.41,0,0,0-2.754-1.148,3.443,3.443,0,0,0-2.781,1.148,4.67,4.67,0,0,0-.972,3.118,4.627,4.627,0,0,0,.972,3.092A3.443,3.443,0,0,0,10.665-5.4Z" transform="translate(-8514 -8146.733)" fill="#f9fbfc"/>
    <path id="Trazado_616970" data-name="Trazado 616970" d="M9.315-19.116A10.9,10.9,0,0,1,14.566-17.9a8.529,8.529,0,0,1,3.47,3.375,9.849,9.849,0,0,1,1.215,4.914A9.945,9.945,0,0,1,18.036-4.7a8.746,8.746,0,0,1-3.47,3.443A10.617,10.617,0,0,1,9.315,0H1.35V-19.116Zm-.54,13.77a4.526,4.526,0,0,0,3.213-1.107,4.106,4.106,0,0,0,1.188-3.159,4.106,4.106,0,0,0-1.188-3.159,4.526,4.526,0,0,0-3.213-1.107H7.344v8.532Z" transform="translate(-8513 -7963.072)" fill="#f9fbfc"/>
    <path id="Trazado_616971" data-name="Trazado 616971" d="M13.608-2.889H7.236L6.291,0H0L6.993-19.116h6.912L20.871,0H14.553ZM12.15-7.4l-1.728-5.319L8.694-7.4Z" transform="translate(-8514 -7784.124)" fill="#f9fbfc"/>
    <path id="Trazado_616962" data-name="Trazado 616962" d="M7.859-4.648h-4.5V0H1.016V-11.375H8.422v1.9H3.359v2.938h4.5ZM9.117-4.3A5.013,5.013,0,0,1,9.6-6.547,3.546,3.546,0,0,1,11-8.07a4.069,4.069,0,0,1,2.113-.539A3.849,3.849,0,0,1,15.9-7.562a4.2,4.2,0,0,1,1.207,2.844l.016.578A4.418,4.418,0,0,1,16.039-1.02,3.775,3.775,0,0,1,13.125.156a3.793,3.793,0,0,1-2.918-1.172A4.5,4.5,0,0,1,9.117-4.2Zm2.258.16A3.16,3.16,0,0,0,11.828-2.3a1.5,1.5,0,0,0,1.3.638,1.5,1.5,0,0,0,1.281-.63,3.457,3.457,0,0,0,.461-2.015,3.128,3.128,0,0,0-.461-1.831,1.5,1.5,0,0,0-1.3-.649,1.474,1.474,0,0,0-1.281.646A3.516,3.516,0,0,0,11.375-4.144ZM23.266-6.336a6.134,6.134,0,0,0-.812-.062,1.654,1.654,0,0,0-1.68.867V0H18.516V-8.453h2.133l.063,1.008a2.092,2.092,0,0,1,1.883-1.164,2.366,2.366,0,0,1,.7.1Zm4.18-4.2v2.078h1.445V-6.8H27.445v4.219a1.007,1.007,0,0,0,.18.672.9.9,0,0,0,.688.2,3.6,3.6,0,0,0,.664-.055V-.047a4.648,4.648,0,0,1-1.367.2,2.156,2.156,0,0,1-2.422-2.4V-6.8H23.953V-8.453h1.234v-2.078ZM35.047,0a2.507,2.507,0,0,1-.227-.758,2.732,2.732,0,0,1-2.133.914,3,3,0,0,1-2.059-.719,2.312,2.312,0,0,1-.816-1.812,2.389,2.389,0,0,1,1-2.062,4.915,4.915,0,0,1,2.879-.727h1.039v-.484a1.393,1.393,0,0,0-.3-.937,1.183,1.183,0,0,0-.949-.352,1.345,1.345,0,0,0-.895.273.929.929,0,0,0-.324.75H30a2.268,2.268,0,0,1,.453-1.359,3,3,0,0,1,1.281-.98,4.669,4.669,0,0,1,1.859-.355,3.689,3.689,0,0,1,2.48.785,2.747,2.747,0,0,1,.918,2.207v3.664a4.041,4.041,0,0,0,.336,1.82V0ZM33.18-1.57a1.945,1.945,0,0,0,.922-.223,1.462,1.462,0,0,0,.625-.6V-3.844h-.844q-1.7,0-1.8,1.172l-.008.133a.9.9,0,0,0,.3.7A1.153,1.153,0,0,0,33.18-1.57ZM41.109,0H38.844V-12h2.266Zm5.75.156A4.15,4.15,0,0,1,43.832-.984a4.054,4.054,0,0,1-1.168-3.039v-.219a5.106,5.106,0,0,1,.492-2.277,3.612,3.612,0,0,1,1.395-1.547,3.914,3.914,0,0,1,2.059-.543,3.508,3.508,0,0,1,2.73,1.094,4.444,4.444,0,0,1,1,3.1v.922H44.953a2.1,2.1,0,0,0,.66,1.328,2,2,0,0,0,1.395.5,2.437,2.437,0,0,0,2.039-.945l1.109,1.242A3.389,3.389,0,0,1,48.781-.246,4.511,4.511,0,0,1,46.859.156ZM46.6-6.789a1.411,1.411,0,0,0-1.09.455,2.357,2.357,0,0,0-.535,1.3h3.141v-.181a1.681,1.681,0,0,0-.406-1.165A1.456,1.456,0,0,0,46.6-6.789ZM54.211-1.82h4.133V0H51.328V-1.375L55.3-6.633H51.445v-1.82h6.773v1.33ZM64.656,0a2.507,2.507,0,0,1-.227-.758A2.732,2.732,0,0,1,62.3.156a3,3,0,0,1-2.059-.719,2.312,2.312,0,0,1-.816-1.812,2.389,2.389,0,0,1,1-2.062A4.915,4.915,0,0,1,63.3-5.164h1.039v-.484a1.393,1.393,0,0,0-.3-.937,1.183,1.183,0,0,0-.949-.352,1.345,1.345,0,0,0-.895.273.929.929,0,0,0-.324.75H59.609a2.268,2.268,0,0,1,.453-1.359,3,3,0,0,1,1.281-.98A4.669,4.669,0,0,1,63.2-8.609a3.689,3.689,0,0,1,2.48.785A2.747,2.747,0,0,1,66.6-5.617v3.664a4.041,4.041,0,0,0,.336,1.82V0ZM62.789-1.57a1.945,1.945,0,0,0,.922-.223,1.462,1.462,0,0,0,.625-.6V-3.844h-.844q-1.7,0-1.8,1.172l-.008.133a.9.9,0,0,0,.3.7A1.153,1.153,0,0,0,62.789-1.57Zm10.125-.766a.727.727,0,0,0-.41-.652,4.659,4.659,0,0,0-1.316-.426q-3.016-.633-3.016-2.562a2.323,2.323,0,0,1,.934-1.879,3.766,3.766,0,0,1,2.441-.754,4.053,4.053,0,0,1,2.574.758,2.388,2.388,0,0,1,.965,1.969H72.828a1.092,1.092,0,0,0-.312-.8A1.322,1.322,0,0,0,71.539-7a1.351,1.351,0,0,0-.883.258.814.814,0,0,0-.312.656.7.7,0,0,0,.355.605,3.657,3.657,0,0,0,1.2.4A9.8,9.8,0,0,1,73.32-4.7,2.336,2.336,0,0,1,75.109-2.43a2.2,2.2,0,0,1-.992,1.871,4.28,4.28,0,0,1-2.562.715,4.47,4.47,0,0,1-1.887-.379,3.166,3.166,0,0,1-1.293-1.039,2.414,2.414,0,0,1-.469-1.426h2.141a1.179,1.179,0,0,0,.445.922,1.766,1.766,0,0,0,1.109.32,1.635,1.635,0,0,0,.98-.246A.766.766,0,0,0,72.914-2.336Z" transform="translate(-8669 -8340)" fill="#12263f"/>
    <path id="Trazado_616963" data-name="Trazado 616963" d="M10.359-5.43a6.867,6.867,0,0,1-.594,2.945,4.472,4.472,0,0,1-1.7,1.953A4.7,4.7,0,0,1,5.531.156a4.732,4.732,0,0,1-2.523-.68A4.515,4.515,0,0,1,1.289-2.465a6.67,6.67,0,0,1-.617-2.9V-5.93a6.831,6.831,0,0,1,.605-2.957,4.508,4.508,0,0,1,1.711-1.961,4.706,4.706,0,0,1,2.527-.684,4.706,4.706,0,0,1,2.527.684A4.508,4.508,0,0,1,9.754-8.887a6.811,6.811,0,0,1,.605,2.949ZM7.984-5.945a4.787,4.787,0,0,0-.641-2.719,2.088,2.088,0,0,0-1.828-.93,2.088,2.088,0,0,0-1.82.918,4.732,4.732,0,0,0-.648,2.691v.555a4.847,4.847,0,0,0,.641,2.7,2.082,2.082,0,0,0,1.844.961,2.064,2.064,0,0,0,1.813-.926,4.819,4.819,0,0,0,.641-2.7Zm11.539,1.8a5.07,5.07,0,0,1-.887,3.129A2.843,2.843,0,0,1,16.242.156a2.633,2.633,0,0,1-2.07-.891V3.25H11.914v-11.7h2.094l.078.828a2.654,2.654,0,0,1,2.141-.984,2.862,2.862,0,0,1,2.43,1.156,5.207,5.207,0,0,1,.867,3.188Zm-2.258-.164a3.327,3.327,0,0,0-.418-1.82,1.361,1.361,0,0,0-1.215-.641,1.478,1.478,0,0,0-1.461.813V-2.5a1.5,1.5,0,0,0,1.477.836Q17.266-1.664,17.266-4.312Zm3.3.008a5.013,5.013,0,0,1,.484-2.242A3.546,3.546,0,0,1,22.449-8.07a4.069,4.069,0,0,1,2.113-.539,3.849,3.849,0,0,1,2.793,1.047,4.2,4.2,0,0,1,1.207,2.844l.016.578A4.418,4.418,0,0,1,27.492-1.02,3.775,3.775,0,0,1,24.578.156,3.793,3.793,0,0,1,21.66-1.016,4.5,4.5,0,0,1,20.57-4.2Zm2.258.16A3.16,3.16,0,0,0,23.281-2.3a1.5,1.5,0,0,0,1.3.638,1.5,1.5,0,0,0,1.281-.63,3.457,3.457,0,0,0,.461-2.015,3.128,3.128,0,0,0-.461-1.831,1.5,1.5,0,0,0-1.3-.649,1.474,1.474,0,0,0-1.281.646A3.516,3.516,0,0,0,22.828-4.144ZM34.719-6.336a6.134,6.134,0,0,0-.812-.062,1.654,1.654,0,0,0-1.68.867V0H29.969V-8.453H32.1l.063,1.008a2.092,2.092,0,0,1,1.883-1.164,2.366,2.366,0,0,1,.7.1Zm4.18-4.2v2.078h1.445V-6.8H38.9v4.219a1.007,1.007,0,0,0,.18.672.9.9,0,0,0,.688.2,3.6,3.6,0,0,0,.664-.055V-.047a4.648,4.648,0,0,1-1.367.2,2.156,2.156,0,0,1-2.422-2.4V-6.8H35.406V-8.453h1.234v-2.078ZM46.664-.859A2.831,2.831,0,0,1,44.352.156a2.67,2.67,0,0,1-2.074-.781,3.335,3.335,0,0,1-.73-2.289V-8.453H43.8v5.467q0,1.322,1.2,1.322a1.63,1.63,0,0,0,1.578-.8V-8.453h2.266V0H46.727Zm5.969-7.594.07.977a2.951,2.951,0,0,1,2.43-1.133,2.453,2.453,0,0,1,2,.789A3.682,3.682,0,0,1,57.8-5.461V0H55.547V-5.406a1.465,1.465,0,0,0-.312-1.043A1.4,1.4,0,0,0,54.2-6.773a1.553,1.553,0,0,0-1.43.813V0H50.508V-8.453ZM61.9,0H59.633V-8.453H61.9ZM59.5-10.641a1.112,1.112,0,0,1,.34-.836,1.277,1.277,0,0,1,.926-.328,1.28,1.28,0,0,1,.922.328,1.105,1.105,0,0,1,.344.836,1.108,1.108,0,0,1-.348.844,1.283,1.283,0,0,1-.918.328,1.283,1.283,0,0,1-.918-.328A1.108,1.108,0,0,1,59.5-10.641Zm3.906,6.352a5.094,5.094,0,0,1,.887-3.148,2.877,2.877,0,0,1,2.426-1.172,2.589,2.589,0,0,1,2.039.922V-12h2.266V0H68.984l-.109-.9A2.657,2.657,0,0,1,66.7.156,2.869,2.869,0,0,1,64.309-1.02,5.258,5.258,0,0,1,63.406-4.289Zm2.258.168A3.337,3.337,0,0,0,66.078-2.3a1.349,1.349,0,0,0,1.2.634,1.511,1.511,0,0,0,1.477-.884V-5.889A1.489,1.489,0,0,0,67.3-6.773Q65.664-6.773,65.664-4.121ZM77.672,0a2.507,2.507,0,0,1-.227-.758,2.732,2.732,0,0,1-2.133.914,3,3,0,0,1-2.059-.719,2.312,2.312,0,0,1-.816-1.812,2.389,2.389,0,0,1,1-2.062,4.915,4.915,0,0,1,2.879-.727h1.039v-.484a1.393,1.393,0,0,0-.3-.937,1.183,1.183,0,0,0-.949-.352,1.345,1.345,0,0,0-.895.273.929.929,0,0,0-.324.75H72.625a2.268,2.268,0,0,1,.453-1.359,3,3,0,0,1,1.281-.98,4.669,4.669,0,0,1,1.859-.355,3.689,3.689,0,0,1,2.48.785,2.747,2.747,0,0,1,.918,2.207v3.664a4.041,4.041,0,0,0,.336,1.82V0ZM75.8-1.57a1.945,1.945,0,0,0,.922-.223,1.462,1.462,0,0,0,.625-.6V-3.844h-.844q-1.7,0-1.8,1.172l-.008.133a.9.9,0,0,0,.3.7A1.153,1.153,0,0,0,75.8-1.57ZM81-4.289a5.094,5.094,0,0,1,.887-3.148,2.877,2.877,0,0,1,2.426-1.172,2.589,2.589,0,0,1,2.039.922V-12h2.266V0H86.578l-.109-.9A2.657,2.657,0,0,1,84.3.156,2.869,2.869,0,0,1,81.9-1.02,5.258,5.258,0,0,1,81-4.289Zm2.258.168A3.337,3.337,0,0,0,83.672-2.3a1.349,1.349,0,0,0,1.2.634,1.511,1.511,0,0,0,1.477-.884V-5.889a1.489,1.489,0,0,0-1.461-.884Q83.258-6.773,83.258-4.121Zm11,4.277A4.15,4.15,0,0,1,91.23-.984a4.054,4.054,0,0,1-1.168-3.039v-.219a5.106,5.106,0,0,1,.492-2.277,3.612,3.612,0,0,1,1.395-1.547,3.914,3.914,0,0,1,2.059-.543,3.508,3.508,0,0,1,2.73,1.094,4.444,4.444,0,0,1,1,3.1v.922H92.352a2.1,2.1,0,0,0,.66,1.328,2,2,0,0,0,1.395.5,2.437,2.437,0,0,0,2.039-.945l1.109,1.242A3.389,3.389,0,0,1,96.18-.246,4.511,4.511,0,0,1,94.258.156ZM94-6.789a1.411,1.411,0,0,0-1.09.455,2.357,2.357,0,0,0-.535,1.3h3.141v-.181a1.681,1.681,0,0,0-.406-1.165A1.456,1.456,0,0,0,94-6.789Zm9.594,4.453a.727.727,0,0,0-.41-.652,4.659,4.659,0,0,0-1.316-.426q-3.016-.633-3.016-2.562a2.323,2.323,0,0,1,.934-1.879,3.766,3.766,0,0,1,2.441-.754,4.053,4.053,0,0,1,2.574.758,2.388,2.388,0,0,1,.965,1.969h-2.258a1.092,1.092,0,0,0-.312-.8A1.322,1.322,0,0,0,102.219-7a1.351,1.351,0,0,0-.883.258.814.814,0,0,0-.312.656.7.7,0,0,0,.355.605,3.657,3.657,0,0,0,1.2.4A9.8,9.8,0,0,1,104-4.7a2.336,2.336,0,0,1,1.789,2.273A2.2,2.2,0,0,1,104.8-.559a4.28,4.28,0,0,1-2.562.715,4.47,4.47,0,0,1-1.887-.379,3.166,3.166,0,0,1-1.293-1.039,2.414,2.414,0,0,1-.469-1.426h2.141a1.179,1.179,0,0,0,.445.922,1.766,1.766,0,0,0,1.109.32,1.635,1.635,0,0,0,.98-.246A.766.766,0,0,0,103.594-2.336Z" transform="translate(-8684 -8156)" fill="#12263f"/>
    <path id="Trazado_616964" data-name="Trazado 616964" d="M1.016,0V-11.375h3.5A5.315,5.315,0,0,1,7.2-10.7,4.712,4.712,0,0,1,9.047-8.777a5.928,5.928,0,0,1,.664,2.832v.523A5.945,5.945,0,0,1,9.059-2.6,4.672,4.672,0,0,1,7.219-.687,5.355,5.355,0,0,1,4.539,0ZM3.359-9.477v7.594H4.492a2.545,2.545,0,0,0,2.1-.9,4.06,4.06,0,0,0,.742-2.57v-.6a4.124,4.124,0,0,0-.719-2.629,2.537,2.537,0,0,0-2.1-.895ZM15.156.156A4.15,4.15,0,0,1,12.129-.984a4.054,4.054,0,0,1-1.168-3.039v-.219a5.106,5.106,0,0,1,.492-2.277,3.612,3.612,0,0,1,1.395-1.547,3.914,3.914,0,0,1,2.059-.543,3.508,3.508,0,0,1,2.73,1.094,4.444,4.444,0,0,1,1,3.1v.922H13.25a2.1,2.1,0,0,0,.66,1.328,2,2,0,0,0,1.395.5,2.437,2.437,0,0,0,2.039-.945l1.109,1.242A3.389,3.389,0,0,1,17.078-.246,4.511,4.511,0,0,1,15.156.156ZM14.9-6.789a1.411,1.411,0,0,0-1.09.455,2.357,2.357,0,0,0-.535,1.3h3.141v-.181a1.681,1.681,0,0,0-.406-1.165A1.456,1.456,0,0,0,14.9-6.789ZM27.531-4.148A5.119,5.119,0,0,1,26.664-.98,2.872,2.872,0,0,1,24.242.156,2.639,2.639,0,0,1,22.047-.9l-.1.9H19.914V-12h2.258v4.3a2.571,2.571,0,0,1,2.055-.914,2.9,2.9,0,0,1,2.426,1.137,5.126,5.126,0,0,1,.879,3.2Zm-2.258-.164a3.363,3.363,0,0,0-.406-1.871,1.374,1.374,0,0,0-1.211-.59,1.489,1.489,0,0,0-1.484.883v3.336a1.509,1.509,0,0,0,1.5.891,1.394,1.394,0,0,0,1.438-1.078A5.562,5.562,0,0,0,25.273-4.312ZM31.3,0H29.039V-8.453H31.3Zm-2.4-10.641a1.112,1.112,0,0,1,.34-.836,1.277,1.277,0,0,1,.926-.328,1.28,1.28,0,0,1,.922.328,1.105,1.105,0,0,1,.344.836,1.108,1.108,0,0,1-.348.844,1.283,1.283,0,0,1-.918.328,1.283,1.283,0,0,1-.918-.328A1.108,1.108,0,0,1,28.906-10.641ZM35.547,0H33.281V-12h2.266Zm4.242,0H37.523V-8.453h2.266Zm-2.4-10.641a1.112,1.112,0,0,1,.34-.836,1.277,1.277,0,0,1,.926-.328,1.28,1.28,0,0,1,.922.328,1.105,1.105,0,0,1,.344.836,1.108,1.108,0,0,1-.348.844,1.283,1.283,0,0,1-.918.328,1.283,1.283,0,0,1-.918-.328A1.108,1.108,0,0,1,37.391-10.641ZM41.3-4.289a5.094,5.094,0,0,1,.887-3.148,2.877,2.877,0,0,1,2.426-1.172,2.589,2.589,0,0,1,2.039.922V-12h2.266V0H46.875l-.109-.9A2.657,2.657,0,0,1,44.594.156,2.869,2.869,0,0,1,42.2-1.02,5.258,5.258,0,0,1,41.3-4.289Zm2.258.168A3.337,3.337,0,0,0,43.969-2.3a1.349,1.349,0,0,0,1.2.634,1.511,1.511,0,0,0,1.477-.884V-5.889a1.489,1.489,0,0,0-1.461-.884Q43.555-6.773,43.555-4.121ZM55.563,0a2.507,2.507,0,0,1-.227-.758A2.732,2.732,0,0,1,53.2.156a3,3,0,0,1-2.059-.719,2.312,2.312,0,0,1-.816-1.812,2.389,2.389,0,0,1,1-2.062A4.915,4.915,0,0,1,54.2-5.164h1.039v-.484a1.393,1.393,0,0,0-.3-.937,1.183,1.183,0,0,0-.949-.352,1.345,1.345,0,0,0-.895.273.929.929,0,0,0-.324.75H50.516a2.268,2.268,0,0,1,.453-1.359,3,3,0,0,1,1.281-.98,4.669,4.669,0,0,1,1.859-.355,3.689,3.689,0,0,1,2.48.785,2.747,2.747,0,0,1,.918,2.207v3.664a4.041,4.041,0,0,0,.336,1.82V0ZM53.7-1.57a1.945,1.945,0,0,0,.922-.223,1.462,1.462,0,0,0,.625-.6V-3.844H54.4q-1.7,0-1.8,1.172l-.008.133a.9.9,0,0,0,.3.7A1.153,1.153,0,0,0,53.7-1.57Zm5.2-2.719a5.094,5.094,0,0,1,.887-3.148A2.877,2.877,0,0,1,62.2-8.609a2.589,2.589,0,0,1,2.039.922V-12h2.266V0H64.469l-.109-.9A2.657,2.657,0,0,1,62.188.156,2.869,2.869,0,0,1,59.793-1.02,5.258,5.258,0,0,1,58.891-4.289Zm2.258.168A3.337,3.337,0,0,0,61.563-2.3a1.349,1.349,0,0,0,1.2.634,1.511,1.511,0,0,0,1.477-.884V-5.889a1.489,1.489,0,0,0-1.461-.884Q61.148-6.773,61.148-4.121Zm11,4.277A4.15,4.15,0,0,1,69.121-.984a4.054,4.054,0,0,1-1.168-3.039v-.219a5.106,5.106,0,0,1,.492-2.277A3.612,3.612,0,0,1,69.84-8.066,3.914,3.914,0,0,1,71.9-8.609a3.508,3.508,0,0,1,2.73,1.094,4.444,4.444,0,0,1,1,3.1v.922H70.242a2.1,2.1,0,0,0,.66,1.328,2,2,0,0,0,1.395.5,2.437,2.437,0,0,0,2.039-.945l1.109,1.242A3.389,3.389,0,0,1,74.07-.246,4.511,4.511,0,0,1,72.148.156Zm-.258-6.945a1.411,1.411,0,0,0-1.09.455,2.357,2.357,0,0,0-.535,1.3h3.141v-.181A1.681,1.681,0,0,0,73-6.377,1.456,1.456,0,0,0,71.891-6.789Zm9.594,4.453a.727.727,0,0,0-.41-.652,4.659,4.659,0,0,0-1.316-.426q-3.016-.633-3.016-2.562a2.323,2.323,0,0,1,.934-1.879,3.766,3.766,0,0,1,2.441-.754,4.053,4.053,0,0,1,2.574.758,2.388,2.388,0,0,1,.965,1.969H81.4a1.092,1.092,0,0,0-.312-.8A1.322,1.322,0,0,0,80.109-7a1.351,1.351,0,0,0-.883.258.814.814,0,0,0-.312.656.7.7,0,0,0,.355.605,3.657,3.657,0,0,0,1.2.4,9.8,9.8,0,0,1,1.422.379A2.336,2.336,0,0,1,83.68-2.43a2.2,2.2,0,0,1-.992,1.871,4.28,4.28,0,0,1-2.562.715,4.47,4.47,0,0,1-1.887-.379,3.166,3.166,0,0,1-1.293-1.039,2.414,2.414,0,0,1-.469-1.426h2.141a1.179,1.179,0,0,0,.445.922,1.766,1.766,0,0,0,1.109.32,1.635,1.635,0,0,0,.98-.246A.766.766,0,0,0,81.484-2.336Z" transform="translate(-8673 -7972)" fill="#12263f"/>
    <path id="Trazado_616965" data-name="Trazado 616965" d="M7.438-2.344H3.328L2.547,0H.055L4.289-11.375H6.461L10.719,0H8.227Zm-3.477-1.9H6.8L5.375-8.5Zm9.414-4.211.07.945a2.971,2.971,0,0,1,2.43-1.1A2.255,2.255,0,0,1,18.117-7.32a2.9,2.9,0,0,1,2.539-1.289,2.521,2.521,0,0,1,2.047.8,3.681,3.681,0,0,1,.672,2.41V0H21.109V-5.391a1.61,1.61,0,0,0-.281-1.051,1.246,1.246,0,0,0-.992-.332A1.409,1.409,0,0,0,18.43-5.8L18.438,0H16.18V-5.383a1.59,1.59,0,0,0-.289-1.062,1.259,1.259,0,0,0-.984-.328,1.463,1.463,0,0,0-1.391.8V0H11.258V-8.453ZM29,.156A4.15,4.15,0,0,1,25.973-.984,4.054,4.054,0,0,1,24.8-4.023v-.219A5.106,5.106,0,0,1,25.3-6.52a3.612,3.612,0,0,1,1.395-1.547,3.914,3.914,0,0,1,2.059-.543,3.508,3.508,0,0,1,2.73,1.094,4.444,4.444,0,0,1,1,3.1v.922H27.094a2.1,2.1,0,0,0,.66,1.328,2,2,0,0,0,1.395.5,2.437,2.437,0,0,0,2.039-.945L32.3-1.367A3.389,3.389,0,0,1,30.922-.246,4.511,4.511,0,0,1,29,.156Zm-.258-6.945a1.411,1.411,0,0,0-1.09.455,2.357,2.357,0,0,0-.535,1.3h3.141v-.181a1.681,1.681,0,0,0-.406-1.165A1.456,1.456,0,0,0,28.742-6.789Zm7.094-1.664.07.977a2.951,2.951,0,0,1,2.43-1.133,2.453,2.453,0,0,1,2,.789,3.682,3.682,0,0,1,.672,2.359V0H38.75V-5.406a1.465,1.465,0,0,0-.312-1.043A1.4,1.4,0,0,0,37.4-6.773a1.553,1.553,0,0,0-1.43.813V0H33.711V-8.453ZM47.617,0a2.507,2.507,0,0,1-.227-.758,2.732,2.732,0,0,1-2.133.914A3,3,0,0,1,43.2-.562a2.312,2.312,0,0,1-.816-1.812,2.389,2.389,0,0,1,1-2.062,4.915,4.915,0,0,1,2.879-.727H47.3v-.484a1.393,1.393,0,0,0-.3-.937,1.183,1.183,0,0,0-.949-.352,1.345,1.345,0,0,0-.895.273.929.929,0,0,0-.324.75H42.57a2.268,2.268,0,0,1,.453-1.359,3,3,0,0,1,1.281-.98,4.669,4.669,0,0,1,1.859-.355,3.689,3.689,0,0,1,2.48.785,2.747,2.747,0,0,1,.918,2.207v3.664A4.041,4.041,0,0,0,49.9-.133V0ZM45.75-1.57a1.945,1.945,0,0,0,.922-.223,1.462,1.462,0,0,0,.625-.6V-3.844h-.844q-1.7,0-1.8,1.172l-.008.133a.9.9,0,0,0,.3.7A1.153,1.153,0,0,0,45.75-1.57Zm8.141-.25h4.133V0H51.008V-1.375l3.977-5.258H51.125v-1.82H57.9v1.33ZM64.336,0a2.507,2.507,0,0,1-.227-.758,2.732,2.732,0,0,1-2.133.914,3,3,0,0,1-2.059-.719A2.312,2.312,0,0,1,59.1-2.375a2.389,2.389,0,0,1,1-2.062,4.915,4.915,0,0,1,2.879-.727h1.039v-.484a1.393,1.393,0,0,0-.3-.937,1.183,1.183,0,0,0-.949-.352,1.345,1.345,0,0,0-.895.273.929.929,0,0,0-.324.75H59.289a2.268,2.268,0,0,1,.453-1.359,3,3,0,0,1,1.281-.98,4.669,4.669,0,0,1,1.859-.355,3.689,3.689,0,0,1,2.48.785,2.747,2.747,0,0,1,.918,2.207v3.664a4.041,4.041,0,0,0,.336,1.82V0ZM62.469-1.57a1.945,1.945,0,0,0,.922-.223,1.462,1.462,0,0,0,.625-.6V-3.844h-.844q-1.7,0-1.8,1.172l-.008.133a.9.9,0,0,0,.3.7A1.153,1.153,0,0,0,62.469-1.57Zm10.125-.766a.727.727,0,0,0-.41-.652,4.659,4.659,0,0,0-1.316-.426q-3.016-.633-3.016-2.562a2.323,2.323,0,0,1,.934-1.879,3.766,3.766,0,0,1,2.441-.754,4.053,4.053,0,0,1,2.574.758,2.388,2.388,0,0,1,.965,1.969H72.508a1.092,1.092,0,0,0-.312-.8A1.322,1.322,0,0,0,71.219-7a1.351,1.351,0,0,0-.883.258.814.814,0,0,0-.312.656.7.7,0,0,0,.355.605,3.657,3.657,0,0,0,1.2.4A9.8,9.8,0,0,1,73-4.7,2.336,2.336,0,0,1,74.789-2.43,2.2,2.2,0,0,1,73.8-.559a4.28,4.28,0,0,1-2.562.715,4.47,4.47,0,0,1-1.887-.379,3.166,3.166,0,0,1-1.293-1.039,2.414,2.414,0,0,1-.469-1.426h2.141a1.179,1.179,0,0,0,.445.922,1.766,1.766,0,0,0,1.109.32,1.635,1.635,0,0,0,.98-.246A.766.766,0,0,0,72.594-2.336Z" transform="translate(-8668 -7789)" fill="#12263f"/>
    <path id="Trazado_616966" data-name="Trazado 616966" d="M-20.6-4.313h-3.937v2.666h4.621V0h-6.672V-9.953h6.658v1.661h-4.607V-5.92H-20.6Zm4.573-.875L-14.779-7.4h2.112l-2.105,3.623L-12.578,0H-14.7l-1.319-2.324L-17.329,0h-2.126l2.194-3.773-2.1-3.623h2.119Zm6.672-4.026V-7.4h1.265v1.449H-9.352v3.691a.881.881,0,0,0,.157.588.79.79,0,0,0,.6.178,3.151,3.151,0,0,0,.581-.048v1.5a4.067,4.067,0,0,1-1.2.178,1.886,1.886,0,0,1-2.119-2.1V-5.947h-1.08V-7.4h1.08V-9.215ZM-3.582.137a3.631,3.631,0,0,1-2.649-1A3.548,3.548,0,0,1-7.253-3.521v-.191A4.468,4.468,0,0,1-6.822-5.7,3.161,3.161,0,0,1-5.6-7.058a3.425,3.425,0,0,1,1.8-.475,3.07,3.07,0,0,1,2.389.957A3.889,3.889,0,0,1-.54-3.862v.807H-5.25a1.835,1.835,0,0,0,.578,1.162,1.746,1.746,0,0,0,1.22.438,2.132,2.132,0,0,0,1.784-.827L-.7-1.2a2.966,2.966,0,0,1-1.2.981A3.947,3.947,0,0,1-3.582.137ZM-3.808-5.94a1.234,1.234,0,0,0-.954.4A2.062,2.062,0,0,0-5.229-4.4h2.748V-4.56a1.471,1.471,0,0,0-.355-1.02A1.274,1.274,0,0,0-3.808-5.94Zm8.545.4A5.367,5.367,0,0,0,4.026-5.6a1.447,1.447,0,0,0-1.47.759V0H.581V-7.4H2.447l.055.882A1.831,1.831,0,0,1,4.149-7.533a2.07,2.07,0,0,1,.615.089ZM7.506-7.4l.062.854a2.582,2.582,0,0,1,2.126-.991,2.146,2.146,0,0,1,1.75.69,3.221,3.221,0,0,1,.588,2.064V0H10.056V-4.73a1.282,1.282,0,0,0-.273-.913,1.224,1.224,0,0,0-.909-.284,1.359,1.359,0,0,0-1.251.711V0H5.646V-7.4ZM17.814,0a2.194,2.194,0,0,1-.2-.663,2.39,2.39,0,0,1-1.866.8,2.626,2.626,0,0,1-1.8-.629,2.023,2.023,0,0,1-.714-1.586,2.09,2.09,0,0,1,.872-1.8,4.3,4.3,0,0,1,2.519-.636h.909v-.424a1.219,1.219,0,0,0-.263-.82,1.035,1.035,0,0,0-.831-.308,1.177,1.177,0,0,0-.783.239.813.813,0,0,0-.284.656H13.4a1.984,1.984,0,0,1,.4-1.189,2.621,2.621,0,0,1,1.121-.858,4.086,4.086,0,0,1,1.627-.311,3.228,3.228,0,0,1,2.17.687,2.4,2.4,0,0,1,.8,1.931v3.206a3.536,3.536,0,0,0,.294,1.593V0ZM16.181-1.374a1.7,1.7,0,0,0,.807-.195,1.28,1.28,0,0,0,.547-.523V-3.363H16.8q-1.483,0-1.579,1.025l-.007.116a.791.791,0,0,0,.26.608A1.009,1.009,0,0,0,16.181-1.374Zm8.859-.67a.637.637,0,0,0-.359-.571,4.077,4.077,0,0,0-1.152-.373q-2.639-.554-2.639-2.242a2.032,2.032,0,0,1,.817-1.644,3.3,3.3,0,0,1,2.136-.66A3.547,3.547,0,0,1,26.1-6.87a2.09,2.09,0,0,1,.844,1.723H24.965a.956.956,0,0,0-.273-.7,1.157,1.157,0,0,0-.854-.277,1.182,1.182,0,0,0-.772.226.712.712,0,0,0-.273.574.609.609,0,0,0,.311.53,3.2,3.2,0,0,0,1.049.349,8.571,8.571,0,0,1,1.244.332,2.044,2.044,0,0,1,1.565,1.989,1.929,1.929,0,0,1-.868,1.637,3.745,3.745,0,0,1-2.242.625A3.912,3.912,0,0,1,22.2-.195,2.77,2.77,0,0,1,21.068-1.1a2.113,2.113,0,0,1-.41-1.248h1.873a1.031,1.031,0,0,0,.39.807,1.546,1.546,0,0,0,.971.28,1.43,1.43,0,0,0,.858-.215A.67.67,0,0,0,25.04-2.044ZM-18.021,33.728h-4.005V37h4.653v1h-5.872V28.758h5.808v1h-4.589v2.977h4.005Zm5.979,2.45a.864.864,0,0,0-.359-.74,3.452,3.452,0,0,0-1.25-.454,5.912,5.912,0,0,1-1.416-.457,2.014,2.014,0,0,1-.774-.635,1.518,1.518,0,0,1-.251-.876,1.782,1.782,0,0,1,.714-1.428A2.789,2.789,0,0,1-13.552,31a2.87,2.87,0,0,1,1.895.6,1.915,1.915,0,0,1,.727,1.542h-1.181a1.06,1.06,0,0,0-.409-.832,1.534,1.534,0,0,0-1.031-.349,1.605,1.605,0,0,0-1,.279.879.879,0,0,0-.362.73.712.712,0,0,0,.336.641,4.139,4.139,0,0,0,1.216.413,6.334,6.334,0,0,1,1.425.47,2.079,2.079,0,0,1,.809.657,1.615,1.615,0,0,1,.263.936,1.758,1.758,0,0,1-.736,1.476,3.089,3.089,0,0,1-1.911.555,3.459,3.459,0,0,1-1.46-.292,2.374,2.374,0,0,1-.993-.816,1.966,1.966,0,0,1-.359-1.133h1.174a1.216,1.216,0,0,0,.473.936,1.835,1.835,0,0,0,1.165.346,1.894,1.894,0,0,0,1.07-.27A.829.829,0,0,0-12.042,36.178ZM-6.4,34.509a4.023,4.023,0,0,1,.749-2.542A2.369,2.369,0,0,1-3.694,31a2.382,2.382,0,0,1,1.911.825V28.25H-.609V38H-1.688l-.057-.736a2.391,2.391,0,0,1-1.961.863,2.346,2.346,0,0,1-1.946-.978A4.069,4.069,0,0,1-6.4,34.6Zm1.174.133a3.046,3.046,0,0,0,.482,1.828,1.56,1.56,0,0,0,1.333.66,1.713,1.713,0,0,0,1.631-1V32.973A1.726,1.726,0,0,0-3.4,32a1.567,1.567,0,0,0-1.346.667A3.354,3.354,0,0,0-5.23,34.642ZM2.488,38H1.314V31.132H2.488Zm-1.27-8.69a.7.7,0,0,1,.175-.482.655.655,0,0,1,.517-.2.666.666,0,0,1,.521.2.694.694,0,0,1,.178.482.671.671,0,0,1-.178.476.678.678,0,0,1-.521.19.667.667,0,0,1-.517-.19A.678.678,0,0,1,1.219,29.31ZM4.945,38V32.04H3.859v-.908H4.945v-.7a2.339,2.339,0,0,1,.59-1.708,2.23,2.23,0,0,1,1.669-.6,3.1,3.1,0,0,1,.806.107l-.063.946a3.373,3.373,0,0,0-.635-.057,1.146,1.146,0,0,0-.882.334,1.356,1.356,0,0,0-.311.958v.726H7.585v.908H6.119V38Zm5.211,0H8.976V31.132h1.181Zm.013-9.744h1.422l-1.7,1.866-.946,0Zm4.678,8.912a1.692,1.692,0,0,0,1.1-.381,1.34,1.34,0,0,0,.521-.952h1.111a2.13,2.13,0,0,1-.406,1.124,2.676,2.676,0,0,1-1,.851,2.885,2.885,0,0,1-1.323.317,2.829,2.829,0,0,1-2.231-.936,3.729,3.729,0,0,1-.828-2.561v-.2a4.135,4.135,0,0,1,.368-1.784,2.8,2.8,0,0,1,1.057-1.212A3,3,0,0,1,14.841,31a2.755,2.755,0,0,1,1.92.692,2.473,2.473,0,0,1,.816,1.8H16.466a1.618,1.618,0,0,0-.5-1.095,1.57,1.57,0,0,0-1.12-.428,1.644,1.644,0,0,0-1.387.644,3.026,3.026,0,0,0-.492,1.863V34.7a2.965,2.965,0,0,0,.489,1.828A1.651,1.651,0,0,0,14.847,37.168ZM20.173,38H19V31.132h1.174ZM18.9,29.31a.7.7,0,0,1,.175-.482.655.655,0,0,1,.517-.2.666.666,0,0,1,.521.2.694.694,0,0,1,.178.482.671.671,0,0,1-.178.476.678.678,0,0,1-.521.19.667.667,0,0,1-.517-.19A.678.678,0,0,1,18.9,29.31ZM23.328,38H22.153V28.25h1.174Zm-33.3,15.642a4.113,4.113,0,0,1-.717,2.526,2.3,2.3,0,0,1-1.942.958,2.519,2.519,0,0,1-1.968-.793v3.307h-1.174V50.132H-14.7l.057.762A2.419,2.419,0,0,1-12.651,50a2.342,2.342,0,0,1,1.958.933,4.157,4.157,0,0,1,.72,2.6Zm-1.174-.133a3.035,3.035,0,0,0-.5-1.834A1.6,1.6,0,0,0-13,51a1.726,1.726,0,0,0-1.6.946v3.282a1.73,1.73,0,0,0,1.612.939,1.587,1.587,0,0,0,1.343-.67A3.312,3.312,0,0,0-11.146,53.509Zm2.355-.006a4.057,4.057,0,0,1,.4-1.815,2.96,2.96,0,0,1,1.1-1.244A3.007,3.007,0,0,1-5.675,50a2.9,2.9,0,0,1,2.269.971,3.736,3.736,0,0,1,.866,2.583v.083a4.092,4.092,0,0,1-.384,1.8,2.916,2.916,0,0,1-1.1,1.241,3.041,3.041,0,0,1-1.641.444,2.889,2.889,0,0,1-2.263-.971,3.718,3.718,0,0,1-.866-2.571Zm1.181.14a2.938,2.938,0,0,0,.53,1.834,1.7,1.7,0,0,0,1.419.692,1.686,1.686,0,0,0,1.422-.7A3.213,3.213,0,0,0-3.713,53.5a2.933,2.933,0,0,0-.536-1.831,1.705,1.705,0,0,0-1.425-.7,1.686,1.686,0,0,0-1.4.692A3.189,3.189,0,0,0-7.611,53.642Zm6.259-.133A4.023,4.023,0,0,1-.6,50.967,2.369,2.369,0,0,1,1.358,50a2.382,2.382,0,0,1,1.911.825V47.25H4.443V57H3.364l-.057-.736a2.391,2.391,0,0,1-1.961.863A2.346,2.346,0,0,1-.6,56.149,4.069,4.069,0,0,1-1.352,53.6Zm1.174.133A3.046,3.046,0,0,0,.3,55.47a1.56,1.56,0,0,0,1.333.66,1.713,1.713,0,0,0,1.631-1V51.973A1.726,1.726,0,0,0,1.65,51,1.567,1.567,0,0,0,.3,51.668,3.354,3.354,0,0,0-.178,53.642Zm9.293,3.485a3,3,0,0,1-2.272-.917,3.4,3.4,0,0,1-.876-2.453v-.216a4.121,4.121,0,0,1,.39-1.825,3.045,3.045,0,0,1,1.092-1.257A2.745,2.745,0,0,1,8.969,50a2.572,2.572,0,0,1,2.082.882,3.82,3.82,0,0,1,.743,2.526V53.9H7.141a2.441,2.441,0,0,0,.594,1.641,1.866,1.866,0,0,0,1.444.625,2.045,2.045,0,0,0,1.054-.254,2.648,2.648,0,0,0,.755-.673l.717.559A2.884,2.884,0,0,1,9.115,57.127ZM8.969,50.97a1.566,1.566,0,0,0-1.193.517,2.515,2.515,0,0,0-.6,1.45h3.44v-.089a2.237,2.237,0,0,0-.482-1.387A1.475,1.475,0,0,0,8.969,50.97Zm7.5.216a3.519,3.519,0,0,0-.578-.044,1.547,1.547,0,0,0-1.568.984V57H13.152V50.132h1.143l.019.793A1.829,1.829,0,0,1,15.952,50a1.2,1.2,0,0,1,.521.089ZM-33.855,69.132l.032.762A2.536,2.536,0,0,1-31.786,69a1.964,1.964,0,0,1,1.961,1.1,2.6,2.6,0,0,1,.892-.8,2.634,2.634,0,0,1,1.3-.3q2.26,0,2.3,2.393V76h-1.174V71.468a1.577,1.577,0,0,0-.336-1.1A1.482,1.482,0,0,0-27.977,70a1.557,1.557,0,0,0-1.085.39,1.584,1.584,0,0,0-.5,1.051V76h-1.181V71.5A1.31,1.31,0,0,0-32.211,70a1.571,1.571,0,0,0-1.581.984V76h-1.174V69.132Zm9.979,3.371a4.057,4.057,0,0,1,.4-1.815,2.96,2.96,0,0,1,1.1-1.244A3.007,3.007,0,0,1-20.76,69a2.9,2.9,0,0,1,2.269.971,3.736,3.736,0,0,1,.866,2.583v.083a4.092,4.092,0,0,1-.384,1.8,2.916,2.916,0,0,1-1.1,1.241,3.041,3.041,0,0,1-1.641.444,2.889,2.889,0,0,1-2.263-.971,3.718,3.718,0,0,1-.866-2.571Zm1.181.14a2.938,2.938,0,0,0,.53,1.834,1.7,1.7,0,0,0,1.419.692,1.686,1.686,0,0,0,1.422-.7A3.213,3.213,0,0,0-18.8,72.5a2.933,2.933,0,0,0-.536-1.831,1.705,1.705,0,0,0-1.425-.7,1.686,1.686,0,0,0-1.4.692A3.189,3.189,0,0,0-22.7,72.642Zm6.259-.133a4.023,4.023,0,0,1,.749-2.542A2.369,2.369,0,0,1-13.727,69a2.382,2.382,0,0,1,1.911.825V66.25h1.174V76h-1.079l-.057-.736a2.391,2.391,0,0,1-1.961.863,2.346,2.346,0,0,1-1.946-.978,4.069,4.069,0,0,1-.752-2.552Zm1.174.133a3.046,3.046,0,0,0,.482,1.828,1.56,1.56,0,0,0,1.333.66,1.713,1.713,0,0,0,1.631-1V70.973A1.726,1.726,0,0,0-13.435,70a1.567,1.567,0,0,0-1.346.667A3.354,3.354,0,0,0-15.263,72.642ZM-7.544,76H-8.719V69.132h1.174Zm-1.27-8.69a.7.7,0,0,1,.175-.482.655.655,0,0,1,.517-.2.666.666,0,0,1,.521.2.694.694,0,0,1,.178.482.671.671,0,0,1-.178.476.678.678,0,0,1-.521.19.667.667,0,0,1-.517-.19A.678.678,0,0,1-8.814,67.31ZM-5.272,76V70.04H-6.357v-.908h1.085v-.584a2.386,2.386,0,0,1,.657-1.79,2.548,2.548,0,0,1,1.857-.641,5.591,5.591,0,0,1,1.8.387l-.2.99a4.069,4.069,0,0,0-1.511-.317,1.478,1.478,0,0,0-1.089.34,1.4,1.4,0,0,0-.333,1.019v.6h1.4v.908h-1.4V76Zm4.894,0H-1.558V69.132H-.378Zm4.666-.832a1.692,1.692,0,0,0,1.1-.381,1.34,1.34,0,0,0,.521-.952H7.017a2.13,2.13,0,0,1-.406,1.124,2.676,2.676,0,0,1-1,.851,2.885,2.885,0,0,1-1.323.317,2.829,2.829,0,0,1-2.231-.936,3.729,3.729,0,0,1-.828-2.561v-.2A4.135,4.135,0,0,1,1.6,70.649a2.8,2.8,0,0,1,1.057-1.212A3,3,0,0,1,4.281,69,2.755,2.755,0,0,1,6.2,69.7a2.473,2.473,0,0,1,.816,1.8H5.906A1.618,1.618,0,0,0,5.4,70.4a1.57,1.57,0,0,0-1.12-.428,1.644,1.644,0,0,0-1.387.644A3.026,3.026,0,0,0,2.4,72.477V72.7a2.965,2.965,0,0,0,.489,1.828A1.651,1.651,0,0,0,4.288,75.168Zm8.29.832a2.467,2.467,0,0,1-.165-.724,2.62,2.62,0,0,1-1.955.851,2.424,2.424,0,0,1-1.666-.574A1.859,1.859,0,0,1,8.141,74.1a1.942,1.942,0,0,1,.816-1.666,3.846,3.846,0,0,1,2.295-.594h1.143V71.3a1.319,1.319,0,0,0-.368-.981,1.48,1.48,0,0,0-1.085-.365,1.712,1.712,0,0,0-1.054.317.935.935,0,0,0-.425.768H8.281a1.621,1.621,0,0,1,.365-.993,2.491,2.491,0,0,1,.99-.759A3.331,3.331,0,0,1,11.01,69a2.715,2.715,0,0,1,1.86.594,2.141,2.141,0,0,1,.7,1.635v3.161a3.865,3.865,0,0,0,.241,1.5V76Zm-1.949-.9a2.064,2.064,0,0,0,1.047-.286,1.728,1.728,0,0,0,.717-.743V72.667h-.92q-2.158,0-2.158,1.263a1.069,1.069,0,0,0,.368.863A1.415,1.415,0,0,0,10.629,75.1Zm8.1-4.919a3.519,3.519,0,0,0-.578-.044,1.547,1.547,0,0,0-1.568.984V76H15.409V69.132h1.143l.019.793A1.829,1.829,0,0,1,18.208,69a1.2,1.2,0,0,1,.521.089ZM21.084,76H19.909V66.25h1.174ZM27.2,76a2.467,2.467,0,0,1-.165-.724,2.62,2.62,0,0,1-1.955.851,2.424,2.424,0,0,1-1.666-.574,1.859,1.859,0,0,1-.651-1.457,1.942,1.942,0,0,1,.816-1.666,3.846,3.846,0,0,1,2.295-.594h1.143V71.3a1.319,1.319,0,0,0-.368-.981,1.48,1.48,0,0,0-1.085-.365,1.712,1.712,0,0,0-1.054.317.935.935,0,0,0-.425.768H22.906a1.621,1.621,0,0,1,.365-.993,2.491,2.491,0,0,1,.99-.759A3.331,3.331,0,0,1,25.635,69a2.715,2.715,0,0,1,1.86.594,2.141,2.141,0,0,1,.7,1.635v3.161a3.865,3.865,0,0,0,.241,1.5V76Zm-1.949-.9a2.064,2.064,0,0,0,1.047-.286,1.728,1.728,0,0,0,.717-.743V72.667H26.1q-2.158,0-2.158,1.263a1.069,1.069,0,0,0,.368.863A1.415,1.415,0,0,0,25.254,75.1Zm8.779-.927a.865.865,0,0,0-.359-.74,3.452,3.452,0,0,0-1.25-.454,5.912,5.912,0,0,1-1.416-.457,2.014,2.014,0,0,1-.774-.635,1.518,1.518,0,0,1-.251-.876,1.782,1.782,0,0,1,.714-1.428A2.789,2.789,0,0,1,32.522,69a2.87,2.87,0,0,1,1.895.6,1.915,1.915,0,0,1,.727,1.542H33.963a1.06,1.06,0,0,0-.409-.832,1.534,1.534,0,0,0-1.031-.349,1.606,1.606,0,0,0-1,.279.879.879,0,0,0-.362.73.712.712,0,0,0,.336.641,4.139,4.139,0,0,0,1.216.413,6.334,6.334,0,0,1,1.425.47,2.079,2.079,0,0,1,.809.657,1.615,1.615,0,0,1,.263.936,1.758,1.758,0,0,1-.736,1.476,3.089,3.089,0,0,1-1.911.555,3.459,3.459,0,0,1-1.46-.292,2.375,2.375,0,0,1-.993-.816,1.966,1.966,0,0,1-.359-1.133h1.174a1.216,1.216,0,0,0,.473.936,1.835,1.835,0,0,0,1.165.346,1.894,1.894,0,0,0,1.07-.27A.829.829,0,0,0,34.033,74.178Z" transform="translate(-8373 -8214.702)" fill="#12263f"/>
    <path id="Trazado_616961" data-name="Trazado 616961" d="M5.871-3.173l2.9-9.624h2.936L7.251,0H4.5L.062-12.8H2.988ZM17.851,0A2.821,2.821,0,0,1,17.6-.853,3.073,3.073,0,0,1,15.2.176,3.376,3.376,0,0,1,12.88-.633a2.6,2.6,0,0,1-.918-2.039,2.687,2.687,0,0,1,1.121-2.32,5.529,5.529,0,0,1,3.239-.817H17.49v-.545a1.567,1.567,0,0,0-.338-1.055,1.331,1.331,0,0,0-1.068-.4,1.513,1.513,0,0,0-1.006.308,1.045,1.045,0,0,0-.365.844h-2.54a2.551,2.551,0,0,1,.51-1.529,3.37,3.37,0,0,1,1.441-1.1,5.253,5.253,0,0,1,2.092-.4,4.15,4.15,0,0,1,2.791.883,3.09,3.09,0,0,1,1.033,2.483V-2.2a4.546,4.546,0,0,0,.378,2.048V0Zm-2.1-1.767a2.188,2.188,0,0,0,1.037-.25,1.645,1.645,0,0,0,.7-.672V-4.324h-.949q-1.907,0-2.03,1.318l-.009.149a1.017,1.017,0,0,0,.334.782A1.3,1.3,0,0,0,15.75-1.767ZM27.334-7.128a6.9,6.9,0,0,0-.914-.07,1.86,1.86,0,0,0-1.89.976V0H21.99V-9.51h2.4l.07,1.134a2.354,2.354,0,0,1,2.118-1.31,2.662,2.662,0,0,1,.791.114ZM31.236,0H28.688V-9.51h2.549Zm-2.7-11.971a1.251,1.251,0,0,1,.382-.94,1.436,1.436,0,0,1,1.042-.369A1.44,1.44,0,0,1,31-12.911a1.244,1.244,0,0,1,.387.94,1.247,1.247,0,0,1-.391.949,1.443,1.443,0,0,1-1.033.369,1.443,1.443,0,0,1-1.033-.369A1.247,1.247,0,0,1,28.538-11.971ZM38.839,0a2.821,2.821,0,0,1-.255-.853,3.073,3.073,0,0,1-2.4,1.028,3.376,3.376,0,0,1-2.316-.809,2.6,2.6,0,0,1-.918-2.039,2.687,2.687,0,0,1,1.121-2.32A5.529,5.529,0,0,1,37.31-5.81h1.169v-.545a1.567,1.567,0,0,0-.338-1.055,1.331,1.331,0,0,0-1.068-.4,1.513,1.513,0,0,0-1.006.308,1.045,1.045,0,0,0-.365.844h-2.54a2.551,2.551,0,0,1,.51-1.529,3.37,3.37,0,0,1,1.441-1.1,5.253,5.253,0,0,1,2.092-.4,4.15,4.15,0,0,1,2.791.883,3.09,3.09,0,0,1,1.033,2.483V-2.2a4.546,4.546,0,0,0,.378,2.048V0Zm-2.1-1.767a2.188,2.188,0,0,0,1.037-.25,1.645,1.645,0,0,0,.7-.672V-4.324h-.949q-1.907,0-2.03,1.318l-.009.149a1.017,1.017,0,0,0,.334.782A1.3,1.3,0,0,0,36.738-1.767Zm14.81-2.9A5.758,5.758,0,0,1,50.572-1.1,3.231,3.231,0,0,1,47.848.176a2.969,2.969,0,0,1-2.47-1.187L45.264,0H42.979V-13.5h2.54v4.843A2.893,2.893,0,0,1,47.83-9.686a3.258,3.258,0,0,1,2.729,1.279,5.767,5.767,0,0,1,.989,3.6Zm-2.54-.185a3.783,3.783,0,0,0-.457-2.1,1.545,1.545,0,0,0-1.362-.664,1.676,1.676,0,0,0-1.67.993v3.753a1.7,1.7,0,0,0,1.688,1,1.568,1.568,0,0,0,1.617-1.213A6.257,6.257,0,0,0,49.008-4.852ZM55.793,0H53.244V-13.5h2.549Zm6.469.176a4.668,4.668,0,0,1-3.406-1.283,4.561,4.561,0,0,1-1.314-3.419v-.246A5.745,5.745,0,0,1,58.1-7.334a4.064,4.064,0,0,1,1.569-1.74,4.4,4.4,0,0,1,2.316-.611,3.947,3.947,0,0,1,3.072,1.23,5,5,0,0,1,1.121,3.489v1.037H60.117a2.36,2.36,0,0,0,.743,1.494,2.245,2.245,0,0,0,1.569.563,2.742,2.742,0,0,0,2.294-1.063l1.248,1.4A3.813,3.813,0,0,1,64.424-.277,5.075,5.075,0,0,1,62.262.176Zm-.29-7.813a1.587,1.587,0,0,0-1.226.512,2.651,2.651,0,0,0-.6,1.466h3.533v-.2a1.891,1.891,0,0,0-.457-1.311A1.638,1.638,0,0,0,61.972-7.638Zm10.793,5.01a.818.818,0,0,0-.461-.734,5.241,5.241,0,0,0-1.481-.479Q67.43-4.553,67.43-6.724a2.613,2.613,0,0,1,1.05-2.114,4.237,4.237,0,0,1,2.747-.848,4.56,4.56,0,0,1,2.9.853,2.687,2.687,0,0,1,1.085,2.215h-2.54a1.229,1.229,0,0,0-.352-.9,1.488,1.488,0,0,0-1.1-.356,1.52,1.52,0,0,0-.993.29.916.916,0,0,0-.352.738.783.783,0,0,0,.4.681,4.114,4.114,0,0,0,1.349.448,11.019,11.019,0,0,1,1.6.426,2.628,2.628,0,0,1,2.013,2.558,2.481,2.481,0,0,1-1.116,2.1,4.815,4.815,0,0,1-2.883.8A5.029,5.029,0,0,1,69.113-.25a3.561,3.561,0,0,1-1.455-1.169,2.716,2.716,0,0,1-.527-1.6h2.408a1.326,1.326,0,0,0,.5,1.037,1.987,1.987,0,0,0,1.248.36,1.839,1.839,0,0,0,1.1-.277A.861.861,0,0,0,72.765-2.628Z" transform="translate(-8668 -8442)" fill="#12263f"/>
  </g>
</svg>
