<svg xmlns="http://www.w3.org/2000/svg" width="145" height="145" viewBox="0 0 145 145">
  <g id="img8" transform="translate(-308 -5481.463)">
    <g id="Grupo_1074453" data-name="Grupo 1074453" transform="translate(128 -3468.537)">
      <rect id="Rectángulo_378651" data-name="Rectángulo 378651" width="145" height="31" rx="15.5" transform="translate(180 9064)" fill="#315884"/>
      <g id="Grupo_1074381" data-name="Grupo 1074381" transform="translate(183.625 8950)">
        <g id="Grupo_1073526" data-name="Grupo 1073526" transform="translate(0 0)">
          <g id="Grupo_1072785" data-name="Grupo 1072785" transform="translate(0 0)">
            <path id="Trazado_608385" data-name="Trazado 608385" d="M68.288,0A68.288,68.288,0,1,1,0,68.288,68.288,68.288,0,0,1,68.288,0Z" transform="translate(0 0)" fill="none"/>
          </g>
          <g id="Grupo_1073383" data-name="Grupo 1073383" transform="translate(0 0)">
            <g id="Trazado_608385-2" data-name="Trazado 608385" transform="translate(0 0)" fill="#fff">
              <path d="M 68.28794097900391 135.5758819580078 C 59.20368576049805 135.5758819580078 50.39170455932617 133.7969360351562 42.09674072265625 130.2884826660156 C 38.10986709594727 128.6021728515625 34.26445007324219 126.5149383544922 30.66730499267578 124.0847625732422 C 27.10408592224121 121.677490234375 23.75334167480469 118.9128646850586 20.70817756652832 115.8677062988281 C 17.66301345825195 112.8225402832031 14.89839553833008 109.4718170166016 12.49112319946289 105.908576965332 C 10.06094074249268 102.3114318847656 7.973704814910889 98.46601104736328 6.287413597106934 94.47914123535156 C 2.778940916061401 86.18419647216797 0.9999955296516418 77.3721923828125 0.9999955296516418 68.28794097900391 C 0.9999955296516418 59.20368576049805 2.778940916061401 50.39170455932617 6.287413597106934 42.09674072265625 C 7.973704814910889 38.10986709594727 10.06094074249268 34.26445007324219 12.49112319946289 30.66730499267578 C 14.89839553833008 27.10408592224121 17.66301345825195 23.75334167480469 20.70817756652832 20.70817756652832 C 23.75334167480469 17.66301345825195 27.10408592224121 14.89839553833008 30.66730499267578 12.49112319946289 C 34.26445007324219 10.06094074249268 38.10986709594727 7.973704814910889 42.09674072265625 6.287413597106934 C 50.39170455932617 2.778940916061401 59.20368576049805 0.9999955296516418 68.28794097900391 0.9999955296516418 C 77.3721923828125 0.9999955296516418 86.18419647216797 2.778940916061401 94.47914123535156 6.287413597106934 C 98.46601104736328 7.973704814910889 102.3114318847656 10.06094074249268 105.908576965332 12.49112319946289 C 109.4718170166016 14.89839553833008 112.8225402832031 17.66301345825195 115.8677062988281 20.70817756652832 C 118.9128646850586 23.75334167480469 121.677490234375 27.10408592224121 124.0847625732422 30.66730499267578 C 126.5149383544922 34.26445007324219 128.6021728515625 38.10986709594727 130.2884826660156 42.09674072265625 C 133.7969360351562 50.39170455932617 135.5758819580078 59.20368576049805 135.5758819580078 68.28794097900391 C 135.5758819580078 77.3721923828125 133.7969360351562 86.18419647216797 130.2884826660156 94.47914123535156 C 128.6021728515625 98.46601104736328 126.5149383544922 102.3114318847656 124.0847625732422 105.908576965332 C 121.677490234375 109.4718170166016 118.9128646850586 112.8225402832031 115.8677062988281 115.8677062988281 C 112.8225402832031 118.9128646850586 109.4718170166016 121.677490234375 105.908576965332 124.0847625732422 C 102.3114318847656 126.5149383544922 98.46601104736328 128.6021728515625 94.47914123535156 130.2884826660156 C 86.18419647216797 133.7969360351562 77.3721923828125 135.5758819580078 68.28794097900391 135.5758819580078 Z" stroke="none"/>
              <path d="M 68.28794097900391 2 C 59.33824157714844 2 50.65731811523438 3.752365112304688 42.48629760742188 7.208419799804688 C 38.55889892578125 8.869560241699219 34.77075958251953 10.92572021484375 31.22711944580078 13.31976318359375 C 27.71662139892578 15.69139862060547 24.41545867919922 18.41512298583984 21.41529846191406 21.41529846191406 C 18.41512298583984 24.41545867919922 15.69139862060547 27.71662139892578 13.31976318359375 31.22711944580078 C 10.92572021484375 34.77075958251953 8.869560241699219 38.55889892578125 7.208419799804688 42.48629760742188 C 3.752365112304688 50.65731811523438 2 59.33824157714844 2 68.28794097900391 C 2 77.23764038085938 3.752365112304688 85.91856384277344 7.208419799804688 94.08958435058594 C 8.869560241699219 98.01699829101562 10.92572021484375 101.8051223754883 13.31976318359375 105.348762512207 C 15.69139862060547 108.859260559082 18.41512298583984 112.1604385375977 21.41529846191406 115.1605987548828 C 24.41545867919922 118.160758972168 27.71662139892578 120.8844833374023 31.22711944580078 123.2561187744141 C 34.77075958251953 125.6501617431641 38.55889892578125 127.7063217163086 42.48629760742188 129.3674621582031 C 50.65731811523438 132.8235168457031 59.33824157714844 134.5758819580078 68.28794097900391 134.5758819580078 C 77.23764038085938 134.5758819580078 85.91856384277344 132.8235168457031 94.08958435058594 129.3674621582031 C 98.01699829101562 127.7063217163086 101.8051223754883 125.6501617431641 105.348762512207 123.2561187744141 C 108.859260559082 120.8844833374023 112.1604385375977 118.160758972168 115.1605987548828 115.1605987548828 C 118.160758972168 112.1604385375977 120.8844833374023 108.859260559082 123.2561187744141 105.348762512207 C 125.6501617431641 101.8051223754883 127.7063217163086 98.01699829101562 129.3674621582031 94.08958435058594 C 132.8235168457031 85.91856384277344 134.5758819580078 77.23764038085938 134.5758819580078 68.28794097900391 C 134.5758819580078 59.33824157714844 132.8235168457031 50.65731811523438 129.3674621582031 42.48629760742188 C 127.7063217163086 38.55889892578125 125.6501617431641 34.77075958251953 123.2561187744141 31.22711944580078 C 120.8844833374023 27.71662139892578 118.160758972168 24.41545867919922 115.1605987548828 21.41529846191406 C 112.1604385375977 18.41512298583984 108.859260559082 15.69139862060547 105.348762512207 13.31976318359375 C 101.8051223754883 10.92572021484375 98.01699829101562 8.869560241699219 94.08958435058594 7.208419799804688 C 85.91856384277344 3.752365112304688 77.23764038085938 2 68.28794097900391 2 M 68.28794097900391 0 C 106.0023422241211 0 136.5758819580078 30.57356262207031 136.5758819580078 68.28794097900391 C 136.5758819580078 106.0023422241211 106.0023422241211 136.5758819580078 68.28794097900391 136.5758819580078 C 30.57356262207031 136.5758819580078 0 106.0023422241211 0 68.28794097900391 C 0 30.57356262207031 30.57356262207031 0 68.28794097900391 0 Z" stroke="none" fill="#85b6ec"/>
            </g>
          </g>
        </g>
      </g>
      <path id="Trazado_615556" data-name="Trazado 615556" d="M753.15,143.341l5.254-5.253a1.485,1.485,0,0,0-2.1-2.1l-5.254,5.254-5.254-5.254a1.485,1.485,0,0,0-2.1,2.1l5.254,5.253-5.254,5.254a1.485,1.485,0,1,0,2.1,2.1l5.254-5.254,5.254,5.254a1.485,1.485,0,0,0,2.1-2.1Z" transform="translate(-444.163 8826.323)" fill="#ff7c48"/>
      <path id="Trazado_615557" data-name="Trazado 615557" d="M0,16.546,10.536,0,21.071,16.546Z" transform="translate(198.676 9040.785) rotate(90)" fill="#ffb850"/>
      <path id="Trazado_615559" data-name="Trazado 615559" d="M159.635,312.344a4.329,4.329,0,1,1-4.329-4.33,4.329,4.329,0,0,1,4.329,4.33" transform="translate(134.153 8763.889)" fill="#ffb850"/>
      <path id="Trazado_615560" data-name="Trazado 615560" d="M77.381,312.344a4.329,4.329,0,1,1-4.329-4.33,4.329,4.329,0,0,1,4.329,4.33" transform="translate(198.386 8763.889)" fill="#3656b3"/>
      <path id="Trazado_615561" data-name="Trazado 615561" d="M241.889,312.344a4.329,4.329,0,1,1-4.329-4.33,4.329,4.329,0,0,1,4.329,4.33" transform="translate(69.923 8763.889)" fill="#29c7cc"/>
    </g>
    <g id="Grupo_1074995" data-name="Grupo 1074995" transform="translate(349.492 5515.405)">
      <g id="Grupo_1074958" data-name="Grupo 1074958" transform="translate(0 0.127)">
        <path id="Trazado_615755" data-name="Trazado 615755" d="M54.413.127H1.406A1.406,1.406,0,0,0,0,1.533V70.686a1.406,1.406,0,0,0,1.406,1.406H54.413a1.406,1.406,0,0,0,1.406-1.406V1.533A1.406,1.406,0,0,0,54.413.127Z" transform="translate(0 -0.127)" fill="#fef1da"/>
      </g>
      <g id="Grupo_1074959" data-name="Grupo 1074959" transform="translate(17.99 0.127)">
        <path id="Trazado_615756" data-name="Trazado 615756" d="M161.144.127V18.9a26.594,26.594,0,1,0,0,51.549v1.643h3.27a1.406,1.406,0,0,0,1.406-1.406V1.533A1.406,1.406,0,0,0,164.415.127h-3.27Z" transform="translate(-127.992 -0.127)" fill="#fae2c0"/>
      </g>
      <g id="Grupo_1074968" data-name="Grupo 1074968" transform="translate(6.722 6.008)">
        <g id="Grupo_1074967" data-name="Grupo 1074967">
          <g id="Grupo_1074960" data-name="Grupo 1074960" transform="translate(11.69 17.534)">
            <path id="Trazado_615757" data-name="Trazado 615757" d="M130.989,190.1V168.128a1.406,1.406,0,0,1,1.406-1.406h4.495a1.406,1.406,0,0,1,1.406,1.406V190.1Z" transform="translate(-130.989 -166.722)" fill="#fe73c5"/>
          </g>
          <g id="Grupo_1074961" data-name="Grupo 1074961" transform="translate(11.69 19.942)">
            <path id="Trazado_615758" data-name="Trazado 615758" d="M130.989,197.848v6.976H138.3V183.853A26.556,26.556,0,0,0,130.989,197.848Z" transform="translate(-130.989 -183.853)" fill="#fe4fb7"/>
          </g>
          <g id="Grupo_1074962" data-name="Grupo 1074962" transform="translate(35.069)">
            <path id="Trazado_615759" data-name="Trazado 615759" d="M297.324,82.885V43.377a1.406,1.406,0,0,1,1.406-1.406h4.495a1.406,1.406,0,0,1,1.406,1.406V82.885Z" transform="translate(-297.324 -41.971)" fill="#6cf5c2"/>
          </g>
          <g id="Grupo_1074963" data-name="Grupo 1074963" transform="translate(35.069 12.072)">
            <path id="Trazado_615760" data-name="Trazado 615760" d="M304.63,128.244a26.68,26.68,0,0,0-7.306-.238v28.7h7.306Z" transform="translate(-297.324 -127.859)" fill="#00f2a6"/>
          </g>
          <g id="Grupo_1074964" data-name="Grupo 1074964" transform="translate(23.379 8.767)">
            <path id="Trazado_615761" data-name="Trazado 615761" d="M221.462,136.493V105.752a1.406,1.406,0,0,0-1.406-1.406h-4.495a1.406,1.406,0,0,0-1.406,1.406v30.741Z" transform="translate(-214.156 -104.346)" fill="#ffd15b"/>
          </g>
          <g id="Grupo_1074965" data-name="Grupo 1074965" transform="translate(23.379 13.057)">
            <path id="Trazado_615762" data-name="Trazado 615762" d="M214.156,138.181v24.541h7.306V134.865A26.474,26.474,0,0,0,214.156,138.181Z" transform="translate(-214.156 -134.865)" fill="#ffc344"/>
          </g>
          <g id="Grupo_1074966" data-name="Grupo 1074966" transform="translate(0 26.302)">
            <path id="Trazado_615763" data-name="Trazado 615763" d="M55.127,243.71V230.5a1.406,1.406,0,0,0-1.406-1.406H49.227a1.406,1.406,0,0,0-1.406,1.406V243.71Z" transform="translate(-47.821 -229.098)" fill="#62dbfb"/>
          </g>
        </g>
      </g>
      <g id="Grupo_1074969" data-name="Grupo 1074969" transform="translate(3.329 45.868)">
        <path id="Trazado_615764" data-name="Trazado 615764" d="M42.993,327.665H24.742a1.054,1.054,0,0,1,0-2.108H42.993a1.054,1.054,0,0,1,0,2.108Z" transform="translate(-23.688 -325.557)" fill="#7a8c98"/>
      </g>
      <g id="Grupo_1074980" data-name="Grupo 1074980" transform="translate(22.666 22.756)">
        <g id="Grupo_1074970" data-name="Grupo 1074970" transform="translate(38.45 38.45)">
          <path id="Trazado_615765" data-name="Trazado 615765" d="M445.7,439.948v4.212a1.406,1.406,0,0,1-1.405,1.406h-4.211a1.405,1.405,0,0,1-.994-.412l-4.274-4.274,6.2-6.2,4.273,4.273A1.4,1.4,0,0,1,445.7,439.948Z" transform="translate(-434.814 -434.681)" fill="#8d9ca8"/>
        </g>
        <g id="Grupo_1074971" data-name="Grupo 1074971" transform="translate(37.305 37.319)">
          <path id="Trazado_615766" data-name="Trazado 615766" d="M0,0H8.767V5.985H0Z" transform="translate(0 6.198) rotate(-45)" fill="#7a8c98"/>
        </g>
        <g id="Grupo_1074972" data-name="Grupo 1074972" transform="translate(30.701 30.701)">
          <path id="Trazado_615767" data-name="Trazado 615767" d="M393.941,386.988l-6.819,6.819a1.753,1.753,0,0,1-2.48,0l-4.96-4.96,9.3-9.3,4.96,4.96A1.754,1.754,0,0,1,393.941,386.988Z" transform="translate(-379.682 -379.549)" fill="#0067c5"/>
        </g>
        <g id="Grupo_1074973" data-name="Grupo 1074973" transform="translate(30.701 30.701)">
          <path id="Trazado_615768" data-name="Trazado 615768" d="M383.618,392.782a25.457,25.457,0,0,0,9.3-9.3l-3.935-3.935-9.3,9.3Z" transform="translate(-379.683 -379.548)" fill="#0055a3"/>
        </g>
        <g id="Grupo_1074974" data-name="Grupo 1074974">
          <circle id="Elipse_6032" data-name="Elipse 6032" cx="21.918" cy="21.918" r="21.918" fill="#528fd8"/>
        </g>
        <g id="Grupo_1074975" data-name="Grupo 1074975" transform="translate(4.383 4.383)">
          <path id="Trazado_615769" data-name="Trazado 615769" d="M223.129,192.309A21.919,21.919,0,0,1,192.443,223a21.919,21.919,0,1,0,30.686-30.686Z" transform="translate(-192.443 -192.309)" fill="#0573ce"/>
        </g>
        <g id="Grupo_1074976" data-name="Grupo 1074976" transform="translate(4.384 4.384)">
          <circle id="Elipse_6033" data-name="Elipse 6033" cx="17.534" cy="17.534" r="17.534" fill="#62dbfb"/>
        </g>
        <g id="Grupo_1074977" data-name="Grupo 1074977" transform="translate(8.031 8.031)">
          <path id="Trazado_615770" data-name="Trazado 615770" d="M242.975,218.263A17.525,17.525,0,0,1,218.4,242.842a17.528,17.528,0,1,0,24.579-24.579Z" transform="translate(-218.396 -218.263)" fill="#01d0fb"/>
        </g>
        <g id="Grupo_1074978" data-name="Grupo 1074978" transform="translate(9.644 9.644)">
          <path id="Trazado_615771" data-name="Trazado 615771" d="M254.42,242.867v-1.71a1.406,1.406,0,0,0-1.174-1.386l-2.275-.379a9.154,9.154,0,0,0-.731-1.768l1.339-1.875a1.406,1.406,0,0,0-.15-1.811l-1.209-1.209a1.405,1.405,0,0,0-1.811-.15l-1.875,1.339a9.154,9.154,0,0,0-1.768-.731l-.379-2.275A1.406,1.406,0,0,0,243,229.738h-1.71a1.406,1.406,0,0,0-1.386,1.174l-.379,2.275a9.154,9.154,0,0,0-1.768.731l-1.875-1.339a1.406,1.406,0,0,0-1.811.15l-1.209,1.209a1.405,1.405,0,0,0-.15,1.811l1.339,1.875a9.154,9.154,0,0,0-.731,1.768l-2.275.379a1.406,1.406,0,0,0-1.174,1.386v1.71a1.406,1.406,0,0,0,1.174,1.386l2.275.379a9.154,9.154,0,0,0,.731,1.768l-1.339,1.875a1.406,1.406,0,0,0,.15,1.811l1.209,1.209a1.405,1.405,0,0,0,1.811.15l1.875-1.339a9.15,9.15,0,0,0,1.768.731l.379,2.275a1.406,1.406,0,0,0,1.386,1.174H243a1.406,1.406,0,0,0,1.386-1.174l.379-2.275a9.154,9.154,0,0,0,1.768-.731l1.875,1.339a1.406,1.406,0,0,0,1.811-.15l1.209-1.209a1.405,1.405,0,0,0,.15-1.811L250.24,246.4a9.145,9.145,0,0,0,.731-1.768l2.275-.379A1.405,1.405,0,0,0,254.42,242.867Zm-12.274,2.214a3.068,3.068,0,1,1,3.068-3.068A3.068,3.068,0,0,1,242.146,245.081Z" transform="translate(-229.872 -229.738)" fill="#8d9ca8"/>
        </g>
        <g id="Grupo_1074979" data-name="Grupo 1074979" transform="translate(12.223 12.223)">
          <path id="Trazado_615772" data-name="Trazado 615772" d="M269.017,255.542l-2.275-.379a9.152,9.152,0,0,0-.731-1.768l1.339-1.875a1.406,1.406,0,0,0-.15-1.811l-.6-.6-.6-.6a1.405,1.405,0,0,0-1.378-.358,12.839,12.839,0,0,1-16.338,16.338,1.405,1.405,0,0,0,.358,1.378l1.209,1.209a1.405,1.405,0,0,0,1.811.15l1.875-1.339a9.154,9.154,0,0,0,1.768.731l.379,2.275a1.406,1.406,0,0,0,1.386,1.174h1.71a1.406,1.406,0,0,0,1.386-1.174l.379-2.275a9.154,9.154,0,0,0,1.768-.731l1.875,1.339a1.406,1.406,0,0,0,1.811-.15l.6-.6.6-.6a1.405,1.405,0,0,0,.15-1.811l-1.339-1.875a9.141,9.141,0,0,0,.731-1.768l2.275-.379a1.406,1.406,0,0,0,1.174-1.386v-1.71a1.405,1.405,0,0,0-1.174-1.387Z" transform="translate(-248.222 -248.089)" fill="#7a8c98"/>
        </g>
      </g>
      <g id="Grupo_1074987" data-name="Grupo 1074987" transform="translate(5.667 4.954)">
        <g id="Grupo_1074981" data-name="Grupo 1074981">
          <path id="Trazado_615773" data-name="Trazado 615773" d="M44.222,36.579H41.375a1.054,1.054,0,1,1,0-2.108h2.846a1.054,1.054,0,0,1,0,2.108Z" transform="translate(-40.321 -34.471)" fill="#528fd8"/>
        </g>
        <g id="Grupo_1074982" data-name="Grupo 1074982" transform="translate(7.23)">
          <path id="Trazado_615774" data-name="Trazado 615774" d="M99.758,36.579H92.814a1.054,1.054,0,1,1,0-2.108h6.944a1.054,1.054,0,0,1,0,2.108Z" transform="translate(-91.76 -34.471)" fill="#528fd8"/>
        </g>
        <g id="Grupo_1074983" data-name="Grupo 1074983" transform="translate(0 4.384)">
          <path id="Trazado_615775" data-name="Trazado 615775" d="M52.626,67.766H41.375a1.054,1.054,0,1,1,0-2.108H52.626a1.054,1.054,0,1,1,0,2.108Z" transform="translate(-40.321 -65.658)" fill="#528fd8"/>
        </g>
        <g id="Grupo_1074984" data-name="Grupo 1074984" transform="translate(15.635 4.384)">
          <path id="Trazado_615776" data-name="Trazado 615776" d="M155.535,67.766h-2.922a1.054,1.054,0,1,1,0-2.108h2.922a1.054,1.054,0,1,1,0,2.108Z" transform="translate(-151.558 -65.658)" fill="#528fd8"/>
        </g>
        <g id="Grupo_1074985" data-name="Grupo 1074985" transform="translate(0 8.767)">
          <path id="Trazado_615777" data-name="Trazado 615777" d="M46.413,98.954H41.375a1.054,1.054,0,1,1,0-2.108h5.038a1.054,1.054,0,1,1,0,2.108Z" transform="translate(-40.321 -96.846)" fill="#528fd8"/>
        </g>
        <g id="Grupo_1074986" data-name="Grupo 1074986" transform="translate(9.422 8.767)">
          <path id="Trazado_615778" data-name="Trazado 615778" d="M117.545,98.954h-9.135a1.054,1.054,0,1,1,0-2.108h9.135a1.054,1.054,0,1,1,0,2.108Z" transform="translate(-107.355 -96.846)" fill="#528fd8"/>
        </g>
      </g>
      <g id="Grupo_1074994" data-name="Grupo 1074994" transform="translate(5.667 57.85)">
        <g id="Grupo_1074988" data-name="Grupo 1074988">
          <path id="Trazado_615779" data-name="Trazado 615779" d="M44.222,412.912H41.375a1.054,1.054,0,0,1,0-2.108h2.846a1.054,1.054,0,0,1,0,2.108Z" transform="translate(-40.321 -410.804)" fill="#fe73c5"/>
        </g>
        <g id="Grupo_1074989" data-name="Grupo 1074989" transform="translate(7.23)">
          <path id="Trazado_615780" data-name="Trazado 615780" d="M98.3,412.912H92.814a1.054,1.054,0,0,1,0-2.108H98.3a1.054,1.054,0,0,1,0,2.108Z" transform="translate(-91.76 -410.804)" fill="#fe73c5"/>
        </g>
        <g id="Grupo_1074990" data-name="Grupo 1074990" transform="translate(0 4.384)">
          <path id="Trazado_615781" data-name="Trazado 615781" d="M51.165,444.1h-9.79a1.054,1.054,0,1,1,0-2.108h9.79a1.054,1.054,0,1,1,0,2.108Z" transform="translate(-40.321 -441.991)" fill="#00f2a6"/>
        </g>
        <g id="Grupo_1074991" data-name="Grupo 1074991" transform="translate(14.174 4.384)">
          <path id="Trazado_615782" data-name="Trazado 615782" d="M145.139,444.1h-2.922a1.054,1.054,0,1,1,0-2.108h2.922a1.054,1.054,0,1,1,0,2.108Z" transform="translate(-141.162 -441.991)" fill="#00f2a6"/>
        </g>
        <g id="Grupo_1074992" data-name="Grupo 1074992" transform="translate(0 8.767)">
          <path id="Trazado_615783" data-name="Trazado 615783" d="M46.413,475.287H41.375a1.054,1.054,0,0,1,0-2.108h5.038a1.054,1.054,0,0,1,0,2.108Z" transform="translate(-40.321 -473.179)" fill="#01d0fb"/>
        </g>
        <g id="Grupo_1074993" data-name="Grupo 1074993" transform="translate(9.422 8.767)">
          <path id="Trazado_615784" data-name="Trazado 615784" d="M116.083,475.287h-7.674a1.054,1.054,0,0,1,0-2.108h7.674a1.054,1.054,0,0,1,0,2.108Z" transform="translate(-107.355 -473.179)" fill="#01d0fb"/>
        </g>
      </g>
    </g>
  </g>
</svg>
