<svg xmlns="http://www.w3.org/2000/svg" width="145" height="145" viewBox="0 0 145 145">
  <g id="img9" transform="translate(-728 -5481.463)">
    <g id="Grupo_1074456" data-name="Grupo 1074456" transform="translate(548 -3468.537)">
      <rect id="Rectángulo_378651" data-name="Rectángulo 378651" width="145" height="31" rx="15.5" transform="translate(180 9064)" fill="#315884"/>
      <g id="Grupo_1074381" data-name="Grupo 1074381" transform="translate(183.625 8950)">
        <g id="Grupo_1073526" data-name="Grupo 1073526" transform="translate(0 0)">
          <g id="Grupo_1072785" data-name="Grupo 1072785" transform="translate(0 0)">
            <path id="Trazado_608385" data-name="Trazado 608385" d="M68.288,0A68.288,68.288,0,1,1,0,68.288,68.288,68.288,0,0,1,68.288,0Z" transform="translate(0 0)" fill="none"/>
          </g>
          <g id="Grupo_1073383" data-name="Grupo 1073383" transform="translate(0 0)">
            <g id="Trazado_608385-2" data-name="Trazado 608385" transform="translate(0 0)" fill="#fff">
              <path d="M 68.28794097900391 135.5758819580078 C 59.20368576049805 135.5758819580078 50.39170455932617 133.7969360351562 42.09674072265625 130.2884826660156 C 38.10986709594727 128.6021728515625 34.26445007324219 126.5149383544922 30.66730499267578 124.0847625732422 C 27.10408592224121 121.677490234375 23.75334167480469 118.9128646850586 20.70817756652832 115.8677062988281 C 17.66301345825195 112.8225402832031 14.89839553833008 109.4718170166016 12.49112319946289 105.908576965332 C 10.06094074249268 102.3114318847656 7.973704814910889 98.46601104736328 6.287413597106934 94.47914123535156 C 2.778940916061401 86.18419647216797 0.9999955296516418 77.3721923828125 0.9999955296516418 68.28794097900391 C 0.9999955296516418 59.20368576049805 2.778940916061401 50.39170455932617 6.287413597106934 42.09674072265625 C 7.973704814910889 38.10986709594727 10.06094074249268 34.26445007324219 12.49112319946289 30.66730499267578 C 14.89839553833008 27.10408592224121 17.66301345825195 23.75334167480469 20.70817756652832 20.70817756652832 C 23.75334167480469 17.66301345825195 27.10408592224121 14.89839553833008 30.66730499267578 12.49112319946289 C 34.26445007324219 10.06094074249268 38.10986709594727 7.973704814910889 42.09674072265625 6.287413597106934 C 50.39170455932617 2.778940916061401 59.20368576049805 0.9999955296516418 68.28794097900391 0.9999955296516418 C 77.3721923828125 0.9999955296516418 86.18419647216797 2.778940916061401 94.47914123535156 6.287413597106934 C 98.46601104736328 7.973704814910889 102.3114318847656 10.06094074249268 105.908576965332 12.49112319946289 C 109.4718170166016 14.89839553833008 112.8225402832031 17.66301345825195 115.8677062988281 20.70817756652832 C 118.9128646850586 23.75334167480469 121.677490234375 27.10408592224121 124.0847625732422 30.66730499267578 C 126.5149383544922 34.26445007324219 128.6021728515625 38.10986709594727 130.2884826660156 42.09674072265625 C 133.7969360351562 50.39170455932617 135.5758819580078 59.20368576049805 135.5758819580078 68.28794097900391 C 135.5758819580078 77.3721923828125 133.7969360351562 86.18419647216797 130.2884826660156 94.47914123535156 C 128.6021728515625 98.46601104736328 126.5149383544922 102.3114318847656 124.0847625732422 105.908576965332 C 121.677490234375 109.4718170166016 118.9128646850586 112.8225402832031 115.8677062988281 115.8677062988281 C 112.8225402832031 118.9128646850586 109.4718170166016 121.677490234375 105.908576965332 124.0847625732422 C 102.3114318847656 126.5149383544922 98.46601104736328 128.6021728515625 94.47914123535156 130.2884826660156 C 86.18419647216797 133.7969360351562 77.3721923828125 135.5758819580078 68.28794097900391 135.5758819580078 Z" stroke="none"/>
              <path d="M 68.28794097900391 2 C 59.33824157714844 2 50.65731811523438 3.752365112304688 42.48629760742188 7.208419799804688 C 38.55889892578125 8.869560241699219 34.77075958251953 10.92572021484375 31.22711944580078 13.31976318359375 C 27.71662139892578 15.69139862060547 24.41545867919922 18.41512298583984 21.41529846191406 21.41529846191406 C 18.41512298583984 24.41545867919922 15.69139862060547 27.71662139892578 13.31976318359375 31.22711944580078 C 10.92572021484375 34.77075958251953 8.869560241699219 38.55889892578125 7.208419799804688 42.48629760742188 C 3.752365112304688 50.65731811523438 2 59.33824157714844 2 68.28794097900391 C 2 77.23764038085938 3.752365112304688 85.91856384277344 7.208419799804688 94.08958435058594 C 8.869560241699219 98.01699829101562 10.92572021484375 101.8051223754883 13.31976318359375 105.348762512207 C 15.69139862060547 108.859260559082 18.41512298583984 112.1604385375977 21.41529846191406 115.1605987548828 C 24.41545867919922 118.160758972168 27.71662139892578 120.8844833374023 31.22711944580078 123.2561187744141 C 34.77075958251953 125.6501617431641 38.55889892578125 127.7063217163086 42.48629760742188 129.3674621582031 C 50.65731811523438 132.8235168457031 59.33824157714844 134.5758819580078 68.28794097900391 134.5758819580078 C 77.23764038085938 134.5758819580078 85.91856384277344 132.8235168457031 94.08958435058594 129.3674621582031 C 98.01699829101562 127.7063217163086 101.8051223754883 125.6501617431641 105.348762512207 123.2561187744141 C 108.859260559082 120.8844833374023 112.1604385375977 118.160758972168 115.1605987548828 115.1605987548828 C 118.160758972168 112.1604385375977 120.8844833374023 108.859260559082 123.2561187744141 105.348762512207 C 125.6501617431641 101.8051223754883 127.7063217163086 98.01699829101562 129.3674621582031 94.08958435058594 C 132.8235168457031 85.91856384277344 134.5758819580078 77.23764038085938 134.5758819580078 68.28794097900391 C 134.5758819580078 59.33824157714844 132.8235168457031 50.65731811523438 129.3674621582031 42.48629760742188 C 127.7063217163086 38.55889892578125 125.6501617431641 34.77075958251953 123.2561187744141 31.22711944580078 C 120.8844833374023 27.71662139892578 118.160758972168 24.41545867919922 115.1605987548828 21.41529846191406 C 112.1604385375977 18.41512298583984 108.859260559082 15.69139862060547 105.348762512207 13.31976318359375 C 101.8051223754883 10.92572021484375 98.01699829101562 8.869560241699219 94.08958435058594 7.208419799804688 C 85.91856384277344 3.752365112304688 77.23764038085938 2 68.28794097900391 2 M 68.28794097900391 0 C 106.0023422241211 0 136.5758819580078 30.57356262207031 136.5758819580078 68.28794097900391 C 136.5758819580078 106.0023422241211 106.0023422241211 136.5758819580078 68.28794097900391 136.5758819580078 C 30.57356262207031 136.5758819580078 0 106.0023422241211 0 68.28794097900391 C 0 30.57356262207031 30.57356262207031 0 68.28794097900391 0 Z" stroke="none" fill="#85b6ec"/>
            </g>
          </g>
        </g>
      </g>
      <path id="Trazado_615556" data-name="Trazado 615556" d="M753.15,143.341l5.254-5.253a1.485,1.485,0,0,0-2.1-2.1l-5.254,5.254-5.254-5.254a1.485,1.485,0,0,0-2.1,2.1l5.254,5.253-5.254,5.254a1.485,1.485,0,1,0,2.1,2.1l5.254-5.254,5.254,5.254a1.485,1.485,0,0,0,2.1-2.1Z" transform="translate(-444.163 8826.323)" fill="#ff7c48"/>
      <path id="Trazado_615557" data-name="Trazado 615557" d="M0,16.546,10.536,0,21.071,16.546Z" transform="translate(198.676 9040.785) rotate(90)" fill="#ffb850"/>
      <path id="Trazado_615559" data-name="Trazado 615559" d="M159.635,312.344a4.329,4.329,0,1,1-4.329-4.33,4.329,4.329,0,0,1,4.329,4.33" transform="translate(134.153 8763.889)" fill="#ffb850"/>
      <path id="Trazado_615560" data-name="Trazado 615560" d="M77.381,312.344a4.329,4.329,0,1,1-4.329-4.33,4.329,4.329,0,0,1,4.329,4.33" transform="translate(198.386 8763.889)" fill="#3656b3"/>
      <path id="Trazado_615561" data-name="Trazado 615561" d="M241.889,312.344a4.329,4.329,0,1,1-4.329-4.33,4.329,4.329,0,0,1,4.329,4.33" transform="translate(69.923 8763.889)" fill="#29c7cc"/>
    </g>
    <g id="Grupo_1075009" data-name="Grupo 1075009" transform="translate(761.721 5510.104)">
      <g id="Grupo_1075007" data-name="Grupo 1075007" transform="translate(0.001)">
        <g id="Grupo_1075004" data-name="Grupo 1075004" transform="translate(0 0)">
          <g id="Grupo_1075000" data-name="Grupo 1075000" transform="translate(0 33.701)">
            <g id="Grupo_1074996" data-name="Grupo 1074996" transform="translate(15.279)">
              <path id="Trazado_615785" data-name="Trazado 615785" d="M0,0H12.2V4.369H0Z" transform="translate(0 8.628) rotate(-45)" fill="#603f5b"/>
              <path id="Trazado_615786" data-name="Trazado 615786" d="M0,0H12.2V2.184H0Z" transform="translate(1.544 10.173) rotate(-45)" fill="#492945"/>
            </g>
            <g id="Grupo_1074999" data-name="Grupo 1074999" transform="translate(0 3.794)">
              <g id="Grupo_1074997" data-name="Grupo 1074997">
                <path id="Trazado_615787" data-name="Trazado 615787" d="M7.7,280.7a7.693,7.693,0,0,1-5.019-13.525l9.383-8.034a6.733,6.733,0,0,1,9.5,9.5l-8.03,9.379a7.719,7.719,0,0,1-5.547,2.675c-.1,0-.191.006-.286.006Z" transform="translate(-0.001 -257.486)" fill="#70acf8"/>
                <path id="Trazado_615788" data-name="Trazado 615788" d="M26.749,289.55l8.03-9.379a6.75,6.75,0,0,0-.314-9.186L15.474,289.977a7.717,7.717,0,0,0,5.442,2.253c.095,0,.191,0,.286-.005A7.719,7.719,0,0,0,26.749,289.55Z" transform="translate(-13.221 -269.019)" fill="#508be3"/>
              </g>
              <g id="Grupo_1074998" data-name="Grupo 1074998" transform="translate(4.207 5.525)">
                <path id="Trazado_615789" data-name="Trazado 615789" d="M28.9,298.279l10.628,10.628,2.85-3.328-10.15-10.15Z" transform="translate(-28.895 -295.429)" fill="#603f5b"/>
                <path id="Trazado_615790" data-name="Trazado 615790" d="M65.388,333.369l5.314,5.314,2.85-3.328-5.075-5.075Z" transform="translate(-60.074 -325.205)" fill="#492945"/>
              </g>
            </g>
          </g>
          <g id="Grupo_1075003" data-name="Grupo 1075003" transform="translate(17.612)">
            <g id="Grupo_1075001" data-name="Grupo 1075001">
              <path id="Trazado_615791" data-name="Trazado 615791" d="M142.49,43.1A21.552,21.552,0,0,1,127.251,6.312,21.551,21.551,0,1,1,157.73,36.791,21.409,21.409,0,0,1,142.49,43.1Z" transform="translate(-120.949 0)" fill="#70acf8"/>
              <path id="Trazado_615792" data-name="Trazado 615792" d="M201.019,58.588a21.41,21.41,0,0,0-6.312-15.239L164.228,73.827a21.552,21.552,0,0,0,36.791-15.239Z" transform="translate(-157.926 -37.037)" fill="#508be3"/>
            </g>
            <g id="Grupo_1075002" data-name="Grupo 1075002" transform="translate(4.368 4.369)">
              <path id="Trazado_615793" data-name="Trazado 615793" d="M168.121,64.366a17.183,17.183,0,1,1,12.15-5.033A17.07,17.07,0,0,1,168.121,64.366Z" transform="translate(-150.948 -30)" fill="#f1f1fb"/>
              <path id="Trazado_615794" data-name="Trazado 615794" d="M214.774,76.712a17.071,17.071,0,0,0-5.033-12.15l-24.3,24.3a17.183,17.183,0,0,0,29.333-12.15Z" transform="translate(-180.418 -59.529)" fill="#e1daf8"/>
            </g>
          </g>
        </g>
        <g id="Grupo_1075005" data-name="Grupo 1075005" transform="translate(0 50.033)">
          <path id="Trazado_615795" data-name="Trazado 615795" d="M296.188,343.591h-.011a1.091,1.091,0,0,0-1.079,1.1l.054,5.6-4.28-6.215a1.089,1.089,0,0,0-1.985.621v8.992a1.089,1.089,0,1,0,2.178,0V348.2l4.078,5.922a1.207,1.207,0,0,0,1.364.5,1.258,1.258,0,0,0,.853-1.252l-.084-8.705a1.09,1.09,0,0,0-1.089-1.082Z" transform="translate(-246.82 -343.591)" fill="#351d33"/>
          <path id="Trazado_615796" data-name="Trazado 615796" d="M455.439,354.784a1.091,1.091,0,0,0,1.089-1.092v-3.567h4.039v3.567a1.089,1.089,0,1,0,2.178,0v-9.009a1.089,1.089,0,1,0-2.178,0v3.258h-4.039v-3.258a1.089,1.089,0,1,0-2.178,0v9.009A1.091,1.091,0,0,0,455.439,354.784Z" transform="translate(-388.189 -343.591)" fill="#351d33"/>
          <path id="Trazado_615797" data-name="Trazado 615797" d="M233.31,353.611a1.091,1.091,0,0,0-1.089-1.092h-2.662V350.24h2.385a1.092,1.092,0,0,0,0-2.184h-2.385v-2.279h2.662a1.092,1.092,0,0,0,0-2.184H228.47a1.09,1.09,0,0,0-1.089,1.092v8.927a1.091,1.091,0,0,0,1.089,1.092h3.751A1.091,1.091,0,0,0,233.31,353.611Z" transform="translate(-194.27 -343.592)" fill="#603f5b"/>
          <path id="Trazado_615798" data-name="Trazado 615798" d="M160.643,351.256a3.515,3.515,0,0,0-1.331-2.756,3.165,3.165,0,0,0-2.632-4.91H154.07a1.09,1.09,0,0,0-1.089,1.092v9.009a1.091,1.091,0,0,0,1.089,1.092h0s2.4-.011,3.061-.011A3.516,3.516,0,0,0,160.643,351.256Zm-3.963-5.481a.981.981,0,0,1,0,1.962l-1.521,0v-1.964Zm.456,6.814c-.363,0-1.249,0-1.976.006v-2.67l1.976,0a1.333,1.333,0,0,1,0,2.666Z" transform="translate(-130.704 -343.59)" fill="#603f5b"/>
          <path id="Trazado_615799" data-name="Trazado 615799" d="M377.253,351.583a1.087,1.087,0,0,0-1.534.135,2.446,2.446,0,0,1-2,.881,3.412,3.412,0,0,1,0-6.825,3.377,3.377,0,0,1,1.9.582,1.091,1.091,0,0,0,1.22-1.81,5.591,5.591,0,1,0-3.121,10.237,4.623,4.623,0,0,0,3.664-1.662A1.1,1.1,0,0,0,377.253,351.583Z" transform="translate(-314.534 -343.59)" fill="#351d33"/>
          <path id="Trazado_615800" data-name="Trazado 615800" d="M105.756,435.965l-.012-.029a1.288,1.288,0,0,0-1.2-.8h0a1.289,1.289,0,0,0-1.2.806l-.01.025-3.373,8.882a1.089,1.089,0,1,0,2.036.777l.573-1.508h3.917l.567,1.506a1.089,1.089,0,1,0,2.038-.771Zm-2.349,5.964,1.138-3,1.127,3Z" transform="translate(-85.351 -421.802)" fill="#603f5b"/>
          <path id="Trazado_615801" data-name="Trazado 615801" d="M367.628,435.133h-.011a1.091,1.091,0,0,0-1.079,1.1l.054,5.6-4.28-6.216a1.089,1.089,0,0,0-1.985.621v8.992a1.089,1.089,0,1,0,2.178,0v-5.489l4.078,5.922a1.207,1.207,0,0,0,1.364.5,1.258,1.258,0,0,0,.853-1.252l-.084-8.705A1.09,1.09,0,0,0,367.628,435.133Z" transform="translate(-307.857 -421.803)" fill="#351d33"/>
          <path id="Trazado_615802" data-name="Trazado 615802" d="M9.955,436.171a1.291,1.291,0,0,0-2.5-.141l-.012.038-1.641,5.773-1.7-5.785c0-.013-.008-.026-.012-.039a1.291,1.291,0,0,0-2.5.181L.018,444.97a1.089,1.089,0,1,0,2.144.388l.914-5.081L4.585,445.4c0,.013.008.026.012.039a1.29,1.29,0,0,0,1.225.883h.007a1.291,1.291,0,0,0,1.222-.9l.012-.038,1.456-5.123.972,5.1a1.089,1.089,0,1,0,2.139-.41Z" transform="translate(-0.001 -421.803)" fill="#603f5b"/>
          <path id="Trazado_615803" data-name="Trazado 615803" d="M257.18,440.547l3.694-3.4a1.091,1.091,0,0,0-1.474-1.608l-3.007,2.771v-2.081a1.089,1.089,0,1,0-2.178,0v9.009a1.089,1.089,0,1,0,2.178,0V442.82l3.306,3.2a1.091,1.091,0,0,0,1.512-1.572Z" transform="translate(-217.197 -421.802)" fill="#603f5b"/>
          <path id="Trazado_615804" data-name="Trazado 615804" d="M325.326,435.133a1.09,1.09,0,0,0-1.089,1.092v9.009a1.089,1.089,0,1,0,2.178,0v-9.009A1.09,1.09,0,0,0,325.326,435.133Z" transform="translate(-277.022 -421.803)" fill="#351d33"/>
          <path id="Trazado_615805" data-name="Trazado 615805" d="M449.025,439.637h-2.688a1.092,1.092,0,0,0,0,2.184h1.478a2.67,2.67,0,0,1-2.668,2.32,3.412,3.412,0,1,1,1.9-6.243,1.091,1.091,0,0,0,1.219-1.81,5.591,5.591,0,1,0-3.121,10.237c2.924,0,4.967-2.3,4.967-5.6A1.091,1.091,0,0,0,449.025,439.637Z" transform="translate(-375.557 -421.802)" fill="#351d33"/>
          <path id="Trazado_615806" data-name="Trazado 615806" d="M192.017,438.567a3.5,3.5,0,0,0-3.556-3.434h-2.39a1.09,1.09,0,0,0-1.089,1.092v9.009a1.089,1.089,0,1,0,2.178,0v-2.64l2.951,3.362a1.09,1.09,0,1,0,1.635-1.443l-2.319-2.642A3.46,3.46,0,0,0,192.017,438.567Zm-3.556,1.249c-.3,0-.814,0-1.288,0,0-.464-.006-2.017-.007-2.5h1.295a1.255,1.255,0,1,1,0,2.5Z" transform="translate(-158.045 -421.803)" fill="#603f5b"/>
        </g>
        <g id="Grupo_1075006" data-name="Grupo 1075006" transform="translate(39.704)">
          <path id="Trazado_615807" data-name="Trazado 615807" d="M274.841,180a2.184,2.184,0,0,0-2.184,2.184v13.834l4.614,2.548,4.123-2.548V182.184A2.184,2.184,0,0,0,279.21,180Z" transform="translate(-272.657 -153.789)" fill="#fbdd6f"/>
          <path id="Trazado_615808" data-name="Trazado 615808" d="M334.841,130a2.184,2.184,0,0,0-2.184,2.184V153.3l4.369,2.548,4.369-2.548V132.184A2.184,2.184,0,0,0,339.21,130Z" transform="translate(-323.92 -111.07)" fill="#fbbf69"/>
          <path id="Trazado_615809" data-name="Trazado 615809" d="M459.114,0h-4.273a2.184,2.184,0,0,0-2.184,2.184V42.229l4.885,2.1,3.756-2.1V2.184A2.184,2.184,0,0,0,459.114,0Z" transform="translate(-426.446)" fill="#f9815c"/>
          <path id="Trazado_615810" data-name="Trazado 615810" d="M394.841,60a2.184,2.184,0,0,0-2.184,2.184V93.492l4.369,3.191,4.369-3.191V62.184A2.184,2.184,0,0,0,399.21,60Z" transform="translate(-375.183 -51.263)" fill="#f89874"/>
        </g>
      </g>
      <g id="Grupo_1075008" data-name="Grupo 1075008" transform="translate(39.705 42.229)">
        <path id="Trazado_615811" data-name="Trazado 615811" d="M305.326,294.993H274.841a2.184,2.184,0,0,1-2.184-2.184V290H307.51v2.807A2.184,2.184,0,0,1,305.326,294.993Z" transform="translate(-272.657 -290.001)" fill="#84d8f2"/>
        <path id="Trazado_615812" data-name="Trazado 615812" d="M392.657,290v4.992h15.194a2.184,2.184,0,0,0,2.184-2.184V290Z" transform="translate(-375.183 -290.001)" fill="#70acf8"/>
      </g>
    </g>
  </g>
</svg>
