<svg xmlns="http://www.w3.org/2000/svg" width="139" height="139" viewBox="0 0 139 139">
  <g id="img9" transform="translate(-1151 -3716.807)">
    <g id="Grupo_1074470" data-name="Grupo 1074470" transform="translate(1151 3716.807)">
      <rect id="Rect치ngulo_378651" data-name="Rect치ngulo 378651" width="139" height="30" rx="15" transform="translate(0 109)" fill="#315884"/>
      <g id="Grupo_1074381" data-name="Grupo 1074381" transform="translate(3.475 0)">
        <g id="Grupo_1073526" data-name="Grupo 1073526" transform="translate(0 0)">
          <g id="Grupo_1072785" data-name="Grupo 1072785" transform="translate(0 0)">
            <path id="Trazado_608385" data-name="Trazado 608385" d="M65.462,0A65.462,65.462,0,1,1,0,65.462,65.462,65.462,0,0,1,65.462,0Z" transform="translate(0 0)" fill="none"/>
          </g>
          <g id="Grupo_1073383" data-name="Grupo 1073383" transform="translate(0 0)">
            <g id="Trazado_608385-2" data-name="Trazado 608385" transform="translate(0 0)" fill="#fff">
              <path d="M 65.46222686767578 129.9244689941406 C 56.75944519042969 129.9244689941406 48.3175163269043 128.2202301025391 40.37093734741211 124.8591156005859 C 36.55149841308594 123.2436294555664 32.86757278442383 121.2440414428711 29.42148208618164 118.9159164428711 C 26.00788116455078 116.609733581543 22.7978458404541 113.9612121582031 19.88055419921875 111.0439147949219 C 16.9632625579834 108.1266098022461 14.31473636627197 104.9165878295898 12.00855445861816 101.5029754638672 C 9.680426597595215 98.05690002441406 7.680845260620117 94.37297058105469 6.065354347229004 90.55353546142578 C 2.704245090484619 82.60695648193359 1.000008702278137 74.16500854492188 1.000008702278137 65.46222686767578 C 1.000008702278137 56.75944519042969 2.704245090484619 48.3175163269043 6.065354347229004 40.37093734741211 C 7.680845260620117 36.55149841308594 9.680426597595215 32.86757278442383 12.00855445861816 29.42148208618164 C 14.31473636627197 26.00788116455078 16.9632625579834 22.7978458404541 19.88055419921875 19.88055419921875 C 22.7978458404541 16.9632625579834 26.00788116455078 14.31473636627197 29.42148208618164 12.00855445861816 C 32.86757278442383 9.680426597595215 36.55149841308594 7.680845260620117 40.37093734741211 6.065354347229004 C 48.3175163269043 2.704245090484619 56.75944519042969 1.000008702278137 65.46222686767578 1.000008702278137 C 74.16500854492188 1.000008702278137 82.60695648193359 2.704245090484619 90.55353546142578 6.065354347229004 C 94.37297058105469 7.680845260620117 98.05690002441406 9.680426597595215 101.5029754638672 12.00855445861816 C 104.9165878295898 14.31473636627197 108.1266098022461 16.9632625579834 111.0439147949219 19.88055419921875 C 113.9612121582031 22.7978458404541 116.609733581543 26.00788116455078 118.9159164428711 29.42148208618164 C 121.2440414428711 32.86757278442383 123.2436294555664 36.55149841308594 124.8591156005859 40.37093734741211 C 128.2202301025391 48.3175163269043 129.9244689941406 56.75944519042969 129.9244689941406 65.46222686767578 C 129.9244689941406 74.16500854492188 128.2202301025391 82.60695648193359 124.8591156005859 90.55353546142578 C 123.2436294555664 94.37297058105469 121.2440414428711 98.05690002441406 118.9159164428711 101.5029754638672 C 116.609733581543 104.9165878295898 113.9612121582031 108.1266098022461 111.0439147949219 111.0439147949219 C 108.1266098022461 113.9612121582031 104.9165878295898 116.609733581543 101.5029754638672 118.9159164428711 C 98.05690002441406 121.2440414428711 94.37297058105469 123.2436294555664 90.55353546142578 124.8591156005859 C 82.60695648193359 128.2202301025391 74.16500854492188 129.9244689941406 65.46222686767578 129.9244689941406 Z" stroke="none"/>
              <path d="M 65.46222686767578 1.999984741210938 C 56.89401245117188 1.999984741210938 48.58313751220703 3.677642822265625 40.76048278808594 6.986351013183594 C 37.00051879882812 8.576683044433594 33.37386322021484 10.54517364501953 29.98128509521484 12.83715057373047 C 26.62042999267578 15.10771942138672 23.45995330810547 17.71535491943359 20.587646484375 20.587646484375 C 17.71535491943359 23.45995330810547 15.10771942138672 26.62042999267578 12.83715057373047 29.98128509521484 C 10.54517364501953 33.37386322021484 8.576683044433594 37.00051879882812 6.986351013183594 40.76048278808594 C 3.677642822265625 48.58313751220703 1.999984741210938 56.89401245117188 1.999984741210938 65.46222686767578 C 1.999984741210938 74.03046417236328 3.677642822265625 82.34131622314453 6.986351013183594 90.16397094726562 C 8.576683044433594 93.9239501953125 10.54517364501953 97.55059051513672 12.83715057373047 100.9431762695312 C 15.10771942138672 104.3040313720703 17.71535491943359 107.4645004272461 20.587646484375 110.3367919921875 C 23.45995330810547 113.2090835571289 26.62042999267578 115.8167343139648 29.98128509521484 118.0872802734375 C 33.37386322021484 120.379264831543 37.00051879882812 122.3477554321289 40.76048278808594 123.938102722168 C 48.58313751220703 127.2467880249023 56.89401245117188 128.9244384765625 65.46222686767578 128.9244384765625 C 74.03046417236328 128.9244384765625 82.34133911132812 127.2467880249023 90.16397094726562 123.938102722168 C 93.9239501953125 122.3477554321289 97.55059051513672 120.379264831543 100.9431762695312 118.0872802734375 C 104.3040313720703 115.8167343139648 107.4645004272461 113.2090835571289 110.3367919921875 110.3367919921875 C 113.2090835571289 107.4645004272461 115.8167343139648 104.3040313720703 118.0872802734375 100.9431762695312 C 120.379264831543 97.55059051513672 122.3477554321289 93.9239501953125 123.938102722168 90.16397094726562 C 127.2467880249023 82.34133911132812 128.9244384765625 74.03046417236328 128.9244384765625 65.46222686767578 C 128.9244384765625 56.89401245117188 127.2467880249023 48.58313751220703 123.938102722168 40.76048278808594 C 122.3477554321289 37.00051879882812 120.379264831543 33.37386322021484 118.0872802734375 29.98128509521484 C 115.8167343139648 26.62042999267578 113.2090835571289 23.45995330810547 110.3367919921875 20.587646484375 C 107.4645004272461 17.71535491943359 104.3040313720703 15.10771942138672 100.9431762695312 12.83715057373047 C 97.55059051513672 10.54517364501953 93.9239501953125 8.576683044433594 90.16397094726562 6.986351013183594 C 82.34131622314453 3.677642822265625 74.03046417236328 1.999984741210938 65.46222686767578 1.999984741210938 M 65.46222686767578 -1.52587890625e-05 C 101.6160278320312 -1.52587890625e-05 130.9244384765625 29.30844879150391 130.9244384765625 65.46222686767578 C 130.9244384765625 101.6160278320312 101.6160278320312 130.9244384765625 65.46222686767578 130.9244384765625 C 29.30844879150391 130.9244384765625 -1.52587890625e-05 101.6160278320312 -1.52587890625e-05 65.46222686767578 C -1.52587890625e-05 29.30844879150391 29.30844879150391 -1.52587890625e-05 65.46222686767578 -1.52587890625e-05 Z" stroke="none" fill="#85b6ec"/>
            </g>
          </g>
        </g>
      </g>
      <path id="Trazado_615556" data-name="Trazado 615556" d="M752.741,143.019l5.036-5.036a1.424,1.424,0,1,0-2.013-2.013l-5.036,5.036-5.036-5.036a1.424,1.424,0,1,0-2.013,2.013l5.036,5.036-5.036,5.036a1.424,1.424,0,1,0,2.013,2.013l5.036-5.036,5.036,5.036a1.424,1.424,0,0,0,2.013-2.013Z" transform="translate(-629.091 -124.169)" fill="#ff7c48"/>
      <path id="Trazado_615557" data-name="Trazado 615557" d="M0,15.861,10.1,0,20.2,15.861Z" transform="translate(17.903 87.028) rotate(90)" fill="#ffb850"/>
      <path id="Trazado_615559" data-name="Trazado 615559" d="M159.276,312.164a4.15,4.15,0,1,1-4.15-4.15,4.15,4.15,0,0,1,4.15,4.15" transform="translate(-50.197 -191.155)" fill="#ffb850"/>
      <path id="Trazado_615560" data-name="Trazado 615560" d="M77.022,312.164a4.15,4.15,0,1,1-4.15-4.15,4.15,4.15,0,0,1,4.15,4.15" transform="translate(14.781 -191.155)" fill="#3656b3"/>
      <path id="Trazado_615561" data-name="Trazado 615561" d="M241.53,312.164a4.15,4.15,0,1,1-4.15-4.15,4.15,4.15,0,0,1,4.15,4.15" transform="translate(-115.173 -191.155)" fill="#29c7cc"/>
    </g>
    <g id="Grupo_1074471" data-name="Grupo 1074471" transform="translate(1177.922 3738.014)">
      <rect id="Rect치ngulo_378646" data-name="Rect치ngulo 378646" width="84.023" height="84.023" fill="#fff"/>
      <g id="Grupo_1075350" data-name="Grupo 1075350" transform="translate(12.324 30.42)">
        <circle id="Elipse_6051" data-name="Elipse 6051" cx="13.406" cy="13.406" r="13.406" transform="translate(-4.625 0.766) rotate(-67.486)" fill="#ff6f64"/>
        <path id="Trazado_616939" data-name="Trazado 616939" d="M302.871,28.013H275.127a1.992,1.992,0,0,1-1.725-2.989L287.273,1a1.992,1.992,0,0,1,3.451,0L304.6,25.024a1.992,1.992,0,0,1-1.725,2.989Z" transform="translate(-240.864 -20.819)" fill="#bfe04b"/>
        <path id="Trazado_616940" data-name="Trazado 616940" d="M314.431,308.861H290.956a1.993,1.993,0,0,1-1.992-1.992V283.392a1.993,1.993,0,0,1,1.992-1.992h23.476a1.993,1.993,0,0,1,1.992,1.992v23.476A1.993,1.993,0,0,1,314.431,308.861Z" transform="translate(-254.59 -264.84)" fill="#5699fb"/>
        <path id="Trazado_616941" data-name="Trazado 616941" d="M33.218,273.04,18.309,258.132a1.993,1.993,0,0,0-2.818,0L.584,273.04a1.993,1.993,0,0,0,0,2.818l14.908,14.907a1.993,1.993,0,0,0,2.818,0l14.907-14.907A1.993,1.993,0,0,0,33.218,273.04Z" transform="translate(-4.011 -244.157)" fill="#ffe835"/>
        <path id="Trazado_616942" data-name="Trazado 616942" d="M406.44,28.013a1.992,1.992,0,0,0,1.726-2.989L394.293,1a1.992,1.992,0,0,0-1.725-1V28.013Z" transform="translate(-344.432 -20.819)" fill="#67d360"/>
        <path id="Trazado_616943" data-name="Trazado 616943" d="M404.068,281.4H392.33v27.461h11.738a1.993,1.993,0,0,0,1.992-1.992V283.392A1.993,1.993,0,0,0,404.068,281.4Z" transform="translate(-344.226 -264.84)" fill="#4465f2"/>
        <path id="Trazado_616944" data-name="Trazado 616944" d="M127.229,6.957a13.406,13.406,0,1,1,0,26.812Z" transform="translate(-114.339 -26.852)" fill="#ff2776"/>
        <path id="Trazado_616945" data-name="Trazado 616945" d="M143.546,273.04l-14.908-14.907a1.986,1.986,0,0,0-1.408-.584v33.8a1.986,1.986,0,0,0,1.409-.584l14.907-14.907A1.992,1.992,0,0,0,143.546,273.04Z" transform="translate(-114.339 -244.157)" fill="#ffc833"/>
      </g>
    </g>
  </g>
</svg>
